<svg width="26" height="26" viewBox="0 0 26 26" fill="none" xmlns="http://www.w3.org/2000/svg">
<path d="M8.41955 3.39725C7.8508 3.58006 7.24142 4.05233 6.96721 4.51444C6.89611 4.63631 6.56603 5.39295 6.24103 6.19022C5.75861 7.35819 5.62658 7.64256 5.55041 7.63748C5.49963 7.63241 5.17463 7.55623 4.82424 7.46483C4.25041 7.31756 4.16916 7.3074 3.96096 7.36326C3.66642 7.44451 3.38205 7.72889 3.3008 8.02342C3.26017 8.16561 3.24494 8.46522 3.26017 8.81053L3.28049 9.3742L2.90471 9.64842C2.40197 10.0191 1.60471 10.857 1.25939 11.3801C0.695722 12.2332 0.31994 13.1371 0.121893 14.1426C-0.0152159 14.8281 -0.00505964 16.1484 0.147284 16.8594C0.462128 18.3422 1.08166 19.5051 2.12775 20.5562C3.48869 21.9324 5.31174 22.6941 7.23127 22.6992C9.70939 22.7043 11.9793 21.4855 13.3352 19.4187C13.5942 19.0226 13.9496 18.3472 14.0563 18.0273L14.1121 17.875H17.7684H21.4195L21.4399 18.7992C21.4551 19.7031 21.4602 19.7336 21.5871 19.9316C21.7598 20.1957 21.8664 20.282 22.1406 20.409C22.3488 20.5055 22.4707 20.5156 23.4102 20.5156C24.3953 20.5156 24.4664 20.5105 24.7051 20.3937C25.0047 20.2566 25.1926 20.0535 25.3094 19.7437C25.3856 19.5457 25.3957 19.1801 25.3754 16.0722L25.3602 12.6191L25.2231 12.0047C25.152 11.6695 25.0047 11.1668 24.9082 10.8875C24.6442 10.1613 24.6543 10.207 24.766 10.207C24.9793 10.207 25.4008 10.0394 25.5785 9.88709C25.6801 9.80076 25.8172 9.61287 25.8781 9.47069C25.9797 9.25233 26 9.13553 26 8.65311C26 8.16053 25.9848 8.06405 25.8731 7.84061C25.7106 7.51053 25.4262 7.33787 25.0606 7.34803C24.9235 7.34803 24.5477 7.4242 24.2278 7.51561C23.9129 7.60194 23.6336 7.6578 23.6133 7.63241C23.5879 7.61209 23.3137 6.96209 23.0039 6.1953C22.3184 4.51951 22.3133 4.50936 22.0035 4.16405C21.6938 3.81873 21.252 3.52928 20.8305 3.40233C20.5156 3.30584 20.3531 3.30076 14.6047 3.30584C9.04416 3.30584 8.69377 3.31092 8.41955 3.39725ZM20.1399 4.38748C20.4852 4.5449 20.7492 4.78865 20.8914 5.07303C21.2113 5.70272 22.7653 9.59256 22.7906 9.81092C22.811 10.0344 22.8008 10.0648 22.6332 10.2324L22.4555 10.4101H17.4738H12.4922L12.1012 10.0496C11.3801 9.39451 10.4762 8.86639 9.5215 8.55662C8.89182 8.34842 8.54142 8.2824 7.70861 8.20623L7.06369 8.15037L7.71877 6.55584C8.40939 4.88006 8.51096 4.69725 8.91213 4.47889C9.28791 4.27069 9.19142 4.27576 14.625 4.27069L19.8809 4.26561L20.1399 4.38748ZM8.65822 10.4812C9.79572 10.8215 10.7047 11.4461 11.3852 12.3601C12.7004 14.1324 12.7613 16.4683 11.5324 18.332C11.2481 18.7637 10.5981 19.4137 10.141 19.7183C8.85627 20.5765 7.29221 20.8152 5.79924 20.3836C4.24025 19.9316 2.92502 18.6722 2.39689 17.1387C2.12267 16.3363 2.0465 15.2394 2.209 14.4472C2.6051 12.5328 3.99142 11.0297 5.8551 10.4863C6.37306 10.339 6.60666 10.3137 7.41408 10.3289C8.08439 10.3441 8.26721 10.3695 8.65822 10.4812ZM22.7754 13.0203C22.8668 13.0609 22.9684 13.1371 22.9988 13.193C23.0344 13.259 23.0547 13.6754 23.0547 14.2949C23.0547 15.275 23.0547 15.2902 22.9328 15.4121C22.8668 15.4781 22.7348 15.5441 22.6434 15.5644C22.5469 15.5797 21.6887 15.5898 20.7289 15.5797L18.982 15.5644L18.8348 15.3969L18.6824 15.2242L18.6977 14.2441C18.7129 13.2894 18.718 13.259 18.8348 13.132C18.9008 13.0609 19.0024 12.9949 19.0633 12.9847C19.1192 12.9746 19.9418 12.9594 20.8863 12.9543C22.2625 12.9492 22.6332 12.9644 22.7754 13.0203Z" fill="white"/>
<path d="M6.46953 11.0195C5.61133 11.1769 4.77852 11.6238 4.11328 12.289C3.21953 13.1828 2.79297 14.1984 2.79297 15.4375C2.79297 16.7933 3.34141 17.9867 4.36719 18.8652C5.18984 19.566 6.16484 19.9164 7.28711 19.9164C8.69883 19.9164 9.97852 19.2816 10.8215 18.1644C11.4664 17.3113 11.7355 16.4988 11.7355 15.4375C11.7355 14.8789 11.7102 14.6961 11.573 14.2086C11.3598 13.4722 11.0398 12.9187 10.5168 12.3703C9.94297 11.7761 9.16602 11.3039 8.4043 11.0957C8.04375 10.9992 6.85547 10.9535 6.46953 11.0195ZM6.99766 12.6242L7.00781 13.6957L6.79453 13.7566C6.67266 13.7922 6.5 13.8683 6.40859 13.9242L6.23594 14.0308L5.4793 13.2742C5.06289 12.8578 4.72266 12.5023 4.72266 12.4871C4.72266 12.4261 5.20508 12.1011 5.51992 11.9437C5.97695 11.7152 6.62188 11.5222 6.88086 11.5426C6.97734 11.5527 6.98242 11.5933 6.99766 12.6242ZM8.06406 11.6086C8.50078 11.6949 9.35899 12.091 9.64844 12.3347L9.82617 12.4871L9.05938 13.2539L8.29766 14.0207L8.11992 13.9242C8.02344 13.8683 7.86094 13.7972 7.75938 13.7617L7.56641 13.7008V12.614C7.56641 11.8929 7.58672 11.5273 7.61719 11.5273C7.64766 11.5273 7.85078 11.5629 8.06406 11.6086ZM5.09844 13.6551L5.85508 14.4117L5.74844 14.5844C5.69258 14.6758 5.61641 14.8484 5.58086 14.9652L5.51992 15.1836H4.4332C3.49375 15.1836 3.35156 15.1734 3.35156 15.1074C3.35156 14.8636 3.53945 14.1883 3.70195 13.8379C3.88477 13.4469 4.24023 12.8984 4.31133 12.8984C4.32656 12.8984 4.68203 13.2386 5.09844 13.6551ZM10.7402 13.6703C10.9688 14.107 11.1719 14.7519 11.1719 15.0414V15.1836H10.1055H9.03906L8.9832 15.0414C8.95274 14.9652 8.87656 14.7926 8.8207 14.6605L8.71406 14.4168L9.47578 13.6551L10.2324 12.8984L10.3695 13.0609C10.4457 13.1523 10.6133 13.4265 10.7402 13.6703ZM7.67305 14.2441C8.18086 14.4168 8.53125 14.9094 8.53125 15.4324C8.52617 16.3769 7.54609 16.9914 6.71328 16.575C5.92109 16.1789 5.75352 15.1734 6.37813 14.5539C6.73359 14.1933 7.20078 14.0867 7.67305 14.2441ZM5.58594 15.9301C5.62148 16.0367 5.69258 16.1992 5.74844 16.2957L5.84492 16.4683L5.09336 17.225C4.68203 17.6363 4.32656 17.9765 4.30625 17.9765C4.24023 17.9765 3.93047 17.5195 3.74258 17.1386C3.575 16.8086 3.35156 16.0621 3.35156 15.8285C3.35156 15.7472 3.43789 15.7422 4.43828 15.7422H5.525L5.58594 15.9301ZM11.1719 15.859C11.1719 16.316 10.7301 17.4027 10.3898 17.7988L10.2121 18.0019L9.45039 17.2453L8.68867 16.4886L8.80547 16.2551C8.87149 16.1281 8.9375 15.9605 8.95781 15.8793L8.98828 15.7422H10.0801H11.1719V15.859ZM9.62305 18.5605C9.21172 18.916 8.42969 19.2511 7.85078 19.3222L7.56641 19.3578V18.266V17.1691L7.75938 17.1133C7.86094 17.0828 8.02852 17.0168 8.125 16.9609L8.30274 16.8644L9.06445 17.6261L9.82617 18.3879L9.62305 18.5605ZM6.51016 17.0066C6.63203 17.0574 6.78945 17.1285 6.8707 17.159L7.00781 17.2148V18.2812V19.3476H6.86563C6.40352 19.3476 5.43359 18.9719 4.95625 18.6062L4.7125 18.4183L5.46406 17.6668C5.88047 17.2504 6.23594 16.9101 6.25625 16.9101C6.27656 16.9101 6.39336 16.9558 6.51016 17.0066Z" fill="white"/>
</svg>
