<svg width="14" height="18" viewBox="0 0 14 18" fill="none" xmlns="http://www.w3.org/2000/svg">
<path d="M7.62352 15.6614C8.37112 15.3141 8.90429 14.7657 9.11408 13.885C9.17392 13.6247 9.20391 13.357 9.20333 13.0883C9.21028 10.8897 9.19174 8.69109 9.21434 6.49247C9.22419 5.52249 8.54498 5.14226 7.86344 5.48563C6.73219 6.05533 5.57022 6.54938 4.42042 7.07316C4.32404 7.12027 4.22367 7.15645 4.1208 7.18116C3.38827 7.34153 3.01099 8.07224 3.27642 8.86245C3.63168 9.91844 4.01475 10.9621 4.36421 12.0201C4.55951 12.6117 4.72526 13.217 4.87942 13.8242C5.10775 14.7263 5.6218 15.3083 6.3949 15.6542C5.59166 15.6542 4.78785 15.6607 3.98403 15.6439C3.90985 15.6439 3.83393 15.4939 3.76845 15.4053C3.74874 15.3788 3.75628 15.3206 3.76207 15.276C3.87276 14.4217 3.59516 13.6884 3.24802 12.948C2.52302 11.4044 1.84787 9.83243 1.14025 8.27917C1.04405 8.06772 1.06028 7.94744 1.20922 7.7819C2.3509 6.51381 3.47984 5.23085 4.6221 3.96083C4.77974 3.78494 4.84986 3.60711 4.83421 3.36397C4.82407 3.138 4.82407 2.9116 4.83421 2.68563C4.84059 2.45542 4.93911 2.33385 5.16049 2.33514C6.39683 2.33989 7.63317 2.33989 8.86952 2.33514C9.07815 2.33514 9.16566 2.45542 9.18305 2.66817C9.18709 2.70013 9.18709 2.73256 9.18305 2.76452C9.03642 3.5017 9.37661 3.97764 9.83039 4.45487C10.8243 5.50762 11.7736 6.6134 12.7518 7.68813C12.9465 7.90088 12.9836 8.06448 12.8521 8.3503C12.0488 10.1034 11.2873 11.8784 10.4679 13.6225C10.2361 14.1204 10.2621 14.6157 10.2558 15.1259C10.2488 15.6568 10.2419 15.6678 9.76838 15.6659C9.05149 15.6588 8.3375 15.6614 7.62352 15.6614Z" fill="white"/>
<path d="M5.03372 12.1888C4.72541 11.3042 4.44086 10.4803 4.15109 9.64551C5.32175 9.59378 5.73206 8.3438 5.04242 7.47728L7.50776 6.34564C7.78594 7.06278 8.05484 7.25872 8.61178 7.16107V11.5764C8.05542 11.0255 7.44923 10.7105 6.71206 10.8373C5.97489 10.964 5.43824 11.4109 5.03372 12.1888Z" fill="white"/>
<path d="M11.5243 5.43636L10.8434 4.67396C10.9013 4.68043 10.9778 4.71599 11.0091 4.68754C11.1076 4.5983 11.234 4.49742 11.2601 4.37715C11.2763 4.30278 11.125 4.10038 11.0566 4.10491C10.9407 4.11202 10.8213 4.22389 10.7304 4.32283C10.6938 4.36227 10.7304 4.4832 10.7304 4.56726L9.81121 3.59728C10.0726 3.3037 10.2783 3.03405 10.5188 2.81225C10.6661 2.67637 10.8538 2.6072 11.0447 2.61846C11.2355 2.62971 11.4156 2.72058 11.5492 2.87303C12.0832 3.44942 12.6079 4.03572 13.1233 4.63193C13.265 4.79737 13.344 5.0174 13.344 5.24625C13.344 5.47509 13.265 5.69513 13.1233 5.86057C12.9367 6.09142 12.7298 6.30158 12.5113 6.54408L11.5985 5.5159C11.8019 5.61096 11.9798 5.55987 12.0308 5.32191C12.0523 5.22103 11.9485 5.05937 11.8633 4.97077C11.8222 4.92745 11.6391 4.95526 11.6153 5.00634C11.5556 5.13244 11.551 5.29087 11.5243 5.43636Z" fill="white"/>
<path d="M3.17908 4.66883L2.49175 5.44094C2.46625 5.29544 2.46336 5.13701 2.4054 5.00962C2.38164 4.95724 2.19619 4.92361 2.16142 4.96435C2.07565 5.06329 1.96669 5.22948 1.98756 5.33553C2.03972 5.57803 2.22922 5.59872 2.42395 5.51595L1.46366 6.52149C1.25329 6.27253 0.992495 6.00676 0.783862 5.69507C0.582763 5.39567 0.643614 4.91909 0.894553 4.62745C1.41034 4.03382 1.93308 3.44666 2.47031 2.87308C2.78732 2.53229 3.23935 2.54264 3.56737 2.87308C3.77426 3.0813 3.96899 3.3044 4.19327 3.54689L3.30194 4.53627C3.27355 4.41599 3.27355 4.26856 3.20864 4.18449C3.17223 4.14709 3.12809 4.12032 3.08017 4.10656C3.03224 4.0928 2.98201 4.09247 2.93394 4.1056C2.88674 4.13496 2.84591 4.17556 2.81436 4.22451C2.78281 4.27346 2.76131 4.32956 2.75138 4.38883C2.74211 4.47484 2.82557 4.60869 2.90148 4.65913C2.9774 4.70957 3.08462 4.66883 3.17908 4.66883Z" fill="white"/>
<path d="M1.13746 9.67658L2.59904 12.9344C2.73697 13.239 2.85288 13.5623 3.01573 13.8546C3.22842 14.2335 3.18322 14.6306 3.16583 15.0302C2.52834 15.1382 2.51617 15.1304 2.25248 14.5413C1.69845 13.3036 1.14789 12.0588 0.580522 10.8263C0.45882 10.5618 0.464615 10.3737 0.67035 10.1797C0.824506 10.0381 0.963595 9.86992 1.13746 9.67658Z" fill="white"/>
<path d="M10.8569 15.0801C10.8041 14.5879 10.84 14.1838 11.0278 13.7783C11.6207 12.4999 12.1869 11.206 12.7664 9.91912C12.8 9.84476 12.8447 9.77621 12.9067 9.66046C13.095 9.88161 13.2834 10.0698 13.4283 10.2922C13.4926 10.3892 13.5239 10.5865 13.4787 10.6886C12.8754 12.0686 12.253 13.4388 11.6415 14.8149C11.4578 15.2301 11.1385 15.0012 10.8569 15.0801Z" fill="white"/>
<path d="M7.01923 11.4561C7.94301 11.462 8.62629 12.2457 8.62107 13.2926C8.61882 13.5296 8.57446 13.7637 8.49057 13.9814C8.40667 14.1992 8.28491 14.3961 8.13232 14.561C7.97973 14.7258 7.79935 14.8553 7.60162 14.9418C7.40389 15.0283 7.19275 15.0702 6.98041 15.0651C6.09198 15.0573 5.39016 14.2464 5.39306 13.2331C5.39596 12.2198 6.10531 11.4503 7.01923 11.4561ZM7.00996 12.0342C6.71714 12.0339 6.43611 12.163 6.22834 12.3932C6.02058 12.6235 5.903 12.9361 5.90131 13.2629C5.90131 13.9205 6.43159 14.5045 7.01808 14.4915C7.30556 14.4807 7.57855 14.3481 7.78157 14.1207C7.98459 13.8933 8.10241 13.5882 8.11108 13.2674C8.11161 13.1057 8.08353 12.9454 8.02843 12.7958C7.97333 12.6462 7.89231 12.5103 7.79001 12.3957C7.68771 12.2811 7.56614 12.1902 7.43228 12.1282C7.29842 12.0662 7.1549 12.0342 7.00996 12.0342Z" fill="white"/>
<path d="M4.85513 16.3312H9.13906C9.26424 16.9526 8.94549 17.4699 8.39667 17.4829C7.46941 17.5057 6.54332 17.5057 5.61838 17.4829C5.07825 17.4706 4.79312 17.0257 4.85513 16.3312Z" fill="white"/>
<path d="M5.42609 1.66384C5.32003 0.965451 5.62139 0.527021 6.22758 0.510208C6.73815 0.495335 7.24988 0.497921 7.76046 0.510208C8.38809 0.523141 8.69177 0.949285 8.58919 1.66707L5.42609 1.66384Z" fill="white"/>
<path d="M4.80358 8.38452C4.80164 8.49886 4.76955 8.61002 4.71133 8.70413C4.6531 8.79824 4.57132 8.87113 4.47619 8.91368C4.38107 8.95624 4.27681 8.96658 4.17645 8.94342C4.07608 8.92025 3.98406 8.86461 3.91187 8.78344C3.83968 8.70227 3.79052 8.59916 3.77053 8.487C3.75054 8.37484 3.76061 8.2586 3.79947 8.15278C3.83834 8.04697 3.90428 7.95628 3.98907 7.89203C4.07386 7.82779 4.17372 7.79283 4.27621 7.79154C4.34602 7.79066 4.41529 7.80543 4.4799 7.83498C4.5445 7.86453 4.60314 7.90824 4.65232 7.96354C4.7015 8.01885 4.74023 8.0846 4.76622 8.15692C4.7922 8.22923 4.80491 8.30663 4.80358 8.38452ZM4.69521 8.4078C4.50802 8.25649 4.41182 8.12522 4.29649 8.09806C4.25866 8.08689 4.21889 8.08678 4.18102 8.09774C4.14314 8.10871 4.10844 8.13038 4.08025 8.16066C4.05206 8.19094 4.03134 8.22882 4.02009 8.27063C4.00883 8.31245 4.00742 8.3568 4.01599 8.3994C4.03396 8.51256 4.18406 8.66582 4.28606 8.67746C4.38806 8.6891 4.49875 8.54425 4.69521 8.4078Z" fill="white"/>
<path d="M8.35323 6.67656C8.23733 6.46963 8.11331 6.34612 8.12953 6.2517C8.14808 6.14436 8.29064 6.06288 8.37931 5.96976C8.45929 6.07129 8.59316 6.16376 8.60301 6.27498C8.61345 6.37069 8.48189 6.48191 8.35323 6.67656Z" fill="white"/>
<path d="M7.53306 13.2604C7.53157 13.3764 7.49933 13.4892 7.4404 13.5848C7.38148 13.6803 7.29851 13.7543 7.20196 13.7973C7.10542 13.8403 6.99963 13.8504 6.89793 13.8264C6.79623 13.8024 6.70319 13.7453 6.63054 13.6623C6.55789 13.5794 6.50888 13.4743 6.48971 13.3603C6.47054 13.2463 6.48205 13.1285 6.5228 13.0218C6.56355 12.9151 6.63171 12.8242 6.71868 12.7607C6.80565 12.6972 6.90753 12.6638 7.01148 12.6648C7.08124 12.6639 7.15044 12.6788 7.2149 12.7085C7.27936 12.7383 7.33773 12.7824 7.38649 12.8381C7.43525 12.8937 7.47338 12.9599 7.49857 13.0325C7.52376 13.105 7.5355 13.1826 7.53306 13.2604Z" fill="white"/>
</svg>
