<svg width="36" height="37" viewBox="0 0 36 37" fill="none" xmlns="http://www.w3.org/2000/svg">
<g clip-path="url(#clip0_547_809)">
<mask id="mask0_547_809" style="mask-type:luminance" maskUnits="userSpaceOnUse" x="-5" y="5" width="38" height="26">
<path d="M27.5459 29.5459C32.818 24.2739 32.8181 15.7262 27.5459 10.4541C22.2739 5.18198 13.7261 5.18198 8.45406 10.4541C3.18194 15.7262 3.18198 24.2739 8.45406 29.5459" stroke="white" stroke-width="2.5" stroke-linecap="round"/>
<path d="M16.6976 12.6139C20.7768 11.8947 24.6668 14.6185 25.386 18.6976C26.1053 22.7768 23.3815 26.6668 19.3024 27.3861C15.2232 28.1053 -4.15818 23.9071 -4.15818 23.9071C-4.15818 23.9071 12.6185 13.3332 16.6976 12.6139Z" fill="black"/>
<path d="M17.2186 15.5684C19.666 15.1368 22.0001 16.771 22.4316 19.2186C22.8632 21.6662 21.2289 24.0001 18.7814 24.4316C16.3338 24.8632 1.75067 22.8652 1.75067 22.8652C1.75067 22.8652 14.771 15.9999 17.2186 15.5684Z" fill="white"/>
</mask>
<g mask="url(#mask0_547_809)">
<path d="M36 0.5H0V36.5H36V0.5Z" fill="#1E90F3"/>
</g>
</g>
<defs>
<clipPath id="clip0_547_809">
<rect width="36" height="36" fill="white" transform="translate(0 0.5)"/>
</clipPath>
</defs>
</svg>
