<svg width="100" height="100" viewBox="0 0 100 100" fill="none" xmlns="http://www.w3.org/2000/svg">
<path d="M50 6.25C38.4403 6.39026 27.3937 11.0447 19.2192 19.2192C11.0447 27.3937 6.39026 38.4403 6.25 50C6.39026 61.5597 11.0447 72.6063 19.2192 80.7808C27.3937 88.9553 38.4403 93.6097 50 93.75C61.5597 93.6097 72.6063 88.9553 80.7808 80.7808C88.9553 72.6063 93.6097 61.5597 93.75 50C93.6097 38.4403 88.9553 27.3937 80.7808 19.2192C72.6063 11.0447 61.5597 6.39026 50 6.25ZM75 53.125H53.125V75H46.875V53.125H25V46.875H46.875V25H53.125V46.875H75V53.125Z" fill="#2981FF"/>
</svg>
