<svg width="88" height="88" viewBox="0 0 88 88" fill="none" xmlns="http://www.w3.org/2000/svg">
<path d="M44 0.25C35.3471 0.25 26.8885 2.81589 19.6938 7.62321C12.4992 12.4305 6.89162 19.2633 3.58029 27.2576C0.268956 35.2519 -0.59744 44.0485 1.09066 52.5352C2.77877 61.0219 6.94555 68.8174 13.0641 74.9359C19.1826 81.0545 26.9782 85.2213 35.4648 86.9094C43.9515 88.5975 52.7482 87.7311 60.7424 84.4197C68.7367 81.1084 75.5695 75.5009 80.3768 68.3062C85.1841 61.1115 87.75 52.6529 87.75 44C87.75 32.3968 83.1407 21.2688 74.9359 13.0641C66.7312 4.85936 55.6032 0.25 44 0.25ZM44 72.125C43.0729 72.125 42.1666 71.8501 41.3958 71.335C40.6249 70.8199 40.0241 70.0879 39.6693 69.2313C39.3146 68.3748 39.2217 67.4323 39.4026 66.523C39.5835 65.6137 40.0299 64.7785 40.6855 64.1229C41.341 63.4674 42.1763 63.0209 43.0855 62.8401C43.9948 62.6592 44.9373 62.752 45.7938 63.1068C46.6504 63.4616 47.3825 64.0624 47.8975 64.8333C48.4126 65.6041 48.6875 66.5104 48.6875 67.4375C48.6875 68.6807 48.1937 69.873 47.3146 70.7521C46.4355 71.6311 45.2432 72.125 44 72.125ZM47.5688 47.8938V55.7094H40.5375V40.875H47.1782C49.1478 40.875 51.0368 40.0926 52.4295 38.6998C53.8223 37.3071 54.6047 35.4181 54.6047 33.4484C54.6047 31.4788 53.8223 29.5898 52.4295 28.1971C51.0368 26.8043 49.1478 26.0219 47.1782 26.0219H42.4907C40.5235 26.026 38.6381 26.8093 37.2472 28.2003C35.8562 29.5912 35.0729 31.4766 35.0688 33.4438V35.4375H28.0375V33.4438C28.0441 29.6134 29.5693 25.942 32.2786 23.2345C34.9879 20.5269 38.6603 19.0041 42.4907 19H47.1782C50.971 19.0087 54.6083 20.5082 57.3053 23.1751C60.0022 25.8419 61.5425 29.4622 61.5938 33.2546C61.6451 37.0471 60.2032 40.7077 57.5793 43.4465C54.9554 46.1852 51.36 47.7826 47.5688 47.8938Z" fill="#2981FF"/>
</svg>
