<svg width="122" height="122" viewBox="0 0 122 122" fill="none"
  xmlns="http://www.w3.org/2000/svg">
  <g filter="url(#filter0_d_522_1657)">
    <path d="M61 17.25C72.6032 17.25 83.7312 21.8594 91.9359 30.0641C100.141 38.2688 104.75 49.3968 104.75 61C104.75 72.6032 100.141 83.7312 91.9359 91.9359C83.7312 100.141 72.6032 104.75 61 104.75C49.3968 104.75 38.2688 100.141 30.0641 91.9359C21.8594 83.7312 17.25 72.6032 17.25 61C17.25 49.3968 21.8594 38.2688 30.0641 30.0641C38.2688 21.8594 49.3968 17.25 61 17.25ZM39.125 61C39.125 61.9946 39.5201 62.9484 40.2234 63.6516C40.9266 64.3549 41.8804 64.75 42.875 64.75H79.125C80.1196 64.75 81.0734 64.3549 81.7767 63.6516C82.4799 62.9484 82.875 61.9946 82.875 61C82.875 60.0054 82.4799 59.0516 81.7767 58.3484C81.0734 57.6451 80.1196 57.25 79.125 57.25H42.875C42.3825 57.25 41.8949 57.347 41.4399 57.5355C40.985 57.7239 40.5716 58.0001 40.2234 58.3484C39.8751 58.6966 39.5989 59.11 39.4105 59.5649C39.222 60.0199 39.125 60.5075 39.125 61Z" fill="url(#paint0_linear_522_1657)"/>
    <path d="M61 17.75C72.4706 17.75 83.4714 22.3067 91.5824 30.4176C99.6933 38.5286 104.25 49.5294 104.25 61C104.25 72.4706 99.6933 83.4714 91.5824 91.5824C83.4714 99.6933 72.4706 104.25 61 104.25C49.5294 104.25 38.5286 99.6933 30.4176 91.5824C22.3067 83.4714 17.75 72.4706 17.75 61C17.75 49.5294 22.3067 38.5286 30.4176 30.4176C38.5286 22.3067 49.5294 17.75 61 17.75ZM38.625 61C38.625 62.1272 39.0728 63.2082 39.8698 64.0052C40.6668 64.8022 41.7478 65.25 42.875 65.25H79.125C80.2522 65.25 81.3332 64.8022 82.1302 64.0052C82.9272 63.2082 83.375 62.1272 83.375 61C83.375 59.8728 82.9272 58.7918 82.1302 57.9948C81.3332 57.1978 80.2522 56.75 79.125 56.75H42.875C42.3169 56.75 41.7642 56.8599 41.2486 57.0735C40.733 57.2871 40.2644 57.6001 39.8698 57.9948C39.4751 58.3894 39.1621 58.858 38.9485 59.3736C38.7349 59.8892 38.625 60.4419 38.625 61Z" stroke="#F92E3E"/>
  </g>
  <defs>
    <filter id="filter0_d_522_1657" x="0.25" y="0.25" width="121.5" height="121.5" filterUnits="userSpaceOnUse" color-interpolation-filters="sRGB">
      <feFlood flood-opacity="0" result="BackgroundImageFix"/>
      <feColorMatrix in="SourceAlpha" type="matrix" values="0 0 0 0 0 0 0 0 0 0 0 0 0 0 0 0 0 0 127 0" result="hardAlpha"/>
      <feOffset/>
      <feGaussianBlur stdDeviation="8.5"/>
      <feComposite in2="hardAlpha" operator="out"/>
      <feColorMatrix type="matrix" values="0 0 0 0 0.976471 0 0 0 0 0.180392 0 0 0 0 0.243137 0 0 0 0.45 0"/>
      <feBlend mode="normal" in2="BackgroundImageFix" result="effect1_dropShadow_522_1657"/>
      <feBlend mode="normal" in="SourceGraphic" in2="effect1_dropShadow_522_1657" result="shape"/>
    </filter>
    <linearGradient id="paint0_linear_522_1657" x1="104.75" y1="61" x2="17.25" y2="61" gradientUnits="userSpaceOnUse">
      <stop stop-color="#F92E3E"/>
      <stop offset="1" stop-color="#AD202B"/>
    </linearGradient>
  </defs>
</svg>
