<svg width="17" height="17" viewBox="0 0 17 17" fill="none" xmlns="http://www.w3.org/2000/svg">
  <path fill-rule="evenodd" clip-rule="evenodd"
    d="M0 6.28721V11.0685C0 11.4995 0.430903 11.9526 0.870539 12.0573C1.36535 12.1751 2.95393 12.0653 3.6542 12.0959C3.8564 12.1047 4.01499 12.2846 4.24235 12.4706C4.59618 12.7601 4.93139 13.0274 5.29364 13.3119L8.96485 16.2481C9.23475 16.4589 9.33242 16.6134 9.66211 16.6134C9.85279 16.6134 10.0179 16.5016 10.1008 16.388C10.1811 16.2781 10.2266 16.0367 10.2266 15.8497V1.50593C10.2266 1.01705 10.0554 0.742249 9.56253 0.742249C9.33539 0.742249 8.66848 1.3484 8.46683 1.50593L6.3646 3.18886C6.00833 3.4773 5.66582 3.75345 5.31253 4.02937C5.19749 4.11921 3.88729 5.23226 3.7167 5.25579C3.2426 5.32119 1.59554 5.16561 0.899743 5.29427C0.442442 5.37882 5.72629e-05 5.85737 5.72629e-05 6.28716L0 6.28721Z"
    fill="white" />
  <path fill-rule="evenodd" clip-rule="evenodd"
    d="M14.2773 14.4552C14.6614 14.4552 15.1476 13.7936 15.373 13.4923C16.2856 12.2724 16.9999 10.6659 16.9999 8.94349C16.9999 7.37855 16.7914 6.36872 16.1699 5.12512C16.0079 4.8011 14.905 2.90051 14.2773 2.90051C14.1081 2.90051 13.9618 2.96373 13.8519 3.07285C13.4521 3.47002 13.8495 3.88586 14.07 4.10383C15.1387 5.16013 15.9413 7.22695 15.8602 8.70373C15.8194 9.44586 15.7914 9.85864 15.5914 10.5565C15.4398 11.0854 15.2149 11.6219 14.9607 12.0507C14.8254 12.2789 14.691 12.4884 14.5385 12.691C14.165 13.1868 13.6418 13.5745 13.691 13.9445C13.7297 14.2352 13.967 14.4552 14.2773 14.4552H14.2773Z"
    fill="white" />
  <path fill-rule="evenodd" clip-rule="evenodd"
    d="M12.086 5.02549C12.086 5.41883 12.4459 5.62947 12.8073 6.13026C12.8582 6.2007 12.8763 6.2419 12.9226 6.31385C14.0107 8.00522 13.7594 10.3497 12.2759 11.856C11.7463 12.3937 12.4651 13.3028 13.1569 12.6043C13.2887 12.4713 13.4029 12.3398 13.5139 12.1976C14.013 11.5581 14.3585 10.9123 14.5563 10.1189C14.8495 8.94247 14.8022 7.81551 14.382 6.68062L14.1455 6.12027C13.9151 5.67104 13.1705 4.49426 12.6836 4.49426C12.3319 4.49426 12.0859 4.80849 12.0859 5.02552L12.086 5.02549Z"
    fill="white" />
</svg>