<svg width="30" height="30" viewBox="0 0 30 30" fill="none" xmlns="http://www.w3.org/2000/svg">
<path fill-rule="evenodd" clip-rule="evenodd" d="M9.13251 9.6975L9.56126 13.5575L8.69376 13.6262C8.10563 13.6731 7.55019 13.9158 7.11624 14.3155C6.68229 14.7152 6.3949 15.2489 6.30001 15.8312C5.8471 18.592 5.8471 21.408 6.30001 24.1687C6.39465 24.7513 6.68193 25.2853 7.1159 25.6852C7.54987 26.0852 8.10545 26.3281 8.69376 26.375L10.5638 26.525C13.5163 26.76 16.4838 26.76 19.4363 26.525L21.3063 26.375C21.8944 26.3282 22.4498 26.0855 22.8838 25.6857C23.3177 25.286 23.6051 24.7523 23.7 24.17C24.1529 21.4093 24.1529 18.5932 23.7 15.8325C23.6051 15.2502 23.3177 14.7165 22.8838 14.3168C22.4498 13.917 21.8944 13.6743 21.3063 13.6275L20.4388 13.5587L20.8675 9.69875C20.9175 9.24208 20.9175 8.78583 20.8675 8.33L20.8388 8.07375C20.6785 6.63735 19.9943 5.31045 18.9171 4.3468C17.8399 3.38315 16.4453 2.85038 15 2.85038C13.5547 2.85038 12.1601 3.38315 11.0829 4.3468C10.0057 5.31045 9.32157 6.63735 9.16126 8.07375L9.13251 8.33C9.0824 8.78487 9.0824 9.24387 9.13251 9.69875M15.4675 4.75C14.9438 4.68842 14.413 4.73102 13.9058 4.87534C13.3986 5.01966 12.9249 5.26285 12.512 5.59092C12.0991 5.919 11.7552 6.32548 11.5 6.78698C11.2448 7.24848 11.0834 7.75588 11.025 8.28L10.9963 8.53625C10.9614 8.85363 10.9614 9.17387 10.9963 9.49125L11.4325 13.415C13.8075 13.2625 16.1913 13.2625 18.5675 13.415L19.0038 9.49C19.0385 9.17303 19.0385 8.85321 19.0038 8.53625L18.975 8.28C18.8753 7.3817 18.4743 6.54365 17.8374 5.9024C17.2004 5.26115 16.3651 4.85576 15.4675 4.75ZM15 18.125C14.5027 18.125 14.0258 18.3225 13.6742 18.6742C13.3226 19.0258 13.125 19.5027 13.125 20C13.125 20.4973 13.3226 20.9742 13.6742 21.3258C14.0258 21.6775 14.5027 21.875 15 21.875C15.4973 21.875 15.9742 21.6775 16.3258 21.3258C16.6775 20.9742 16.875 20.4973 16.875 20C16.875 19.5027 16.6775 19.0258 16.3258 18.6742C15.9742 18.3225 15.4973 18.125 15 18.125Z" fill="white"/>
</svg>
