<svg width="17" height="16" viewBox="0 0 17 16" fill="none" xmlns="http://www.w3.org/2000/svg">
<mask id="mask0_291_523" style="mask-type:luminance" maskUnits="userSpaceOnUse" x="2" y="0" width="13" height="16">
<path d="M8.5 14.6667C8.5 14.6667 13.5 10.6667 13.5 6.33333C13.5 3.572 11.2613 1.33333 8.5 1.33333C5.73867 1.33333 3.5 3.572 3.5 6.33333C3.5 10.6667 8.5 14.6667 8.5 14.6667Z" fill="white" stroke="white" stroke-width="1.83333" stroke-linejoin="round"/>
<path d="M8.5 8.33333C8.76264 8.33333 9.02272 8.2816 9.26537 8.18109C9.50802 8.08058 9.7285 7.93326 9.91421 7.74755C10.0999 7.56183 10.2472 7.34135 10.3478 7.0987C10.4483 6.85605 10.5 6.59598 10.5 6.33333C10.5 6.07069 10.4483 5.81062 10.3478 5.56797C10.2472 5.32531 10.0999 5.10484 9.91421 4.91912C9.7285 4.7334 9.50802 4.58608 9.26537 4.48557C9.02272 4.38506 8.76264 4.33333 8.5 4.33333C7.96957 4.33333 7.46086 4.54405 7.08579 4.91912C6.71071 5.29419 6.5 5.8029 6.5 6.33333C6.5 6.86377 6.71071 7.37247 7.08579 7.74755C7.46086 8.12262 7.96957 8.33333 8.5 8.33333Z" fill="black" stroke="black" stroke-width="1.83333" stroke-linejoin="round"/>
</mask>
<g mask="url(#mask0_291_523)">
<path d="M0.5 0H16.5V16H0.5V0Z" fill="white"/>
</g>
</svg>
