<svg width="18" height="18" viewBox="0 0 18 18" fill="none" xmlns="http://www.w3.org/2000/svg">
<path d="M16.0692 6.09334L3.69 2.29647C3.52245 2.2476 3.34583 2.23838 3.1741 2.26955C3.00237 2.30072 2.84025 2.37141 2.70056 2.47604C2.56087 2.58067 2.44744 2.71637 2.36924 2.87241C2.29104 3.02844 2.25022 3.20053 2.25 3.37506V13.5001C2.25 13.7984 2.36853 14.0846 2.5795 14.2956C2.79048 14.5065 3.07663 14.6251 3.375 14.6251C3.48258 14.6251 3.58961 14.6097 3.69281 14.5794L9.5625 12.7779V13.5001C9.5625 13.7984 9.68103 14.0846 9.892 14.2956C10.103 14.5065 10.3891 14.6251 10.6875 14.6251H12.9375C13.2359 14.6251 13.522 14.5065 13.733 14.2956C13.944 14.0846 14.0625 13.7984 14.0625 13.5001V11.3977L16.0692 10.7825C16.3015 10.7127 16.5052 10.5701 16.6502 10.3758C16.7953 10.1815 16.8741 9.94569 16.875 9.70318V7.17193C16.874 6.92955 16.7951 6.69391 16.65 6.49973C16.505 6.30554 16.3014 6.16309 16.0692 6.09334ZM9.5625 11.6016L3.375 13.5001V3.37506L9.5625 5.2735V11.6016ZM12.9375 13.5001H10.6875V12.4327L12.9375 11.7422V13.5001ZM15.75 9.70318H15.7423L10.6875 11.2557V5.61943L15.7423 7.16631H15.75V9.69756V9.70318Z" fill="white"/>
</svg>
