<svg width="32" height="35" viewBox="0 0 32 35" fill="none" xmlns="http://www.w3.org/2000/svg">
<g filter="url(#filter0_d_114_833)">
<path d="M17.5 25H14.5V24.25H17.5V25ZM16.75 16V13.75H15.25V16L14.5 17.125V23.5H17.5V17.125L16.75 16ZM16 10C16 10 15.25 10.75 15.25 12.25V13H16.75V12.25C16.75 12.25 16.75 10.75 16 10ZM13 25H10V24.25H13V25ZM12.25 16V13.75H10.75V16L10 17.125V23.5H13V17.125L12.25 16ZM11.5 10C11.5 10 10.75 10.75 10.75 12.25V13H12.25V12.25C12.25 12.25 12.25 10.75 11.5 10ZM22 25H19V24.25H22V25ZM21.25 16V13.75H19.75V16L19 17.125V23.5H22V17.125L21.25 16ZM20.5 10C20.5 10 19.75 10.75 19.75 12.25V13H21.25V12.25C21.25 12.25 21.25 10.75 20.5 10Z" fill="#B80100"/>
</g>
<defs>
<filter id="filter0_d_114_833" x="0" y="0" width="32" height="35" filterUnits="userSpaceOnUse" color-interpolation-filters="sRGB">
<feFlood flood-opacity="0" result="BackgroundImageFix"/>
<feColorMatrix in="SourceAlpha" type="matrix" values="0 0 0 0 0 0 0 0 0 0 0 0 0 0 0 0 0 0 127 0" result="hardAlpha"/>
<feOffset/>
<feGaussianBlur stdDeviation="5"/>
<feComposite in2="hardAlpha" operator="out"/>
<feColorMatrix type="matrix" values="0 0 0 0 0.721569 0 0 0 0 0.00392157 0 0 0 0 0 0 0 0 0.9 0"/>
<feBlend mode="normal" in2="BackgroundImageFix" result="effect1_dropShadow_114_833"/>
<feBlend mode="normal" in="SourceGraphic" in2="effect1_dropShadow_114_833" result="shape"/>
</filter>
</defs>
</svg>
