<svg width="15" height="9" viewBox="0 0 15 9" fill="none" xmlns="http://www.w3.org/2000/svg">
<path d="M7.1202 0.0028503C8.32052 3.00172 8.32111 5.9814 7.11727 9C5.75937 8.92765 4.38799 9.16444 3.0664 8.67112C0.928197 7.87303 -0.337151 5.78243 0.0787732 3.69183C0.279018 2.66265 0.85664 1.73106 1.71211 1.05758C2.56757 0.384093 3.6473 0.0108993 4.76525 0.00230163C5.53852 -0.00317976 6.31881 0.0028503 7.1202 0.0028503Z" fill="white"/>
<path d="M8.09733 0.00175046C8.47401 0.00175046 8.80557 0.00558743 9.13656 0.00175046C9.41013 -0.00208651 9.57123 0.125082 9.65851 0.358589C10.2323 1.86775 10.4864 3.46703 10.4066 5.0671C10.3509 6.2638 10.1053 7.4461 9.67785 8.57519C9.54545 8.92326 9.44352 8.99287 9.0604 8.99507C8.74992 8.99507 8.43944 8.99507 8.09733 8.99507C9.21447 5.99181 9.2174 3.01268 8.09733 0.00175046Z" fill="white"/>
<path d="M13.2126 6.24945C12.7938 6.24945 12.3755 6.25274 11.9572 6.24945C11.6339 6.24671 11.4271 6.07568 11.4259 5.82244C11.4247 5.5692 11.6315 5.39216 11.9531 5.38996C12.7904 5.38521 13.6274 5.38521 14.4639 5.38996C14.7902 5.38996 14.9911 5.56591 14.9911 5.8197C14.9911 6.07349 14.7879 6.24616 14.4639 6.24945C14.0515 6.25274 13.6332 6.24945 13.2126 6.24945Z" fill="white"/>
<path d="M13.2126 2.74464C13.6309 2.74464 14.0497 2.74136 14.468 2.74464C14.7937 2.74464 14.9952 2.91512 14.9999 3.17C15.0046 3.42489 14.799 3.60194 14.4727 3.60413C13.6358 3.60961 12.7988 3.60961 11.9619 3.60413C11.638 3.60413 11.43 3.42598 11.4288 3.17548C11.4288 2.91402 11.6397 2.74629 11.9848 2.7441C12.3925 2.74245 12.8026 2.74464 13.2126 2.74464Z" fill="white"/>
<path d="M12.5682 0.953325C12.1488 0.953325 11.7288 0.957162 11.3093 0.953325C11.0006 0.94894 10.8003 0.780658 10.7944 0.538381C10.788 0.286785 10.9983 0.108641 11.3216 0.107544C12.1605 0.104256 13.0002 0.104256 13.8406 0.107544C14.1716 0.107544 14.3678 0.271989 14.3637 0.535644C14.3596 0.799299 14.1722 0.950579 13.8301 0.954416C13.4071 0.956609 12.9871 0.953325 12.5682 0.953325Z" fill="white"/>
<path d="M12.6268 8.04131C13.0369 8.04131 13.4469 8.03692 13.857 8.04131C14.1751 8.04569 14.3602 8.20575 14.3643 8.45679C14.3684 8.7188 14.1745 8.88544 13.8435 8.88709C13.0047 8.89038 12.165 8.89038 11.3246 8.88709C11.0012 8.88709 10.7915 8.71004 10.7973 8.45789C10.8014 8.21561 11.0024 8.04514 11.3099 8.04131C11.7481 8.03692 12.1845 8.04131 12.6268 8.04131Z" fill="white"/>
</svg>
