<svg width="12" height="18" viewBox="0 0 12 18" fill="none" xmlns="http://www.w3.org/2000/svg">
<path d="M5.99984 8.58333C5.4473 8.58333 4.9174 8.36384 4.5267 7.97314C4.136 7.58244 3.9165 7.05253 3.9165 6.5C3.9165 5.94746 4.136 5.41756 4.5267 5.02686C4.9174 4.63616 5.4473 4.41667 5.99984 4.41667C6.55237 4.41667 7.08228 4.63616 7.47298 5.02686C7.86368 5.41756 8.08317 5.94746 8.08317 6.5C8.08317 6.77359 8.02928 7.0445 7.92459 7.29726C7.81989 7.55002 7.66643 7.77968 7.47298 7.97314C7.27952 8.16659 7.04986 8.32005 6.79709 8.42475C6.54433 8.52945 6.27342 8.58333 5.99984 8.58333ZM5.99984 0.666666C4.45274 0.666666 2.96901 1.28125 1.87505 2.37521C0.781085 3.46917 0.166504 4.9529 0.166504 6.5C0.166504 10.875 5.99984 17.3333 5.99984 17.3333C5.99984 17.3333 11.8332 10.875 11.8332 6.5C11.8332 4.9529 11.2186 3.46917 10.1246 2.37521C9.03066 1.28125 7.54693 0.666666 5.99984 0.666666Z" fill="#B80100"/>
</svg>
