<svg width="20" height="20" viewBox="0 0 20 20" fill="none" xmlns="http://www.w3.org/2000/svg">
<path d="M12.2706 9.92523L11.1309 8.79606C11.3735 8.54758 11.4468 8.46275 11.5005 8.40062C11.5649 8.32611 11.6011 8.28424 11.8671 8.03195C12.1961 7.72027 12.689 7.75275 13.0042 8.05645C13.1629 8.20356 13.257 8.40714 13.2662 8.62303C13.2754 8.83893 13.1989 9.04973 13.0533 9.20974C12.8779 9.40124 12.6798 9.57152 12.4845 9.73932C12.4124 9.80131 12.3407 9.86296 12.2706 9.92523Z" fill="white" fill-opacity="0.6"/>
<path fill-rule="evenodd" clip-rule="evenodd" d="M4.08715 17.8255C3.80661 17.8813 3.52601 17.937 3.24495 17.9916C3.07147 18.0255 2.97067 17.9576 3.00759 17.7753C3.11855 17.1912 3.2346 16.6078 3.35572 16.0253C3.40378 15.7944 3.55323 15.6883 3.79411 15.6772C4.24774 15.6555 4.71134 15.2458 4.78342 14.7981C4.81156 14.624 4.87779 14.5507 5.05361 14.5214C5.47383 14.4517 5.57874 14.3093 5.56644 13.8955C5.55706 13.6007 5.72175 13.4524 6.02593 13.4794C6.39633 13.5105 6.58036 13.3176 6.58447 12.9519C6.58775 12.793 6.6429 12.6394 6.74154 12.5147C6.88388 12.3479 7.0471 12.1987 7.22244 12.0384C7.29471 11.9723 7.36905 11.9044 7.44484 11.8325C7.31569 11.7043 7.19147 11.584 7.07132 11.4677C6.87358 11.2764 6.68683 11.0956 6.5071 10.9071C5.87354 10.2425 5.80321 9.23858 6.36527 8.5224C7.64254 6.89391 8.93037 5.27381 10.2287 3.66212C10.8166 2.93187 11.8065 2.79532 12.6012 3.30403C12.8452 3.4602 13.0861 3.62067 13.3271 3.78111C13.5735 3.9452 13.8198 4.10927 14.0694 4.2687C14.9055 4.79629 15.64 5.46985 16.2379 6.25724C16.6899 6.85771 17.1014 7.48969 17.5119 8.12004C17.5697 8.2089 17.6276 8.29773 17.6855 8.38644C18.2229 9.20987 18.06 10.2003 17.2852 10.8192C15.7133 12.0715 14.1391 13.3217 12.5625 14.5701C11.7567 15.2077 10.7539 15.1485 10.0213 14.4236C9.8319 14.2366 9.64829 14.0439 9.45528 13.8414C9.36573 13.7474 9.27416 13.6513 9.17906 13.5527C9.10329 13.6307 9.03127 13.7074 8.96106 13.7822C8.79776 13.9561 8.64421 14.1196 8.47576 14.2659C8.35954 14.3605 8.21531 14.4141 8.0655 14.4183C7.67575 14.4189 7.49348 14.5912 7.52396 14.9856C7.54623 15.2833 7.39268 15.4439 7.09436 15.4322C6.71926 15.4181 6.54168 15.5377 6.48835 15.901C6.4567 16.1132 6.37816 16.1958 6.16366 16.2257C5.7745 16.2802 5.32614 16.7801 5.32614 17.1593C5.32497 17.4588 5.18958 17.6094 4.90943 17.6634C4.63517 17.7166 4.36119 17.7711 4.08715 17.8255ZM10.9441 13.5653L7.51728 10.1431L10.0766 7.59149L10.5209 8.14192C10.553 8.11192 10.5807 8.08623 10.6054 8.06329C10.6526 8.01956 10.689 7.98579 10.7242 7.95104C10.9077 7.76947 10.9543 7.71867 10.9818 7.68869C11.0189 7.6482 11.0212 7.64569 11.2788 7.41029C11.5998 7.11255 12.0248 6.95185 12.463 6.96249C12.9012 6.97314 13.3178 7.1543 13.6239 7.46727C13.9344 7.77546 14.1125 8.19211 14.1205 8.629C14.1285 9.06589 13.9658 9.48874 13.6668 9.80804C13.4978 9.99331 13.3177 10.1686 13.1331 10.3481C13.0606 10.4187 12.9874 10.4899 12.914 10.5626L13.4314 11.0753L10.9441 13.5653Z" fill="white" />
</svg>
