<svg width="16" height="16" viewBox="0 0 16 16" fill="none" xmlns="http://www.w3.org/2000/svg">
<path d="M14.1875 5.1875H10.8125V1.8125C10.8125 1.51413 10.694 1.22798 10.483 1.017C10.272 0.806026 9.98587 0.6875 9.6875 0.6875H6.3125C6.01413 0.6875 5.72798 0.806026 5.517 1.017C5.30603 1.22798 5.1875 1.51413 5.1875 1.8125V5.1875H1.8125C1.51413 5.1875 1.22798 5.30603 1.017 5.517C0.806026 5.72798 0.6875 6.01413 0.6875 6.3125V9.6875C0.6875 9.98587 0.806026 10.272 1.017 10.483C1.22798 10.694 1.51413 10.8125 1.8125 10.8125H5.1875V14.1875C5.1875 14.4859 5.30603 14.772 5.517 14.983C5.72798 15.194 6.01413 15.3125 6.3125 15.3125H9.6875C9.98587 15.3125 10.272 15.194 10.483 14.983C10.694 14.772 10.8125 14.4859 10.8125 14.1875V10.8125H14.1875C14.4859 10.8125 14.772 10.694 14.983 10.483C15.194 10.272 15.3125 9.98587 15.3125 9.6875V6.3125C15.3125 6.01413 15.194 5.72798 14.983 5.517C14.772 5.30603 14.4859 5.1875 14.1875 5.1875ZM14.1875 9.6875H10.25C10.1008 9.6875 9.95774 9.74676 9.85225 9.85225C9.74676 9.95774 9.6875 10.1008 9.6875 10.25V14.1875H6.3125V10.25C6.3125 10.1008 6.25324 9.95774 6.14775 9.85225C6.04226 9.74676 5.89918 9.6875 5.75 9.6875H1.8125V6.3125H5.75C5.89918 6.3125 6.04226 6.25324 6.14775 6.14775C6.25324 6.04226 6.3125 5.89918 6.3125 5.75V1.8125H9.6875V5.75C9.6875 5.89918 9.74676 6.04226 9.85225 6.14775C9.95774 6.25324 10.1008 6.3125 10.25 6.3125H14.1875V9.6875Z" fill="white"/>
</svg>
