<svg width="123" height="38" viewBox="0 0 123 38" fill="none" xmlns="http://www.w3.org/2000/svg">
<path d="M0 2C0 0.89543 0.895431 0 2 0H120.167C121.271 0 122.167 0.895431 122.167 2V36C122.167 37.1046 121.271 38 120.167 38H2C0.89543 38 0 37.1046 0 36V2Z" fill="url(#paint0_linear_116_1602)" fill-opacity="0.6"/>
<path d="M0.5 2C0.5 1.17157 1.17157 0.5 2 0.5H120.167C120.995 0.5 121.667 1.17157 121.667 2V36C121.667 36.8284 120.995 37.5 120.167 37.5H2C1.17157 37.5 0.5 36.8284 0.5 36V2Z" stroke="white" stroke-opacity="0.08"/>
<g filter="url(#filter0_d_116_1602)">
<path d="M27.1667 18.2424C27.1667 22.447 24.1444 26.3788 20.0833 27.3333C16.0222 26.3788 13 22.447 13 18.2424V13.697L20.0833 10.6667L27.1667 13.697V18.2424ZM20.0833 25.8182C23.0347 25.0606 25.5926 21.6818 25.5926 18.4091V14.6818L20.0833 12.3182V25.8182Z" fill="#B80100"/>
</g>
<path d="M38.2357 24.156C37.5077 24.156 36.8101 24.0607 36.1427 23.87C35.4754 23.6707 34.9381 23.415 34.5307 23.103L35.2457 21.517C35.6357 21.7943 36.0951 22.024 36.6237 22.206C37.1611 22.3793 37.7027 22.466 38.2487 22.466C38.6647 22.466 38.9984 22.427 39.2497 22.349C39.5097 22.2623 39.7004 22.1453 39.8217 21.998C39.9431 21.8507 40.0037 21.6817 40.0037 21.491C40.0037 21.2483 39.9084 21.0577 39.7177 20.919C39.5271 20.7717 39.2757 20.6547 38.9637 20.568C38.6517 20.4727 38.3051 20.386 37.9237 20.308C37.5511 20.2213 37.1741 20.1173 36.7927 19.996C36.4201 19.8747 36.0777 19.7187 35.7657 19.528C35.4537 19.3373 35.1981 19.086 34.9987 18.774C34.8081 18.462 34.7127 18.0633 34.7127 17.578C34.7127 17.058 34.8514 16.5857 35.1287 16.161C35.4147 15.7277 35.8394 15.3853 36.4027 15.134C36.9747 14.874 37.6897 14.744 38.5477 14.744C39.1197 14.744 39.6831 14.8133 40.2377 14.952C40.7924 15.082 41.2821 15.2813 41.7067 15.55L41.0567 17.149C40.6321 16.9063 40.2074 16.7287 39.7827 16.616C39.3581 16.4947 38.9421 16.434 38.5347 16.434C38.1274 16.434 37.7937 16.4817 37.5337 16.577C37.2737 16.6723 37.0874 16.798 36.9747 16.954C36.8621 17.1013 36.8057 17.2747 36.8057 17.474C36.8057 17.708 36.9011 17.8987 37.0917 18.046C37.2824 18.1847 37.5337 18.2973 37.8457 18.384C38.1577 18.4707 38.5001 18.5573 38.8727 18.644C39.2541 18.7307 39.6311 18.8303 40.0037 18.943C40.3851 19.0557 40.7317 19.2073 41.0437 19.398C41.3557 19.5887 41.6071 19.84 41.7977 20.152C41.9971 20.464 42.0967 20.8583 42.0967 21.335C42.0967 21.8463 41.9537 22.3143 41.6677 22.739C41.3817 23.1637 40.9527 23.506 40.3807 23.766C39.8174 24.026 39.1024 24.156 38.2357 24.156ZM42.3398 24L46.3958 14.9H48.4758L52.5448 24H50.3348L47.0068 15.966H47.8388L44.4978 24H42.3398ZM44.3678 22.05L44.9268 20.451H49.6068L50.1788 22.05H44.3678ZM55.4389 18.995H59.8069V20.685H55.4389V18.995ZM55.5949 24H53.4889V14.9H60.3659V16.59H55.5949V24ZM63.7286 18.566H68.1096V20.204H63.7286V18.566ZM63.8846 22.31H68.8376V24H61.7916V14.9H68.6686V16.59H63.8846V22.31ZM69.9283 24V22.635L75.5573 15.849L75.8173 16.616H70.0323V14.9H77.6893V16.265L72.0733 23.051L71.8133 22.284H77.8843V24H69.9283ZM83.5661 24.156C82.8468 24.156 82.1795 24.039 81.5641 23.805C80.9575 23.571 80.4288 23.2417 79.9781 22.817C79.5361 22.3923 79.1895 21.894 78.9381 21.322C78.6955 20.75 78.5741 20.126 78.5741 19.45C78.5741 18.774 78.6955 18.15 78.9381 17.578C79.1895 17.006 79.5405 16.5077 79.9911 16.083C80.4418 15.6583 80.9705 15.329 81.5771 15.095C82.1838 14.861 82.8425 14.744 83.5531 14.744C84.2725 14.744 84.9311 14.861 85.5291 15.095C86.1358 15.329 86.6601 15.6583 87.1021 16.083C87.5528 16.5077 87.9038 17.006 88.1551 17.578C88.4065 18.1413 88.5321 18.7653 88.5321 19.45C88.5321 20.126 88.4065 20.7543 88.1551 21.335C87.9038 21.907 87.5528 22.4053 87.1021 22.83C86.6601 23.246 86.1358 23.571 85.5291 23.805C84.9311 24.039 84.2768 24.156 83.5661 24.156ZM83.5531 22.362C83.9605 22.362 84.3331 22.2927 84.6711 22.154C85.0178 22.0153 85.3211 21.816 85.5811 21.556C85.8411 21.296 86.0405 20.9883 86.1791 20.633C86.3265 20.2777 86.4001 19.8833 86.4001 19.45C86.4001 19.0167 86.3265 18.6223 86.1791 18.267C86.0405 17.9117 85.8411 17.604 85.5811 17.344C85.3298 17.084 85.0308 16.8847 84.6841 16.746C84.3375 16.6073 83.9605 16.538 83.5531 16.538C83.1458 16.538 82.7688 16.6073 82.4221 16.746C82.0841 16.8847 81.7851 17.084 81.5251 17.344C81.2651 17.604 81.0615 17.9117 80.9141 18.267C80.7755 18.6223 80.7061 19.0167 80.7061 19.45C80.7061 19.8747 80.7755 20.269 80.9141 20.633C81.0615 20.9883 81.2608 21.296 81.5121 21.556C81.7721 21.816 82.0755 22.0153 82.4221 22.154C82.7688 22.2927 83.1458 22.362 83.5531 22.362ZM90.1149 24V14.9H91.8569L97.2259 21.452H96.3809V14.9H98.4609V24H96.7319L91.3499 17.448H92.1949V24H90.1149ZM102.551 18.566H106.932V20.204H102.551V18.566ZM102.707 22.31H107.66V24H100.614V14.9H107.491V16.59H102.707V22.31Z" fill="white"/>
<defs>
<filter id="filter0_d_116_1602" x="3" y="0.666672" width="34.1667" height="36.6667" filterUnits="userSpaceOnUse" color-interpolation-filters="sRGB">
<feFlood flood-opacity="0" result="BackgroundImageFix"/>
<feColorMatrix in="SourceAlpha" type="matrix" values="0 0 0 0 0 0 0 0 0 0 0 0 0 0 0 0 0 0 127 0" result="hardAlpha"/>
<feOffset/>
<feGaussianBlur stdDeviation="5"/>
<feComposite in2="hardAlpha" operator="out"/>
<feColorMatrix type="matrix" values="0 0 0 0 0.721569 0 0 0 0 0.00392157 0 0 0 0 0 0 0 0 0.9 0"/>
<feBlend mode="normal" in2="BackgroundImageFix" result="effect1_dropShadow_116_1602"/>
<feBlend mode="normal" in="SourceGraphic" in2="effect1_dropShadow_116_1602" result="shape"/>
</filter>
<linearGradient id="paint0_linear_116_1602" x1="0" y1="19" x2="122.167" y2="19" gradientUnits="userSpaceOnUse">
<stop/>
<stop offset="1" stop-opacity="0.85"/>
</linearGradient>
</defs>
</svg>
