<svg width="24" height="24" viewBox="0 0 24 24" fill="none" xmlns="http://www.w3.org/2000/svg">
<g clip-path="url(#clip0_634_3059)">
<mask id="mask0_634_3059" style="mask-type:luminance" maskUnits="userSpaceOnUse" x="-3" y="3" width="25" height="18">
<path d="M18.364 19.3639C21.8787 15.8491 21.8787 10.1507 18.364 6.63593C14.8492 3.12122 9.15076 3.12122 5.63604 6.63593C2.12129 10.1507 2.12132 15.8491 5.63604 19.3639" stroke="white" stroke-width="1.5" stroke-linecap="round"/>
<path d="M11.1318 8.07577C13.8513 7.59625 16.4446 9.41212 16.9241 12.1316C17.4036 14.851 15.5878 17.4443 12.8683 17.9238C10.1489 18.4034 -2.77205 15.6045 -2.77205 15.6045C-2.77205 15.6045 8.41238 8.55528 11.1318 8.07577Z" fill="black"/>
<path d="M11.4792 10.0453C13.1109 9.75758 14.6669 10.847 14.9546 12.4788C15.2423 14.1105 14.1527 15.6664 12.5211 15.9541C10.8894 16.2418 1.16729 14.9098 1.16729 14.9098C1.16729 14.9098 9.8475 10.333 11.4792 10.0453Z" fill="white"/>
</mask>
<g mask="url(#mask0_634_3059)">
<path d="M24 0H0V24H24V0Z" fill="white"/>
</g>
</g>
<defs>
<clipPath id="clip0_634_3059">
<rect width="24" height="24" fill="white"/>
</clipPath>
</defs>
</svg>
