<svg width="120" height="120" viewBox="0 0 120 120" fill="none" xmlns="http://www.w3.org/2000/svg">
<rect width="120" height="120" rx="2" fill="url(#paint0_linear_147_914)" fill-opacity="0.5"/>
<rect x="0.4" y="0.4" width="119.2" height="119.2" rx="1.6" stroke="white" stroke-opacity="0.15" stroke-width="0.8"/>
<path d="M86.6667 86.6667H36.6667C34.8986 86.6667 33.2029 85.9643 31.9526 84.714C30.7024 83.4638 30 81.7681 30 80V50C30 48.2319 30.7024 46.5362 31.9526 45.286C33.2029 44.0357 34.8986 43.3333 36.6667 43.3333H43.3333M50 33.3333H66.4333C67.5306 33.3332 68.611 33.6039 69.5786 34.1214C70.5461 34.6389 71.371 35.3872 71.98 36.3L74.6867 40.3667C75.2957 41.2794 76.1205 42.0278 77.0881 42.5453C78.0557 43.0628 79.136 43.3335 80.2333 43.3333H83.3333C85.1014 43.3333 86.7971 44.0357 88.0474 45.286C89.2976 46.5362 90 48.2319 90 50V71.6667M51.6667 52.9233C50.2236 54.0782 49.0363 55.5205 48.1803 57.1586C47.3243 58.7967 46.8182 60.5949 46.6942 62.4391C46.5702 64.2832 46.831 66.133 47.4599 67.871C48.0889 69.609 49.0724 71.1973 50.3479 72.5349C51.6234 73.8726 53.1631 74.9304 54.8692 75.6413C56.5753 76.3522 58.4106 76.7006 60.2586 76.6644C62.1066 76.6282 63.9268 76.2082 65.6038 75.4311C67.2808 74.6539 68.7779 73.5366 70 72.15M30 30L90 90" stroke="white" stroke-opacity="0.6" stroke-width="1.5" stroke-linecap="round" stroke-linejoin="round"/>
<defs>
<linearGradient id="paint0_linear_147_914" x1="0" y1="60" x2="120" y2="60" gradientUnits="userSpaceOnUse">
<stop/>
<stop offset="1" stop-opacity="0.85"/>
</linearGradient>
</defs>
</svg>
