<svg width="34" height="38" viewBox="0 0 34 38" fill="none" xmlns="http://www.w3.org/2000/svg">
<path d="M19.683 35.9279C18.0157 36.8596 15.9843 36.8596 14.317 35.9279L3.31697 29.7808C1.57763 28.8088 0.5 26.9721 0.499999 24.9796L0.499999 13.0199C0.499999 11.0273 1.57769 9.19061 3.3171 8.21864L14.3171 2.07194C15.9844 1.14029 18.0156 1.14029 19.6829 2.07194L30.6829 8.21864C32.4223 9.19061 33.5 11.0273 33.5 13.0199L33.5 24.9796C33.5 26.9721 32.4224 28.8088 30.683 29.7808L19.683 35.9279Z" fill="url(#paint0_linear_3001_30)" stroke="#D3132F"/>
<path d="M23.875 14H20.75C20.75 13.0054 20.3549 12.0516 19.6517 11.3483C18.9484 10.6451 17.9946 10.25 17 10.25C16.0054 10.25 15.0516 10.6451 14.3483 11.3483C13.6451 12.0516 13.25 13.0054 13.25 14H10.125C9.79348 14 9.47554 14.1317 9.24112 14.3661C9.0067 14.6005 8.875 14.9185 8.875 15.25V24.625C8.875 24.9565 9.0067 25.2745 9.24112 25.5089C9.47554 25.7433 9.79348 25.875 10.125 25.875H23.875C24.2065 25.875 24.5245 25.7433 24.7589 25.5089C24.9933 25.2745 25.125 24.9565 25.125 24.625V15.25C25.125 14.9185 24.9933 14.6005 24.7589 14.3661C24.5245 14.1317 24.2065 14 23.875 14ZM17 11.5C17.663 11.5 18.2989 11.7634 18.7678 12.2322C19.2366 12.7011 19.5 13.337 19.5 14H14.5C14.5 13.337 14.7634 12.7011 15.2322 12.2322C15.7011 11.7634 16.337 11.5 17 11.5ZM23.875 24.625H10.125V15.25H23.875V24.625Z" fill="white"/>
<defs>
<linearGradient id="paint0_linear_3001_30" x1="17" y1="-7.43094e-07" x2="17" y2="38" gradientUnits="userSpaceOnUse">
<stop stop-color="#D3132F"/>
<stop offset="1" stop-color="#B10D25"/>
</linearGradient>
</defs>
</svg>
