<svg width="34" height="38" viewBox="0 0 34 38" fill="none" xmlns="http://www.w3.org/2000/svg">
<path d="M19.683 35.9279C18.0157 36.8596 15.9843 36.8596 14.317 35.9279L3.31697 29.7808C1.57763 28.8088 0.5 26.9721 0.499999 24.9796L0.499999 13.0199C0.499999 11.0273 1.57769 9.19061 3.3171 8.21864L14.3171 2.07194C15.9844 1.14029 18.0156 1.14029 19.6829 2.07194L30.6829 8.21864C32.4223 9.19061 33.5 11.0273 33.5 13.0199L33.5 24.9796C33.5 26.9721 32.4224 28.8088 30.683 29.7808L19.683 35.9279Z" fill="url(#paint0_linear_3001_21)" stroke="#D3132F"/>
<path d="M14.1875 17.125C13.7549 17.125 13.3319 17.2533 12.9722 17.4937C12.6125 17.734 12.3321 18.0757 12.1665 18.4754C12.0009 18.8751 11.9576 19.3149 12.042 19.7393C12.1264 20.1636 12.3348 20.5534 12.6407 20.8593C12.9466 21.1652 13.3364 21.3736 13.7607 21.458C14.1851 21.5424 14.6249 21.4991 15.0246 21.3335C15.4243 21.1679 15.766 20.8875 16.0063 20.5278C16.2467 20.1681 16.375 19.7451 16.375 19.3125C16.375 18.7323 16.1445 18.1759 15.7343 17.7657C15.3241 17.3555 14.7677 17.125 14.1875 17.125ZM14.1875 20.25C14.0021 20.25 13.8208 20.195 13.6667 20.092C13.5125 19.989 13.3923 19.8426 13.3214 19.6713C13.2504 19.5 13.2318 19.3115 13.268 19.1296C13.3042 18.9477 13.3935 18.7807 13.5246 18.6496C13.6557 18.5185 13.8227 18.4292 14.0046 18.393C14.1865 18.3568 14.375 18.3754 14.5463 18.4464C14.7176 18.5173 14.864 18.6375 14.967 18.7917C15.07 18.9458 15.125 19.1271 15.125 19.3125C15.125 19.5611 15.0262 19.7996 14.8504 19.9754C14.6746 20.1512 14.4361 20.25 14.1875 20.25ZM19.8125 17.125C19.3799 17.125 18.9569 17.2533 18.5972 17.4937C18.2375 17.734 17.9571 18.0757 17.7915 18.4754C17.6259 18.8751 17.5826 19.3149 17.667 19.7393C17.7514 20.1636 17.9598 20.5534 18.2657 20.8593C18.5716 21.1652 18.9614 21.3736 19.3857 21.458C19.8101 21.5424 20.2499 21.4991 20.6496 21.3335C21.0493 21.1679 21.391 20.8875 21.6313 20.5278C21.8717 20.1681 22 19.7451 22 19.3125C22 18.7323 21.7695 18.1759 21.3593 17.7657C20.9491 17.3555 20.3927 17.125 19.8125 17.125ZM19.8125 20.25C19.6271 20.25 19.4458 20.195 19.2917 20.092C19.1375 19.989 19.0173 19.8426 18.9464 19.6713C18.8754 19.5 18.8568 19.3115 18.893 19.1296C18.9292 18.9477 19.0185 18.7807 19.1496 18.6496C19.2807 18.5185 19.4477 18.4292 19.6296 18.393C19.8115 18.3568 20 18.3754 20.1713 18.4464C20.3426 18.5173 20.489 18.6375 20.592 18.7917C20.695 18.9458 20.75 19.1271 20.75 19.3125C20.75 19.5611 20.6512 19.7996 20.4754 19.9754C20.2996 20.1512 20.0611 20.25 19.8125 20.25ZM17 10.25C12.5195 10.25 8.875 13.7547 8.875 18.0625C8.875 20.7266 10.3023 23.2188 12.625 24.6469V25.875C12.625 26.2065 12.7567 26.5245 12.9911 26.7589C13.2255 26.9933 13.5435 27.125 13.875 27.125H20.125C20.4565 27.125 20.7745 26.9933 21.0089 26.7589C21.2433 26.5245 21.375 26.2065 21.375 25.875V24.6469C23.6977 23.2188 25.125 20.7266 25.125 18.0625C25.125 13.7547 21.4805 10.25 17 10.25ZM20.4469 23.7414C20.3493 23.7955 20.268 23.8748 20.2114 23.971C20.1548 24.0671 20.1249 24.1767 20.125 24.2883V25.875H18.875V24C18.875 23.8342 18.8092 23.6753 18.6919 23.5581C18.5747 23.4408 18.4158 23.375 18.25 23.375C18.0842 23.375 17.9253 23.4408 17.8081 23.5581C17.6908 23.6753 17.625 23.8342 17.625 24V25.875H16.375V24C16.375 23.8342 16.3092 23.6753 16.1919 23.5581C16.0747 23.4408 15.9158 23.375 15.75 23.375C15.5842 23.375 15.4253 23.4408 15.3081 23.5581C15.1908 23.6753 15.125 23.8342 15.125 24V25.875H13.875V24.2883C13.8751 24.1767 13.8452 24.0671 13.7886 23.971C13.732 23.8748 13.6507 23.7955 13.5531 23.7414C11.4383 22.5695 10.125 20.3938 10.125 18.0625C10.125 14.4437 13.2094 11.5 17 11.5C20.7906 11.5 23.875 14.4437 23.875 18.0625C23.875 20.393 22.5617 22.5695 20.4469 23.7414Z" fill="white"/>
<defs>
<linearGradient id="paint0_linear_3001_21" x1="17" y1="-7.43094e-07" x2="17" y2="38" gradientUnits="userSpaceOnUse">
<stop stop-color="#D3132F"/>
<stop offset="1" stop-color="#B10D25"/>
</linearGradient>
</defs>
</svg>
