<svg width="34" height="38" viewBox="0 0 34 38" fill="none" xmlns="http://www.w3.org/2000/svg">
<path d="M19.683 35.9279C18.0157 36.8596 15.9843 36.8596 14.317 35.9279L3.31697 29.7808C1.57763 28.8088 0.5 26.9721 0.499999 24.9796L0.499999 13.0199C0.499999 11.0273 1.57769 9.19061 3.3171 8.21864L14.3171 2.07194C15.9844 1.14029 18.0156 1.14029 19.6829 2.07194L30.6829 8.21864C32.4223 9.19061 33.5 11.0273 33.5 13.0199L33.5 24.9796C33.5 26.9721 32.4224 28.8088 30.683 29.7808L19.683 35.9279Z" fill="url(#paint0_linear_3001_39)" stroke="#D3132F"/>
<path d="M23.067 24.1829C23.1251 24.241 23.1712 24.3099 23.2026 24.3858C23.234 24.4617 23.2502 24.543 23.2502 24.6251C23.2502 24.7072 23.234 24.7885 23.2026 24.8644C23.1712 24.9403 23.1251 25.0092 23.067 25.0673C23.009 25.1254 22.94 25.1714 22.8642 25.2028C22.7883 25.2343 22.707 25.2505 22.6249 25.2505C22.5427 25.2505 22.4614 25.2343 22.3855 25.2028C22.3097 25.1714 22.2407 25.1254 22.1827 25.0673L16.9999 19.8837L11.817 25.0673C11.6998 25.1846 11.5407 25.2505 11.3749 25.2505C11.209 25.2505 11.0499 25.1846 10.9327 25.0673C10.8154 24.95 10.7495 24.791 10.7495 24.6251C10.7495 24.4593 10.8154 24.3002 10.9327 24.1829L16.1163 19.0001L10.9327 13.8173C10.8154 13.7 10.7495 13.541 10.7495 13.3751C10.7495 13.2093 10.8154 13.0502 10.9327 12.9329C11.0499 12.8156 11.209 12.7498 11.3749 12.7498C11.5407 12.7498 11.6998 12.8156 11.817 12.9329L16.9999 18.1165L22.1827 12.9329C22.2999 12.8156 22.459 12.7498 22.6249 12.7498C22.7907 12.7498 22.9498 12.8156 23.067 12.9329C23.1843 13.0502 23.2502 13.2093 23.2502 13.3751C23.2502 13.541 23.1843 13.7 23.067 13.8173L17.8835 19.0001L23.067 24.1829Z" fill="white"/>
<defs>
<linearGradient id="paint0_linear_3001_39" x1="17" y1="-7.43094e-07" x2="17" y2="38" gradientUnits="userSpaceOnUse">
<stop stop-color="#D3132F"/>
<stop offset="1" stop-color="#B10D25"/>
</linearGradient>
</defs>
</svg>
