<svg width="28" height="16" viewBox="0 0 28 16" fill="none" xmlns="http://www.w3.org/2000/svg">
<path fill-rule="evenodd" clip-rule="evenodd" d="M17.1726 0.0522889C16.2212 0.163552 15.2384 0.51359 13.8905 1.22124L12.9333 1.72377L12.4136 1.74655C12.0469 1.76263 11.5904 1.72709 10.8626 1.62583C9.19899 1.39441 8.30778 1.45023 7.5643 1.83249C6.05023 2.611 5.28548 4.65055 5.07724 8.46532C5.00487 9.79152 5.03025 10.5616 5.15409 10.7957C5.53901 11.5233 6.76263 12.0999 8.66671 12.451C12.1948 13.1015 16.1646 13.0846 19.5947 12.4046C21.3145 12.0636 22.5334 11.4725 22.863 10.8196C22.957 10.6335 22.9705 10.4929 22.9701 9.70629C22.9683 6.30606 22.3381 3.48082 21.2154 1.83985C20.5012 0.795921 19.576 0.215895 18.3582 0.0487517C17.8805 -0.0168563 17.7607 -0.0164697 17.1726 0.0522889ZM3.71643 9.52428C2.19612 9.94904 0.87508 10.6044 0.404995 11.167C-0.015478 11.6703 -0.115961 12.2863 0.138391 12.802C0.416208 13.3654 1.25415 13.9684 2.37739 14.4133C6.72784 16.1366 16.3086 16.5251 22.7244 15.2384C25.5909 14.6635 27.4323 13.7734 27.8978 12.7378C28.1086 12.2686 27.9865 11.6359 27.5948 11.167C27.3927 10.9251 26.8603 10.5465 26.3893 10.3096C25.7699 9.99818 24.5446 9.56501 23.8661 9.4176L23.6951 9.38046L23.6713 10.0604C23.6449 10.8142 23.5656 11.074 23.2353 11.4893C22.8618 11.959 21.9785 12.4703 21.0023 12.7819C20.7476 12.8632 20.1694 13.0045 19.7173 13.096C16.1978 13.8079 11.8096 13.8053 8.25707 13.0894C6.0307 12.6407 4.70966 11.8592 4.40077 10.8081C4.35034 10.6366 4.31812 10.3045 4.31812 9.95656C4.31812 9.535 4.30029 9.38731 4.24975 9.3903C4.21217 9.39256 3.97215 9.45281 3.71643 9.52428Z" fill="white"/>
</svg>
