<svg width="18" height="18" viewBox="0 0 18 18" fill="none" xmlns="http://www.w3.org/2000/svg">
<path d="M6 4.75009V12.5201C6 13.1126 6.6525 13.4726 7.155 13.1501L13.26 9.26509C13.3669 9.19745 13.4549 9.10388 13.5159 8.99307C13.5769 8.88227 13.6089 8.75783 13.6089 8.63134C13.6089 8.50486 13.5769 8.38042 13.5159 8.26962C13.4549 8.15881 13.3669 8.06524 13.26 7.99759L7.155 4.12009C7.04188 4.04693 6.9111 4.00565 6.77647 4.00061C6.64184 3.99558 6.50835 4.02697 6.39008 4.09149C6.27181 4.156 6.17314 4.25124 6.10448 4.36716C6.03583 4.48307 5.99973 4.61537 6 4.75009Z" fill="white" fill-opacity="0.8"/>
</svg>
