<svg width="18" height="18" viewBox="0 0 18 18" fill="none" xmlns="http://www.w3.org/2000/svg">
<path d="M12.6089 4.75009V12.5201C12.6089 13.1126 11.9564 13.4726 11.4539 13.1501L5.34889 9.26509C5.242 9.19745 5.15396 9.10388 5.09296 8.99307C5.03195 8.88227 4.99996 8.75783 4.99996 8.63134C4.99996 8.50486 5.03195 8.38042 5.09296 8.26962C5.15396 8.15881 5.242 8.06524 5.34889 7.99759L11.4539 4.12009C11.567 4.04693 11.6978 4.00565 11.8324 4.00061C11.967 3.99558 12.1005 4.02697 12.2188 4.09149C12.3371 4.156 12.4357 4.25124 12.5044 4.36716C12.5731 4.48307 12.6092 4.61537 12.6089 4.75009Z" fill="white"/>
</svg>
