<svg width="24" height="24" viewBox="0 0 24 24" fill="none" xmlns="http://www.w3.org/2000/svg">
<path fill-rule="evenodd" clip-rule="evenodd" d="M4.72187 1.38798C0.580923 2.83591 0.570874 2.8401 0.500923 3.13053C0.478227 3.22475 0.880332 7.28306 1.00308 8.19907C1.02156 8.33698 1.08254 8.47321 1.16886 8.56952L1.30533 8.72184H2.97683H4.64834V16.107C4.64834 22.374 4.65888 23.5184 4.71799 23.6659C4.86157 24.024 4.33202 23.9998 12.0012 23.9998C19.6704 23.9998 19.1409 24.024 19.2844 23.6659C19.3435 23.5184 19.3541 22.374 19.3541 16.107V8.72184H21.017H22.6798L22.8248 8.57075C22.9224 8.46897 22.9793 8.34807 22.9991 8.2003C23.1292 7.23023 23.5235 3.22189 23.4989 3.11965C23.4817 3.04847 23.4177 2.9381 23.3566 2.87443C23.2766 2.79099 22.125 2.36929 19.2363 1.36555C16.0015 0.241621 15.194 -0.0218853 15.0556 0.00151701C14.9279 0.0231309 14.782 0.132427 14.4843 0.429452C14.0432 0.869702 13.6204 1.12892 13.0306 1.32089C12.5009 1.49334 11.5058 1.49298 10.9718 1.32017C10.3913 1.13239 9.97039 0.874096 9.51947 0.429197C9.18697 0.101156 9.07629 0.0218535 8.92609 0.00417405C8.78021 -0.0129434 7.89713 0.277695 4.72187 1.38798Z" fill="white"/>
</svg>
