<svg width="24" height="20" viewBox="0 0 24 20" fill="none" xmlns="http://www.w3.org/2000/svg">
<path fill-rule="evenodd" clip-rule="evenodd" d="M0.339195 0.0947876C0.255146 0.14686 0.144519 0.259295 0.0932837 0.344716C0.00342253 0.494502 9.4344e-05 0.589404 5.92197e-07 3.02499C-0.000140036 5.60279 0.0246573 6.1471 0.189848 7.19364C1.03591 12.5521 4.65103 17.1761 9.63066 19.2688C10.1908 19.5042 11.3428 19.8918 11.707 19.9675C12.0587 20.0405 12.2751 20.0035 13.142 19.7218C19.1243 17.7781 23.3712 12.4164 23.9521 6.07406C23.9786 5.78583 24.0001 4.41375 24 3.02499C23.9999 0.589404 23.9966 0.494502 23.9067 0.344716C23.6327 -0.112025 22.9632 -0.115598 22.6916 0.338237C22.624 0.451195 22.5953 0.620466 22.5724 1.04138C22.458 3.14705 21.8914 4.91413 20.7907 6.59812C20.465 7.09641 19.7468 7.98612 19.3928 8.32966L19.2286 8.48907L19.0571 8.19164C18.5649 7.33814 17.8843 6.70455 17.027 6.30203C16.2712 5.9471 15.2514 5.79069 14.4248 5.90293C13.7787 5.99069 13.7663 6.00579 14.196 6.18435C15.883 6.88535 17.0648 8.36725 16.8762 9.5451C16.8168 9.91608 16.7207 10.1155 16.4705 10.3874C16.0798 10.8119 15.4317 11.0976 14.4844 11.2631C13.3498 11.4612 10.6502 11.4612 9.51558 11.2631C8.56826 11.0976 7.9202 10.8119 7.52949 10.3874C7.27927 10.1155 7.18322 9.91608 7.12383 9.5451C6.9352 8.36725 8.11703 6.88535 9.804 6.18435C10.2337 6.00579 10.2213 5.99069 9.57516 5.90293C9.03318 5.82933 8.33496 5.87425 7.78065 6.01837C6.54889 6.33857 5.58531 7.07759 4.93964 8.19731L4.76484 8.50036L4.3942 8.09712C2.52333 6.06163 1.58038 3.8187 1.42789 1.04138C1.39395 0.422753 1.33137 0.258818 1.06662 0.0947876C0.86608 -0.0295097 0.53973 -0.0295097 0.339195 0.0947876ZM11.2198 7.19274C10.9481 7.25129 10.6143 7.35624 10.3169 7.47664C9.39361 7.85048 8.48604 8.73061 8.48473 9.25348C8.48435 9.40722 8.50826 9.4471 8.66009 9.54614C9.12871 9.85196 9.8385 9.96001 11.5842 9.99131C13.7222 10.0297 14.8779 9.88783 15.3782 9.52585C15.6696 9.31494 15.4914 8.83309 14.9189 8.28431C14.4241 7.80984 13.9091 7.52089 13.125 7.27764C12.7826 7.17139 11.5697 7.11737 11.2198 7.19274Z" fill="white"/>
</svg>
