<svg width="24" height="20" viewBox="0 0 24 20" fill="none" xmlns="http://www.w3.org/2000/svg">
<path fill-rule="evenodd" clip-rule="evenodd" d="M9.61504 0.0840952C6.94726 0.442097 5.25173 1.56816 4.86145 3.24117C4.81006 3.46151 4.74761 3.66245 4.72278 3.68768C4.6979 3.71285 4.50369 3.7766 4.29115 3.82925C3.31589 4.07097 2.32249 4.62634 1.63617 5.31361C0.930081 6.02077 0.45673 6.86149 0.161238 7.93324C0.0107879 8.47882 0.00225258 8.58407 8.86851e-05 9.91623C-0.00153423 10.8748 0.0190829 11.3442 0.064765 11.3893C0.114114 11.438 0.204035 11.3739 0.404796 11.1473L0.677808 10.8391L0.711888 11.2176C0.730642 11.4258 0.761538 11.8098 0.780532 12.071C0.933207 14.1719 1.41846 16.3924 2.07514 17.9956C2.45929 18.9333 3.13268 20.0937 3.23481 19.994C3.25248 19.9768 3.18618 19.6562 3.0876 19.2817C1.96418 15.0149 2.44288 11.4652 4.34001 9.99482C4.73757 9.68668 5.31364 9.36999 5.476 9.37035C5.53749 9.37053 5.70952 9.45221 5.85828 9.55187C6.33067 9.86844 7.3884 10.3677 8.10014 10.61C10.752 11.5131 13.2389 11.3686 15.6569 10.171C16.954 9.52855 17.7456 9.4547 18.6507 9.89159C19.9792 10.5329 20.8739 12.4137 21.3049 15.471C21.4272 16.3387 21.5465 17.8406 21.5465 18.5128C21.5465 18.7368 21.574 18.9369 21.6077 18.9574C21.6427 18.9788 21.8474 18.6307 22.0855 18.1447C23.0101 16.2588 23.406 14.5835 23.413 12.528L23.4163 11.5961L23.6697 12.2601C23.8091 12.6254 23.9464 12.9459 23.9749 12.9724C24.0038 12.9995 24.0084 12.7589 23.9852 12.4272C23.7353 8.85332 22.6005 6.01596 20.6477 4.08248C19.3948 2.84203 18.0094 2.09949 16.2328 1.7162L15.7461 1.6112L16.1502 1.48624C16.7064 1.31434 17.5235 1.21574 17.9964 1.26346C18.4791 1.31226 18.4366 1.25207 17.8178 1.01047C17.1481 0.749048 16.2385 0.47985 15.5623 0.343024C14.6711 0.162747 13.0835 0.121195 12.3102 0.257902C11.7164 0.36291 10.8898 0.61994 10.474 0.828888C10.1657 0.983818 10.126 0.972124 10.126 0.726373C10.126 0.554762 10.1705 0.47148 10.3481 0.310851C10.4703 0.200322 10.592 0.109917 10.6185 0.109917C10.6452 0.109917 10.6669 0.0832046 10.6669 0.0505565C10.6669 -0.0259589 10.3631 -0.016283 9.61504 0.0840952Z" fill="white"/>
</svg>
