<svg width="110" height="64" viewBox="0 0 110 64" fill="none" xmlns="http://www.w3.org/2000/svg">
<path d="M30.7784 61.9516C29.0568 62.9354 26.9432 62.9354 25.2216 61.9516L3.22161 49.3801C1.4768 48.3831 0.399999 46.5276 0.399999 44.518L0.399998 19.4811C0.399998 17.4714 1.47685 15.6159 3.22174 14.6189L25.2217 2.04818C26.9433 1.06449 29.0567 1.06449 30.7783 2.04818L52.7782 14.6189C54.5231 15.6159 55.6 17.4714 55.6 19.4811L55.6 44.518C55.6 46.5276 54.5232 48.3831 52.7784 49.3801L30.7784 61.9516Z" fill="black" fill-opacity="0.6"/>
<path d="M30.7784 61.9516C29.0568 62.9354 26.9432 62.9354 25.2216 61.9516L3.22161 49.3801C1.4768 48.3831 0.399999 46.5276 0.399999 44.518L0.399998 19.4811C0.399998 17.4714 1.47685 15.6159 3.22174 14.6189L25.2217 2.04818C26.9433 1.06449 29.0567 1.06449 30.7783 2.04818L52.7782 14.6189C54.5231 15.6159 55.6 17.4714 55.6 19.4811L55.6 44.518C55.6 46.5276 54.5232 48.3831 52.7784 49.3801L30.7784 61.9516Z" fill="url(#paint0_linear_823_10310)"/>
<path d="M30.7784 61.9516C29.0568 62.9354 26.9432 62.9354 25.2216 61.9516L3.22161 49.3801C1.4768 48.3831 0.399999 46.5276 0.399999 44.518L0.399998 19.4811C0.399998 17.4714 1.47685 15.6159 3.22174 14.6189L25.2217 2.04818C26.9433 1.06449 29.0567 1.06449 30.7783 2.04818L52.7782 14.6189C54.5231 15.6159 55.6 17.4714 55.6 19.4811L55.6 44.518C55.6 46.5276 54.5232 48.3831 52.7784 49.3801L30.7784 61.9516Z" stroke="#E51717" stroke-width="0.8"/>
<path d="M28.0001 20.8571V28.2857C28.0001 28.7783 28.1957 29.2506 28.544 29.5989C28.8923 29.9472 29.3647 30.1429 29.8572 30.1429H37.2849L37.2858 30.2153V40.9143C37.2858 41.5053 37.051 42.0722 36.6331 42.4901C36.2151 42.9081 35.6483 43.1429 35.0572 43.1429H20.9429C20.3519 43.1429 19.785 42.9081 19.3671 42.4901C18.9492 42.0722 18.7144 41.5053 18.7144 40.9143V23.0857C18.7144 22.4947 18.9492 21.9278 19.3671 21.5099C19.785 21.0919 20.3519 20.8571 20.9429 20.8571H28.0001Z" fill="white"/>
<path d="M29.3928 21.2982V28.2857C29.3928 28.4089 29.4417 28.5269 29.5288 28.614C29.6159 28.7011 29.734 28.75 29.8571 28.75H36.8233C36.7374 28.6293 36.6421 28.5157 36.5382 28.4101L29.638 21.5099C29.5615 21.4335 29.4796 21.3627 29.3928 21.2982Z" fill="white"/>
<path d="M68.966 21.5V12.776H71.21L72.56 17.108L73.1 18.944H73.13L73.688 17.108L74.996 12.776H77.252V21.5H75.848V16.496L75.938 14.222H75.89L75.188 16.418L73.508 21.5H72.776L71.03 16.418L70.328 14.222H70.286L70.364 16.496V21.5H68.966ZM79.1613 21.5V12.776H84.4713V14.096H79.9713L80.5653 13.448V16.742L79.9713 16.328H84.1413V17.63H80.2173L80.5653 17.174V20.822L79.9713 20.168H84.5373V21.5H79.1613ZM85.9582 21.5V12.776H87.5422L90.4942 18.056L91.2862 19.886H91.3342L91.1062 17.948V12.776H92.5162V21.5H90.9262L88.0042 16.268L87.2362 14.48H87.1822L87.3682 16.514V21.5H85.9582ZM97.5974 21.62C96.9534 21.62 96.3874 21.492 95.8994 21.236C95.4154 20.976 95.0394 20.586 94.7714 20.066C94.5034 19.546 94.3694 18.894 94.3694 18.11V12.776H95.8214V18.092C95.8214 18.508 95.8634 18.858 95.9474 19.142C96.0354 19.426 96.1574 19.656 96.3134 19.832C96.4734 20.004 96.6614 20.128 96.8774 20.204C97.0974 20.28 97.3394 20.318 97.6034 20.318C97.8474 20.318 98.0714 20.28 98.2754 20.204C98.4834 20.128 98.6634 20.004 98.8154 19.832C98.9714 19.66 99.0914 19.432 99.1754 19.148C99.2634 18.86 99.3074 18.508 99.3074 18.092V12.776H100.753V18.11C100.753 18.894 100.617 19.546 100.345 20.066C100.077 20.586 99.7054 20.976 99.2294 21.236C98.7534 21.492 98.2094 21.62 97.5974 21.62Z" fill="#DDDDDD" fill-opacity="0.6"/>
<mask id="path-5-inside-1_823_10310" fill="white">
<path d="M69.056 44.5C68.992 44.5 68.96 44.46 68.96 44.38L68.984 27.916C68.984 27.836 69.024 27.796 69.104 27.796H71.768C71.848 27.796 71.888 27.836 71.888 27.916L71.864 41.548H76.808C76.888 41.548 76.928 41.588 76.928 41.668V44.38C76.928 44.46 76.888 44.5 76.808 44.5H69.056ZM82.6109 44.74C81.7469 44.74 80.9549 44.524 80.2349 44.092C79.5309 43.644 78.9629 43.06 78.5309 42.34C78.0989 41.604 77.8829 40.796 77.8829 39.916L77.9069 32.308C77.9069 31.428 78.1149 30.628 78.5309 29.908C78.9629 29.188 79.5389 28.612 80.2589 28.18C80.9789 27.748 81.7629 27.532 82.6109 27.532C83.4749 27.532 84.2589 27.748 84.9629 28.18C85.6669 28.612 86.2269 29.188 86.6429 29.908C87.0749 30.628 87.2909 31.428 87.2909 32.308L87.3149 39.916C87.3149 40.796 87.0989 41.604 86.6669 42.34C86.2509 43.06 85.6829 43.644 84.9629 44.092C84.2589 44.524 83.4749 44.74 82.6109 44.74ZM82.6109 41.836C83.0909 41.836 83.5069 41.644 83.8589 41.26C84.2269 40.86 84.4109 40.412 84.4109 39.916L84.3869 32.308C84.3869 31.78 84.2189 31.332 83.8829 30.964C83.5469 30.596 83.1229 30.412 82.6109 30.412C82.1149 30.412 81.6909 30.596 81.3389 30.964C80.9869 31.316 80.8109 31.764 80.8109 32.308V39.916C80.8109 40.444 80.9869 40.9 81.3389 41.284C81.6909 41.652 82.1149 41.836 82.6109 41.836ZM93.5317 44.74C92.6677 44.74 91.8837 44.524 91.1797 44.092C90.4757 43.66 89.9077 43.084 89.4757 42.364C89.0597 41.628 88.8517 40.812 88.8517 39.916V32.308C88.8517 31.444 89.0597 30.652 89.4757 29.932C89.9077 29.196 90.4757 28.612 91.1797 28.18C91.8997 27.748 92.6837 27.532 93.5317 27.532C94.4117 27.532 95.2037 27.748 95.9077 28.18C96.6277 28.596 97.1957 29.164 97.6117 29.884C98.0277 30.604 98.2357 31.412 98.2357 32.308V33.412C98.2357 33.476 98.1957 33.508 98.1157 33.508H95.4277C95.3637 33.508 95.3317 33.476 95.3317 33.412V32.5C95.3317 31.892 95.1557 31.388 94.8037 30.988C94.4677 30.588 94.0437 30.388 93.5317 30.388C93.0677 30.388 92.6517 30.58 92.2837 30.964C91.9317 31.348 91.7557 31.796 91.7557 32.308V39.916C91.7557 40.444 91.9317 40.9 92.2837 41.284C92.6357 41.652 93.0517 41.836 93.5317 41.836C94.0437 41.836 94.4677 41.652 94.8037 41.284C95.1557 40.916 95.3317 40.46 95.3317 39.916V38.74H93.6517C93.5717 38.74 93.5317 38.7 93.5317 38.62V35.932C93.5317 35.852 93.5717 35.812 93.6517 35.812H98.1397C98.2037 35.812 98.2357 35.852 98.2357 35.932V39.916C98.2357 40.812 98.0197 41.628 97.5877 42.364C97.1717 43.084 96.6117 43.66 95.9077 44.092C95.2037 44.524 94.4117 44.74 93.5317 44.74ZM104.024 44.74C103.16 44.74 102.368 44.524 101.648 44.092C100.944 43.644 100.376 43.06 99.9444 42.34C99.5284 41.604 99.3204 40.796 99.3204 39.916V38.812C99.3204 38.732 99.3604 38.692 99.4404 38.692H102.128C102.192 38.692 102.224 38.732 102.224 38.812V39.916C102.224 40.444 102.4 40.9 102.752 41.284C103.104 41.652 103.528 41.836 104.024 41.836C104.52 41.836 104.944 41.644 105.296 41.26C105.648 40.876 105.824 40.428 105.824 39.916C105.824 39.324 105.44 38.812 104.672 38.38C104.416 38.236 104.016 38.012 103.472 37.708C102.928 37.404 102.416 37.116 101.936 36.844C101.056 36.332 100.4 35.692 99.9684 34.924C99.5524 34.14 99.3444 33.26 99.3444 32.284C99.3444 31.388 99.5604 30.588 99.9924 29.884C100.424 29.164 100.992 28.596 101.696 28.18C102.416 27.764 103.192 27.556 104.024 27.556C104.872 27.556 105.648 27.772 106.352 28.204C107.072 28.62 107.64 29.188 108.056 29.908C108.488 30.612 108.704 31.404 108.704 32.284V34.252C108.704 34.316 108.672 34.348 108.608 34.348H105.92C105.856 34.348 105.824 34.316 105.824 34.252L105.8 32.284C105.8 31.724 105.624 31.268 105.272 30.916C104.92 30.564 104.504 30.388 104.024 30.388C103.528 30.388 103.104 30.58 102.752 30.964C102.4 31.332 102.224 31.772 102.224 32.284C102.224 32.812 102.336 33.252 102.56 33.604C102.784 33.956 103.192 34.292 103.784 34.612C103.864 34.66 104.016 34.748 104.24 34.876C104.48 34.988 104.736 35.124 105.008 35.284C105.28 35.428 105.52 35.556 105.728 35.668C105.952 35.78 106.088 35.852 106.136 35.884C106.936 36.332 107.568 36.884 108.032 37.54C108.496 38.18 108.728 38.972 108.728 39.916C108.728 40.828 108.512 41.652 108.08 42.388C107.664 43.108 107.096 43.684 106.376 44.116C105.672 44.532 104.888 44.74 104.024 44.74Z"/>
</mask>
<path d="M69.056 44.5C68.992 44.5 68.96 44.46 68.96 44.38L68.984 27.916C68.984 27.836 69.024 27.796 69.104 27.796H71.768C71.848 27.796 71.888 27.836 71.888 27.916L71.864 41.548H76.808C76.888 41.548 76.928 41.588 76.928 41.668V44.38C76.928 44.46 76.888 44.5 76.808 44.5H69.056ZM82.6109 44.74C81.7469 44.74 80.9549 44.524 80.2349 44.092C79.5309 43.644 78.9629 43.06 78.5309 42.34C78.0989 41.604 77.8829 40.796 77.8829 39.916L77.9069 32.308C77.9069 31.428 78.1149 30.628 78.5309 29.908C78.9629 29.188 79.5389 28.612 80.2589 28.18C80.9789 27.748 81.7629 27.532 82.6109 27.532C83.4749 27.532 84.2589 27.748 84.9629 28.18C85.6669 28.612 86.2269 29.188 86.6429 29.908C87.0749 30.628 87.2909 31.428 87.2909 32.308L87.3149 39.916C87.3149 40.796 87.0989 41.604 86.6669 42.34C86.2509 43.06 85.6829 43.644 84.9629 44.092C84.2589 44.524 83.4749 44.74 82.6109 44.74ZM82.6109 41.836C83.0909 41.836 83.5069 41.644 83.8589 41.26C84.2269 40.86 84.4109 40.412 84.4109 39.916L84.3869 32.308C84.3869 31.78 84.2189 31.332 83.8829 30.964C83.5469 30.596 83.1229 30.412 82.6109 30.412C82.1149 30.412 81.6909 30.596 81.3389 30.964C80.9869 31.316 80.8109 31.764 80.8109 32.308V39.916C80.8109 40.444 80.9869 40.9 81.3389 41.284C81.6909 41.652 82.1149 41.836 82.6109 41.836ZM93.5317 44.74C92.6677 44.74 91.8837 44.524 91.1797 44.092C90.4757 43.66 89.9077 43.084 89.4757 42.364C89.0597 41.628 88.8517 40.812 88.8517 39.916V32.308C88.8517 31.444 89.0597 30.652 89.4757 29.932C89.9077 29.196 90.4757 28.612 91.1797 28.18C91.8997 27.748 92.6837 27.532 93.5317 27.532C94.4117 27.532 95.2037 27.748 95.9077 28.18C96.6277 28.596 97.1957 29.164 97.6117 29.884C98.0277 30.604 98.2357 31.412 98.2357 32.308V33.412C98.2357 33.476 98.1957 33.508 98.1157 33.508H95.4277C95.3637 33.508 95.3317 33.476 95.3317 33.412V32.5C95.3317 31.892 95.1557 31.388 94.8037 30.988C94.4677 30.588 94.0437 30.388 93.5317 30.388C93.0677 30.388 92.6517 30.58 92.2837 30.964C91.9317 31.348 91.7557 31.796 91.7557 32.308V39.916C91.7557 40.444 91.9317 40.9 92.2837 41.284C92.6357 41.652 93.0517 41.836 93.5317 41.836C94.0437 41.836 94.4677 41.652 94.8037 41.284C95.1557 40.916 95.3317 40.46 95.3317 39.916V38.74H93.6517C93.5717 38.74 93.5317 38.7 93.5317 38.62V35.932C93.5317 35.852 93.5717 35.812 93.6517 35.812H98.1397C98.2037 35.812 98.2357 35.852 98.2357 35.932V39.916C98.2357 40.812 98.0197 41.628 97.5877 42.364C97.1717 43.084 96.6117 43.66 95.9077 44.092C95.2037 44.524 94.4117 44.74 93.5317 44.74ZM104.024 44.74C103.16 44.74 102.368 44.524 101.648 44.092C100.944 43.644 100.376 43.06 99.9444 42.34C99.5284 41.604 99.3204 40.796 99.3204 39.916V38.812C99.3204 38.732 99.3604 38.692 99.4404 38.692H102.128C102.192 38.692 102.224 38.732 102.224 38.812V39.916C102.224 40.444 102.4 40.9 102.752 41.284C103.104 41.652 103.528 41.836 104.024 41.836C104.52 41.836 104.944 41.644 105.296 41.26C105.648 40.876 105.824 40.428 105.824 39.916C105.824 39.324 105.44 38.812 104.672 38.38C104.416 38.236 104.016 38.012 103.472 37.708C102.928 37.404 102.416 37.116 101.936 36.844C101.056 36.332 100.4 35.692 99.9684 34.924C99.5524 34.14 99.3444 33.26 99.3444 32.284C99.3444 31.388 99.5604 30.588 99.9924 29.884C100.424 29.164 100.992 28.596 101.696 28.18C102.416 27.764 103.192 27.556 104.024 27.556C104.872 27.556 105.648 27.772 106.352 28.204C107.072 28.62 107.64 29.188 108.056 29.908C108.488 30.612 108.704 31.404 108.704 32.284V34.252C108.704 34.316 108.672 34.348 108.608 34.348H105.92C105.856 34.348 105.824 34.316 105.824 34.252L105.8 32.284C105.8 31.724 105.624 31.268 105.272 30.916C104.92 30.564 104.504 30.388 104.024 30.388C103.528 30.388 103.104 30.58 102.752 30.964C102.4 31.332 102.224 31.772 102.224 32.284C102.224 32.812 102.336 33.252 102.56 33.604C102.784 33.956 103.192 34.292 103.784 34.612C103.864 34.66 104.016 34.748 104.24 34.876C104.48 34.988 104.736 35.124 105.008 35.284C105.28 35.428 105.52 35.556 105.728 35.668C105.952 35.78 106.088 35.852 106.136 35.884C106.936 36.332 107.568 36.884 108.032 37.54C108.496 38.18 108.728 38.972 108.728 39.916C108.728 40.828 108.512 41.652 108.08 42.388C107.664 43.108 107.096 43.684 106.376 44.116C105.672 44.532 104.888 44.74 104.024 44.74Z" fill="url(#paint1_linear_823_10310)" fill-opacity="0.85"/>
<path d="M68.96 44.38L68.36 44.3791V44.38H68.96ZM68.984 27.916L69.584 27.9169V27.916H68.984ZM71.888 27.916L72.488 27.9171V27.916H71.888ZM71.864 41.548L71.264 41.5469L71.2629 42.148H71.864V41.548ZM69.056 43.9C69.1564 43.9 69.3268 43.938 69.4525 44.0952C69.5578 44.2268 69.56 44.3559 69.56 44.38H68.36C68.36 44.4841 68.3782 44.6732 68.5155 44.8448C68.6732 45.042 68.8916 45.1 69.056 45.1V43.9ZM69.56 44.3809L69.584 27.9169L68.384 27.9151L68.36 44.3791L69.56 44.3809ZM69.584 27.916C69.584 27.9685 69.5705 28.1181 69.4383 28.2503C69.3061 28.3825 69.1565 28.396 69.104 28.396V27.196C68.9715 27.196 68.7619 27.2295 68.5897 27.4017C68.4175 27.5739 68.384 27.7835 68.384 27.916H69.584ZM69.104 28.396H71.768V27.196H69.104V28.396ZM71.768 28.396C71.7155 28.396 71.5659 28.3825 71.4337 28.2503C71.3015 28.1181 71.288 27.9685 71.288 27.916H72.488C72.488 27.7835 72.4545 27.5739 72.2823 27.4017C72.1101 27.2295 71.9005 27.196 71.768 27.196V28.396ZM71.288 27.9149L71.264 41.5469L72.464 41.5491L72.488 27.9171L71.288 27.9149ZM71.864 42.148H76.808V40.948H71.864V42.148ZM76.808 42.148C76.7555 42.148 76.6059 42.1345 76.4737 42.0023C76.3415 41.8701 76.328 41.7205 76.328 41.668H77.528C77.528 41.5355 77.4945 41.3259 77.3223 41.1537C77.1501 40.9815 76.9405 40.948 76.808 40.948V42.148ZM76.328 41.668V44.38H77.528V41.668H76.328ZM76.328 44.38C76.328 44.3275 76.3415 44.1779 76.4737 44.0457C76.6059 43.9135 76.7555 43.9 76.808 43.9V45.1C76.9405 45.1 77.1501 45.0665 77.3223 44.8943C77.4945 44.7221 77.528 44.5125 77.528 44.38H76.328ZM76.808 43.9H69.056V45.1H76.808V43.9ZM80.2349 44.092L79.9128 44.5982L79.9195 44.6024L79.9262 44.6065L80.2349 44.092ZM78.5309 42.34L78.0135 42.6437L78.0164 42.6487L78.5309 42.34ZM77.8829 39.916L77.2829 39.9141V39.916H77.8829ZM77.9069 32.308L78.5069 32.3099V32.308H77.9069ZM78.5309 29.908L78.0164 29.5993L78.0114 29.6078L78.5309 29.908ZM80.2589 28.18L80.5676 28.6945H80.5676L80.2589 28.18ZM84.9629 28.18L84.6491 28.6914V28.6914L84.9629 28.18ZM86.6429 29.908L86.1233 30.2082L86.1284 30.2167L86.6429 29.908ZM87.2909 32.308H86.6909L86.6909 32.3099L87.2909 32.308ZM87.3149 39.916H87.9149L87.9149 39.9141L87.3149 39.916ZM86.6669 42.34L86.1495 42.0363L86.1474 42.0398L86.6669 42.34ZM84.9629 44.092L85.2768 44.6034L85.2799 44.6014L84.9629 44.092ZM83.8589 41.26L83.4174 40.8538L83.4166 40.8546L83.8589 41.26ZM84.4109 39.916H85.0109L85.0109 39.9141L84.4109 39.916ZM84.3869 32.308H83.7869L83.7869 32.3099L84.3869 32.308ZM83.8829 30.964L84.326 30.5594L83.8829 30.964ZM81.3389 30.964L81.7633 31.3884L81.7725 31.3787L81.3389 30.964ZM81.3389 41.284L80.8965 41.6895L80.9054 41.6987L81.3389 41.284ZM82.6109 44.14C81.8524 44.14 81.1676 43.9519 80.5436 43.5775L79.9262 44.6065C80.7423 45.0961 81.6415 45.34 82.6109 45.34V44.14ZM80.5571 43.5858C79.9322 43.1881 79.4298 42.6719 79.0454 42.0313L78.0164 42.6487C78.4961 43.4481 79.1297 44.0999 79.9128 44.5982L80.5571 43.5858ZM79.0484 42.0363C78.6722 41.3953 78.4829 40.6927 78.4829 39.916H77.2829C77.2829 40.8993 77.5257 41.8127 78.0135 42.6437L79.0484 42.0363ZM78.4829 39.9179L78.5069 32.3099L77.3069 32.3061L77.2829 39.9141L78.4829 39.9179ZM78.5069 32.308C78.5069 31.527 78.6903 30.8315 79.0505 30.2082L78.0114 29.6078C77.5396 30.4245 77.3069 31.329 77.3069 32.308H78.5069ZM79.0454 30.2167C79.4268 29.5811 79.9321 29.0758 80.5676 28.6945L79.9502 27.6655C79.1458 28.1482 78.4991 28.7949 78.0164 29.5993L79.0454 30.2167ZM80.5676 28.6945C81.1934 28.319 81.8705 28.132 82.6109 28.132V26.932C81.6553 26.932 80.7645 27.177 79.9502 27.6655L80.5676 28.6945ZM82.6109 28.132C83.3695 28.132 84.044 28.3201 84.6491 28.6914L85.2767 27.6686C84.4739 27.1759 83.5804 26.932 82.6109 26.932V28.132ZM84.6491 28.6914C85.2675 29.0708 85.757 29.574 86.1234 30.2082L87.1625 29.6078C86.6969 28.802 86.0664 28.1532 85.2767 27.6686L84.6491 28.6914ZM86.1284 30.2167C86.5017 30.8389 86.6909 31.5313 86.6909 32.308H87.8909C87.8909 31.3247 87.6481 30.4171 87.1574 29.5993L86.1284 30.2167ZM86.6909 32.3099L86.7149 39.9179L87.9149 39.9141L87.8909 32.3061L86.6909 32.3099ZM86.7149 39.916C86.7149 40.6927 86.5257 41.3953 86.1495 42.0363L87.1844 42.6437C87.6722 41.8127 87.9149 40.8993 87.9149 39.916H86.7149ZM86.1474 42.0398C85.7817 42.6728 85.284 43.1856 84.646 43.5826L85.2799 44.6014C86.0819 44.1024 86.7201 43.4472 87.1865 42.6402L86.1474 42.0398ZM84.6491 43.5806C84.044 43.9519 83.3695 44.14 82.6109 44.14V45.34C83.5804 45.34 84.4739 45.0961 85.2767 44.6034L84.6491 43.5806ZM82.6109 42.436C83.2745 42.436 83.8464 42.1616 84.3012 41.6654L83.4166 40.8546C83.1675 41.1264 82.9074 41.236 82.6109 41.236V42.436ZM84.3005 41.6662C84.7598 41.167 85.0109 40.5774 85.0109 39.916H83.8109C83.8109 40.2465 83.6941 40.553 83.4174 40.8538L84.3005 41.6662ZM85.0109 39.9141L84.9869 32.3061L83.7869 32.3099L83.8109 39.9179L85.0109 39.9141ZM84.9869 32.308C84.9869 31.6401 84.7694 31.045 84.326 30.5594L83.4398 31.3686C83.6685 31.619 83.7869 31.9199 83.7869 32.308H84.9869ZM84.326 30.5594C83.8729 30.0631 83.2863 29.812 82.6109 29.812V31.012C82.9596 31.012 83.221 31.1289 83.4398 31.3686L84.326 30.5594ZM82.6109 29.812C81.9463 29.812 81.3671 30.0665 80.9054 30.5493L81.7725 31.3787C82.0147 31.1255 82.2836 31.012 82.6109 31.012V29.812ZM80.9147 30.5397C80.4392 31.0153 80.2109 31.6211 80.2109 32.308H81.4109C81.4109 31.9069 81.5347 31.6167 81.7632 31.3883L80.9147 30.5397ZM80.2109 32.308V39.916H81.4109V32.308H80.2109ZM80.2109 39.916C80.2109 40.5919 80.4417 41.1931 80.8966 41.6894L81.7812 40.8786C81.5322 40.6069 81.4109 40.2961 81.4109 39.916H80.2109ZM80.9054 41.6987C81.3671 42.1815 81.9463 42.436 82.6109 42.436V41.236C82.2836 41.236 82.0147 41.1225 81.7725 40.8693L80.9054 41.6987ZM91.1797 44.092L90.8659 44.6034L91.1797 44.092ZM89.4757 42.364L88.9534 42.6592L88.9572 42.666L88.9612 42.6727L89.4757 42.364ZM89.4757 29.932L88.9582 29.6283L88.9562 29.6318L89.4757 29.932ZM91.1797 28.18L90.871 27.6655L90.8659 27.6686L91.1797 28.18ZM95.9077 28.18L95.5939 28.6914L95.6006 28.6955L95.6075 28.6995L95.9077 28.18ZM97.6117 29.884L97.0922 30.1842L97.6117 29.884ZM94.8037 30.988L94.3441 31.374L94.3533 31.3844L94.8037 30.988ZM92.2837 30.964L91.8504 30.5488L91.8414 30.5586L92.2837 30.964ZM92.2837 41.284L91.8413 41.6895L91.8501 41.6987L92.2837 41.284ZM94.8037 41.284L94.37 40.8692L94.3606 40.8794L94.8037 41.284ZM95.3317 38.74H95.9317V38.14H95.3317V38.74ZM97.5877 42.364L97.0702 42.0603L97.0682 42.0638L97.5877 42.364ZM95.9077 44.092L96.2215 44.6034L95.9077 44.092ZM93.5317 44.14C92.7731 44.14 92.0986 43.9519 91.4935 43.5806L90.8659 44.6034C91.6687 45.0961 92.5623 45.34 93.5317 45.34V44.14ZM91.4935 43.5806C90.8731 43.1999 90.3734 42.694 89.9902 42.0553L88.9612 42.6727C89.442 43.474 90.0783 44.1201 90.8659 44.6034L91.4935 43.5806ZM89.998 42.0688C89.636 41.4283 89.4517 40.7149 89.4517 39.916H88.2517C88.2517 40.909 88.4834 41.8277 88.9534 42.6592L89.998 42.0688ZM89.4517 39.916V32.308H88.2517V39.916H89.4517ZM89.4517 32.308C89.4517 31.5451 89.634 30.8573 89.9952 30.2322L88.9562 29.6318C88.4853 30.4467 88.2517 31.3429 88.2517 32.308H89.4517ZM89.9931 30.2357C90.377 29.5817 90.8762 29.0702 91.4935 28.6914L90.8659 27.6686C90.0751 28.1538 89.4383 28.8103 88.9582 29.6283L89.9931 30.2357ZM91.4884 28.6945C92.1142 28.319 92.7913 28.132 93.5317 28.132V26.932C92.5761 26.932 91.6852 27.177 90.871 27.6655L91.4884 28.6945ZM93.5317 28.132C94.3085 28.132 94.9905 28.3212 95.5939 28.6914L96.2215 27.6686C95.4168 27.1748 94.5149 26.932 93.5317 26.932V28.132ZM95.6075 28.6995C96.2364 29.0629 96.7288 29.5552 97.0922 30.1842L98.1312 29.5838C97.6626 28.7728 97.0189 28.1291 96.2079 27.6605L95.6075 28.6995ZM97.0922 30.1842C97.4514 30.8059 97.6357 31.5089 97.6357 32.308H98.8357C98.8357 31.3151 98.604 30.4021 98.1312 29.5838L97.0922 30.1842ZM97.6357 32.308V33.412H98.8357V32.308H97.6357ZM97.6357 33.412C97.6357 33.3116 97.6737 33.1412 97.8309 33.0155C97.9625 32.9102 98.0916 32.908 98.1157 32.908V34.108C98.2198 34.108 98.4089 34.0898 98.5805 33.9525C98.7777 33.7948 98.8357 33.5764 98.8357 33.412H97.6357ZM98.1157 32.908H95.4277V34.108H98.1157V32.908ZM95.4277 32.908C95.4882 32.908 95.6437 32.9235 95.78 33.0597C95.9162 33.1959 95.9317 33.3515 95.9317 33.412H94.7317C94.7317 33.5365 94.7632 33.7401 94.9314 33.9083C95.0996 34.0765 95.3032 34.108 95.4277 34.108V32.908ZM95.9317 33.412V32.5H94.7317V33.412H95.9317ZM95.9317 32.5C95.9317 31.768 95.7161 31.1166 95.2541 30.5916L94.3533 31.3844C94.5953 31.6594 94.7317 32.016 94.7317 32.5H95.9317ZM95.2631 30.6021C94.8158 30.0695 94.225 29.788 93.5317 29.788V30.988C93.8623 30.988 94.1196 31.1065 94.3443 31.3739L95.2631 30.6021ZM93.5317 29.788C92.8797 29.788 92.3136 30.0656 91.8505 30.5489L92.7169 31.3791C92.9898 31.0944 93.2557 30.988 93.5317 30.988V29.788ZM91.8414 30.5586C91.3899 31.0511 91.1557 31.643 91.1557 32.308H92.3557C92.3557 31.949 92.4735 31.6449 92.726 31.3694L91.8414 30.5586ZM91.1557 32.308V39.916H92.3557V32.308H91.1557ZM91.1557 39.916C91.1557 40.5919 91.3864 41.1931 91.8414 41.6894L92.726 40.8786C92.4769 40.6069 92.3557 40.2961 92.3557 39.916H91.1557ZM91.8501 41.6987C92.3076 42.177 92.8771 42.436 93.5317 42.436V41.236C93.2263 41.236 92.9638 41.127 92.7173 40.8693L91.8501 41.6987ZM93.5317 42.436C94.207 42.436 94.7936 42.1849 95.2468 41.6886L94.3606 40.8794C94.1418 41.1191 93.8804 41.236 93.5317 41.236V42.436ZM95.2373 41.6987C95.7038 41.211 95.9317 40.6029 95.9317 39.916H94.7317C94.7317 40.3171 94.6075 40.621 94.3701 40.8693L95.2373 41.6987ZM95.9317 39.916V38.74H94.7317V39.916H95.9317ZM95.3317 38.14H93.6517V39.34H95.3317V38.14ZM93.6517 38.14C93.7042 38.14 93.8537 38.1535 93.986 38.2857C94.1182 38.4179 94.1317 38.5675 94.1317 38.62H92.9317C92.9317 38.7525 92.9652 38.9621 93.1374 39.1343C93.3096 39.3065 93.5192 39.34 93.6517 39.34V38.14ZM94.1317 38.62V35.932H92.9317V38.62H94.1317ZM94.1317 35.932C94.1317 35.9845 94.1182 36.1341 93.986 36.2663C93.8537 36.3985 93.7042 36.412 93.6517 36.412V35.212C93.5192 35.212 93.3096 35.2455 93.1374 35.4177C92.9652 35.5899 92.9317 35.7995 92.9317 35.932H94.1317ZM93.6517 36.412H98.1397V35.212H93.6517V36.412ZM98.1397 36.412C98.0393 36.412 97.8689 36.374 97.7432 36.2168C97.6379 36.0852 97.6357 35.9561 97.6357 35.932H98.8357C98.8357 35.8279 98.8175 35.6388 98.6802 35.4672C98.5225 35.27 98.3041 35.212 98.1397 35.212V36.412ZM97.6357 35.932V39.916H98.8357V35.932H97.6357ZM97.6357 39.916C97.6357 40.7108 97.4454 41.421 97.0702 42.0603L98.1051 42.6677C98.5939 41.835 98.8357 40.9132 98.8357 39.916H97.6357ZM97.0682 42.0638C96.7017 42.698 96.2122 43.2012 95.5939 43.5806L96.2215 44.6034C97.0112 44.1188 97.6416 43.47 98.1072 42.6642L97.0682 42.0638ZM95.5939 43.5806C94.9905 43.9508 94.3085 44.14 93.5317 44.14V45.34C94.5149 45.34 95.4168 45.0972 96.2215 44.6034L95.5939 43.5806ZM101.648 44.092L101.326 44.5982L101.333 44.6024L101.34 44.6065L101.648 44.092ZM99.9444 42.34L99.422 42.6352L99.4259 42.642L99.4299 42.6487L99.9444 42.34ZM102.752 41.284L102.31 41.6895L102.319 41.6987L102.752 41.284ZM105.296 41.26L104.854 40.8546L105.296 41.26ZM104.672 38.38L104.967 37.8571H104.967L104.672 38.38ZM103.472 37.708L103.765 37.1842L103.472 37.708ZM101.936 36.844L101.635 37.3626L101.641 37.366L101.936 36.844ZM99.9684 34.924L99.4384 35.2052L99.4418 35.2117L99.4454 35.2182L99.9684 34.924ZM99.9924 29.884L100.504 30.1978L100.507 30.1927L99.9924 29.884ZM101.696 28.18L101.396 27.6605L101.391 27.6634L101.696 28.18ZM106.352 28.204L106.039 28.7154L106.045 28.7195L106.052 28.7235L106.352 28.204ZM108.056 29.908L107.537 30.2082L107.541 30.215L107.545 30.2218L108.056 29.908ZM105.824 34.252H106.424L106.424 34.2447L105.824 34.252ZM105.8 32.284H105.2L105.2 32.2913L105.8 32.284ZM105.272 30.916L105.697 30.4917V30.4917L105.272 30.916ZM102.752 30.964L103.186 31.3788L103.195 31.3694L102.752 30.964ZM102.56 33.604L103.067 33.2819V33.2819L102.56 33.604ZM103.784 34.612L104.093 34.0975L104.082 34.0906L104.07 34.0842L103.784 34.612ZM104.24 34.876L103.943 35.3969L103.964 35.4092L103.987 35.4197L104.24 34.876ZM105.008 35.284L104.704 35.8012L104.716 35.808L104.728 35.8143L105.008 35.284ZM105.728 35.668L105.444 36.1963L105.452 36.2006L105.46 36.2047L105.728 35.668ZM106.136 35.884L105.804 36.3832L105.823 36.3961L105.843 36.4075L106.136 35.884ZM108.032 37.54L107.542 37.8865L107.547 37.8922L108.032 37.54ZM108.08 42.388L107.563 42.0843L107.561 42.0878L108.08 42.388ZM106.376 44.116L106.682 44.6326L106.685 44.6305L106.376 44.116ZM104.024 44.14C103.266 44.14 102.581 43.9519 101.957 43.5775L101.34 44.6065C102.156 45.0961 103.055 45.34 104.024 45.34V44.14ZM101.971 43.5858C101.346 43.1881 100.843 42.6719 100.459 42.0313L99.4299 42.6487C99.9095 43.4481 100.543 44.0999 101.326 44.5982L101.971 43.5858ZM100.467 42.0448C100.104 41.4026 99.9204 40.6969 99.9204 39.916H98.7204C98.7204 40.8951 98.953 41.8054 99.422 42.6352L100.467 42.0448ZM99.9204 39.916V38.812H98.7204V39.916H99.9204ZM99.9204 38.812C99.9204 38.8645 99.9068 39.0141 99.7746 39.1463C99.6424 39.2785 99.4929 39.292 99.4404 39.292V38.092C99.3079 38.092 99.0983 38.1255 98.9261 38.2977C98.7539 38.4699 98.7204 38.6795 98.7204 38.812H99.9204ZM99.4404 39.292H102.128V38.092H99.4404V39.292ZM102.128 39.292C102.028 39.292 101.858 39.254 101.732 39.0968C101.627 38.9652 101.624 38.8361 101.624 38.812H102.824C102.824 38.7079 102.806 38.5188 102.669 38.3472C102.511 38.15 102.293 38.092 102.128 38.092V39.292ZM101.624 38.812V39.916H102.824V38.812H101.624ZM101.624 39.916C101.624 40.5919 101.855 41.1931 102.31 41.6894L103.195 40.8786C102.946 40.6069 102.824 40.2961 102.824 39.916H101.624ZM102.319 41.6987C102.781 42.1815 103.36 42.436 104.024 42.436V41.236C103.697 41.236 103.428 41.1225 103.186 40.8693L102.319 41.6987ZM104.024 42.436C104.698 42.436 105.279 42.1664 105.739 41.6654L104.854 40.8546C104.609 41.1216 104.343 41.236 104.024 41.236V42.436ZM105.739 41.6654C106.19 41.1729 106.424 40.581 106.424 39.916H105.224C105.224 40.275 105.107 40.5791 104.854 40.8546L105.739 41.6654ZM106.424 39.916C106.424 39.0119 105.822 38.3384 104.967 37.8571L104.378 38.9029C105.058 39.2856 105.224 39.6361 105.224 39.916H106.424ZM104.967 37.8571C104.71 37.7126 104.309 37.4883 103.765 37.1842L103.18 38.2318C103.724 38.5357 104.123 38.7594 104.378 38.9029L104.967 37.8571ZM103.765 37.1842C103.222 36.8807 102.711 36.5933 102.232 36.322L101.641 37.366C102.122 37.6387 102.635 37.9273 103.18 38.2318L103.765 37.1842ZM102.238 36.3254C101.436 35.8587 100.863 35.291 100.491 34.6298L99.4454 35.2182C99.9375 36.093 100.677 36.8053 101.635 37.3626L102.238 36.3254ZM100.498 34.6428C100.133 33.9538 99.9444 33.1719 99.9444 32.284H98.7444C98.7444 33.3481 98.9719 34.3262 99.4384 35.2052L100.498 34.6428ZM99.9444 32.284C99.9444 31.489 100.135 30.7994 100.504 30.1978L99.481 29.5702C98.9862 30.3766 98.7444 31.287 98.7444 32.284H99.9444ZM100.507 30.1927C100.889 29.5559 101.386 29.0604 102.002 28.6966L101.391 27.6634C100.599 28.1316 99.9598 28.7721 99.4779 29.5753L100.507 30.1927ZM101.997 28.6995C102.625 28.3363 103.298 28.156 104.024 28.156V26.956C103.087 26.956 102.208 27.1917 101.396 27.6605L101.997 28.6995ZM104.024 28.156C104.765 28.156 105.432 28.3429 106.039 28.7154L106.666 27.6926C105.865 27.2011 104.98 26.956 104.024 26.956V28.156ZM106.052 28.7235C106.681 29.0869 107.173 29.5792 107.537 30.2082L108.576 29.6078C108.107 28.7968 107.464 28.1531 106.653 27.6845L106.052 28.7235ZM107.545 30.2218C107.915 30.8252 108.104 31.5072 108.104 32.284H109.304C109.304 31.3008 109.062 30.3988 108.568 29.5942L107.545 30.2218ZM108.104 32.284V34.252H109.304V32.284H108.104ZM108.104 34.252C108.104 34.1915 108.12 34.0359 108.256 33.8997C108.392 33.7635 108.548 33.748 108.608 33.748V34.948C108.733 34.948 108.936 34.9165 109.105 34.7483C109.273 34.5801 109.304 34.3765 109.304 34.252H108.104ZM108.608 33.748H105.92V34.948H108.608V33.748ZM105.92 33.748C105.981 33.748 106.136 33.7635 106.273 33.8997C106.409 34.0359 106.424 34.1915 106.424 34.252H105.224C105.224 34.3765 105.256 34.5801 105.424 34.7483C105.592 34.9165 105.796 34.948 105.92 34.948V33.748ZM106.424 34.2447L106.4 32.2767L105.2 32.2913L105.224 34.2593L106.424 34.2447ZM106.4 32.284C106.4 31.5866 106.176 30.9707 105.697 30.4917L104.848 31.3403C105.073 31.5653 105.2 31.8614 105.2 32.284H106.4ZM105.697 30.4917C105.237 30.0319 104.67 29.788 104.024 29.788V30.988C104.339 30.988 104.604 31.0961 104.848 31.3403L105.697 30.4917ZM104.024 29.788C103.351 29.788 102.769 30.0576 102.31 30.5586L103.195 31.3694C103.439 31.1024 103.706 30.988 104.024 30.988V29.788ZM102.319 30.5493C101.859 31.0296 101.624 31.6184 101.624 32.284H102.824C102.824 31.9256 102.941 31.6344 103.186 31.3787L102.319 30.5493ZM101.624 32.284C101.624 32.896 101.755 33.4553 102.054 33.9261L103.067 33.2819C102.918 33.0487 102.824 32.728 102.824 32.284H101.624ZM102.054 33.9261C102.357 34.4019 102.867 34.7979 103.499 35.1398L104.07 34.0842C103.518 33.7861 103.212 33.5101 103.067 33.2819L102.054 33.9261ZM103.476 35.1265C103.562 35.1783 103.719 35.2693 103.943 35.3969L104.538 34.3551C104.313 34.2267 104.167 34.1417 104.093 34.0975L103.476 35.1265ZM103.987 35.4197C104.207 35.5223 104.446 35.649 104.704 35.8012L105.313 34.7668C105.027 34.599 104.754 34.4537 104.494 34.3323L103.987 35.4197ZM104.728 35.8143C104.999 35.9578 105.237 36.0851 105.444 36.1963L106.013 35.1397C105.803 35.0269 105.562 34.8982 105.289 34.7537L104.728 35.8143ZM105.46 36.2047C105.57 36.2597 105.655 36.3034 105.718 36.3363C105.788 36.3734 105.808 36.3863 105.804 36.3832L106.469 35.3848C106.383 35.3271 106.206 35.2362 105.997 35.1313L105.46 36.2047ZM105.843 36.4075C106.576 36.818 107.137 37.313 107.543 37.8865L108.522 37.1935C108 36.455 107.296 35.846 106.43 35.3605L105.843 36.4075ZM107.547 37.8922C107.923 38.4111 108.128 39.0733 108.128 39.916H109.328C109.328 38.8707 109.07 37.9489 108.518 37.1878L107.547 37.8922ZM108.128 39.916C108.128 40.7288 107.937 41.4467 107.563 42.0843L108.598 42.6917C109.088 41.8573 109.328 40.9272 109.328 39.916H108.128ZM107.561 42.0878C107.196 42.7188 106.701 43.2214 106.068 43.6015L106.685 44.6305C107.492 44.1466 108.132 43.4972 108.6 42.6882L107.561 42.0878ZM106.071 43.5994C105.465 43.9577 104.787 44.14 104.024 44.14V45.34C104.989 45.34 105.88 45.1063 106.682 44.6326L106.071 43.5994Z" fill="url(#paint2_linear_823_10310)" fill-opacity="0.3" mask="url(#path-5-inside-1_823_10310)"/>
<defs>
<linearGradient id="paint0_linear_823_10310" x1="-13.0353" y1="79.0566" x2="83.7219" y2="-5.60595" gradientUnits="userSpaceOnUse">
<stop stop-color="#E51717"/>
<stop offset="1" stop-color="#E51717" stop-opacity="0"/>
</linearGradient>
<linearGradient id="paint1_linear_823_10310" x1="68" y1="36.5" x2="110" y2="36.5" gradientUnits="userSpaceOnUse">
<stop offset="0.644841" stop-color="white"/>
<stop offset="1" stop-color="white" stop-opacity="0.3"/>
</linearGradient>
<linearGradient id="paint2_linear_823_10310" x1="68" y1="36.5" x2="110" y2="36.5" gradientUnits="userSpaceOnUse">
<stop offset="0.644841" stop-color="white"/>
<stop offset="1" stop-color="white" stop-opacity="0.3"/>
</linearGradient>
</defs>
</svg>
