<svg width="30" height="26" viewBox="0 0 30 26" fill="none" xmlns="http://www.w3.org/2000/svg">
<path d="M15.0085 25.8826C13.4495 25.8826 11.8788 25.9985 10.3327 25.8525C8.51123 25.6822 6.91945 24.8282 5.68049 23.5026C3.54663 21.237 1.85739 18.5991 0.698851 15.7232C-0.182606 13.5216 -0.0513254 11.2251 0.139735 8.92277C0.351894 6.36437 0.510133 3.80133 0.691817 1.24177C0.702366 1.08766 0.70471 0.932393 0.717604 0.778286C0.750424 0.414455 0.834819 0.0830687 1.27789 0.0112294C1.74675 -0.0594511 1.92375 0.242971 2.05854 0.621865C2.76183 2.60092 3.43816 4.5962 4.22233 6.54628C4.57398 7.41183 5.11551 8.21249 5.64649 8.99229C6.03916 9.57164 6.35799 9.56585 6.92531 9.1661C11.9831 5.59731 17.9623 5.60078 23.0752 9.17652C23.6261 9.56121 23.9648 9.58206 24.3071 9.01778C25.0104 7.86719 25.6985 6.70039 26.2189 5.45942C26.8694 3.91488 27.3465 2.2985 27.8927 0.708767C28.024 0.331032 28.1471 -0.0501872 28.6663 0.00543029C29.1856 0.0610477 29.2395 0.457332 29.2677 0.855924C29.5021 4.18718 29.76 7.51611 29.9709 10.8485C30.1246 13.1348 29.6216 15.4175 28.5198 17.4334C27.4825 19.3661 26.3068 21.2073 24.8862 22.8793C23.169 24.8977 20.9724 25.9556 18.2928 25.9892C17.1992 26.0031 16.1056 25.9892 15.0108 25.9892L15.0085 25.8826ZM14.9979 10.1V9.98413C14.1985 9.98413 13.385 9.8868 12.6067 10.0119C11.8256 10.1301 11.0717 10.3835 10.3796 10.7605C9.57202 11.2158 9.41613 12.1694 9.84396 12.9434C10.2577 13.692 11.0864 14.0083 11.9456 13.6978C12.5657 13.4741 13.1717 13.2065 13.7707 12.9295C14.1469 12.7442 14.5613 12.647 14.9817 12.6456C15.4021 12.6442 15.8172 12.7386 16.1947 12.9214C16.8136 13.2018 17.436 13.4799 18.0701 13.7093C18.4366 13.8519 18.8428 13.8594 19.2144 13.7305C19.5861 13.6016 19.8984 13.3449 20.0944 13.0072C20.5316 12.2899 20.4343 11.3919 19.7428 10.8705C19.2927 10.531 18.7335 10.1973 18.192 10.1382C17.1394 10.0201 16.0646 10.1 14.9979 10.1Z" fill="white"/>
</svg>
