<svg width="20" height="29" viewBox="0 0 20 29" fill="none" xmlns="http://www.w3.org/2000/svg">
<path d="M6.3647 11.3992C5.7323 11.7014 5.16822 11.9686 4.60634 12.2386C3.55823 12.7429 2.51527 13.255 1.46348 13.7509C0.76499 14.0797 0.0576815 13.7509 0.0033297 13.0871C-0.0282531 12.6982 0.167118 12.4261 0.492494 12.2092C2.21559 11.0592 3.93625 9.90668 5.65445 8.75157C6.38355 8.26145 7.10922 7.76644 7.83146 7.26653C8.2626 6.96644 8.73635 6.89649 9.25563 6.93007C9.69248 6.96784 10.132 6.96784 10.5689 6.93007C11.2461 6.85592 11.8138 7.04898 12.3544 7.41412C14.1392 8.621 15.9284 9.82228 17.722 11.018C18.3324 11.4272 18.9479 11.8287 19.5531 12.2442C19.9504 12.5177 20.0951 12.9668 19.9358 13.3543C19.7889 13.7041 19.3643 13.9573 18.9626 13.8936C18.7722 13.8536 18.5891 13.7871 18.419 13.6964C16.9011 12.9698 15.3832 12.2405 13.8652 11.5083C13.7918 11.4733 13.711 11.4517 13.5832 11.4048C13.5744 11.5587 13.5612 11.6797 13.5612 11.8C13.5612 13.3739 13.5237 14.9478 13.5692 16.5203C13.6295 18.5768 13.3607 20.6116 13.2233 22.6556C13.1058 24.3995 12.9655 26.1412 12.8304 27.8837C12.7775 28.5643 12.2993 29.019 11.675 29.0029C11.0507 28.9868 10.6093 28.5321 10.5608 27.876C10.3821 25.4594 10.2026 23.0427 10.0224 20.6256C10.0219 20.5927 10.0123 20.5605 9.9945 20.5322C9.9767 20.5039 9.95136 20.4807 9.92107 20.4648C9.88508 20.8509 9.84248 21.2342 9.81383 21.6231C9.66106 23.7263 9.50976 25.8297 9.35992 27.9333C9.31659 28.5356 8.81787 29.0029 8.21927 29.0029C7.62066 29.0029 7.14325 28.5734 7.09404 27.9683C6.96771 26.4119 6.86194 24.8541 6.73634 23.2984C6.62544 21.9281 6.49764 20.5592 6.38086 19.1896C6.36396 18.993 6.36249 18.7943 6.36249 18.5964C6.36249 16.358 6.36249 14.1196 6.36249 11.8811L6.3647 11.3992Z" fill="white"/>
<path d="M12.9038 3.02189C12.8653 3.55656 12.7123 4.07807 12.4542 4.55433C12.1961 5.03058 11.8385 5.45151 11.4033 5.79122C10.552 6.47324 9.53033 6.51591 8.68567 5.85138C7.48038 4.90496 6.87957 3.67662 7.17337 2.17549C7.43558 0.833144 8.84872 -0.132867 10.2193 0.0140284C11.8036 0.18121 12.928 1.35568 12.9038 3.02189Z" fill="white"/>
</svg>
