<svg width="28" height="19" viewBox="0 0 28 19" fill="none" xmlns="http://www.w3.org/2000/svg">
<path d="M26.5072 0L26.4895 0.254584C26.2807 3.23536 25.5256 6.15312 24.2614 8.86411C23.0932 11.3748 21.6777 13.3631 19.9331 14.9586C18.5386 16.2315 17.112 17.015 15.5729 17.354C13.539 17.8028 11.6112 17.4232 9.68003 16.1931C7.83942 15.0211 6.26823 13.3269 4.87811 11.0126C3.18721 8.19562 2.09029 5.06635 1.65401 1.81496C1.58003 1.28715 1.52592 0.763729 1.4928 0.258965L1.47514 0.00329516H0L0.0187686 0.294086C0.0541012 0.854814 0.113724 1.44297 0.197639 2.04979C0.667578 5.54065 1.85928 8.89711 3.69778 11.9081C5.34627 14.5888 7.12063 16.4191 9.28696 17.6701C10.8217 18.5556 12.3874 19 13.9685 19C15.0784 18.9939 16.1777 18.7849 17.2114 18.3833C19.2397 17.6152 21.0395 16.2315 22.7156 14.151C24.3342 12.1418 25.5863 9.85937 26.5392 7.17204C27.3293 4.95621 27.8147 2.6445 27.9823 0.299565L28 0.00878709L26.5072 0Z" fill="white"/>
<path d="M10.5126 12.0463C11.6311 11.1553 12.8313 11.2606 14.0226 12.1308C15.2251 11.2354 16.423 11.1893 17.5901 12.0924C18.193 11.7775 18.2327 11.434 17.7657 11.1246C17.0182 10.633 16.2011 10.3905 15.3057 10.5847C14.864 10.6813 14.4323 10.8437 13.9509 10.9896C13.783 10.9161 13.5699 10.8074 13.3458 10.7295C12.2417 10.3499 11.2049 10.4815 10.2542 11.1531C10.1725 11.2182 10.1048 11.299 10.0551 11.3906C10.0054 11.4822 9.97472 11.5828 9.96491 11.6864C9.95938 11.9212 10.178 12.0463 10.5126 12.0463Z" fill="white"/>
<path d="M22.4572 5.4734C22.6659 5.41524 22.8646 5.31758 23.1727 5.19687C23.1175 5.40756 23.0932 5.52607 23.0534 5.64349C23.0071 5.78175 22.943 5.91452 22.8955 6.05168C22.8006 6.32272 22.8282 6.56304 23.1164 6.7035C23.3626 6.8231 23.6132 6.69141 23.7579 6.36332C23.8683 6.11862 23.9566 5.86515 24.0891 5.53705C24.2073 5.82125 24.2812 6.02096 24.3729 6.21189C24.4954 6.46537 24.682 6.65082 24.9835 6.51914C25.2496 6.40941 25.286 6.16471 25.2043 5.91562C25.0089 5.3088 24.8057 4.70199 24.5915 4.10175C24.4811 3.7956 24.2415 3.66284 23.9356 3.79451C23.3184 4.07213 22.7111 4.37499 22.1083 4.68443C22.0564 4.70559 22.0096 4.73735 21.9709 4.77765C21.9322 4.81795 21.9025 4.86589 21.8836 4.91835C21.8648 4.97082 21.8573 5.02664 21.8615 5.08218C21.8658 5.13773 21.8818 5.19176 21.9084 5.24077C22.0144 5.48327 22.2242 5.53814 22.4572 5.4734Z" fill="white"/>
<path d="M3.07945 6.53891C3.3312 6.61572 3.50786 6.47965 3.61165 6.26129C3.70109 6.07036 3.76623 5.86844 3.88217 5.56888C4.03565 5.91014 4.14054 6.15485 4.25648 6.39516C4.37241 6.63547 4.53913 6.80556 4.81848 6.71668C5.12985 6.61572 5.14973 6.34359 5.08017 6.08133C5.01061 5.81907 4.90681 5.56449 4.771 5.17275C5.05367 5.28797 5.23254 5.36588 5.41472 5.43501C5.68193 5.53706 5.94361 5.53596 6.07721 5.24737C6.21081 4.95878 6.03967 4.74699 5.79013 4.62189C5.23254 4.34427 4.66832 4.07983 4.10189 3.81867C3.80157 3.6804 3.52995 3.7627 3.41512 4.06227C3.17331 4.69212 2.96242 5.33515 2.76699 5.98037C2.74662 6.03734 2.73869 6.09796 2.74374 6.15821C2.74878 6.21846 2.76669 6.27696 2.79625 6.3298C2.82581 6.38264 2.86635 6.42862 2.91519 6.46468C2.96402 6.50073 3.02001 6.52604 3.07945 6.53891Z" fill="white"/>
<path d="M16.1106 12.6619C16.0002 12.719 15.8897 12.7958 15.7793 12.8605C14.6156 13.5453 13.4485 13.5551 12.2792 12.8759C12.1368 12.7936 11.9976 12.6564 11.8486 12.6443C11.6741 12.6301 11.4069 12.6707 11.3307 12.7859C11.2545 12.9011 11.3142 13.1546 11.3749 13.3258C11.4102 13.4289 11.5527 13.5047 11.6598 13.5738C12.3677 14.0307 13.1798 14.3035 14.0215 14.3671C14.6034 14.2157 15.1952 14.095 15.7617 13.9008C16.0672 13.7753 16.3505 13.6019 16.6008 13.3872C16.8084 13.2281 16.878 12.9878 16.7035 12.7563C16.5489 12.5467 16.3292 12.5533 16.1106 12.6619Z" fill="white"/>
<path d="M12.6491 8.51955C13.0576 8.77632 13.496 8.95848 13.9983 8.90361C14.0105 8.93763 14.0215 8.97274 14.0337 9.01334C14.4753 8.84984 14.9236 8.71707 15.3399 8.51078C15.6656 8.34947 15.744 8.05539 15.5905 7.83373C15.4094 7.57367 15.1588 7.57367 14.9126 7.724C14.3075 8.08282 13.708 8.10476 13.0929 7.74923C12.8511 7.60988 12.5983 7.57916 12.4095 7.84032C12.2549 8.04442 12.3488 8.33081 12.6491 8.51955Z" fill="white"/>
<path d="M19.7057 12.7047C20.1241 12.2778 20.5194 11.8268 20.8893 11.4263C20.6828 10.8129 20.3803 10.6867 20.0402 11.0214C19.7001 11.3561 19.3976 11.7237 19.0929 12.0891C18.9195 12.2943 18.8952 12.528 19.1083 12.7266C19.1478 12.7664 19.1952 12.7976 19.2474 12.8182C19.2997 12.8388 19.3557 12.8484 19.4119 12.8464C19.468 12.8443 19.5232 12.8306 19.5738 12.8063C19.6243 12.7819 19.6693 12.7473 19.7057 12.7047Z" fill="white"/>
<path d="M5.43018 7.85459C5.29658 7.8919 5.20935 8.0938 5.09894 8.22548C5.3562 8.8696 5.5958 9.45996 6.07831 9.89669C6.17217 9.98118 6.46035 9.9702 6.56856 9.8868C6.67676 9.80341 6.75846 9.53457 6.70326 9.41716C6.46858 8.92325 6.19885 8.44654 5.89613 7.99065C5.82767 7.88531 5.5671 7.81508 5.43018 7.85459Z" fill="white"/>
<path d="M8.1784 12.6224C8.56596 12.9977 8.84972 12.9033 9.06172 12.2932C8.74041 11.9223 8.39923 11.5251 8.04921 11.1268C7.7798 10.825 7.49714 10.7647 7.28956 10.949C7.08198 11.1334 7.09524 11.4198 7.35692 11.7325C7.61498 12.0431 7.88918 12.3402 8.1784 12.6224Z" fill="white"/>
<path d="M21.4679 9.93069C21.7141 10.0657 21.9405 9.97898 22.0807 9.74745C22.3251 9.34144 22.5573 8.92922 22.7774 8.51078C22.9276 8.22438 22.8602 7.98296 22.4462 7.7613C22.3081 7.86225 22.1149 7.94236 22.0133 8.0905C21.7516 8.48443 21.5209 8.90032 21.3 9.3184C21.1797 9.55103 21.2172 9.79353 21.4679 9.93069Z" fill="white"/>
</svg>
