<svg width="27" height="28" viewBox="0 0 27 28" fill="none" xmlns="http://www.w3.org/2000/svg">
<path d="M6.02868 12.7721C6.06634 13.4668 6.08544 14.1637 6.14645 14.8562C6.25255 16.0476 6.67695 17.1536 7.0552 18.2684C7.40693 19.3017 7.41329 20.3547 7.26741 21.4257C7.17563 22.1012 7.12629 22.7828 7.05892 23.4622C7.02231 23.8325 7.12894 24.1634 7.32417 24.4698C7.91091 25.3936 8.72629 26.0763 9.56449 26.736C9.71659 26.8444 9.85866 26.9671 9.98889 27.1025C10.0691 27.1951 10.1143 27.3143 10.1163 27.4385C10.1182 27.5626 10.0768 27.6834 9.9995 27.7786C9.83345 27.9695 9.61223 28.0772 9.38518 27.9345C9.04725 27.7222 8.70507 27.5002 8.41595 27.2261C7.81276 26.6539 7.21435 26.0708 6.66528 25.4429C6.04512 24.7318 5.86316 23.8626 5.9873 22.919C6.07483 22.2511 6.13902 21.5799 6.23239 20.9131C6.35812 20.015 6.22178 19.1551 5.92682 18.3105C5.70613 17.6771 5.50242 17.0387 5.29977 16.4365C5.05892 16.8041 4.80799 17.2072 4.53478 17.5939C4.4146 17.7516 4.27496 17.8925 4.11939 18.0129C3.86634 18.2224 3.55335 18.2038 3.35335 17.9861C3.3037 17.9356 3.26472 17.875 3.23883 17.8082C3.21294 17.7415 3.20071 17.6699 3.2029 17.598C3.20509 17.5261 3.22166 17.4554 3.25157 17.3904C3.28147 17.3255 3.32407 17.2675 3.37669 17.2203C4.46581 16.1941 4.67589 14.8031 4.89446 13.4143C4.94751 13.0822 4.97192 12.7447 5.00056 12.4094C5.02921 12.0856 5.1682 11.8624 5.47802 11.7897C5.28438 11.1333 5.07589 10.4894 4.90772 9.83359C4.83292 9.5404 4.81913 9.22587 4.81329 8.92064C4.80746 8.63456 5.05414 8.41083 5.33001 8.40427C5.61595 8.39771 5.87696 8.60119 5.86422 8.8911C5.84194 9.40802 6.04619 9.86477 6.1751 10.3396C6.32682 10.8992 6.48916 11.462 6.86847 11.9188C7.37881 12.5331 8.06847 12.8366 8.79207 13.0609C9.24725 13.202 9.7125 13.3344 10.1825 13.3951C11.1655 13.5237 11.9862 13.1375 12.6472 12.4061C12.7995 12.2382 12.8881 11.9817 12.938 11.7497C12.991 11.4987 13.0849 11.3078 13.2982 11.1929C13.2027 11.0835 13.0732 10.9916 13.0197 10.8647C12.9691 10.7309 12.9614 10.5838 12.9979 10.4451C13.0653 10.2006 13.2632 10.0787 13.5029 10.083C13.615 10.0806 13.7247 10.1163 13.815 10.1846C13.9053 10.2529 13.9713 10.3501 14.0027 10.461C14.0923 10.7274 13.9931 10.9413 13.7449 11.124C13.8483 11.3532 13.9862 11.5616 14.0356 11.7853C14.1666 12.3903 14.5841 12.7261 15.0584 13.0062C15.7544 13.4159 16.4955 13.5532 17.2775 13.3087C17.8669 13.1227 18.4653 12.957 19.0361 12.7223C19.8435 12.3908 20.3831 11.7727 20.6409 10.909C20.8046 10.362 20.9638 9.81299 21.1183 9.26197C21.1411 9.17992 21.1146 9.08365 21.1114 8.99394C21.1035 8.76529 21.1846 8.58205 21.3836 8.47265C21.4715 8.41814 21.5736 8.39265 21.676 8.39959C21.7784 8.40653 21.8762 8.44558 21.9565 8.51149C22.1342 8.64879 22.1762 8.83093 22.1687 9.06122C22.1374 10.0152 21.7831 10.8795 21.4865 11.7793C21.8579 11.8657 21.964 12.1398 21.9953 12.498C22.1014 13.6703 22.2504 14.8332 22.713 15.9261C22.9056 16.3823 23.1608 16.7909 23.5258 17.1251C23.8228 17.3986 23.8563 17.74 23.6287 17.9883C23.4117 18.2246 23.0716 18.2372 22.8075 17.9478C22.4892 17.5994 22.2154 17.2072 21.9348 16.8243C21.8409 16.6963 21.7857 16.5388 21.6695 16.3112C21.3443 17.478 20.973 18.5572 20.7618 19.6687C20.6467 20.2704 20.7931 20.9339 20.8419 21.5674C20.8876 22.157 20.9629 22.7445 21.0186 23.3331C21.0886 24.0704 20.8483 24.7154 20.435 25.2985C19.6992 26.3334 18.7539 27.1391 17.7449 27.8694C17.4727 28.0663 17.1353 27.999 16.9671 27.7512C16.799 27.5034 16.869 27.1659 17.148 26.9362C17.59 26.5724 18.0414 26.2207 18.4743 25.8422C18.7236 25.6234 18.938 25.3668 19.173 25.1311C19.8478 24.461 20.0494 23.6503 19.8966 22.7106C19.7905 22.0542 19.7226 21.3934 19.652 20.7326C19.5422 19.6933 19.7411 18.7005 20.1077 17.7389C20.6865 16.2199 20.9937 14.6521 20.9284 13.015C20.9252 12.928 20.9167 12.8416 20.9077 12.7125C19.8404 13.8322 18.4897 14.2074 17.1029 14.4826C16.0663 14.6882 15.1247 14.3863 14.2605 13.8043C13.9894 13.6221 13.7502 13.3891 13.5178 13.196C13.1549 13.4624 12.8037 13.7687 12.4106 14.0001C11.4812 14.5471 10.4939 14.6696 9.44406 14.3961C8.35812 14.1128 7.2934 13.801 6.42019 13.0286C6.31409 12.9367 6.21701 12.8388 6.11568 12.7437L6.02868 12.7721Z" fill="white"/>
<path d="M0.00215242 14.7107C0.0424707 13.5822 0.0742993 12.5002 0.494458 11.4937C0.699233 11.0014 0.995785 10.5556 1.23716 10.0814C1.29119 9.97666 1.30985 9.85638 1.29021 9.7395C0.904007 8.13022 0.828676 6.5286 1.46634 4.96909C1.94963 3.78811 2.81647 2.95831 3.90666 2.36918C4.97828 1.78881 6.13053 1.50437 7.33266 1.41083C7.46054 1.39213 7.58125 1.33849 7.68226 1.25549C8.32894 0.759901 8.97828 0.268146 9.78411 0.0805242C9.99809 0.0270779 10.2182 0.004619 10.4382 0.0137914C10.5635 0.0209866 10.682 0.0748895 10.7716 0.165459C10.8612 0.256029 10.9158 0.37709 10.9252 0.506094C10.9491 0.770844 10.7852 1.00824 10.5045 1.08537C10.3454 1.12968 10.173 1.13678 10.0106 1.17671C9.41064 1.3255 8.90666 1.67668 8.45255 2.07763C8.07748 2.40584 7.67483 2.52344 7.20056 2.56063C6.10507 2.64542 5.06369 2.94354 4.11621 3.53703C2.85892 4.32636 2.18199 5.48492 2.11037 6.9941C2.06793 7.89501 2.09181 8.79921 2.42549 9.65964C2.54327 9.96432 2.43823 10.2411 2.28067 10.5124C2.00428 10.9872 1.70401 11.4544 1.49075 11.9598C1.14751 12.7748 1.14061 13.6621 1.09605 14.5351C1.08067 14.8354 1.09128 15.1368 1.08332 15.4376C1.07324 15.8145 0.84194 16.0793 0.532125 16.0771C0.222311 16.0749 0.0132925 15.8255 0.00162139 15.4513C-0.00421415 15.3151 0.00745771 15.1778 0.00904923 15.0416C0.00321368 14.9131 0.00215242 14.7856 0.00215242 14.7107Z" fill="white"/>
<path d="M25.9698 7.5876C25.9645 8.27573 25.9279 9.0563 25.6759 9.80952C25.668 9.8515 25.6686 9.89472 25.6777 9.93643C25.6869 9.97815 25.7043 10.0174 25.7289 10.0518C26.6308 11.2853 26.9279 12.707 26.9677 14.2091C26.9772 14.5734 26.9831 14.9382 26.9915 15.3031C27.0027 15.7784 26.8112 16.0607 26.4679 16.0733C26.1247 16.0858 25.9252 15.7998 25.904 15.3343C25.8685 14.5619 25.8308 13.7884 25.7629 13.0188C25.695 12.2404 25.3915 11.5419 24.9671 10.9019C24.8679 10.7515 24.7719 10.5983 24.6748 10.4457C24.4971 10.1662 24.4923 9.8779 24.5884 9.55954C24.9884 8.23962 25.0488 6.91205 24.5884 5.59377C24.2213 4.54243 23.4743 3.84336 22.5369 3.33684C21.5645 2.8139 20.5146 2.60112 19.4303 2.50977C19.1976 2.48176 18.9758 2.39247 18.7862 2.25048C18.225 1.83968 17.6976 1.37528 17.0133 1.18547C16.878 1.14827 16.7353 1.13953 16.5968 1.11436C16.2393 1.04818 16.034 0.802571 16.0663 0.484763C16.0992 0.178441 16.3687 -0.0250442 16.7263 -0.000429043C17.3502 0.0433312 17.9109 0.281821 18.4297 0.625339C18.8075 0.874773 19.1422 1.22704 19.5496 1.38622C19.9491 1.54431 20.4223 1.49124 20.8536 1.5804C22.4616 1.91353 23.9019 2.57212 24.9385 3.95331C25.7194 4.9948 26.0101 6.19383 25.9698 7.5876Z" fill="white"/>
<path d="M13.4844 6.68887C13.6738 6.50726 13.8319 6.34918 13.9963 6.19656C14.8016 5.4603 15.7555 4.98988 16.7417 4.58072C17.0393 4.45764 17.3459 4.59111 17.4594 4.8586C17.5809 5.14577 17.4504 5.4603 17.13 5.62057C16.7093 5.83008 16.2594 5.98925 15.8658 6.24197C15.3563 6.56617 14.8729 6.93202 14.4202 7.33598C13.7634 7.92674 13.2 7.96338 12.582 7.33925C11.8202 6.57345 10.9035 6.08115 9.93796 5.6605C9.61966 5.52211 9.4674 5.30659 9.48703 5.0588C9.5178 4.66715 9.85255 4.4374 10.234 4.58564C10.6154 4.73388 10.9963 4.9215 11.3682 5.10967C12.1555 5.5083 12.8711 6.04235 13.4844 6.68887Z" fill="white"/>
<path d="M7.50825 7.28455C7.50797 7.35758 7.49337 7.4298 7.46534 7.49686C7.43732 7.56393 7.39644 7.62447 7.34516 7.67484C7.29387 7.72521 7.23325 7.76438 7.16693 7.79C7.1006 7.81561 7.02994 7.82714 6.95918 7.8239C6.82072 7.81967 6.68921 7.76036 6.5922 7.6584C6.49519 7.55644 6.4402 7.41972 6.43876 7.27689C6.44068 7.13017 6.4981 6.99002 6.59878 6.88631C6.69947 6.7826 6.83545 6.72353 6.97775 6.72169C7.04848 6.72255 7.11835 6.7378 7.18334 6.76658C7.24834 6.79537 7.30717 6.83711 7.35647 6.88942C7.40577 6.94172 7.44456 7.00356 7.4706 7.07137C7.49665 7.13918 7.50945 7.21163 7.50825 7.28455Z" fill="white"/>
<path d="M10.2287 7.82499C10.0861 7.82255 9.95033 7.76203 9.85093 7.65667C9.75153 7.5513 9.69661 7.40965 9.69817 7.26267C9.70387 7.11999 9.76175 6.98483 9.86017 6.88436C9.95859 6.7839 10.0903 6.72558 10.2287 6.72114C10.3716 6.72262 10.5084 6.78099 10.6105 6.88405C10.7126 6.98711 10.7722 7.12689 10.7767 7.27416C10.7735 7.42168 10.7143 7.56202 10.6118 7.66502C10.5094 7.76802 10.3718 7.82546 10.2287 7.82499Z" fill="white"/>
<path d="M16.7518 7.82499C16.609 7.82314 16.4726 7.76369 16.3719 7.65939C16.2711 7.5551 16.214 7.41425 16.2128 7.26705C16.2187 7.11957 16.2798 6.98018 16.3832 6.87818C16.4867 6.77618 16.6245 6.7195 16.7677 6.72005C16.9057 6.72646 17.0362 6.78637 17.1332 6.8878C17.2302 6.98923 17.2865 7.12468 17.2907 7.26705C17.2911 7.34024 17.2774 7.41277 17.2505 7.48048C17.2235 7.54819 17.1839 7.60975 17.1338 7.6616C17.0837 7.71346 17.0242 7.75458 16.9586 7.78262C16.893 7.81066 16.8227 7.82506 16.7518 7.82499Z" fill="white"/>
<path d="M20.0101 7.82389C19.9393 7.82459 19.8691 7.81054 19.8037 7.78257C19.7383 7.7546 19.679 7.71331 19.6295 7.66115C19.58 7.60899 19.5411 7.54705 19.5154 7.47905C19.4896 7.41104 19.4775 7.33838 19.4796 7.26541C19.4806 7.1925 19.4957 7.12053 19.5238 7.05365C19.552 6.98677 19.5927 6.9263 19.6437 6.87575C19.6946 6.82519 19.7548 6.78555 19.8207 6.7591C19.8866 6.73266 19.9569 6.71995 20.0276 6.72169C20.1655 6.72788 20.296 6.78778 20.3927 6.88932C20.4894 6.99085 20.5451 7.12644 20.5486 7.26869C20.5489 7.3417 20.5352 7.41406 20.5083 7.48158C20.4814 7.54911 20.4417 7.61046 20.3916 7.66209C20.3416 7.71372 20.2821 7.7546 20.2166 7.78238C20.1511 7.81015 20.0809 7.82426 20.0101 7.82389Z" fill="white"/>
<path d="M7.50825 10.6371C7.50646 10.7843 7.4488 10.925 7.34765 11.0288C7.2465 11.1327 7.1099 11.1916 6.96714 11.1929C6.8241 11.1868 6.68892 11.1238 6.59 11.0171C6.49107 10.9104 6.4361 10.7683 6.43664 10.6207C6.44285 10.4784 6.50096 10.3438 6.59933 10.2438C6.6977 10.1438 6.82906 10.0858 6.96714 10.0814C7.03814 10.081 7.10852 10.095 7.17422 10.1228C7.23992 10.1505 7.29965 10.1914 7.34995 10.2431C7.40025 10.2947 7.44014 10.3561 7.46731 10.4238C7.49448 10.4914 7.5084 10.5639 7.50825 10.6371Z" fill="white"/>
<path d="M19.4796 10.6278C19.4806 10.5548 19.4956 10.4827 19.5237 10.4157C19.5518 10.3487 19.5924 10.2881 19.6433 10.2372C19.6942 10.1864 19.7542 10.1465 19.8201 10.1196C19.8859 10.0928 19.9563 10.0796 20.0271 10.0808C20.165 10.0874 20.2954 10.1474 20.3923 10.2488C20.4892 10.3502 20.5454 10.4856 20.5496 10.6278C20.5476 10.7753 20.4904 10.9162 20.39 11.0211C20.2895 11.126 20.1536 11.1868 20.0106 11.1907C19.8685 11.1867 19.7334 11.1257 19.6342 11.0205C19.535 10.9154 19.4796 10.7745 19.4796 10.6278Z" fill="white"/>
<path d="M12.3979 12.3241C12.3972 12.397 12.3823 12.469 12.3542 12.536C12.326 12.6029 12.2852 12.6633 12.2341 12.7137C12.183 12.7641 12.1226 12.8035 12.0566 12.8295C11.9905 12.8554 11.92 12.8676 11.8494 12.8651C11.711 12.8609 11.5795 12.8024 11.4817 12.7013C11.3839 12.6003 11.3274 12.4646 11.3236 12.3219C11.3271 12.1745 11.3851 12.034 11.4859 11.9294C11.5866 11.8247 11.7223 11.7638 11.8653 11.759C12.0083 11.7621 12.1444 11.8231 12.2441 11.9288C12.3438 12.0346 12.3991 12.1766 12.3979 12.3241Z" fill="white"/>
<path d="M15.6642 12.3219C15.6603 12.4697 15.6001 12.61 15.4967 12.7124C15.3932 12.8147 15.2548 12.871 15.1114 12.8689C15.0408 12.8675 14.9711 12.8516 14.9064 12.822C14.8418 12.7924 14.7836 12.7499 14.7351 12.6968C14.6867 12.6437 14.649 12.5811 14.6244 12.5128C14.5997 12.4445 14.5886 12.3718 14.5915 12.2989C14.5964 12.1563 14.6541 12.0211 14.7528 11.921C14.8515 11.821 14.9837 11.7638 15.122 11.7612C15.2647 11.7658 15.4003 11.8264 15.5011 11.9306C15.6019 12.0348 15.6602 12.1748 15.6642 12.3219Z" fill="white"/>
<path d="M8.07271 5.58064C8.07715 5.43361 8.1375 5.29428 8.24074 5.19275C8.34397 5.09122 8.48179 5.03564 8.62443 5.03801C8.76247 5.04762 8.89207 5.10995 8.98791 5.21282C9.08375 5.3157 9.13896 5.45171 9.14274 5.59431C9.14023 5.74164 9.08175 5.88207 8.97986 5.98539C8.87797 6.08871 8.74082 6.14667 8.59791 6.14679C8.5271 6.1461 8.45714 6.13081 8.39215 6.10181C8.32717 6.0728 8.26847 6.03067 8.21952 5.97791C8.17058 5.92514 8.13237 5.86281 8.10715 5.79458C8.08194 5.72635 8.07023 5.65361 8.07271 5.58064Z" fill="white"/>
<path d="M18.9141 5.60635C18.9131 5.67927 18.8979 5.75125 18.8696 5.81805C18.8412 5.88486 18.8001 5.94513 18.7488 5.99533C18.6975 6.04553 18.637 6.08464 18.5708 6.11037C18.5046 6.1361 18.4341 6.14793 18.3634 6.14515C18.2255 6.13946 18.0948 6.07968 17.9982 5.97801C17.9016 5.87634 17.8463 5.74047 17.8435 5.59815C17.847 5.45083 17.9054 5.31057 18.0066 5.20647C18.1077 5.10237 18.2439 5.04244 18.3868 5.03911C18.5291 5.04396 18.6639 5.10601 18.7625 5.212C18.861 5.318 18.9154 5.45953 18.9141 5.60635Z" fill="white"/>
<path d="M8.07271 8.96385C8.07048 8.89094 8.08261 8.81831 8.10835 8.75036C8.1341 8.68241 8.17294 8.62055 8.22252 8.56851C8.2721 8.51646 8.3314 8.47532 8.39683 8.44756C8.46226 8.4198 8.53247 8.406 8.60321 8.407C8.6739 8.40679 8.74392 8.42097 8.80928 8.44872C8.87463 8.47648 8.93403 8.51727 8.98406 8.56875C9.03408 8.62024 9.07376 8.68139 9.10081 8.74872C9.12786 8.81606 9.14175 8.88824 9.14167 8.96112C9.13691 9.10332 9.08049 9.23849 8.9836 9.33981C8.88671 9.44113 8.75643 9.50121 8.6186 9.50812C8.54804 9.50957 8.47789 9.49662 8.41221 9.47001C8.34652 9.4434 8.28658 9.40366 8.23585 9.35307C8.18511 9.30249 8.14458 9.24206 8.11658 9.17526C8.08859 9.10847 8.07368 9.03662 8.07271 8.96385Z" fill="white"/>
<path d="M18.373 8.40701C18.4438 8.40456 18.5144 8.41695 18.5804 8.44343C18.6465 8.4699 18.7066 8.50992 18.7573 8.56105C18.8079 8.61218 18.848 8.67336 18.875 8.74091C18.902 8.80845 18.9155 8.88095 18.9146 8.95401C18.915 9.02687 18.9014 9.09909 18.8746 9.16652C18.8479 9.23396 18.8085 9.29529 18.7587 9.34702C18.709 9.39874 18.6498 9.43983 18.5846 9.46795C18.5194 9.49606 18.4495 9.51065 18.3788 9.51086C18.2411 9.50624 18.1101 9.44837 18.0118 9.34876C17.9135 9.24915 17.8552 9.11507 17.8483 8.97316C17.8465 8.9004 17.8586 8.82799 17.884 8.76009C17.9094 8.69219 17.9476 8.63015 17.9964 8.57753C18.0452 8.52491 18.1035 8.48275 18.1682 8.45349C18.2328 8.42422 18.3024 8.40843 18.373 8.40701Z" fill="white"/>
<path d="M11.8722 8.40591C11.9429 8.40674 12.0127 8.42213 12.0775 8.45116C12.1423 8.4802 12.2009 8.5223 12.2497 8.57499C12.2985 8.62768 12.3366 8.6899 12.3618 8.75799C12.387 8.82609 12.3987 8.89868 12.3963 8.97151C12.3926 9.11416 12.3357 9.24983 12.2373 9.35022C12.139 9.45061 12.0068 9.50797 11.8685 9.51031C11.7255 9.50768 11.5891 9.44823 11.4877 9.34436C11.3863 9.2405 11.3277 9.10026 11.3242 8.95291C11.3272 8.8057 11.3865 8.66567 11.4891 8.56325C11.5917 8.46084 11.7294 8.40429 11.8722 8.40591Z" fill="white"/>
<path d="M15.1268 8.40646C15.2696 8.4079 15.4061 8.46745 15.5066 8.57215C15.607 8.67685 15.6633 8.81822 15.6632 8.96549C15.6575 9.10871 15.5998 9.24451 15.5016 9.34586C15.4033 9.44722 15.2716 9.5067 15.1327 9.5125C15.0619 9.51329 14.9917 9.49965 14.926 9.47236C14.8604 9.44507 14.8006 9.40466 14.7502 9.35347C14.6998 9.30227 14.6596 9.2413 14.6321 9.17406C14.6046 9.10682 14.5903 9.03464 14.59 8.96167C14.5882 8.8884 14.6009 8.81554 14.6272 8.74748C14.6536 8.67942 14.693 8.61756 14.7432 8.56567C14.7934 8.51377 14.8533 8.47291 14.9192 8.44554C14.9851 8.41818 15.0558 8.40488 15.1268 8.40646Z" fill="white"/>
<path d="M10.7762 10.6295C10.7804 10.9183 10.5231 11.1891 10.2403 11.194C10.0986 11.1908 9.96344 11.132 9.86224 11.0297C9.76103 10.9274 9.70142 10.7892 9.69552 10.6432C9.69756 10.4972 9.75364 10.3577 9.85227 10.253C9.95091 10.1483 10.0846 10.0866 10.226 10.0803C10.3681 10.0831 10.5038 10.1414 10.6059 10.2433C10.708 10.3452 10.7688 10.4832 10.7762 10.6295Z" fill="white"/>
<path d="M16.7618 11.194C16.6204 11.1905 16.4853 11.1324 16.3835 11.031C16.2817 10.9297 16.2206 10.7926 16.2122 10.647C16.2144 10.501 16.2705 10.3614 16.3691 10.2566C16.4676 10.1518 16.6013 10.0897 16.7427 10.083C16.8846 10.0843 17.0206 10.1418 17.1226 10.2436C17.2245 10.3455 17.2845 10.4838 17.2902 10.63C17.2875 10.7755 17.2315 10.9144 17.1335 11.019C17.0355 11.1236 16.9027 11.1861 16.7618 11.194Z" fill="white"/>
<path d="M8.07271 12.3049C8.07536 12.1574 8.13465 12.017 8.23758 11.9144C8.34051 11.8119 8.47867 11.7556 8.62178 11.7579C8.75984 11.7666 8.88978 11.8281 8.98615 11.9304C9.08252 12.0327 9.13836 12.1684 9.14274 12.311C9.14239 12.3839 9.1281 12.4561 9.10069 12.5234C9.07327 12.5906 9.03327 12.6516 8.98296 12.703C8.93266 12.7543 8.87304 12.7948 8.80752 12.8224C8.74199 12.8499 8.67185 12.8639 8.60109 12.8634C8.53049 12.8638 8.46055 12.8494 8.39543 12.8213C8.33031 12.7932 8.27134 12.7518 8.22204 12.6997C8.17274 12.6476 8.13411 12.5858 8.10846 12.518C8.0828 12.4502 8.07065 12.3777 8.07271 12.3049Z" fill="white"/>
<path d="M18.9141 12.3175C18.9146 12.3904 18.9009 12.4627 18.8738 12.53C18.8466 12.5974 18.8066 12.6584 18.7561 12.7094C18.7056 12.7605 18.6457 12.8005 18.5798 12.8272C18.514 12.8538 18.4437 12.8665 18.373 12.8645C18.2344 12.8628 18.1018 12.8058 18.0029 12.7056C17.904 12.6054 17.8466 12.4697 17.8425 12.3268C17.8433 12.1795 17.8993 12.0382 17.9987 11.9324C18.0982 11.8267 18.2334 11.7645 18.3762 11.759C18.5192 11.7601 18.656 11.8193 18.7568 11.924C18.8575 12.0286 18.9141 12.1701 18.9141 12.3175Z" fill="white"/>
</svg>
