<svg width="23" height="26" viewBox="0 0 23 26" fill="none"
  xmlns="http://www.w3.org/2000/svg">
  <path d="M22.8521 6.84266C22.6696 6.3356 22.4576 5.80826 22.0696 5.42716C20.828 4.20701 19.7744 3.25693 18.7667 2.43816C18.1524 1.94071 17.9185 1.43151 17.9557 0.678927L17.9655 0.497458L17.4846 0H16.6245C16.4641 0.0008887 16.3095 0.0582906 16.189 0.161649C16.0685 0.265008 15.9903 0.407377 15.9687 0.562574C15.7774 2.00049 16.3283 3.16834 17.6081 4.03515L17.6311 4.0501C17.8165 4.16859 17.9916 4.30176 18.1546 4.44827C18.3918 4.67672 18.6366 4.90409 18.8738 5.12399C19.5254 5.70876 20.1428 6.32889 20.7231 6.98144C21.0957 7.41805 21.1176 7.5739 20.4837 8.09804C19.9372 8.55066 19.2519 9.11431 18.6956 9.74627C18.0759 10.4497 18.065 11.2973 18.6639 12.1321C18.8027 12.3253 19.0913 12.7278 19.0705 12.889C19.053 13.0288 18.7688 13.2797 18.4934 13.506C18.1502 13.7889 17.9655 14.1017 17.9469 14.4347C17.9284 14.7678 18.0759 15.1104 18.3929 15.4424C18.4726 15.5273 18.5457 15.618 18.6115 15.7136C17.2059 16.5558 16.9283 17.2444 17.2551 18.9396C17.3334 19.3886 17.3448 19.8463 17.289 20.2985C17.23 20.8482 16.972 21.5314 16.0867 21.6585C15.2943 21.7727 14.385 21.8784 13.6177 21.6894C12.1969 21.3404 10.7761 20.8632 9.40658 20.401C9.04227 20.2771 8.67795 20.1547 8.31363 20.0337C7.89885 19.8847 7.49684 19.7037 7.11138 19.4925L6.99006 19.4306C5.04678 18.4346 3.18548 16.9957 1.12963 14.8991C1.03022 14.7981 0.899637 14.7317 0.757895 14.7101C0.616153 14.6885 0.471068 14.7129 0.344881 14.7795C0.218169 14.8462 0.117421 14.9517 0.0581673 15.0797C-0.00108674 15.2078 -0.0155567 15.3514 0.0169946 15.4883C0.21482 16.3615 0.740536 17.2209 1.57883 18.0429C2.72425 19.1659 4.11121 20.0967 6.07634 21.0607C5.26646 21.4877 4.48937 21.7087 3.84999 21.8901C2.56686 22.2541 1.35587 22.5979 1.84661 24.4457C1.87768 24.5657 1.94365 24.6743 2.03656 24.7584C2.12946 24.8425 2.24532 24.8985 2.37013 24.9197C2.40915 24.926 2.44863 24.9292 2.48817 24.9293C2.59576 24.93 2.70189 24.9049 2.79719 24.8561C2.89249 24.8074 2.97404 24.7364 3.03465 24.6496C3.06156 24.6091 3.09152 24.5705 3.12427 24.5343C4.191 24.0401 5.64463 23.4572 5.80529 23.3932C5.83178 23.3824 5.85768 23.3703 5.88289 23.3569C5.98126 23.3024 8.30489 22.031 9.89404 22.6555C11.5007 23.2875 13.2549 23.8639 15.196 23.8074C17.1371 23.7508 18.5656 22.8648 19.1077 21.3788C19.4476 20.4458 19.4793 19.4263 19.2027 18.3482C19.0519 17.7578 19.1601 17.6479 19.5383 17.46C20.1416 17.1568 20.5362 16.733 20.6782 16.2324C20.8203 15.7317 20.7056 15.1649 20.3504 14.6012L20.3405 14.5842C21.8182 13.0566 20.8072 11.5546 20.2902 10.9024L20.3799 10.8159C20.6334 10.5704 20.8728 10.3377 21.1187 10.121C21.2783 9.98005 21.4466 9.84768 21.6215 9.70784C21.8841 9.50768 22.1354 9.29387 22.3745 9.06734C22.6683 8.78285 22.8701 8.42042 22.955 8.02498C23.0399 7.62953 23.0041 7.21844 22.8521 6.84266Z" fill="white"/>
  <path d="M8.09613 13.2733C8.11143 13.3683 8.20542 13.443 8.29614 13.5156C8.3333 13.5455 8.36937 13.5733 8.39888 13.6021L13.4155 18.4998C13.4997 18.582 13.5817 18.6684 13.6855 18.7794L13.8243 18.9268C13.7238 18.9268 13.632 18.9171 13.5478 18.9118C13.3226 18.8969 13.1445 18.8851 13.0013 18.9513C12.7827 19.0517 12.4701 19.3217 12.4723 19.5342C12.4745 19.7466 12.8101 20.0679 13.0341 20.085C13.4002 20.1149 13.7762 20.1288 14.1588 20.1288C14.5413 20.1288 14.9337 20.1138 15.3282 20.085C15.5403 20.069 15.866 19.7647 15.8813 19.5641C15.9419 18.8005 15.9419 18.0335 15.8813 17.27C15.8638 17.0565 15.5129 16.7779 15.2889 16.7501C15.1118 16.7288 14.8287 17.0383 14.7424 17.2529C14.6801 17.4034 14.691 17.5732 14.7052 17.7973C14.7107 17.8774 14.7162 17.966 14.7183 18.061L14.5577 17.9158C14.4331 17.8091 14.3391 17.7237 14.2549 17.6383C13.4964 16.8974 12.7394 16.1566 11.9838 15.4158L10.3607 13.8284C10.2383 13.7078 10.117 13.585 9.99569 13.4622C9.66822 13.1177 9.31927 12.7933 8.95082 12.4908C8.77267 12.351 8.30051 12.3552 8.14859 12.4983C7.99667 12.6413 8.05897 12.9915 8.1005 13.2519L8.09613 13.2733Z" fill="white"/>
  <path d="M15.8681 24.7585C15.6157 24.7831 15.3413 24.8033 15.0036 24.8236C14.5927 24.8492 14.3795 25.0574 14.3883 25.4278C14.397 25.7982 14.62 25.9893 15.0364 26H15.3391C15.432 25.9936 15.5162 25.9904 15.5949 25.9861C15.7371 25.982 15.8791 25.9706 16.0201 25.952C16.4572 25.8847 16.6835 25.6381 16.6321 25.2741C16.5807 24.9101 16.3053 24.7179 15.8681 24.7585Z" fill="white"/>
  <path d="M21.1253 20.8878C21.0748 20.8475 21.0146 20.8206 20.9504 20.8098C20.825 20.8078 20.701 20.8349 20.5885 20.8889C20.476 20.9429 20.3782 21.0223 20.3034 21.1205C20.0996 21.46 19.9648 21.8348 19.9066 22.2243C19.8782 22.4239 20.0684 22.758 20.252 22.8402C20.3051 22.8595 20.3615 22.8686 20.4181 22.8669C20.617 22.8669 20.8739 22.7858 20.9493 22.6609C21.1125 22.3681 21.2465 22.0607 21.3493 21.7428L21.3592 21.7151C21.4132 21.5705 21.4198 21.4131 21.3778 21.2648C21.3359 21.1165 21.2476 20.9847 21.1253 20.8878Z" fill="white"/>
  <path d="M19.5044 23.723C19.4 23.6559 19.282 23.6116 19.1584 23.5931C19.0349 23.5747 18.9087 23.5826 18.7885 23.6163C18.447 23.7546 18.1355 23.9549 17.8704 24.2066C17.7906 24.291 17.731 24.3917 17.6958 24.5013C17.6606 24.611 17.6509 24.7269 17.6671 24.8407C17.6806 24.8923 17.706 24.9401 17.7415 24.9805C17.804 25.0562 17.8833 25.1169 17.9735 25.1582C18.0636 25.1994 18.1622 25.2201 18.2617 25.2186C18.42 25.2174 18.5736 25.1657 18.6989 25.0713C19.0137 24.8413 19.3151 24.5944 19.6017 24.3315C19.6482 24.2607 19.6658 24.1753 19.6509 24.0924C19.6421 23.9547 19.5907 23.7817 19.5044 23.723Z" fill="white"/>
  <path d="M21.5876 18.9107C21.5876 18.8712 21.581 18.8328 21.5788 18.7944C21.5723 18.71 21.5657 18.6225 21.5515 18.5371C21.4805 18.1026 21.2335 17.8966 20.8531 17.95C20.4728 18.0034 20.2782 18.2777 20.3176 18.6972C20.323 18.7506 20.3307 18.804 20.3383 18.8552C20.346 18.9065 20.3547 18.962 20.3591 19.0132C20.4006 19.4669 20.5963 19.6879 20.9537 19.6879H21.0335C21.4411 19.6537 21.6226 19.4018 21.5876 18.9161V18.9107Z" fill="white"/>
  <path d="M12.1652 24.4948C11.74 24.4863 11.5029 24.7008 11.4919 25.1033C11.4832 25.4235 11.8056 25.6691 12.3554 25.7545C12.401 25.7612 12.447 25.7648 12.4931 25.7651C12.6369 25.7675 12.7787 25.7315 12.9031 25.6609C13.0276 25.5904 13.1299 25.488 13.1991 25.3648C13.226 25.3159 13.2456 25.2634 13.2571 25.209C13.2707 25.1436 13.2692 25.0761 13.2525 25.0115C13.2359 24.9468 13.2045 24.8866 13.1609 24.8354C12.9915 24.6304 12.6286 24.5066 12.1652 24.4948Z" fill="white"/>
</svg>
