<svg width="16" height="18" viewBox="0 0 16 18" fill="none" xmlns="http://www.w3.org/2000/svg">
<path d="M0.00112379 10.4315C0.00112379 8.87252 0.00112379 7.31405 0.00112379 5.75605C0.00112379 4.07923 1.25544 2.86151 3.02484 2.84955C5.3504 2.83409 7.67596 2.83409 10.0015 2.84955C11.762 2.86221 13.0149 4.04899 13.023 5.71949C13.0384 8.85986 13.0384 12.0002 13.023 15.1406C13.0134 16.816 11.7212 17.9951 9.94734 17.9979C7.64652 18.0007 5.3457 18.0007 3.04488 17.9979C1.29181 17.9979 0.00557772 16.7724 0.00186672 15.1076C-0.00184428 13.5482 0.00112379 11.9902 0.00112379 10.4315ZM11.5416 10.4047C11.5416 8.86924 11.546 7.33444 11.5416 5.79964C11.5379 4.80831 10.953 4.2578 9.90207 4.25288C7.63885 4.24773 5.37539 4.24773 3.11168 4.25288C2.0726 4.25288 1.48998 4.82518 1.48998 5.8144C1.48998 8.884 1.48998 11.9541 1.48998 15.0246C1.48998 16.023 2.08893 16.5868 3.14879 16.5875C5.37539 16.5875 7.60199 16.5875 9.82859 16.5875C10.9656 16.5875 11.5408 16.0469 11.5431 14.9705C11.5446 13.45 11.5441 11.9281 11.5416 10.4047Z" fill="white"/>
<path d="M15.9978 8.00446C15.9978 9.71479 15.9978 11.4256 15.9978 13.1369C16.0026 13.2779 15.9947 13.419 15.974 13.5587C15.9459 13.7222 15.8562 13.8705 15.7215 13.9761C15.5868 14.0817 15.4162 14.1375 15.2414 14.1331C15.0732 14.1321 14.9107 14.0753 14.7822 13.9725C14.6536 13.8698 14.5672 13.7276 14.5378 13.5707C14.5154 13.42 14.5067 13.2678 14.5119 13.1158C14.5119 9.77666 14.5119 6.43755 14.5119 3.09844C14.5119 1.92431 13.9664 1.41107 12.7232 1.41107H5.07851C4.95479 1.41603 4.83087 1.41391 4.70741 1.40474C4.52719 1.38648 4.36051 1.30557 4.2396 1.17766C4.11869 1.04975 4.05213 0.883914 4.05279 0.712218C4.04943 0.540207 4.11351 0.373126 4.23264 0.243267C4.35177 0.113409 4.51749 0.0299933 4.69776 0.00914823C4.80882 0.000116414 4.92038 -0.00223015 5.03175 0.00211925C7.64133 0.00211925 10.2509 0.00211925 12.8605 0.00211925C14.7249 0.00211925 15.9874 1.18398 15.9963 2.94658C16.0037 4.62973 15.9978 6.31709 15.9978 8.00446Z" fill="white"/>
</svg>
