<svg width="20" height="15" viewBox="0 0 20 15" fill="none" xmlns="http://www.w3.org/2000/svg">
<path d="M15.4741 12.4998L15.0658 12.1934C11.7019 13.5977 8.34018 13.6999 4.95031 12.1934L4.55131 12.4886C4.86384 12.6581 5.13157 12.8083 5.40243 12.9421C5.67329 13.0758 5.93164 13.1831 6.24834 13.325L5.17949 15C3.35433 14.4637 1.6383 13.6201 0.108222 12.507C-0.130032 10.5219 0.0259766 8.51034 0.567637 6.58338C1.06566 4.81039 1.85487 3.12875 2.9043 1.60448C2.99056 1.46076 3.11961 1.34636 3.27412 1.27664C4.54402 0.841561 5.82226 0.42793 7.11508 0.00102231L7.69533 1.07033H12.3124L12.8843 0C14.1813 0.427929 15.472 0.850749 16.7576 1.28583C16.8836 1.33825 16.9904 1.42693 17.0639 1.54014C19.2963 4.8451 20.3225 8.45544 19.911 12.4253C19.904 12.4603 19.8936 12.4945 19.8797 12.5274C18.3596 13.6388 16.6498 14.4761 14.8303 15L13.7698 13.3475L15.4741 12.4998ZM8.46728 8.25935C8.45582 7.15837 7.64533 6.31068 6.62337 6.33315C5.65453 6.3546 4.87843 7.24416 4.89197 8.31858C4.90551 9.393 5.71287 10.2642 6.68275 10.2468C7.69846 10.2325 8.47769 9.3644 8.46728 8.25935ZM15.1158 8.2716C15.1158 7.19003 14.3219 6.33111 13.325 6.33111C12.328 6.33111 11.5436 7.19412 11.5436 8.2716C11.5436 9.37053 12.3082 10.2223 13.3042 10.2356C14.3001 10.2489 15.1179 9.38279 15.1158 8.27569V8.2716Z" fill="white"/>
</svg>
