<svg width="22" height="28" viewBox="0 0 22 28" fill="none" xmlns="http://www.w3.org/2000/svg">
<path d="M13.0262 25.0906C11.6988 25.5658 10.323 25.5328 8.97982 25.0906C8.69502 25.9484 8.44642 26.7683 8.14472 27.5654C8.07472 27.7479 7.82129 27.8543 7.65234 27.9962C7.63303 27.7618 7.55218 27.5084 7.60648 27.2929C7.79233 26.563 8.03852 25.8496 8.22799 25.121C8.26419 24.9841 8.19299 24.7218 8.09041 24.6559C5.67681 23.0972 4.5762 20.6275 3.8666 17.9043C3.33078 15.8539 3.09063 13.7707 3.49129 11.4935C2.97099 12.0126 2.62468 12.6945 2.50413 13.4374C2.46551 13.6401 2.27483 13.8176 2.15415 13.9988C2.06485 13.7783 1.879 13.5438 1.90435 13.3373C2.05882 12.0929 2.69601 11.1197 3.66748 10.443C4.34188 9.98817 5.05834 9.60607 5.80593 9.30254C8.17489 8.29892 10.0418 6.75293 11.0531 4.20966C11.1147 4.05253 11.3572 3.97396 11.5153 3.85865C11.5491 4.05887 11.6782 4.32118 11.6022 4.4479C11.1883 5.13979 11.5274 5.54782 12.0041 5.9812C13.1662 7.04058 14.5215 7.68178 15.9672 8.18106C16.7806 8.46111 17.6036 8.78932 18.3265 9.26071C19.6817 10.1478 20.1162 11.3934 19.7192 13.0218C19.5719 13.6262 19.3752 14.2623 19.0349 14.7578C18.5522 15.4687 18.3675 16.2645 18.1129 17.0603C17.6362 18.5543 17.1475 20.0509 16.5296 21.4854C15.9803 22.7446 15.1014 23.8139 13.9953 24.5685C13.9171 24.6454 13.8576 24.7409 13.8219 24.847C13.7862 24.953 13.7753 25.0666 13.7901 25.178C13.9736 25.9079 14.2403 26.615 14.4346 27.3424C14.4865 27.5337 14.3911 27.7681 14.3634 27.9836C14.2041 27.8644 13.9591 27.7795 13.8975 27.6186C13.5898 26.8051 13.3243 25.9687 13.0262 25.0906ZM18.1684 9.87403L18.1455 9.89939L18.1817 9.88291C18.1511 9.97838 18.1368 10.0788 18.1395 10.1794C18.3808 11.3579 18.6282 12.5326 18.8635 13.663C18.895 13.6144 18.9209 13.562 18.9408 13.5071C19.4271 12.1208 19.3306 10.87 18.1684 9.87403ZM16.5622 19.8418C16.6828 19.4249 16.8156 19.0131 16.9025 18.5898C16.9483 18.3617 16.8096 18.0196 16.923 17.8903C17.4624 17.2719 17.594 16.5078 17.7967 15.7424C18.3506 13.6478 18.1081 11.6469 17.2488 9.71184C17.1094 9.42016 16.8708 9.19405 16.5803 9.07824C14.5058 8.4231 12.5158 7.61843 10.9892 5.82788C9.73649 7.82878 8.04093 9.11499 5.99661 9.92853C5.58509 10.092 5.15185 10.239 4.78981 10.4823C4.52852 10.6504 4.33067 10.9083 4.22985 11.2122C3.91246 12.5276 3.72299 13.8594 4.13934 15.2013C4.19123 15.3648 4.14899 15.5612 4.1502 15.7412C4.1502 16.1289 3.97522 16.5306 4.57379 16.727C4.82119 16.8069 4.93583 17.3695 5.06496 17.7332C5.07944 17.7763 4.75964 17.9461 4.55086 18.0867C5.06013 19.9381 5.818 21.7616 7.25168 23.1809C9.24653 25.1628 12.2309 25.3351 14.2306 23.575C15.3638 22.5739 16.1024 21.2814 16.5851 19.8203L16.5622 19.8418Z" fill="white"/>
<path d="M0.675821 12.6188C0.694682 14.5437 1.06119 16.4473 1.75591 18.2287C2.86738 21.1306 3.02305 24.0857 2.08416 27.0788C2.02865 27.2588 1.99968 27.4679 1.89107 27.6047C1.76194 27.7669 1.5592 27.8582 1.38905 27.9849C1.3637 27.7809 1.26836 27.5502 1.32508 27.3804C1.80019 26.0543 2.05016 24.6509 2.06364 23.2341C2.07571 21.4601 1.65575 19.7798 1.06079 18.1248C-0.459779 13.8974 -0.4284 9.70174 1.72695 5.72781C3.8823 1.75388 7.25652 -0.258432 11.6227 0.0254204C16.3425 0.328281 19.4778 3.08191 21.1311 7.65523C22.3814 11.1121 22.2559 14.6248 20.9658 18.0462C19.7928 21.1585 19.5478 24.2555 20.6943 27.4235C20.751 27.5768 20.6158 27.8037 20.5736 28.0013C20.4107 27.8543 20.1645 27.7479 20.0969 27.5553C19.225 25.2187 19.0693 22.6547 19.6516 20.2207C19.8596 19.4073 20.1089 18.6061 20.3986 17.8207C21.7659 13.8303 21.7816 9.87661 19.7747 6.13584C17.6229 2.1277 14.2342 0.238308 9.86683 0.736316C5.58147 1.22545 2.82031 3.91191 1.41198 8.08606C0.929254 9.51673 0.798913 11.0767 0.508074 12.5783L0.675821 12.6188Z" fill="white"/>
<path d="M11.0121 22.1975C10.1601 22.1621 9.43479 21.9036 8.88931 21.2395C8.78311 21.1128 8.67933 20.8923 8.71192 20.7491C8.73726 20.6402 8.97017 20.5451 9.12464 20.5122C9.77993 20.3677 10.4401 20.1472 11.0978 20.151C11.7772 20.151 12.4675 20.3424 13.1288 20.54C13.4908 20.6478 13.3484 20.9696 13.1638 21.199C12.5906 21.9061 11.8255 22.1582 11.0121 22.1975ZM12.3106 21.0824C11.4055 20.5755 10.352 20.6085 9.74132 21.1318C10.5245 21.6755 11.4707 21.6717 12.3106 21.0799V21.0824Z" fill="white"/>
<path d="M15.5738 13.7162C15.3771 14.1889 15.0537 14.6526 14.3863 14.645C13.7479 14.6374 13.439 14.1825 13.206 13.6566C13.1628 13.6452 13.1189 13.6371 13.0745 13.6326C12.8331 13.6326 12.5833 13.6326 12.3371 13.6326C12.5158 13.4222 12.6557 13.1155 12.879 13.018C13.8444 12.5973 14.8401 12.6378 15.8224 12.9483C16.1132 13.0408 16.5875 13.075 16.4403 13.5819C16.4077 13.6896 15.9503 13.663 15.5738 13.7162ZM13.9229 13.3994C13.8903 13.4678 13.8589 13.535 13.8275 13.6034C14.0206 13.7301 14.2222 13.9836 14.4032 13.962C14.6132 13.943 14.8051 13.6947 15.0066 13.5464L14.9185 13.3994H13.9229Z" fill="white"/>
<path d="M6.44916 13.758L5.53682 13.5451C5.76973 13.3335 5.97247 13.0154 6.2428 12.9293C7.19858 12.6239 8.18092 12.5896 9.12223 13.0002C9.34911 13.0991 9.49754 13.3943 9.68218 13.6009L8.79398 13.7694C7.86836 15.0277 7.21307 15.0239 6.44916 13.758ZM7.11532 13.4032L7.03325 13.6186C7.25048 13.7453 7.4677 13.9633 7.68372 13.9607C7.85991 13.9607 8.03128 13.687 8.20506 13.5362L8.11334 13.4095L7.11532 13.4032Z" fill="white"/>
<path d="M6.07385 11.6126C6.74603 11.5011 7.41702 11.3871 8.08921 11.2806C8.7614 11.1742 9.32859 11.3795 9.74735 11.932C9.85114 12.0701 9.8101 12.3286 9.83665 12.5314C9.66649 12.4857 9.43479 12.4984 9.33704 12.3844C8.95569 11.9358 8.50797 11.8597 7.97456 11.956C7.34637 12.083 6.7104 12.163 6.07143 12.1955C5.81076 12.2031 5.54406 11.9674 5.28098 11.842L6.00506 11.434L6.07385 11.6126Z" fill="white"/>
<path d="M15.6233 12.2386C15.0923 12.1499 14.5154 12.0701 13.9446 11.9522C13.4076 11.842 12.9635 11.9522 12.5809 12.3882C12.4856 12.4997 12.2527 12.4807 12.0825 12.5149C12.0982 12.3311 12.0511 12.0967 12.1404 11.9725C12.5471 11.4099 13.1059 11.1792 13.7817 11.2527C14.6156 11.344 15.4519 11.4162 16.2846 11.5214C16.4137 11.5379 16.526 11.6861 16.6466 11.7748C16.5404 11.9015 16.456 12.0891 16.3232 12.1411C16.1253 12.2234 15.8924 12.2095 15.6233 12.2386Z" fill="white"/>
<path d="M10.9819 19.0181C10.4642 18.989 10.0309 18.7989 9.88251 18.2325C9.84269 18.0766 9.95975 17.8764 10.0032 17.6965C10.1432 17.775 10.3314 17.8156 10.4147 17.9359C10.813 18.5113 11.1605 18.4986 11.595 17.9017C11.677 17.7902 11.8786 17.775 12.0246 17.7142C12.0692 17.8599 12.1682 18.0145 12.1453 18.1501C12.0704 18.6722 11.572 19.027 10.9819 19.0181Z" fill="white"/>
<path d="M10.9602 9.57879C10.8202 9.57879 10.6657 9.61554 10.5426 9.56739C10.4195 9.51923 10.2952 9.38743 10.2916 9.28732C10.3028 9.22077 10.3285 9.15783 10.3666 9.10334C10.4047 9.04885 10.4542 9.00427 10.5113 8.97306C10.6404 8.91161 10.7856 8.89865 10.9228 8.93632C11.1991 9.01742 11.4634 9.14414 11.7325 9.25185L11.0314 9.70551L10.9602 9.57879Z" fill="white"/>
<path d="M15.2721 21.3865C14.8751 21.7236 14.5794 21.9821 14.2668 22.214C14.1655 22.1258 14.0744 22.0254 13.9953 21.915C14.252 21.6144 14.5277 21.3324 14.8207 21.071C14.8497 21.0457 15.038 21.2205 15.2721 21.3865Z" fill="white"/>
<path d="M5.89403 20.1802L5.24719 18.8965C5.37752 18.8319 5.59837 18.6849 5.62129 18.714C5.86042 19.0074 6.0737 19.3229 6.25849 19.6568C6.28624 19.7075 6.1004 19.8849 5.89403 20.1802Z" fill="white"/>
<path d="M6.91016 20.3614C7.20703 20.7884 7.43271 21.1128 7.65717 21.4397C7.66042 21.4495 7.66124 21.46 7.65955 21.4702C7.65786 21.4804 7.65372 21.49 7.64752 21.498C7.52684 21.5791 7.32289 21.7439 7.29875 21.7185C7.03452 21.4443 6.79234 21.1476 6.57467 20.8315C6.55174 20.8011 6.73276 20.6097 6.91016 20.3614Z" fill="white"/>
<path d="M16.5803 19.8215C16.4654 19.95 16.3384 20.0659 16.2013 20.1675C16.001 20.2725 15.7946 20.3644 15.5834 20.4425C15.6305 20.2118 15.6727 19.9799 15.7283 19.7506C15.7474 19.6907 15.7847 19.6391 15.8345 19.6036C15.9853 19.4921 16.1434 19.3907 16.2979 19.2855C16.3848 19.4705 16.4717 19.6568 16.5597 19.8418L16.5803 19.8215Z" fill="white"/>
<path d="M9.04741 23.4242L8.13506 22.5245C8.2321 22.403 8.33694 22.2887 8.44883 22.1823C8.7548 22.4194 9.04436 22.679 9.31532 22.9591C9.33704 22.9807 9.18378 23.1898 9.04741 23.4242Z" fill="white"/>
<path d="M13.4872 22.9211C13.3084 23.0948 13.1144 23.2504 12.908 23.3862C12.7189 23.4641 12.5184 23.507 12.3154 23.5129C12.2828 23.5129 12.1887 23.3469 12.2032 23.3279C12.3685 23.1226 12.5254 22.8907 12.7354 22.75C12.8899 22.6461 13.1192 22.6537 13.3171 22.6385C13.3521 22.6411 13.3967 22.7678 13.4872 22.9211Z" fill="white"/>
<path d="M12.418 15.4459L11.9558 15.7817C11.7857 15.5037 11.6364 15.2122 11.5093 14.9099C11.4815 14.8288 11.6867 14.6565 11.7844 14.5297L12.418 15.4459Z" fill="white"/>
<path d="M10.8299 24.1845L10.0503 23.6155C10.1951 23.5129 10.3882 23.2911 10.4738 23.3304C10.7731 23.4647 11.2824 23.1479 11.3548 23.7106C11.3693 23.8272 11.0616 23.9843 10.8299 24.1845Z" fill="white"/>
<path d="M10.6319 14.9378L10.0285 15.7842C9.92475 15.6651 9.70994 15.4941 9.73528 15.432C9.8802 15.1216 10.0443 14.8215 10.2264 14.5335L10.6319 14.9378Z" fill="white"/>
<path d="M9.80648 16.85C9.48185 17.1756 9.23446 17.4291 8.97138 17.661C8.86834 17.5758 8.77661 17.4765 8.69864 17.3657C8.89982 17.0745 9.12256 16.8003 9.36479 16.5458C9.38531 16.5256 9.58685 16.6966 9.80648 16.85Z" fill="white"/>
<path d="M13.4619 17.3201C13.3325 17.4437 13.195 17.5576 13.0504 17.661C12.8002 17.414 12.5686 17.1471 12.3577 16.8626C12.3408 16.8373 12.529 16.6459 12.622 16.5319L13.4619 17.3201Z" fill="white"/>
<path d="M15.0561 18.6975C14.8883 18.7394 14.682 18.8674 14.5625 18.8065C14.3079 18.6798 14.1003 18.4492 13.8734 18.2616C14.0098 18.1843 14.1727 18.0082 14.2765 18.0475C14.5624 18.1599 14.839 18.2973 15.1031 18.4581L15.0561 18.6975Z" fill="white"/>
<path d="M7.35185 18.9903L6.95361 18.548C7.23495 18.3551 7.52623 18.1787 7.82612 18.0196C7.87319 17.9968 8.02404 18.2071 8.12662 18.311L7.35185 18.9903Z" fill="white"/>
<path d="M9.757 9.70676C9.41548 9.97668 9.20308 10.1794 8.9569 10.315C8.90621 10.3429 8.73002 10.1173 8.61175 10.0096C8.81564 9.80013 9.03385 9.60657 9.26463 9.43051C9.31894 9.39376 9.49392 9.54836 9.757 9.70676Z" fill="white"/>
<path d="M13.0359 10.4759L12.4252 9.71563C12.5459 9.61678 12.745 9.41277 12.774 9.43685C12.9947 9.62272 13.1936 9.8354 13.3665 10.0704C13.3822 10.0907 13.1964 10.2808 13.0359 10.4759Z" fill="white"/>
</svg>
