<svg width="26" height="19" viewBox="0 0 26 19" fill="none" xmlns="http://www.w3.org/2000/svg">
<path d="M0 9.50691C1.83756 6.34912 4.03449 3.56537 7.14224 1.75504C11.6565 -0.870686 16.0512 -0.495716 20.276 2.51526C22.5995 4.1713 24.3857 6.38278 25.8524 8.87386C26.0295 9.18056 26.0569 9.80052 25.8816 10.096C24.0759 13.1481 21.8339 15.7514 18.7854 17.4757C17.4635 18.2309 16.02 18.7195 14.5288 18.9167C12.9812 19.1079 11.4131 18.9692 9.91717 18.509C8.65934 18.1291 7.46366 17.5489 6.37127 16.7884C3.67512 14.9435 1.65699 12.4104 0 9.50691ZM7.46443 7.4067C7.29271 7.31319 7.11037 7.12618 6.99176 7.16826C6.90339 7.20754 6.82392 7.26619 6.75861 7.34035C6.6933 7.4145 6.64364 7.50245 6.61292 7.5984C6.21472 9.01394 6.25973 10.5275 6.74127 11.9138C7.90523 15.4054 11.4883 17.3934 14.8696 16.4284C18.3021 15.4494 20.4522 11.8624 19.8007 8.19966C19.0705 4.10118 15.0997 1.47451 11.3538 2.61065C11.082 2.69293 10.8059 2.79766 10.8935 3.16048C10.9811 3.52329 11.2475 3.48589 11.5388 3.43165C12.0698 3.3316 12.616 3.21845 13.1559 3.21377C16.1831 3.18852 18.7624 5.645 19.0864 8.81682C19.2468 10.3831 18.8486 11.9563 17.9696 13.229C17.0906 14.5017 15.794 15.3824 14.3332 15.6991C11.3237 16.3536 8.31417 14.4675 7.41575 11.3864C7.04045 10.0969 7.08116 8.80933 7.46797 7.4067H7.46443ZM13.1294 7.51704C12.8788 7.51729 12.6307 7.56972 12.3993 7.67135C12.1678 7.77297 11.9577 7.92179 11.7808 8.10929C11.6038 8.2968 11.4637 8.51932 11.3682 8.7641C11.2728 9.00889 11.2239 9.27115 11.2245 9.53589C11.2353 10.0624 11.4396 10.5637 11.7941 10.9339C12.1486 11.3041 12.6256 11.514 13.124 11.5192C13.6301 11.5153 14.1142 11.3003 14.4709 10.9212C14.8277 10.542 15.0282 10.0294 15.0289 9.49476C15.0199 8.96933 14.8169 8.46842 14.4631 8.09893C14.1094 7.72944 13.633 7.52062 13.1356 7.51704H13.1294ZM9.76138 8.63261C9.76138 6.89241 10.5102 5.98444 12.2123 5.95171C10.5031 5.92085 9.76492 4.98764 9.80652 3.46251C9.61179 3.98429 9.51354 4.76415 9.09841 5.2158C8.68327 5.66744 7.94772 5.78433 7.38477 6.03587C9.00901 5.94891 9.7065 6.92888 9.76758 8.63261H9.76138Z" fill="white"/>
</svg>
