<svg width="22" height="27" viewBox="0 0 22 27" fill="none" xmlns="http://www.w3.org/2000/svg">
<path d="M18.4118 22.3663V22.3551L18.3991 22.3364L18.4088 22.3626L18.4118 22.3663Z" fill="white"/>
<path d="M10.3916 8.94567L10.414 8.96885L10.4596 8.91948L10.4402 8.90003L10.3916 8.94567Z" fill="white"/>
<path d="M21.6578 14.8668C21.5388 14.0065 20.9688 13.4619 20.0868 13.227C20.6299 12.2545 20.8251 11.2393 20.9231 10.2391V10.2331C20.9613 10.1643 20.9538 9.87853 21.0017 9.85908L20.8154 9.23293C20.9451 8.9039 21.0187 8.55544 21.0331 8.20206C21.0518 7.76743 21.0204 7.33054 21.0174 6.89366C21.0129 6.2518 20.793 5.67727 20.3479 5.23739C19.9028 4.79752 19.3813 4.43245 18.8913 4.03298C18.7417 3.65893 18.622 3.2228 18.4036 2.84426C18.0393 2.21138 17.4535 1.78946 16.8146 1.46554C14.2943 0.185563 11.6184 -0.271519 8.83256 0.155639C6.32123 0.540156 4.02759 1.52688 1.93444 2.97069C1.87835 3.01875 1.82677 3.07183 1.78034 3.12929L3.18749 3.57141C1.6397 5.01821 0.950712 6.78818 0.739751 8.85365L1.50504 8.49082C1.56115 10.1209 1.61426 11.6717 1.66813 13.2285C0.401614 13.589 -0.0188096 14.5107 0.000640713 15.665C0.0298161 17.4477 0.764438 18.8309 2.42744 19.6388C2.64139 20.3278 2.82691 21.04 3.08201 21.7252C3.50693 22.8653 4.07098 23.9096 5.08614 24.6286C5.16618 24.6847 5.24772 24.74 5.33375 24.7924C6.69051 25.6339 8.14284 26.3104 9.65994 26.8077C10.0469 26.9321 10.4505 26.9969 10.8569 27H10.9003C11.4926 26.9945 12.0777 26.8698 12.6209 26.6334C12.6673 26.6132 12.7129 26.59 12.7578 26.5654C13.0129 26.4711 13.2657 26.3724 13.5163 26.2661L13.5268 26.2811L13.954 26.0769C14.2771 25.9317 14.5966 25.7781 14.9123 25.616L15.3813 25.3916C16.7398 24.7325 17.838 23.8132 18.4058 22.3641L18.3729 22.3693C18.4156 22.2743 18.4559 22.1786 18.4956 22.0821L18.5629 22.0312L18.5293 21.9998C18.5599 21.925 18.5891 21.8502 18.6183 21.7701L18.6549 21.8202L18.8614 21.1313L18.836 21.1455C18.8622 21.0632 18.8883 20.9801 18.9108 20.8978L18.9706 20.8545C19.0903 20.4116 19.1996 20.0099 19.3028 19.6283C19.3454 19.6074 19.3873 19.5857 19.4292 19.564C20.6718 19.0097 21.3346 17.999 21.6181 16.7467C21.7632 16.1475 21.743 15.4832 21.6578 14.8668ZM19.5085 18.4464C19.3865 18.524 19.2543 18.5844 19.1158 18.6259C19.0836 18.6361 19.0509 18.6446 19.0178 18.6514C18.5914 18.7366 18.4275 18.9783 18.3355 19.3755C18.2899 19.5707 18.2435 19.766 18.1941 19.9598C18.0901 20.3143 17.9854 20.6682 17.8889 21.0235C17.7097 21.5813 17.4701 22.1179 17.1745 22.6237L17.146 22.6125L17.1603 22.6484C17.066 22.8032 16.9658 22.9551 16.8573 23.1032C16.8573 23.1032 16.8573 23.1084 16.8573 23.1107C16.786 23.199 16.7112 23.284 16.6329 23.3658L16.6119 23.3426C16.5887 23.3815 16.5685 23.4174 16.5483 23.4518C16.4171 23.5821 16.2744 23.7003 16.1219 23.8049C15.908 23.9545 15.689 24.0964 15.4651 24.2306H15.3753L15.4172 24.2583C14.4784 24.8111 13.4595 25.2308 12.4511 25.6706C11.9509 25.8973 11.4097 26.0195 10.8606 26.0297C10.3113 26.0192 9.76984 25.8968 9.26944 25.6699C8.00293 25.1163 6.71996 24.5986 5.59932 23.8042C5.44673 23.6997 5.304 23.5815 5.17292 23.4511L5.10933 23.3419L5.08763 23.365C5.01083 23.2838 4.93602 23.1987 4.86321 23.1099V23.1025C4.05677 22.0073 3.69095 20.7004 3.38499 19.3747C3.29372 18.9775 3.12914 18.7359 2.70348 18.6506C2.46103 18.5925 2.23923 18.4688 2.06237 18.293C1.25069 17.503 0.85645 16.5343 0.946968 15.3949C1.00756 14.6259 1.32101 14.2982 2.0893 14.1673C2.45885 14.1045 2.59875 13.8561 2.66009 13.5217C2.84222 12.5265 3.19962 11.5716 3.71564 10.7014C4.10614 10.0394 4.59838 9.46334 5.25894 9.05563C5.44781 8.95049 5.64209 8.85534 5.84096 8.77061L5.94345 8.86337L5.18937 10.2698C7.05061 10.2286 8.78019 9.84785 10.3751 8.96586C10.3654 8.92397 10.3557 8.88133 10.3467 8.83869H10.7013L11.2249 8.56115L11.3177 8.62848C11.1486 9.00252 10.9803 9.37657 10.8038 9.76931C10.8819 9.79255 10.9617 9.8098 11.0424 9.82093C13.2612 9.99747 15.3596 9.58378 17.3159 8.51327C17.6862 8.31054 18.0385 8.19384 18.533 8.39058V10.8682L18.6908 12.2096C18.8188 12.6584 18.9587 13.1746 19.115 13.6855C19.2078 13.99 19.4217 14.1568 19.7494 14.1733C20.3052 14.2017 20.5977 14.5414 20.7384 15.0418C21.0488 16.143 20.4504 17.8098 19.5085 18.4464Z" fill="white"/>
</svg>
