<svg width="29" height="57" viewBox="0 0 29 57" fill="none" xmlns="http://www.w3.org/2000/svg">
<path d="M28.8343 31.4864C27.3914 26.3588 25.9507 21.2299 24.5121 16.0999C24.1555 14.8219 23.275 14.1356 21.9185 13.9539C21.8128 13.9344 21.7058 13.9221 21.5982 13.9171C17.1027 13.922 12.6072 13.9289 8.11175 13.9379L7.94058 13.9699C6.58934 14.0828 5.62064 14.8808 5.28218 16.1183C4.65843 18.3907 4.01912 20.6607 3.385 22.9295C2.55895 25.8894 1.68622 28.8383 0.921119 31.8142C0.486698 33.5133 1.08322 35.2124 3.19956 35.7489C3.35003 35.8035 3.49499 35.8709 3.63268 35.9502C3.2631 37.8249 2.89741 39.6799 2.51745 41.6049H6.98356C7.7305 46.5733 8.47096 51.4939 9.21272 56.4242H20.5919C21.335 51.4779 22.0755 46.5574 22.825 41.5693H27.2885C26.8995 39.6345 26.5312 37.7783 26.1616 35.922C26.227 35.8814 26.297 35.8481 26.3704 35.8225C28.7227 35.3744 29.3439 33.2825 28.8343 31.4864ZM16.8092 26.6665C16.6497 26.723 16.4915 26.7832 16.3061 26.8507V28.8235H18.3044V31.3219H16.2931V33.2407H13.6659V31.3587H11.6364V28.8641H13.5958V26.9845C12.8359 26.5646 12.0228 26.2479 11.3757 25.7347C10.3576 24.9552 9.66808 23.8562 9.43232 22.6368C9.19656 21.4174 9.43011 20.1584 10.0906 19.0881C11.4276 16.8574 14.2157 15.8961 16.8598 16.742L17.1646 16.8353L17.9517 17.222C18.8465 17.8837 19.6297 18.6314 20.0655 19.6503C21.2883 22.5022 19.8619 25.5763 16.8092 26.6665Z" fill="white"/>
<path d="M15.2233 12.7115C19.8372 12.466 22.694 8.34218 21.2326 4.21104C20.4117 1.8895 17.8908 0.0958559 15.3192 0.00500765C12.4547 -0.0968897 9.88445 1.36405 8.8561 3.67823L8.63565 4.18158C8.62417 4.1935 8.61593 4.20789 8.61164 4.22351C8.60735 4.23912 8.60713 4.25548 8.61101 4.27119C8.49776 4.80401 8.38537 5.336 8.27385 5.86718C8.26607 6.2453 8.25915 6.62425 8.2531 7.00401C8.29071 7.21149 8.32831 7.41774 8.36462 7.61785C8.78219 10.223 11.4224 12.9104 15.2233 12.7115Z" fill="white"/>
<path d="M14.9756 18.9211C14.2006 18.9198 13.4557 19.2052 12.8998 19.7164C12.3439 20.2276 12.0208 20.9242 11.9995 21.6576C11.9912 22.0212 12.0596 22.3826 12.2006 22.7209C12.3415 23.0592 12.5523 23.3675 12.8206 23.6277C13.0889 23.888 13.4093 24.095 13.763 24.2367C14.1168 24.3784 14.4968 24.452 14.8809 24.453C16.5434 24.469 17.8311 23.2916 17.8389 21.7521C17.8467 20.2126 16.5706 18.9407 14.9756 18.9211Z" fill="white"/>
</svg>
