<svg width="18" height="27" viewBox="0 0 18 27" fill="none" xmlns="http://www.w3.org/2000/svg">
<path d="M8.9992 2.93299H0.936897V0.596045H8.9992V2.93299ZM12.5046 2.93299H10.1677V0.596045H12.5046V2.93299ZM17.0616 2.93299H13.6731V0.596045H17.0616V2.93299ZM2.33896 26.8865H0.00209949C0.000734821 26.813 0 26.7264 0 26.6397C0 23.4928 0.99584 20.5785 2.68958 18.1947L2.65919 18.2398C4.29983 16.0978 6.13444 14.2324 8.17349 12.6133L8.23858 12.5635C12.0548 9.29176 15.6595 6.19415 15.6595 0.0129906H17.9964C17.9977 0.086394 17.9985 0.172998 17.9985 0.259759C17.9985 3.40663 17.0027 6.32093 15.3089 8.70469L15.3393 8.65961C13.6986 10.8016 11.864 12.667 9.82498 14.2861L9.7599 14.336C5.94368 17.6112 2.33896 20.7053 2.33896 26.8865ZM17.9964 26.8865H15.6595C15.6595 20.7053 12.0548 17.6112 8.23858 14.336C6.13437 12.6671 4.29981 10.8017 2.71464 8.73498L2.65916 8.65966C0.99584 6.32091 0 3.40663 0 0.259759C0 0.172998 0.000787308 0.086394 0.00225695 0L0.00207325 0.0129906H2.33896C2.33896 6.19415 5.94368 9.28827 9.75987 12.5635C11.864 14.2324 13.6986 16.0978 15.2838 18.1645L15.3393 18.2398C17.0026 20.5785 17.9984 23.4928 17.9984 26.6397C17.9984 26.7264 17.9977 26.813 17.9962 26.8994L17.9964 26.8865ZM6.77909 7.95738H2.80633V5.62039H6.77909V7.95738ZM10.1677 7.95738H7.83075V5.62039H10.1677V7.95738ZM15.1921 7.95738H11.2193V5.62039H15.1921V7.95738ZM6.77917 21.3946H2.80641V19.0577H6.77917V21.3946ZM10.1677 21.3946H7.83078V19.0577H10.1677V21.3946ZM15.1921 21.3946H11.2193V19.0577H15.1921V21.3946ZM5.6107 25.8348H1.28738V23.4979H5.6107V25.8348ZM8.99922 25.8348H6.77917V23.4979H8.99925L8.99922 25.8348ZM16.7111 25.8348H10.1677V23.4979H16.7111L16.7111 25.8348Z" fill="white"/>
</svg>
