<svg width="29" height="24" viewBox="0 0 29 24" fill="none" xmlns="http://www.w3.org/2000/svg">
<path d="M3.7822 24.0045C1.76438 20.8325 1.20798 17.2747 0.9434 13.6356C0.929774 13.4583 0.908198 13.2811 0.87981 12.9867L0.215532 13.7371C-0.57933 9.92178 0.749226 5.65271 5.45822 4.53666C5.61833 4.49875 5.85224 4.3382 5.87155 4.20886C6.11682 2.56211 7.17626 1.58878 8.62291 0.920934C9.94579 0.311067 11.3584 0.0992288 12.8697 0C12.5166 0.334479 12.0567 0.557469 12.3099 1.16065C15.5848 -0.424785 18.8062 0.120414 21.9857 1.39478L19.039 1.77163L19.047 1.93442C19.6147 2.08047 20.1916 2.20088 20.7502 2.38039C24.4316 3.54326 26.63 6.14105 27.9176 9.5951C28.6213 11.4846 28.9878 13.4791 29.0009 15.4909L28.4093 14.0637C28.5047 17.1599 27.8188 20.0353 26.1803 22.7C26.1178 21.7467 26.0758 20.7901 25.9873 19.8391C25.8158 18.005 25.533 16.1888 24.7768 14.4874C24.5777 14.0262 24.332 13.5859 24.0432 13.1729C22.868 11.5284 21.1851 11.1259 19.374 12.0647C17.7616 12.8998 16.081 13.4294 14.238 13.4717C11.6434 13.5319 9.27242 12.8295 7.09677 11.4726C6.75612 11.2597 6.50517 11.272 6.17587 11.4448C4.32043 12.4148 3.48469 14.0426 3.17583 15.9803C2.79543 18.3663 3.10316 20.7154 3.67546 23.0434C3.75154 23.3545 3.74586 23.6845 3.77879 24.0045H3.7822Z" fill="white"/>
<path d="M3.77879 24.0011C3.8015 23.9944 3.82421 23.9877 3.81285 23.9922L3.7822 24.0045L3.77879 24.0011Z" fill="white"/>
</svg>
