<svg width="229" height="65" viewBox="0 0 229 65" fill="none" xmlns="http://www.w3.org/2000/svg">
<path d="M25.4068 46.0456C25.4068 43.7925 25.0501 41.9149 24.3366 40.4129C23.6231 38.9108 22.6092 37.7843 21.2949 37.0333C20.0182 36.2447 18.4974 35.8504 16.7324 35.8504C16.2067 35.8504 15.6622 35.8692 15.099 35.9067C14.5732 35.9443 14.0287 36.0006 13.4655 36.0757V55.6775C13.8785 55.7526 14.3855 55.8277 14.9863 55.9028C15.6247 55.9404 16.1879 55.9591 16.6761 55.9591C19.2296 55.9591 21.3137 55.133 22.9284 53.4807C24.5807 51.8285 25.4068 49.3501 25.4068 46.0456ZM35.5456 45.8766C35.5456 49.8946 34.7571 53.2367 33.1799 55.9028C31.6028 58.5689 29.3872 60.5779 26.5333 61.9298C23.717 63.2441 20.4125 63.9012 16.6198 63.9012C15.343 63.9012 13.7471 63.8074 11.832 63.6196C9.95443 63.4318 8.26462 63.0563 6.76256 62.4931C4.69724 61.7045 3.66458 60.3339 3.66458 58.3812V32.0765C3.66458 31.2879 3.88989 30.6871 4.3405 30.274C4.79112 29.8234 5.37316 29.4667 6.08664 29.2038C7.70135 28.6781 9.40993 28.3401 11.2124 28.1899C13.0149 28.0022 14.6296 27.9083 16.0565 27.9083C19.9619 27.9083 23.3602 28.5654 26.2517 29.8797C29.1807 31.1565 31.4526 33.1279 33.0673 35.7941C34.7195 38.4227 35.5456 41.7835 35.5456 45.8766ZM41.1792 38.1035H51.0364V62.9437C50.6234 63.0563 49.985 63.169 49.1213 63.2816C48.2576 63.3943 47.3752 63.4506 46.474 63.4506C44.5213 63.4506 43.1507 63.1127 42.3621 62.4367C41.5735 61.7233 41.1792 60.5028 41.1792 58.7755V38.1035ZM51.0364 51.115H41.1792V28.7532C41.6298 28.6781 42.287 28.5842 43.1507 28.4716C44.0519 28.3214 44.9156 28.2463 45.7417 28.2463C47.6193 28.2463 48.9711 28.5654 49.7973 29.2038C50.6234 29.8422 51.0364 31.0814 51.0364 32.9214V51.115ZM68.8182 56.0155C70.6582 56.0155 71.9537 55.715 72.7047 55.1142C73.4558 54.5134 73.8313 53.8375 73.8313 53.0865C73.8313 52.3354 73.5309 51.7534 72.93 51.3403C72.3292 50.8897 71.4843 50.4766 70.3953 50.1011L68.0296 49.3125C65.8516 48.5615 63.9177 47.7729 62.2279 46.9468C60.5757 46.0831 59.2801 44.9754 58.3413 43.6235C57.4026 42.2717 56.9332 40.5068 56.9332 38.3288C56.9332 35.1369 58.1536 32.5834 60.5944 30.6683C63.0728 28.7532 66.5275 27.7956 70.9586 27.7956C73.1366 27.7956 75.0705 28.0022 76.7603 28.4152C78.4501 28.8283 79.7832 29.4667 80.7595 30.3304C81.7358 31.1565 82.224 32.2267 82.224 33.541C82.224 34.4798 81.9987 35.3059 81.5481 36.0194C81.0974 36.7329 80.553 37.3337 79.9146 37.8218C79.0885 37.2961 77.9807 36.8455 76.5913 36.47C75.2019 36.0569 73.6811 35.8504 72.0288 35.8504C70.339 35.8504 69.0998 36.0945 68.3112 36.5826C67.5226 37.0333 67.1284 37.6153 67.1284 38.3288C67.1284 38.8921 67.3724 39.3614 67.8606 39.737C68.3863 40.0749 69.1186 40.3941 70.0574 40.6945L73.0427 41.6521C76.6101 42.7786 79.3325 44.2431 81.2101 46.0456C83.0877 47.8105 84.0265 50.195 84.0265 53.1991C84.0265 56.391 82.7497 59.0008 80.1962 61.0286C77.6803 63.0188 74.0002 64.0139 69.1561 64.0139C66.8655 64.0139 64.8002 63.7698 62.9602 63.2816C61.1201 62.7935 59.6556 62.0612 58.5667 61.0849C57.4777 60.1085 56.9332 58.9257 56.9332 57.5363C56.9332 56.4473 57.2524 55.5273 57.8907 54.7763C58.5291 53.9877 59.2238 53.3869 59.9748 52.9738C61.0263 53.7999 62.303 54.5134 63.8051 55.1142C65.3447 55.715 67.0157 56.0155 68.8182 56.0155ZM116.397 33.8226C116.397 34.7614 116.153 35.6063 115.665 36.3573C115.176 37.0708 114.613 37.6341 113.975 38.0471C113.036 37.4088 112.003 36.8643 110.877 36.4137C109.75 35.9631 108.455 35.7377 106.99 35.7377C105.075 35.7377 103.442 36.1508 102.09 36.9769C100.776 37.7655 99.7616 38.9296 99.0482 40.4692C98.3722 41.9713 98.0343 43.7925 98.0343 45.9329C98.0343 49.2374 98.8604 51.7534 100.513 53.4807C102.202 55.2081 104.531 56.0718 107.497 56.0718C109.037 56.0718 110.332 55.8652 111.384 55.4522C112.473 55.0391 113.505 54.5697 114.482 54.044C115.12 54.5322 115.608 55.1518 115.946 55.9028C116.322 56.6538 116.51 57.5175 116.51 58.4938C116.51 59.3575 116.284 60.1461 115.834 60.8596C115.383 61.573 114.613 62.1739 113.524 62.662C112.848 62.9624 111.891 63.2629 110.652 63.5633C109.412 63.8637 107.91 64.0139 106.145 64.0139C102.766 64.0139 99.6865 63.3755 96.9077 62.0988C94.1665 60.822 91.9697 58.8506 90.3175 56.1844C88.7028 53.5183 87.8954 50.1011 87.8954 45.9329C87.8954 42.0276 88.684 38.7418 90.2611 36.0757C91.8383 33.372 93.9599 31.3255 96.6261 29.9361C99.3298 28.5091 102.296 27.7956 105.526 27.7956C107.816 27.7956 109.769 28.0585 111.384 28.5842C112.998 29.1099 114.238 29.8234 115.101 30.7246C115.965 31.6259 116.397 32.6585 116.397 33.8226ZM155.179 45.8766C155.179 49.7819 154.391 53.0865 152.814 55.7901C151.274 58.4938 149.152 60.5404 146.449 61.9298C143.782 63.3192 140.741 64.0139 137.324 64.0139C133.906 64.0139 130.846 63.3192 128.142 61.9298C125.476 60.5404 123.373 58.4938 121.834 55.7901C120.294 53.0865 119.524 49.7819 119.524 45.8766C119.524 41.9713 120.313 38.6855 121.89 36.0194C123.467 33.3157 125.589 31.2691 128.255 29.8797C130.959 28.4903 133.982 27.7956 137.324 27.7956C140.666 27.7956 143.689 28.4903 146.392 29.8797C149.096 31.2691 151.236 33.3157 152.814 36.0194C154.391 38.6855 155.179 41.9713 155.179 45.8766ZM145.04 45.8766C145.04 42.5345 144.346 40.0186 142.956 38.3288C141.567 36.6014 139.689 35.7377 137.324 35.7377C135.033 35.7377 133.174 36.5826 131.747 38.2725C130.358 39.9623 129.663 42.497 129.663 45.8766C129.663 49.2938 130.358 51.8473 131.747 53.5371C133.174 55.2269 135.052 56.0718 137.38 56.0718C139.708 56.0718 141.567 55.2269 142.956 53.5371C144.346 51.8473 145.04 49.2938 145.04 45.8766ZM170.564 44.4684H173.38C174.957 44.4684 176.253 44.1117 177.267 43.3982C178.28 42.6472 178.787 41.5582 178.787 40.1312C178.787 38.7043 178.318 37.6341 177.379 36.9206C176.478 36.1696 175.032 35.7941 173.042 35.7941C172.554 35.7941 172.122 35.8128 171.746 35.8504C171.371 35.8879 170.977 35.9443 170.564 36.0194V44.4684ZM174.394 51.9599H160.819V32.0765C160.819 31.2879 161.044 30.6871 161.495 30.274C161.946 29.8234 162.528 29.4667 163.241 29.2038C164.518 28.7532 166.001 28.434 167.691 28.2463C169.381 28.0209 171.183 27.9083 173.098 27.9083C178.28 27.9083 182.186 29.0161 184.814 31.2316C187.443 33.4096 188.757 36.3386 188.757 40.0186C188.757 42.3092 188.1 44.3558 186.786 46.1582C185.509 47.9607 183.782 49.3876 181.604 50.4391C179.463 51.453 177.06 51.9599 174.394 51.9599ZM172.31 49.7632L181.266 47.9607C182.092 49.0872 182.937 50.195 183.8 51.284C184.664 52.373 185.471 53.4244 186.222 54.4383C187.011 55.4522 187.725 56.391 188.363 57.2546C189.001 58.1183 189.508 58.8694 189.884 59.5077C189.508 60.7845 188.814 61.7796 187.8 62.4931C186.823 63.2065 185.716 63.5633 184.476 63.5633C182.862 63.5633 181.622 63.2065 180.759 62.4931C179.933 61.7796 179.163 60.8408 178.449 59.6767L172.31 49.7632ZM160.819 48.1297H170.676V62.9437C170.263 63.0563 169.625 63.169 168.761 63.2816C167.897 63.3943 167.015 63.4506 166.114 63.4506C164.161 63.4506 162.79 63.1127 162.002 62.4367C161.213 61.7233 160.819 60.5028 160.819 58.7755V48.1297ZM216.885 46.0456C216.885 43.7925 216.529 41.9149 215.815 40.4129C215.102 38.9108 214.088 37.7843 212.774 37.0333C211.497 36.2447 209.976 35.8504 208.211 35.8504C207.685 35.8504 207.141 35.8692 206.578 35.9067C206.052 35.9443 205.507 36.0006 204.944 36.0757V55.6775C205.357 55.7526 205.864 55.8277 206.465 55.9028C207.103 55.9404 207.667 55.9591 208.155 55.9591C210.708 55.9591 212.792 55.133 214.407 53.4807C216.059 51.8285 216.885 49.3501 216.885 46.0456ZM227.024 45.8766C227.024 49.8946 226.236 53.2367 224.659 55.9028C223.081 58.5689 220.866 60.5779 218.012 61.9298C215.196 63.2441 211.891 63.9012 208.098 63.9012C206.822 63.9012 205.226 63.8074 203.311 63.6196C201.433 63.4318 199.743 63.0563 198.241 62.4931C196.176 61.7045 195.143 60.3339 195.143 58.3812V32.0765C195.143 31.2879 195.369 30.6871 195.819 30.274C196.27 29.8234 196.852 29.4667 197.565 29.2038C199.18 28.6781 200.889 28.3401 202.691 28.1899C204.494 28.0022 206.108 27.9083 207.535 27.9083C211.441 27.9083 214.839 28.5654 217.73 29.8797C220.659 31.1565 222.931 33.1279 224.546 35.7941C226.198 38.4227 227.024 41.7835 227.024 45.8766Z" fill="#1871BF"/>
<path d="M59.4035 13.752C58.0808 13.816 56.6088 13.848 54.9875 13.848H54.6035C51.5955 19.3093 49.8035 23.0107 49.2275 24.952C49.1422 25.208 49.0995 25.4427 49.0995 25.656C49.0995 26.296 49.6648 26.616 50.7955 26.616C51.2648 26.616 51.7768 26.5307 52.3315 26.36C52.8862 26.168 53.5582 25.848 54.3475 25.4C55.1582 24.9307 56.0648 24.1947 57.0675 23.192C58.0702 22.1893 59.0942 20.9733 60.1395 19.544C60.2675 19.3093 60.4595 19.192 60.7155 19.192C60.8862 19.192 60.9715 19.2773 60.9715 19.448C60.9715 19.4907 60.9502 19.576 60.9075 19.704C59.8835 22.328 58.5822 24.6747 57.0035 26.744C56.8755 27.0427 56.5555 27.2347 56.0435 27.32C54.2942 27.4053 52.4488 27.448 50.5075 27.448C48.2888 27.448 46.4968 27.3733 45.1315 27.224C44.8755 27.2027 44.7475 27.0533 44.7475 26.776C44.7475 26.6053 44.7902 26.4347 44.8755 26.264C46.0915 23.5333 48.3848 19.384 51.7555 13.816L50.3155 13.784C50.0382 13.784 49.8995 13.6987 49.8995 13.528C49.8995 13.3573 49.9848 13.208 50.1555 13.08C50.3475 12.9307 50.5395 12.856 50.7315 12.856H52.3635L56.2355 6.648C56.5555 6.072 56.7155 5.54933 56.7155 5.08C56.7155 4.76 56.6408 4.48267 56.4915 4.248C56.3635 4.01333 56.2248 3.85333 56.0755 3.768L55.8515 3.64C55.6595 3.53333 55.5635 3.416 55.5635 3.288C55.5635 3.20266 55.5955 3.128 55.6595 3.064C55.7448 3 55.8302 2.95733 55.9155 2.936L56.0435 2.904C58.2408 2.776 60.5235 2.712 62.8915 2.712C64.8542 2.712 66.4328 2.76533 67.6275 2.872C67.9475 2.872 68.1075 3.01067 68.1075 3.288C68.1075 3.352 68.0755 3.46933 68.0115 3.64C67.3075 5.41067 66.5928 6.79733 65.8675 7.8C65.7608 7.90667 65.6435 7.96 65.5155 7.96C65.3235 7.96 65.2275 7.82133 65.2275 7.544C65.3342 7.13867 65.3875 6.70133 65.3875 6.232C65.3875 4.48267 64.5128 3.608 62.7635 3.608H62.6355C61.5475 3.608 60.7688 3.90667 60.2995 4.504C59.2115 5.848 57.7608 8.16267 55.9475 11.448C55.7342 11.8107 55.4675 12.2693 55.1475 12.824H59.9475C60.1608 12.824 60.2675 12.888 60.2675 13.016C60.2675 13.144 60.1715 13.2933 59.9795 13.464C59.8088 13.6347 59.6168 13.7307 59.4035 13.752ZM71.1575 23.896C68.6615 26.2427 67.0188 27.416 66.2295 27.416C65.8668 27.416 65.6855 27.224 65.6855 26.84C65.6855 26.6053 65.7388 26.3173 65.8455 25.976C65.9522 25.6133 66.0802 25.2613 66.2295 24.92C66.4002 24.5573 66.5602 24.2267 66.7095 23.928C66.8588 23.6293 67.0082 23.352 67.1575 23.096C67.3068 22.84 67.3815 22.7013 67.3815 22.68C67.7015 22.104 68.1815 21.304 68.8215 20.28C69.4615 19.2347 69.9735 18.3813 70.3575 17.72C70.7415 17.0373 70.9335 16.6213 70.9335 16.472C70.9335 16.3653 70.8802 16.312 70.7735 16.312L70.3255 16.472C69.3442 17.176 68.1708 18.2747 66.8055 19.768C65.4402 21.24 64.3202 22.5413 63.4455 23.672L62.1335 25.336C61.8562 25.7413 61.6108 26.072 61.3975 26.328C61.1842 26.584 60.8748 26.8293 60.4695 27.064C60.0855 27.32 59.6908 27.448 59.2855 27.448C58.9868 27.448 58.8375 27.3627 58.8375 27.192C58.8375 27.0213 59.0402 26.5307 59.4455 25.72C59.8508 24.888 60.2562 24.0987 60.6615 23.352L61.2695 22.264L64.4055 16.76C64.7255 16.2267 64.9815 15.8213 65.1735 15.544C65.3868 15.2453 65.6748 14.8827 66.0375 14.456C66.4002 14.008 66.7842 13.6773 67.1895 13.464C67.6162 13.2507 68.0642 13.1227 68.5335 13.08C68.7042 13.08 68.7895 13.1547 68.7895 13.304C68.7895 13.432 68.7575 13.5387 68.6935 13.624C68.2028 14.392 67.4455 15.6613 66.4215 17.432C65.4188 19.2027 64.7788 20.3547 64.5015 20.888C64.4375 21.016 64.4055 21.112 64.4055 21.176C64.4055 21.2187 64.4268 21.24 64.4695 21.24C64.5122 21.24 64.6188 21.176 64.7895 21.048C65.1948 20.5787 65.7175 19.992 66.3575 19.288C67.0188 18.584 68.1282 17.528 69.6855 16.12C71.2428 14.6907 72.5228 13.7307 73.5255 13.24C73.7602 13.1333 73.9842 13.08 74.1975 13.08C74.4962 13.08 74.6455 13.2507 74.6455 13.592C74.4748 14.5947 73.6535 16.312 72.1815 18.744C70.5602 21.4107 69.7495 22.9893 69.7495 23.48C69.7495 23.6507 69.8242 23.736 69.9735 23.736C70.0802 23.736 70.1975 23.704 70.3255 23.64C70.4748 23.5547 70.6348 23.448 70.8055 23.32C70.9762 23.1707 71.1148 23.0427 71.2215 22.936C71.3495 22.8293 71.5095 22.6907 71.7015 22.52C71.8935 22.328 72.0108 22.2107 72.0535 22.168C72.9495 21.272 74.1335 19.9813 75.6055 18.296C75.6695 18.232 75.7228 18.2 75.7655 18.2C75.8082 18.2 75.8295 18.2427 75.8295 18.328C75.8295 18.7333 75.6695 19.128 75.3495 19.512C73.7708 21.2613 72.3735 22.7227 71.1575 23.896ZM78.1305 22.168C79.0265 21.272 80.2105 19.9813 81.6825 18.296C81.7465 18.232 81.7998 18.2 81.8425 18.2C81.8852 18.2 81.9065 18.2427 81.9065 18.328C81.9065 18.7333 81.7465 19.128 81.4265 19.512C79.8478 21.2613 78.4505 22.7227 77.2345 23.896C74.6745 26.3707 72.9785 27.608 72.1465 27.608C71.8478 27.608 71.6985 27.416 71.6985 27.032C71.6985 26.584 71.8692 25.912 72.2105 25.016C72.5518 24.12 72.8932 23.3307 73.2345 22.648L73.7465 21.656C74.2372 20.7813 75.0478 19.288 76.1785 17.176C77.3092 15.064 78.3972 13.0693 79.4425 11.192C80.5092 9.31467 81.5118 7.61867 82.4505 6.104H79.9225C79.7092 6.104 79.6025 6.05066 79.6025 5.944C79.6025 5.83733 79.6878 5.73067 79.8585 5.624C80.0292 5.51733 80.2105 5.464 80.4025 5.464C80.8718 5.464 81.6932 5.45333 82.8665 5.432C83.9118 3.78933 84.8078 2.488 85.5545 1.528C86.2158 0.695999 86.6745 0.279999 86.9305 0.279999C87.0798 0.279999 87.1545 0.375999 87.1545 0.567999C87.1545 1.016 86.7492 1.976 85.9385 3.448L84.8505 5.432H88.1465C88.3385 5.432 88.4345 5.48533 88.4345 5.592C88.4345 5.93333 88.1252 6.104 87.5065 6.104H84.4985C79.5705 15.448 76.9785 20.344 76.7225 20.792C75.8265 22.4347 75.3785 23.5013 75.3785 23.992C75.3785 24.1413 75.4318 24.216 75.5385 24.216C75.8372 24.216 76.7012 23.5333 78.1305 22.168ZM86.6883 20.376C86.5176 20.376 86.4323 20.312 86.4323 20.184C86.4323 20.12 86.4643 20.0347 86.5283 19.928C87.7869 17.9653 88.4163 16.6213 88.4163 15.896C88.4163 15.704 88.3416 15.608 88.1923 15.608C87.5523 15.608 86.0483 17.0587 83.6803 19.96C82.9763 20.856 82.3149 21.784 81.6963 22.744C81.0989 23.704 80.6829 24.44 80.4483 24.952L80.0643 25.688C79.8083 26.2 79.4136 26.6693 78.8803 27.096C78.3469 27.544 77.7922 27.768 77.2162 27.768C76.9176 27.768 76.7682 27.6933 76.7682 27.544C76.7682 27.416 76.8642 27.1493 77.0562 26.744C77.2269 26.3387 77.4402 25.8907 77.6962 25.4C77.9522 24.9093 78.2082 24.4293 78.4642 23.96C78.7203 23.4907 78.9336 23.096 79.1043 22.776L79.3923 22.296L82.7523 16.44C84.0536 13.9867 85.4189 12.76 86.8483 12.76C87.0403 12.76 87.1363 12.8347 87.1363 12.984C87.1363 13.176 86.6669 13.976 85.7283 15.384C84.8109 16.7707 84.2776 17.656 84.1283 18.04C84.0856 18.168 84.0643 18.2427 84.0643 18.264C84.0643 18.3067 84.0856 18.328 84.1283 18.328C84.1709 18.328 84.2456 18.2747 84.3523 18.168C85.9523 16.3547 87.6483 14.744 89.4403 13.336C89.5469 13.2293 89.7816 13.08 90.1443 12.888C90.5069 12.6747 90.8269 12.568 91.1043 12.568C91.5096 12.568 91.7123 12.92 91.7123 13.624C91.7123 14.392 91.4563 15.3093 90.9443 16.376C90.4323 17.4427 89.7389 18.3813 88.8643 19.192L88.7363 19.32C88.6509 19.384 88.5549 19.4587 88.4483 19.544C88.3629 19.608 88.2456 19.6933 88.0963 19.8C87.9469 19.9067 87.7976 20.0027 87.6483 20.088C87.4989 20.152 87.3389 20.216 87.1683 20.28C86.9976 20.344 86.8376 20.376 86.6883 20.376ZM96.8 16.152C97.056 15.6187 97.184 15.1493 97.184 14.744C97.184 14.4027 97.0773 14.232 96.864 14.232C96.736 14.232 96.5867 14.2747 96.416 14.36C96.2667 14.424 96.1493 14.4987 96.064 14.584L95.904 14.712C95.2427 15.288 94.4107 16.344 93.408 17.88C92.4267 19.3947 91.936 20.3653 91.936 20.792C91.936 20.8773 91.9573 20.92 92 20.92C92.128 20.92 92.4053 20.8133 92.832 20.6C93.28 20.3867 93.9093 19.8853 94.72 19.096C95.552 18.3067 96.2453 17.3253 96.8 16.152ZM95.36 23.48C96.4907 22.4347 98.112 20.7067 100.224 18.296C100.288 18.232 100.341 18.2 100.384 18.2C100.427 18.2 100.448 18.2427 100.448 18.328C100.448 18.7333 100.288 19.128 99.968 19.512C98.3893 21.2613 96.992 22.7227 95.776 23.896C94.88 24.792 93.8133 25.656 92.576 26.488C91.3387 27.2987 90.3147 27.704 89.504 27.704C88.5227 27.704 88.032 27.0213 88.032 25.656C88.032 23.3947 88.864 21.0267 90.528 18.552C92.2133 16.0773 94.1547 14.4027 96.352 13.528C97.2693 13.144 98.1013 12.952 98.848 12.952C99.68 12.952 100.096 13.2827 100.096 13.944C100.096 15.1813 99.2213 16.6 97.472 18.2C95.7227 19.8 93.76 21.016 91.584 21.848C91.4987 21.8693 91.424 21.944 91.36 22.072C91.04 22.9467 90.88 23.7253 90.88 24.408C90.88 25.176 91.168 25.56 91.744 25.56C92.6613 25.56 93.8667 24.8667 95.36 23.48ZM113.658 23.896C111.162 26.2427 109.519 27.416 108.73 27.416C108.367 27.416 108.186 27.224 108.186 26.84C108.186 26.6053 108.239 26.3173 108.346 25.976C108.452 25.6133 108.58 25.2613 108.73 24.92C108.9 24.5573 109.06 24.2267 109.21 23.928C109.359 23.6293 109.508 23.352 109.658 23.096C109.807 22.84 109.882 22.7013 109.882 22.68C110.202 22.104 110.682 21.304 111.322 20.28C111.962 19.2347 112.474 18.3813 112.858 17.72C113.242 17.0373 113.434 16.6213 113.434 16.472C113.434 16.3653 113.38 16.312 113.274 16.312L112.826 16.472C111.844 17.176 110.671 18.2747 109.306 19.768C107.94 21.24 106.82 22.5413 105.946 23.672L104.634 25.336C104.356 25.7413 104.111 26.072 103.898 26.328C103.684 26.584 103.375 26.8293 102.97 27.064C102.585 27.32 102.191 27.448 101.785 27.448C101.487 27.448 101.337 27.3627 101.337 27.192C101.337 27.0213 101.54 26.5307 101.945 25.72C102.351 24.888 102.756 24.0987 103.162 23.352L103.77 22.264L106.906 16.76C107.226 16.2267 107.482 15.8213 107.674 15.544C107.887 15.2453 108.175 14.8827 108.538 14.456C108.9 14.008 109.284 13.6773 109.69 13.464C110.116 13.2507 110.564 13.1227 111.034 13.08C111.204 13.08 111.29 13.1547 111.29 13.304C111.29 13.432 111.258 13.5387 111.194 13.624C110.703 14.392 109.946 15.6613 108.922 17.432C107.919 19.2027 107.279 20.3547 107.002 20.888C106.938 21.016 106.906 21.112 106.906 21.176C106.906 21.2187 106.927 21.24 106.97 21.24C107.012 21.24 107.119 21.176 107.29 21.048C107.695 20.5787 108.218 19.992 108.858 19.288C109.519 18.584 110.628 17.528 112.186 16.12C113.743 14.6907 115.023 13.7307 116.026 13.24C116.26 13.1333 116.484 13.08 116.698 13.08C116.996 13.08 117.146 13.2507 117.146 13.592C116.975 14.5947 116.154 16.312 114.682 18.744C113.06 21.4107 112.25 22.9893 112.25 23.48C112.25 23.6507 112.324 23.736 112.474 23.736C112.58 23.736 112.698 23.704 112.826 23.64C112.975 23.5547 113.135 23.448 113.306 23.32C113.476 23.1707 113.615 23.0427 113.722 22.936C113.85 22.8293 114.01 22.6907 114.202 22.52C114.394 22.328 114.511 22.2107 114.554 22.168C115.45 21.272 116.634 19.9813 118.106 18.296C118.17 18.232 118.223 18.2 118.266 18.2C118.308 18.2 118.33 18.2427 118.33 18.328C118.33 18.7333 118.17 19.128 117.85 19.512C116.271 21.2613 114.874 22.7227 113.658 23.896ZM129.047 15.736C129.239 15.7787 129.335 15.8427 129.335 15.928C129.335 16.056 129.249 16.2053 129.079 16.376C128.844 16.6107 128.492 16.92 128.023 17.304C127.575 17.688 127.308 17.9227 127.223 18.008L126.775 18.616C126.327 19.8747 125.633 21.1867 124.695 22.552C123.777 23.896 122.647 25.08 121.303 26.104C119.98 27.128 118.711 27.64 117.495 27.64C115.98 27.64 115.223 26.712 115.223 24.856C115.223 23.2133 115.756 21.4427 116.823 19.544C117.889 17.624 119.265 15.992 120.951 14.648C122.657 13.2827 124.332 12.6 125.975 12.6C127.169 12.6 127.767 13.0693 127.767 14.008C127.767 14.52 127.511 15.2133 126.999 16.088C126.977 16.1093 126.967 16.1413 126.967 16.184C126.967 16.2267 126.988 16.248 127.031 16.248C127.82 15.928 128.492 15.7573 129.047 15.736ZM126.007 16.504C126.177 15.7573 126.263 15.1813 126.263 14.776C126.263 13.88 125.964 13.432 125.367 13.432C124.535 13.432 123.5 14.2 122.263 15.736C121.025 17.272 119.959 19 119.062 20.92C118.188 22.84 117.751 24.3547 117.751 25.464C117.751 26.2747 118.039 26.68 118.615 26.68C119.511 26.68 120.577 25.784 121.815 23.992C123.073 22.2 123.831 20.3973 124.087 18.584C124.065 18.5413 124.055 18.4773 124.055 18.392C124.055 17.7733 124.609 17.2187 125.719 16.728C125.889 16.664 125.985 16.5893 126.007 16.504ZM142.658 23.896C140.162 26.2427 138.519 27.416 137.73 27.416C137.367 27.416 137.186 27.224 137.186 26.84C137.186 26.6053 137.239 26.3173 137.346 25.976C137.452 25.6133 137.58 25.2613 137.73 24.92C137.9 24.5573 138.06 24.2267 138.21 23.928C138.359 23.6293 138.508 23.352 138.658 23.096C138.807 22.84 138.882 22.7013 138.882 22.68C139.202 22.104 139.682 21.304 140.322 20.28C140.962 19.2347 141.474 18.3813 141.858 17.72C142.242 17.0373 142.434 16.6213 142.434 16.472C142.434 16.3653 142.38 16.312 142.274 16.312L141.826 16.472C140.844 17.176 139.671 18.2747 138.306 19.768C136.94 21.24 135.82 22.5413 134.946 23.672L133.634 25.336C133.356 25.7413 133.111 26.072 132.898 26.328C132.684 26.584 132.375 26.8293 131.97 27.064C131.585 27.32 131.191 27.448 130.785 27.448C130.487 27.448 130.337 27.3627 130.337 27.192C130.337 27.0213 130.54 26.5307 130.945 25.72C131.351 24.888 131.756 24.0987 132.162 23.352L132.77 22.264L135.906 16.76C136.226 16.2267 136.482 15.8213 136.674 15.544C136.887 15.2453 137.175 14.8827 137.538 14.456C137.9 14.008 138.284 13.6773 138.69 13.464C139.116 13.2507 139.564 13.1227 140.034 13.08C140.204 13.08 140.29 13.1547 140.29 13.304C140.29 13.432 140.258 13.5387 140.194 13.624C139.703 14.392 138.946 15.6613 137.922 17.432C136.919 19.2027 136.279 20.3547 136.002 20.888C135.938 21.016 135.906 21.112 135.906 21.176C135.906 21.2187 135.927 21.24 135.97 21.24C136.012 21.24 136.119 21.176 136.29 21.048C136.695 20.5787 137.218 19.992 137.858 19.288C138.519 18.584 139.628 17.528 141.186 16.12C142.743 14.6907 144.023 13.7307 145.026 13.24C145.26 13.1333 145.484 13.08 145.698 13.08C145.996 13.08 146.146 13.2507 146.146 13.592C145.975 14.5947 145.154 16.312 143.682 18.744C142.06 21.4107 141.25 22.9893 141.25 23.48C141.25 23.6507 141.324 23.736 141.474 23.736C141.58 23.736 141.698 23.704 141.826 23.64C141.975 23.5547 142.135 23.448 142.306 23.32C142.476 23.1707 142.615 23.0427 142.722 22.936C142.85 22.8293 143.01 22.6907 143.202 22.52C143.394 22.328 143.511 22.2107 143.554 22.168C144.45 21.272 145.634 19.9813 147.106 18.296C147.17 18.232 147.223 18.2 147.266 18.2C147.308 18.2 147.33 18.2427 147.33 18.328C147.33 18.7333 147.17 19.128 146.85 19.512C145.271 21.2613 143.874 22.7227 142.658 23.896ZM158.047 15.736C158.239 15.7787 158.335 15.8427 158.335 15.928C158.335 16.056 158.249 16.2053 158.079 16.376C157.844 16.6107 157.492 16.92 157.023 17.304C156.575 17.688 156.308 17.9227 156.223 18.008L155.775 18.616C155.327 19.8747 154.633 21.1867 153.695 22.552C152.777 23.896 151.647 25.08 150.303 26.104C148.98 27.128 147.711 27.64 146.495 27.64C144.98 27.64 144.223 26.712 144.223 24.856C144.223 23.2133 144.756 21.4427 145.823 19.544C146.889 17.624 148.265 15.992 149.951 14.648C151.657 13.2827 153.332 12.6 154.975 12.6C156.169 12.6 156.767 13.0693 156.767 14.008C156.767 14.52 156.511 15.2133 155.999 16.088C155.977 16.1093 155.967 16.1413 155.967 16.184C155.967 16.2267 155.988 16.248 156.031 16.248C156.82 15.928 157.492 15.7573 158.047 15.736ZM155.007 16.504C155.177 15.7573 155.263 15.1813 155.263 14.776C155.263 13.88 154.964 13.432 154.367 13.432C153.535 13.432 152.5 14.2 151.263 15.736C150.025 17.272 148.959 19 148.062 20.92C147.188 22.84 146.751 24.3547 146.751 25.464C146.751 26.2747 147.039 26.68 147.615 26.68C148.511 26.68 149.577 25.784 150.815 23.992C152.073 22.2 152.831 20.3973 153.087 18.584C153.065 18.5413 153.055 18.4773 153.055 18.392C153.055 17.7733 153.609 17.2187 154.719 16.728C154.889 16.664 154.985 16.5893 155.007 16.504ZM162.74 23.352C162.356 24.3973 161.748 25.2827 160.916 26.008C160.084 26.712 159.305 27.192 158.58 27.448C157.876 27.704 157.236 27.832 156.66 27.832C155.102 27.832 154.323 27.224 154.323 26.008C154.323 24.7707 155.006 23.6507 156.372 22.648C157.012 22.1787 157.705 21.8693 158.452 21.72C158.558 21.72 158.612 21.7627 158.612 21.848C158.612 21.8907 158.59 21.9333 158.548 21.976C158.014 22.3813 157.502 23.0107 157.012 23.864C156.542 24.7173 156.308 25.464 156.308 26.104C156.308 26.744 156.574 27.064 157.108 27.064C157.534 27.064 157.95 26.8933 158.356 26.552C158.782 26.1893 159.102 25.8267 159.316 25.464L159.636 24.952C160.062 24.2693 160.414 23.1813 160.692 21.688C160.99 20.1947 161.182 18.872 161.268 17.72L161.364 15.992C161.364 15.8213 161.332 15.736 161.268 15.736L161.14 15.8L157.972 19.512C157.737 19.7893 157.577 19.928 157.492 19.928C157.385 19.928 157.332 19.8533 157.332 19.704C157.332 19.4267 157.406 19.2133 157.556 19.064L157.844 18.712C160.276 15.9813 161.662 14.328 162.004 13.752C162.324 13.2613 162.793 12.8347 163.411 12.472C164.009 12.1307 164.713 11.96 165.524 11.96C165.737 11.96 165.844 12.0453 165.844 12.216C165.844 12.3227 165.758 12.4187 165.588 12.504C165.524 12.5253 165.438 12.5787 165.332 12.664C165.246 12.728 165.076 12.8987 164.82 13.176C164.585 13.4533 164.372 13.7733 164.18 14.136C163.988 14.4987 163.817 15.0107 163.668 15.672C163.518 16.312 163.444 17.0267 163.444 17.816C163.444 20.2693 163.209 22.1147 162.74 23.352ZM171.49 23.352C171.106 24.3973 170.498 25.2827 169.666 26.008C168.834 26.712 168.055 27.192 167.33 27.448C166.626 27.704 165.986 27.832 165.41 27.832C163.852 27.832 163.073 27.224 163.073 26.008C163.073 24.7707 163.756 23.6507 165.122 22.648C165.762 22.1787 166.455 21.8693 167.202 21.72C167.308 21.72 167.362 21.7627 167.362 21.848C167.362 21.8907 167.34 21.9333 167.298 21.976C166.764 22.3813 166.252 23.0107 165.762 23.864C165.292 24.7173 165.058 25.464 165.058 26.104C165.058 26.744 165.324 27.064 165.858 27.064C166.284 27.064 166.7 26.8933 167.106 26.552C167.532 26.1893 167.852 25.8267 168.066 25.464L168.386 24.952C168.812 24.2693 169.164 23.1813 169.442 21.688C169.74 20.1947 169.932 18.872 170.018 17.72L170.114 15.992C170.114 15.8213 170.082 15.736 170.018 15.736L169.89 15.8L166.722 19.512C166.487 19.7893 166.327 19.928 166.242 19.928C166.135 19.928 166.082 19.8533 166.082 19.704C166.082 19.4267 166.156 19.2133 166.306 19.064L166.594 18.712C169.026 15.9813 170.412 14.328 170.754 13.752C171.074 13.2613 171.543 12.8347 172.161 12.472C172.759 12.1307 173.463 11.96 174.274 11.96C174.487 11.96 174.594 12.0453 174.594 12.216C174.594 12.3227 174.508 12.4187 174.338 12.504C174.274 12.5253 174.188 12.5787 174.082 12.664C173.996 12.728 173.826 12.8987 173.57 13.176C173.335 13.4533 173.122 13.7733 172.93 14.136C172.738 14.4987 172.567 15.0107 172.418 15.672C172.268 16.312 172.194 17.0267 172.194 17.816C172.194 20.2693 171.959 22.1147 171.49 23.352ZM186.672 15.736C186.864 15.7787 186.96 15.8427 186.96 15.928C186.96 16.056 186.874 16.2053 186.704 16.376C186.469 16.6107 186.117 16.92 185.648 17.304C185.2 17.688 184.933 17.9227 184.848 18.008L184.4 18.616C183.952 19.8747 183.258 21.1867 182.32 22.552C181.402 23.896 180.272 25.08 178.928 26.104C177.605 27.128 176.336 27.64 175.12 27.64C173.605 27.64 172.848 26.712 172.848 24.856C172.848 23.2133 173.381 21.4427 174.448 19.544C175.514 17.624 176.89 15.992 178.576 14.648C180.282 13.2827 181.957 12.6 183.6 12.6C184.794 12.6 185.392 13.0693 185.392 14.008C185.392 14.52 185.136 15.2133 184.624 16.088C184.602 16.1093 184.592 16.1413 184.592 16.184C184.592 16.2267 184.613 16.248 184.656 16.248C185.445 15.928 186.117 15.7573 186.672 15.736ZM183.632 16.504C183.802 15.7573 183.888 15.1813 183.888 14.776C183.888 13.88 183.589 13.432 182.992 13.432C182.16 13.432 181.125 14.2 179.888 15.736C178.65 17.272 177.584 19 176.688 20.92C175.813 22.84 175.376 24.3547 175.376 25.464C175.376 26.2747 175.664 26.68 176.24 26.68C177.136 26.68 178.202 25.784 179.44 23.992C180.698 22.2 181.456 20.3973 181.712 18.584C181.69 18.5413 181.68 18.4773 181.68 18.392C181.68 17.7733 182.234 17.2187 183.344 16.728C183.514 16.664 183.61 16.5893 183.632 16.504Z" fill="white"/>
</svg>