<svg width="28" height="18" viewBox="0 0 28 18" fill="none" xmlns="http://www.w3.org/2000/svg">
<path d="M22.3921 9.57509C20.6864 9.79779 19.0159 10.223 17.4186 10.8411C16.8794 11.0486 16.3474 11.2776 15.8227 11.5279C14.5973 12.1133 13.4706 12.1195 12.2247 11.5476C11.6607 11.2883 11.0911 11.0528 10.516 10.8411C7.6324 9.77284 4.54545 9.30964 1.46127 9.48245L2.35854 10.8411C2.83153 11.5575 3.30965 12.2838 3.78905 13.0088C3.94928 13.2559 4.11848 13.4881 4.28511 13.7277C4.40048 13.8512 7.89599 17.4801 12.9399 17.9495C13.6505 18.0168 14.3662 18.0168 15.0767 17.9495C17.6634 17.7025 20.5462 16.5365 23.5265 13.7228L25.5504 10.8362L25.6658 10.6694C25.9529 10.2557 26.2824 9.86782 26.5374 9.53803C25.1556 9.5405 23.7508 9.39722 22.3921 9.57509Z" fill="white"/>
<path d="M24.3622 5.2409C24.2071 5.63121 24.1058 6.01412 23.9097 6.34391C23.7815 6.56624 23.4931 6.86762 23.3009 6.85279C23.056 6.83427 22.7343 6.57488 22.6253 6.34144C22.3023 5.64975 22.0947 4.90989 21.7858 4.21325C21.6672 3.96573 21.4634 3.76539 21.2089 3.64631C20.5078 3.34987 19.763 3.15225 19.0657 2.84593C18.8183 2.73724 18.4838 2.42103 18.5056 2.22835C18.5325 1.98132 18.8337 1.70711 19.0901 1.55766C19.4285 1.3588 19.8361 1.26986 20.2668 1.11547C19.6567 0.285439 18.8799 -0.0233557 17.9044 0.0223452C17.1827 0.0556946 16.6226 0.360781 16.0522 0.757268C15.4818 1.15375 14.8409 1.53171 14.1718 1.71452C13.4283 1.91585 12.7887 1.46749 12.199 1.02777C11.7671 0.702921 11.3248 0.317551 10.8211 0.163155C9.66105 -0.18516 8.58817 -0.00358677 7.76396 0.978367C5.57291 3.56365 3.02643 5.84915 0.194837 7.77176C0.117838 7.85146 0.0523059 7.94078 0 8.03731C1.08185 8.10895 2.08167 8.21641 3.08405 8.23494C6.33602 8.29793 9.51364 7.9879 12.4567 6.47113C13.4821 5.94495 14.5486 6.024 15.5997 6.50818C16.322 6.85921 17.068 7.16293 17.8326 7.41726C20.8577 8.34611 23.9623 8.38316 27.0873 8.0966C27.3681 8.07066 27.6462 8.02496 28 7.97309L24.3622 5.2409Z" fill="white"/>
<path d="M14.8973 10.5558C15.51 10.273 16.1342 10.0136 16.7649 9.77271C17.4199 9.52568 18.089 9.3083 18.6966 9.09708C17.3942 8.57708 16.1073 8.01261 14.7793 7.5593C14.2824 7.39404 13.7438 7.38495 13.2412 7.53336C11.8696 7.99778 10.5417 8.58078 9.29573 9.07855C10.4724 9.53803 11.776 10.0272 13.0604 10.5607C13.6898 10.8214 14.2756 10.8411 14.8973 10.5558Z" fill="white"/>
<path d="M23.2919 4.41335C23.4611 3.08432 24.2968 2.46797 25.553 2.19006C24.2033 2.00726 23.5393 1.23898 23.2457 0.00134945C23.0612 1.28962 22.3177 1.96897 21.0077 2.20488C22.3228 2.42721 23.0253 3.17201 23.2919 4.41335Z" fill="white"/>
</svg>
