<svg width="26" height="26" viewBox="0 0 26 26" fill="none" xmlns="http://www.w3.org/2000/svg">
<path d="M4.67564 15.0149C2.02989 13.4604 0.641715 11.2108 0.919558 8.23054C1.23486 4.85931 3.2729 2.761 6.58308 1.75751C6.29743 1.56175 6.07995 1.31655 6.07526 0.947743C6.06902 0.447256 6.4478 0.0224513 6.95978 0.0123608C7.82696 -0.00412027 8.69413 -0.00412027 9.56131 0.0123608C9.96975 0.0209377 10.2575 0.244441 10.399 0.623843C10.4643 0.794926 10.474 0.981285 10.4268 1.15788C10.3797 1.33447 10.2779 1.49284 10.1352 1.6117C10.0832 1.6566 10.0311 1.69646 9.96299 1.74842C13.0526 2.61872 15.0791 4.51473 15.6208 7.61553C16.165 10.7315 14.8851 13.1491 12.1795 14.8983C12.5671 15.0497 12.9599 15.1874 13.3398 15.3564C14.4818 15.865 15.4891 16.5501 16.2467 17.5395C17.625 19.3391 17.4954 21.5757 15.9304 23.229C14.7165 24.5115 13.1878 25.2562 11.4698 25.6538C8.86826 26.2562 6.31877 26.0882 3.85928 25.0266C2.77913 24.5574 1.82437 23.9081 1.07877 23.0035C-0.435837 21.163 -0.347385 18.8755 1.29262 17.1329C2.14592 16.2247 3.19069 15.6036 4.35357 15.1496C4.44203 15.1153 4.531 15.0835 4.61945 15.0487C4.63909 15.0389 4.65788 15.0276 4.67564 15.0149ZM8.30633 14.0088C11.3834 13.9998 13.793 11.7854 13.8273 8.86775C13.8352 8.16066 13.6987 7.45904 13.4256 6.80335C13.1525 6.14766 12.7483 5.55087 12.2362 5.04739C11.7241 4.54391 11.1144 4.1437 10.442 3.86983C9.76968 3.59596 9.04807 3.45385 8.31882 3.45169C5.30365 3.4416 2.80619 5.85373 2.79994 8.78098C2.7937 11.7082 5.20375 14.0033 8.30633 14.0088ZM8.78345 23.6256C9.37348 23.6452 10.2471 23.5343 11.1051 23.3158C12.371 22.9939 13.5359 22.4889 14.4241 21.5096C15.3263 20.5147 15.3804 19.2463 14.5573 18.1883C14.0271 17.5067 13.3221 17.0385 12.5281 16.7045C10.2799 15.7606 7.9697 15.6707 5.62156 16.2908C4.52111 16.5814 3.51536 17.0547 2.70785 17.8609C1.55381 19.0142 1.53404 20.5011 2.69224 21.6499C3.05117 22.002 3.45757 22.3054 3.90039 22.5519C5.31354 23.3425 6.86665 23.6215 8.78345 23.6256Z" fill="white"/>
<path d="M23.2109 15.8445C23.3867 15.8319 23.5532 15.7885 23.7072 15.8147C24.0715 15.8773 24.2988 16.0932 24.4013 16.4464C24.828 17.9201 25.2624 19.3918 25.6932 20.8645C25.7853 21.1783 25.878 21.4916 25.9638 21.8065C26.0918 22.2772 25.8748 22.6803 25.3998 22.8155C23.8999 23.2373 22.3978 23.6527 20.8934 24.0617C20.3606 24.206 19.9699 23.9683 19.8138 23.4386C19.2977 21.6849 18.7822 19.9306 18.2674 18.1759C18.1114 17.6381 18.2997 17.2829 18.8356 17.0821L18.9433 17.0422C18.6868 16.1613 18.4345 15.2931 18.1816 14.4253C18.1556 14.337 18.1259 14.2502 18.101 14.1614C17.9828 13.7366 18.1675 13.3617 18.6098 13.2326C19.5512 12.9571 20.4975 12.6969 21.4486 12.4521C21.881 12.3401 22.24 12.5676 22.3628 12.9854C22.6247 13.8774 22.886 14.7699 23.1469 15.6629C23.1651 15.7239 23.1901 15.785 23.2109 15.8445ZM19.7472 17.8656C19.4631 18.0114 19.3695 18.2344 19.4803 18.6224C19.8814 20.026 20.2883 21.4281 20.7103 22.8256C20.7623 23.0002 20.896 23.1677 21.0324 23.2988C21.1884 23.4502 21.407 23.3952 21.4678 23.1939C21.5199 23.0244 21.5464 22.8216 21.5001 22.6556C21.104 21.2429 20.6955 19.8336 20.2748 18.4277C20.1978 18.1678 20.0563 17.9317 19.7472 17.8656Z" fill="white"/>
<path d="M21.3232 11.3724C21.3232 11.7503 21.1062 12.0545 20.7509 12.159C20.1572 12.333 19.5604 12.499 18.9605 12.6524C18.7686 12.6994 18.5654 12.6733 18.3927 12.5794C18.2201 12.4856 18.0911 12.3311 18.0323 12.1479C17.8049 11.4037 17.6009 10.6519 17.4079 9.89818C17.2841 9.41132 17.4162 8.95523 17.7393 8.57633C18.0692 8.18936 18.4313 7.82661 18.7997 7.47294C19.038 7.24338 19.3346 7.24792 19.5869 7.48807C19.7923 7.67972 19.97 7.89748 20.1151 8.13538C20.691 9.10861 21.0115 10.1782 21.3118 11.2528C21.3209 11.292 21.3247 11.3322 21.3232 11.3724Z" fill="white"/>
<path d="M5.15211 17.681C4.29153 18.7263 4.45178 19.2293 4.86802 19.6012C4.90445 19.4841 4.93358 19.3772 4.97209 19.2727C5.17657 18.694 5.59645 18.2864 6.12092 17.9847C7.10615 17.4117 8.23716 17.1178 9.38584 17.1361C10.6346 17.1522 11.8588 17.298 12.9411 17.9721C13.2647 18.1658 13.5618 18.3982 13.8256 18.6638C14.3511 19.2187 14.3646 19.8186 13.8938 20.421C13.4473 20.9921 12.8381 21.3292 12.1247 21.4891C12.0508 21.5052 11.9686 21.4891 11.8531 21.4891C12.2694 20.8963 12.797 20.3287 12.1419 19.5684C11.9915 20.3055 11.5482 20.7939 10.9452 21.1531C10.1392 21.6354 9.25576 21.9013 8.31245 22.0062C7.22657 22.1268 6.16775 21.9977 5.13234 21.698C4.40551 21.4889 3.75463 21.0845 3.25508 20.5315C2.66921 19.8872 2.7072 19.1466 3.32532 18.5301C3.68891 18.1549 4.15184 17.8839 4.66354 17.7465C4.80819 17.7062 4.96064 17.7062 5.15211 17.681Z" fill="white"/>
</svg>
