<svg width="29" height="57" viewBox="0 0 29 57" fill="none" xmlns="http://www.w3.org/2000/svg">
<path d="M21.766 13.9197C16.6471 13.8944 11.5282 13.8989 6.40933 13.9332C5.62118 13.9332 4.83561 14.2169 4.04746 14.3691L2.36059 15.2949C2.17174 15.4251 1.991 15.5657 1.8193 15.716C0.245569 17.2484 -0.222434 19.1036 0.0925684 21.1798C0.735431 25.4145 1.36158 29.6517 2.04558 33.8816C2.14844 34.5163 2.5303 35.1094 2.7823 35.7233L3.9086 36.487L5.42832 36.8345C6.25119 43.3206 7.0792 49.8505 7.91234 56.4242H20.2656C20.6899 53.1398 21.1154 49.88 21.5294 46.6189C21.946 43.3394 22.351 40.0575 22.7535 36.8308L24.2526 36.5091C24.5602 36.4277 24.8458 36.2838 25.0898 36.0874C25.3339 35.891 25.5308 35.6466 25.6669 35.3709C25.7955 35.0934 25.9665 34.8258 26.0256 34.5372C26.1876 33.7367 26.3085 32.9275 26.4319 32.1196C26.8125 29.6566 27.1892 27.1924 27.5621 24.727C27.7819 23.272 28.0764 21.822 28.1934 20.3596C28.4749 16.8591 25.5525 13.9382 21.766 13.9197ZM17.464 27.9451L18.9117 30.0176L14.1108 33.0749L9.29964 30.0225L10.7512 27.9353L12.757 29.1876V26.8744C11.0521 26.3931 9.74836 25.401 9.01164 23.8049C8.50122 22.7095 8.40754 21.4783 8.74678 20.324C9.43078 17.8844 11.7618 16.3201 14.5017 16.4318C16.9137 16.5313 19.1676 18.4074 19.5623 20.7697C19.948 23.0522 19.0107 25.6969 15.4865 26.8867V29.1508L17.464 27.9451Z" fill="white"/>
<path d="M14.0967 12.7324C17.752 12.7324 20.7477 9.86671 20.7554 6.3478C20.7507 4.66331 20.0469 3.04933 18.7983 1.85948C17.5497 0.669636 15.858 0.000968678 14.0941 0C10.4234 0 7.40063 2.88046 7.42891 6.36009C7.4572 9.87532 10.4426 12.7275 14.0967 12.7324Z" fill="white"/>
<path d="M17.0127 21.7323C17.0256 20.2111 15.6498 18.8887 14.0761 18.9084C13.3096 18.925 12.5804 19.2276 12.0445 19.7512C11.5087 20.2749 11.2087 20.9781 11.2089 21.7102C11.2024 22.0732 11.2722 22.4338 11.4142 22.7705C11.5563 23.1073 11.7677 23.4134 12.0359 23.6707C12.3041 23.928 12.6237 24.1312 12.9757 24.2684C13.3277 24.4055 13.705 24.4738 14.0851 24.4691C14.8515 24.4709 15.5879 24.1849 16.1355 23.673C16.6832 23.161 16.9982 22.4641 17.0127 21.7323Z" fill="white"/>
</svg>
