<svg width="28" height="24" viewBox="0 0 28 24" fill="none" xmlns="http://www.w3.org/2000/svg">
<path d="M6.48278 18.2753L0.314368 20.0793L0 18.8059C1.60724 18.3361 3.16634 17.8904 4.71835 17.4192C5.23522 17.2622 5.71952 16.9947 6.24063 16.8533C7.1186 16.6283 7.4627 16.0354 7.46695 15.2077C7.48111 13.2112 7.48961 11.2133 7.44288 9.21686C7.43438 8.88294 7.18515 8.51788 6.96424 8.23348C5.15718 5.89894 3.89143 3.19261 3.25838 0.309862L4.50028 0.00707293C4.60365 0.367881 4.6957 0.698971 4.79199 1.02865C5.63314 3.92926 6.9869 6.54689 9.1634 8.66928C9.721 9.20955 10.3387 9.68429 11.0043 10.0842C13.0208 11.294 15.0741 11.2813 17.1047 10.0941C18.5803 9.23101 19.7061 8.00144 20.6761 6.61763C22.0723 4.62682 23.0013 2.42802 23.5734 0L24.8138 0.264592C24.7629 0.529184 24.7331 0.755573 24.6722 0.972058C23.9743 3.72213 22.6888 6.28863 20.9041 8.49525C20.6924 8.77 20.5567 9.09542 20.5104 9.43901C20.2098 11.5187 20.2404 13.6328 20.601 15.7029C20.6931 16.218 20.9225 16.5094 21.3884 16.6594C23.3142 17.2792 25.2401 17.8975 27.1659 18.5144C27.4109 18.5936 27.6644 18.6446 28 18.7309L27.6828 20.0567L21.5045 18.2597C21.554 18.462 21.6008 18.6502 21.6461 18.8596L20.5826 19.4822C19.0249 16.6099 18.8423 13.572 19.0448 10.3502C15.6462 12.9735 12.3099 12.9169 9.03029 10.3502C8.96091 11.918 8.95807 13.4631 8.80797 14.9841C8.6739 16.5349 8.20116 18.0375 7.42305 19.386C6.3964 19.0804 6.29444 18.9629 6.48278 18.2753Z" fill="white"/>
<path d="M12.1825 22.4408C12.1825 22.4536 12.2717 22.6191 12.3453 22.7889C12.4275 22.9799 12.4997 23.1752 12.6059 23.4454C9.45653 24.4472 6.46295 23.9944 3.43398 22.8639C3.60107 22.4394 3.74268 22.0673 3.8588 21.7716C5.26637 22.0673 6.60456 22.479 7.96541 22.5965C9.32625 22.7139 10.7168 22.5087 12.1825 22.4408Z" fill="white"/>
<path d="M15.363 23.4483L15.8713 22.2541C18.6624 23.0408 21.3473 22.6785 24.0577 21.6513L24.5632 22.8568C21.5285 24.0057 18.535 24.4387 15.363 23.4483Z" fill="white"/>
<path d="M11.3031 6.73082C11.5594 6.38983 11.7973 6.07571 12.0465 5.74037C13.3521 6.37002 14.6224 6.38417 15.9407 5.74037L16.6587 6.67989C15.4918 7.78071 12.8763 7.81891 11.3031 6.73082Z" fill="white"/>
<path d="M11.3328 17.0499L10.03 16.8165L10.2325 13.0471H11.524C11.4589 14.3234 11.3965 15.6194 11.3328 17.0499Z" fill="white"/>
<path d="M9.7185 17.7574L10.9646 18.1224L10.4294 19.5374L9.25262 18.9841C9.4098 18.5681 9.54858 18.2045 9.7185 17.7574Z" fill="white"/>
</svg>
