<svg width="21" height="26" viewBox="0 0 21 26" fill="none" xmlns="http://www.w3.org/2000/svg">
<path d="M13.0387 25.0043C11.2013 26.3238 9.76536 26.3178 8.0795 25.0835C7.30398 25.3687 6.60326 25.7361 5.86613 25.8762C4.67042 26.1169 3.43066 25.8888 2.38947 25.2364C1.34829 24.584 0.580627 23.5544 0.236731 22.349C-0.527961 19.7535 0.605792 17.1023 2.97565 16.0121C3.49824 15.7716 3.76298 15.4346 3.82695 14.8418C4.29639 10.7177 5.10635 6.67387 6.63279 2.81168C7.3217 1.06887 8.76546 0.00816684 10.471 4.65988e-05C12.2081 -0.00807364 13.6646 1.04552 14.3634 2.80964C15.8042 6.44853 16.6033 10.2519 17.0895 14.1354C17.119 14.3698 17.1653 14.6033 17.1751 14.8388C17.1997 15.4082 17.4595 15.7523 17.9782 15.9858C20.2417 17.0008 21.4158 19.4643 20.8598 21.9562C20.3037 24.4481 18.239 26.0711 15.7628 25.9777C14.7728 25.9402 13.8772 25.5981 13.0387 25.0043ZM14.325 23.2442C16.0167 24.4481 18.2665 23.6005 18.7793 21.6202C19.1818 20.0662 18.5136 18.6015 17.0757 17.9458C15.9075 17.4119 15.2619 16.5085 15.1074 15.2052C14.9722 14.0812 14.8141 12.961 14.633 11.8444C14.1655 8.98915 13.452 6.20086 12.3793 3.52118C12.0348 2.66348 11.2967 2.13263 10.4769 2.17323C9.59117 2.21688 8.96327 2.66856 8.62669 3.52423C8.45545 3.96171 8.28913 4.40324 8.13461 4.84377C6.9733 8.13247 6.31589 11.543 5.93305 15.0063C5.77361 16.4506 5.1034 17.42 3.79545 18.0179C2.12238 18.7852 1.59093 20.9878 2.63611 22.5408C3.55532 23.9091 5.56989 24.2532 6.64755 23.2128C6.25979 22.8068 5.77361 22.7428 5.25398 22.7327C5.11398 22.7341 4.97516 22.7063 4.84589 22.6509C4.71662 22.5954 4.5996 22.5135 4.5019 22.4101C4.4042 22.3067 4.32786 22.1839 4.27748 22.0492C4.2271 21.9144 4.20374 21.7706 4.2088 21.6263C4.22455 21.0406 4.65462 20.6113 5.26382 20.5838C6.76368 20.5301 8.06769 21.0761 8.7192 22.4627C9.54098 24.2126 11.4552 24.2329 12.2956 22.4627C12.9609 21.0579 14.2856 20.4965 15.8012 20.6112C16.1332 20.661 16.4329 20.8433 16.6358 21.1188C17.1151 21.8181 16.5797 22.7195 15.7018 22.7367C15.192 22.7418 14.7295 22.824 14.325 23.2442Z" fill="white"/>
</svg>
