<svg width="350" height="68" viewBox="0 0 350 68" fill="none" xmlns="http://www.w3.org/2000/svg">
<path d="M13.8142 47.4684H16.6306C18.2077 47.4684 19.5032 47.1117 20.5171 46.3982C21.531 45.6472 22.0379 44.5582 22.0379 43.1312C22.0379 41.7043 21.5686 40.6341 20.6298 39.9206C19.7285 39.1696 18.2828 38.7941 16.2926 38.7941C15.8044 38.7941 15.3726 38.8128 14.9971 38.8504C14.6216 38.8879 14.2273 38.9443 13.8142 39.0194V47.4684ZM17.6444 54.9599H4.06964V35.0765C4.06964 34.2879 4.29495 33.6871 4.74556 33.274C5.19618 32.8234 5.77822 32.4667 6.4917 32.2038C7.76844 31.7532 9.25172 31.434 10.9415 31.2463C12.6313 31.0209 14.4338 30.9083 16.3489 30.9083C21.531 30.9083 25.4363 32.0161 28.0649 34.2316C30.6935 36.4096 32.0078 39.3386 32.0078 43.0186C32.0078 45.3092 31.3507 47.3558 30.0364 49.1582C28.7596 50.9607 27.0323 52.3876 24.8543 53.4391C22.7139 54.453 20.3106 54.9599 17.6444 54.9599ZM15.5603 52.7632L24.5163 50.9607C25.3425 52.0872 26.1874 53.195 27.051 54.284C27.9147 55.373 28.7221 56.4244 29.4731 57.4383C30.2617 58.4522 30.9752 59.391 31.6135 60.2546C32.2519 61.1183 32.7588 61.8694 33.1344 62.5077C32.7588 63.7845 32.0641 64.7796 31.0503 65.4931C30.0739 66.2065 28.9662 66.5633 27.727 66.5633C26.1123 66.5633 24.8731 66.2065 24.0094 65.4931C23.1833 64.7796 22.4135 63.8408 21.7 62.6767L15.5603 52.7632ZM4.06964 51.1297H13.9269V65.9437C13.5138 66.0563 12.8754 66.169 12.0117 66.2816C11.1481 66.3943 10.2656 66.4506 9.36438 66.4506C7.41171 66.4506 6.04108 66.1127 5.25251 65.4367C4.46393 64.7233 4.06964 63.5028 4.06964 61.7755V51.1297ZM38.3939 41.1035H47.9695V65.662C47.5564 65.7747 46.9556 65.8873 46.167 66C45.3784 66.1127 44.5335 66.169 43.6323 66.169C42.0176 66.169 40.7408 65.6996 39.8021 64.7608C38.8633 63.822 38.3939 62.5453 38.3939 60.9306V41.1035ZM47.9695 56.9314H38.3939V37.1043C38.3939 35.4896 38.8633 34.2128 39.8021 33.274C40.7408 32.3352 42.0176 31.8659 43.6323 31.8659C44.5335 31.8659 45.3784 31.9222 46.167 32.0348C46.9556 32.1475 47.5564 32.2601 47.9695 32.3728V56.9314ZM43.6323 52.4815V44.8211H60.643C60.9059 45.2341 61.1312 45.7598 61.319 46.3982C61.5443 47.0366 61.6569 47.7501 61.6569 48.5386C61.6569 49.928 61.3565 50.9419 60.7557 51.5803C60.1549 52.1811 59.3287 52.4815 58.2773 52.4815H43.6323ZM43.6323 66.169V58.3959H62.4455C62.7084 58.8089 62.9337 59.3534 63.1214 60.0293C63.3467 60.7053 63.4594 61.4375 63.4594 62.2261C63.4594 63.6155 63.159 64.6294 62.5582 65.2677C61.9573 65.8686 61.1312 66.169 60.0798 66.169H43.6323ZM43.6323 39.5826V31.8659H62.2202C62.4831 32.2789 62.7084 32.8046 62.8961 33.443C63.1214 34.0814 63.2341 34.7949 63.2341 35.5834C63.2341 36.9728 62.9337 37.9867 62.3329 38.6251C61.732 39.2635 60.9059 39.5826 59.8545 39.5826H43.6323ZM95.7343 36.8226C95.7343 37.7614 95.4902 38.6063 95.0021 39.3573C94.5139 40.0708 93.9506 40.6341 93.3122 41.0471C92.3735 40.4088 91.3408 39.8643 90.2143 39.4137C89.0877 38.9631 87.7922 38.7377 86.3277 38.7377C84.4126 38.7377 82.7791 39.1508 81.4273 39.9769C80.113 40.7655 79.0991 41.9296 78.3856 43.4692C77.7097 44.9713 77.3717 46.7925 77.3717 48.9329C77.3717 52.2374 78.1978 54.7534 79.8501 56.4807C81.5399 58.2081 83.8681 59.0718 86.8346 59.0718C88.3742 59.0718 89.6698 58.8652 90.7212 58.4522C91.8102 58.0391 92.8429 57.5697 93.8192 57.044C94.4576 57.5322 94.9457 58.1518 95.2837 58.9028C95.6592 59.6538 95.847 60.5175 95.847 61.4938C95.847 62.3575 95.6217 63.1461 95.171 63.8596C94.7204 64.573 93.9506 65.1739 92.8616 65.662C92.1857 65.9624 91.2281 66.2629 89.989 66.5633C88.7498 66.8637 87.2477 67.0139 85.4828 67.0139C82.1032 67.0139 79.024 66.3755 76.2452 65.0988C73.5039 63.822 71.3072 61.8506 69.6549 59.1844C68.0402 56.5183 67.2329 53.1011 67.2329 48.9329C67.2329 45.0276 68.0214 41.7418 69.5986 39.0757C71.1757 36.372 73.2974 34.3255 75.9635 32.9361C78.6672 31.5091 81.6338 30.7956 84.8632 30.7956C87.1538 30.7956 89.1065 31.0585 90.7212 31.5842C92.3359 32.1099 93.5751 32.8234 94.4388 33.7246C95.3025 34.6259 95.7343 35.6585 95.7343 36.8226ZM134.517 48.8766C134.517 52.7819 133.728 56.0865 132.151 58.7901C130.611 61.4938 128.49 63.5404 125.786 64.9298C123.12 66.3192 120.078 67.0139 116.661 67.0139C113.244 67.0139 110.184 66.3192 107.48 64.9298C104.814 63.5404 102.711 61.4938 101.171 58.7901C99.6316 56.0865 98.8618 52.7819 98.8618 48.8766C98.8618 44.9713 99.6504 41.6855 101.228 39.0194C102.805 36.3157 104.926 34.2691 107.592 32.8797C110.296 31.4903 113.319 30.7956 116.661 30.7956C120.003 30.7956 123.026 31.4903 125.73 32.8797C128.433 34.2691 130.574 36.3157 132.151 39.0194C133.728 41.6855 134.517 44.9713 134.517 48.8766ZM124.378 48.8766C124.378 45.5345 123.683 43.0186 122.294 41.3288C120.904 39.6014 119.027 38.7377 116.661 38.7377C114.37 38.7377 112.512 39.5826 111.085 41.2725C109.695 42.9623 109.001 45.497 109.001 48.8766C109.001 52.2938 109.695 54.8473 111.085 56.5371C112.512 58.2269 114.389 59.0718 116.717 59.0718C119.046 59.0718 120.904 58.2269 122.294 56.5371C123.683 54.8473 124.378 52.2938 124.378 48.8766ZM163.592 57.6073C163.104 57.9828 162.466 58.302 161.677 58.5648C160.926 58.8277 160.044 58.9591 159.03 58.9591C157.678 58.9591 156.552 58.7901 155.65 58.4522C154.787 58.1142 154.223 57.5322 153.961 56.706C152.909 53.364 152.045 50.6791 151.37 48.6513C150.694 46.6235 150.168 44.8398 149.792 43.3002H149.511C149.398 45.5158 149.304 47.5435 149.229 49.3835C149.192 51.186 149.154 52.9509 149.116 54.6783C149.116 56.3681 149.079 58.1142 149.004 59.9167C148.966 61.6816 148.891 63.6343 148.778 65.7747C148.29 65.9249 147.652 66.0751 146.863 66.2253C146.075 66.3755 145.286 66.4506 144.498 66.4506C142.883 66.4506 141.606 66.1878 140.667 65.662C139.729 65.1363 139.259 64.1788 139.259 62.7894C139.259 61.8506 139.297 60.5738 139.372 58.9591C139.447 57.3069 139.541 55.4669 139.654 53.4391C139.804 51.3738 139.935 49.2146 140.048 46.9615C140.198 44.7084 140.348 42.4741 140.498 40.2586C140.649 38.043 140.78 35.9777 140.893 34.0626C141.193 33.5744 141.85 33.0487 142.864 32.4854C143.878 31.9222 145.305 31.6405 147.145 31.6405C149.135 31.6405 150.694 31.9597 151.82 32.5981C152.984 33.1989 153.81 34.194 154.299 35.5834C154.749 36.7851 155.237 38.212 155.763 39.8643C156.289 41.479 156.814 43.1312 157.34 44.8211C157.866 46.4733 158.335 47.9566 158.748 49.2709H159.03C159.931 46.1541 160.832 43.1125 161.734 40.1459C162.672 37.1418 163.499 34.6634 164.212 32.7108C164.775 32.4103 165.508 32.1663 166.409 31.9785C167.31 31.7532 168.286 31.6405 169.338 31.6405C171.178 31.6405 172.68 31.9222 173.844 32.4854C175.008 33.0112 175.684 33.781 175.872 34.7949C176.022 35.5459 176.172 36.6912 176.322 38.2308C176.51 39.7704 176.698 41.5353 176.886 43.5255C177.073 45.5158 177.261 47.5999 177.449 49.7778C177.637 51.9183 177.806 54.0024 177.956 56.0301C178.144 58.0579 178.294 59.8979 178.406 61.5502C178.519 63.1649 178.594 64.4416 178.632 65.3804C177.993 65.7559 177.317 66.0188 176.604 66.169C175.928 66.3567 175.046 66.4506 173.957 66.4506C172.567 66.4506 171.366 66.2065 170.352 65.7184C169.375 65.2302 168.85 64.2726 168.775 62.8457C168.624 60.1044 168.512 57.551 168.437 55.1852C168.361 52.8195 168.305 50.6603 168.268 48.7076C168.23 46.7549 168.174 45.0464 168.099 43.5819H167.817C167.441 45.0464 166.897 46.8864 166.184 49.1019C165.47 51.3174 164.606 54.1526 163.592 57.6073ZM194.678 47.6937H197.382C198.921 47.6937 200.16 47.3182 201.099 46.5672C202.076 45.7786 202.564 44.6709 202.564 43.2439C202.564 41.817 202.113 40.728 201.212 39.9769C200.348 39.1884 199.071 38.7941 197.382 38.7941C196.781 38.7941 196.274 38.8128 195.861 38.8504C195.485 38.8504 195.091 38.8879 194.678 38.9631V47.6937ZM198.001 55.4105H184.877V35.0765C184.877 34.2879 185.102 33.6871 185.553 33.274C186.004 32.8234 186.586 32.4667 187.299 32.2038C188.576 31.7532 190.097 31.434 191.862 31.2463C193.626 31.0209 195.204 30.9083 196.593 30.9083C201.738 30.9083 205.68 32.0161 208.422 34.2316C211.201 36.4471 212.59 39.4512 212.59 43.2439C212.59 45.6847 211.989 47.8252 210.787 49.6652C209.586 51.4676 207.896 52.8758 205.718 53.8897C203.54 54.9036 200.968 55.4105 198.001 55.4105ZM184.877 51.1297H194.734V65.9437C194.321 66.0563 193.683 66.169 192.819 66.2816C191.955 66.3943 191.073 66.4506 190.172 66.4506C188.219 66.4506 186.848 66.1127 186.06 65.4367C185.271 64.7233 184.877 63.5028 184.877 61.7755V51.1297ZM217.606 41.1035H227.182V65.662C226.769 65.7747 226.168 65.8873 225.379 66C224.591 66.1127 223.746 66.169 222.844 66.169C221.23 66.169 219.953 65.6996 219.014 64.7608C218.075 63.822 217.606 62.5453 217.606 60.9306V41.1035ZM227.182 56.9314H217.606V37.1043C217.606 35.4896 218.075 34.2128 219.014 33.274C219.953 32.3352 221.23 31.8659 222.844 31.8659C223.746 31.8659 224.591 31.9222 225.379 32.0348C226.168 32.1475 226.769 32.2601 227.182 32.3728V56.9314ZM222.844 52.4815V44.8211H239.855C240.118 45.2341 240.343 45.7598 240.531 46.3982C240.756 47.0366 240.869 47.7501 240.869 48.5386C240.869 49.928 240.569 50.9419 239.968 51.5803C239.367 52.1811 238.541 52.4815 237.489 52.4815H222.844ZM222.844 66.169V58.3959H241.658C241.921 58.8089 242.146 59.3534 242.334 60.0293C242.559 60.7053 242.672 61.4375 242.672 62.2261C242.672 63.6155 242.371 64.6294 241.77 65.2677C241.17 65.8686 240.343 66.169 239.292 66.169H222.844ZM222.844 39.5826V31.8659H241.432C241.695 32.2789 241.921 32.8046 242.108 33.443C242.334 34.0814 242.446 34.7949 242.446 35.5834C242.446 36.9728 242.146 37.9867 241.545 38.6251C240.944 39.2635 240.118 39.5826 239.067 39.5826H222.844ZM248.465 43.4692H257.534C257.684 45.1966 257.778 46.8488 257.815 48.426C257.89 50.0031 257.928 51.5052 257.928 52.9321C257.928 54.3215 257.928 55.6922 257.928 57.044V66C257.552 66.0751 256.933 66.169 256.069 66.2816C255.243 66.3943 254.398 66.4506 253.534 66.4506C251.657 66.4506 250.342 66.1314 249.591 65.4931C248.84 64.8171 248.465 63.6343 248.465 61.9445V43.4692ZM279.388 54.1713H270.32C270.094 51.5427 269.963 49.1207 269.925 46.9052C269.925 44.6896 269.925 42.5868 269.925 40.5965V31.6969C270.339 31.6218 270.958 31.5279 271.784 31.4152C272.61 31.3026 273.455 31.2463 274.319 31.2463C276.197 31.2463 277.511 31.5842 278.262 32.2601C279.013 32.8985 279.388 34.0626 279.388 35.7524V54.1713ZM279.388 51.1297V64.8171C278.863 65.3053 278.093 65.6996 277.079 66C276.103 66.3004 274.92 66.4506 273.53 66.4506C272.141 66.4506 270.827 66.2441 269.588 65.831C268.348 65.418 267.334 64.4228 266.546 62.8457L260.969 51.4676C260.594 50.6791 260.237 49.9468 259.899 49.2709C259.599 48.5574 259.298 47.8252 258.998 47.0741C258.698 46.3231 258.36 45.497 257.984 44.5957L248.465 46.6798V33.612C248.991 32.861 249.798 32.2977 250.887 31.9222C251.976 31.5467 253.14 31.3589 254.379 31.3589C255.769 31.3589 257.083 31.5842 258.322 32.0348C259.599 32.4479 260.613 33.4242 261.364 34.9638L266.996 46.3419C267.372 47.0929 267.71 47.8252 268.01 48.5386C268.348 49.2521 268.668 49.9844 268.968 50.7354C269.306 51.4864 269.644 52.3125 269.982 53.2138L279.388 51.1297ZM297.171 59.0155C299.011 59.0155 300.307 58.715 301.058 58.1142C301.809 57.5134 302.185 56.8375 302.185 56.0865C302.185 55.3354 301.884 54.7534 301.283 54.3403C300.683 53.8897 299.838 53.4766 298.749 53.1011L296.383 52.3125C294.205 51.5615 292.271 50.7729 290.581 49.9468C288.929 49.0831 287.633 47.9754 286.695 46.6235C285.756 45.2717 285.286 43.5068 285.286 41.3288C285.286 38.1369 286.507 35.5834 288.948 33.6683C291.426 31.7532 294.881 30.7956 299.312 30.7956C301.49 30.7956 303.424 31.0022 305.114 31.4152C306.803 31.8283 308.136 32.4667 309.113 33.3304C310.089 34.1565 310.577 35.2267 310.577 36.541C310.577 37.4798 310.352 38.3059 309.901 39.0194C309.451 39.7329 308.906 40.3337 308.268 40.8218C307.442 40.2961 306.334 39.8455 304.945 39.47C303.555 39.0569 302.034 38.8504 300.382 38.8504C298.692 38.8504 297.453 39.0945 296.665 39.5826C295.876 40.0333 295.482 40.6153 295.482 41.3288C295.482 41.8921 295.726 42.3614 296.214 42.737C296.74 43.0749 297.472 43.3941 298.411 43.6945L301.396 44.6521C304.963 45.7786 307.686 47.2431 309.563 49.0456C311.441 50.8105 312.38 53.195 312.38 56.1991C312.38 59.391 311.103 62.0008 308.55 64.0286C306.034 66.0188 302.354 67.0139 297.509 67.0139C295.219 67.0139 293.153 66.7698 291.313 66.2816C289.473 65.7935 288.009 65.0612 286.92 64.0849C285.831 63.1085 285.286 61.9257 285.286 60.5363C285.286 59.4473 285.606 58.5273 286.244 57.7763C286.882 56.9877 287.577 56.3869 288.328 55.9738C289.38 56.7999 290.656 57.5134 292.158 58.1142C293.698 58.715 295.369 59.0155 297.171 59.0155ZM332.302 40.1459H331.964C331.626 41.1974 331.25 42.3427 330.837 43.5819C330.424 44.8211 329.992 46.1354 329.542 47.5248C329.091 48.8766 328.659 50.2848 328.246 51.7493L327.007 58.1142C326.782 58.8652 326.575 59.5975 326.388 60.311C326.237 61.0245 326.068 61.7004 325.881 62.3387C325.73 62.9771 325.58 63.5967 325.43 64.1975C325.28 64.7984 325.13 65.3804 324.979 65.9437C324.491 66.0939 323.947 66.2441 323.346 66.3943C322.745 66.5445 322.032 66.6196 321.205 66.6196C319.328 66.6196 317.92 66.3004 316.981 65.662C316.042 64.9861 315.573 64.0661 315.573 62.902C315.573 62.3763 315.648 61.8506 315.798 61.3249C315.948 60.7991 316.117 60.1795 316.305 59.4661C316.605 58.2644 317.056 56.7248 317.657 54.8473C318.258 52.9321 318.915 50.8856 319.628 48.7076C320.379 46.4921 321.112 44.3329 321.825 42.23C322.576 40.1271 323.252 38.2496 323.853 36.5973C324.454 34.9075 324.904 33.6683 325.205 32.8797C325.843 32.5042 326.819 32.1475 328.134 31.8095C329.448 31.4716 330.744 31.3026 332.02 31.3026C333.898 31.3026 335.569 31.5842 337.033 32.1475C338.498 32.6732 339.418 33.5369 339.793 34.7385C340.469 36.6536 341.183 38.9067 341.934 41.4978C342.722 44.0513 343.511 46.7362 344.3 49.5525C345.126 52.3313 345.914 55.0538 346.665 57.7199C347.416 60.3485 348.073 62.7143 348.637 64.8171C348.186 65.3053 347.51 65.7184 346.609 66.0563C345.708 66.3943 344.637 66.5633 343.398 66.5633C341.558 66.5633 340.282 66.2629 339.568 65.662C338.855 65.0237 338.329 64.0661 337.991 62.7894L336.583 57.382L335.456 51.5803C335.081 50.1158 334.705 48.7076 334.33 47.3558C333.954 46.0039 333.597 44.7272 333.259 43.5255C332.921 42.2863 332.602 41.1598 332.302 40.1459ZM322.783 58.9028L326.669 51.2987H339.061L340.244 58.9028H322.783Z" fill="#1871BF"/>
<path d="M133.294 16.752C131.971 16.816 130.499 16.848 128.878 16.848H128.494C125.486 22.3093 123.694 26.0107 123.118 27.952C123.033 28.208 122.99 28.4427 122.99 28.656C122.99 29.296 123.555 29.616 124.686 29.616C125.155 29.616 125.667 29.5307 126.222 29.36C126.777 29.168 127.449 28.848 128.238 28.4C129.049 27.9307 129.955 27.1947 130.958 26.192C131.961 25.1893 132.985 23.9733 134.03 22.544C134.158 22.3093 134.35 22.192 134.606 22.192C134.777 22.192 134.862 22.2773 134.862 22.448C134.862 22.4907 134.841 22.576 134.798 22.704C133.774 25.328 132.473 27.6747 130.894 29.744C130.766 30.0427 130.446 30.2347 129.934 30.32C128.185 30.4053 126.339 30.448 124.398 30.448C122.179 30.448 120.387 30.3733 119.022 30.224C118.766 30.2027 118.638 30.0533 118.638 29.776C118.638 29.6053 118.681 29.4347 118.766 29.264C119.982 26.5333 122.275 22.384 125.646 16.816L124.206 16.784C123.929 16.784 123.79 16.6987 123.79 16.528C123.79 16.3573 123.875 16.208 124.046 16.08C124.238 15.9307 124.43 15.856 124.622 15.856H126.254L130.126 9.648C130.446 9.072 130.606 8.54933 130.606 8.08C130.606 7.76 130.531 7.48267 130.382 7.248C130.254 7.01333 130.115 6.85333 129.966 6.768L129.742 6.64C129.55 6.53333 129.454 6.416 129.454 6.288C129.454 6.20266 129.486 6.128 129.55 6.064C129.635 6 129.721 5.95733 129.806 5.936L129.934 5.904C132.131 5.776 134.414 5.712 136.782 5.712C138.745 5.712 140.323 5.76533 141.518 5.872C141.838 5.872 141.998 6.01067 141.998 6.288C141.998 6.352 141.966 6.46933 141.902 6.64C141.198 8.41067 140.483 9.79733 139.758 10.8C139.651 10.9067 139.534 10.96 139.406 10.96C139.214 10.96 139.118 10.8213 139.118 10.544C139.225 10.1387 139.278 9.70133 139.278 9.232C139.278 7.48267 138.403 6.608 136.654 6.608H136.526C135.438 6.608 134.659 6.90667 134.19 7.504C133.102 8.848 131.651 11.1627 129.838 14.448C129.625 14.8107 129.358 15.2693 129.038 15.824H133.838C134.051 15.824 134.158 15.888 134.158 16.016C134.158 16.144 134.062 16.2933 133.87 16.464C133.699 16.6347 133.507 16.7307 133.294 16.752ZM141.88 26.352C141.496 27.3973 140.888 28.2827 140.056 29.008C139.224 29.712 138.445 30.192 137.72 30.448C137.016 30.704 136.376 30.832 135.8 30.832C134.243 30.832 133.464 30.224 133.464 29.008C133.464 27.7707 134.147 26.6507 135.512 25.648C136.152 25.1787 136.845 24.8693 137.592 24.72C137.699 24.72 137.752 24.7627 137.752 24.848C137.752 24.8907 137.731 24.9333 137.688 24.976C137.155 25.3813 136.643 26.0107 136.152 26.864C135.683 27.7173 135.448 28.464 135.448 29.104C135.448 29.744 135.715 30.064 136.248 30.064C136.675 30.064 137.091 29.8933 137.496 29.552C137.923 29.1893 138.243 28.8267 138.456 28.464L138.776 27.952C139.203 27.2693 139.555 26.1813 139.832 24.688C140.131 23.1947 140.323 21.872 140.408 20.72L140.504 18.992C140.504 18.8213 140.472 18.736 140.408 18.736L140.28 18.8L137.112 22.512C136.877 22.7893 136.717 22.928 136.632 22.928C136.525 22.928 136.472 22.8533 136.472 22.704C136.472 22.4267 136.547 22.2133 136.696 22.064L136.984 21.712C139.416 18.9813 140.803 17.328 141.144 16.752C141.464 16.2613 141.933 15.8347 142.552 15.472C143.149 15.1307 143.853 14.96 144.664 14.96C144.877 14.96 144.984 15.0453 144.984 15.216C144.984 15.3227 144.899 15.4187 144.728 15.504C144.664 15.5253 144.579 15.5787 144.472 15.664C144.387 15.728 144.216 15.8987 143.96 16.176C143.725 16.4533 143.512 16.7733 143.32 17.136C143.128 17.4987 142.957 18.0107 142.808 18.672C142.659 19.312 142.584 20.0267 142.584 20.816C142.584 23.2693 142.349 25.1147 141.88 26.352ZM150.886 26.896C149.926 27.8133 148.838 28.6773 147.622 29.488C146.427 30.2773 145.414 30.672 144.582 30.672C143.601 30.672 143.11 29.9147 143.11 28.4C143.11 26.8 143.675 25.0293 144.806 23.088C145.937 21.1253 147.366 19.4507 149.094 18.064C150.843 16.6773 152.497 15.984 154.054 15.984C154.886 15.984 155.302 16.2933 155.302 16.912C155.302 17.9787 154.609 19.184 153.222 20.528C153.094 20.656 152.817 20.88 152.39 21.2C151.963 21.52 151.665 21.68 151.494 21.68C151.387 21.68 151.334 21.6267 151.334 21.52L151.43 21.232C152.283 19.7173 152.71 18.5653 152.71 17.776C152.71 17.3493 152.571 17.136 152.294 17.136C151.633 17.136 150.79 17.7867 149.766 19.088C148.763 20.368 147.889 21.84 147.142 23.504C146.395 25.1467 146.022 26.448 146.022 27.408C146.022 28.176 146.299 28.56 146.854 28.56C147.814 28.56 149.019 27.8667 150.47 26.48C151.601 25.4347 153.222 23.7067 155.334 21.296C155.398 21.232 155.451 21.2 155.494 21.2C155.537 21.2 155.558 21.2427 155.558 21.328C155.558 21.7333 155.398 22.128 155.078 22.512C153.499 24.2613 152.102 25.7227 150.886 26.896ZM166.281 18.736C166.473 18.7787 166.569 18.8427 166.569 18.928C166.569 19.056 166.484 19.2053 166.313 19.376C166.078 19.6107 165.726 19.92 165.257 20.304C164.809 20.688 164.542 20.9227 164.457 21.008L164.009 21.616C163.561 22.8747 162.868 24.1867 161.929 25.552C161.012 26.896 159.881 28.08 158.537 29.104C157.214 30.128 155.945 30.64 154.729 30.64C153.214 30.64 152.457 29.712 152.457 27.856C152.457 26.2133 152.99 24.4427 154.057 22.544C155.124 20.624 156.5 18.992 158.185 17.648C159.892 16.2827 161.566 15.6 163.209 15.6C164.404 15.6 165.001 16.0693 165.001 17.008C165.001 17.52 164.745 18.2133 164.233 19.088C164.212 19.1093 164.201 19.1413 164.201 19.184C164.201 19.2267 164.222 19.248 164.265 19.248C165.054 18.928 165.726 18.7573 166.281 18.736ZM163.241 19.504C163.412 18.7573 163.497 18.1813 163.497 17.776C163.497 16.88 163.198 16.432 162.601 16.432C161.769 16.432 160.734 17.2 159.497 18.736C158.26 20.272 157.193 22 156.297 23.92C155.422 25.84 154.985 27.3547 154.985 28.464C154.985 29.2747 155.273 29.68 155.849 29.68C156.745 29.68 157.812 28.784 159.049 26.992C160.308 25.2 161.065 23.3973 161.321 21.584C161.3 21.5413 161.289 21.4773 161.289 21.392C161.289 20.7733 161.844 20.2187 162.953 19.728C163.124 19.664 163.22 19.5893 163.241 19.504ZM172.734 14.416C174.249 13.3493 175.603 12.144 176.798 10.8C178.014 9.43467 178.931 8.18667 179.55 7.056C180.19 5.904 180.67 4.912 180.99 4.08C181.31 3.248 181.47 2.65067 181.47 2.288C181.47 2.07467 181.395 1.968 181.246 1.968C180.947 1.968 180.585 2.18133 180.158 2.608C179.347 3.41867 178.43 4.592 177.406 6.128C176.382 7.664 175.55 8.98667 174.91 10.096C174.291 11.184 173.481 12.6453 172.478 14.48C172.563 14.48 172.649 14.4587 172.734 14.416ZM169.31 25.168C170.206 24.272 171.39 22.9813 172.862 21.296C172.926 21.232 172.979 21.2 173.022 21.2C173.065 21.2 173.086 21.2427 173.086 21.328C173.086 21.7333 172.926 22.128 172.606 22.512C171.027 24.2613 169.63 25.7227 168.414 26.896C165.747 29.4133 164.051 30.672 163.326 30.672C163.006 30.672 162.846 30.448 162.846 30C162.846 29.7653 162.878 29.5093 162.942 29.232C162.985 28.9547 163.07 28.656 163.198 28.336C163.326 27.9947 163.433 27.7173 163.518 27.504C163.625 27.2693 163.763 26.9493 163.934 26.544C164.126 26.1173 164.254 25.8293 164.318 25.68C164.915 24.336 166.75 20.7947 169.822 15.056C174.025 7.39733 177.886 2.69333 181.406 0.943998C181.918 0.687999 182.43 0.559999 182.942 0.559999C183.539 0.559999 183.838 0.837332 183.838 1.392C183.838 2.672 183.401 4.08 182.526 5.616C181.651 7.13067 180.585 8.528 179.326 9.808C178.067 11.088 176.83 12.208 175.614 13.168C174.419 14.128 173.385 14.8533 172.51 15.344C172.382 15.3867 172.265 15.4827 172.158 15.632C171.219 17.1467 170.302 18.7787 169.406 20.528C168.51 22.256 167.838 23.6213 167.39 24.624L166.75 26.096C166.643 26.416 166.59 26.6293 166.59 26.736C166.59 26.928 166.665 27.024 166.814 27.024C167.241 27.024 168.073 26.4053 169.31 25.168ZM182.348 25.168C183.244 24.272 184.428 22.9813 185.9 21.296C185.964 21.232 186.017 21.2 186.06 21.2C186.103 21.2 186.124 21.2427 186.124 21.328C186.124 21.7333 185.964 22.128 185.644 22.512C184.065 24.2613 182.668 25.7227 181.452 26.896C178.892 29.264 177.207 30.448 176.396 30.448C176.076 30.448 175.916 30.2453 175.916 29.84C175.916 29.072 176.353 27.9093 177.228 26.352C178.103 24.7733 178.967 23.312 179.82 21.968C180.695 20.6027 181.132 19.8027 181.132 19.568C181.132 19.44 181.068 19.376 180.94 19.376C180.428 19.376 179.457 20.1653 178.028 21.744C176.599 23.3227 175.393 24.7413 174.412 26C173.324 27.3653 172.375 28.4533 171.564 29.264C170.775 30.0747 170.252 30.5333 169.996 30.64L169.58 30.832C169.388 30.832 169.292 30.7253 169.292 30.512C169.292 30.1707 169.484 29.5627 169.868 28.688C170.252 27.8133 170.636 27.024 171.02 26.32L171.596 25.264L176.588 16.304C180.513 9.37067 183.607 4.44267 185.868 1.52C186.508 0.666665 186.956 0.239998 187.212 0.239998C187.34 0.239998 187.404 0.325331 187.404 0.495998C187.404 0.943999 187.063 1.86133 186.38 3.248C183.031 9.28533 180.705 13.4667 179.404 15.792C178.615 17.2 177.9 18.4587 177.26 19.568C176.62 20.656 176.161 21.424 175.884 21.872C175.628 22.32 175.404 22.7147 175.212 23.056C175.02 23.376 174.871 23.6533 174.764 23.888C174.743 23.952 174.732 24.016 174.732 24.08C174.732 24.1867 174.753 24.24 174.796 24.24C174.839 24.24 174.924 24.176 175.052 24.048C179.831 18.736 182.967 16.08 184.46 16.08C184.759 16.08 184.908 16.2293 184.908 16.528C184.908 16.6133 184.865 16.8053 184.78 17.104C184.695 17.3813 184.449 17.9573 184.044 18.832C183.639 19.7067 183.105 20.6773 182.444 21.744C182.039 22.3413 181.527 23.1947 180.908 24.304C180.289 25.4133 179.98 26.1387 179.98 26.48C179.98 26.672 180.076 26.768 180.268 26.768C180.332 26.768 180.417 26.7467 180.524 26.704C180.652 26.64 180.791 26.544 180.94 26.416C181.089 26.288 181.217 26.1707 181.324 26.064C181.452 25.9573 181.623 25.808 181.836 25.616C182.071 25.4027 182.241 25.2533 182.348 25.168ZM192.171 27.984C190.401 29.6053 189.185 30.416 188.523 30.416C188.225 30.416 188.075 30.2453 188.075 29.904C188.075 29.4773 188.257 28.8267 188.619 27.952C189.003 27.0773 189.387 26.3093 189.771 25.648L190.347 24.656C190.433 24.5067 190.475 24.4107 190.475 24.368C190.475 24.3253 190.454 24.304 190.411 24.304C190.326 24.304 190.166 24.4213 189.931 24.656C189.291 25.36 188.555 26.1173 187.723 26.928C186.913 27.7173 186.251 28.336 185.739 28.784L185.003 29.424C184.171 30.064 183.531 30.384 183.083 30.384C182.614 30.384 182.379 30.0213 182.379 29.296C182.379 28.9333 182.486 28.3787 182.699 27.632C182.891 26.8853 183.041 26.384 183.147 26.128C183.638 24.9333 184.246 23.7707 184.971 22.64C185.718 21.5093 186.593 20.432 187.595 19.408C188.598 18.3627 189.761 17.52 191.083 16.88C192.427 16.24 193.814 15.92 195.243 15.92C196.438 15.92 197.035 16.1013 197.035 16.464C197.035 16.6773 196.769 16.784 196.235 16.784C194.273 16.784 192.427 17.6267 190.699 19.312C188.993 20.976 187.606 22.896 186.539 25.072C186.241 25.6693 186.091 26.1707 186.091 26.576C186.091 26.8107 186.166 26.928 186.315 26.928C186.571 26.928 186.902 26.7467 187.307 26.384C187.563 26.1493 187.905 25.84 188.331 25.456C188.779 25.072 189.494 24.336 190.475 23.248C191.457 22.16 192.235 21.1467 192.811 20.208C192.897 20.0373 193.025 19.8347 193.195 19.6C193.387 19.3653 193.739 19.056 194.251 18.672C194.763 18.2667 195.275 18.064 195.787 18.064C196.065 18.064 196.203 18.1387 196.203 18.288C196.203 18.3307 196.171 18.4053 196.107 18.512C196.022 18.6827 195.777 19.1093 195.371 19.792C194.987 20.4747 194.625 21.1253 194.283 21.744C193.942 22.3413 193.579 23.0027 193.195 23.728C192.811 24.432 192.502 25.04 192.267 25.552C192.054 26.064 191.947 26.4053 191.947 26.576C191.947 26.704 192.001 26.768 192.107 26.768C192.427 26.768 193.206 26.1493 194.443 24.912C195.382 23.9307 196.481 22.7253 197.739 21.296C197.803 21.232 197.857 21.2 197.899 21.2C197.942 21.2 197.963 21.2427 197.963 21.328C197.963 21.7333 197.803 22.128 197.483 22.512C195.393 24.8373 193.622 26.6613 192.171 27.984ZM208.005 26.352C207.621 27.3973 207.013 28.2827 206.181 29.008C205.349 29.712 204.57 30.192 203.845 30.448C203.141 30.704 202.501 30.832 201.925 30.832C200.368 30.832 199.589 30.224 199.589 29.008C199.589 27.7707 200.272 26.6507 201.637 25.648C202.277 25.1787 202.97 24.8693 203.717 24.72C203.824 24.72 203.877 24.7627 203.877 24.848C203.877 24.8907 203.856 24.9333 203.813 24.976C203.28 25.3813 202.768 26.0107 202.277 26.864C201.808 27.7173 201.573 28.464 201.573 29.104C201.573 29.744 201.84 30.064 202.373 30.064C202.8 30.064 203.216 29.8933 203.621 29.552C204.048 29.1893 204.368 28.8267 204.581 28.464L204.901 27.952C205.328 27.2693 205.68 26.1813 205.957 24.688C206.256 23.1947 206.448 21.872 206.533 20.72L206.629 18.992C206.629 18.8213 206.597 18.736 206.533 18.736L206.405 18.8L203.237 22.512C203.002 22.7893 202.842 22.928 202.757 22.928C202.65 22.928 202.597 22.8533 202.597 22.704C202.597 22.4267 202.672 22.2133 202.821 22.064L203.109 21.712C205.541 18.9813 206.928 17.328 207.269 16.752C207.589 16.2613 208.058 15.8347 208.677 15.472C209.274 15.1307 209.978 14.96 210.789 14.96C211.002 14.96 211.109 15.0453 211.109 15.216C211.109 15.3227 211.024 15.4187 210.853 15.504C210.789 15.5253 210.704 15.5787 210.597 15.664C210.512 15.728 210.341 15.8987 210.085 16.176C209.85 16.4533 209.637 16.7733 209.445 17.136C209.253 17.4987 209.082 18.0107 208.933 18.672C208.784 19.312 208.709 20.0267 208.709 20.816C208.709 23.2693 208.474 25.1147 208.005 26.352ZM216.435 24.656L217.427 22.96C217.427 22.896 217.406 22.864 217.363 22.864C217.32 22.864 217.267 22.896 217.203 22.96C216.414 23.8773 215.592 24.7733 214.739 25.648C213.886 26.5013 213.235 27.1307 212.787 27.536L212.083 28.144C210.419 29.7227 209.267 30.512 208.627 30.512C208.328 30.512 208.179 30.32 208.179 29.936C208.179 29.5093 208.36 28.8587 208.723 27.984C209.064 27.1093 209.416 26.3307 209.779 25.648L210.291 24.656C212.083 21.3067 213.406 19.0667 214.259 17.936C214.686 17.3813 215.208 16.9227 215.827 16.56C216.446 16.176 216.926 15.984 217.267 15.984C217.48 15.984 217.587 16.0587 217.587 16.208C217.587 16.2933 217.544 16.4107 217.459 16.56C217.416 16.6453 216.979 17.36 216.147 18.704C215.315 20.0267 214.643 21.168 214.131 22.128C212.723 24.7093 212.019 26.192 212.019 26.576C212.019 26.7253 212.083 26.8 212.211 26.8C212.403 26.8 212.734 26.608 213.203 26.224C214.59 25.0293 216.115 23.4187 217.779 21.392C218.696 20.4107 219.656 19.1307 220.659 17.552C221.342 16.5067 222.248 15.984 223.379 15.984C223.571 15.984 223.667 16.0693 223.667 16.24L223.411 16.848C223.112 17.3813 222.44 18.5547 221.395 20.368C220.371 22.16 219.784 23.184 219.635 23.44C218.76 24.976 218.323 25.9893 218.323 26.48C218.323 26.672 218.387 26.768 218.515 26.768C218.728 26.768 219.411 26.2347 220.563 25.168C221.459 24.272 222.643 22.9813 224.115 21.296C224.179 21.232 224.232 21.2 224.275 21.2C224.318 21.2 224.339 21.2427 224.339 21.328C224.339 21.7333 224.179 22.128 223.859 22.512C222.28 24.2613 220.883 25.7227 219.667 26.896C218.835 27.6853 217.896 28.4747 216.851 29.264C215.827 30.0533 215.08 30.448 214.611 30.448C214.291 30.448 214.131 30.224 214.131 29.776C214.131 29.52 214.323 28.9653 214.707 28.112C215.091 27.2587 215.475 26.4693 215.859 25.744L216.435 24.656ZM230.39 27.984C228.619 29.6053 227.403 30.416 226.742 30.416C226.443 30.416 226.294 30.2453 226.294 29.904C226.294 29.4773 226.475 28.8267 226.838 27.952C227.222 27.0773 227.606 26.3093 227.99 25.648L228.566 24.656C228.651 24.5067 228.694 24.4107 228.694 24.368C228.694 24.3253 228.673 24.304 228.63 24.304C228.545 24.304 228.385 24.4213 228.15 24.656C227.51 25.36 226.774 26.1173 225.942 26.928C225.131 27.7173 224.47 28.336 223.958 28.784L223.222 29.424C222.39 30.064 221.75 30.384 221.302 30.384C220.833 30.384 220.598 30.0213 220.598 29.296C220.598 28.9333 220.705 28.3787 220.918 27.632C221.11 26.8853 221.259 26.384 221.366 26.128C221.857 24.9333 222.465 23.7707 223.19 22.64C223.937 21.5093 224.811 20.432 225.814 19.408C226.817 18.3627 227.979 17.52 229.302 16.88C230.646 16.24 232.033 15.92 233.462 15.92C234.657 15.92 235.254 16.1013 235.254 16.464C235.254 16.6773 234.987 16.784 234.454 16.784C232.491 16.784 230.646 17.6267 228.918 19.312C227.211 20.976 225.825 22.896 224.758 25.072C224.459 25.6693 224.31 26.1707 224.31 26.576C224.31 26.8107 224.385 26.928 224.534 26.928C224.79 26.928 225.121 26.7467 225.526 26.384C225.782 26.1493 226.123 25.84 226.55 25.456C226.998 25.072 227.713 24.336 228.694 23.248C229.675 22.16 230.454 21.1467 231.03 20.208C231.115 20.0373 231.243 19.8347 231.414 19.6C231.606 19.3653 231.958 19.056 232.47 18.672C232.982 18.2667 233.494 18.064 234.006 18.064C234.283 18.064 234.422 18.1387 234.422 18.288C234.422 18.3307 234.39 18.4053 234.326 18.512C234.241 18.6827 233.995 19.1093 233.59 19.792C233.206 20.4747 232.843 21.1253 232.502 21.744C232.161 22.3413 231.798 23.0027 231.414 23.728C231.03 24.432 230.721 25.04 230.486 25.552C230.273 26.064 230.166 26.4053 230.166 26.576C230.166 26.704 230.219 26.768 230.326 26.768C230.646 26.768 231.425 26.1493 232.662 24.912C233.601 23.9307 234.699 22.7253 235.958 21.296C236.022 21.232 236.075 21.2 236.118 21.2C236.161 21.2 236.182 21.2427 236.182 21.328C236.182 21.7333 236.022 22.128 235.702 22.512C233.611 24.8373 231.841 26.6613 230.39 27.984Z" fill="white"/>
</svg>
