<svg width="20" height="20" viewBox="0 0 20 20" fill="none" xmlns="http://www.w3.org/2000/svg">
<path fill-rule="evenodd" clip-rule="evenodd" d="M0 9.99998C0 4.47716 4.47715 0 10 0C15.5228 0 20 4.47716 20 9.99998C20 15.5229 15.5228 20 10 20C4.47715 20 0 15.5229 0 9.99998ZM10 11.0001C9.4477 11.0001 9 10.5524 9 10.0001V6.00007C9 5.44779 9.4477 5.00007 10 5.00007C10.5523 5.00007 11 5.44779 11 6.00007V10.0001C11 10.5524 10.5523 11.0001 10 11.0001ZM8.5 14.0001C8.5 13.1717 9.1716 12.5001 10 12.5001H10.01C10.8384 12.5001 11.51 13.1717 11.51 14.0001V14.0101C11.51 14.8385 10.8384 15.5101 10.01 15.5101H10C9.1716 15.5101 8.5 14.8385 8.5 14.0101V14.0001Z" fill="white"/>
</svg>
