<svg width="274" height="68" viewBox="0 0 274 68" fill="none"
  xmlns="http://www.w3.org/2000/svg">
  <path d="M19.7134 40.2022C20.1264 40.0145 20.7648 39.808 21.6285 39.5826C22.5297 39.3198 23.431 39.1884 24.3322 39.1884C25.9094 39.1884 27.2236 39.4324 28.2751 39.9206C29.3265 40.3712 29.9649 41.0471 30.1902 41.9484C30.7535 44.0137 31.2604 45.8913 31.711 47.5811C32.1616 49.2709 32.5935 50.9044 33.0066 52.4815C33.4572 54.0587 33.889 55.7297 34.3021 57.4946H34.5837C35.0343 54.4154 35.4098 51.524 35.7102 48.8203C36.0482 46.079 36.3674 43.4129 36.6678 40.8218C36.9682 38.1932 37.2686 35.5271 37.569 32.8234C38.996 32.0348 40.4793 31.6405 42.0189 31.6405C43.4083 31.6405 44.6099 31.941 45.6238 32.5418C46.6377 33.1426 47.1446 34.1565 47.1446 35.5834C47.1446 36.4096 47.0507 37.5737 46.863 39.0757C46.7128 40.5778 46.4875 42.2863 46.1871 44.2015C45.9242 46.1166 45.605 48.088 45.2295 50.1158C44.854 52.1436 44.4597 54.115 44.0466 56.0301C43.6336 57.9452 43.2017 59.6538 42.7511 61.1559C42.3381 62.6579 41.9438 63.822 41.5683 64.6482C41.005 65.1363 40.085 65.5682 38.8082 65.9437C37.5315 66.2816 36.2172 66.4506 34.8653 66.4506C33.138 66.4506 31.6547 66.2065 30.4155 65.7184C29.1763 65.2302 28.4253 64.573 28.1624 63.7469C27.862 62.733 27.5241 61.6065 27.1485 60.3673C26.773 59.1281 26.3787 57.7763 25.9657 56.3118C25.5902 54.8097 25.1959 53.2326 24.7828 51.5803C24.4449 53.195 24.0881 54.8097 23.7126 56.4244C23.3371 58.0016 22.9616 59.5036 22.5861 60.9306C22.2481 62.32 21.9289 63.5592 21.6285 64.6482C21.0652 65.1363 20.2203 65.5682 19.0938 65.9437C17.9672 66.2816 16.7281 66.4506 15.3762 66.4506C13.7239 66.4506 12.2031 66.2065 10.8137 65.7184C9.42432 65.2302 8.52309 64.573 8.11003 63.7469C7.73452 62.9208 7.30267 61.6628 6.81451 59.973C6.32634 58.2457 5.8194 56.2742 5.29368 54.0587C4.76796 51.8056 4.26102 49.4774 3.77285 47.0741C3.32224 44.6333 2.90917 42.2488 2.53366 39.9206C2.15814 37.5924 1.87651 35.4896 1.68875 33.612C2.21447 33.1238 2.94672 32.6732 3.88551 32.2601C4.82429 31.8471 5.83817 31.6405 6.92716 31.6405C8.35411 31.6405 9.5182 31.9597 10.4194 32.5981C11.3582 33.1989 11.9403 34.2316 12.1656 35.6961C12.8039 39.5263 13.3109 42.7182 13.6864 45.2717C14.0619 47.8252 14.3623 49.9093 14.5876 51.524C14.8129 53.1387 14.9819 54.4154 15.0946 55.3542C15.2448 56.2554 15.3762 56.9689 15.4889 57.4946H15.7705C16.1085 55.9926 16.4276 54.6032 16.7281 53.3264C17.0285 52.0497 17.3289 50.7729 17.6293 49.4962C17.9672 48.2195 18.3052 46.8301 18.6432 45.328C18.9811 43.8259 19.3379 42.1174 19.7134 40.2022ZM52.5679 41.1035H62.4251V65.9437C62.012 66.0563 61.3736 66.169 60.51 66.2816C59.6463 66.3943 58.7638 66.4506 57.8626 66.4506C55.9099 66.4506 54.5393 66.1127 53.7507 65.4367C52.9621 64.7233 52.5679 63.5028 52.5679 61.7755V41.1035ZM62.4251 54.115H52.5679V31.7532C53.0185 31.6781 53.6756 31.5842 54.5393 31.4716C55.4405 31.3214 56.3042 31.2463 57.1303 31.2463C59.0079 31.2463 60.3597 31.5654 61.1859 32.2038C62.012 32.8422 62.4251 34.0814 62.4251 35.9214V54.115ZM73.2399 41.1035H83.0971V65.9437C82.684 66.0563 82.0456 66.169 81.182 66.2816C80.3183 66.3943 79.4358 66.4506 78.5346 66.4506C76.5819 66.4506 75.2113 66.1127 74.4227 65.4367C73.6341 64.7233 73.2399 63.5028 73.2399 61.7755V41.1035ZM83.0971 54.115H73.2399V31.7532C73.6905 31.6781 74.3476 31.5842 75.2113 31.4716C76.1125 31.3214 76.9762 31.2463 77.8023 31.2463C79.6799 31.2463 81.0317 31.5842 81.8579 32.2601C82.684 32.9361 83.0971 34.194 83.0971 36.0341V54.115ZM78.9289 52.8195H56.7924V45.0464H78.9289V52.8195ZM90.4125 41.1035H100.27V65.9437C99.8567 66.0563 99.2183 66.169 98.3546 66.2816C97.491 66.3943 96.6085 66.4506 95.7073 66.4506C93.7546 66.4506 92.384 66.1127 91.5954 65.4367C90.8068 64.7233 90.4125 63.5028 90.4125 61.7755V41.1035ZM100.27 54.115H90.4125V31.7532C90.8632 31.6781 91.5203 31.5842 92.384 31.4716C93.2852 31.3214 94.1489 31.2463 94.975 31.2463C96.8526 31.2463 98.2044 31.5654 99.0306 32.2038C99.8567 32.8422 100.27 34.0814 100.27 35.9214V54.115ZM114.334 39.7516V31.8659H133.091C133.354 32.2789 133.579 32.8234 133.767 33.4993C133.992 34.1753 134.105 34.9075 134.105 35.6961C134.105 37.0855 133.785 38.1181 133.147 38.7941C132.546 39.4324 131.72 39.7516 130.669 39.7516H114.334ZM124.698 31.8659V39.7516H105.941C105.678 39.3386 105.434 38.7941 105.209 38.1181C105.021 37.4422 104.927 36.71 104.927 35.9214C104.927 34.4944 105.228 33.4618 105.829 32.8234C106.467 32.185 107.312 31.8659 108.363 31.8659H124.698ZM114.447 38.2308H124.304V65.9437C123.891 66.0563 123.252 66.169 122.389 66.2816C121.525 66.3943 120.643 66.4506 119.741 66.4506C117.789 66.4506 116.418 66.1127 115.629 65.4367C114.841 64.7233 114.447 63.5028 114.447 61.7755V38.2308ZM138.874 41.1035H148.449V65.662C148.036 65.7747 147.435 65.8873 146.647 66C145.858 66.1127 145.013 66.169 144.112 66.169C142.497 66.169 141.22 65.6996 140.282 64.7608C139.343 63.822 138.874 62.5453 138.874 60.9306V41.1035ZM148.449 56.9314H138.874V37.1043C138.874 35.4896 139.343 34.2128 140.282 33.274C141.22 32.3352 142.497 31.8659 144.112 31.8659C145.013 31.8659 145.858 31.9222 146.647 32.0348C147.435 32.1475 148.036 32.2601 148.449 32.3728V56.9314ZM144.112 52.4815V44.8211H161.123C161.386 45.2341 161.611 45.7598 161.799 46.3982C162.024 47.0366 162.137 47.7501 162.137 48.5386C162.137 49.928 161.836 50.9419 161.235 51.5803C160.635 52.1811 159.808 52.4815 158.757 52.4815H144.112ZM144.112 66.169V58.3959H162.925C163.188 58.8089 163.413 59.3534 163.601 60.0293C163.826 60.7053 163.939 61.4375 163.939 62.2261C163.939 63.6155 163.639 64.6294 163.038 65.2677C162.437 65.8686 161.611 66.169 160.559 66.169H144.112ZM144.112 39.5826V31.8659H162.7C162.963 32.2789 163.188 32.8046 163.376 33.443C163.601 34.0814 163.714 34.7949 163.714 35.5834C163.714 36.9728 163.413 37.9867 162.812 38.6251C162.212 39.2635 161.386 39.5826 160.334 39.5826H144.112ZM169.732 41.1035H179.59V65.662L174.971 66.169C173.356 66.169 172.079 65.6996 171.141 64.7608C170.202 63.822 169.732 62.5453 169.732 60.9306V41.1035ZM174.971 66.169V58.2269H192.488C192.751 58.6399 192.995 59.1844 193.221 59.8604C193.446 60.5363 193.559 61.2685 193.559 62.0571C193.559 63.4465 193.258 64.4792 192.657 65.1551C192.057 65.831 191.23 66.169 190.179 66.169H174.971ZM179.59 54.115H169.732V31.7532C170.183 31.6781 170.84 31.5842 171.704 31.4716C172.605 31.3214 173.469 31.2463 174.295 31.2463C176.172 31.2463 177.524 31.5654 178.35 32.2038C179.177 32.8422 179.59 34.0814 179.59 35.9214V54.115ZM198.611 41.1035H208.468V65.9437C208.055 66.0563 207.417 66.169 206.553 66.2816C205.689 66.3943 204.807 66.4506 203.906 66.4506C201.953 66.4506 200.582 66.1127 199.794 65.4367C199.005 64.7233 198.611 63.5028 198.611 61.7755V41.1035ZM208.468 54.115H198.611V31.7532C199.062 31.6781 199.719 31.5842 200.582 31.4716C201.484 31.3214 202.347 31.2463 203.173 31.2463C205.051 31.2463 206.403 31.5654 207.229 32.2038C208.055 32.8422 208.468 34.0814 208.468 35.9214V54.115ZM226.25 59.0155C228.09 59.0155 229.385 58.715 230.136 58.1142C230.887 57.5134 231.263 56.8375 231.263 56.0865C231.263 55.3354 230.963 54.7534 230.362 54.3403C229.761 53.8897 228.916 53.4766 227.827 53.1011L225.461 52.3125C223.283 51.5615 221.349 50.7729 219.66 49.9468C218.007 49.0831 216.712 47.9754 215.773 46.6235C214.834 45.2717 214.365 43.5068 214.365 41.3288C214.365 38.1369 215.585 35.5834 218.026 33.6683C220.505 31.7532 223.959 30.7956 228.39 30.7956C230.568 30.7956 232.502 31.0022 234.192 31.4152C235.882 31.8283 237.215 32.4667 238.191 33.3304C239.168 34.1565 239.656 35.2267 239.656 36.541C239.656 37.4798 239.43 38.3059 238.98 39.0194C238.529 39.7329 237.985 40.3337 237.346 40.8218C236.52 40.2961 235.412 39.8455 234.023 39.47C232.634 39.0569 231.113 38.8504 229.461 38.8504C227.771 38.8504 226.532 39.0945 225.743 39.5826C224.954 40.0333 224.56 40.6153 224.56 41.3288C224.56 41.8921 224.804 42.3614 225.292 42.737C225.818 43.0749 226.55 43.3941 227.489 43.6945L230.474 44.6521C234.042 45.7786 236.764 47.2431 238.642 49.0456C240.519 50.8105 241.458 53.195 241.458 56.1991C241.458 59.391 240.181 62.0008 237.628 64.0286C235.112 66.0188 231.432 67.0139 226.588 67.0139C224.297 67.0139 222.232 66.7698 220.392 66.2816C218.552 65.7935 217.087 65.0612 215.998 64.0849C214.909 63.1085 214.365 61.9257 214.365 60.5363C214.365 59.4473 214.684 58.5273 215.322 57.7763C215.961 56.9877 216.656 56.3869 217.407 55.9738C218.458 56.7999 219.735 57.5134 221.237 58.1142C222.776 58.715 224.447 59.0155 226.25 59.0155ZM252.841 39.7516V31.8659H271.598C271.861 32.2789 272.086 32.8234 272.274 33.4993C272.499 34.1753 272.612 34.9075 272.612 35.6961C272.612 37.0855 272.293 38.1181 271.654 38.7941C271.053 39.4324 270.227 39.7516 269.176 39.7516H252.841ZM263.205 31.8659V39.7516H244.448C244.185 39.3386 243.941 38.7941 243.716 38.1181C243.528 37.4422 243.434 36.71 243.434 35.9214C243.434 34.4944 243.735 33.4618 244.336 32.8234C244.974 32.185 245.819 31.8659 246.87 31.8659H263.205ZM252.954 38.2308H262.811V65.9437C262.398 66.0563 261.759 66.169 260.896 66.2816C260.032 66.3943 259.15 66.4506 258.248 66.4506C256.296 66.4506 254.925 66.1127 254.137 65.4367C253.348 64.7233 252.954 63.5028 252.954 61.7755V38.2308Z" fill="#1871BF"/>
  <path d="M96.4538 30.384C95.3871 28.656 94.8538 24.7413 94.8538 18.64L94.8858 16.688C94.8858 16.56 94.9178 16.464 94.9818 16.4C95.0458 16.336 95.1098 16.304 95.1738 16.304L95.2698 16.272C97.0404 16.08 98.6831 15.3653 100.198 14.128C101.734 12.8693 102.502 11.4293 102.502 9.808C102.502 9.168 102.331 8.61333 101.99 8.144C101.67 7.65333 101.232 7.29067 100.678 7.056C100.144 6.8 99.5898 6.61867 99.0138 6.512C98.4591 6.384 97.9044 6.32 97.3498 6.32C96.3684 6.32 95.3978 6.48 94.4378 6.8C93.4778 7.12 92.6351 7.64267 91.9098 8.368C91.1844 9.09333 90.8218 9.94667 90.8218 10.928C90.8218 11.5253 90.9924 12.1227 91.3338 12.72C91.4191 12.9333 91.4618 13.072 91.4618 13.136C91.4618 13.264 91.3978 13.328 91.2698 13.328C91.0778 13.328 90.8324 13.232 90.5338 13.04C89.2111 12.2507 88.5498 11.3013 88.5498 10.192C88.5498 8.74133 89.4351 7.6 91.2058 6.768C92.9978 5.936 95.0991 5.52 97.5098 5.52C98.3204 5.52 99.1098 5.57333 99.8778 5.68C100.667 5.78666 101.51 5.968 102.406 6.224C103.302 6.48 104.016 6.896 104.55 7.472C105.104 8.02667 105.382 8.70933 105.382 9.52C105.382 10.608 104.902 11.6747 103.942 12.72C103.003 13.7653 101.958 14.608 100.806 15.248C99.6538 15.888 98.5658 16.336 97.5418 16.592C97.3924 16.6987 97.3178 16.816 97.3178 16.944C97.3178 17.712 97.3391 18.5867 97.3818 19.568C97.4244 20.528 97.5098 21.8827 97.6378 23.632C97.7871 25.36 98.0538 26.928 98.4378 28.336C98.8431 29.7227 99.3444 30.6933 99.9418 31.248C100.048 31.3547 100.102 31.4507 100.102 31.536C100.102 31.7067 99.8351 31.792 99.3018 31.792C98.6831 31.792 98.1391 31.6747 97.6698 31.44C97.2004 31.2053 96.8804 30.992 96.7098 30.8C96.5604 30.608 96.4751 30.4693 96.4538 30.384ZM89.1898 24.912C88.7418 25.936 88.2511 26.864 87.7178 27.696C87.1844 28.528 86.6938 29.1787 86.2458 29.648C85.7978 30.1173 85.3818 30.512 84.9977 30.832C84.6137 31.152 84.3044 31.3653 84.0697 31.472L83.7497 31.632C83.6217 31.696 83.4937 31.728 83.3657 31.728C83.1311 31.728 83.0137 31.5893 83.0137 31.312L83.1097 30.928C83.3231 30.3307 84.0484 28.8267 85.2858 26.416C86.5444 23.984 87.7284 21.7867 88.8378 19.824C89.8618 17.9893 90.8431 16.2827 91.7818 14.704C92.7418 13.104 93.4351 11.9733 93.8618 11.312L94.5338 10.288C95.0671 9.56267 95.6111 9.008 96.1658 8.624C96.7204 8.24 97.1684 8.048 97.5098 8.048C97.7444 8.048 97.8618 8.13333 97.8618 8.304C97.8618 8.432 97.7764 8.656 97.6058 8.976C97.4564 9.232 96.8591 10.2987 95.8138 12.176C94.7898 14.032 93.5631 16.304 92.1338 18.992C90.7258 21.6587 89.7444 23.632 89.1898 24.912ZM108.581 19.152C108.837 18.6187 108.965 18.1493 108.965 17.744C108.965 17.4027 108.859 17.232 108.645 17.232C108.517 17.232 108.368 17.2747 108.197 17.36C108.048 17.424 107.931 17.4987 107.845 17.584L107.685 17.712C107.024 18.288 106.192 19.344 105.189 20.88C104.208 22.3947 103.717 23.3653 103.717 23.792C103.717 23.8773 103.739 23.92 103.781 23.92C103.909 23.92 104.187 23.8133 104.613 23.6C105.061 23.3867 105.691 22.8853 106.501 22.096C107.333 21.3067 108.027 20.3253 108.581 19.152ZM107.141 26.48C108.272 25.4347 109.893 23.7067 112.005 21.296C112.069 21.232 112.123 21.2 112.165 21.2C112.208 21.2 112.229 21.2427 112.229 21.328C112.229 21.7333 112.069 22.128 111.749 22.512C110.171 24.2613 108.773 25.7227 107.557 26.896C106.661 27.792 105.595 28.656 104.357 29.488C103.12 30.2987 102.096 30.704 101.285 30.704C100.304 30.704 99.8133 30.0213 99.8133 28.656C99.8133 26.3947 100.645 24.0267 102.309 21.552C103.995 19.0773 105.936 17.4027 108.133 16.528C109.051 16.144 109.883 15.952 110.629 15.952C111.461 15.952 111.877 16.2827 111.877 16.944C111.877 18.1813 111.003 19.6 109.253 21.2C107.504 22.8 105.541 24.016 103.365 24.848C103.28 24.8693 103.205 24.944 103.141 25.072C102.821 25.9467 102.661 26.7253 102.661 27.408C102.661 28.176 102.949 28.56 103.525 28.56C104.443 28.56 105.648 27.8667 107.141 26.48ZM118.281 27.984C116.51 29.6053 115.294 30.416 114.633 30.416C114.334 30.416 114.185 30.2453 114.185 29.904C114.185 29.4773 114.366 28.8267 114.729 27.952C115.113 27.0773 115.497 26.3093 115.881 25.648L116.457 24.656C116.542 24.5067 116.585 24.4107 116.585 24.368C116.585 24.3253 116.563 24.304 116.521 24.304C116.435 24.304 116.275 24.4213 116.041 24.656C115.401 25.36 114.665 26.1173 113.833 26.928C113.022 27.7173 112.361 28.336 111.849 28.784L111.113 29.424C110.281 30.064 109.641 30.384 109.193 30.384C108.723 30.384 108.489 30.0213 108.489 29.296C108.489 28.9333 108.595 28.3787 108.809 27.632C109.001 26.8853 109.15 26.384 109.257 26.128C109.747 24.9333 110.355 23.7707 111.081 22.64C111.827 21.5093 112.702 20.432 113.705 19.408C114.707 18.3627 115.87 17.52 117.193 16.88C118.537 16.24 119.923 15.92 121.353 15.92C122.547 15.92 123.145 16.1013 123.145 16.464C123.145 16.6773 122.878 16.784 122.345 16.784C120.382 16.784 118.537 17.6267 116.809 19.312C115.102 20.976 113.715 22.896 112.649 25.072C112.35 25.6693 112.201 26.1707 112.201 26.576C112.201 26.8107 112.275 26.928 112.425 26.928C112.681 26.928 113.011 26.7467 113.417 26.384C113.673 26.1493 114.014 25.84 114.441 25.456C114.889 25.072 115.603 24.336 116.585 23.248C117.566 22.16 118.345 21.1467 118.921 20.208C119.006 20.0373 119.134 19.8347 119.305 19.6C119.497 19.3653 119.849 19.056 120.361 18.672C120.873 18.2667 121.385 18.064 121.897 18.064C122.174 18.064 122.313 18.1387 122.313 18.288C122.313 18.3307 122.281 18.4053 122.217 18.512C122.131 18.6827 121.886 19.1093 121.481 19.792C121.097 20.4747 120.734 21.1253 120.393 21.744C120.051 22.3413 119.689 23.0027 119.305 23.728C118.921 24.432 118.611 25.04 118.377 25.552C118.163 26.064 118.057 26.4053 118.057 26.576C118.057 26.704 118.11 26.768 118.217 26.768C118.537 26.768 119.315 26.1493 120.553 24.912C121.491 23.9307 122.59 22.7253 123.849 21.296C123.913 21.232 123.966 21.2 124.009 21.2C124.051 21.2 124.073 21.2427 124.073 21.328C124.073 21.7333 123.913 22.128 123.593 22.512C121.502 24.8373 119.731 26.6613 118.281 27.984ZM130.125 14.416C131.639 13.3493 132.994 12.144 134.189 10.8C135.405 9.43467 136.322 8.18667 136.941 7.056C137.581 5.904 138.061 4.912 138.381 4.08C138.701 3.248 138.861 2.65067 138.861 2.288C138.861 2.07467 138.786 1.968 138.637 1.968C138.338 1.968 137.975 2.18133 137.549 2.608C136.738 3.41867 135.821 4.592 134.797 6.128C133.773 7.664 132.941 8.98667 132.301 10.096C131.682 11.184 130.871 12.6453 129.869 14.48C129.954 14.48 130.039 14.4587 130.125 14.416ZM126.701 25.168C127.597 24.272 128.781 22.9813 130.253 21.296C130.317 21.232 130.37 21.2 130.413 21.2C130.455 21.2 130.477 21.2427 130.477 21.328C130.477 21.7333 130.317 22.128 129.997 22.512C128.418 24.2613 127.021 25.7227 125.805 26.896C123.138 29.4133 121.442 30.672 120.716 30.672C120.396 30.672 120.236 30.448 120.236 30C120.236 29.7653 120.268 29.5093 120.332 29.232C120.375 28.9547 120.46 28.656 120.588 28.336C120.716 27.9947 120.823 27.7173 120.909 27.504C121.015 27.2693 121.154 26.9493 121.325 26.544C121.517 26.1173 121.645 25.8293 121.709 25.68C122.306 24.336 124.141 20.7947 127.213 15.056C131.415 7.39733 135.277 2.69333 138.797 0.943998C139.309 0.687999 139.821 0.559999 140.333 0.559999C140.93 0.559999 141.229 0.837332 141.229 1.392C141.229 2.672 140.791 4.08 139.917 5.616C139.042 7.13067 137.975 8.528 136.717 9.808C135.458 11.088 134.221 12.208 133.005 13.168C131.81 14.128 130.775 14.8533 129.901 15.344C129.773 15.3867 129.655 15.4827 129.549 15.632C128.61 17.1467 127.693 18.7787 126.797 20.528C125.901 22.256 125.229 23.6213 124.781 24.624L124.141 26.096C124.034 26.416 123.981 26.6293 123.981 26.736C123.981 26.928 124.055 27.024 124.205 27.024C124.631 27.024 125.463 26.4053 126.701 25.168ZM131.635 26.896C129.139 29.2427 127.539 30.416 126.835 30.416C126.472 30.416 126.291 30.1707 126.291 29.68C126.291 29.1893 126.483 28.4747 126.867 27.536C127.251 26.5973 127.635 25.776 128.019 25.072L128.595 24.048C130.216 21.2107 131.443 19.1733 132.275 17.936C132.637 17.4027 133.096 16.9547 133.651 16.592C134.227 16.208 134.76 16.016 135.251 16.016C135.421 16.016 135.507 16.0907 135.507 16.24C135.507 16.3467 135.432 16.5493 135.283 16.848C135.027 17.3173 134.397 18.4373 133.395 20.208C132.392 21.9787 131.795 23.0453 131.603 23.408C130.728 24.944 130.291 25.968 130.291 26.48C130.291 26.672 130.355 26.768 130.483 26.768C130.696 26.768 131.379 26.2347 132.531 25.168C133.427 24.272 134.611 22.9813 136.083 21.296C136.147 21.232 136.2 21.2 136.243 21.2C136.285 21.2 136.307 21.2427 136.307 21.328C136.307 21.7333 136.147 22.128 135.827 22.512C134.248 24.2613 132.851 25.7227 131.635 26.896ZM135.891 14.192C135.357 14.192 135.091 13.872 135.091 13.232C135.091 12.6347 135.315 12.0373 135.763 11.44C136.211 10.8213 136.701 10.512 137.235 10.512C137.875 10.512 138.195 10.8747 138.195 11.6C138.195 12.1973 137.949 12.784 137.459 13.36C136.968 13.9147 136.445 14.192 135.891 14.192ZM147.335 16.624C146.994 17.008 146.322 17.6693 145.319 18.608C144.317 19.5467 143.399 20.3893 142.567 21.136L141.319 22.256C140.103 23.3227 138.983 24.4 137.959 25.488C136.935 26.576 136.21 27.3973 135.783 27.952L135.175 28.784C135.09 28.9333 135.047 29.0613 135.047 29.168C135.047 29.36 135.389 29.456 136.071 29.456C137.287 29.456 138.557 28.816 139.879 27.536C141.479 25.936 142.461 25.136 142.823 25.136C142.93 25.136 142.983 25.232 142.983 25.424C142.066 27.4293 141.362 28.7307 140.871 29.328C140.509 29.7973 140.061 30.064 139.527 30.128C139.122 30.192 138.375 30.224 137.287 30.224C136.861 30.224 136.413 30.2133 135.943 30.192C135.474 30.192 135.069 30.1813 134.727 30.16C134.407 30.16 134.215 30.16 134.151 30.16C133.874 30.16 133.618 30.1813 133.383 30.224C133.17 30.2667 133.021 30.3093 132.935 30.352L132.807 30.416C132.039 30.8853 131.506 31.12 131.207 31.12C131.037 31.12 130.951 31.0347 130.951 30.864C130.951 30.3307 131.325 29.5733 132.071 28.592C132.797 27.5893 133.671 26.5867 134.695 25.584C135.719 24.5813 136.562 23.7707 137.223 23.152C137.906 22.512 138.375 22.096 138.631 21.904C139.783 20.944 140.999 19.8987 142.279 18.768C143.581 17.616 144.231 16.9973 144.231 16.912C144.231 16.784 144.05 16.72 143.687 16.72C141.575 16.7413 139.581 17.7653 137.703 19.792C137.682 19.8133 137.618 19.824 137.511 19.824C137.234 19.824 137.095 19.7707 137.095 19.664C137.095 19.6213 137.234 19.3973 137.511 18.992C137.81 18.5867 138.13 18.1387 138.471 17.648C138.813 17.136 139.026 16.784 139.111 16.592C139.282 16.3573 139.506 16.2293 139.783 16.208C141.575 16.1013 143.271 16.048 144.871 16.048C145.959 16.048 146.717 16.0693 147.143 16.112C147.378 16.1333 147.495 16.208 147.495 16.336C147.495 16.3787 147.442 16.4747 147.335 16.624ZM152.3 19.152C152.556 18.6187 152.684 18.1493 152.684 17.744C152.684 17.4027 152.577 17.232 152.364 17.232C152.236 17.232 152.087 17.2747 151.916 17.36C151.767 17.424 151.649 17.4987 151.564 17.584L151.404 17.712C150.743 18.288 149.911 19.344 148.908 20.88C147.927 22.3947 147.436 23.3653 147.436 23.792C147.436 23.8773 147.457 23.92 147.5 23.92C147.628 23.92 147.905 23.8133 148.332 23.6C148.78 23.3867 149.409 22.8853 150.22 22.096C151.052 21.3067 151.745 20.3253 152.3 19.152ZM150.86 26.48C151.991 25.4347 153.612 23.7067 155.724 21.296C155.788 21.232 155.841 21.2 155.884 21.2C155.927 21.2 155.948 21.2427 155.948 21.328C155.948 21.7333 155.788 22.128 155.468 22.512C153.889 24.2613 152.492 25.7227 151.276 26.896C150.38 27.792 149.313 28.656 148.076 29.488C146.839 30.2987 145.815 30.704 145.004 30.704C144.023 30.704 143.532 30.0213 143.532 28.656C143.532 26.3947 144.364 24.0267 146.028 21.552C147.713 19.0773 149.655 17.4027 151.852 16.528C152.769 16.144 153.601 15.952 154.348 15.952C155.18 15.952 155.596 16.2827 155.596 16.944C155.596 18.1813 154.721 19.6 152.972 21.2C151.223 22.8 149.26 24.016 147.084 24.848C146.999 24.8693 146.924 24.944 146.86 25.072C146.54 25.9467 146.38 26.7253 146.38 27.408C146.38 28.176 146.668 28.56 147.244 28.56C148.161 28.56 149.367 27.8667 150.86 26.48ZM165.99 26.352C165.606 27.3973 164.998 28.2827 164.166 29.008C163.334 29.712 162.555 30.192 161.83 30.448C161.126 30.704 160.486 30.832 159.91 30.832C158.352 30.832 157.573 30.224 157.573 29.008C157.573 27.7707 158.256 26.6507 159.622 25.648C160.262 25.1787 160.955 24.8693 161.702 24.72C161.808 24.72 161.862 24.7627 161.862 24.848C161.862 24.8907 161.84 24.9333 161.798 24.976C161.264 25.3813 160.752 26.0107 160.262 26.864C159.792 27.7173 159.558 28.464 159.558 29.104C159.558 29.744 159.824 30.064 160.358 30.064C160.784 30.064 161.2 29.8933 161.606 29.552C162.032 29.1893 162.352 28.8267 162.566 28.464L162.886 27.952C163.312 27.2693 163.664 26.1813 163.942 24.688C164.24 23.1947 164.432 21.872 164.518 20.72L164.614 18.992C164.614 18.8213 164.582 18.736 164.518 18.736L164.39 18.8L161.222 22.512C160.987 22.7893 160.827 22.928 160.742 22.928C160.635 22.928 160.582 22.8533 160.582 22.704C160.582 22.4267 160.656 22.2133 160.806 22.064L161.094 21.712C163.526 18.9813 164.912 17.328 165.254 16.752C165.574 16.2613 166.043 15.8347 166.661 15.472C167.259 15.1307 167.963 14.96 168.774 14.96C168.987 14.96 169.094 15.0453 169.094 15.216C169.094 15.3227 169.008 15.4187 168.838 15.504C168.774 15.5253 168.688 15.5787 168.582 15.664C168.496 15.728 168.326 15.8987 168.07 16.176C167.835 16.4533 167.622 16.7733 167.43 17.136C167.238 17.4987 167.067 18.0107 166.918 18.672C166.768 19.312 166.694 20.0267 166.694 20.816C166.694 23.2693 166.459 25.1147 165.99 26.352ZM174.42 24.656L175.411 22.96C175.411 22.896 175.39 22.864 175.348 22.864C175.305 22.864 175.252 22.896 175.188 22.96C174.398 23.8773 173.577 24.7733 172.724 25.648C171.87 26.5013 171.22 27.1307 170.772 27.536L170.068 28.144C168.404 29.7227 167.251 30.512 166.611 30.512C166.313 30.512 166.163 30.32 166.163 29.936C166.163 29.5093 166.345 28.8587 166.707 27.984C167.049 27.1093 167.401 26.3307 167.764 25.648L168.276 24.656C170.068 21.3067 171.39 19.0667 172.244 17.936C172.67 17.3813 173.193 16.9227 173.812 16.56C174.43 16.176 174.91 15.984 175.252 15.984C175.465 15.984 175.572 16.0587 175.572 16.208C175.572 16.2933 175.529 16.4107 175.444 16.56C175.401 16.6453 174.964 17.36 174.132 18.704C173.3 20.0267 172.628 21.168 172.116 22.128C170.708 24.7093 170.004 26.192 170.004 26.576C170.004 26.7253 170.068 26.8 170.196 26.8C170.388 26.8 170.718 26.608 171.188 26.224C172.574 25.0293 174.1 23.4187 175.764 21.392C176.681 20.4107 177.641 19.1307 178.644 17.552C179.326 16.5067 180.233 15.984 181.364 15.984C181.556 15.984 181.652 16.0693 181.652 16.24L181.396 16.848C181.097 17.3813 180.425 18.5547 179.38 20.368C178.356 22.16 177.769 23.184 177.62 23.44C176.745 24.976 176.308 25.9893 176.308 26.48C176.308 26.672 176.372 26.768 176.5 26.768C176.713 26.768 177.396 26.2347 178.548 25.168C179.444 24.272 180.628 22.9813 182.1 21.296C182.164 21.232 182.217 21.2 182.26 21.2C182.302 21.2 182.324 21.2427 182.324 21.328C182.324 21.7333 182.164 22.128 181.844 22.512C180.265 24.2613 178.868 25.7227 177.652 26.896C176.82 27.6853 175.881 28.4747 174.836 29.264C173.812 30.0533 173.065 30.448 172.596 30.448C172.276 30.448 172.116 30.224 172.116 29.776C172.116 29.52 172.308 28.9653 172.692 28.112C173.076 27.2587 173.46 26.4693 173.844 25.744L174.42 24.656ZM188.375 27.984C186.604 29.6053 185.388 30.416 184.727 30.416C184.428 30.416 184.279 30.2453 184.279 29.904C184.279 29.4773 184.46 28.8267 184.823 27.952C185.207 27.0773 185.591 26.3093 185.975 25.648L186.551 24.656C186.636 24.5067 186.679 24.4107 186.679 24.368C186.679 24.3253 186.657 24.304 186.615 24.304C186.529 24.304 186.369 24.4213 186.135 24.656C185.495 25.36 184.759 26.1173 183.927 26.928C183.116 27.7173 182.455 28.336 181.943 28.784L181.207 29.424C180.375 30.064 179.735 30.384 179.287 30.384C178.817 30.384 178.582 30.0213 178.582 29.296C178.582 28.9333 178.689 28.3787 178.902 27.632C179.095 26.8853 179.244 26.384 179.351 26.128C179.841 24.9333 180.449 23.7707 181.174 22.64C181.921 21.5093 182.796 20.432 183.799 19.408C184.801 18.3627 185.964 17.52 187.286 16.88C188.631 16.24 190.017 15.92 191.447 15.92C192.641 15.92 193.239 16.1013 193.239 16.464C193.239 16.6773 192.972 16.784 192.439 16.784C190.476 16.784 188.631 17.6267 186.903 19.312C185.196 20.976 183.809 22.896 182.743 25.072C182.444 25.6693 182.295 26.1707 182.295 26.576C182.295 26.8107 182.369 26.928 182.519 26.928C182.775 26.928 183.105 26.7467 183.511 26.384C183.767 26.1493 184.108 25.84 184.535 25.456C184.983 25.072 185.697 24.336 186.679 23.248C187.66 22.16 188.439 21.1467 189.015 20.208C189.1 20.0373 189.228 19.8347 189.399 19.6C189.591 19.3653 189.943 19.056 190.455 18.672C190.967 18.2667 191.479 18.064 191.991 18.064C192.268 18.064 192.407 18.1387 192.407 18.288C192.407 18.3307 192.375 18.4053 192.311 18.512C192.225 18.6827 191.98 19.1093 191.575 19.792C191.191 20.4747 190.828 21.1253 190.487 21.744C190.145 22.3413 189.783 23.0027 189.399 23.728C189.015 24.432 188.705 25.04 188.47 25.552C188.257 26.064 188.151 26.4053 188.151 26.576C188.151 26.704 188.204 26.768 188.311 26.768C188.631 26.768 189.409 26.1493 190.647 24.912C191.585 23.9307 192.684 22.7253 193.943 21.296C194.007 21.232 194.06 21.2 194.103 21.2C194.145 21.2 194.167 21.2427 194.167 21.328C194.167 21.7333 194.007 22.128 193.687 22.512C191.596 24.8373 189.825 26.6613 188.375 27.984Z" fill="white"/>
</svg>
