<svg width="19" height="19" viewBox="0 0 19 19" fill="none" xmlns="http://www.w3.org/2000/svg">
<path d="M7.7633 6.25513C7.38694 6.25513 7.026 6.40464 6.75987 6.67076C6.49375 6.93689 6.34424 7.29783 6.34424 7.67419C6.34424 8.05055 6.49375 8.41149 6.75987 8.67762C7.026 8.94374 7.38694 9.09325 7.7633 9.09325C8.13966 9.09325 8.5006 8.94374 8.76673 8.67762C9.03286 8.41149 9.18236 8.05055 9.18236 7.67419C9.18236 7.29783 9.03286 6.93689 8.76673 6.67076C8.5006 6.40464 8.13966 6.25513 7.7633 6.25513ZM6.93799 7.67419C6.93799 7.4553 7.02494 7.24538 7.17972 7.09061C7.33449 6.93583 7.54441 6.84888 7.7633 6.84888C7.98219 6.84888 8.19211 6.93583 8.34688 7.09061C8.50166 7.24538 8.58861 7.4553 8.58861 7.67419C8.58861 7.89308 8.50166 8.103 8.34688 8.25777C8.19211 8.41255 7.98219 8.4995 7.7633 8.4995C7.54441 8.4995 7.33449 8.41255 7.17972 8.25777C7.02494 8.103 6.93799 7.89308 6.93799 7.67419Z" fill="white"/>
<path d="M12.9942 2.2995L12.5739 1.29071C12.519 1.15528 12.4215 1.04145 12.296 0.966527C12.2274 0.92484 12.1501 0.899701 12.0701 0.893105C11.9901 0.886509 11.9097 0.898637 11.8352 0.928527C11.3246 1.13753 11.02 1.63746 10.8496 2.19856C10.6218 2.05415 10.3813 1.93073 10.1312 1.82984C9.96815 1.76442 9.78593 1.76573 9.62385 1.83349C9.46178 1.90125 9.33285 2.03003 9.2649 2.19203L9.26431 2.19321C9.16337 2.43863 9.08499 2.6888 9.02918 2.94371C8.51796 2.67415 7.95746 2.54115 7.45396 2.75075C7.37983 2.78206 7.31393 2.83007 7.2614 2.89104C7.20888 2.95201 7.17115 3.02429 7.15115 3.10225C7.11256 3.24178 7.12443 3.39378 7.17846 3.53153L7.74074 4.88825C7.66399 4.98285 7.59918 5.08655 7.54777 5.197C7.52284 5.25083 7.50047 5.3007 7.48068 5.34662L7.40587 5.25934C7.27068 5.10303 7.1044 4.97661 6.91763 4.88814C6.73086 4.79967 6.5277 4.75109 6.32112 4.74551C6.11453 4.73992 5.90905 4.77745 5.71777 4.85569C5.52649 4.93394 5.35362 5.05119 5.21018 5.19997L5.20899 5.20115C5.06827 5.34859 4.95925 5.52329 4.88865 5.71448C4.81805 5.90567 4.78736 6.1093 4.79849 6.31281C4.80962 6.51632 4.86232 6.71539 4.95334 6.89775C5.04437 7.0801 5.17179 7.24188 5.32774 7.37309L5.44768 7.47165C5.3982 7.4954 5.34377 7.52212 5.2844 7.55181C5.21264 7.58794 5.14394 7.62984 5.07896 7.67709L3.53699 7.03762L3.53165 7.03584C3.39517 6.98092 3.2446 6.97155 3.10237 7.00912C3.02442 7.02912 2.95214 7.06685 2.89117 7.11937C2.83019 7.1719 2.78218 7.2378 2.75087 7.31193C2.54009 7.81781 2.67546 8.38246 2.94859 8.89665C2.67843 8.96315 2.41599 9.04865 2.26993 9.09615L2.21649 9.11397C2.07162 9.15968 1.90774 9.25468 1.81809 9.42865C1.72071 9.61628 1.74446 9.82409 1.84065 10.0123L1.89646 10.1227C1.97662 10.2831 2.08468 10.4968 2.20818 10.7046C1.64352 10.8738 1.13943 11.1784 0.928649 11.6926C0.898759 11.7671 0.886632 11.8475 0.893227 11.9275C0.899823 12.0075 0.924962 12.0848 0.966649 12.1534C1.0379 12.2763 1.15427 12.3754 1.29084 12.4312L2.43143 12.9062L2.39581 12.9407L1.61206 13.7185C1.57049 13.7601 1.57643 13.8194 1.61799 13.861C2.36493 14.5319 3.51918 14.5319 4.25246 13.8384C4.20496 13.9857 4.17943 14.1412 4.17706 14.3004V15.4047C4.17706 15.4582 4.22456 15.5057 4.27799 15.4997C5.29924 15.4463 6.12456 14.6032 6.12456 13.5641L6.11268 13.5267L12.866 14.7481C13.0776 14.7864 13.2748 14.8815 13.4366 15.0232C13.5984 15.1649 13.7186 15.3479 13.7845 15.5526L14.402 17.4651C14.4733 17.8154 14.9127 17.9044 15.1977 17.6194L17.6439 15.1732C17.9289 14.8882 17.8398 14.4488 17.4895 14.3776L15.5284 13.7886C15.3239 13.7271 15.1398 13.6117 14.9954 13.4545C14.851 13.2972 14.7516 13.1039 14.7078 12.895L13.3422 6.37737C13.3679 6.33581 13.3925 6.29306 13.4158 6.24912C14.4466 6.23962 15.2802 5.41787 15.3336 4.40256C15.3396 4.34912 15.2921 4.30162 15.2386 4.30162H14.1342C13.9812 4.3039 13.8292 4.32809 13.683 4.37346L13.6818 4.36693C14.3658 3.63365 14.3634 2.48653 13.6949 1.74256C13.6767 1.7229 13.6516 1.71123 13.6248 1.71011C13.5981 1.709 13.5721 1.71853 13.5524 1.73662L12.9942 2.2995ZM7.73006 3.31243C7.72646 3.30308 7.72407 3.2933 7.72293 3.28334C8.03168 3.17765 8.45681 3.27325 8.95971 3.58853C9.47093 3.90915 9.99224 4.41621 10.4126 4.9684C10.5462 5.14296 10.7796 5.27121 11.0224 5.17146C11.2658 5.07171 11.3412 4.8164 11.3116 4.59968C11.2166 3.91034 11.2261 3.18062 11.3608 2.58865C11.4927 2.01153 11.7242 1.64281 12.0152 1.49793L12.0247 1.51575L12.7668 3.29818L12.7674 3.29878C12.9616 3.77318 13.1415 4.49043 13.1367 4.90368V4.90903C13.1421 5.9285 12.5964 6.58993 11.7533 6.94262C11.5546 7.02377 11.3567 7.07899 11.1596 7.10828C10.923 6.88031 10.6175 6.73727 10.2909 6.70156C10.2285 6.69577 10.1659 6.69122 10.1033 6.6879L10.1229 6.6594C10.2372 6.49039 10.3156 6.2997 10.3532 6.09916C10.3908 5.89862 10.3868 5.69249 10.3415 5.49354C10.2962 5.2946 10.2105 5.10708 10.0898 4.9426C9.96901 4.77812 9.81578 4.64018 9.63956 4.53734C9.42529 4.4132 9.18336 4.34463 8.93582 4.33789C8.68828 4.33115 8.44298 4.38645 8.22227 4.49875L7.73006 3.31243ZM6.91662 10.1976C6.94334 10.4214 7.01815 10.6262 7.12918 10.8038C7.11351 11.0812 7.05045 11.3539 6.94274 11.6101C6.59006 12.4532 5.92862 12.9995 4.90915 12.9941H4.90321C4.49056 12.9995 3.77331 12.819 3.2989 12.6248H3.29831L1.51824 11.8826H1.51646L1.49865 11.8725C1.64293 11.5816 2.01165 11.35 2.58877 11.2182C3.18015 11.0834 3.90987 11.0745 4.59921 11.1683C4.82959 11.201 5.06649 11.1018 5.15912 10.8727C5.25056 10.6458 5.15199 10.4107 4.96912 10.2706C4.41693 9.85021 3.90927 9.32831 3.58865 8.81709C3.27337 8.31418 3.17777 7.88846 3.28346 7.58031C3.29217 7.5815 3.30207 7.58387 3.31315 7.58743L4.66215 8.14734C4.40684 8.60453 4.4009 9.1864 4.70371 9.66734C4.81227 9.83999 4.95547 9.98823 5.12426 10.1027C5.29305 10.2172 5.48375 10.2954 5.68431 10.3324C5.88487 10.3694 6.09092 10.3644 6.28944 10.3176C6.48796 10.2709 6.67463 10.1835 6.83765 10.061L6.89703 10.0159C6.90257 10.0713 6.9091 10.1319 6.91662 10.1976ZM9.56831 3.28631C9.61581 2.99181 9.69715 2.70146 9.81293 2.42121C9.82045 2.40345 9.83448 2.38924 9.85215 2.38151C9.86982 2.37378 9.88979 2.37312 9.90793 2.37965L9.90912 2.38025C10.1965 2.49603 10.4667 2.64506 10.7142 2.82259C10.643 3.31125 10.6382 3.84384 10.6863 4.35862C10.3575 3.9581 9.9822 3.59813 9.56831 3.28631ZM2.82568 10.5716C2.67724 10.3531 2.54306 10.0853 2.43262 9.86684L2.36909 9.74215C2.36198 9.72849 2.35621 9.71418 2.35187 9.6994C2.36605 9.69035 2.38144 9.68335 2.39759 9.67862L2.45102 9.66081C2.64874 9.59728 2.9949 9.48506 3.28821 9.42865C3.59966 9.84141 3.95902 10.2157 4.35874 10.5437C3.84838 10.4937 3.33394 10.5034 2.82568 10.5716ZM9.34268 5.05093C9.78621 5.30862 9.92099 5.89762 9.63124 6.32572L9.57424 6.40884C9.50181 6.51571 9.44006 6.60715 9.40206 6.67484C9.36729 6.73186 9.34353 6.7949 9.33199 6.86068C9.32196 6.9234 9.32978 6.98768 9.35456 7.04617C9.37934 7.10465 9.42008 7.15498 9.47212 7.1914C9.53424 7.23255 9.60569 7.25746 9.67993 7.26384C9.72743 7.26978 9.78206 7.27097 9.83134 7.27215L9.86518 7.27275C9.96434 7.27512 10.0843 7.27809 10.2351 7.29234C10.7059 7.33687 11.1305 7.83265 11.0396 8.33318V8.33496C11.0174 8.45513 10.9708 8.56947 10.9027 8.67098C10.8347 8.77248 10.7466 8.859 10.6439 8.92523C10.5412 8.99146 10.4261 9.03599 10.3055 9.05609C10.185 9.07619 10.0616 9.07144 9.94296 9.04212C9.8349 9.0154 9.75593 8.99225 9.68765 8.97265L9.59799 8.94712C9.55327 8.93427 9.50761 8.92494 9.46143 8.91922H9.45965C9.4035 8.91236 9.34652 8.9197 9.29393 8.94055C9.24135 8.9614 9.19482 8.99509 9.15862 9.03856C9.11619 9.09222 9.09168 9.15785 9.08856 9.22618C9.0873 9.26128 9.09049 9.29639 9.09806 9.33068C9.10756 9.37462 9.12418 9.42153 9.13665 9.45537L9.15149 9.49634C9.17702 9.5664 9.20849 9.65131 9.24234 9.76531C9.3884 10.2575 9.08203 10.7747 8.57853 10.8869C8.45763 10.9134 8.33254 10.9143 8.21127 10.8896C8.09 10.8649 7.97521 10.8152 7.87427 10.7436C7.77333 10.672 7.68845 10.5801 7.62507 10.4738C7.56169 10.3675 7.52121 10.2492 7.50621 10.1263C7.49348 10.0197 7.48339 9.91279 7.47593 9.80568L7.46762 9.70593C7.46415 9.65207 7.457 9.59851 7.44624 9.54562C7.43055 9.46266 7.38995 9.38644 7.32987 9.32712C7.28574 9.28677 7.23202 9.25838 7.17382 9.24466C7.11562 9.23094 7.05487 9.23235 6.99737 9.24875C6.93586 9.26697 6.87771 9.29504 6.82518 9.33187C6.74114 9.38919 6.65896 9.44919 6.57877 9.51178L6.48021 9.586C6.38288 9.65934 6.27136 9.71164 6.15272 9.73957C6.03409 9.76749 5.91095 9.77044 5.79112 9.74822C5.67129 9.72599 5.55739 9.67908 5.45666 9.61048C5.35594 9.54187 5.27058 9.45305 5.20602 9.34968C5.13947 9.24531 5.09547 9.12817 5.07687 9.00579C5.05827 8.88341 5.06547 8.75849 5.09802 8.63905C5.13056 8.51962 5.18772 8.40831 5.26583 8.31228C5.34395 8.21625 5.44128 8.13761 5.55159 8.08143C5.65965 8.02681 5.73862 7.99059 5.80809 7.95853C5.84846 7.94032 5.88765 7.92191 5.92565 7.90331C5.96899 7.88193 6.02243 7.85521 6.06815 7.82196C6.14796 7.76711 6.20381 7.68386 6.22431 7.58921C6.2333 7.53801 6.23117 7.48548 6.21806 7.43517C6.20494 7.38487 6.18115 7.33798 6.14831 7.29768C6.11286 7.25399 6.07308 7.214 6.02956 7.17834C5.99512 7.14944 5.95613 7.11778 5.91259 7.08334L5.89062 7.06553C5.83837 7.02436 5.7782 6.97528 5.71012 6.91828C5.61627 6.83926 5.53961 6.74186 5.48485 6.63208C5.43009 6.5223 5.39839 6.40247 5.39172 6.27997C5.38504 6.15747 5.40352 6.0349 5.44603 5.91982C5.48854 5.80474 5.55417 5.69959 5.63887 5.61084C5.72507 5.52166 5.8289 5.4514 5.94374 5.40454C6.05858 5.35767 6.18192 5.33523 6.30591 5.33864C6.4299 5.34205 6.55182 5.37123 6.66391 5.42433C6.776 5.47743 6.87582 5.55328 6.95699 5.64706L7.10424 5.82162L7.11493 5.83528C7.15115 5.87921 7.18618 5.92078 7.21587 5.95403C7.24556 5.98846 7.28831 6.03478 7.33877 6.0704C7.38806 6.10543 7.50384 6.17134 7.64931 6.12562C7.73737 6.09643 7.8117 6.03603 7.85831 5.95581C7.88431 5.91066 7.90732 5.86385 7.92718 5.81568C7.93906 5.78916 7.95093 5.76066 7.96281 5.73018C7.99487 5.653 8.03228 5.56275 8.08571 5.44815C8.13757 5.33536 8.21244 5.23465 8.30552 5.1525C8.39859 5.07035 8.50781 5.00856 8.62617 4.9711C8.74453 4.93364 8.86941 4.92134 8.9928 4.93498C9.11619 4.94863 9.23537 4.98792 9.34268 5.05034" fill="white"/>
</svg>
