<svg width="19" height="19" viewBox="0 0 19 19" fill="none" xmlns="http://www.w3.org/2000/svg">
<path d="M11.9777 9.50075C11.5817 9.50075 11.209 9.27977 11.0075 8.92621L9.50052 6.30888L7.99593 8.92621C7.79203 9.28223 7.4194 9.50321 7.02333 9.50321C6.91787 9.50321 6.8124 9.48847 6.71163 9.45655L3.5009 8.49408V12.8645C3.5009 13.2254 3.73526 13.5397 4.06805 13.6256L9.13491 14.954C9.37396 15.0153 9.62473 15.0153 9.86143 14.954L14.933 13.6256C15.2657 13.5373 15.5002 13.223 15.5002 12.8645V8.49408L12.2894 9.4541C12.1886 9.48602 12.0831 9.50075 11.9777 9.50075ZM16.9602 6.74592L15.7533 4.22188C15.6806 4.06966 15.5235 3.98127 15.3619 4.00336L9.50052 4.7866L11.6496 8.52109C11.7387 8.67577 11.9168 8.74944 12.0831 8.70033L16.7212 7.31309C16.9532 7.24188 17.0657 6.9718 16.9602 6.74592ZM3.24778 4.22188L2.04083 6.74592C1.93303 6.9718 2.04786 7.24188 2.27754 7.31063L6.91553 8.69787C7.08192 8.74698 7.26003 8.67332 7.34909 8.51864L9.50052 4.7866L3.63682 4.00336C3.47512 3.98372 3.32044 4.06966 3.24778 4.22188Z" fill="white"/>
</svg>
