<svg width="20" height="18" viewBox="0 0 20 18" fill="none" xmlns="http://www.w3.org/2000/svg">
<path d="M6.106 15.247C3.298 13.083 0 10.542 0 6.13697C0 1.53697 4.923 -1.79803 9.264 1.81397L7.81 5.20397C7.7425 5.36119 7.73079 5.53677 7.77681 5.70156C7.82283 5.86636 7.92381 6.01046 8.063 6.10997L10.896 8.13397L8.43 11.012C8.30714 11.1554 8.24291 11.3399 8.25014 11.5286C8.25737 11.7173 8.33552 11.8964 8.469 12.03L10.169 13.73L9.259 17.37C8.503 17.117 7.743 16.527 6.961 15.91C6.683 15.6926 6.39767 15.4716 6.105 15.247" fill="white"/>
<path d="M10.812 17.345C11.544 17.08 12.281 16.508 13.038 15.911C13.316 15.6923 13.6013 15.471 13.894 15.247C16.702 13.083 20 10.542 20 6.13695C20 1.62195 15.259 -1.67305 10.98 1.61895L9.427 5.24095L12.436 7.38995C12.5206 7.45048 12.5917 7.52795 12.6447 7.61742C12.6977 7.7069 12.7316 7.80643 12.7441 7.90969C12.7566 8.01295 12.7475 8.11768 12.7174 8.21723C12.6872 8.31678 12.6367 8.40898 12.569 8.48795L10.021 11.461L11.531 12.97C11.6225 13.0615 11.6887 13.1752 11.7232 13.3C11.7578 13.4248 11.7594 13.5564 11.728 13.682L10.812 17.345Z" fill="white"/>
</svg>