<svg width="19" height="19" viewBox="0 0 19 19" fill="none" xmlns="http://www.w3.org/2000/svg">
<path d="M2 3.49625C2 3.76709 2.221 3.99872 2.48111 3.99872H4.67756L5.71742 11.2589C5.85412 12.1978 6.34133 12.7863 7.28386 12.7863H14.8684C15.1216 12.7863 15.3426 12.5747 15.3426 12.2906C15.3426 12.0062 15.1216 11.7946 14.8684 11.7946H7.39422C7.02376 11.7946 6.79637 11.53 6.73786 11.1268L6.63388 10.4325H14.8812C15.8301 10.4325 16.3176 9.83726 16.454 8.89186L16.9739 5.39382C16.9879 5.31077 16.9966 5.2269 17 5.14273C17 4.82534 16.766 4.60697 16.4085 4.60697H5.80199L5.67194 3.76738C5.60705 3.25814 5.42515 3 4.76241 3H2.48083C2.221 3 2 3.23162 2 3.49625ZM6.73814 14.9287C6.73814 15.5305 7.20622 16 7.79741 16C7.936 16.0011 8.07342 15.9742 8.20168 15.9208C8.32994 15.8674 8.44647 15.7885 8.54447 15.6888C8.64247 15.5891 8.71998 15.4705 8.77248 15.3401C8.82499 15.2096 8.85144 15.0697 8.8503 14.9287C8.85092 14.7879 8.82411 14.6483 8.77142 14.5181C8.71873 14.3878 8.6412 14.2695 8.5433 14.1699C8.44541 14.0703 8.32909 13.9914 8.20107 13.9378C8.07305 13.8842 7.93585 13.8569 7.79741 13.8575C7.20622 13.8575 6.73814 14.3337 6.73814 14.9287ZM12.8148 14.9287C12.8148 15.5305 13.2892 16 13.8741 16C14.4655 16 14.9333 15.5305 14.9333 14.9287C14.9333 14.3335 14.4655 13.8575 13.8741 13.8575C13.2892 13.8575 12.8148 14.3337 12.8148 14.9287Z" fill="white"/>
</svg>
