<svg width="18" height="18" viewBox="0 0 18 18" fill="none" xmlns="http://www.w3.org/2000/svg">
<path d="M3.03675 4.35153L5.8905 6.86253L8.433 3.73203C8.5042 3.64451 8.59422 3.57418 8.69636 3.52628C8.7985 3.47838 8.91014 3.45414 9.02295 3.45537C9.13576 3.45659 9.24684 3.48325 9.34792 3.53336C9.449 3.58347 9.53747 3.65574 9.60675 3.74478L12.033 6.86178L14.979 4.31478C15.0947 4.21496 15.2381 4.15286 15.3901 4.13679C15.542 4.12072 15.6953 4.15145 15.8293 4.22485C15.9633 4.29826 16.0717 4.41085 16.1399 4.54755C16.2082 4.68426 16.2331 4.83855 16.2113 4.98978L15.0863 12.75H2.9415L1.79925 5.02503C1.77656 4.87296 1.80116 4.71758 1.86971 4.57996C1.93827 4.44233 2.04746 4.3291 2.18252 4.2556C2.31757 4.1821 2.47194 4.15188 2.62474 4.16904C2.77754 4.1862 2.92137 4.24991 3.03675 4.35153ZM3 13.5H15V14.25C15 14.4489 14.921 14.6397 14.7803 14.7804C14.6397 14.921 14.4489 15 14.25 15H3.75C3.55109 15 3.36032 14.921 3.21967 14.7804C3.07902 14.6397 3 14.4489 3 14.25V13.5Z" fill="white"/>
</svg>