<svg width="18" height="18" viewBox="0 0 18 18" fill="none" xmlns="http://www.w3.org/2000/svg">
<path d="M12.2377 2.94226C13.2188 2.94226 14.0495 3.31826 14.73 4.07026C15.4105 4.82226 15.7505 5.72976 15.75 6.79276C15.75 7.10476 15.716 7.41576 15.648 7.72576C15.58 8.03576 15.4713 8.33551 15.3218 8.62501H11.442L10.0995 6.54001H9.39825L8.1405 10.3845L6.942 8.62501H2.6775C2.5285 8.33551 2.41975 8.03801 2.35125 7.73251C2.28375 7.42751 2.25 7.12076 2.25 6.81226C2.25 5.73576 2.587 4.82176 3.261 4.07026C3.935 3.31876 4.7625 2.94276 5.7435 2.94226C6.2565 2.94226 6.75 3.04676 7.224 3.25576C7.6975 3.46426 8.12125 3.76651 8.49525 4.16251L9 4.69651L9.47625 4.19176C9.85675 3.78576 10.2863 3.47601 10.7647 3.26251C11.2432 3.04901 11.7342 2.94226 12.2377 2.94226ZM8.98125 15.3953L3.597 9.97351C3.503 9.87951 3.4125 9.78276 3.3255 9.68326C3.239 9.58476 3.15975 9.48201 3.08775 9.37501H6.54L7.92 11.4503H8.6175L9.86025 7.58701L11.0543 9.37501H14.9085C14.8365 9.47901 14.7573 9.58051 14.6708 9.67951C14.5843 9.77851 14.4952 9.87501 14.4037 9.96901L8.98125 15.3953Z" fill="white"/>
</svg>