<svg width="12" height="12" viewBox="0 0 12 12" fill="none" xmlns="http://www.w3.org/2000/svg">
<path fill-rule="evenodd" clip-rule="evenodd" d="M0 0H12V9.6H3L0 12V0ZM3.75 5.6C4.16422 5.6 4.5 5.24182 4.5 4.8C4.5 4.35818 4.16422 4 3.75 4C3.33579 4 3 4.35818 3 4.8C3 5.24182 3.33579 5.6 3.75 5.6ZM6.75 4.8C6.75 5.24182 6.41422 5.6 6 5.6C5.58578 5.6 5.25 5.24182 5.25 4.8C5.25 4.35818 5.58578 4 6 4C6.41422 4 6.75 4.35818 6.75 4.8ZM8.25 5.6C8.66422 5.6 9 5.24182 9 4.8C9 4.35818 8.66422 4 8.25 4C7.83578 4 7.5 4.35818 7.5 4.8C7.5 5.24182 7.83578 5.6 8.25 5.6Z" fill="white"/>
</svg>
