<svg width="16" height="16" viewBox="0 0 16 16" fill="none" xmlns="http://www.w3.org/2000/svg">
<path d="M6.53751 5.26758C6.22057 5.26758 5.91662 5.39348 5.69251 5.61759C5.46841 5.84169 5.34251 6.14564 5.34251 6.46258C5.34251 6.77951 5.46841 7.08346 5.69251 7.30757C5.91662 7.53168 6.22057 7.65758 6.53751 7.65758C6.85444 7.65758 7.15839 7.53168 7.3825 7.30757C7.6066 7.08346 7.73251 6.77951 7.73251 6.46258C7.73251 6.14564 7.6066 5.84169 7.3825 5.61759C7.15839 5.39348 6.85444 5.26758 6.53751 5.26758ZM5.84251 6.46258C5.84251 6.27825 5.91573 6.10148 6.04607 5.97114C6.1764 5.8408 6.35318 5.76758 6.53751 5.76758C6.72183 5.76758 6.89861 5.8408 7.02895 5.97114C7.15928 6.10148 7.23251 6.27825 7.23251 6.46258C7.23251 6.6469 7.15928 6.82368 7.02895 6.95402C6.89861 7.08436 6.72183 7.15758 6.53751 7.15758C6.35318 7.15758 6.1764 7.08436 6.04607 6.95402C5.91573 6.82368 5.84251 6.6469 5.84251 6.46258Z" fill="white"/>
<path d="M10.9425 1.93653L10.5885 1.08703C10.5423 0.97298 10.4602 0.877124 10.3545 0.814033C10.2968 0.778928 10.2316 0.757759 10.1643 0.752204C10.0969 0.74665 10.0292 0.756863 9.9665 0.782033C9.5365 0.958033 9.28 1.37903 9.1365 1.85153C8.94466 1.72992 8.74216 1.626 8.5315 1.54103C8.39421 1.48594 8.24076 1.48704 8.10428 1.54411C7.9678 1.60117 7.85922 1.70962 7.802 1.84603L7.8015 1.84703C7.7165 2.0537 7.6505 2.26437 7.6035 2.47903C7.173 2.25203 6.701 2.14003 6.277 2.31653C6.21457 2.3429 6.15908 2.38333 6.11485 2.43468C6.07062 2.48602 6.03884 2.54689 6.022 2.61253C5.9895 2.73003 5.9995 2.85803 6.045 2.97403L6.5185 4.11653C6.45387 4.1962 6.3993 4.28353 6.356 4.37653C6.335 4.42187 6.31617 4.46387 6.2995 4.50253L6.2365 4.42903C6.12266 4.2974 5.98263 4.19094 5.82535 4.11644C5.66807 4.04194 5.497 4.00104 5.32303 3.99633C5.14906 3.99163 4.97602 4.02323 4.81495 4.08912C4.65387 4.15501 4.5083 4.25375 4.3875 4.37903L4.3865 4.38003C4.268 4.50419 4.17619 4.65131 4.11674 4.81231C4.05729 4.97332 4.03145 5.14479 4.04082 5.31617C4.05019 5.48754 4.09457 5.65518 4.17122 5.80874C4.24787 5.96231 4.35517 6.09854 4.4865 6.20903L4.5875 6.29203C4.54584 6.31203 4.5 6.33453 4.45 6.35953C4.38958 6.38996 4.33172 6.42524 4.277 6.46503L2.9785 5.92653L2.974 5.92503C2.85907 5.87879 2.73228 5.87089 2.6125 5.90253C2.54686 5.91937 2.48599 5.95115 2.43465 5.99538C2.3833 6.03961 2.34287 6.09511 2.3165 6.15753C2.139 6.58353 2.253 7.05903 2.483 7.49203C2.2555 7.54803 2.0345 7.62003 1.9115 7.66003L1.8665 7.67503C1.7445 7.71353 1.6065 7.79353 1.531 7.94003C1.449 8.09803 1.469 8.27303 1.55 8.43153L1.597 8.52453C1.6645 8.65953 1.7555 8.83953 1.8595 9.01453C1.384 9.15703 0.959503 9.41354 0.782003 9.84653C0.756832 9.90925 0.746619 9.97697 0.752174 10.0443C0.757728 10.1117 0.778898 10.1768 0.814003 10.2345C0.874003 10.338 0.972003 10.4215 1.087 10.4685L2.0475 10.8685L2.0175 10.8975L1.3575 11.5525C1.3225 11.5875 1.3275 11.6375 1.3625 11.6725C1.9915 12.2375 2.9635 12.2375 3.581 11.6535C3.541 11.7775 3.5195 11.9085 3.5175 12.0425V12.9725C3.5175 13.0175 3.5575 13.0575 3.6025 13.0525C4.4625 13.0075 5.1575 12.2975 5.1575 11.4225L5.1475 11.391L10.8345 12.4195C11.0127 12.4518 11.1788 12.5319 11.315 12.6512C11.4512 12.7706 11.5525 12.9247 11.608 13.097L12.128 14.7075C12.188 15.0025 12.558 15.0775 12.798 14.8375L14.858 12.7775C15.098 12.5375 15.023 12.1675 14.728 12.1075L13.0765 11.6115C12.9043 11.5598 12.7493 11.4626 12.6277 11.3302C12.5061 11.1978 12.4224 11.035 12.3855 10.859L11.2355 5.37053C11.2572 5.33553 11.2778 5.29953 11.2975 5.26253C12.1655 5.25453 12.8675 4.56253 12.9125 3.70753C12.9175 3.66253 12.8775 3.62253 12.8325 3.62253H11.9025C11.7736 3.62445 11.6456 3.64483 11.5225 3.68303L11.5215 3.67753C12.0975 3.06003 12.0955 2.09403 11.5325 1.46753C11.5172 1.45098 11.496 1.44115 11.4735 1.44021C11.451 1.43927 11.4291 1.4473 11.4125 1.46253L10.9425 1.93653ZM6.5095 2.78953C6.50648 2.78165 6.50446 2.77342 6.5035 2.76503C6.7635 2.67603 7.1215 2.75653 7.545 3.02203C7.9755 3.29203 8.4145 3.71903 8.7685 4.18403C8.881 4.33103 9.0775 4.43903 9.282 4.35503C9.487 4.27103 9.5505 4.05603 9.5255 3.87353C9.4455 3.29303 9.4535 2.67853 9.567 2.18003C9.678 1.69403 9.873 1.38353 10.118 1.26153L10.126 1.27653L10.751 2.77753L10.7515 2.77803C10.915 3.17753 11.0665 3.78153 11.0625 4.12953V4.13403C11.067 4.99253 10.6075 5.54953 9.8975 5.84653C9.73017 5.91487 9.5635 5.96137 9.3975 5.98603C9.19829 5.79406 8.94102 5.67361 8.666 5.64353C8.61342 5.63866 8.56074 5.63482 8.508 5.63203L8.5245 5.60803C8.62076 5.46571 8.68677 5.30513 8.71844 5.13625C8.7501 4.96737 8.74676 4.79379 8.7086 4.62626C8.67044 4.45872 8.59829 4.30081 8.49661 4.1623C8.39494 4.02379 8.2659 3.90764 8.1175 3.82103C7.93707 3.71649 7.73334 3.65875 7.52488 3.65308C7.31643 3.6474 7.10986 3.69397 6.924 3.78853L6.5095 2.78953ZM5.8245 8.58753C5.847 8.77603 5.91 8.94853 6.0035 9.09803C5.99031 9.33167 5.93721 9.56132 5.8465 9.77703C5.5495 10.487 4.9925 10.947 4.134 10.9425H4.129C3.7815 10.947 3.1775 10.795 2.778 10.6315H2.7775L1.2785 10.0065H1.277L1.262 9.99803C1.3835 9.75303 1.694 9.55803 2.18 9.44703C2.678 9.33353 3.2925 9.32603 3.873 9.40503C4.067 9.43253 4.2665 9.34903 4.3445 9.15603C4.4215 8.96503 4.3385 8.76703 4.1845 8.64903C3.7195 8.29503 3.292 7.85553 3.022 7.42503C2.7565 7.00153 2.676 6.64303 2.765 6.38353C2.77234 6.38453 2.78067 6.38653 2.79 6.38953L3.926 6.86103C3.711 7.24603 3.706 7.73603 3.961 8.14103C4.05242 8.28642 4.17301 8.41126 4.31515 8.50766C4.45729 8.60405 4.61788 8.66991 4.78677 8.70107C4.95566 8.73222 5.12918 8.728 5.29635 8.68866C5.46353 8.64933 5.62073 8.57573 5.758 8.47253L5.808 8.43453C5.81267 8.4812 5.81817 8.5322 5.8245 8.58753ZM8.0575 2.76753C8.0975 2.51953 8.166 2.27503 8.2635 2.03903C8.26983 2.02408 8.28165 2.01211 8.29653 2.0056C8.31141 1.99909 8.32822 1.99853 8.3435 2.00403L8.3445 2.00453C8.5865 2.10203 8.814 2.22753 9.0225 2.37703C8.9625 2.78853 8.9585 3.23703 8.999 3.67053C8.72211 3.33325 8.40605 3.03012 8.0575 2.76753ZM2.3795 8.90253C2.2545 8.71853 2.1415 8.49303 2.0485 8.30903L1.995 8.20403C1.98901 8.19253 1.98416 8.18048 1.9805 8.16803C1.99245 8.16041 2.00541 8.15452 2.019 8.15053L2.064 8.13553C2.2305 8.08203 2.522 7.98753 2.769 7.94003C3.03127 8.28762 3.33389 8.60282 3.6705 8.87903C3.24072 8.8369 2.80751 8.84512 2.3795 8.90253ZM7.8675 4.25353C8.241 4.47053 8.3545 4.96653 8.1105 5.32703L8.0625 5.39703C8.0015 5.48703 7.9495 5.56403 7.9175 5.62103C7.88823 5.66906 7.86822 5.72214 7.8585 5.77753C7.85006 5.83035 7.85664 5.88448 7.87751 5.93373C7.89838 5.98298 7.93268 6.02536 7.9765 6.05603C8.02881 6.09069 8.08899 6.11166 8.1515 6.11703C8.1915 6.12203 8.2375 6.12303 8.279 6.12403L8.3075 6.12453C8.391 6.12653 8.492 6.12903 8.619 6.14103C9.0155 6.17853 9.373 6.59603 9.2965 7.01753V7.01903C9.27777 7.12022 9.23854 7.21651 9.18124 7.30199C9.12394 7.38747 9.04977 7.46033 8.96328 7.5161C8.87679 7.57187 8.77982 7.60937 8.67831 7.6263C8.5768 7.64322 8.47291 7.63922 8.373 7.61453C8.282 7.59203 8.2155 7.57253 8.158 7.55603L8.0825 7.53453C8.04484 7.52371 8.00639 7.51585 7.9675 7.51103H7.966C7.91872 7.50527 7.87074 7.51144 7.82645 7.529C7.78217 7.54655 7.74299 7.57493 7.7125 7.61153C7.67677 7.65672 7.65614 7.71199 7.6535 7.76953C7.65244 7.79909 7.65513 7.82866 7.6615 7.85753C7.6695 7.89453 7.6835 7.93403 7.694 7.96253L7.7065 7.99703C7.728 8.05603 7.7545 8.12753 7.783 8.22353C7.906 8.63803 7.648 9.07353 7.224 9.16803C7.1222 9.19031 7.01686 9.19109 6.91474 9.17031C6.81261 9.14953 6.71595 9.10765 6.63095 9.04735C6.54594 8.98706 6.47447 8.90968 6.42109 8.82017C6.36772 8.73065 6.33363 8.63098 6.321 8.52753C6.31029 8.43776 6.30178 8.34773 6.2955 8.25753L6.2885 8.17353C6.28558 8.12818 6.27956 8.08307 6.2705 8.03853C6.25729 7.96867 6.2231 7.90449 6.1725 7.85453C6.13534 7.82055 6.09011 7.79664 6.04109 7.78509C5.99208 7.77354 5.94093 7.77472 5.8925 7.78853C5.84071 7.80388 5.79174 7.82752 5.7475 7.85853C5.67673 7.9068 5.60753 7.95733 5.54 8.01003L5.457 8.07253C5.37504 8.1343 5.28112 8.17834 5.18122 8.20186C5.08132 8.22538 4.97762 8.22786 4.87671 8.20914C4.7758 8.19043 4.67989 8.15092 4.59507 8.09315C4.51025 8.03537 4.43837 7.96058 4.384 7.87353C4.32795 7.78564 4.29091 7.687 4.27524 7.58394C4.25958 7.48088 4.26564 7.37568 4.29305 7.27511C4.32045 7.17453 4.36859 7.0808 4.43437 6.99993C4.50015 6.91906 4.58211 6.85284 4.675 6.80553C4.766 6.75953 4.8325 6.72903 4.891 6.70203C4.925 6.6867 4.958 6.6712 4.99 6.65553C5.0265 6.63753 5.0715 6.61503 5.11 6.58703C5.17721 6.54084 5.22425 6.47074 5.2415 6.39103C5.24908 6.34792 5.24728 6.30368 5.23624 6.26131C5.2252 6.21895 5.20516 6.17946 5.1775 6.14553C5.14766 6.10874 5.11415 6.07506 5.0775 6.04503C5.0485 6.0207 5.01567 5.99403 4.979 5.96503L4.9605 5.95003C4.9165 5.91537 4.86584 5.87403 4.8085 5.82603C4.72948 5.75949 4.66492 5.67747 4.6188 5.58503C4.57269 5.49258 4.546 5.39167 4.54037 5.28851C4.53475 5.18535 4.55032 5.08214 4.58611 4.98523C4.62191 4.88832 4.67717 4.79977 4.7485 4.72503C4.8211 4.64993 4.90853 4.59077 5.00524 4.55131C5.10195 4.51184 5.20581 4.49294 5.31022 4.49581C5.41463 4.49868 5.5173 4.52325 5.6117 4.56797C5.70609 4.61268 5.79014 4.67656 5.8585 4.75553L5.9825 4.90253L5.9915 4.91403C6.022 4.95103 6.0515 4.98603 6.0765 5.01403C6.1015 5.04303 6.1375 5.08203 6.18 5.11203C6.2215 5.14153 6.319 5.19703 6.4415 5.15853C6.51566 5.13395 6.57826 5.08309 6.6175 5.01553C6.6394 4.97752 6.65878 4.9381 6.6755 4.89753C6.6855 4.8752 6.6955 4.8512 6.7055 4.82553C6.7325 4.76053 6.764 4.68453 6.809 4.58803C6.85268 4.49305 6.91572 4.40825 6.9941 4.33906C7.07248 4.26988 7.16445 4.21785 7.26412 4.1863C7.36379 4.15476 7.46896 4.1444 7.57287 4.15589C7.67678 4.16738 7.77713 4.20047 7.8675 4.25303" fill="white"/>
</svg>
