<svg width="19" height="19" viewBox="0 0 19 19" fill="none" xmlns="http://www.w3.org/2000/svg">
<path d="M9.5 7.4L6.25 2.92L7.55 1H11.45L12.75 2.92L9.5 7.4ZM12.3438 4.84L11.3688 6.2C13.1562 6.92 14.375 8.6 14.375 10.6C14.375 11.873 13.8614 13.0939 12.9471 13.9941C12.0329 14.8943 10.7929 15.4 9.5 15.4C8.20707 15.4 6.96709 14.8943 6.05285 13.9941C5.13861 13.0939 4.625 11.873 4.625 10.6C4.625 8.6 5.84375 6.92 7.63125 6.2L6.65625 4.84C4.4625 5.88 3 8.04 3 10.6C3 12.2974 3.68482 13.9253 4.90381 15.1255C6.12279 16.3257 7.77609 17 9.5 17C11.2239 17 12.8772 16.3257 14.0962 15.1255C15.3152 13.9253 16 12.2974 16 10.6C16 8.04 14.5375 5.88 12.3438 4.84Z" fill="white"/>
</svg>
