<svg width="20" height="20" viewBox="0 0 20 20" fill="none" xmlns="http://www.w3.org/2000/svg">
<path fill-rule="evenodd" clip-rule="evenodd" d="M15.8234 4.15678C15.4185 4.22924 14.8474 4.41677 13.931 4.7215L7.01354 7.02831C6.13128 7.32239 5.50901 7.53016 5.06149 7.70491C4.89755 7.76761 4.73681 7.83837 4.57987 7.91694C4.48823 7.96489 4.45626 7.99153 4.45413 7.99153C4.3515 8.09087 4.26989 8.20984 4.21416 8.34136C4.15843 8.47287 4.12971 8.61425 4.12971 8.75709C4.12971 8.89993 4.15843 9.04131 4.21416 9.17282C4.26989 9.30434 4.3515 9.42331 4.45413 9.52265C4.49425 9.55073 4.53627 9.57601 4.57987 9.59831C4.68642 9.65478 4.84092 9.72403 5.06149 9.81141C5.50901 9.98508 6.13128 10.1929 7.01354 10.4869L7.07322 10.5072C7.36411 10.6031 7.61983 10.6883 7.85532 10.813C8.42299 11.1131 8.88711 11.5772 9.18723 12.1449C9.3119 12.3793 9.39714 12.635 9.49304 12.9269L9.51435 12.9866C9.80737 13.8688 10.0152 14.4911 10.1899 14.9386C10.2506 15.1034 10.3214 15.2642 10.4019 15.4202C10.4499 15.5118 10.4765 15.5438 10.4765 15.5459C10.5759 15.6486 10.6949 15.7302 10.8264 15.7859C10.9579 15.8416 11.0993 15.8704 11.2421 15.8704C11.385 15.8704 11.5263 15.8416 11.6579 15.7859C11.7894 15.7302 11.9084 15.6486 12.0077 15.5459C12.0358 15.5058 12.0611 15.4638 12.0834 15.4202C12.1398 15.3137 12.2091 15.1592 12.2965 14.9375C12.4701 14.49 12.6779 13.8688 12.972 12.9877L15.2768 6.07149C15.5826 5.15516 15.7701 4.58192 15.8415 4.17809L15.8468 4.15359L15.8234 4.15678ZM15.4504 2.05881C16.0365 1.95439 16.841 1.92349 17.459 2.54148C18.077 3.15947 18.045 3.96286 17.9417 4.54996C17.8394 5.12746 17.5975 5.85093 17.3258 6.66711L17.3002 6.74382L14.9944 13.6589L14.9837 13.6909C14.7024 14.5348 14.4787 15.2082 14.2816 15.7111C14.0972 16.1852 13.8788 16.6754 13.5485 17.0185C13.2502 17.3288 12.8923 17.5757 12.4962 17.7444C12.1002 17.9131 11.6742 18 11.2437 18C10.8133 18 10.3872 17.9131 9.99118 17.7444C9.59514 17.5757 9.23725 17.3288 8.93896 17.0185C8.60865 16.6754 8.39021 16.1852 8.20588 15.7111C8.00875 15.2082 7.78499 14.5348 7.50263 13.6898L7.49197 13.66C7.36411 13.2754 7.33534 13.1986 7.30444 13.14C7.20436 12.9506 7.04951 12.7958 6.86011 12.6957C6.8015 12.6638 6.72478 12.6361 6.34013 12.5071L6.31029 12.4965C5.46532 12.2152 4.79191 11.9914 4.28791 11.7943C3.81481 11.61 3.32467 11.3915 2.98156 11.0612C2.6712 10.763 2.42428 10.4051 2.25561 10.0091C2.08694 9.61302 2 9.18701 2 8.75656C2 8.32611 2.08694 7.90009 2.25561 7.50406C2.42428 7.10803 2.6712 6.75015 2.98156 6.45188C3.32467 6.12157 3.81481 5.90314 4.28791 5.71881C4.95672 5.46938 5.63101 5.23491 6.31029 5.01558L6.34013 5.00492L13.2565 2.70024L13.3332 2.67467C14.1494 2.40297 14.8729 2.1611 15.4504 2.05881Z" fill="white"/>
</svg>
