<svg width="12" height="13" viewBox="0 0 12 13" fill="none" xmlns="http://www.w3.org/2000/svg">
<path d="M1.09063 4.875C1.09063 3.58207 1.60786 2.34209 2.52855 1.42785C3.44923 0.513614 4.69795 0 6 0C7.30205 0 8.55076 0.513614 9.47145 1.42785C10.3921 2.34209 10.9094 3.58207 10.9094 4.875V6.93712L11.9611 9.54904C11.9941 9.63119 12.0064 9.72014 11.9969 9.8081C11.9873 9.89606 11.9562 9.98036 11.9062 10.0536C11.8563 10.1269 11.7891 10.1869 11.7104 10.2284C11.6317 10.2699 11.544 10.2916 11.4549 10.2917H0.545141C0.456046 10.2916 0.368322 10.2699 0.289635 10.2284C0.210949 10.1869 0.143696 10.1269 0.0937544 10.0536C0.0438133 9.98036 0.0127048 9.89606 0.00314762 9.8081C-0.00640952 9.72014 0.00587582 9.63119 0.0389299 9.54904L1.09063 6.93712V4.875ZM3.88624 11.375C4.00637 11.8407 4.27945 12.2534 4.66228 12.5477C5.04512 12.842 5.51585 13.0012 6 13C6.48415 13.0012 6.95488 12.842 7.33772 12.5477C7.72055 12.2534 7.99363 11.8407 8.11376 11.375H3.88624Z" fill="white"/>
</svg>
