<svg width="20" height="20" viewBox="0 0 20 20" fill="none" xmlns="http://www.w3.org/2000/svg">
<path d="M16.992 14.0474C16.9586 13.841 16.8292 13.6646 16.6354 13.5598L13.7684 11.8706L13.7448 11.8574C13.6246 11.7972 13.4918 11.7664 13.3574 11.7674C13.1172 11.7674 12.8878 11.8584 12.7286 12.018L11.8824 12.8646C11.8462 12.899 11.7282 12.9488 11.6924 12.9506C11.6826 12.9498 10.7078 12.8796 8.9132 11.0848C7.1218 9.29375 7.0458 8.31595 7.0452 8.31595C7.0462 8.26595 7.0954 8.14835 7.1304 8.11195L7.852 7.39055C8.1062 7.13575 8.1824 6.71335 8.0316 6.38615L6.438 3.38755C6.3222 3.14915 6.0972 3.00195 5.8476 3.00195C5.671 3.00195 5.5006 3.07515 5.3674 3.20815L3.4004 5.17075C3.2118 5.35835 3.0494 5.68635 3.014 5.95035C2.9968 6.07655 2.6478 9.08895 6.7778 13.2196C10.284 16.7254 13.018 16.9978 13.773 16.9978C13.8649 16.9988 13.9569 16.994 14.0482 16.9836C14.3114 16.9484 14.639 16.7864 14.8264 16.5986L16.7918 14.6334C16.9522 14.4722 17.0254 14.2592 16.992 14.0474Z" fill="white"/>
</svg>