<svg width="20" height="21" viewBox="0 0 20 21" fill="none" xmlns="http://www.w3.org/2000/svg">
<path d="M10 18.8334C9.54167 18.8334 9.14945 18.6704 8.82333 18.3442C8.49722 18.0181 8.33389 17.6256 8.33333 17.1667H11.6667C11.6667 17.6251 11.5036 18.0176 11.1775 18.3442C10.8514 18.6709 10.4589 18.834 10 18.8334ZM6.66667 16.3334V14.6667H13.3333V16.3334H6.66667ZM6.875 13.8334C5.91667 13.264 5.15611 12.5001 4.59333 11.5417C4.03056 10.5834 3.74945 9.54175 3.75 8.41675C3.75 6.68064 4.35778 5.20508 5.57333 3.99008C6.78889 2.77508 8.26445 2.1673 10 2.16675C11.7356 2.16619 13.2114 2.77397 14.4275 3.99008C15.6436 5.20619 16.2511 6.68175 16.25 8.41675C16.25 9.54175 15.9689 10.5834 15.4067 11.5417C14.8444 12.5001 14.0839 13.264 13.125 13.8334H6.875Z" fill="white"/>
</svg>
