<svg width="11" height="21" viewBox="0 0 11 21" fill="none" xmlns="http://www.w3.org/2000/svg">
<path d="M4.72727 0.0577491C5.21908 0.185066 5.62609 0.513625 5.85503 0.969502C5.96527 1.18307 5.97374 1.24467 5.97798 1.65537C5.97798 2.09071 5.97374 2.11946 5.83383 2.39052C5.66849 2.71908 5.4141 2.97371 5.07493 3.14621C4.21003 3.59387 3.16282 3.23656 2.70917 2.34534C2.59894 2.13178 2.59046 2.06607 2.58622 1.6759C2.58622 1.26931 2.5947 1.22824 2.73037 0.961288C3.09922 0.222029 3.92597 -0.151708 4.72727 0.0577491Z" fill="#E51717"/>
<path d="M9.28496 1.18307C10.4721 1.37199 11.2352 2.4973 10.9342 3.62262C10.7561 4.28795 10.1838 4.84651 9.49694 5.02311C9.07297 5.12989 9.03057 5.11757 8.91186 4.86293C8.76771 4.56312 8.53877 4.32902 8.25471 4.19349C8.03848 4.09082 7.96641 4.0785 7.60179 4.0785L7.19054 4.0826L7.10575 3.89368C6.64362 2.83408 7.2287 1.60198 8.3607 1.25289C8.62356 1.17075 9.01785 1.142 9.28496 1.18307Z" fill="#E51717"/>
<path d="M3.60375 3.55691C4.15915 3.7253 4.35842 3.82386 4.57464 4.02921C4.74847 4.1976 4.9223 4.45634 4.88838 4.4892C4.8799 4.49741 4.72303 4.46866 4.54072 4.42348C4.35842 4.37831 4.20155 4.34545 4.19731 4.35366C4.18883 4.36188 4.53224 4.56312 4.96045 4.80543L5.73632 5.24078L6.58002 4.97793C7.04215 4.83418 7.47884 4.70276 7.55515 4.69044C7.8265 4.64115 8.20383 4.85061 8.31406 5.11346C8.44973 5.42148 8.33102 5.82397 8.05544 5.98825C7.9876 6.02932 7.44492 6.21413 6.8556 6.39895C5.96103 6.67822 5.7448 6.73572 5.57945 6.71929C5.38443 6.69876 5.31659 6.6659 3.47656 5.62683C3.41296 5.58987 3.6843 5.91022 3.83269 6.04575L3.96412 6.16896L3.40448 6.4852C3.09498 6.6618 2.73461 6.89589 2.60742 7.00678C2.23008 7.33124 2.18345 7.45855 1.84003 9.11778L1.53477 10.584L1.41182 10.6127C1.1744 10.662 0.797064 10.6374 0.635955 10.5634C0.42397 10.469 0.199266 10.239 0.089034 10.0131C0.0211987 9.87347 -4.14202e-07 9.75026 -4.14202e-07 9.49973C0.00423929 9.1917 0.0466362 9.02742 0.775866 6.74804C1.20408 5.41327 1.59837 4.25099 1.65348 4.15653C1.78916 3.93475 2.10289 3.65958 2.34456 3.5528C2.66677 3.41316 3.13738 3.41727 3.60375 3.55691Z" fill="#E51717"/>
<path d="M4.76967 6.99857C5.11308 7.33124 5.27843 7.4257 5.53705 7.4257C5.62609 7.4257 6.08398 7.30659 6.55458 7.15874C7.02943 7.01089 7.41948 6.9 7.42796 6.90821C7.43644 6.91643 6.77081 7.30659 5.94831 7.77479C5.1258 8.2471 4.44745 8.63726 4.43897 8.64137C4.43049 8.64547 4.3033 9.23688 4.15067 9.95971C3.84541 11.4177 3.81149 11.5039 3.45536 11.6888C3.18826 11.8243 2.8194 11.8038 2.56926 11.6395C2.37847 11.508 2.18345 11.1795 2.18345 10.9824C2.18345 10.7893 2.81092 7.84872 2.87876 7.7214C2.97627 7.54069 3.14586 7.41337 3.80301 7.03964C4.14643 6.84661 4.43049 6.68644 4.43897 6.68644C4.44745 6.68644 4.59584 6.82607 4.76967 6.99857Z" fill="#E51717"/>
<path d="M8.56844 7.20803C8.54725 7.46266 8.25471 8.35798 7.8265 9.49151C7.8053 9.54491 7.66963 9.41348 7.2075 8.90011C6.88104 8.53459 6.6097 8.22656 6.60546 8.21013C6.60122 8.19781 6.95312 7.98425 7.38981 7.73372C7.8265 7.4873 8.2759 7.19981 8.39038 7.09714L8.59812 6.91232L8.56844 7.20803Z" fill="#E51717"/>
<path d="M7.11847 9.83239C7.7417 10.5224 8.29286 11.1548 8.34374 11.237C8.41582 11.3561 8.43701 11.4547 8.43701 11.697C8.43701 11.9598 8.42006 12.0337 8.3183 12.2021C8.02152 12.6909 7.36013 12.851 6.86408 12.5553C6.64362 12.4239 4.83326 10.3951 4.82478 10.2677C4.8163 10.2061 4.86718 9.91864 4.93078 9.62294L5.04525 9.08903L5.46922 8.8344C5.7024 8.69476 5.91439 8.57976 5.93983 8.57976C5.96527 8.57566 6.49523 9.14242 7.11847 9.83239Z" fill="#E51717"/>
<path d="M5.36323 11.9927C5.77024 12.4444 6.18573 12.8839 6.28748 12.9701C6.47827 13.1344 6.88528 13.3192 7.15662 13.3603L7.31349 13.3849L7.30501 16.843C7.29229 20.1245 7.28805 20.3093 7.21174 20.4449C7.10151 20.6461 6.9404 20.8063 6.74113 20.909C6.51643 21.024 6.08822 21.0322 5.83807 20.9213C5.74056 20.8802 5.66001 20.835 5.66001 20.8268C5.66001 20.8186 5.7024 20.6954 5.75328 20.5558L5.85079 20.3011V13.9764L5.15124 13.9517V17.0853C5.15124 20.1492 5.147 20.2231 5.06221 20.4038C4.87566 20.8022 4.56616 20.9952 4.11251 20.9952C3.65887 20.9952 3.34937 20.8022 3.16282 20.4038C3.07803 20.2231 3.07379 20.1533 3.07379 16.3502V12.4773L3.16706 12.4609C3.22218 12.4486 3.32393 12.4321 3.40024 12.4198C3.90053 12.3377 4.37114 11.9105 4.55768 11.3643L4.62128 11.1672L5.36323 11.9927Z" fill="#E51717"/>
</svg>
