<svg width="118" height="112" viewBox="0 0 118 112" fill="none" xmlns="http://www.w3.org/2000/svg">
<g filter="url(#filter0_d_1430_267)">
<path d="M25.1101 57.9664C24.4211 56.746 24.4211 55.254 25.1101 54.0336L40.3521 27.0336C41.0614 25.7771 42.3925 25 43.8354 25L74.1657 25C75.6086 25 76.9397 25.7771 77.649 27.0337L92.8901 54.0337C93.5789 55.2541 93.5789 56.7459 92.8901 57.9663L77.649 84.9663C76.9397 86.2229 75.6086 87 74.1657 87H43.8354C42.3925 87 41.0614 86.2229 40.3521 84.9664L25.1101 57.9664Z" fill="black" fill-opacity="0.6" shape-rendering="crispEdges"/>
<path d="M25.1101 57.9664C24.4211 56.746 24.4211 55.254 25.1101 54.0336L40.3521 27.0336C41.0614 25.7771 42.3925 25 43.8354 25L74.1657 25C75.6086 25 76.9397 25.7771 77.649 27.0337L92.8901 54.0337C93.5789 55.2541 93.5789 56.7459 92.8901 57.9663L77.649 84.9663C76.9397 86.2229 75.6086 87 74.1657 87H43.8354C42.3925 87 41.0614 86.2229 40.3521 84.9664L25.1101 57.9664Z" fill="url(#paint0_linear_1430_267)" shape-rendering="crispEdges"/>
<path d="M25.4584 57.7697C24.8383 56.6714 24.8383 55.3286 25.4584 54.2303L40.7004 27.2303C41.3388 26.0994 42.5368 25.4 43.8354 25.4L74.1657 25.4C75.4643 25.4 76.6623 26.0994 77.3007 27.2303L92.5417 54.2303C93.1617 55.3287 93.1617 56.6713 92.5417 57.7697L77.3007 84.7697C76.6623 85.9006 75.4643 86.6 74.1657 86.6H43.8354C42.5368 86.6 41.3388 85.9006 40.7004 84.7697L25.4584 57.7697Z" stroke="#E51717" stroke-width="0.8" shape-rendering="crispEdges"/>
</g>
<path d="M50.8628 46.5848L58.9964 54.7124L67.0436 46.6664C67.592 46.178 68.1596 46.4696 68.3864 46.7144C68.5319 46.8917 68.6069 47.1164 68.5972 47.3455C68.5874 47.5746 68.4936 47.7921 68.3336 47.9564L60.2852 56.0012L68.3336 64.0436C68.6912 64.3436 68.6912 64.9316 68.4044 65.2604C68.1164 65.588 67.5884 65.7776 67.0904 65.3888L58.9964 57.29L50.8928 65.3924C50.5376 65.7104 49.952 65.6456 49.6628 65.33C49.3724 65.0132 49.262 64.466 49.6328 64.0796L57.7076 56.0012L49.6664 47.9564C49.3724 47.6324 49.2704 47.0396 49.6664 46.6664C50.0624 46.2932 50.6528 46.3448 50.8628 46.5848Z" fill="white"/>
<defs>
<filter id="filter0_d_1430_267" x="0.393383" y="0.799999" width="117.213" height="110.4" filterUnits="userSpaceOnUse" color-interpolation-filters="sRGB">
<feFlood flood-opacity="0" result="BackgroundImageFix"/>
<feColorMatrix in="SourceAlpha" type="matrix" values="0 0 0 0 0 0 0 0 0 0 0 0 0 0 0 0 0 0 127 0" result="hardAlpha"/>
<feOffset/>
<feGaussianBlur stdDeviation="12.1"/>
<feComposite in2="hardAlpha" operator="out"/>
<feColorMatrix type="matrix" values="0 0 0 0 0.898039 0 0 0 0 0.0901961 0 0 0 0 0.0901961 0 0 0 0.25 0"/>
<feBlend mode="normal" in2="BackgroundImageFix" result="effect1_dropShadow_1430_267"/>
<feBlend mode="normal" in="SourceGraphic" in2="effect1_dropShadow_1430_267" result="shape"/>
</filter>
<linearGradient id="paint0_linear_1430_267" x1="7.5318" y1="10.568" x2="101.41" y2="116.56" gradientUnits="userSpaceOnUse">
<stop stop-color="#E51717"/>
<stop offset="1" stop-color="#E51717" stop-opacity="0"/>
</linearGradient>
</defs>
</svg>
