<svg width="17" height="15" viewBox="0 0 17 15" fill="none" xmlns="http://www.w3.org/2000/svg">
<path d="M16.1133 1.98497L11.8204 0.482199C11.8021 0.475786 11.7825 0.473491 11.7631 0.475477C11.7438 0.477463 11.7251 0.483681 11.7084 0.493692C11.6917 0.503702 11.6774 0.51726 11.6665 0.533405C11.6556 0.54955 11.6485 0.567888 11.6454 0.587121C11.5212 1.33123 11.1372 2.00716 10.5615 2.49471C9.98579 2.98227 9.25584 3.24984 8.50145 3.24984C7.74705 3.24984 7.0171 2.98227 6.44142 2.49471C5.86574 2.00716 5.48164 1.33123 5.35744 0.587121C5.35453 0.567568 5.34729 0.548912 5.33625 0.532513C5.32521 0.516115 5.31064 0.502388 5.29362 0.492335C5.2766 0.482281 5.25755 0.476154 5.23786 0.474401C5.21817 0.472647 5.19833 0.475311 5.1798 0.482199L0.886973 1.98497C0.766819 2.02703 0.665764 2.11084 0.602205 2.22114C0.538645 2.33144 0.516806 2.4609 0.540664 2.58595L1.09283 5.50782C1.11408 5.61919 1.1704 5.72084 1.25356 5.79791C1.33672 5.87498 1.44236 5.92341 1.55502 5.93614L3.17799 6.11943C3.24424 6.1269 3.30526 6.15901 3.34893 6.20938C3.3926 6.25976 3.41573 6.32472 3.41373 6.39136L3.17035 14.39C3.16713 14.4931 3.19398 14.5949 3.24763 14.683C3.30128 14.7711 3.37942 14.8416 3.4725 14.886C3.54988 14.921 3.63397 14.9386 3.71887 14.9375H13.2814C13.3663 14.9386 13.4504 14.921 13.5277 14.886C13.6208 14.8416 13.699 14.7711 13.7526 14.683C13.8063 14.5949 13.8331 14.4931 13.8299 14.39L13.5865 6.39136C13.5845 6.32472 13.6076 6.25976 13.6513 6.20938C13.695 6.15901 13.756 6.1269 13.8222 6.11943L15.4452 5.93614C15.5579 5.92341 15.6635 5.87498 15.7467 5.79791C15.8298 5.72084 15.8862 5.61919 15.9074 5.50782L16.4596 2.58595C16.4834 2.4609 16.4616 2.33144 16.398 2.22114C16.3345 2.11084 16.2334 2.02703 16.1133 1.98497Z" fill="#E51717"/>
</svg>
