<svg width="9" height="21" viewBox="0 0 9 21" fill="none" xmlns="http://www.w3.org/2000/svg">
<path d="M4.08982 0.0363655C3.42956 0.163603 2.86541 0.730018 2.72333 1.41136C2.46006 2.68374 3.64268 3.78783 4.92559 3.45948C6.28791 3.1106 6.72251 1.43598 5.69033 0.479646C5.26408 0.0815144 4.68322 -0.0785592 4.08982 0.0363655Z" fill="#E51717"/>
<path d="M4.11071 4.32962C3.44209 4.41581 2.89884 4.55947 2.48513 4.76469C0.905516 5.54043 -0.0598047 7.60908 0.00287844 10.0964C0.0195939 10.7818 0.0279517 10.8311 0.136602 11.0404C0.316294 11.3934 0.604637 11.5617 1.03088 11.5658C1.29415 11.5658 1.47802 11.496 1.63264 11.3359C1.82487 11.1348 1.83741 11.0363 1.80815 10.277C1.76636 9.22213 1.87502 8.38892 2.155 7.66654L2.27201 7.35871L2.28455 10.1292C2.2929 11.652 2.27201 14.2829 2.24276 15.9781C2.2135 17.6691 2.18843 19.3642 2.18843 19.7377C2.18843 20.4109 2.18843 20.4191 2.30126 20.5874C2.61886 21.0594 3.37523 21.1415 3.85162 20.7556C4.11489 20.5422 4.18175 20.3616 4.21936 19.7418C4.26115 19.0933 4.34055 15.3295 4.34055 14.0366V13.1255H4.63307V13.8519C4.63307 15.0299 4.71665 19.0441 4.75426 19.6926C4.77933 20.1769 4.80441 20.3206 4.87545 20.4601C5.21812 21.1127 6.26701 21.1866 6.67237 20.5874C6.7852 20.4191 6.7852 20.4109 6.7852 19.7172C6.7852 19.3314 6.76012 17.6486 6.73505 15.9781C6.7058 14.3075 6.67237 11.6479 6.65983 10.0676L6.63476 7.19453L6.72669 7.35871C6.86042 7.59676 7.0025 8.03594 7.10697 8.52437C7.18637 8.90198 7.1989 9.1031 7.20308 10.0266C7.20726 10.7285 7.22398 11.1225 7.25323 11.1758C7.49978 11.6068 8.19765 11.6971 8.64062 11.3564C8.71166 11.3031 8.82031 11.1553 8.88299 11.0322L9 10.8064V9.88294C9 9.1072 8.98328 8.88146 8.90806 8.46691C8.51943 6.41058 7.48307 5.00685 5.99957 4.54305C5.51482 4.39119 4.51189 4.27626 4.11071 4.32962Z" fill="#E51717"/>
</svg>
