<svg width="15" height="17" viewBox="0 0 15 17" fill="none" xmlns="http://www.w3.org/2000/svg">
<g clip-path="url(#clip0_1430_336)">
<path d="M4.48906 0.587695L4.25 1.0625H1.0625C0.474805 1.0625 0 1.5373 0 2.125C0 2.7127 0.474805 3.1875 1.0625 3.1875H13.8125C14.4002 3.1875 14.875 2.7127 14.875 2.125C14.875 1.5373 14.4002 1.0625 13.8125 1.0625H10.625L10.3859 0.587695C10.2066 0.225781 9.83809 0 9.43633 0H5.43867C5.03691 0 4.66836 0.225781 4.48906 0.587695ZM13.8125 4.25H1.0625L1.76641 15.5059C1.81953 16.3459 2.5168 17 3.35684 17H11.5182C12.3582 17 13.0555 16.3459 13.1086 15.5059L13.8125 4.25Z" fill="#E51717"/>
</g>
<defs>
<clipPath id="clip0_1430_336">
<rect width="14.875" height="17" fill="white"/>
</clipPath>
</defs>
</svg>
