<svg width="17" height="17" viewBox="0 0 17 17" fill="none" xmlns="http://www.w3.org/2000/svg">
<g clip-path="url(#clip0_1430_277)">
<path d="M10.7929 1.08214C9.94485 1.30508 9.62382 1.6043 8.55776 3.15904L7.71582 4.38523L6.82541 3.54039C5.5413 2.32006 5.20815 2.19686 3.35466 2.23793C2.59752 2.24966 2.42186 2.27313 2.28255 2.36113C1.93123 2.58994 1.93123 3.15317 2.28255 3.38198C2.42186 3.46998 2.61569 3.49345 3.65752 3.51692L4.86895 3.54626L5.14152 3.734C5.29295 3.83374 5.6685 4.16815 5.98347 4.47323L6.55284 5.03059L6.31661 5.09513C6.18941 5.12446 5.46861 5.30047 4.71752 5.48235C3.96644 5.66422 3.23958 5.8637 3.10632 5.92237C2.73683 6.07491 2.37946 6.41519 2.19169 6.79068L2.02209 7.12509L2.00392 8.97318C1.98575 11.0149 2.02209 11.3962 2.30072 11.9653C2.51272 12.3995 3.05181 12.9451 3.48186 13.1563C4.06335 13.4438 4.36015 13.4907 5.50495 13.4907H6.57707L6.64976 13.7371C7.00107 14.8871 8.05502 15.7847 9.27856 15.9666C10.8292 16.1954 12.3859 15.2273 12.8402 13.7371L12.9129 13.4907H17.171H21.4232L21.5564 13.8721C22.144 15.5735 24.1307 16.4535 25.8267 15.7612C26.7292 15.3975 27.3471 14.7463 27.6741 13.8134L27.7771 13.5201L29.4368 13.4907C31.6295 13.4497 31.4659 13.5553 32.4411 11.6426L32.9742 10.5983L32.9923 9.00838C33.0105 7.49471 33.0044 7.39497 32.8833 7.07816C32.6834 6.56773 32.423 6.27438 31.9747 6.05144C31.6113 5.87543 31.3327 5.82263 28.2859 5.33567C26.4748 5.04819 24.9848 4.80178 24.9787 4.79591C24.9727 4.78418 24.5002 4.10361 23.9308 3.27637C23.2827 2.3318 22.8042 1.70403 22.6588 1.58669C22.3499 1.35202 21.8896 1.13494 21.5564 1.05867C21.3808 1.0176 19.4728 1 16.1958 1C12.0103 1 11.0533 1.0176 10.7929 1.08214ZM21.2536 2.29073C21.4474 2.3318 21.6473 2.42567 21.7805 2.53714C21.9441 2.67795 22.998 4.12708 23.3372 4.67271C23.3736 4.73138 21.9259 4.74898 16.1958 4.74898H9.0181L9.69045 3.76333C10.0599 3.22357 10.4234 2.71902 10.4961 2.64861C10.6414 2.48434 10.9079 2.34353 11.1684 2.27899C11.4773 2.20859 20.9022 2.21446 21.2536 2.29073ZM10.4113 11.1381C10.8292 11.2906 11.1078 11.5077 11.3441 11.8656C12.1073 13.0038 11.4531 14.4646 10.0599 14.7228C9.01205 14.9105 7.9581 14.142 7.82484 13.08C7.75822 12.5051 8.07925 11.76 8.55776 11.408C9.06656 11.0325 9.82371 10.921 10.4113 11.1381ZM25.4633 11.2144C25.8267 11.3962 26.1538 11.7189 26.3476 12.0827C26.5536 12.464 26.5536 13.2795 26.3537 13.6785C26.1901 14.0012 25.8025 14.3942 25.4936 14.5468C24.9848 14.7991 24.2519 14.7991 23.7431 14.5526C22.6467 14.007 22.3378 12.6048 23.1192 11.7013C23.3191 11.4666 23.6764 11.2202 23.9611 11.1146C24.3306 10.9797 25.0877 11.0266 25.4633 11.2144Z" fill="#E51717"/>
</g>
<defs>
<clipPath id="clip0_1430_277">
<rect width="17" height="17" fill="white"/>
</clipPath>
</defs>
</svg>
