<svg width="60" height="60" viewBox="0 0 60 60" fill="none" xmlns="http://www.w3.org/2000/svg">
<path d="M26.818 3.88909C28.5754 2.13173 31.4246 2.13173 33.182 3.88909L56.1109 26.818C57.8683 28.5754 57.8683 31.4246 56.1109 33.182L33.182 56.1109C31.4246 57.8683 28.5754 57.8683 26.818 56.1109L3.88909 33.182C2.13173 31.4246 2.13173 28.5754 3.88909 26.818L26.818 3.88909Z" fill="url(#paint0_linear_116_3327)" stroke="#1871BF"/>
<path d="M28.7126 19.1004C28.2222 19.2352 27.5724 19.9218 27.3639 20.5103C27.2168 20.964 27.1678 20.9885 26.5425 21.0866C25.6475 21.2092 24.2866 21.908 23.6245 22.5701L23.085 23.1341L23.2444 23.8943C23.8942 27.0452 24.1149 27.5234 25.2306 28.0874L25.8804 28.4061H30.0122H34.144L34.7938 28.0628C35.8115 27.5356 36.0689 27.0697 36.5226 24.9364L36.9149 23.1341L36.4245 22.6314C35.6521 21.8222 34.5118 21.246 33.3348 21.0743C32.8444 21.0008 32.7831 20.9517 32.636 20.4981C32.4276 19.9096 31.6306 19.1494 31.0912 19.0391C30.5517 18.941 29.154 18.9655 28.7126 19.1004ZM31.2873 19.9954C31.6674 20.2406 32.0107 20.7556 31.9126 20.9149C31.8023 21.0988 28.1364 21.0253 28.0751 20.8536C28.0015 20.6207 28.639 19.9586 29.0559 19.8238C29.6076 19.6644 30.9195 19.7625 31.2873 19.9954ZM33.0896 25.292C33.1141 25.6965 33.0774 26.0031 33.0038 26.0276C32.9302 26.0644 31.5325 26.0644 29.8896 26.0521L26.8858 26.0153L26.8735 25.4023C26.8613 25.059 26.8735 24.7525 26.898 24.6912C26.9226 24.6421 28.3203 24.6054 30 24.6054H33.0406L33.0896 25.292Z" fill="white"/>
<path d="M19.0268 19.6153C18.5364 19.8483 18.1686 20.2651 17.8743 20.9395C16.7096 23.5632 17.813 28.3081 20.731 33.249L21.2337 34.1073L21.2705 33.1019L21.3073 32.0843L20.682 31.2874C19.0513 29.1418 18.1563 26.0889 18.4628 23.6123C18.6467 22.141 18.8429 21.4667 19.223 21.0253C19.5172 20.6697 19.5785 20.6452 19.8605 20.7678C20.2651 20.9517 20.682 21.5157 21.2705 22.6805L21.7486 23.6368L22.8889 22.3985L24.0414 21.1479L23.7348 20.9149C23.5755 20.7923 22.9256 20.4245 22.3004 20.118C21.3195 19.6276 21.0253 19.5295 20.2774 19.4927C19.6889 19.4682 19.272 19.505 19.0268 19.6153Z" fill="white"/>
<path d="M38.9134 19.5908C38.1532 19.7747 35.9586 20.9762 36.0321 21.1724C36.0567 21.2337 36.5593 21.81 37.1601 22.4598L38.2513 23.6368L38.7908 22.5579C39.2934 21.5525 39.9923 20.682 40.2988 20.682C40.5808 20.682 41.0222 21.295 41.2061 21.9203C41.6842 23.5264 41.6842 25.5985 41.2183 27.4376C40.9364 28.5287 40.0781 30.2697 39.3302 31.2628L38.6927 32.1088L38.7295 33.1019L38.7662 34.1073L39.2689 33.249C41.672 29.1785 42.8735 25.1939 42.5057 22.4843C42.1624 19.9709 41.059 19.0881 38.9134 19.5908Z" fill="white"/>
<path d="M22.2636 24.5686L21.9693 25.2797V32.6605V40.0291L22.2758 40.3602C22.9256 41.059 22.6927 41.0345 30.0245 41.0345C36.5716 41.0345 36.8168 41.0222 37.2091 40.7893C37.4298 40.6544 37.7118 40.3724 37.8467 40.1517C38.0919 39.7594 38.0919 39.5632 38.0674 32.5134L38.0306 25.2797L37.7363 24.5686C37.577 24.1762 37.4053 23.9065 37.3563 23.9556C37.3072 24.0046 37.1478 24.6299 36.9885 25.341C36.5471 27.364 36.0567 28.1241 34.8183 28.6759C34.3402 28.8843 33.9478 28.9088 29.9877 28.8966C26.0888 28.8966 25.6229 28.872 25.1693 28.6636C23.9555 28.1241 23.4528 27.3517 23.0114 25.341C22.8521 24.6299 22.6927 24.0046 22.6314 23.9556C22.5823 23.8943 22.4229 24.164 22.2636 24.5686ZM35.1494 33.433V34.1686H30H24.8505V33.433V32.6973H30H35.1494V33.433ZM35.1494 37.4421V39.2567H30H24.8505V37.4421V35.6399H30H35.1494V37.4421Z" fill="white"/>
<defs>
<linearGradient id="paint0_linear_116_3327" x1="0" y1="0" x2="60" y2="60" gradientUnits="userSpaceOnUse">
<stop stop-color="#1E90F3"/>
<stop offset="1" stop-color="#1871BF"/>
</linearGradient>
</defs>
</svg>
