<svg width="40" height="40" viewBox="0 0 40 40" fill="none" xmlns="http://www.w3.org/2000/svg">
<rect width="40" height="40" rx="20" fill="url(#paint0_linear_240_1147)"/>
<path d="M15.4167 13.5833H30.0833V17.25H29.1667V18.1667H23.6667C23.4235 18.1667 23.1904 18.2632 23.0185 18.4352C22.8466 18.6071 22.75 18.8402 22.75 19.0833V20C22.75 20.4862 22.5568 20.9526 22.213 21.2964C21.8692 21.6402 21.4029 21.8333 20.9167 21.8333H17.8183C17.47 21.8333 17.1492 22.035 16.9933 22.3467L14.7475 26.8292C14.5917 27.1408 14.28 27.3333 13.9317 27.3333H10.8333C10.8333 27.3333 8.08332 27.3333 11.75 21.8333C11.75 21.8333 14.5 18.1667 10.8333 18.1667V13.5833H11.75L12.2083 12.6667H14.9583L15.4167 13.5833ZM21.8333 20V19.0833C21.8333 18.8402 21.7367 18.6071 21.5648 18.4352C21.3929 18.2632 21.1598 18.1667 20.9167 18.1667H20C20 18.1667 19.0833 19.0833 20 20C19.5138 20 19.0474 19.8069 18.7036 19.463C18.3598 19.1192 18.1667 18.6529 18.1667 18.1667C17.9235 18.1667 17.6904 18.2632 17.5185 18.4352C17.3466 18.6071 17.25 18.8402 17.25 19.0833V20C17.25 20.2431 17.3466 20.4763 17.5185 20.6482C17.6904 20.8201 17.9235 20.9167 18.1667 20.9167H20.9167C21.1598 20.9167 21.3929 20.8201 21.5648 20.6482C21.7367 20.4763 21.8333 20.2431 21.8333 20Z" fill="white"/>
<defs>
<linearGradient id="paint0_linear_240_1147" x1="40" y1="20" x2="0" y2="20" gradientUnits="userSpaceOnUse">
<stop stop-color="#1E90F3"/>
<stop offset="1" stop-color="#1871BF"/>
</linearGradient>
</defs>
</svg>
