<svg width="24" height="24" viewBox="0 0 24 24" fill="none" xmlns="http://www.w3.org/2000/svg">
<path d="M12.0007 6.5C12.3693 6.5 12.6785 6.372 12.9283 6.116C13.1781 5.86 13.3025 5.54356 13.3017 5.16667C13.3008 4.78978 13.1759 4.47333 12.927 4.21733C12.6781 3.96133 12.3693 3.83333 12.0007 3.83333C11.632 3.83333 11.3232 3.96133 11.0743 4.21733C10.8254 4.47333 10.7005 4.78978 10.6996 5.16667C10.6988 5.54356 10.8237 5.86044 11.0743 6.11733C11.325 6.37422 11.6338 6.50178 12.0007 6.5ZM14.4999 5.876C14.4135 6.16311 14.6091 6.5 14.909 6.5H17.2776C17.811 6.5 18.2707 6.67511 18.6567 7.02533C19.0418 7.37556 19.2717 7.82178 19.3463 8.364L20.9751 20.0573C21.0671 20.7027 20.904 21.2711 20.486 21.7627C20.0688 22.2542 19.534 22.5 18.8818 22.5H5.11952C4.46727 22.5 3.93211 22.2542 3.51405 21.7627C3.09598 21.2711 2.93292 20.7022 3.02486 20.056L4.65375 8.364C4.72921 7.82178 4.95906 7.37556 5.34329 7.02533C5.731 6.67511 6.19156 6.5 6.72498 6.5H9.09437C9.39386 6.5 9.58903 6.16277 9.50268 5.876C9.43329 5.64756 9.3986 5.41111 9.3986 5.16667C9.3986 4.41467 9.64883 3.78222 10.1493 3.26933C10.6497 2.75644 11.2669 2.5 12.0007 2.5C12.7344 2.5 13.3516 2.75644 13.852 3.26933C14.3525 3.78222 14.6027 4.41467 14.6027 5.16667C14.6027 5.41111 14.5684 5.64756 14.4999 5.876Z" fill="url(#paint0_linear_116_3268)"/>
<defs>
<linearGradient id="paint0_linear_116_3268" x1="3" y1="2.5" x2="22.8895" y2="20.4006" gradientUnits="userSpaceOnUse">
<stop stop-color="#1E90F3"/>
<stop offset="1" stop-color="#1871BF"/>
</linearGradient>
</defs>
</svg>
