<svg width="12" height="12" viewBox="0 0 12 12" fill="none" xmlns="http://www.w3.org/2000/svg">
<g clip-path="url(#clip0_78_216)">
<path fill-rule="evenodd" clip-rule="evenodd" d="M4.10972 1.59543C4.59164 1.15401 5.25308 0.9 5.95016 0.9C6.64724 0.9 7.30868 1.15401 7.7906 1.59543C8.27119 2.03564 8.53278 2.62379 8.53278 3.22778V5H3.36754V3.22778C3.36754 2.62379 3.62913 2.03564 4.10972 1.59543ZM2.9182 5.9C2.91798 5.9 2.91776 5.9 2.91754 5.9C2.91732 5.9 2.9171 5.9 2.91688 5.9H1.70455C1.24514 5.9 0.941504 6.23235 0.941504 6.56111V10.45C0.941504 10.7788 1.24514 11.1111 1.70455 11.1111H10.1959C10.6553 11.1111 10.9589 10.7788 10.9589 10.45V6.56111C10.9589 6.23235 10.6553 5.9 10.1959 5.9H8.98344C8.98322 5.9 8.983 5.9 8.98278 5.9C8.98256 5.9 8.98234 5.9 8.98212 5.9H2.9182ZM9.43278 5V3.22778C9.43278 2.35834 9.05535 1.53342 8.3985 0.931757C7.74296 0.331308 6.86168 0 5.95016 0C5.03864 0 4.15736 0.331308 3.50182 0.931757C2.84497 1.53342 2.46754 2.35834 2.46754 3.22778V5H1.70455C0.824071 5 0.0415039 5.66257 0.0415039 6.56111V10.45C0.0415039 11.3485 0.824071 12.0111 1.70455 12.0111H10.1959C11.0764 12.0111 11.8589 11.3485 11.8589 10.45V6.56111C11.8589 5.66257 11.0764 5 10.1959 5H9.43278Z" fill="white"/>
</g>
<defs>
<clipPath id="clip0_78_216">
<rect width="12" height="12" fill="white"/>
</clipPath>
</defs>
</svg>
