<svg width="16" height="16" viewBox="0 0 16 16" fill="none" xmlns="http://www.w3.org/2000/svg">
<path d="M1.62367 3.43135C1.33301 3.76201 1.33301 4.33001 1.33301 5.46468V11.7273C1.33301 12.5313 1.33301 12.9333 1.54301 13.236C1.75234 13.5387 2.11901 13.666 2.85234 13.92L3.71501 14.2193C4.18234 14.3813 4.54167 14.506 4.84367 14.586C5.04101 14.6387 5.22167 14.484 5.22167 14.28V4.18001C5.21937 4.09905 5.19032 4.02113 5.13906 3.95842C5.08781 3.8957 5.01723 3.85172 4.93834 3.83335C4.67901 3.76735 4.36701 3.65935 3.93967 3.51135C2.90434 3.15201 2.38634 2.97268 1.99301 3.15468C1.85193 3.2201 1.72611 3.31434 1.62367 3.43135ZM8.41301 2.32068L7.38901 3.03068C7.01901 3.28735 6.74701 3.47601 6.51567 3.61001C6.46116 3.64047 6.4156 3.68469 6.38355 3.73828C6.35149 3.79186 6.33407 3.85292 6.33301 3.91535V13.9467C6.33301 14.1933 6.58901 14.348 6.79701 14.2147C7.02034 14.072 7.27634 13.8947 7.58634 13.68L8.61034 12.97C8.98034 12.7133 9.25234 12.5247 9.48368 12.3907C9.53818 12.3602 9.58375 12.316 9.6158 12.2624C9.64786 12.2088 9.66528 12.1478 9.66634 12.0853V2.05335C9.66634 1.80601 9.41034 1.65201 9.20234 1.78468C8.97901 1.92801 8.72301 2.10535 8.41301 2.32068ZM13.1463 2.08001L12.2843 1.78135C11.817 1.61935 11.4577 1.49468 11.1557 1.41468C10.9583 1.36201 10.7777 1.51668 10.7777 1.72068V11.8207C10.78 11.9016 10.809 11.9796 10.8603 12.0423C10.9115 12.105 10.9821 12.149 11.061 12.1673C11.3203 12.2333 11.6323 12.3407 12.0597 12.4893C13.095 12.8487 13.613 13.028 14.0063 12.846C14.1474 12.7806 14.2732 12.6864 14.3757 12.5693C14.6663 12.2387 14.6663 11.6707 14.6663 10.536V4.27335C14.6663 3.46935 14.6663 3.06668 14.4563 2.76468C14.247 2.46201 13.8803 2.33468 13.147 2.08068" fill="white" fill-opacity="0.45"/>
</svg>
