<svg width="18" height="18" viewBox="0 0 18 18" fill="none" xmlns="http://www.w3.org/2000/svg">
<path d="M15.75 2.25H2.25C1.425 2.25 0.75 2.925 0.75 3.75V12.75C0.75 13.575 1.425 14.25 2.25 14.25H6V15C6 15.4125 6.3375 15.75 6.75 15.75H11.25C11.6625 15.75 12 15.4125 12 15V14.25H15.75C16.575 14.25 17.25 13.575 17.25 12.75V3.75C17.25 2.925 16.575 2.25 15.75 2.25ZM15 12.75H3C2.5875 12.75 2.25 12.4125 2.25 12V4.5C2.25 4.0875 2.5875 3.75 3 3.75H15C15.4125 3.75 15.75 4.0875 15.75 4.5V12C15.75 12.4125 15.4125 12.75 15 12.75ZM13.5 6H6.75C6.3375 6 6 6.3375 6 6.75C6 7.1625 6.3375 7.5 6.75 7.5H13.5C13.9125 7.5 14.25 7.1625 14.25 6.75C14.25 6.3375 13.9125 6 13.5 6ZM13.5 9H6.75C6.3375 9 6 9.3375 6 9.75C6 10.1625 6.3375 10.5 6.75 10.5H13.5C13.9125 10.5 14.25 10.1625 14.25 9.75C14.25 9.3375 13.9125 9 13.5 9ZM5.25 6H3.75V7.5H5.25V6ZM5.25 9H3.75V10.5H5.25V9Z" fill="white" fill-opacity="0.45"/>
</svg>
