<svg width="18" height="18" viewBox="0 0 18 18" fill="none" xmlns="http://www.w3.org/2000/svg">
<path fill-rule="evenodd" clip-rule="evenodd" d="M9 3C8.20435 3 7.44129 3.31607 6.87868 3.87868C6.31607 4.44129 6 5.20435 6 6C6 6.79565 6.31607 7.55871 6.87868 8.12132C7.44129 8.68393 8.20435 9 9 9C9.79565 9 10.5587 8.68393 11.1213 8.12132C11.6839 7.55871 12 6.79565 12 6C12 5.20435 11.6839 4.44129 11.1213 3.87868C10.5587 3.31607 9.79565 3 9 3ZM7.5 9.75C6.70435 9.75 5.94129 10.0661 5.37868 10.6287C4.81607 11.1913 4.5 11.9544 4.5 12.75V13.5C4.5 13.8978 4.65804 14.2794 4.93934 14.5607C5.22064 14.842 5.60218 15 6 15H12C12.3978 15 12.7794 14.842 13.0607 14.5607C13.342 14.2794 13.5 13.8978 13.5 13.5V12.75C13.5 11.9544 13.1839 11.1913 12.6213 10.6287C12.0587 10.0661 11.2956 9.75 10.5 9.75H7.5Z" fill="white" fill-opacity="0.45"/>
</svg>
