<svg width="14" height="14" viewBox="0 0 14 14" fill="none" xmlns="http://www.w3.org/2000/svg">
<path d="M11.375 2.1875H2.625C2.39294 2.1875 2.17038 2.27969 2.00628 2.44378C1.84219 2.60788 1.75 2.83044 1.75 3.0625V6.125C1.75 9.00813 3.14562 10.7554 4.31648 11.7135C5.57758 12.7449 6.83211 13.0955 6.8868 13.1097C6.96199 13.1301 7.04129 13.1301 7.11648 13.1097C7.17117 13.0955 8.42406 12.7449 9.6868 11.7135C10.8544 10.7554 12.25 9.00813 12.25 6.125V3.0625C12.25 2.83044 12.1578 2.60788 11.9937 2.44378C11.8296 2.27969 11.6071 2.1875 11.375 2.1875ZM11.375 6.125C11.375 8.15227 10.628 9.79781 9.15469 11.0152C8.51336 11.5433 7.78397 11.9543 7 12.2292C6.22629 11.959 5.50591 11.5554 4.87156 11.0365C3.38078 9.81695 2.625 8.16484 2.625 6.125V3.0625H11.375V6.125Z" fill="white"/>
</svg>
