<svg width="14" height="14" viewBox="0 0 14 14" fill="none" xmlns="http://www.w3.org/2000/svg">
<path d="M13.2688 5.27407L3.20633 1.77407C3.14038 1.75112 3.06989 1.74428 3.00075 1.75414C2.93162 1.76399 2.86585 1.79025 2.80894 1.83073C2.75203 1.8712 2.70564 1.92471 2.67364 1.98678C2.64164 2.04885 2.62496 2.11768 2.625 2.18751V11.8125C2.625 11.9285 2.67109 12.0398 2.75314 12.1219C2.83519 12.2039 2.94647 12.25 3.0625 12.25C3.17853 12.25 3.28981 12.2039 3.37186 12.1219C3.45391 12.0398 3.5 11.9285 3.5 11.8125V9.49868L13.2688 6.10095C13.3548 6.0712 13.4293 6.01539 13.4821 5.94129C13.5349 5.86718 13.5632 5.77848 13.5632 5.68751C13.5632 5.59654 13.5349 5.50784 13.4821 5.43374C13.4293 5.35964 13.3548 5.30383 13.2688 5.27407ZM3.5 8.57228V2.80275L11.7934 5.68751L3.5 8.57228Z" fill="white"/>
</svg>
