<svg width="14" height="14" viewBox="0 0 14 14" fill="none" xmlns="http://www.w3.org/2000/svg">
<path d="M1.4875 6.9125C1.53346 6.94697 1.58577 6.97205 1.64142 6.98631C1.69708 7.00057 1.755 7.00373 1.81187 6.9956C1.86875 6.98748 1.92347 6.96823 1.9729 6.93896C2.02234 6.90969 2.06553 6.87096 2.1 6.825C2.36489 6.47182 2.70837 6.18516 3.10324 5.98772C3.49811 5.79029 3.93352 5.6875 4.375 5.6875C4.81648 5.6875 5.25189 5.79029 5.64676 5.98772C6.04163 6.18516 6.38511 6.47182 6.65 6.825C6.7197 6.91774 6.82338 6.979 6.93824 6.99531C7.05311 7.01161 7.16974 6.98163 7.2625 6.91195C7.29557 6.88736 7.32486 6.85807 7.34945 6.825C7.61434 6.47182 7.95782 6.18516 8.35269 5.98772C8.74756 5.79029 9.18298 5.6875 9.62445 5.6875C10.0659 5.6875 10.5013 5.79029 10.8962 5.98772C11.2911 6.18516 11.6346 6.47182 11.8995 6.825C11.9691 6.91783 12.0729 6.97916 12.1878 6.99552C12.3027 7.01188 12.4194 6.98192 12.5122 6.91223C12.6051 6.84253 12.6664 6.73882 12.6827 6.6239C12.6991 6.50899 12.6691 6.39228 12.5995 6.29945C12.2122 5.78029 11.6958 5.37153 11.1016 5.11383C11.4273 4.8164 11.6556 4.42744 11.7563 3.99798C11.8571 3.56853 11.8256 3.11864 11.6661 2.70737C11.5066 2.2961 11.2265 1.94266 10.8625 1.69344C10.4986 1.44421 10.0678 1.31085 9.62664 1.31085C9.18552 1.31085 8.75471 1.44421 8.39074 1.69344C8.02678 1.94266 7.74666 2.2961 7.58715 2.70737C7.42765 3.11864 7.39621 3.56853 7.49696 3.99798C7.59772 4.42744 7.82595 4.8164 8.15172 5.11383C7.72266 5.29936 7.3329 5.56495 7.00328 5.89641C6.67366 5.56495 6.2839 5.29936 5.85484 5.11383C6.18061 4.8164 6.40885 4.42744 6.5096 3.99798C6.61035 3.56853 6.57891 3.11864 6.41941 2.70737C6.2599 2.2961 5.97979 1.94266 5.61582 1.69344C5.25185 1.44421 4.82104 1.31085 4.37992 1.31085C3.9388 1.31085 3.50799 1.44421 3.14402 1.69344C2.78006 1.94266 2.49994 2.2961 2.34044 2.70737C2.18093 3.11864 2.14949 3.56853 2.25024 3.99798C2.351 4.42744 2.57923 4.8164 2.905 5.11383C2.30817 5.37069 1.78921 5.77971 1.4 6.3C1.36553 6.34596 1.34045 6.39826 1.32619 6.45392C1.31193 6.50958 1.30877 6.5675 1.3169 6.62437C1.32502 6.68125 1.34427 6.73597 1.37354 6.7854C1.40281 6.83484 1.44154 6.87803 1.4875 6.9125ZM9.625 2.1875C9.88459 2.1875 10.1383 2.26448 10.3542 2.4087C10.57 2.55292 10.7383 2.7579 10.8376 2.99773C10.9369 3.23756 10.9629 3.50146 10.9123 3.75606C10.8616 4.01066 10.7366 4.24452 10.5531 4.42808C10.3695 4.61163 10.1357 4.73664 9.88106 4.78728C9.62646 4.83792 9.36256 4.81193 9.12273 4.71259C8.8829 4.61325 8.67792 4.44503 8.5337 4.22919C8.38948 4.01335 8.3125 3.75959 8.3125 3.5C8.3125 3.1519 8.45078 2.81806 8.69692 2.57192C8.94306 2.32578 9.2769 2.1875 9.625 2.1875ZM4.375 2.1875C4.63459 2.1875 4.88835 2.26448 5.10419 2.4087C5.32003 2.55292 5.48825 2.7579 5.58759 2.99773C5.68693 3.23756 5.71292 3.50146 5.66228 3.75606C5.61164 4.01066 5.48663 4.24452 5.30308 4.42808C5.11952 4.61163 4.88566 4.73664 4.63106 4.78728C4.37646 4.83792 4.11256 4.81193 3.87273 4.71259C3.6329 4.61325 3.42792 4.44503 3.2837 4.22919C3.13948 4.01335 3.0625 3.75959 3.0625 3.5C3.0625 3.1519 3.20078 2.81806 3.44692 2.57192C3.69306 2.32578 4.0269 2.1875 4.375 2.1875ZM11.1016 10.8013C11.4273 10.5039 11.6556 10.1149 11.7563 9.68548C11.8571 9.25602 11.8256 8.80614 11.6661 8.39487C11.5066 7.9836 11.2265 7.63016 10.8625 7.38094C10.4986 7.13171 10.0678 6.99835 9.62664 6.99835C9.18552 6.99835 8.75471 7.13171 8.39074 7.38094C8.02678 7.63016 7.74666 7.9836 7.58715 8.39487C7.42765 8.80614 7.39621 9.25602 7.49696 9.68548C7.59772 10.1149 7.82595 10.5039 8.15172 10.8013C7.72266 10.9869 7.3329 11.2525 7.00328 11.5839C6.67366 11.2525 6.2839 10.9869 5.85484 10.8013C6.18061 10.5039 6.40885 10.1149 6.5096 9.68548C6.61035 9.25602 6.57891 8.80614 6.41941 8.39487C6.2599 7.9836 5.97979 7.63016 5.61582 7.38094C5.25185 7.13171 4.82104 6.99835 4.37992 6.99835C3.9388 6.99835 3.50799 7.13171 3.14402 7.38094C2.78006 7.63016 2.49994 7.9836 2.34044 8.39487C2.18093 8.80614 2.14949 9.25602 2.25024 9.68548C2.351 10.1149 2.57923 10.5039 2.905 10.8013C2.30817 11.0582 1.78921 11.4672 1.4 11.9875C1.36553 12.0335 1.34045 12.0858 1.32619 12.1414C1.31193 12.1971 1.30877 12.255 1.3169 12.3119C1.32502 12.3687 1.34427 12.4235 1.37354 12.4729C1.40281 12.5223 1.44154 12.5655 1.4875 12.6C1.53346 12.6345 1.58577 12.6596 1.64142 12.6738C1.69708 12.6881 1.755 12.6912 1.81187 12.6831C1.86875 12.675 1.92347 12.6557 1.9729 12.6265C2.02234 12.5972 2.06553 12.5585 2.1 12.5125C2.36489 12.1593 2.70837 11.8727 3.10324 11.6752C3.49811 11.4778 3.93352 11.375 4.375 11.375C4.81648 11.375 5.25189 11.4778 5.64676 11.6752C6.04163 11.8727 6.38511 12.1593 6.65 12.5125C6.7197 12.6052 6.82338 12.6665 6.93824 12.6828C7.05311 12.6991 7.16974 12.6691 7.2625 12.5995C7.29557 12.5749 7.32486 12.5456 7.34945 12.5125C7.61434 12.1593 7.95782 11.8727 8.35269 11.6752C8.74756 11.4778 9.18298 11.375 9.62445 11.375C10.0659 11.375 10.5013 11.4778 10.8962 11.6752C11.2911 11.8727 11.6346 12.1593 11.8995 12.5125C11.9691 12.6053 12.0729 12.6667 12.1878 12.683C12.3027 12.6994 12.4194 12.6694 12.5122 12.5997C12.6051 12.53 12.6664 12.4263 12.6827 12.3114C12.6991 12.1965 12.6691 12.0798 12.5995 11.987C12.2122 11.4678 11.6958 11.059 11.1016 10.8013ZM4.375 7.875C4.63459 7.875 4.88835 7.95198 5.10419 8.0962C5.32003 8.24042 5.48825 8.4454 5.58759 8.68523C5.68693 8.92506 5.71292 9.18896 5.66228 9.44356C5.61164 9.69816 5.48663 9.93202 5.30308 10.1156C5.11952 10.2991 4.88566 10.4241 4.63106 10.4748C4.37646 10.5254 4.11256 10.4994 3.87273 10.4001C3.6329 10.3008 3.42792 10.1325 3.2837 9.91669C3.13948 9.70085 3.0625 9.44709 3.0625 9.1875C3.0625 8.8394 3.20078 8.50556 3.44692 8.25942C3.69306 8.01328 4.0269 7.875 4.375 7.875ZM9.625 7.875C9.88459 7.875 10.1383 7.95198 10.3542 8.0962C10.57 8.24042 10.7383 8.4454 10.8376 8.68523C10.9369 8.92506 10.9629 9.18896 10.9123 9.44356C10.8616 9.69816 10.7366 9.93202 10.5531 10.1156C10.3695 10.2991 10.1357 10.4241 9.88106 10.4748C9.62646 10.5254 9.36256 10.4994 9.12273 10.4001C8.8829 10.3008 8.67792 10.1325 8.5337 9.91669C8.38948 9.70085 8.3125 9.44709 8.3125 9.1875C8.3125 8.8394 8.45078 8.50556 8.69692 8.25942C8.94306 8.01328 9.2769 7.875 9.625 7.875Z" fill="white"/>
</svg>
