<svg width="14" height="14" viewBox="0 0 14 14" fill="none" xmlns="http://www.w3.org/2000/svg">
<path d="M6.41211 8.63624C6.99847 8.24587 7.44364 7.67717 7.68179 7.01424C7.91994 6.3513 7.93843 5.62932 7.73451 4.95506C7.5306 4.2808 7.11512 3.69007 6.5495 3.27021C5.98388 2.85035 5.29817 2.62366 4.59375 2.62366C3.88933 2.62366 3.20362 2.85035 2.638 3.27021C2.07238 3.69007 1.6569 4.2808 1.45299 4.95506C1.24907 5.62932 1.26756 6.3513 1.50571 7.01424C1.74386 7.67717 2.18903 8.24587 2.77539 8.63624C1.71472 9.02716 0.808886 9.75057 0.193047 10.6985C0.160681 10.7466 0.138199 10.8007 0.126909 10.8575C0.115619 10.9144 0.115745 10.973 0.127281 11.0298C0.138817 11.0866 0.161531 11.1406 0.194105 11.1885C0.226679 11.2365 0.268462 11.2775 0.317025 11.3092C0.365589 11.3408 0.419963 11.3626 0.476989 11.373C0.534015 11.3835 0.592554 11.3825 0.649204 11.3702C0.705855 11.3578 0.759485 11.3344 0.806979 11.3011C0.854473 11.2679 0.894883 11.2255 0.92586 11.1765C1.3231 10.5655 1.86668 10.0634 2.50722 9.71587C3.14777 9.36831 3.86499 9.18626 4.59375 9.18626C5.32251 9.18626 6.03973 9.36831 6.68028 9.71587C7.32082 10.0634 7.8644 10.5655 8.26164 11.1765C8.32581 11.2718 8.42493 11.3381 8.53758 11.361C8.65023 11.3839 8.76736 11.3615 8.86364 11.2987C8.95992 11.2359 9.02761 11.1377 9.05209 11.0254C9.07657 10.9131 9.05587 10.7957 8.99445 10.6985C8.37862 9.75057 7.47278 9.02716 6.41211 8.63624ZM2.1875 5.90624C2.1875 5.43033 2.32862 4.9651 2.59303 4.5694C2.85743 4.17369 3.23323 3.86528 3.67292 3.68315C4.1126 3.50103 4.59642 3.45338 5.06319 3.54622C5.52995 3.63907 5.95871 3.86824 6.29523 4.20476C6.63175 4.54128 6.86092 4.97004 6.95376 5.4368C7.04661 5.90357 6.99896 6.38739 6.81684 6.82707C6.63471 7.26676 6.3263 7.64256 5.93059 7.90696C5.53489 8.17136 5.06966 8.31249 4.59375 8.31249C3.9558 8.31176 3.34418 8.05802 2.89307 7.60691C2.44197 7.15581 2.18822 6.54419 2.1875 5.90624ZM13.6795 11.3039C13.5824 11.3673 13.464 11.3894 13.3505 11.3655C13.2369 11.3417 13.1375 11.2736 13.0741 11.1765C12.6774 10.5651 12.1339 10.0628 11.4932 9.71543C10.8525 9.36801 10.1351 9.18651 9.40625 9.18749C9.29022 9.18749 9.17894 9.1414 9.09689 9.05935C9.01484 8.9773 8.96875 8.86602 8.96875 8.74999C8.96875 8.63396 9.01484 8.52268 9.09689 8.44063C9.17894 8.35858 9.29022 8.31249 9.40625 8.31249C9.76061 8.31215 10.1105 8.23356 10.431 8.08232C10.7514 7.93107 11.0345 7.71092 11.2601 7.43758C11.4856 7.16425 11.6479 6.84447 11.7355 6.50112C11.8231 6.15776 11.8338 5.79929 11.7668 5.45132C11.6998 5.10335 11.5568 4.77448 11.348 4.48819C11.1392 4.2019 10.8697 3.96527 10.5588 3.79521C10.2479 3.62515 9.90331 3.52584 9.5496 3.5044C9.19589 3.48296 8.84181 3.5399 8.51266 3.67116C8.45899 3.69436 8.40122 3.70657 8.34275 3.70706C8.28429 3.70756 8.22632 3.69633 8.17227 3.67404C8.11822 3.65175 8.06918 3.61885 8.02806 3.57729C7.98694 3.53573 7.95456 3.48635 7.93285 3.43206C7.91113 3.37778 7.90052 3.31969 7.90164 3.26123C7.90275 3.20278 7.91557 3.14514 7.93934 3.09172C7.96311 3.0383 7.99734 2.99019 8.04002 2.95023C8.0827 2.91027 8.13295 2.87926 8.18781 2.85905C8.94111 2.55863 9.77898 2.54781 10.5398 2.8287C11.3006 3.10959 11.9304 3.66228 12.3077 4.38014C12.6851 5.098 12.7832 5.93017 12.5832 6.71612C12.3832 7.50206 11.8992 8.18609 11.2246 8.63624C12.2853 9.02716 13.1911 9.75057 13.807 10.6985C13.8703 10.7957 13.8925 10.9141 13.8686 11.0276C13.8447 11.1411 13.7767 11.2405 13.6795 11.3039Z" fill="white"/>
</svg>
