<svg width="19" height="18" viewBox="0 0 19 18" fill="none"
  xmlns="http://www.w3.org/2000/svg">
  <path d="M14.9525 3.99747C13.955 3.53247 12.875 3.19497 11.75 2.99997C11.7402 2.99966 11.7304 3.00151 11.7213 3.0054C11.7122 3.00928 11.7041 3.01511 11.6975 3.02247C11.5625 3.26997 11.405 3.59247 11.3 3.83997C10.1068 3.65997 8.89328 3.65997 7.70003 3.83997C7.59503 3.58497 7.43753 3.26997 7.29503 3.02247C7.28753 3.00747 7.26503 2.99997 7.24253 2.99997C6.11753 3.19497 5.04503 3.53247 4.04003 3.99747C4.03253 3.99747 4.02503 4.00497 4.01753 4.01247C1.97753 7.06497 1.41503 10.035 1.69253 12.975C1.69253 12.99 1.70003 13.005 1.71503 13.0125C3.06503 14.0025 4.36253 14.6025 5.64503 15C5.66753 15.0075 5.69003 15 5.69753 14.985C5.99753 14.5725 6.26753 14.1375 6.50003 13.68C6.51503 13.65 6.50003 13.62 6.47003 13.6125C6.04253 13.4475 5.63753 13.2525 5.24003 13.0275C5.21003 13.0125 5.21003 12.9675 5.23253 12.945C5.31503 12.885 5.39753 12.8175 5.48003 12.7575C5.49503 12.7425 5.51753 12.7425 5.53253 12.75C8.11253 13.9275 10.895 13.9275 13.445 12.75C13.46 12.7425 13.4825 12.7425 13.4975 12.7575C13.58 12.825 13.6625 12.885 13.745 12.9525C13.775 12.975 13.775 13.02 13.7375 13.035C13.3475 13.2675 12.935 13.455 12.5075 13.62C12.4775 13.6275 12.47 13.665 12.4775 13.6875C12.7175 14.145 12.9875 14.58 13.28 14.9925C13.3025 15 13.325 15.0075 13.3475 15C14.6375 14.6025 15.935 14.0025 17.285 13.0125C17.3 13.005 17.3075 12.99 17.3075 12.975C17.6375 9.57747 16.76 6.62997 14.9825 4.01247C14.975 4.00497 14.9675 3.99747 14.9525 3.99747ZM6.89003 11.1825C6.11753 11.1825 5.47253 10.47 5.47253 9.59247C5.47253 8.71497 6.10253 8.00247 6.89003 8.00247C7.68503 8.00247 8.31503 8.72247 8.30753 9.59247C8.30753 10.47 7.67753 11.1825 6.89003 11.1825ZM12.1175 11.1825C11.345 11.1825 10.7 10.47 10.7 9.59247C10.7 8.71497 11.33 8.00247 12.1175 8.00247C12.9125 8.00247 13.5425 8.72247 13.535 9.59247C13.535 10.47 12.9125 11.1825 12.1175 11.1825Z" fill="white"/>
</svg>
