<svg width="101" height="100" viewBox="0 0 101 100" fill="none" xmlns="http://www.w3.org/2000/svg">
<path d="M5.1188 56C2.97521 52.2872 2.97521 47.7128 5.1188 44L22.6132 13.6987C24.7568 9.98592 28.7184 7.69874 33.0056 7.69874L67.9944 7.69874C72.2816 7.69873 76.2432 9.98592 78.3868 13.6987L95.8812 44C98.0248 47.7128 98.0248 52.2872 95.8812 56L78.3868 86.3013C76.2432 90.0141 72.2816 92.3013 67.9945 92.3013L33.0056 92.3013C28.7184 92.3013 24.7568 90.0141 22.6133 86.3013L5.1188 56Z" fill="url(#paint0_radial_521_8796)" fill-opacity="0.45" stroke="#2981FF" stroke-width="2"/>
<path d="M10.0981 54.5C8.49038 51.7154 8.49038 48.2846 10.0981 45.5L26.4019 17.2609C28.0096 14.4763 30.9808 12.7609 34.1961 12.7609L66.8038 12.7609C70.0192 12.7609 72.9904 14.4763 74.5981 17.2609L90.9019 45.5C92.5096 48.2846 92.5096 51.7154 90.9019 54.5L74.5981 82.7391C72.9904 85.5237 70.0192 87.2391 66.8038 87.2391L34.1962 87.2391C30.9808 87.2391 28.0096 85.5237 26.4019 82.7391L10.0981 54.5Z" fill="#2981FF"/>
<path fill-rule="evenodd" clip-rule="evenodd" d="M32.5 32.7812V34.5625H32.9512H33.4024V50V65.4375H32.9512H32.5V67.2188V69H51H69.5V67.2188V65.4375H69.124H68.748V50V34.5625H69.124H69.5V32.7812V31H51H32.5V32.7812ZM40.0945 44.3408L40.0933 54.1191L39.2994 54.8929C38.1196 56.0426 37.8394 56.5125 37.8394 57.3424C37.8394 58.3472 38.7222 59.2031 39.7586 59.2031H40.0955V62.3203V65.4375H37.6514H35.2073V50V34.5625H37.6514H40.0955L40.0945 44.3408ZM46.7886 36.6856V38.8087L46.5738 39.0792C45.7736 40.087 45.4253 41.0947 45.4296 42.3898C45.438 44.8814 47.1876 46.9719 49.6798 47.4681L50.3525 47.6021L49.9687 47.6523C49.7576 47.6799 49.3904 47.7685 49.1526 47.8493C48.6249 48.0285 48.5936 48.0294 48.5929 47.8662C48.5924 47.7823 48.4179 47.645 48.0998 47.4782C47.829 47.3362 47.4231 47.058 47.1979 46.86L46.7886 46.4998V47.4256V48.3514L46.2844 48.5506C46.007 48.6602 45.6771 48.82 45.5511 48.9058C45.0587 49.2411 44.0696 50.0988 43.0097 51.1096L41.9004 52.1675V43.365V34.5625H44.3445H46.7886V36.6856ZM53.4817 36.2335V37.9045L53.0364 37.6827C51.822 37.0776 50.0424 36.9667 48.9272 37.4267C48.7877 37.4842 48.6555 37.5312 48.6335 37.5312C48.6115 37.5312 48.5935 36.8633 48.5935 36.0469V34.5625H51.0376H53.4817V36.2335ZM60.2153 34.6553C60.235 34.7063 60.2424 38.7154 60.2317 43.5643L60.2124 52.3807L59.2996 51.5766C58.7975 51.1344 58.0869 50.4697 57.7203 50.0997C57.0776 49.4509 56.4067 48.9901 55.7378 48.7383C55.2766 48.5646 55.2912 48.6191 55.2693 47.0048C55.2493 45.5299 55.2472 45.513 55.1162 45.7495C54.9378 46.0717 54.1609 46.8839 53.7852 47.1407C53.4946 47.3396 53.4817 47.3652 53.4817 47.7464C53.4817 48.0012 53.45 48.1445 53.3936 48.1445C53.3451 48.1445 53.0829 48.0565 52.8107 47.949C52.5387 47.8414 52.0792 47.7135 51.7896 47.6647L51.2632 47.5759L51.8488 47.4464C52.9472 47.2033 54.1182 46.4866 54.8019 45.6391C56.0482 44.094 56.3191 42.0173 55.511 40.2004L55.2866 39.6958V37.1786C55.2866 35.7942 55.3091 34.6392 55.3367 34.612C55.3643 34.5848 56.4652 34.5625 57.7832 34.5625C59.631 34.5625 60.1877 34.5837 60.2153 34.6553ZM66.9431 50V65.4375H64.499H62.0549V62.1426V58.8478L62.2854 58.6042C62.6257 58.2447 62.7471 57.9652 62.7895 57.4439C62.8337 56.9002 62.7097 56.5094 62.3113 55.9379L62.0549 55.57V45.0662V34.5625H64.499H66.9431V50ZM46.4655 52.1395C47.6133 52.4927 48.2927 53.3839 48.2927 54.5363C48.2927 55.1601 48.0584 55.7096 47.5711 56.2291C46.9679 56.8721 46.6525 56.9953 45.5256 57.0283C44.8304 57.0486 44.4991 57.0929 44.1907 57.2069C43.9651 57.2901 43.7806 57.381 43.7806 57.4087C43.7806 57.4363 43.865 58.2772 43.9681 59.2773C44.4447 63.9011 44.603 65.8245 44.4827 65.5303C44.4545 65.4612 44.12 65.4375 43.1726 65.4375H41.9004V61.6597V57.8819L42.3328 57.5133C43.3302 56.6631 44.0554 56.3832 45.2633 56.3821C45.9554 56.3815 46.1297 56.3559 46.4533 56.2071C47.3353 55.8018 47.8138 54.7141 47.5264 53.7676C47.4004 53.3525 46.8717 52.8013 46.396 52.5892C46.0311 52.4264 45.9048 52.4124 44.8333 52.4155C43.8036 52.4184 43.5959 52.4408 43.0527 52.6069C42.4465 52.7923 42.4371 52.7929 42.3983 52.6463C42.3766 52.5646 42.3738 52.4739 42.3921 52.4447C42.4401 52.3679 43.5616 52.079 44.1055 52.0032C44.7904 51.9077 45.9254 51.9733 46.4655 52.1395ZM57.5892 52.1506C57.9251 52.2363 58.4327 52.4031 58.7173 52.5214C59.208 52.7252 59.236 52.75 59.2581 53.001C59.2709 53.1465 59.2615 53.2656 59.2372 53.2656C59.2128 53.2656 58.9924 53.1657 58.7473 53.0436C58.5022 52.9215 58.0041 52.7318 57.6402 52.6219C57.0481 52.443 56.8563 52.4215 55.813 52.4171C54.7112 52.4124 54.6246 52.4226 54.2333 52.6038C53.2456 53.0612 52.8129 53.979 53.1155 54.9755C53.2559 55.438 53.6988 55.9515 54.1533 56.1787C54.5194 56.3617 54.6408 56.3828 55.3298 56.3828C56.8161 56.3828 57.9504 56.9688 59.122 58.342C59.3547 58.6148 59.6921 58.9113 59.8936 59.02L60.2517 59.2133L60.232 62.3068L60.2124 65.4004H59.2724H58.3323L58.3548 64.4355C58.3672 63.9049 58.4287 62.372 58.4915 61.0291L58.6056 58.5875L58.2434 58.2182C57.7779 57.7436 57.0888 57.2984 56.6048 57.1595C56.3935 57.0989 55.8396 57.042 55.3604 57.0318C54.5879 57.0152 54.4517 56.9914 54.0672 56.8052C53.0438 56.3097 52.4316 55.1092 52.6555 54.0372C52.7704 53.4866 52.8891 53.2589 53.2783 52.8423C53.6435 52.4513 54.1543 52.1785 54.7904 52.0349C55.4242 51.8917 56.7973 51.9485 57.5892 52.1506Z" fill="#1E1E1E"/>
<defs>
<radialGradient id="paint0_radial_521_8796" cx="0" cy="0" r="1" gradientUnits="userSpaceOnUse" gradientTransform="translate(50.4999 -0.142843) rotate(90) scale(111.036 1133.06)">
<stop/>
<stop offset="1" stop-opacity="0"/>
</radialGradient>
</defs>
</svg>
