<svg width="333" height="96" viewBox="0 0 333 96" fill="none" xmlns="http://www.w3.org/2000/svg">
<path d="M103.006 9.30611C102.956 8.75923 102.735 8.33416 102.342 8.0309C101.954 7.72266 101.4 7.56854 100.679 7.56854C100.202 7.56854 99.8042 7.63068 99.4861 7.75497C99.1679 7.87926 98.9292 8.05078 98.7702 8.26953C98.6111 8.48331 98.529 8.7294 98.5241 9.00781C98.5141 9.23651 98.5589 9.43785 98.6583 9.61186C98.7627 9.78587 98.9118 9.93999 99.1057 10.0742C99.3046 10.2035 99.5432 10.3178 99.8216 10.4173C100.1 10.5167 100.413 10.6037 100.761 10.6783L102.074 10.9766C102.829 11.1406 103.496 11.3594 104.072 11.6328C104.654 11.9062 105.141 12.2319 105.534 12.6097C105.932 12.9876 106.233 13.4226 106.436 13.9148C106.64 14.407 106.745 14.9588 106.75 15.5703C106.745 16.5348 106.501 17.3626 106.019 18.0536C105.536 18.7447 104.843 19.2741 103.938 19.642C103.038 20.0099 101.952 20.1939 100.679 20.1939C99.4015 20.1939 98.2879 20.0025 97.3383 19.6197C96.3888 19.2369 95.6505 18.6552 95.1235 17.8746C94.5965 17.0941 94.3256 16.1072 94.3106 14.9141H97.8454C97.8753 15.4062 98.007 15.8164 98.2407 16.1445C98.4743 16.4727 98.795 16.7212 99.2027 16.8903C99.6153 17.0593 100.093 17.1438 100.634 17.1438C101.132 17.1438 101.554 17.0767 101.902 16.9425C102.255 16.8082 102.526 16.6218 102.715 16.3832C102.904 16.1445 103.001 15.8711 103.006 15.5629C103.001 15.2745 102.911 15.0284 102.737 14.8246C102.563 14.6158 102.295 14.4368 101.932 14.2876C101.574 14.1335 101.117 13.9918 100.56 13.8626L98.964 13.4897C97.6416 13.1864 96.6001 12.6967 95.8394 12.0206C95.0787 11.3395 94.7009 10.4197 94.7059 9.26136C94.7009 8.31676 94.9545 7.48899 95.4665 6.77805C95.9786 6.06712 96.6871 5.51278 97.5919 5.11506C98.4967 4.71733 99.5283 4.51847 100.687 4.51847C101.87 4.51847 102.897 4.71981 103.767 5.12251C104.642 5.52024 105.32 6.07955 105.802 6.80043C106.285 7.52131 106.531 8.35653 106.541 9.30611H103.006ZM123.029 12.3636C123.029 14.044 122.706 15.4684 122.06 16.6367C121.413 17.805 120.538 18.6925 119.435 19.299C118.336 19.9055 117.103 20.2088 115.736 20.2088C114.364 20.2088 113.128 19.9031 112.029 19.2915C110.931 18.68 110.058 17.7926 109.412 16.6293C108.771 15.4609 108.45 14.0391 108.45 12.3636C108.45 10.6832 108.771 9.25888 109.412 8.09055C110.058 6.92223 110.931 6.0348 112.029 5.42827C113.128 4.82173 114.364 4.51847 115.736 4.51847C117.103 4.51847 118.336 4.82173 119.435 5.42827C120.538 6.0348 121.413 6.92223 122.06 8.09055C122.706 9.25888 123.029 10.6832 123.029 12.3636ZM119.256 12.3636C119.256 11.3693 119.114 10.5291 118.831 9.84304C118.552 9.15696 118.149 8.63743 117.622 8.28445C117.1 7.93146 116.472 7.75497 115.736 7.75497C115.005 7.75497 114.376 7.93146 113.849 8.28445C113.322 8.63743 112.917 9.15696 112.633 9.84304C112.355 10.5291 112.216 11.3693 112.216 12.3636C112.216 13.358 112.355 14.1982 112.633 14.8842C112.917 15.5703 113.322 16.0898 113.849 16.4428C114.376 16.7958 115.005 16.9723 115.736 16.9723C116.472 16.9723 117.1 16.7958 117.622 16.4428C118.149 16.0898 118.552 15.5703 118.831 14.8842C119.114 14.1982 119.256 13.358 119.256 12.3636ZM125.184 20V4.72727H128.876V17.0021H135.229V20H125.184ZM140.832 4.72727V20H137.14V4.72727H140.832ZM157.012 10.2607H153.284C153.234 9.87784 153.132 9.53231 152.978 9.22408C152.824 8.91584 152.62 8.65234 152.366 8.43359C152.113 8.21484 151.812 8.0483 151.464 7.93395C151.121 7.81463 150.741 7.75497 150.323 7.75497C149.582 7.75497 148.943 7.93643 148.407 8.29936C147.875 8.66229 147.464 9.18679 147.176 9.87287C146.893 10.5589 146.751 11.3892 146.751 12.3636C146.751 13.3778 146.895 14.228 147.184 14.9141C147.477 15.5952 147.887 16.1097 148.414 16.4577C148.946 16.8008 149.575 16.9723 150.301 16.9723C150.708 16.9723 151.079 16.9201 151.412 16.8157C151.75 16.7113 152.046 16.5597 152.299 16.3608C152.558 16.157 152.769 15.9109 152.933 15.6225C153.102 15.3292 153.219 14.9986 153.284 14.6307L157.012 14.6531C156.948 15.3292 156.751 15.9954 156.423 16.6516C156.1 17.3079 155.655 17.907 155.088 18.4489C154.522 18.9858 153.831 19.4134 153.015 19.7315C152.205 20.0497 151.275 20.2088 150.226 20.2088C148.844 20.2088 147.606 19.9055 146.512 19.299C145.424 18.6875 144.563 17.7976 143.932 16.6293C143.301 15.4609 142.985 14.0391 142.985 12.3636C142.985 10.6832 143.306 9.25888 143.947 8.09055C144.588 6.92223 145.456 6.0348 146.55 5.42827C147.643 4.82173 148.869 4.51847 150.226 4.51847C151.151 4.51847 152.006 4.64773 152.791 4.90625C153.577 5.1598 154.268 5.53267 154.865 6.02486C155.461 6.51207 155.946 7.11115 156.319 7.82209C156.692 8.53303 156.923 9.34588 157.012 10.2607ZM162.816 4.72727V20H159.125V4.72727H162.816ZM164.634 7.72514V4.72727H177.543V7.72514H172.911V20H169.272V7.72514H164.634ZM180.742 20H176.774L181.927 4.72727H186.842L191.995 20H188.028L184.441 8.57528H184.321L180.742 20ZM180.212 13.9893H188.505V16.7933H180.212V13.9893ZM206.785 10.2607H203.056C203.006 9.87784 202.904 9.53231 202.75 9.22408C202.596 8.91584 202.392 8.65234 202.139 8.43359C201.885 8.21484 201.585 8.0483 201.237 7.93395C200.893 7.81463 200.513 7.75497 200.096 7.75497C199.355 7.75497 198.716 7.93643 198.179 8.29936C197.647 8.66229 197.237 9.18679 196.949 9.87287C196.665 10.5589 196.523 11.3892 196.523 12.3636C196.523 13.3778 196.668 14.228 196.956 14.9141C197.249 15.5952 197.659 16.1097 198.186 16.4577C198.718 16.8008 199.347 16.9723 200.073 16.9723C200.481 16.9723 200.851 16.9201 201.184 16.8157C201.522 16.7113 201.818 16.5597 202.072 16.3608C202.33 16.157 202.542 15.9109 202.706 15.6225C202.875 15.3292 202.991 14.9986 203.056 14.6307L206.785 14.6531C206.72 15.3292 206.524 15.9954 206.196 16.6516C205.873 17.3079 205.428 17.907 204.861 18.4489C204.294 18.9858 203.603 19.4134 202.788 19.7315C201.977 20.0497 201.048 20.2088 199.999 20.2088C198.616 20.2088 197.379 19.9055 196.285 19.299C195.196 18.6875 194.336 17.7976 193.705 16.6293C193.073 15.4609 192.757 14.0391 192.757 12.3636C192.757 10.6832 193.078 9.25888 193.719 8.09055C194.361 6.92223 195.228 6.0348 196.322 5.42827C197.416 4.82173 198.641 4.51847 199.999 4.51847C200.923 4.51847 201.778 4.64773 202.564 4.90625C203.349 5.1598 204.04 5.53267 204.637 6.02486C205.234 6.51207 205.718 7.11115 206.091 7.82209C206.464 8.53303 206.695 9.34588 206.785 10.2607ZM199.201 19.918H200.662L200.543 20.5891C201.09 20.6687 201.527 20.8651 201.855 21.1783C202.184 21.4964 202.35 21.9091 202.355 22.4162C202.36 23.1918 201.99 23.8033 201.244 24.2507C200.503 24.7031 199.472 24.9293 198.149 24.9293L198.134 23.4304C198.815 23.4304 199.342 23.3533 199.715 23.1992C200.088 23.0451 200.282 22.8114 200.297 22.4982C200.312 22.2099 200.2 21.9787 199.961 21.8047C199.723 21.6357 199.352 21.5188 198.85 21.4542L199.201 19.918ZM211.811 20H207.844L212.997 4.72727H217.911L223.064 20H219.097L215.51 8.57528H215.391L211.811 20ZM211.282 13.9893H219.574V16.7933H211.282V13.9893ZM213.37 3.22834L211.475 3.22088C211.475 2.20668 211.714 1.44105 212.191 0.924006C212.674 0.40696 213.263 0.148438 213.959 0.148438C214.322 0.148438 214.632 0.208096 214.891 0.327414C215.154 0.441761 215.388 0.575994 215.592 0.730113C215.796 0.884232 215.985 1.02095 216.159 1.14027C216.333 1.25462 216.519 1.31179 216.718 1.31179C217.006 1.31179 217.218 1.20739 217.352 0.998579C217.491 0.789772 217.563 0.508877 217.568 0.155894L219.433 0.178267C219.423 1.17756 219.176 1.9407 218.694 2.46768C218.217 2.9897 217.635 3.25568 216.949 3.26562C216.571 3.2706 216.251 3.21342 215.987 3.0941C215.729 2.97479 215.502 2.83807 215.309 2.68395C215.12 2.52983 214.938 2.39311 214.764 2.27379C214.59 2.15447 214.399 2.09481 214.19 2.09481C213.941 2.09481 213.743 2.19425 213.593 2.39311C213.444 2.59197 213.37 2.87038 213.37 3.22834ZM238.406 12.3636C238.406 14.044 238.083 15.4684 237.437 16.6367C236.79 17.805 235.915 18.6925 234.812 19.299C233.713 19.9055 232.48 20.2088 231.113 20.2088C229.741 20.2088 228.505 19.9031 227.406 19.2915C226.308 18.68 225.435 17.7926 224.789 16.6293C224.147 15.4609 223.827 14.0391 223.827 12.3636C223.827 10.6832 224.147 9.25888 224.789 8.09055C225.435 6.92223 226.308 6.0348 227.406 5.42827C228.505 4.82173 229.741 4.51847 231.113 4.51847C232.48 4.51847 233.713 4.82173 234.812 5.42827C235.915 6.0348 236.79 6.92223 237.437 8.09055C238.083 9.25888 238.406 10.6832 238.406 12.3636ZM234.633 12.3636C234.633 11.3693 234.491 10.5291 234.207 9.84304C233.929 9.15696 233.526 8.63743 232.999 8.28445C232.477 7.93146 231.848 7.75497 231.113 7.75497C230.382 7.75497 229.753 7.93146 229.226 8.28445C228.699 8.63743 228.294 9.15696 228.01 9.84304C227.732 10.5291 227.593 11.3693 227.593 12.3636C227.593 13.358 227.732 14.1982 228.01 14.8842C228.294 15.5703 228.699 16.0898 229.226 16.4428C229.753 16.7958 230.382 16.9723 231.113 16.9723C231.848 16.9723 232.477 16.7958 232.999 16.4428C233.526 16.0898 233.929 15.5703 234.207 14.8842C234.491 14.1982 234.633 13.358 234.633 12.3636Z" fill="white"/>
<path d="M1.88783 41.9318V31.2727H44.2387V41.9318H29.5824V80H16.5441V41.9318H1.88783ZM49.2173 80V31.2727H84.3352V41.9318H62.446V50.3068H82.5269V60.9659H62.446V69.3409H84.24V80H49.2173ZM90.896 80V31.2727H104.125V69.3409H123.825V80H90.896ZM141.83 80H127.554L143.638 31.2727H161.721L177.804 80H163.529L152.87 44.6918H152.489L141.83 80ZM139.165 60.7756H166.003V70.6733H139.165V60.7756ZM211.852 47.3565C211.645 46.5159 211.32 45.7783 210.876 45.1438C210.432 44.4935 209.877 43.9463 209.211 43.5021C208.56 43.0421 207.799 42.7011 206.927 42.479C206.07 42.2411 205.126 42.1222 204.095 42.1222C201.875 42.1222 199.979 42.6535 198.409 43.7163C196.854 44.779 195.665 46.3097 194.84 48.3082C194.031 50.3068 193.627 52.7178 193.627 55.5412C193.627 58.3963 194.015 60.839 194.792 62.8693C195.57 64.8996 196.728 66.4541 198.266 67.5327C199.805 68.6113 201.716 69.1506 204 69.1506C206.015 69.1506 207.688 68.8571 209.02 68.2702C210.369 67.6834 211.376 66.8506 212.042 65.772C212.708 64.6934 213.041 63.4245 213.041 61.9652L215.325 62.2031H204.19V52.7812H225.794V59.5384C225.794 63.9796 224.85 67.7785 222.963 70.935C221.091 74.0756 218.506 76.4866 215.206 78.168C211.923 79.8335 208.156 80.6662 203.905 80.6662C199.162 80.6662 194.999 79.659 191.414 77.6445C187.829 75.6301 185.029 72.7591 183.015 69.0316C181.016 65.3041 180.017 60.8707 180.017 55.7315C180.017 51.7027 180.628 48.1338 181.849 45.0249C183.086 41.916 184.799 39.2908 186.988 37.1495C189.177 34.9923 191.707 33.3665 194.578 32.272C197.449 31.1617 200.526 30.6065 203.81 30.6065C206.697 30.6065 209.377 31.0189 211.852 31.8438C214.342 32.6527 216.539 33.8106 218.442 35.3175C220.362 36.8085 221.908 38.5771 223.082 40.6232C224.256 42.6694 224.969 44.9138 225.223 47.3565H211.852ZM231.962 80V31.2727H267.08V41.9318H245.191V50.3068H265.272V60.9659H245.191V69.3409H266.985V80H231.962ZM273.641 31.2727H290.106L301.431 58.8722H302.002L313.327 31.2727H329.792V80H316.849V51.8295H316.468L305.618 79.6193H297.814L286.965 51.6392H286.584V80H273.641V31.2727Z" fill="#2981FF"/>
</svg>
