<svg width="22" height="24" viewBox="0 0 22 24" fill="none" xmlns="http://www.w3.org/2000/svg">
<path fill-rule="evenodd" clip-rule="evenodd" d="M14.1625 0.0976458C12.2528 0.444482 10.5725 1.48738 9.4444 3.02579C8.91384 3.74941 8.7801 4.04005 8.84413 4.33036C8.86503 4.42518 9.50912 5.44394 10.3869 6.77044L11.8937 9.0478L13.0052 9.04817C13.6165 9.04836 14.1166 9.0425 14.1166 9.0351C14.1166 9.02764 14.0135 8.70682 13.8875 8.32207C13.7614 7.93731 13.6584 7.54792 13.6585 7.45671C13.659 6.9912 14.1748 6.66691 14.5924 6.86957C14.8315 6.98558 14.9014 7.11255 15.1471 7.87681C15.2672 8.25059 15.3813 8.57409 15.4005 8.59569C15.4198 8.6173 15.5429 8.30543 15.6742 7.90263C15.8138 7.47433 15.96 7.11306 16.0265 7.03231C16.3254 6.66892 16.9453 6.76566 17.1243 7.20357C17.2227 7.44453 17.2037 7.57318 16.9583 8.32207C16.8323 8.70682 16.7291 9.02764 16.7291 9.0351C16.7291 9.0425 17.2293 9.04775 17.8406 9.04677L18.9521 9.04494L20.3041 7.00254C22.0279 4.39869 22 4.44524 22 4.17536C22 3.99815 21.9593 3.89217 21.774 3.58625C20.8355 2.03721 19.259 0.808613 17.5615 0.303592C16.5231 -0.00537387 15.1785 -0.0868335 14.1625 0.0976458ZM3.77222 0.772805C3.06143 1.06513 2.40748 1.35005 2.31903 1.40597C2.08573 1.55342 1.76531 1.93606 1.61769 2.24344L1.48958 2.51022L1.47661 5.02947L1.46364 7.54872H4.0089H6.55416V4.41697C6.55416 0.942238 6.55746 0.984562 6.25716 0.625774C6.02501 0.348446 5.77188 0.236568 5.38239 0.239146C5.08607 0.241161 4.97726 0.277204 3.77222 0.772805ZM0.733332 12.3763V15.8447H4.01041H7.28749V12.3763V8.90794H4.01041H0.733332V12.3763ZM12.5234 16.6766L12.5354 22.9454L12.6431 23.169C12.7981 23.491 13.1078 23.7881 13.4085 23.9031C13.6483 23.9948 13.7548 24 15.4164 24C16.9075 24 17.2036 23.9887 17.3872 23.9247C17.6812 23.8223 18.0641 23.4557 18.2012 23.1456L18.3104 22.8986L18.3225 16.6532L18.3346 10.4078H15.4231H12.5115L12.5234 16.6766ZM0 20.0143C0 22.7377 0.00293337 22.8328 0.0944624 23.0829C0.2035 23.3809 0.490004 23.7063 0.785445 23.8675L0.985415 23.9766H3.98749H6.98957L7.20041 23.8703C7.47037 23.7343 7.72249 23.4768 7.87645 23.1798L7.99791 22.9454L8.01069 20.0747L8.02353 17.2039H4.01174H0V20.0143Z" fill="white"/>
</svg>
