<svg width="417" height="458" viewBox="0 0 417 458" fill="none"
  xmlns="http://www.w3.org/2000/svg">
  <g filter="url(#filter0_d_84_491)">
    <path d="M293.628 55.2067C298.608 61.0849 290.217 65.3001 291.527 70.9253C297.262 70.6289 301.349 59.4436 309.013 69.566C301.227 75.8347 299.651 84.6412 300.327 94.3442C300.514 96.9977 299.615 100.237 298.097 102.428C278.307 131.052 261.692 161.926 238.161 187.897L238.391 188.128C238.369 186.227 238.348 184.325 238.319 182.416C242.054 180.262 244.234 177.406 242.637 172.865C243.313 172.93 243.939 172.966 244.572 173.017C244.033 173.031 243.493 173.031 242.953 173.031C241.737 176.357 237.268 178.216 238.643 182.706C233.562 184.036 231.742 187.044 233.822 192.047C232.792 191.823 231.44 189.95 230.979 192.647C231.893 192.344 232.728 192.062 233.57 191.78C234.016 191.006 234.663 190.738 235.52 190.977L235.196 190.644C234.239 194.129 233.289 197.614 232.274 201.316C270.788 236.68 302.335 278.268 336.847 317.153C345.763 327.203 353.657 338.149 356.313 351.887L356.687 351.598C354.391 350.079 352.628 347.498 349.354 347.91C349.131 347.874 348.922 347.831 348.714 347.787C349.023 347.708 349.332 347.621 349.642 347.542C347.936 351.388 351.383 353.094 352.945 355.582L352.585 355.271C342.798 356.522 339.97 347.759 334.746 342.582C329.011 336.899 326.658 327.846 317.72 325.33C317.555 324.181 317.871 322.315 315.684 323.942C316.526 324.325 317.281 324.665 318.037 325.012C317.173 330.84 324.585 333.587 323.398 339.538L323.686 339.27C311.301 330.825 306.343 314.622 290.915 308.028C292.433 316.69 304.328 319.423 301.867 329.184L302.083 329.083C270.672 294.536 239.262 259.99 208.211 225.834C203.648 225.957 204.829 230.599 202.101 231.618L201.972 231.893C191.307 238.61 183.931 248.566 176.699 258.493C169.165 268.84 161.408 279.201 155.37 290.437C133.408 331.266 99.6872 362.704 71.0541 398.486C61.9943 401.754 58.3027 396.462 56 388.226C89.0658 322.453 134.804 264.711 177.023 203.543C141.388 163.762 104.688 125.001 86.1874 73.9403C93.5706 67.5777 98.0465 74.5983 106.264 74.3886C107.488 72.1978 109.819 68.0404 113.115 62.155C148.757 94.2358 172.209 133.149 203.778 166.271C227.856 135.767 250.588 105.45 275.595 76.9915C281.812 69.9203 289.303 63.8613 293.649 55.2067H293.628ZM178.541 192.119C178.793 192.336 179.045 192.56 179.297 192.777C178.952 192.741 178.613 192.698 178.268 192.662C178.534 192.51 178.808 192.351 179.074 192.199C179.16 192.712 179.247 193.226 179.333 193.746C179.052 193.197 178.765 192.64 178.534 192.119H178.541ZM257.475 270.676C257.576 270.59 257.676 270.51 257.777 270.423C257.504 270.423 257.23 270.409 256.957 270.409C258.626 271.544 260.296 272.679 261.965 273.822C262.85 274.899 264.757 275.463 263.779 277.48L268.075 279.266C268.298 280.864 268.521 282.462 268.737 284.052C270.457 284.219 272.169 284.378 273.889 284.544C273.616 284.891 273.342 285.238 273.069 285.585C273.241 285.144 273.421 284.703 273.572 284.306C271.975 286.055 270.327 288.911 269.017 284.096C268.614 282.375 268.219 280.654 267.787 278.962C265.952 280.546 264.527 280.575 263.822 277.82C263.045 276.526 262.275 275.232 261.44 273.973C258.367 274.993 256.259 274.812 257.475 270.684V270.676ZM281.351 290.603C280.704 289.887 280.265 288.13 278.768 290.148C279.991 290.148 280.912 290.148 281.826 290.148C282.035 290.314 282.244 290.48 282.452 290.639C282.258 290.813 282.064 290.986 281.87 291.16C281.711 290.957 281.553 290.748 281.351 290.596V290.603ZM332.055 328.83L331.717 327.832L331.896 328.49C332.961 329.314 334.026 330.138 335.084 330.97C335.394 331.143 335.703 331.317 336.005 331.49C335.574 331.447 335.142 331.411 334.717 331.346C334.545 329.741 334.142 328.396 332.055 328.83Z" fill="white"/>
    <path d="M323.398 339.538C327.32 339.039 326.176 342.914 328.068 344.158C324.693 344.02 322.981 342.567 323.686 339.27L323.398 339.538Z" fill="white"/>
    <path d="M298.125 53.3991C298.428 53.2328 299.003 52.9653 298.982 52.9147C298.543 51.6855 298.097 51.7 297.715 52.9291L298.125 53.3991Z" fill="white"/>
    <path d="M297.715 52.9291C297.298 55.3947 295.614 55.5754 293.628 55.2067H293.649C295.139 54.6066 296.636 54.0137 298.125 53.4063C298.125 53.3919 297.715 52.9291 297.715 52.9291Z" fill="white"/>
    <path d="M352.952 355.574L352.506 356.269C352.506 356.269 352.542 355.256 352.564 355.256C352.585 355.256 352.945 355.567 352.945 355.567L352.952 355.574Z" fill="white"/>
    <path d="M360.314 354.396C360.494 354.656 360.673 354.909 360.853 355.17C361.076 354.909 361.307 354.649 361.53 354.396C361.264 354.251 360.997 354.099 360.731 353.94C360.731 353.933 360.314 354.396 360.314 354.396Z" fill="white"/>
    <path d="M356.313 351.88C358.702 351.012 359.911 352.039 360.321 354.389C360.321 354.396 360.738 353.933 360.738 353.94C359.421 353.138 358.104 352.321 356.737 351.547C356.687 351.591 356.32 351.88 356.32 351.88H356.313Z" fill="white"/>
    <path d="M305.739 332.25C306.005 332.43 306.279 332.618 306.545 332.799C306.322 332.517 306.091 332.242 305.904 331.91C305.94 331.859 305.739 332.25 305.739 332.25Z" fill="white"/>
    <path d="M301.867 329.177C304.249 328.757 305.667 329.603 305.753 332.213C305.739 332.25 305.933 331.859 305.897 331.91C304.645 330.977 303.422 329.986 302.141 329.039C302.083 329.075 301.867 329.177 301.867 329.177Z" fill="white"/>
    <path d="M217.731 246.759C218.019 246.448 218.314 246.137 218.602 245.826C218.199 246.057 217.789 246.289 217.407 246.506C217.429 246.498 217.731 246.759 217.731 246.759Z" fill="white"/>
    <path d="M217.112 241.394C217.335 243.172 217.551 244.958 217.76 246.744C217.738 246.751 217.436 246.491 217.415 246.506C219.444 244.792 222.243 243.057 217.299 241.459L217.112 241.394Z" fill="white"/>
    <path d="M217.299 241.459C215.896 240.815 214.493 240.179 213.09 239.528L212.701 239.919C214.14 240.418 215.572 240.917 217.062 241.401C217.112 241.387 217.299 241.452 217.299 241.452V241.459Z" fill="white"/>
    <path d="M209.607 237.15C210.629 238.068 211.658 238.993 212.687 239.919C212.687 239.919 213.075 239.528 213.083 239.536C212.061 238.61 211.032 237.67 210.003 236.737L209.607 237.157V237.15Z" fill="white"/>
    <path d="M210.003 236.737C208.988 236.014 207.973 235.291 206.951 234.561C206.944 234.561 206.844 234.814 206.844 234.814C209.211 233.845 209.305 235.617 209.607 237.142C209.607 237.157 209.995 236.737 209.995 236.737L210.003 236.737Z" fill="white"/>
    <path d="M202.101 231.618C202.461 234.503 204.152 235.407 206.844 234.807C206.844 234.807 206.944 234.554 206.951 234.554C205.865 232.66 204.462 231.315 202.001 231.85C201.965 231.893 202.101 231.611 202.101 231.611V231.618Z" fill="white"/>
    <path d="M238.168 187.897C238.161 189.885 237.513 191.172 235.196 190.644L235.513 190.97C235.664 189.191 235.944 187.55 238.398 188.121L238.168 187.89V187.897Z" fill="white"/>
  </g>
  <defs>
    <filter id="filter0_d_84_491" x="0.970406" y="0.393708" width="415.589" height="457.524" filterUnits="userSpaceOnUse" color-interpolation-filters="sRGB">
      <feFlood flood-opacity="0" result="BackgroundImageFix"/>
      <feColorMatrix in="SourceAlpha" type="matrix" values="0 0 0 0 0 0 0 0 0 0 0 0 0 0 0 0 0 0 127 0" result="hardAlpha"/>
      <feOffset dy="3.4233"/>
      <feGaussianBlur stdDeviation="27.5148"/>
      <feComposite in2="hardAlpha" operator="out"/>
      <feColorMatrix type="matrix" values="0 0 0 0 1 0 0 0 0 1 0 0 0 0 1 0 0 0 0.25 0"/>
      <feBlend mode="normal" in2="BackgroundImageFix" result="effect1_dropShadow_84_491"/>
      <feBlend mode="normal" in="SourceGraphic" in2="effect1_dropShadow_84_491" result="shape"/>
    </filter>
  </defs>
</svg>
