<svg width="29" height="30" viewBox="0 0 29 30" fill="none" xmlns="http://www.w3.org/2000/svg">
<path d="M22.632 27.2415H7.00543C6.95949 26.89 6.97225 26.8365 7.19687 26.383C7.00543 25.9882 7.14837 25.578 7.18666 25.1781C7.34237 23.5298 7.54912 21.8892 7.56444 20.2308C7.57975 18.552 7.44702 16.8834 7.26068 15.2173C7.15348 14.2467 6.97735 13.2812 7.06669 12.2903C7.13306 11.5668 6.98501 10.8407 6.93907 10.1147C6.84462 8.6779 6.92886 7.27677 7.61293 5.95972C8.2383 4.75985 9.26953 4.01852 10.4156 3.39184C10.7015 3.23644 10.9976 3.10397 11.3039 2.95112C11.235 2.70147 11.0537 2.59702 10.801 2.50276C9.21337 3.1804 7.6793 3.96757 6.81399 5.60052C6.34943 6.47686 6.22946 7.45255 6.25754 8.42315C6.30093 9.83701 6.53066 11.2305 6.8727 12.601C6.9697 12.9883 6.90844 13.3245 6.68381 13.7321C4.9098 13.2379 3.12814 12.7157 1.33882 12.2724C1.22395 11.9769 1.54557 10.4102 1.78551 10.0561C2.78865 9.94146 3.30937 9.58226 3.46763 8.88679C3.61312 8.25501 3.27363 7.62323 2.51553 7.17233C2.71463 6.64754 2.89586 6.10238 3.19451 5.61071C3.27619 5.47569 3.36552 5.35087 3.41658 5.19802C3.67183 4.43886 4.13639 3.86567 4.9047 3.58035C6.32646 3.04793 7.75077 2.52569 9.17508 2.0009C9.27463 1.96524 9.37163 1.92448 9.47373 1.899C9.83363 1.81239 10.0404 1.60095 10.1604 1.24175C10.2854 0.867267 10.4947 0.520807 10.6862 0.12085C12.039 0.546282 13.3791 0.839244 14.7958 0.829054C16.1996 0.818864 17.5346 0.546282 18.8645 0.138682C19.0942 0.574304 19.3188 0.966619 19.4669 1.3946C19.5613 1.66463 19.7451 1.78691 20.0004 1.87862C21.4885 2.4136 22.969 2.96641 24.4571 3.49883C25.2637 3.7867 25.7538 4.35734 26.1443 5.10631C27.2572 7.23601 27.7396 9.55424 28.2629 11.8623C28.2935 11.9922 28.3293 12.1298 28.2578 12.2826C26.4404 12.6826 24.6613 13.271 22.8235 13.7321C22.6729 13.4035 22.5248 13.136 22.6167 12.7794C22.7571 12.2291 22.9562 11.6789 23.0226 11.1286C23.2191 9.53895 23.5075 7.93148 23.0532 6.3342C22.7571 5.28718 22.0705 4.50255 21.2256 3.85548C20.5441 3.33325 19.7732 2.95876 18.9947 2.60211C18.6628 2.45181 18.4178 2.55881 18.2544 2.89762C18.3029 3.0199 18.4254 3.04028 18.5275 3.09123C19.01 3.3307 19.4873 3.57526 19.9442 3.86313C21.463 4.82863 22.3181 6.20683 22.5759 7.98498C22.7239 8.99888 22.6652 10.0026 22.5478 11.0089C22.5018 11.3986 22.4661 11.7884 22.484 12.1756C22.5427 13.4341 22.3359 14.6747 22.216 15.9179C21.9913 18.2616 21.8535 20.6027 22.1572 22.9541C22.2951 24.0189 22.3436 25.0965 22.4457 26.1639C22.4789 26.5155 22.5605 26.8645 22.6244 27.2313L22.632 27.2415ZM15.3012 6.81823C15.3012 6.59405 15.3165 6.38515 15.2986 6.1788C15.2527 5.60562 15.4926 5.1649 15.8882 4.77768C16.6412 4.04145 17.3891 3.29758 18.1268 2.54607C18.4561 2.2098 18.8364 1.92193 19.1095 1.51433C18.9768 1.21118 18.9181 0.887647 18.7113 0.643087C18.5556 0.673657 18.4739 0.760272 18.3948 0.839244C17.2385 1.99326 16.0797 3.14473 14.9285 4.30639C14.2189 5.02479 14.2291 5.92151 14.3031 6.86153C14.64 6.87172 14.9515 6.89975 15.3012 6.81823ZM10.7755 0.673657C10.6862 0.905479 10.6071 1.12202 10.5228 1.33601C10.4565 1.50414 10.4973 1.63152 10.6275 1.75889C11.6766 2.79827 12.718 3.84275 13.762 4.88722C13.8437 4.96874 13.9202 5.0579 14.053 5.09357C14.1423 4.77004 14.3797 4.51783 14.4971 4.22232C13.8334 3.37146 11.0818 0.737344 10.773 0.673657H10.7755ZM11.7633 0.823959C11.7863 0.915669 11.7838 0.964072 11.8067 0.989547C12.0901 1.28506 12.3734 1.58566 12.6695 1.86843C12.8099 2.0009 12.9988 2.04931 13.1928 2.06459C13.9943 2.12828 14.7906 2.16394 15.5972 2.13847C16.3247 2.11554 16.9731 2.006 17.4146 1.35129C17.5244 1.1857 17.7414 1.09909 17.8154 0.811222C16.7791 0.989547 15.804 1.25703 14.7855 1.25194C13.7645 1.24684 12.7869 0.997189 11.7608 0.823959H11.7633ZM17.3585 8.75178C17.3891 9.43196 17.504 10.0408 17.8945 10.5478C18.3565 11.149 18.8109 11.1439 19.2933 10.5503C19.7094 10.0383 19.7859 9.41158 19.8702 8.75178H17.3585ZM19.8702 7.92639H17.384C17.384 8.08433 17.333 8.24228 17.4478 8.40532H19.7834C19.8829 8.2652 19.8727 8.13019 19.8702 7.92639ZM14.6732 26.4671C14.3797 26.2429 13.8947 26.2607 13.6497 26.4671C13.9815 26.5894 14.298 26.5817 14.6732 26.4671ZM7.7763 26.4136C8.18215 26.6148 8.62884 26.5919 8.82283 26.3652C8.47569 26.276 8.16683 26.2709 7.7763 26.4136ZM10.7449 26.4518C11.138 26.6021 11.4851 26.5868 11.7276 26.4187C11.383 26.2505 10.9414 26.2582 10.7449 26.4518ZM16.5672 26.4289C16.8863 26.5817 17.2028 26.5919 17.5167 26.4238C17.2002 26.2658 16.8863 26.2633 16.5672 26.4289ZM20.4471 26.4289C20.1331 26.2455 19.6634 26.2709 19.4465 26.4696C19.7859 26.5257 20.1025 26.6581 20.4471 26.4289ZM20.8631 26.4569C21.2409 26.5945 21.5472 26.5613 21.8969 26.434C21.5931 26.2455 21.1516 26.248 20.8631 26.4569ZM19.0176 26.4594C18.6935 26.2505 18.2646 26.2709 18.0119 26.4824C18.3463 26.6021 18.6475 26.5715 19.0176 26.4594ZM10.2727 26.434C9.90255 26.2505 9.52733 26.2607 9.33334 26.4391C9.60391 26.5894 9.97147 26.5945 10.2727 26.434ZM16.1486 26.4085C15.7632 26.2735 15.4492 26.276 15.0663 26.3652C15.4135 26.5996 15.6202 26.6047 16.1486 26.4085ZM13.1621 26.4518C12.8022 26.2149 12.3377 26.2505 12.2764 26.5053C12.5623 26.5766 12.838 26.597 13.1621 26.4518ZM24.5234 8.39003C24.2069 8.55052 24.0538 8.87915 24.1023 9.29439C24.3116 9.00143 24.48 8.74668 24.5234 8.39003ZM25.205 7.14685C24.9165 7.3481 24.817 7.64107 24.6996 7.97988C25.0927 7.75061 25.3096 7.39141 25.205 7.14685ZM25.9605 6.01067C25.6287 6.12276 25.4117 6.48196 25.4832 6.79785C25.7461 6.5915 25.8941 6.3393 25.9605 6.01067ZM4.10576 6.75963C4.03429 6.27816 3.83264 6.02086 3.57483 6.04888C3.62588 6.33675 3.80201 6.57876 4.10576 6.75963ZM5.12932 8.3187C5.03233 8.68299 5.21611 9.07021 5.5071 9.19759C5.45349 8.87915 5.33352 8.6244 5.12932 8.3187ZM4.74644 7.96715C4.83323 7.62578 4.57542 7.24111 4.26401 7.2513C4.38398 7.52133 4.48608 7.78118 4.74644 7.96715ZM5.85679 9.68671C5.73172 10.0535 5.97931 10.2675 6.19117 10.4968C6.17331 10.1911 6.08397 9.91344 5.85679 9.68671ZM23.2625 10.479C23.6122 10.3745 23.8113 9.95929 23.6837 9.67652C23.4897 9.85739 23.4744 10.1351 23.311 10.3287C23.288 10.3567 23.2855 10.4026 23.2625 10.479Z" fill="white"/>
<path d="M22.7775 29.6667H6.73997V28.0465H22.7775V29.6667Z" fill="white"/>
<path d="M28.3982 13.0774C28.5667 13.5818 28.7224 14.0455 28.9036 14.5932C27.0734 15.0721 25.2815 15.5332 23.5075 16.0962C23.2446 15.5791 23.1476 15.0772 23.0251 14.5499C24.8246 14.0557 26.5961 13.5691 28.3956 13.0774H28.3982Z" fill="white"/>
<path d="M0.700684 14.5856C0.79768 14.0633 0.953384 13.62 1.14227 13.1029C2.94946 13.5283 4.71581 14.0913 6.53321 14.5575C6.39282 15.0849 6.24478 15.5612 6.05079 16.0606C4.26401 15.5689 2.50277 15.0823 0.703236 14.5856H0.700684Z" fill="white"/>
<path d="M1.77019 9.60264C1.80593 9.40394 1.90803 9.36063 2.04076 9.31987C2.91117 9.05493 3.03625 8.51995 2.3777 7.89072C2.35472 7.87034 2.34196 7.83977 2.32409 7.8143C2.32154 7.70221 2.35728 7.60795 2.45427 7.53153C2.90096 7.75316 3.17664 8.08433 3.14601 8.61421C3.12303 9.02181 3.03625 9.41158 2.61763 9.57207C2.35983 9.67142 2.06118 9.83956 1.76764 9.60264H1.77019Z" fill="white"/>
<path d="M18.5607 10.6955C18.0349 10.2752 17.6673 9.7937 17.772 9.05238H19.4209C19.5715 9.61793 19.1835 10.3643 18.5607 10.6955ZM18.5812 10.3542C18.9717 10.1631 19.1989 9.7937 19.2576 9.24854C18.8185 9.20523 18.3846 9.16192 17.9073 9.30968C18.0911 9.71218 18.137 10.1504 18.5812 10.3542Z" fill="white"/>
</svg>
