<svg width="81" height="86" viewBox="0 0 81 86" fill="none"
  xmlns="http://www.w3.org/2000/svg">
  <g filter="url(#filter0_d_154_298)">
    <path d="M24.9015 39.1562C24.9351 42.3682 25.8664 45.234 27.6912 47.8062C27.8359 48.012 27.8379 48.1724 27.7755 48.4001C27.4573 49.5542 27.1583 50.7138 26.86 51.8734C26.8292 52.0187 26.8124 52.1666 26.81 52.3151C26.7517 53.2621 26.8738 53.4486 27.8187 53.5755C29.0743 53.7442 30.3382 53.8559 31.5972 54.0027C32.0731 54.0576 32.5484 54.1275 33.0181 54.2187C33.5784 54.327 33.7978 54.5616 33.8856 55.1321C34.0325 56.0743 33.933 57.0384 33.5969 57.9307C33.4872 58.2262 33.5365 58.4278 33.7807 58.5725C34.4376 58.9614 35.076 59.4009 35.7741 59.6944C36.9077 60.1703 38.0741 60.5743 39.2447 60.9548C40.2 61.2648 41.1806 61.225 42.1516 60.9638C43.9586 60.4782 45.6846 59.798 47.2831 58.818C47.3709 58.7645 47.4504 58.6987 47.5355 58.6411C47.8221 58.445 47.9174 58.2351 47.7741 57.8628C47.463 57.0347 47.3631 56.1422 47.4833 55.2658C47.5746 54.5335 47.783 54.2969 48.512 54.1961C49.6537 54.0377 50.8031 53.9382 51.9469 53.7908C52.658 53.6996 53.3657 53.5727 54.0727 53.4479C54.4526 53.3793 54.6323 53.1188 54.5843 52.7567C54.476 51.9447 54.3697 51.1294 54.1941 50.3298C54.0432 49.644 53.7881 48.9748 53.603 48.2917C53.5712 48.146 53.5978 47.9936 53.6771 47.8673C55.2029 45.703 56.1458 43.3146 56.4111 40.6778C56.7095 37.6873 56.1684 34.8394 54.7112 32.2068C52.3542 27.9475 48.754 25.2477 43.9908 24.3521C37.4076 23.1137 31.912 25.1387 27.7831 30.4773C25.8129 33.0242 24.9317 35.9942 24.9015 39.1562ZM33.7313 48.551L33.7073 48.6394C33.0435 48.4947 32.3557 48.4172 31.7186 48.1944C29.6723 47.4778 29.2341 45.4438 30.8113 43.9626C31.2622 43.5436 31.7791 43.2018 32.3413 42.9511C33.9349 42.2414 35.5753 42.1063 37.2211 42.805C38.4225 43.3152 39.0294 44.3247 38.8079 45.45C38.6707 46.1529 38.2531 46.6981 37.7176 47.1472C36.5669 48.1196 35.2118 48.5194 33.7313 48.5544V48.551ZM47.8797 48.5427C46.4396 48.5427 45.1737 48.1717 44.1328 47.4284C43.8353 47.2164 43.5646 46.9694 43.3263 46.6926C42.1167 45.2758 42.5082 43.5854 44.2178 42.8242C45.5893 42.2146 46.9882 42.2379 48.4009 42.6583C49.3692 42.947 50.2332 43.4181 50.9121 44.1882C52.0957 45.5309 51.7837 47.2 50.1941 48.0154C49.4789 48.3824 48.6834 48.5649 47.8797 48.5462V48.5427ZM40.6745 52.9912C40.1499 52.8993 39.5897 52.8129 39.0349 52.697C38.7853 52.6449 38.6872 52.4652 38.7688 52.2019C38.8833 51.8323 38.9457 51.44 39.1021 51.0896C39.3839 50.4587 39.6617 49.8114 40.0484 49.2443C40.4681 48.6271 40.9351 48.6627 41.4151 49.2333C41.4659 49.2949 41.5131 49.3595 41.5564 49.4267C42.105 50.2571 42.3964 51.1897 42.6611 52.1381C42.7626 52.4995 42.6173 52.6771 42.3107 52.7382C41.7875 52.8445 41.2526 52.9069 40.6745 52.9946V52.9912Z" fill="white"/>
  </g>
  <defs>
    <filter id="filter0_d_154_298" x="0.901367" y="0" width="79.5889" height="85.1736" filterUnits="userSpaceOnUse" color-interpolation-filters="sRGB">
      <feFlood flood-opacity="0" result="BackgroundImageFix"/>
      <feColorMatrix in="SourceAlpha" type="matrix" values="0 0 0 0 0 0 0 0 0 0 0 0 0 0 0 0 0 0 127 0" result="hardAlpha"/>
      <feOffset/>
      <feGaussianBlur stdDeviation="12"/>
      <feComposite in2="hardAlpha" operator="out"/>
      <feColorMatrix type="matrix" values="0 0 0 0 1 0 0 0 0 1 0 0 0 0 1 0 0 0 0.56 0"/>
      <feBlend mode="normal" in2="BackgroundImageFix" result="effect1_dropShadow_154_298"/>
      <feBlend mode="normal" in="SourceGraphic" in2="effect1_dropShadow_154_298" result="shape"/>
    </filter>
  </defs>
</svg>
