<svg width="223" height="236" viewBox="0 0 223 236" fill="none"
  xmlns="http://www.w3.org/2000/svg">
  <g filter="url(#filter0_d_37_29)">
    <path d="M137.331 61.9782C138.847 63.7715 136.293 65.0574 136.692 66.7735C138.438 66.683 139.682 63.2708 142.014 66.3588C139.644 68.2712 139.165 70.9577 139.371 73.9178C139.428 74.7273 139.154 75.7155 138.692 76.3838C132.668 85.1162 127.61 94.5346 120.448 102.458L120.518 102.528C120.511 101.948 120.505 101.368 120.496 100.786C121.633 100.128 122.296 99.2571 121.81 97.8719C122.016 97.8918 122.207 97.9028 122.399 97.9182C122.235 97.9226 122.071 97.9226 121.907 97.9226C121.536 98.9373 120.176 99.5041 120.595 100.874C119.048 101.28 118.494 102.197 119.127 103.724C118.814 103.655 118.402 103.084 118.262 103.907C118.54 103.814 118.794 103.728 119.05 103.642C119.186 103.406 119.383 103.324 119.644 103.397L119.545 103.296C119.254 104.359 118.965 105.422 118.656 106.551C130.379 117.34 139.982 130.027 150.487 141.889C153.201 144.955 155.604 148.295 156.412 152.485L156.526 152.397C155.827 151.934 155.29 151.147 154.294 151.272C154.226 151.261 154.162 151.248 154.099 151.235C154.193 151.211 154.287 151.184 154.381 151.16C153.862 152.333 154.912 152.854 155.387 153.613L155.277 153.518C152.298 153.899 151.438 151.226 149.847 149.647C148.102 147.913 147.385 145.151 144.665 144.384C144.614 144.033 144.711 143.464 144.045 143.96C144.301 144.077 144.531 144.181 144.761 144.287C144.498 146.065 146.754 146.903 146.393 148.718L146.481 148.637C142.711 146.06 141.202 141.117 136.506 139.106C136.968 141.748 140.589 142.582 139.839 145.56L139.905 145.529C130.344 134.99 120.783 124.451 111.331 114.031C109.943 114.068 110.302 115.485 109.472 115.796L109.432 115.879C106.186 117.928 103.941 120.966 101.74 123.994C99.4462 127.151 97.085 130.311 95.2472 133.739C88.5621 146.195 78.2979 155.785 69.5823 166.701C66.8246 167.698 65.7009 166.084 65 163.571C75.0649 143.506 88.9871 125.891 101.838 107.231C90.9913 95.0949 79.8202 83.27 74.1887 67.6933C76.4361 65.7522 77.7985 67.894 80.2999 67.83C80.6723 67.1617 81.382 65.8934 82.3852 64.0979C93.2343 73.8847 100.373 85.7559 109.982 95.8603C117.311 86.5544 124.231 77.3058 131.842 68.6241C133.735 66.4669 136.015 64.6185 137.338 61.9782H137.331ZM102.3 103.746C102.377 103.812 102.454 103.88 102.53 103.946C102.425 103.935 102.322 103.922 102.217 103.911C102.298 103.865 102.381 103.816 102.462 103.77C102.489 103.927 102.515 104.083 102.541 104.242C102.456 104.074 102.368 103.905 102.298 103.746H102.3ZM126.327 127.711C126.357 127.684 126.388 127.66 126.419 127.634C126.336 127.634 126.252 127.629 126.169 127.629C126.677 127.976 127.185 128.322 127.694 128.67C127.963 128.999 128.544 129.171 128.246 129.786L129.553 130.331C129.621 130.819 129.689 131.306 129.755 131.791C130.278 131.842 130.8 131.891 131.323 131.941C131.24 132.047 131.157 132.153 131.073 132.259C131.126 132.125 131.181 131.99 131.227 131.869C130.74 132.402 130.239 133.274 129.84 131.805C129.718 131.28 129.597 130.755 129.466 130.239C128.907 130.722 128.473 130.73 128.259 129.89C128.022 129.495 127.788 129.1 127.534 128.717C126.598 129.028 125.957 128.973 126.327 127.713V127.711ZM133.595 133.79C133.397 133.571 133.264 133.035 132.808 133.651C133.181 133.651 133.461 133.651 133.739 133.651C133.803 133.702 133.866 133.752 133.93 133.801C133.871 133.854 133.811 133.907 133.752 133.96C133.704 133.898 133.656 133.834 133.595 133.788V133.79ZM149.028 145.451L148.925 145.147L148.98 145.348C149.304 145.599 149.628 145.851 149.95 146.104C150.044 146.157 150.139 146.21 150.231 146.263C150.099 146.25 149.968 146.239 149.839 146.219C149.786 145.729 149.663 145.319 149.028 145.451Z" fill="white"/>
    <path d="M146.393 148.718C147.587 148.566 147.239 149.748 147.815 150.128C146.787 150.086 146.266 149.642 146.481 148.637L146.393 148.718Z" fill="white"/>
    <path d="M138.7 61.4268C138.792 61.3761 138.968 61.2945 138.961 61.279C138.827 60.9041 138.692 60.9085 138.576 61.2834L138.7 61.4268Z" fill="white"/>
    <path d="M138.576 61.2834C138.448 62.0356 137.936 62.0907 137.331 61.9782H137.338C137.791 61.7952 138.247 61.6143 138.7 61.429C138.7 61.4246 138.576 61.2834 138.576 61.2834Z" fill="white"/>
    <path d="M155.389 153.61L155.253 153.822C155.253 153.822 155.264 153.513 155.271 153.513C155.277 153.513 155.387 153.608 155.387 153.608L155.389 153.61Z" fill="white"/>
    <path d="M157.63 153.251C157.685 153.33 157.739 153.407 157.794 153.487C157.862 153.407 157.932 153.328 158 153.251C157.919 153.207 157.838 153.16 157.757 153.112C157.757 153.11 157.63 153.251 157.63 153.251Z" fill="white"/>
    <path d="M156.412 152.483C157.139 152.219 157.507 152.532 157.632 153.249C157.632 153.251 157.759 153.11 157.759 153.112C157.358 152.867 156.957 152.618 156.541 152.382C156.526 152.395 156.414 152.483 156.414 152.483H156.412Z" fill="white"/>
    <path d="M141.018 146.495C141.099 146.55 141.182 146.607 141.263 146.662C141.195 146.576 141.125 146.493 141.068 146.391C141.079 146.376 141.018 146.495 141.018 146.495Z" fill="white"/>
    <path d="M139.839 145.557C140.564 145.429 140.996 145.687 141.022 146.484C141.018 146.495 141.077 146.376 141.066 146.391C140.685 146.107 140.313 145.804 139.923 145.515C139.905 145.526 139.839 145.557 139.839 145.557Z" fill="white"/>
    <path d="M114.229 120.414C114.317 120.319 114.407 120.225 114.494 120.13C114.372 120.2 114.247 120.271 114.131 120.337C114.137 120.335 114.229 120.414 114.229 120.414Z" fill="white"/>
    <path d="M114.041 118.778C114.109 119.32 114.174 119.865 114.238 120.41C114.231 120.412 114.139 120.333 114.133 120.337C114.751 119.814 115.603 119.285 114.098 118.798L114.041 118.778Z" fill="white"/>
    <path d="M114.098 118.798C113.671 118.601 113.244 118.407 112.816 118.209L112.698 118.328C113.136 118.48 113.572 118.632 114.026 118.78C114.041 118.775 114.098 118.795 114.098 118.795V118.798Z" fill="white"/>
    <path d="M111.756 117.483C112.067 117.763 112.381 118.045 112.694 118.328C112.694 118.328 112.812 118.209 112.814 118.211C112.503 117.929 112.19 117.642 111.877 117.357L111.756 117.485V117.483Z" fill="white"/>
    <path d="M111.877 117.357C111.568 117.137 111.259 116.916 110.948 116.693C110.946 116.693 110.915 116.771 110.915 116.771C111.636 116.475 111.664 117.015 111.756 117.481C111.756 117.485 111.875 117.357 111.875 117.357L111.877 117.357Z" fill="white"/>
    <path d="M109.472 115.796C109.581 116.676 110.096 116.951 110.915 116.768C110.915 116.768 110.946 116.691 110.948 116.691C110.617 116.113 110.19 115.703 109.441 115.866C109.43 115.879 109.472 115.793 109.472 115.793V115.796Z" fill="white"/>
    <path d="M120.45 102.458C120.448 103.064 120.251 103.457 119.545 103.296L119.642 103.395C119.688 102.852 119.773 102.352 120.52 102.526L120.45 102.455V102.458Z" fill="white"/>
  </g>
  <defs>
    <filter id="filter0_d_37_29" x="0.699997" y="0.699997" width="221.6" height="234.6" filterUnits="userSpaceOnUse" color-interpolation-filters="sRGB">
      <feFlood flood-opacity="0" result="BackgroundImageFix"/>
      <feColorMatrix in="SourceAlpha" type="matrix" values="0 0 0 0 0 0 0 0 0 0 0 0 0 0 0 0 0 0 127 0" result="hardAlpha"/>
      <feOffset dy="4"/>
      <feGaussianBlur stdDeviation="32.15"/>
      <feComposite in2="hardAlpha" operator="out"/>
      <feColorMatrix type="matrix" values="0 0 0 0 1 0 0 0 0 1 0 0 0 0 1 0 0 0 0.25 0"/>
      <feBlend mode="normal" in2="BackgroundImageFix" result="effect1_dropShadow_37_29"/>
      <feBlend mode="normal" in="SourceGraphic" in2="effect1_dropShadow_37_29" result="shape"/>
    </filter>
  </defs>
</svg>
