<svg width="58" height="58" viewBox="0 0 58 58" fill="none" xmlns="http://www.w3.org/2000/svg">
<path d="M4.33013 34.5C2.36517 31.0966 2.36517 26.9034 4.33013 23.5L11.9019 10.3853C13.8669 6.98186 17.4983 4.88527 21.4282 4.88527L36.5718 4.88527C40.5017 4.88527 44.1331 6.98186 46.0981 10.3853L53.6699 23.5C55.6348 26.9034 55.6348 31.0966 53.6699 34.5L46.0981 47.6147C44.1331 51.0181 40.5017 53.1147 36.5718 53.1147L21.4282 53.1147C17.4983 53.1147 13.8669 51.0181 11.9019 47.6147L4.33013 34.5Z" fill="black" fill-opacity="0.15" stroke="black" stroke-width="2"/>
<path d="M8.88675 34C7.10042 30.906 7.10042 27.094 8.88675 24L14.6132 14.0814C16.3996 10.9874 19.7008 9.08142 23.2735 9.08142L34.7265 9.08142C38.2992 9.08142 41.6004 10.9874 43.3868 14.0814L49.1132 24C50.8996 27.094 50.8996 30.906 49.1132 34L43.3868 43.9186C41.6004 47.0126 38.2992 48.9186 34.7265 48.9186L23.2735 48.9186C19.7008 48.9186 16.3996 47.0126 14.6132 43.9186L8.88675 34Z" fill="black"/>
<path d="M22.0004 33.5852V30.8438L27.9592 21.4545H30.3952V25.1761H28.9819L25.4947 30.7017V30.8153H34.1239V33.5852H22.0004ZM29.0245 36V32.7472L29.0955 31.5469V21.4545H32.3839V36H29.0245Z" fill="#1E1E1E"/>
<defs>
<radialGradient id="paint0_radial_630_5552" cx="0" cy="0" r="1" gradientUnits="userSpaceOnUse" gradientTransform="translate(29 -0.0828493) rotate(90) scale(64.4007 657.175)">
<stop/>
<stop offset="1" stop-opacity="0"/>
</radialGradient>
</defs>
</svg>
