<svg width="102" height="45" viewBox="0 0 102 45" fill="none" xmlns="http://www.w3.org/2000/svg">
<path d="M20.8288 43.0368C19.6976 43.6917 18.3025 43.6917 17.1712 43.0368L2.17121 34.3525C1.04403 33.7 0.349999 32.4962 0.349999 31.1937L0.349999 13.8056C0.349999 12.5031 1.04407 11.2993 2.1713 10.6468L17.1713 1.96308C18.3025 1.30822 19.6975 1.30822 20.8287 1.96308L35.8287 10.6468C36.9559 11.2993 37.65 12.5031 37.65 13.8056L37.65 31.1937C37.65 32.4962 36.956 33.7 35.8288 34.3525L20.8288 43.0368Z" fill="url(#paint0_linear_1546_464)" stroke="#1E90F3" stroke-width="0.7"/>
<path d="M19 13.5L10 18.7V31.5H16L18.9 28.5L22 31.5H28V18.7L19 13.5ZM14.9 30.5V24.5L17.9 27.5L14.9 30.5ZM15.9 23.5H21.9L18.9 26.5L15.9 23.5ZM22.9 30.5L19.9 27.5L22.9 24.5V30.5ZM22 21.5H15.8V19.5H22V21.5Z" fill="white"/>
<path d="M50.68 16.617H56.205C57.633 16.617 58.7607 16.9797 59.588 17.705C60.4153 18.419 60.829 19.456 60.829 20.816C60.829 21.7 60.642 22.4537 60.268 23.077C59.9053 23.7003 59.384 24.1763 58.704 24.505L60.693 28.5H57.089L55.355 25.015H54.199V28.5H50.68V16.617ZM55.508 22.227C56.052 22.227 56.4713 22.125 56.766 21.921C57.072 21.7057 57.225 21.3373 57.225 20.816C57.225 20.2947 57.072 19.932 56.766 19.728C56.4713 19.5127 56.052 19.405 55.508 19.405H54.199V22.227H55.508ZM67.0098 28.755C65.8085 28.755 64.7148 28.4943 63.7288 27.973C62.7542 27.4517 61.9835 26.7263 61.4168 25.797C60.8615 24.8563 60.5838 23.7797 60.5838 22.567C60.5838 21.3543 60.8615 20.2777 61.4168 19.337C61.9835 18.3963 62.7542 17.6653 63.7288 17.144C64.7148 16.6227 65.8085 16.362 67.0098 16.362C68.2112 16.362 69.2935 16.6227 70.2568 17.144C71.2315 17.6653 71.9965 18.3963 72.5518 19.337C73.1185 20.2777 73.4018 21.3543 73.4018 22.567C73.4018 23.7797 73.1185 24.8563 72.5518 25.797C71.9965 26.7263 71.2315 27.4517 70.2568 27.973C69.2935 28.4943 68.2112 28.755 67.0098 28.755ZM67.0098 25.457C67.5312 25.457 68.0015 25.3437 68.4208 25.117C68.8515 24.879 69.1915 24.5447 69.4408 24.114C69.6902 23.672 69.8148 23.1563 69.8148 22.567C69.8148 21.6943 69.5485 20.9973 69.0158 20.476C68.4832 19.9547 67.8145 19.694 67.0098 19.694C66.1938 19.694 65.5138 19.9547 64.9698 20.476C64.4372 20.9973 64.1708 21.6943 64.1708 22.567C64.1708 23.1563 64.2955 23.672 64.5448 24.114C64.7942 24.5447 65.1342 24.879 65.5648 25.117C65.9955 25.3437 66.4772 25.457 67.0098 25.457ZM75.7442 19.575H72.5482V16.617H82.4592V19.575H79.2632V28.5H75.7442V19.575ZM84.8354 16.617H88.2184L92.9614 28.5H89.3574L88.4734 26.239H84.5804L83.6794 28.5H80.0754L84.8354 16.617ZM87.6574 23.57L86.5184 20.238L85.3794 23.57H87.6574ZM96.3602 28.755C95.6009 28.755 94.8359 28.6757 94.0652 28.517C93.2945 28.3697 92.6712 28.1713 92.1952 27.922V24.811C92.8185 25.151 93.4702 25.406 94.1502 25.576C94.8415 25.746 95.4875 25.831 96.0882 25.831C96.9609 25.831 97.3972 25.5987 97.3972 25.134C97.3972 24.9413 97.3292 24.777 97.1932 24.641C97.0685 24.4937 96.8759 24.3577 96.6152 24.233C96.3545 24.097 95.9409 23.9043 95.3742 23.655C94.2749 23.179 93.4759 22.6577 92.9772 22.091C92.4899 21.5243 92.2462 20.8217 92.2462 19.983C92.2462 19.2803 92.4389 18.657 92.8242 18.113C93.2209 17.5577 93.7705 17.127 94.4732 16.821C95.1759 16.515 95.9862 16.362 96.9042 16.362C97.6522 16.362 98.3152 16.4243 98.8932 16.549C99.4712 16.6623 100.032 16.8493 100.576 17.11V20.119C99.5902 19.575 98.5815 19.303 97.5502 19.303C97.0969 19.303 96.7342 19.371 96.4622 19.507C96.1902 19.6317 96.0542 19.8187 96.0542 20.068C96.0542 20.3173 96.1732 20.5213 96.4112 20.68C96.6605 20.8273 97.1252 21.037 97.8052 21.309L98.1792 21.462C98.9839 21.7907 99.6015 22.1193 100.032 22.448C100.474 22.7653 100.792 23.1393 100.984 23.57C101.177 23.9893 101.273 24.522 101.273 25.168C101.273 26.29 100.865 27.1683 100.049 27.803C99.2332 28.4377 98.0035 28.755 96.3602 28.755Z" fill="white"/>
<defs>
<linearGradient id="paint0_linear_1546_464" x1="0" y1="44.5" x2="36.4089" y2="-0.779414" gradientUnits="userSpaceOnUse">
<stop stop-color="#1E90F3"/>
<stop offset="1" stop-color="#1871BF"/>
</linearGradient>
</defs>
</svg>
