<svg width="22" height="19" viewBox="0 0 22 19" fill="none" xmlns="http://www.w3.org/2000/svg">
<path d="M13.4476 15.4164V15.3771C13.4459 15.3722 13.4459 15.3669 13.4476 15.3621L13.6528 15.1485C13.6934 15.1073 13.734 15.0643 13.7727 15.0212C13.8095 14.9799 13.8579 14.95 13.9121 14.935C14.1636 14.8657 14.417 14.7983 14.6647 14.7178C15.8053 14.3564 16.8673 13.7945 17.7974 13.0602C17.9289 12.9534 18.0567 12.8411 18.1844 12.7324C18.2095 12.7099 18.2327 12.6837 18.2734 12.6931C18.6728 12.8171 19.061 12.9724 19.4343 13.1576C20.057 13.4723 20.6478 13.8429 21.1989 14.2645C21.4388 14.4443 21.6704 14.6316 21.8936 14.8264C21.9119 14.8417 21.9293 14.8579 21.9458 14.8751C21.9491 14.8784 21.9514 14.8825 21.9524 14.887C21.9534 14.8914 21.9531 14.8961 21.9514 14.9004C21.9498 14.9047 21.9469 14.9085 21.9432 14.9113C21.9395 14.9141 21.935 14.9158 21.9303 14.9163H21.9187C21.2005 15.0173 20.495 15.1899 19.8135 15.4314C19.2595 15.6247 18.7235 15.8634 18.2114 16.145C17.8771 16.331 17.5212 16.4781 17.1511 16.5832C16.6886 16.718 16.2055 16.7744 15.7231 16.7499C15.0568 16.7134 14.4113 16.5123 13.8482 16.1656C13.7611 16.1113 13.6779 16.0532 13.5928 15.997C13.5734 15.9839 13.5579 15.9689 13.5463 15.9595C13.5414 15.9558 13.538 15.9505 13.5367 15.9446C13.5173 15.8078 13.4999 15.6823 13.4786 15.5569C13.4678 15.5093 13.4542 15.4624 13.438 15.4164H13.4476Z" fill="#0A0A0A"/>
<path d="M3.63184 12.8167H3.64152C3.66756 12.8182 3.69192 12.8297 3.70926 12.8486C3.75957 12.8954 3.80989 12.9422 3.86019 12.9853C4.49595 13.5418 5.20751 14.0113 5.97504 14.3806C6.69798 14.7293 7.45938 14.9976 8.24469 15.1804C8.40142 15.2178 8.56007 15.2516 8.7168 15.2872C8.73844 15.2914 8.75978 15.2971 8.78066 15.304C8.81356 15.3284 8.84646 15.3527 8.84066 15.3977C8.78206 15.5741 8.74885 15.7575 8.74197 15.9427C8.74375 15.9475 8.74375 15.9528 8.74197 15.9577C8.72456 15.9708 8.70714 15.9876 8.68779 16.0008C8.20821 16.3456 7.65473 16.5818 7.06825 16.6919C6.71645 16.7571 6.35699 16.7748 6.00017 16.7443C5.32954 16.6867 4.67991 16.4886 4.09625 16.1637C3.58789 15.8834 3.05658 15.6441 2.50769 15.4482C1.94121 15.2474 1.35882 15.0914 0.766269 14.9819C0.62889 14.9575 0.491485 14.9388 0.352171 14.9182C0.348151 14.9173 0.3444 14.9156 0.341259 14.913C0.338118 14.9104 0.335701 14.9071 0.334173 14.9034C0.332646 14.8997 0.332078 14.8957 0.33252 14.8918C0.332962 14.8878 0.334368 14.884 0.336677 14.8807C0.346382 14.8688 0.358205 14.8587 0.371539 14.8508C0.543747 14.7065 0.712069 14.5586 0.888146 14.42C1.4771 13.948 2.11445 13.5357 2.79018 13.1894C3.04544 13.0585 3.30836 12.9422 3.57766 12.8411L3.63184 12.8167Z" fill="#0A0A0A"/>
<path d="M7.76483 4.27786C7.76779 4.29358 7.76723 4.30973 7.76322 4.32523C7.75922 4.34074 7.75184 4.35523 7.74159 4.36776L7.60228 4.63559C7.23269 5.34662 6.91713 6.08278 6.65807 6.8382C6.56906 7.10416 6.48973 7.37387 6.42008 7.64545C6.42008 7.67354 6.40264 7.70351 6.3949 7.72974C6.39309 7.73594 6.38884 7.7412 6.38304 7.74436C6.37724 7.74752 6.37037 7.74831 6.36396 7.74659C6.35505 7.74172 6.34767 7.7346 6.34265 7.72599C6.30589 7.68291 6.27303 7.63609 6.23627 7.59114C5.97165 7.26667 5.67482 6.96806 5.35006 6.6996C5.3191 6.67338 5.29009 6.64341 5.26106 6.61532C5.26043 6.61097 5.26043 6.60656 5.26106 6.60221C5.23591 6.44675 5.20686 6.29317 5.18558 6.13771C5.15238 5.87053 5.13945 5.60135 5.14689 5.33234V5.293C5.1585 5.0027 5.16622 4.71426 5.17783 4.42582C5.19815 3.97439 5.19042 3.5222 5.15463 3.07167C5.14303 2.93307 5.13913 2.79259 5.13139 2.65399L5.18751 2.61467C5.4139 2.6952 5.64222 2.77387 5.86473 2.8619C6.31272 3.04406 6.72809 3.29375 7.09536 3.60171C7.32287 3.78542 7.53092 3.99058 7.71646 4.21417C7.73127 4.2363 7.74743 4.25757 7.76483 4.27786ZM6.50907 5.97664C6.50729 5.98822 6.50954 6.00004 6.5155 6.01022C6.52146 6.0204 6.53078 6.02836 6.54195 6.03283C6.5462 6.0247 6.54842 6.01572 6.54842 6.0066C6.54842 5.99749 6.5462 5.98851 6.54195 5.98038C6.53228 5.89797 6.52069 5.81743 6.51295 5.7369C6.48677 5.46465 6.4389 5.19476 6.36977 4.92965C6.27129 4.56531 6.15242 4.20642 6.01372 3.85457C6.00107 3.8276 5.98686 3.80134 5.97116 3.77591C5.97116 3.77591 5.97115 3.77591 5.95373 3.76279H5.90536C5.89292 3.77145 5.88303 3.78307 5.87659 3.79652C5.87015 3.80997 5.86739 3.8248 5.86861 3.83958C5.86906 3.87616 5.87362 3.91258 5.88216 3.94822C5.90732 4.04186 5.93439 4.13551 5.96535 4.22729C6.08145 4.60188 6.20335 4.96336 6.30784 5.33795C6.35814 5.55522 6.44135 5.765 6.50907 5.97664Z" fill="#0A0A0A"/>
<path d="M17.2768 6.01972C17.2672 6.05156 17.2343 6.06467 17.2092 6.08527C17.0311 6.21638 16.8493 6.34187 16.6771 6.48047C16.3902 6.70975 16.1253 6.96363 15.8857 7.23902C15.8682 7.26404 15.8473 7.28671 15.8237 7.30645C15.8196 7.30875 15.815 7.30996 15.8102 7.30996C15.8055 7.30996 15.8008 7.30875 15.7967 7.30645C15.7831 7.30645 15.7831 7.2821 15.7792 7.27274C15.7729 7.25686 15.7678 7.24059 15.7638 7.22404C15.6477 6.83446 15.5103 6.4505 15.3574 6.07216C15.1446 5.54398 14.9027 5.02892 14.6396 4.52322L14.599 4.44269C14.5937 4.43284 14.5909 4.42192 14.5909 4.41084C14.5909 4.39976 14.5937 4.38884 14.599 4.379L14.6608 4.30595C15.1396 3.70256 15.7651 3.22321 16.4816 2.9106C16.7312 2.80197 16.9924 2.7233 17.2556 2.62216H17.2943C17.2977 2.6219 17.3012 2.62234 17.3045 2.62345C17.3078 2.62456 17.3108 2.62631 17.3133 2.62859C17.3159 2.63088 17.3179 2.63365 17.3193 2.63673C17.3207 2.63981 17.3214 2.64314 17.3213 2.64651C17.3213 2.66524 17.3213 2.68396 17.3213 2.70269C17.3078 2.93494 17.2923 3.16719 17.2788 3.39944C17.2614 3.66353 17.2575 3.92949 17.2672 4.19358C17.2672 4.52884 17.2924 4.8641 17.302 5.19936C17.3117 5.46231 17.3059 5.72558 17.2846 5.98788C17.2812 5.9983 17.2786 6.00894 17.2768 6.01972ZM15.5025 5.80995C15.5025 5.82119 15.489 5.83242 15.5025 5.84179L15.5161 5.8268L15.5277 5.80059C15.578 5.7163 15.6264 5.63201 15.6786 5.5496C15.9805 5.06127 16.2494 4.55451 16.4836 4.03251C16.5095 3.97144 16.5314 3.90889 16.5493 3.84521C16.5504 3.84027 16.5504 3.83516 16.5493 3.83022C16.5491 3.82702 16.5482 3.8239 16.5467 3.82103C16.5452 3.81817 16.5431 3.81562 16.5406 3.81353C16.5381 3.81144 16.5352 3.80986 16.532 3.80887C16.5289 3.80787 16.5256 3.80749 16.5222 3.80775C16.5032 3.81337 16.4867 3.8253 16.4758 3.84146C16.3929 3.93574 16.3203 4.03805 16.2591 4.14675C16.1352 4.36027 16.0288 4.58503 15.9166 4.80604C15.7967 5.0387 15.6902 5.27754 15.5974 5.5215C15.5625 5.61515 15.5335 5.70881 15.5025 5.8062C15.5023 5.80744 15.5023 5.80871 15.5025 5.80995Z" fill="#0A0A0A"/>
<path d="M9.02831 15.5662C9.03243 15.5639 9.03712 15.5627 9.04187 15.5627C9.04663 15.5627 9.05126 15.5639 9.05538 15.5662C9.12504 15.6318 9.19471 15.6973 9.2663 15.7535C9.75465 16.1995 10.2773 16.609 10.8297 16.9784C10.9227 17.0499 11.0348 17.0941 11.1528 17.1058L11.207 17.0927C11.2715 17.0813 11.3327 17.0571 11.387 17.0215C11.8077 16.7471 12.2103 16.4475 12.5924 16.1244C12.7975 15.9502 12.993 15.7685 13.1942 15.5906L13.2232 15.5644C13.2266 15.563 13.2302 15.5622 13.2338 15.5622C13.2375 15.5622 13.2411 15.563 13.2445 15.5644C13.2495 15.5655 13.254 15.568 13.2575 15.5717C13.2609 15.5754 13.2632 15.58 13.2638 15.585C13.2954 15.7392 13.3116 15.896 13.3122 16.0532C13.3097 16.3548 13.2257 16.6506 13.0684 16.911C12.955 17.094 12.8178 17.2621 12.6601 17.4111C12.5286 17.5366 12.3912 17.6583 12.2538 17.7857C12.0777 17.9449 11.8978 18.0985 11.7256 18.2614C11.5012 18.4686 11.3113 18.708 11.1625 18.9713L11.1509 18.99C11.1486 18.9931 11.1455 18.9956 11.142 18.9974C11.1384 18.9991 11.1346 19 11.1306 19C11.1266 19 11.1227 18.9991 11.1192 18.9974C11.1157 18.9956 11.1126 18.9931 11.1103 18.99L11.0987 18.9713C10.9533 18.7143 10.7687 18.48 10.5511 18.2764C10.3885 18.121 10.2183 17.9749 10.0538 17.825C9.88936 17.6752 9.75391 17.5591 9.60879 17.4242C9.49339 17.3138 9.38786 17.1941 9.29337 17.0665C9.14355 16.8661 9.03879 16.6376 8.9858 16.3957C8.93281 16.1537 8.93279 15.9037 8.98575 15.6617C8.98575 15.6374 8.99539 15.6112 8.99926 15.5868C8.99973 15.5836 9.00089 15.5805 9.00261 15.5777C9.00434 15.575 9.00662 15.5725 9.00932 15.5706C9.01203 15.5687 9.01508 15.5673 9.01834 15.5666C9.02161 15.5658 9.025 15.5657 9.02831 15.5662ZM11.176 18.1584C11.176 18.1828 11.176 18.209 11.176 18.2352C11.1757 18.266 11.1837 18.2964 11.1993 18.3232L11.2205 18.1359C11.2642 17.9169 11.2831 17.694 11.2767 17.471C11.2738 17.4245 11.268 17.3782 11.2593 17.3324C11.2593 17.3324 11.2593 17.3193 11.2477 17.3118C11.2454 17.3084 11.2422 17.3055 11.2385 17.3036C11.2348 17.3016 11.2306 17.3006 11.2263 17.3006H11.1954C11.191 17.3009 11.1868 17.3023 11.1831 17.3046C11.1794 17.3069 11.1763 17.31 11.1741 17.3137C11.1727 17.3211 11.1727 17.3287 11.1741 17.3362C11.1702 17.6134 11.1509 17.8868 11.176 18.1584Z" fill="#0A0A0A"/>
<path d="M11.1529 0.00749918C11.1838 0.0325513 11.2111 0.061524 11.2341 0.0936483C11.6005 0.539414 11.9513 0.997046 12.2867 1.46654C12.9674 2.40465 13.5859 3.38368 14.1384 4.39772C14.5363 5.12278 14.8816 5.87378 15.1717 6.64528C15.3634 7.15564 15.516 7.679 15.6283 8.21109C15.7513 8.77546 15.8032 9.35215 15.7831 9.9286C15.757 10.479 15.6561 11.0238 15.4832 11.5487C15.2629 12.2157 14.9505 12.8507 14.5544 13.4367C14.1778 13.9992 13.7469 14.526 13.2677 15.01C12.6705 15.6203 12.0105 16.1701 11.298 16.6507C11.2554 16.6806 11.209 16.7069 11.1625 16.7368C11.1586 16.7396 11.1538 16.7411 11.149 16.7411C11.1441 16.7411 11.1394 16.7396 11.1354 16.7368L11.0426 16.6788C10.6445 16.4155 10.2639 16.1284 9.90291 15.8191C9.23581 15.2598 8.63372 14.6318 8.1073 13.9461C7.6863 13.4009 7.33363 12.8093 7.05666 12.1836C6.82605 11.6624 6.66476 11.1148 6.57676 10.5542C6.5146 10.1413 6.49584 9.72334 6.52069 9.30677C6.57289 8.57196 6.71779 7.8461 6.95217 7.14537C7.1939 6.40819 7.49203 5.68947 7.84414 4.9952C8.33231 4.0251 8.88493 3.08666 9.4985 2.18575C9.98803 1.46091 10.5066 0.754812 11.0639 0.076798C11.0851 0.0505765 11.1083 0.0262215 11.1316 0C11.139 0.00141829 11.1462 0.00395287 11.1529 0.00749918ZM10.2067 13.2606L10.1873 13.24L10.1738 13.2269C10.1726 13.2246 10.172 13.222 10.172 13.2194C10.172 13.2168 10.1726 13.2142 10.1738 13.2119C10.1648 13.1705 10.1477 13.131 10.1235 13.0958C10.108 13.0059 10.0867 12.9085 10.0751 12.8242C10.0528 12.6131 10.0528 12.4004 10.0751 12.1893C10.0886 12.0544 10.108 11.9214 10.1254 11.7866C10.1254 11.7735 10.1351 11.7622 10.1138 11.7473L10.0906 11.7941L10.0558 11.8765C9.96757 12.0961 9.92354 12.3301 9.9261 12.5657C9.9275 12.764 9.98435 12.9581 10.0906 13.1276C10.103 13.1652 10.1274 13.1979 10.1602 13.2213L10.197 13.2512L10.2067 13.2606ZM8.55234 9.35922L8.59878 9.33861L8.62197 9.32551L8.67809 9.2843L9.01283 9.0689C9.32435 8.8816 9.63976 8.69431 9.94547 8.47892C10.188 8.3141 10.4331 8.15365 10.6807 7.99757C10.9207 7.84773 11.1645 7.70351 11.4083 7.56116C11.8204 7.32142 12.2499 7.1154 12.6834 6.91686C13.0007 6.77452 13.3238 6.64529 13.6508 6.52542C13.7688 6.48234 13.8849 6.43551 14.001 6.38869C14.042 6.37107 14.0815 6.35042 14.1191 6.32689C14.125 6.3249 14.1298 6.32072 14.1326 6.31527C14.1353 6.30983 14.1356 6.30356 14.1336 6.29785C14.1315 6.29214 14.1272 6.28745 14.1216 6.28482C14.116 6.28218 14.1095 6.28181 14.1036 6.2838C14.0766 6.28112 14.0494 6.28112 14.0223 6.2838C13.914 6.3044 13.8056 6.32314 13.6992 6.35124C13.1826 6.49055 12.6774 6.66709 12.188 6.8794C11.8447 7.02618 11.5101 7.19126 11.1857 7.37387C10.7984 7.59013 10.4225 7.82517 10.0596 8.0781C9.86611 8.21109 9.67264 8.35343 9.4985 8.5014C9.20052 8.74676 8.91803 9.0071 8.6336 9.27306L8.57554 9.32925L8.55815 9.34798L8.55234 9.35922ZM13.9701 10.483C13.9836 10.483 13.9894 10.483 13.9875 10.4718C13.9837 10.4635 13.9785 10.4559 13.972 10.4493C13.9469 10.4661 13.9469 10.4661 13.9662 10.4924L13.9701 10.483ZM10.4215 4.34341C10.4215 4.32093 10.4021 4.29846 10.3634 4.29659L10.3847 4.34341C10.5343 4.65464 10.6573 4.97726 10.7523 5.30799C10.8596 5.69687 10.9353 6.09327 10.9787 6.49357C11.0116 6.76141 11.0348 7.02925 11.0619 7.29708V7.33079C11.0627 7.33431 11.0643 7.33761 11.0666 7.34045C11.0689 7.34329 11.0719 7.3456 11.0752 7.34721C11.0785 7.34882 11.0822 7.34969 11.0859 7.34977C11.0896 7.34985 11.0933 7.34912 11.0967 7.34764C11.1612 7.32054 11.2217 7.28527 11.2767 7.24276C11.2784 7.23957 11.2793 7.23604 11.2793 7.23246C11.2793 7.22887 11.2784 7.22534 11.2767 7.22216C11.2767 7.19219 11.2767 7.16223 11.2767 7.13413C11.238 6.78202 11.1877 6.43364 11.1161 6.08714C11.0619 5.79572 10.9862 5.50844 10.8897 5.22746C10.7801 4.9118 10.6222 4.61381 10.4215 4.34341ZM10.851 12.0788C10.8878 11.9233 10.9226 11.7678 10.9613 11.6124C11.0451 11.2765 11.1097 10.9363 11.1548 10.5935C11.1935 10.32 11.2283 10.0447 11.2573 9.7694C11.2806 9.55401 11.2941 9.33674 11.3077 9.12135C11.3193 8.97526 11.3231 8.82916 11.3309 8.68307C11.3425 8.40025 11.3425 8.12119 11.3309 7.83462V7.78967C11.3303 7.78599 11.3288 7.78248 11.3266 7.77942C11.3245 7.77636 11.3216 7.77382 11.3182 7.77201C11.3148 7.7702 11.3111 7.76917 11.3072 7.76898C11.3034 7.76879 11.2996 7.76946 11.296 7.77094C11.2322 7.80016 11.1708 7.83398 11.1122 7.87208C11.1089 7.87411 11.1061 7.87686 11.1041 7.88011C11.1021 7.88336 11.1009 7.88703 11.1006 7.89081C11.1006 7.92452 11.1006 7.95637 11.1006 7.98821C11.1006 8.37778 11.1006 8.76736 11.0754 9.15694C11.0503 9.54651 11.0174 9.97355 10.9826 10.3819C10.9477 10.7902 10.911 11.2191 10.8742 11.6367C10.8607 11.7847 10.8413 11.9327 10.8239 12.0825C10.7949 12.2005 10.7949 12.2024 10.8104 12.2698C10.8362 12.2103 10.8513 12.147 10.8549 12.0825L10.851 12.0788ZM10.3402 13.3056L10.2589 13.2887C10.2683 13.3022 10.2806 13.3135 10.295 13.3219C10.3094 13.3303 10.3255 13.3356 10.3421 13.3374C10.3987 13.3581 10.4595 13.3656 10.5197 13.3594C10.5798 13.3533 10.6376 13.3335 10.6884 13.3018C10.7216 13.2843 10.7534 13.2642 10.7833 13.2419C10.8874 13.1652 10.9787 13.0736 11.0542 12.9703C11.2083 12.766 11.3505 12.5534 11.4798 12.3335C11.5843 12.1612 11.6888 11.9889 11.803 11.8222C12.036 11.4754 12.3247 11.1668 12.6582 10.9082C12.858 10.7499 13.0762 10.6147 13.3083 10.5055C13.4197 10.4528 13.5383 10.4156 13.6605 10.395C13.7486 10.378 13.8401 10.3926 13.9179 10.4362C13.9306 10.4384 13.9437 10.4384 13.9565 10.4362C13.939 10.3902 13.9101 10.349 13.8723 10.3164C13.8345 10.2837 13.789 10.2606 13.7398 10.2489C13.6604 10.228 13.5775 10.2229 13.496 10.2339C13.4042 10.2484 13.3142 10.2716 13.2271 10.3032C13.0196 10.3803 12.8243 10.4849 12.6466 10.6141C12.2447 10.8968 11.8997 11.2485 11.6288 11.6517C11.5089 11.8259 11.4025 12.0095 11.2922 12.1893L10.8878 12.8467C10.8169 12.9611 10.7303 13.0657 10.6304 13.1576C10.5956 13.202 10.5509 13.2384 10.4997 13.264C10.4485 13.2896 10.392 13.3038 10.3344 13.3056H10.3402Z" fill="#0A0A0A"/>
<path d="M0.0406729 5.20498H0.311542L0.870711 5.21808C1.12187 5.22532 1.37217 5.25037 1.61954 5.293C2.24815 5.39173 2.86125 5.56732 3.44415 5.81556C4.28693 6.1692 5.04811 6.68247 5.68286 7.32517C5.89426 7.5369 6.08833 7.76421 6.26334 8.00506L6.31752 8.08373C6.3193 8.08922 6.3193 8.09509 6.31752 8.10058C6.29624 8.21109 6.273 8.32347 6.25365 8.43397C6.18208 8.81794 6.14328 9.20695 6.13759 9.59708C6.13428 10.1071 6.19336 10.6157 6.31365 11.1123C6.55031 12.1056 6.98615 13.0442 7.59647 13.8749C7.85102 14.2352 8.12756 14.5805 8.42462 14.9088C8.44397 14.9294 8.45945 14.95 8.47687 14.9706C8.49428 14.9912 8.47687 14.9837 8.47687 14.9931C8.46016 14.995 8.44327 14.995 8.42656 14.9931C7.3044 14.7409 6.23248 14.3126 5.25332 13.7251C4.07966 13.016 3.1042 12.0383 2.41288 10.8782C2.06871 10.3047 1.77423 9.7045 1.53248 9.08389C1.33899 8.61377 1.17065 8.1474 1.00038 7.66605C0.733364 6.91686 0.435399 6.18454 0.0929193 5.46719C0.0600258 5.39789 0.0309586 5.32859 0 5.25929L0.0406729 5.20498ZM5.05789 10.1627L5.08496 10.1871C5.08537 10.1904 5.08694 10.1935 5.0894 10.1959C5.09185 10.1983 5.09506 10.1998 5.09852 10.2002L5.22814 10.3238C5.23781 10.3238 5.24946 10.3406 5.263 10.3238C5.21824 10.2649 5.16698 10.2109 5.11014 10.1627C5.10805 10.1577 5.10472 10.1532 5.10045 10.1496C4.81989 9.84806 4.54898 9.53714 4.25681 9.24683C4.15813 9.14757 4.06336 9.0483 3.96275 8.95278C3.66283 8.65872 3.3513 8.37591 3.03204 8.10433C2.98125 8.06417 2.92827 8.02666 2.87336 7.99194C2.85763 7.97941 2.83852 7.97151 2.81828 7.96918C2.79805 7.96686 2.77752 7.97022 2.75919 7.97884C2.74631 7.98818 2.73772 8.00201 2.73519 8.01739C2.73266 8.03277 2.73643 8.04851 2.74568 8.06125C2.76237 8.09018 2.78318 8.11666 2.80756 8.13992C2.98364 8.31223 3.15778 8.48829 3.3416 8.65311C3.74213 9.01459 4.14652 9.37045 4.54898 9.72631C4.71345 9.86679 4.88568 10.0148 5.05789 10.1627Z" fill="#0A0A0A"/>
<path d="M14.1849 14.5623L14.2139 14.5267C14.5728 14.0955 14.8963 13.6377 15.1814 13.1576C15.554 12.5217 15.8284 11.8364 15.996 11.1236C16.073 10.8055 16.126 10.4825 16.1546 10.1571C16.173 9.92843 16.1788 9.69898 16.172 9.46972C16.1443 8.88677 16.0548 8.30812 15.905 7.74285C15.905 7.71101 15.8895 7.6773 15.8818 7.63984C15.8804 7.6369 15.8797 7.6337 15.8797 7.63046C15.8797 7.62723 15.8804 7.62404 15.8818 7.6211C15.9013 7.59181 15.9227 7.56366 15.9456 7.53682C16.3867 7.00617 16.9126 6.54713 17.5033 6.17704C18.265 5.70032 19.1102 5.36203 19.9973 5.17876C20.2601 5.12512 20.5256 5.08448 20.7926 5.05701C20.8758 5.05701 20.9609 5.0439 21.0441 5.04202L21.8858 5.0233H21.9768C21.9825 5.02366 21.9879 5.0259 21.9921 5.02964C21.9963 5.03339 21.9991 5.03842 22 5.0439C21.9994 5.06928 21.9914 5.09398 21.9768 5.11507C21.9071 5.27053 21.8355 5.42599 21.762 5.57957C21.4679 6.19765 21.2222 6.83259 20.988 7.47502C20.7849 8.03691 20.5817 8.59879 20.3495 9.14195C20.1107 9.71689 19.8261 10.273 19.4981 10.8051C18.7652 11.9852 17.7362 12.967 16.5068 13.6595C15.7945 14.0642 15.0344 14.3843 14.2429 14.6129H14.2255L14.1849 14.5623ZM16.2398 10.4418L16.2591 10.4212L16.2765 10.4043C16.3384 10.3689 16.394 10.324 16.441 10.2714C16.7951 9.97917 17.155 9.69634 17.5013 9.39667C17.9851 8.97525 18.4514 8.53698 18.908 8.08559C18.9912 8.00131 19.0705 7.91329 19.1499 7.82526C19.1778 7.79185 19.2037 7.75682 19.2273 7.72037C19.2384 7.70576 19.2456 7.6887 19.2483 7.67074C19.251 7.65277 19.2491 7.63443 19.2427 7.61735L19.2331 7.60611L19.2118 7.59488C19.2061 7.59287 19.2 7.59287 19.1944 7.59488C19.141 7.61313 19.0935 7.64482 19.057 7.68666C18.8054 7.92078 18.5539 8.15303 18.3062 8.38715L17.2827 9.36108C16.9827 9.64577 16.7022 9.94545 16.4158 10.2433C16.3849 10.2732 16.352 10.3013 16.3229 10.3313C16.2939 10.3613 16.2823 10.3669 16.2765 10.3912L16.2513 10.4287L16.2339 10.4437L16.2398 10.4418Z" fill="#0A0A0A"/>
</svg>
