<svg width="42" height="42" viewBox="0 0 42 42" fill="none"
  xmlns="http://www.w3.org/2000/svg">
  <path d="M2.95892 24.625C1.66383 22.3818 1.66383 19.6182 2.95892 17.375L8.84012 7.18847C10.1352 4.94531 12.5286 3.56347 15.1188 3.56347L26.8812 3.56347C29.4714 3.56347 31.8648 4.94531 33.1599 7.18847L39.0411 17.375C40.3362 19.6182 40.3362 22.3818 39.0411 24.625L33.1599 34.8115C31.8648 37.0547 29.4714 38.4365 26.8812 38.4365L15.1188 38.4365C12.5286 38.4365 10.1352 37.0547 8.84012 34.8115L2.95892 24.625Z" fill="url(#paint0_radial_275_3778)" fill-opacity="0.45" stroke="#2981FF" stroke-width="1.5"/>
  <path d="M6.02073 24.5C4.7703 22.3342 4.7703 19.6658 6.02073 17.5L10.4793 9.77757C11.7297 7.61176 14.0406 6.27757 16.5415 6.27757L25.4585 6.27757C27.9594 6.27757 30.2703 7.61176 31.5207 9.77757L35.9793 17.5C37.2297 19.6658 37.2297 22.3342 35.9793 24.5L31.5207 32.2224C30.2703 34.3882 27.9594 35.7224 25.4585 35.7224L16.5415 35.7224C14.0406 35.7224 11.7297 34.3882 10.4793 32.2224L6.02073 24.5Z" fill="#2981FF"/>
  <path d="M20.3846 21.6154V17.3077C20.3846 17.1445 20.4495 16.988 20.5649 16.8726C20.6803 16.7571 20.8368 16.6923 21 16.6923C21.1632 16.6923 21.3197 16.7571 21.4351 16.8726C21.5505 16.988 21.6154 17.1445 21.6154 17.3077V21.6154C21.6154 21.7786 21.5505 21.9351 21.4351 22.0505C21.3197 22.1659 21.1632 22.2308 21 22.2308C20.8368 22.2308 20.6803 22.1659 20.5649 22.0505C20.4495 21.9351 20.3846 21.7786 20.3846 21.6154ZM29 18.1962V23.8038C29.0005 23.9655 28.9689 24.1257 28.9069 24.2751C28.845 24.4244 28.754 24.56 28.6392 24.6738L24.6738 28.6392C24.56 28.754 24.4244 28.845 24.2751 28.9069C24.1257 28.9689 23.9655 29.0005 23.8038 29H18.1962C18.0345 29.0005 17.8743 28.9689 17.7249 28.9069C17.5756 28.845 17.44 28.754 17.3262 28.6392L13.3608 24.6738C13.246 24.56 13.155 24.4244 13.0931 24.2751C13.0311 24.1257 12.9995 23.9655 13 23.8038V18.1962C12.9995 18.0345 13.0311 17.8743 13.0931 17.7249C13.155 17.5756 13.246 17.44 13.3608 17.3262L17.3262 13.3608C17.44 13.246 17.5756 13.155 17.7249 13.0931C17.8743 13.0311 18.0345 12.9995 18.1962 13H23.8038C23.9655 12.9995 24.1257 13.0311 24.2751 13.0931C24.4244 13.155 24.56 13.246 24.6738 13.3608L28.6392 17.3262C28.754 17.44 28.845 17.5756 28.9069 17.7249C28.9689 17.8743 29.0005 18.0345 29 18.1962ZM27.7692 18.1962L23.8038 14.2308H18.1962L14.2308 18.1962V23.8038L18.1962 27.7692H23.8038L27.7692 23.8038V18.1962ZM21 23.4615C20.8174 23.4615 20.639 23.5157 20.4872 23.6171C20.3354 23.7185 20.2171 23.8627 20.1472 24.0314C20.0773 24.2 20.059 24.3856 20.0947 24.5647C20.1303 24.7438 20.2182 24.9082 20.3473 25.0373C20.4764 25.1664 20.6409 25.2543 20.8199 25.29C20.999 25.3256 21.1846 25.3073 21.3532 25.2374C21.5219 25.1676 21.6661 25.0492 21.7675 24.8974C21.8689 24.7456 21.9231 24.5672 21.9231 24.3846C21.9231 24.1398 21.8258 23.905 21.6527 23.7319C21.4796 23.5588 21.2448 23.4615 21 23.4615Z" fill="#1E1E1E"/>
  <defs>
    <radialGradient id="paint0_radial_275_3778" cx="0" cy="0" r="1" gradientUnits="userSpaceOnUse" gradientTransform="translate(21 -0.0599971) rotate(90) scale(46.635 475.886)">
      <stop/>
      <stop offset="1" stop-opacity="0"/>
    </radialGradient>
  </defs>
</svg>
