<svg width="18" height="18" viewBox="0 0 18 18" fill="none" xmlns="http://www.w3.org/2000/svg">
<g clip-path="url(#clip0_151_1425)">
<path d="M9.0002 0C6.05702 0 3.64502 2.4048 3.64502 5.33988C3.64502 6.47712 4.00826 7.53408 4.62296 8.40276L8.34662 14.8401C8.86808 15.5214 9.21476 15.392 9.64838 14.8041L13.7556 7.8147C13.8384 7.66458 13.9036 7.50474 13.9603 7.34148C14.2208 6.70632 14.3548 6.0264 14.3548 5.33988C14.355 2.4048 11.9437 0 9.0002 0ZM9.0002 2.502C10.5853 2.502 11.8456 3.75948 11.8456 5.33988C11.8456 6.92028 10.5853 8.1774 9.0002 8.1774C7.4153 8.1774 6.1544 6.92064 6.1544 5.34006C6.1544 3.75948 7.4153 2.50218 9.00002 2.50218" fill="white"/>
<path d="M12.4043 8.80344L12.3957 8.82612L12.4033 8.80542L12.4043 8.80344ZM11.4926 13.2037L11.2437 13.5115C11.5803 13.5522 11.9061 13.5999 12.2112 13.6577L11.225 13.9498L12.5413 14.2999L13.5225 13.9905C14.1251 14.1926 14.9596 14.4398 15.2361 14.7208H13.2687L13.4642 15.2924H15.5057C15.4996 15.6146 14.9236 15.8764 14.3735 16.0884L12.9784 15.7867L11.6638 16.2578L13.0678 16.5782C12.2481 16.8014 10.8718 16.9371 9.73243 16.9996L9.68455 16.3444H8.31547L8.26741 16.9996C7.12801 16.9371 5.75191 16.8016 4.93201 16.5784L6.33619 16.2578L5.02165 15.7867L3.62629 16.0884C3.08413 15.9237 2.50039 15.6146 2.49427 15.2924H4.53601L4.73149 14.7208H2.76409C3.04057 14.4398 3.87505 14.1926 4.47769 13.9905L5.45887 14.2999L6.77521 13.9498L5.78899 13.6577C6.10749 13.5989 6.42782 13.5504 6.74947 13.5124L6.50413 13.2041C3.84283 13.4807 1.63099 14.0699 1.05103 15.0003C0.126008 16.4831 3.53845 17.9748 8.88661 17.998C8.96617 18.002 9.04465 17.9991 9.11881 17.998C14.4639 17.9735 17.8733 16.4824 16.949 15.0003C16.3687 14.0695 14.1556 13.4802 11.4926 13.2037Z" fill="white"/>
</g>
<defs>
<clipPath id="clip0_151_1425">
<rect width="18" height="18" fill="white"/>
</clipPath>
</defs>
</svg>
