<svg width="22" height="22" viewBox="0 0 22 22" fill="none" xmlns="http://www.w3.org/2000/svg">
<path d="M13.75 11H15.5833C15.5833 9.78442 15.1004 8.61864 14.2409 7.75909C13.3814 6.89955 12.2156 6.41667 11 6.41667V8.25C11.7293 8.25 12.4288 8.53973 12.9445 9.05546C13.4603 9.57118 13.75 10.2707 13.75 11ZM17.4167 11H19.25C19.25 6.41667 15.5558 2.75 11 2.75V4.58333C14.5383 4.58333 17.4167 7.4525 17.4167 11ZM18.3333 14.2083C17.1875 14.2083 16.0875 14.025 15.0608 13.6858C14.74 13.585 14.3825 13.6583 14.1258 13.915L12.1092 15.9317C9.50898 14.6054 7.39463 12.491 6.06833 9.89083L8.085 7.87417C8.34167 7.6175 8.415 7.26 8.31417 6.93917C7.96704 5.88307 7.79066 4.77835 7.79167 3.66667C7.79167 3.42355 7.69509 3.19039 7.52318 3.01849C7.35127 2.84658 7.11812 2.75 6.875 2.75H3.66667C3.42355 2.75 3.19039 2.84658 3.01849 3.01849C2.84658 3.19039 2.75 3.42355 2.75 3.66667C2.75 7.79962 4.39181 11.7633 7.31425 14.6857C10.2367 17.6082 14.2004 19.25 18.3333 19.25C18.5764 19.25 18.8096 19.1534 18.9815 18.9815C19.1534 18.8096 19.25 18.5764 19.25 18.3333V15.125C19.25 14.8819 19.1534 14.6487 18.9815 14.4768C18.8096 14.3049 18.5764 14.2083 18.3333 14.2083Z" fill="white"/>
</svg>
