<svg width="489" height="225" viewBox="0 0 489 225" fill="none"
  xmlns="http://www.w3.org/2000/svg">
  <path d="M219.424 14.5704C219.063 14.869 218.68 15.4662 218.553 15.8928C218.447 16.3194 217.66 21.2464 216.852 26.8132C216.023 32.3801 215.258 37.1364 215.173 37.3924C215.067 37.627 212.708 39.2906 209.923 41.1036C207.117 42.8952 204.439 44.7509 203.95 45.2201C202.845 46.2865 202.016 47.7796 201.761 49.2513C201.442 50.9362 202.42 65.184 202.888 65.9092C203.079 66.2078 207.5 69.7484 212.708 73.8222C221.529 80.6901 222.251 81.202 223.038 81.202C224.738 81.202 225.78 80.1569 225.78 78.4506C225.78 77.8107 225.631 77.4268 225.206 76.9575C224.866 76.595 220.827 73.3743 216.215 69.7697L207.819 63.243L207.649 62.0273C207.564 61.3661 207.521 60.2996 207.542 59.6598L207.606 58.4654L216.959 64.0749C222.103 67.1676 226.8 69.8763 227.395 70.0896C228.182 70.3882 232.369 70.9641 242.38 72.1372C250.032 73.033 256.345 73.8222 256.409 73.9075C256.473 73.9928 257.642 80.7967 259.002 89.051C260.724 99.5662 261.574 104.259 261.851 104.834C263.041 107.138 266.484 107.735 268.546 105.986C269.375 105.282 269.97 103.96 269.991 102.808C269.991 101.72 264.55 68.7246 264.231 67.9567C263.934 67.1889 262.807 66.1438 261.914 65.7812C261.51 65.6105 256.749 64.9494 251.35 64.3308C245.93 63.7123 241.509 63.1364 241.509 63.0724C241.509 63.0084 246.313 61.7074 252.179 60.1503L262.85 57.3349L277.325 63.435C286.975 67.5088 292.119 69.5564 292.799 69.6417C296.752 70.047 299.069 65.184 296.263 62.3259C295.456 61.5154 294.117 60.9182 279.982 54.9674C268.652 50.2111 264.295 48.4834 263.509 48.4194C262.637 48.3341 259.938 48.9953 247.949 52.1733C239.979 54.3062 233.304 56.0339 233.113 56.0339C232.858 56.0339 216.087 46.1586 214.451 45.0495C214.11 44.8148 214.387 44.5802 216.831 42.9592C218.553 41.8075 219.701 40.9116 219.913 40.5277C220.211 39.9305 223.654 17.8977 223.654 16.554C223.654 15.7648 223.165 14.7837 222.549 14.3571C221.784 13.8026 220.19 13.9092 219.424 14.5704Z" fill="#1E90F3"/>
  <path d="M194.109 34.8329C190.325 35.8567 187.966 39.5679 188.604 43.4925C188.88 45.2201 189.688 46.6491 191.069 47.9289C192.536 49.2726 194.045 49.8485 196.128 49.8485C198.211 49.8485 199.72 49.2726 201.187 47.9289C205.863 43.6418 203.865 36.1553 197.68 34.7049C196.447 34.4277 195.491 34.4703 194.109 34.8329Z" fill="#1E90F3"/>
  <path d="M281.172 70.3669C279.046 74.2061 275.816 78.4719 272.181 82.2684L269.843 84.7213L270.544 90.1388C270.927 93.1249 271.267 95.6843 271.309 95.8336C271.416 96.2602 275.454 92.8689 278.557 89.7762C282.554 85.8091 285.742 81.8205 288.356 77.5761C289.844 75.1659 290.928 73.1397 290.822 73.0117C290.737 72.9477 284.488 70.3456 282.001 69.3431C281.895 69.3005 281.512 69.7697 281.172 70.3669Z" fill="#1E90F3"/>
  <path d="M161.784 153L152.814 132H159.234L166.794 150.18H163.014L170.754 132H176.634L167.634 153H161.784ZM188.19 153.42C186.51 153.42 184.96 153.15 183.54 152.61C182.12 152.07 180.88 151.31 179.82 150.33C178.78 149.33 177.97 148.17 177.39 146.85C176.81 145.53 176.52 144.08 176.52 142.5C176.52 140.92 176.81 139.47 177.39 138.15C177.97 136.83 178.78 135.68 179.82 134.7C180.88 133.7 182.12 132.93 183.54 132.39C184.96 131.85 186.51 131.58 188.19 131.58C189.89 131.58 191.44 131.85 192.84 132.39C194.26 132.93 195.49 133.7 196.53 134.7C197.57 135.68 198.38 136.83 198.96 138.15C199.56 139.47 199.86 140.92 199.86 142.5C199.86 144.08 199.56 145.54 198.96 146.88C198.38 148.2 197.57 149.35 196.53 150.33C195.49 151.31 194.26 152.07 192.84 152.61C191.44 153.15 189.89 153.42 188.19 153.42ZM188.19 148.5C188.99 148.5 189.73 148.36 190.41 148.08C191.11 147.8 191.71 147.4 192.21 146.88C192.73 146.34 193.13 145.7 193.41 144.96C193.71 144.22 193.86 143.4 193.86 142.5C193.86 141.58 193.71 140.76 193.41 140.04C193.13 139.3 192.73 138.67 192.21 138.15C191.71 137.61 191.11 137.2 190.41 136.92C189.73 136.64 188.99 136.5 188.19 136.5C187.39 136.5 186.64 136.64 185.94 136.92C185.26 137.2 184.66 137.61 184.14 138.15C183.64 138.67 183.24 139.3 182.94 140.04C182.66 140.76 182.52 141.58 182.52 142.5C182.52 143.4 182.66 144.22 182.94 144.96C183.24 145.7 183.64 146.34 184.14 146.88C184.66 147.4 185.26 147.8 185.94 148.08C186.64 148.36 187.39 148.5 188.19 148.5ZM213.441 153.42C211.781 153.42 210.241 153.16 208.821 152.64C207.421 152.1 206.201 151.34 205.161 150.36C204.141 149.38 203.341 148.23 202.761 146.91C202.181 145.57 201.891 144.1 201.891 142.5C201.891 140.9 202.181 139.44 202.761 138.12C203.341 136.78 204.141 135.62 205.161 134.64C206.201 133.66 207.421 132.91 208.821 132.39C210.241 131.85 211.781 131.58 213.441 131.58C215.381 131.58 217.111 131.92 218.631 132.6C220.171 133.28 221.451 134.26 222.471 135.54L218.691 138.96C218.011 138.16 217.261 137.55 216.441 137.13C215.641 136.71 214.741 136.5 213.741 136.5C212.881 136.5 212.091 136.64 211.371 136.92C210.651 137.2 210.031 137.61 209.511 138.15C209.011 138.67 208.611 139.3 208.311 140.04C208.031 140.78 207.891 141.6 207.891 142.5C207.891 143.4 208.031 144.22 208.311 144.96C208.611 145.7 209.011 146.34 209.511 146.88C210.031 147.4 210.651 147.8 211.371 148.08C212.091 148.36 212.881 148.5 213.741 148.5C214.741 148.5 215.641 148.29 216.441 147.87C217.261 147.45 218.011 146.84 218.691 146.04L222.471 149.46C221.451 150.72 220.171 151.7 218.631 152.4C217.111 153.08 215.381 153.42 213.441 153.42ZM230.58 140.13H240.33V144.57H230.58V140.13ZM231 148.41H241.98V153H225.12V132H241.59V136.59H231V148.41ZM227.01 130.29L230.91 125.73H235.83L239.73 130.29H235.95L231.72 126.54H235.02L230.79 130.29H227.01ZM259.466 140.13H269.216V144.57H259.466V140.13ZM259.886 148.41H270.866V153H254.006V132H270.476V136.59H259.886V148.41ZM281.543 153.42C279.823 153.42 278.163 153.21 276.563 152.79C274.983 152.35 273.693 151.79 272.693 151.11L274.643 146.73C275.583 147.33 276.663 147.83 277.883 148.23C279.123 148.61 280.353 148.8 281.573 148.8C282.393 148.8 283.053 148.73 283.553 148.59C284.053 148.43 284.413 148.23 284.633 147.99C284.873 147.73 284.993 147.43 284.993 147.09C284.993 146.61 284.773 146.23 284.333 145.95C283.893 145.67 283.323 145.44 282.623 145.26C281.923 145.08 281.143 144.9 280.283 144.72C279.443 144.54 278.593 144.31 277.733 144.03C276.893 143.75 276.123 143.39 275.423 142.95C274.723 142.49 274.153 141.9 273.713 141.18C273.273 140.44 273.052 139.51 273.052 138.39C273.052 137.13 273.393 135.99 274.073 134.97C274.773 133.95 275.813 133.13 277.193 132.51C278.573 131.89 280.293 131.58 282.353 131.58C283.733 131.58 285.083 131.74 286.403 132.06C287.743 132.36 288.933 132.81 289.973 133.41L288.143 137.82C287.143 137.28 286.153 136.88 285.173 136.62C284.193 136.34 283.243 136.2 282.323 136.2C281.503 136.2 280.843 136.29 280.343 136.47C279.843 136.63 279.483 136.85 279.263 137.13C279.043 137.41 278.933 137.73 278.933 138.09C278.933 138.55 279.143 138.92 279.562 139.2C280.003 139.46 280.573 139.68 281.273 139.86C281.993 140.02 282.773 140.19 283.613 140.37C284.473 140.55 285.323 140.78 286.163 141.06C287.023 141.32 287.803 141.68 288.503 142.14C289.203 142.58 289.763 143.17 290.183 143.91C290.623 144.63 290.843 145.54 290.843 146.64C290.843 147.86 290.493 148.99 289.793 150.03C289.113 151.05 288.083 151.87 286.703 152.49C285.343 153.11 283.623 153.42 281.543 153.42ZM297.763 153V136.71H291.313V132H310.123V136.71H303.703V153H297.763ZM308.762 153L318.032 132H323.882L333.182 153H327.002L319.742 134.91H322.082L314.822 153H308.762ZM313.832 148.92L315.362 144.54H325.622L327.152 148.92H313.832ZM318.032 130.29L322.052 125.73H327.752L322.112 130.29H318.032Z" fill="white"/>
  <path d="M14.0084 210V161H37.1784C42.5917 161 47.3517 162.003 51.4584 164.01C55.5651 166.017 58.7617 168.84 61.0484 172.48C63.3817 176.12 64.5484 180.46 64.5484 185.5C64.5484 190.493 63.3817 194.833 61.0484 198.52C58.7617 202.16 55.5651 204.983 51.4584 206.99C47.3517 208.997 42.5917 210 37.1784 210H14.0084ZM27.8684 198.94H36.6184C39.4184 198.94 41.8451 198.427 43.8984 197.4C45.9984 196.327 47.6317 194.787 48.7984 192.78C49.9651 190.727 50.5484 188.3 50.5484 185.5C50.5484 182.653 49.9651 180.227 48.7984 178.22C47.6317 176.213 45.9984 174.697 43.8984 173.67C41.8451 172.597 39.4184 172.06 36.6184 172.06H27.8684V198.94ZM84.5804 179.97H107.33V190.33H84.5804V179.97ZM85.5604 199.29H111.18V210H71.8404V161H110.27V171.71H85.5604V199.29ZM136.092 210.98C132.078 210.98 128.205 210.49 124.472 209.51C120.785 208.483 117.775 207.177 115.442 205.59L119.992 195.37C122.185 196.77 124.705 197.937 127.552 198.87C130.445 199.757 133.315 200.2 136.162 200.2C138.075 200.2 139.615 200.037 140.782 199.71C141.948 199.337 142.788 198.87 143.302 198.31C143.862 197.703 144.142 197.003 144.142 196.21C144.142 195.09 143.628 194.203 142.602 193.55C141.575 192.897 140.245 192.36 138.612 191.94C136.978 191.52 135.158 191.1 133.152 190.68C131.192 190.26 129.208 189.723 127.202 189.07C125.242 188.417 123.445 187.577 121.812 186.55C120.178 185.477 118.848 184.1 117.822 182.42C116.795 180.693 116.282 178.523 116.282 175.91C116.282 172.97 117.075 170.31 118.662 167.93C120.295 165.55 122.722 163.637 125.942 162.19C129.162 160.743 133.175 160.02 137.982 160.02C141.202 160.02 144.352 160.393 147.432 161.14C150.558 161.84 153.335 162.89 155.762 164.29L151.492 174.58C149.158 173.32 146.848 172.387 144.562 171.78C142.275 171.127 140.058 170.8 137.912 170.8C135.998 170.8 134.458 171.01 133.292 171.43C132.125 171.803 131.285 172.317 130.772 172.97C130.258 173.623 130.002 174.37 130.002 175.21C130.002 176.283 130.492 177.147 131.472 177.8C132.498 178.407 133.828 178.92 135.462 179.34C137.142 179.713 138.962 180.11 140.922 180.53C142.928 180.95 144.912 181.487 146.872 182.14C148.878 182.747 150.698 183.587 152.332 184.66C153.965 185.687 155.272 187.063 156.252 188.79C157.278 190.47 157.792 192.593 157.792 195.16C157.792 198.007 156.975 200.643 155.342 203.07C153.755 205.45 151.352 207.363 148.132 208.81C144.958 210.257 140.945 210.98 136.092 210.98ZM164.194 210V161H175.604L195.904 194.32H189.884L209.624 161H221.034L221.174 210H208.434L208.294 180.39H210.464L195.694 205.17H189.534L174.344 180.39H177.004V210H164.194ZM225.101 210L246.731 161H260.381L282.081 210H267.661L250.721 167.79H256.181L239.241 210H225.101ZM236.931 200.48L240.501 190.26H264.441L268.011 200.48H236.931ZM286.01 210V161H299.87V210H286.01ZM303.851 210L325.481 161H339.131L360.831 210H346.411L329.471 167.79H334.931L317.991 210H303.851ZM315.681 200.48L319.251 190.26H343.191L346.761 200.48H315.681ZM364.76 210V161H387.93C393.344 161 398.104 162.003 402.21 164.01C406.317 166.017 409.514 168.84 411.8 172.48C414.134 176.12 415.3 180.46 415.3 185.5C415.3 190.493 414.134 194.833 411.8 198.52C409.514 202.16 406.317 204.983 402.21 206.99C398.104 208.997 393.344 210 387.93 210H364.76ZM378.62 198.94H387.37C390.17 198.94 392.597 198.427 394.65 197.4C396.75 196.327 398.384 194.787 399.55 192.78C400.717 190.727 401.3 188.3 401.3 185.5C401.3 182.653 400.717 180.227 399.55 178.22C398.384 176.213 396.75 174.697 394.65 173.67C392.597 172.597 390.17 172.06 387.37 172.06H378.62V198.94ZM447.302 210.98C443.382 210.98 439.766 210.35 436.452 209.09C433.139 207.83 430.246 206.057 427.772 203.77C425.346 201.437 423.456 198.73 422.102 195.65C420.749 192.57 420.072 189.187 420.072 185.5C420.072 181.813 420.749 178.43 422.102 175.35C423.456 172.27 425.346 169.587 427.772 167.3C430.246 164.967 433.139 163.17 436.452 161.91C439.766 160.65 443.382 160.02 447.302 160.02C451.269 160.02 454.886 160.65 458.152 161.91C461.466 163.17 464.336 164.967 466.762 167.3C469.189 169.587 471.079 172.27 472.432 175.35C473.832 178.43 474.532 181.813 474.532 185.5C474.532 189.187 473.832 192.593 472.432 195.72C471.079 198.8 469.189 201.483 466.762 203.77C464.336 206.057 461.466 207.83 458.152 209.09C454.886 210.35 451.269 210.98 447.302 210.98ZM447.302 199.5C449.169 199.5 450.896 199.173 452.482 198.52C454.116 197.867 455.516 196.933 456.682 195.72C457.896 194.46 458.829 192.967 459.482 191.24C460.182 189.513 460.532 187.6 460.532 185.5C460.532 183.353 460.182 181.44 459.482 179.76C458.829 178.033 457.896 176.563 456.682 175.35C455.516 174.09 454.116 173.133 452.482 172.48C450.896 171.827 449.169 171.5 447.302 171.5C445.436 171.5 443.686 171.827 442.052 172.48C440.466 173.133 439.066 174.09 437.852 175.35C436.686 176.563 435.752 178.033 435.052 179.76C434.399 181.44 434.072 183.353 434.072 185.5C434.072 187.6 434.399 189.513 435.052 191.24C435.752 192.967 436.686 194.46 437.852 195.72C439.066 196.933 440.466 197.867 442.052 198.52C443.686 199.173 445.436 199.5 447.302 199.5Z" fill="#1E90F3"/>
</svg>
