<svg width="118" height="111" viewBox="0 0 118 111" fill="none"
  xmlns="http://www.w3.org/2000/svg">
  <path d="M46.1848 0.328407C44.0638 1.16895 43.2508 3.90072 44.0992 7.15782C44.8062 9.81955 47.316 14.8978 48.2704 15.5633C49.0481 16.0886 50.2854 15.7384 50.2854 14.9329C50.2854 14.6877 49.5077 12.9366 48.5179 11.0103C45.0183 4.11085 45.902 1.37909 51.1691 2.81502C53.5375 3.44542 57.2846 5.19656 60.9963 7.36796C64.5313 9.46932 65.5211 9.67946 65.9806 8.48869C66.122 8.17348 65.9453 7.64814 65.6271 7.29792C64.3545 5.93203 56.9665 2.00949 53.184 0.713656C50.9217 -0.0568421 47.5634 -0.231955 46.1848 0.328407Z" fill="#2981FF"/>
  <path d="M73.4394 7.15784C71.0356 7.68318 68.3137 8.69884 68.3137 9.04907C68.3137 9.18916 69.6923 10.3449 71.4245 11.6057C73.1213 12.9016 75.7371 14.9329 77.2218 16.1937L79.9437 18.4351L86.7309 18.6803C90.9021 18.8554 93.6241 18.8204 93.8362 18.6102C94.4018 18.0499 92.0687 13.9873 89.9124 11.8509C85.5997 7.61314 79.4489 5.82698 73.4394 7.15784Z" fill="#2981FF"/>
  <path d="M64.8141 11.6758C63.7536 12.7615 63.4354 12.8665 61.3145 13.0066C58.2037 13.1817 55.4464 14.4776 52.7952 16.9642C50.7803 18.8554 49.2249 21.0969 49.6491 21.5171C49.7551 21.6222 51.4872 21.4121 53.5022 21.0268C58.5925 20.0462 64.3545 19.3457 70.9649 18.8904C74.0403 18.6803 76.6209 18.4702 76.6916 18.4001C76.939 18.155 66.829 10.485 66.2634 10.485C66.122 10.485 65.4504 11.0103 64.8141 11.6758Z" fill="#2981FF"/>
  <path d="M98.5023 20.0462C97.9367 21.5171 98.4316 21.8323 102.32 22.6028C109.885 24.0738 114.975 26.3152 115.258 28.3115C115.506 29.9226 112.89 31.7437 106.774 34.2304C105.678 34.6856 105.466 35.7013 106.315 36.4018C107.022 36.9621 108.86 36.4718 112.253 34.7907C121.727 30.0627 119.253 24.0037 106.562 20.8167C101.684 19.5909 98.7851 19.3107 98.5023 20.0462Z" fill="#2981FF"/>
  <path d="M69.7277 20.8867C61.2791 21.5171 49.8258 23.4083 48.8714 24.354C48.4825 24.7392 48.3411 25.6148 48.3411 27.576C48.3765 30.4479 48.8714 31.8488 49.8612 31.8488C50.2147 31.8488 51.5226 32.2341 52.7598 32.7244C54.4566 33.3898 55.6585 33.5999 57.7088 33.5999C61.1731 33.5999 63.294 32.8645 65.3797 30.9732L67.0411 29.5023L65.6978 26.8756C64.2838 24.1088 64.1424 22.918 65.2736 22.918C65.7685 22.918 66.3341 23.6535 67.2179 25.4046C70.2579 31.3585 74.5352 35.1409 80.7568 37.3474C83.1252 38.1879 83.7969 38.293 88.8165 38.328C93.6948 38.328 94.2957 38.398 94.4018 38.9584C94.6139 39.9741 92.8464 40.3943 88.0388 40.3943C85.529 40.4294 83.5141 40.4644 83.5141 40.5344C83.5141 41.0598 84.822 42.8459 86.236 44.1768C87.4732 45.3675 88.8519 46.2431 91.2556 47.2588L94.6139 48.6597L95.9571 47.7841C96.6641 47.2938 97.9367 46.103 98.7144 45.1224L100.128 43.3362L98.6437 41.2699C95.7804 37.2073 91.4324 32.3041 85.5997 26.4903L79.6609 20.6416L75.4897 20.7116C73.192 20.7466 70.6114 20.8167 69.7277 20.8867Z" fill="#2981FF"/>
  <path d="M85.7411 23.7586C89.7003 27.541 95.4622 33.8451 98.467 37.7326C99.5982 39.2036 100.694 40.4644 100.835 40.5344C101.012 40.6045 101.26 40.2542 101.366 39.7639C101.472 39.2736 101.613 38.4681 101.719 37.9778C101.896 37.2423 101.79 37.1022 101.048 37.1022C100.199 37.1022 99.5275 36.1566 100.022 35.6663C100.164 35.5262 101.33 34.6156 102.568 33.635C105.608 31.2534 107.41 29.117 106.986 28.4516C106.809 28.2065 105.466 27.471 104.017 26.8406C100.977 25.5097 98.3963 23.8637 97.3358 22.5328C96.3813 21.307 95.0027 21.0618 88.1095 20.7817L82.3122 20.5365L85.7411 23.7586Z" fill="#2981FF"/>
  <path d="M41.8014 23.5484C36.1101 25.7198 33.3175 28.1714 33.3175 31.0083C33.3175 32.3041 33.5296 32.7944 34.6255 33.9852C36.8171 36.4017 39.7512 37.4874 40.2107 36.0515C40.5289 35.1059 40.2814 34.8257 38.0897 33.4598C37.0646 32.7944 36.1101 31.9188 35.9687 31.4986C35.4385 29.8875 38.0897 27.7161 42.6498 26.0701C46.5029 24.6341 46.7504 24.5291 46.9625 23.9687C47.2453 23.2332 46.4676 22.3927 45.5485 22.3927C45.1597 22.4277 43.4629 22.918 41.8014 23.5484Z" fill="#2981FF"/>
  <path d="M67.2179 32.0589C65.1676 34.2304 61.2438 35.6663 57.3553 35.7013C56.2948 35.7013 55.199 35.8414 54.9515 36.0165C54.4213 36.3317 50.144 47.1187 49.3663 50.0256C47.1746 58.466 52.2649 67.8521 60.6075 70.6889C68.6318 73.4207 77.7167 69.8834 81.6405 62.4936C82.9838 59.972 87.049 49.4302 87.049 48.4846C87.049 48.1343 86.0239 46.7685 84.7513 45.4726C83.408 44.1067 82.1001 42.3556 81.6405 41.3049C80.8982 39.6589 80.6507 39.4137 78.8126 38.6782C75.6311 37.4174 73.0506 35.7363 70.5761 33.3198C69.3035 32.129 68.243 31.1484 68.1723 31.1484C68.1369 31.1484 67.7128 31.5686 67.2179 32.0589ZM59.5116 57.1001C60.0772 57.6955 60.5368 58.396 60.5368 58.6762C60.5368 58.9213 60.9256 59.4116 61.3852 59.6918C62.1629 60.2172 62.3396 60.2172 63.3294 59.7268C64.6727 59.0264 66.5109 59.0264 67.536 59.7268C67.9602 60.007 68.6318 60.8826 69.0207 61.6531C69.763 63.054 70.3993 63.3692 72.3789 63.2641C74.005 63.1591 73.8282 64.4199 72.1315 65.0503C70.9649 65.5056 70.6821 65.4706 69.4802 64.9102C68.6318 64.4899 67.8895 63.7544 67.3946 62.8439C66.6169 61.3029 66.5109 61.3029 62.6224 61.8282C61.2084 62.0033 60.8903 61.8982 59.9005 61.0927C59.2642 60.5674 58.7693 59.937 58.7693 59.6568C58.7693 59.3766 58.4511 58.8513 58.0269 58.431C57.426 57.8356 57.0371 57.7656 55.906 57.9407C54.7748 58.1508 54.492 58.0458 54.2799 57.5554C53.9617 56.6799 55.0929 56.0144 56.9311 56.0144C58.2037 56.0144 58.6632 56.1896 59.5116 57.1001Z" fill="#2981FF"/>
  <path d="M46.7504 34.1953C44.0992 35.5612 43.0033 39.834 44.7708 41.9003C45.7606 43.0561 48.2351 44.2819 48.9774 44.0017C49.2602 43.8966 50.1086 42.1105 50.9217 40.0091C51.6993 37.9428 52.4417 35.9465 52.5831 35.6313C52.7598 35.211 52.5124 34.8958 51.77 34.5105C50.0026 33.5999 48.129 33.4949 46.7504 34.1953Z" fill="#2981FF"/>
  <path d="M101.542 43.9316C101.154 44.3869 101.436 45.1224 103.062 48.2744C105.289 52.4771 106.102 55.2439 105.466 56.5748C105.148 57.3103 104.83 57.4153 103.31 57.4153C102.355 57.4153 100.835 57.2402 99.9517 56.9951C98.573 56.6098 98.2902 56.6448 97.7953 57.1352C96.5227 58.3609 98.3609 59.6568 102.002 60.0771C104.441 60.3572 106.173 59.7969 107.41 58.3609C108.259 57.3453 108.33 57.0651 108.188 54.7886C108.047 52.8624 107.729 51.7066 106.597 49.3601C103.982 43.7915 102.744 42.4957 101.542 43.9316Z" fill="#2981FF"/>
  <path d="M88.463 51.0062C85.6704 58.361 85.8118 57.8006 86.5541 58.3609C86.9076 58.6061 87.8267 58.9914 88.5691 59.2015C91.0082 59.8669 93.1292 58.6411 94.2957 55.9444C95.4269 53.2476 94.5078 50.8661 91.8919 49.7104C89.5942 48.6597 89.3114 48.7647 88.463 51.0062Z" fill="#2981FF"/>
  <path d="M52.4417 70.8991C51.4166 72.6502 49.7905 73.5258 47.5634 73.5258C46.5737 73.5258 45.6546 73.6658 45.5132 73.876C45.2304 74.2963 49.6137 82.9118 50.7449 84.1026C52.2296 85.6786 54.4566 86.6242 56.8251 86.6242C58.5925 86.6593 59.7237 86.3441 63.6475 84.768C68.7379 82.7367 69.1267 82.3164 67.2532 80.9506C65.6271 79.7598 65.0262 78.2538 65.2383 76.1174C65.3797 74.8916 65.2736 74.1562 65.0262 73.946C64.7787 73.7709 63.5062 73.3857 62.1275 73.0354C60.7842 72.7202 58.3804 71.8447 56.8251 71.0742C55.2343 70.3037 53.785 69.6733 53.5729 69.6733C53.3608 69.6733 52.8659 70.2336 52.4417 70.8991Z" fill="#2981FF"/>
  <path d="M23.1015 71.2843C20.8391 72.0898 19.1423 73.2456 17.5516 75.0317C16.7739 75.9073 12.5673 83.2971 8.07785 91.5975C-0.900968 108.093 -0.936318 108.198 1.07861 109.984L2.2098 111H43.1447C83.0545 111 84.0797 110.965 85.1755 110.3C86.6602 109.424 87.4025 108.233 87.9681 105.817C89.1347 100.984 88.2863 96.7108 85.529 93.6288C83.9736 91.8776 73.3334 84.663 71.7073 84.2427C71.071 84.1026 69.2681 84.663 65.415 86.204C60.1479 88.3403 59.9005 88.4104 56.8251 88.4104C53.9971 88.4104 53.4668 88.3053 52.0175 87.4648C49.437 85.9588 47.9169 83.9625 45.2304 78.534C43.1447 74.2963 42.5438 73.3857 41.66 72.9654C40.2461 72.37 29.1463 70.7239 26.6011 70.7239C25.5406 70.759 23.9499 71.0041 23.1015 71.2843Z" fill="#2981FF"/>
</svg>

