<svg width="258" height="87" viewBox="0 0 258 87" fill="none" xmlns="http://www.w3.org/2000/svg">
<mask id="path-1-inside-1_520_1059" fill="white">
<path d="M1.615 18V4.187H3.401V17.2115L2.4985 16.2995H9.4525V18H1.615ZM16.3168 18.285C15.2022 18.285 14.1857 18.0063 13.2673 17.449C12.3553 16.8917 11.627 16.0715 11.0823 14.9885C10.544 13.9055 10.2748 12.5787 10.2748 11.008C10.2748 9.488 10.5377 8.19917 11.0633 7.1415C11.5953 6.08383 12.3173 5.28267 13.2293 4.738C14.1413 4.187 15.1737 3.9115 16.3263 3.9115C17.4663 3.9115 18.4923 4.187 19.4043 4.738C20.3227 5.28267 21.0478 6.08383 21.5798 7.1415C22.1182 8.19917 22.3873 9.488 22.3873 11.008C22.3873 12.5787 22.1182 13.9055 21.5798 14.9885C21.0478 16.0715 20.3227 16.8917 19.4043 17.449C18.4923 18.0063 17.4632 18.285 16.3168 18.285ZM16.3168 16.6415C17.0895 16.6415 17.7957 16.442 18.4353 16.043C19.0813 15.644 19.5975 15.0297 19.9838 14.2C20.3702 13.3703 20.5633 12.3127 20.5633 11.027C20.5633 9.80467 20.3702 8.78817 19.9838 7.9775C19.5975 7.16683 19.0813 6.562 18.4353 6.163C17.7957 5.75767 17.0927 5.555 16.3263 5.555C15.5917 5.555 14.9013 5.75767 14.2553 6.163C13.6157 6.562 13.0963 7.16683 12.6973 7.9775C12.3047 8.78817 12.1083 9.80467 12.1083 11.027C12.1083 11.996 12.2223 12.8352 12.4503 13.5445C12.6847 14.2475 12.9982 14.8302 13.3908 15.2925C13.7898 15.7485 14.2395 16.0873 14.7398 16.309C15.2465 16.5307 15.7722 16.6415 16.3168 16.6415ZM27.4986 18.285C26.745 18.285 26.061 18.152 25.4466 17.886C24.8323 17.6137 24.3415 17.183 23.9741 16.594C23.6068 15.9987 23.4105 15.2165 23.3851 14.2475H25.0951C25.1015 15.0012 25.3073 15.5902 25.7126 16.0145C26.1243 16.4325 26.7228 16.6415 27.5081 16.6415C27.9895 16.6415 28.3916 16.5592 28.7146 16.3945C29.044 16.2298 29.291 15.9417 29.4556 15.53C29.6266 15.1183 29.7121 14.5452 29.7121 13.8105V4.187H31.5361V13.6205C31.5361 14.7225 31.3778 15.6155 31.0611 16.2995C30.7445 16.9835 30.2853 17.487 29.6836 17.81C29.082 18.1267 28.3536 18.285 27.4986 18.285ZM32.9974 18L37.6144 4.187H40.0274L44.6349 18H42.7444L41.4239 13.8485L42.4499 14.5705H35.4009L36.1039 13.022H41.9559L41.3954 13.7535L39.6474 8.291L38.8304 5.5075H38.7829L37.9944 8.291L34.8879 18H32.9974ZM51.5265 18V16.271H53.873C54.7913 16.271 55.5957 16.0747 56.286 15.682C56.9827 15.283 57.5242 14.694 57.9105 13.915C58.3032 13.136 58.4995 12.1733 58.4995 11.027C58.4995 9.81733 58.3032 8.8325 57.9105 8.0725C57.5242 7.3125 56.9827 6.752 56.286 6.391C55.5893 6.03 54.7818 5.8495 53.8635 5.8495H51.4505V4.187H53.9205C55.1745 4.187 56.2828 4.42767 57.2455 4.909C58.2145 5.384 58.9745 6.125 59.5255 7.132C60.0765 8.139 60.352 9.431 60.352 11.008C60.352 12.5407 60.067 13.8263 59.497 14.865C58.9333 15.9037 58.167 16.6858 57.198 17.2115C56.229 17.7372 55.1397 18 53.93 18H51.5265ZM49.9685 18V4.187H51.764V18H49.9685ZM62.9382 18V4.187H71.2982V5.8495H63.9357L64.7052 5.004V10.5045L63.9357 9.9915H70.8042V11.635H64.2112L64.7052 11.0745V17.2115L63.9357 16.3185H71.4312V18H62.9382Z"/>
</mask>
<path d="M1.615 18V4.187H3.401V17.2115L2.4985 16.2995H9.4525V18H1.615ZM16.3168 18.285C15.2022 18.285 14.1857 18.0063 13.2673 17.449C12.3553 16.8917 11.627 16.0715 11.0823 14.9885C10.544 13.9055 10.2748 12.5787 10.2748 11.008C10.2748 9.488 10.5377 8.19917 11.0633 7.1415C11.5953 6.08383 12.3173 5.28267 13.2293 4.738C14.1413 4.187 15.1737 3.9115 16.3263 3.9115C17.4663 3.9115 18.4923 4.187 19.4043 4.738C20.3227 5.28267 21.0478 6.08383 21.5798 7.1415C22.1182 8.19917 22.3873 9.488 22.3873 11.008C22.3873 12.5787 22.1182 13.9055 21.5798 14.9885C21.0478 16.0715 20.3227 16.8917 19.4043 17.449C18.4923 18.0063 17.4632 18.285 16.3168 18.285ZM16.3168 16.6415C17.0895 16.6415 17.7957 16.442 18.4353 16.043C19.0813 15.644 19.5975 15.0297 19.9838 14.2C20.3702 13.3703 20.5633 12.3127 20.5633 11.027C20.5633 9.80467 20.3702 8.78817 19.9838 7.9775C19.5975 7.16683 19.0813 6.562 18.4353 6.163C17.7957 5.75767 17.0927 5.555 16.3263 5.555C15.5917 5.555 14.9013 5.75767 14.2553 6.163C13.6157 6.562 13.0963 7.16683 12.6973 7.9775C12.3047 8.78817 12.1083 9.80467 12.1083 11.027C12.1083 11.996 12.2223 12.8352 12.4503 13.5445C12.6847 14.2475 12.9982 14.8302 13.3908 15.2925C13.7898 15.7485 14.2395 16.0873 14.7398 16.309C15.2465 16.5307 15.7722 16.6415 16.3168 16.6415ZM27.4986 18.285C26.745 18.285 26.061 18.152 25.4466 17.886C24.8323 17.6137 24.3415 17.183 23.9741 16.594C23.6068 15.9987 23.4105 15.2165 23.3851 14.2475H25.0951C25.1015 15.0012 25.3073 15.5902 25.7126 16.0145C26.1243 16.4325 26.7228 16.6415 27.5081 16.6415C27.9895 16.6415 28.3916 16.5592 28.7146 16.3945C29.044 16.2298 29.291 15.9417 29.4556 15.53C29.6266 15.1183 29.7121 14.5452 29.7121 13.8105V4.187H31.5361V13.6205C31.5361 14.7225 31.3778 15.6155 31.0611 16.2995C30.7445 16.9835 30.2853 17.487 29.6836 17.81C29.082 18.1267 28.3536 18.285 27.4986 18.285ZM32.9974 18L37.6144 4.187H40.0274L44.6349 18H42.7444L41.4239 13.8485L42.4499 14.5705H35.4009L36.1039 13.022H41.9559L41.3954 13.7535L39.6474 8.291L38.8304 5.5075H38.7829L37.9944 8.291L34.8879 18H32.9974ZM51.5265 18V16.271H53.873C54.7913 16.271 55.5957 16.0747 56.286 15.682C56.9827 15.283 57.5242 14.694 57.9105 13.915C58.3032 13.136 58.4995 12.1733 58.4995 11.027C58.4995 9.81733 58.3032 8.8325 57.9105 8.0725C57.5242 7.3125 56.9827 6.752 56.286 6.391C55.5893 6.03 54.7818 5.8495 53.8635 5.8495H51.4505V4.187H53.9205C55.1745 4.187 56.2828 4.42767 57.2455 4.909C58.2145 5.384 58.9745 6.125 59.5255 7.132C60.0765 8.139 60.352 9.431 60.352 11.008C60.352 12.5407 60.067 13.8263 59.497 14.865C58.9333 15.9037 58.167 16.6858 57.198 17.2115C56.229 17.7372 55.1397 18 53.93 18H51.5265ZM49.9685 18V4.187H51.764V18H49.9685ZM62.9382 18V4.187H71.2982V5.8495H63.9357L64.7052 5.004V10.5045L63.9357 9.9915H70.8042V11.635H64.2112L64.7052 11.0745V17.2115L63.9357 16.3185H71.4312V18H62.9382Z" fill="url(#paint0_linear_520_1059)" fill-opacity="0.65"/>
<path d="M1.615 18H1.015V18.6H1.615V18ZM1.615 4.187V3.587H1.015V4.187H1.615ZM3.401 4.187H4.001V3.587H3.401V4.187ZM3.401 17.2115L2.97452 17.6335L4.001 18.6708V17.2115H3.401ZM2.4985 16.2995V15.6995H1.06063L2.07202 16.7215L2.4985 16.2995ZM9.4525 16.2995H10.0525V15.6995H9.4525V16.2995ZM9.4525 18V18.6H10.0525V18H9.4525ZM2.215 18V4.187H1.015V18H2.215ZM1.615 4.787H3.401V3.587H1.615V4.787ZM2.801 4.187V17.2115H4.001V4.187H2.801ZM3.82748 16.7895L2.92498 15.8775L2.07202 16.7215L2.97452 17.6335L3.82748 16.7895ZM2.4985 16.8995H9.4525V15.6995H2.4985V16.8995ZM8.8525 16.2995V18H10.0525V16.2995H8.8525ZM9.4525 17.4H1.615V18.6H9.4525V17.4ZM13.2673 17.449L12.9545 17.961L12.956 17.9619L13.2673 17.449ZM11.0823 14.9885L10.5451 15.2556L10.5463 15.2581L11.0823 14.9885ZM11.0633 7.1415L10.5273 6.87189L10.526 6.87446L11.0633 7.1415ZM13.2293 4.738L13.537 5.25313L13.5396 5.25155L13.2293 4.738ZM19.4043 4.738L19.0941 5.25157L19.0983 5.25406L19.4043 4.738ZM21.5798 7.1415L21.0438 7.41111L21.0451 7.41366L21.5798 7.1415ZM21.5798 14.9885L21.0426 14.7214L21.0413 14.724L21.5798 14.9885ZM19.4043 17.449L19.093 16.9361L19.0915 16.937L19.4043 17.449ZM18.4353 16.043L18.12 15.5325L18.1178 15.5339L18.4353 16.043ZM19.9838 14.2L20.5278 14.4533L19.9838 14.2ZM18.4353 6.163L18.1142 6.66985L18.12 6.67348L18.4353 6.163ZM14.2553 6.163L14.5729 6.67208L14.5742 6.67124L14.2553 6.163ZM12.6973 7.9775L12.159 7.71254L12.1574 7.71594L12.6973 7.9775ZM12.4503 13.5445L11.8791 13.7281L11.8811 13.7342L12.4503 13.5445ZM13.3908 15.2925L12.9335 15.6809L12.9393 15.6876L13.3908 15.2925ZM14.7398 16.309L14.4968 16.8576L14.4994 16.8587L14.7398 16.309ZM16.3168 17.685C15.3076 17.685 14.3995 17.4342 13.5786 16.9361L12.956 17.9619C13.9719 18.5784 15.0967 18.885 16.3168 18.885V17.685ZM13.5802 16.937C12.7761 16.4456 12.1196 15.7156 11.6184 14.7189L10.5463 15.2581C11.1344 16.4274 11.9346 17.3377 12.9545 17.961L13.5802 16.937ZM11.6196 14.7214C11.133 13.7424 10.8748 12.5127 10.8748 11.008H9.67484C9.67484 12.6446 9.95505 14.0686 10.5451 15.2556L11.6196 14.7214ZM10.8748 11.008C10.8748 9.55494 11.1263 8.36292 11.6006 7.40854L10.526 6.87446C9.94904 8.03541 9.67484 9.42105 9.67484 11.008H10.8748ZM11.5994 7.41111C12.0862 6.44327 12.7339 5.73277 13.537 5.25313L12.9217 4.22287C11.9008 4.83256 11.1045 5.72439 10.5273 6.87189L11.5994 7.41111ZM13.5396 5.25155C14.3504 4.76171 15.2738 4.5115 16.3263 4.5115V3.3115C15.0736 3.3115 13.9323 3.61229 12.9191 4.22445L13.5396 5.25155ZM16.3263 4.5115C17.3649 4.5115 18.2823 4.76108 19.0941 5.25155L19.7146 4.22445C18.7024 3.61292 17.5678 3.3115 16.3263 3.3115V4.5115ZM19.0983 5.25406C19.9074 5.73398 20.5576 6.44434 21.0438 7.41111L22.1159 6.87189C21.5381 5.72333 20.7379 4.83136 19.7104 4.22194L19.0983 5.25406ZM21.0451 7.41366C21.5302 8.36672 21.7873 9.55682 21.7873 11.008H22.9873C22.9873 9.41918 22.7061 8.03162 22.1146 6.86934L21.0451 7.41366ZM21.7873 11.008C21.7873 12.5127 21.5292 13.7424 21.0426 14.7214L22.1171 15.2556C22.7071 14.0686 22.9873 12.6446 22.9873 11.008H21.7873ZM21.0413 14.724C20.5534 15.7172 19.9018 16.4453 19.0931 16.9361L19.7156 17.9619C20.7436 17.3381 21.5423 16.4258 22.1184 15.253L21.0413 14.724ZM19.0915 16.937C18.2805 17.4326 17.3611 17.685 16.3168 17.685V18.885C17.5653 18.885 18.7041 18.5801 19.7172 17.961L19.0915 16.937ZM16.3168 17.2415C17.1988 17.2415 18.0155 17.012 18.7529 16.5521L18.1178 15.5339C17.5759 15.872 16.9802 16.0415 16.3168 16.0415V17.2415ZM18.7506 16.5535C19.5152 16.0812 20.1023 15.3671 20.5278 14.4533L19.4399 13.9467C19.0928 14.6922 18.6475 15.2067 18.12 15.5325L18.7506 16.5535ZM20.5278 14.4533C20.9628 13.5189 21.1633 12.3671 21.1633 11.027H19.9633C19.9633 12.2582 19.7775 13.2217 19.4399 13.9467L20.5278 14.4533ZM21.1633 11.027C21.1633 9.74587 20.9615 8.6343 20.5255 7.71938L19.4422 8.23562C19.7789 8.94203 19.9633 9.86346 19.9633 11.027H21.1633ZM20.5255 7.71938C20.0987 6.82391 19.5115 6.12248 18.7506 5.65252L18.12 6.67348C18.6512 7.00152 19.0963 7.50975 19.4422 8.23562L20.5255 7.71938ZM18.7565 5.65618C18.0196 5.18922 17.205 4.955 16.3263 4.955V6.155C16.9804 6.155 17.5718 6.32612 18.1142 6.66982L18.7565 5.65618ZM16.3263 4.955C15.4744 4.955 14.6742 5.19187 13.9364 5.65476L14.5742 6.67124C15.1285 6.32346 15.7089 6.155 16.3263 6.155V4.955ZM13.9378 5.65392C13.1859 6.12294 12.5975 6.82159 12.159 7.71254L13.2357 8.24246C13.5952 7.51207 14.0455 7.00106 14.5729 6.67208L13.9378 5.65392ZM12.1574 7.71594C11.7137 8.63186 11.5083 9.74473 11.5083 11.027H12.7083C12.7083 9.8646 12.8956 8.94447 13.2373 8.23906L12.1574 7.71594ZM11.5083 11.027C11.5083 12.0407 11.6273 12.9447 11.8791 13.7281L13.0216 13.3609C12.8174 12.7256 12.7083 11.9513 12.7083 11.027H11.5083ZM11.8811 13.7342C12.1345 14.4943 12.4815 15.1487 12.9335 15.6809L13.8482 14.9041C13.5148 14.5116 13.2349 14.0007 13.0196 13.3548L11.8811 13.7342ZM12.9393 15.6876C13.3896 16.2022 13.9084 16.5969 14.4968 16.8576L14.9829 15.7604C14.5706 15.5778 14.1901 15.2948 13.8424 14.8974L12.9393 15.6876ZM14.4994 16.8587C15.0807 17.113 15.6881 17.2415 16.3168 17.2415V16.0415C15.8563 16.0415 15.4124 15.9483 14.9803 15.7593L14.4994 16.8587ZM25.4466 17.886L25.2035 18.4345L25.2082 18.4366L25.4466 17.886ZM23.9741 16.594L23.4635 16.9091L23.465 16.9115L23.9741 16.594ZM23.3851 14.2475V13.6475H22.7692L22.7853 14.2632L23.3851 14.2475ZM25.0951 14.2475L25.6951 14.2425L25.6901 13.6475H25.0951V14.2475ZM25.7126 16.0145L25.2787 16.429L25.2852 16.4355L25.7126 16.0145ZM28.7146 16.3945L28.4463 15.8578L28.4421 15.86L28.7146 16.3945ZM29.4556 15.53L28.9015 15.2998L28.8986 15.3072L29.4556 15.53ZM29.7121 4.187V3.587H29.1121V4.187H29.7121ZM31.5361 4.187H32.1361V3.587H31.5361V4.187ZM31.0611 16.2995L30.5167 16.0474L31.0611 16.2995ZM29.6836 17.81L29.9631 18.341L29.9674 18.3386L29.6836 17.81ZM27.4986 17.685C26.8167 17.685 26.2152 17.5649 25.685 17.3354L25.2082 18.4366C25.9067 18.739 26.6733 18.885 27.4986 18.885V17.685ZM25.6898 17.3375C25.189 17.1155 24.7893 16.7672 24.4832 16.2765L23.465 16.9115C23.8937 17.5988 24.4756 18.1119 25.2035 18.4345L25.6898 17.3375ZM24.4848 16.2789C24.1905 15.802 24.0085 15.1339 23.9849 14.2318L22.7853 14.2632C22.8124 15.2991 23.0231 16.1953 23.4635 16.9091L24.4848 16.2789ZM23.3851 14.8475H25.0951V13.6475H23.3851V14.8475ZM24.4952 14.2525C24.5024 15.1138 24.7406 15.8655 25.2788 16.4289L26.1465 15.6001C25.874 15.3148 25.7005 14.8885 25.6951 14.2425L24.4952 14.2525ZM25.2852 16.4355C25.8438 17.0027 26.6184 17.2415 27.5081 17.2415V16.0415C26.8272 16.0415 26.4049 15.8623 26.1401 15.5935L25.2852 16.4355ZM27.5081 17.2415C28.0544 17.2415 28.5567 17.1485 28.9872 16.929L28.4421 15.86C28.2265 15.9699 27.9245 16.0415 27.5081 16.0415V17.2415ZM28.983 16.9312C29.4694 16.6879 29.8052 16.2717 30.0127 15.7528L28.8986 15.3072C28.7768 15.6117 28.6185 15.7717 28.4463 15.8578L28.983 16.9312ZM30.0097 15.7602C30.2244 15.2433 30.3121 14.5795 30.3121 13.8105H29.1121C29.1121 14.5108 29.0289 14.9934 28.9015 15.2998L30.0097 15.7602ZM30.3121 13.8105V4.187H29.1121V13.8105H30.3121ZM29.7121 4.787H31.5361V3.587H29.7121V4.787ZM30.9361 4.187V13.6205H32.1361V4.187H30.9361ZM30.9361 13.6205C30.9361 14.6724 30.7839 15.4702 30.5167 16.0474L31.6056 16.5516C31.9717 15.7608 32.1361 14.7726 32.1361 13.6205H30.9361ZM30.5167 16.0474C30.2486 16.6263 29.875 17.0263 29.3998 17.2814L29.9674 18.3386C30.6956 17.9477 31.2403 17.3407 31.6056 16.5516L30.5167 16.0474ZM29.4042 17.279C28.9081 17.5402 28.2808 17.685 27.4986 17.685V18.885C28.4265 18.885 29.2559 18.7132 29.9631 18.341L29.4042 17.279ZM32.9974 18L32.4283 17.8098L32.1642 18.6H32.9974V18ZM37.6144 4.187V3.587H37.1823L37.0453 3.99679L37.6144 4.187ZM40.0274 4.187L40.5965 3.99714L40.4597 3.587H40.0274V4.187ZM44.6349 18V18.6H45.4675L45.204 17.8101L44.6349 18ZM42.7444 18L42.1726 18.1819L42.3056 18.6H42.7444V18ZM41.4239 13.8485L41.7692 13.3578L40.312 12.3324L40.8521 14.0304L41.4239 13.8485ZM42.4499 14.5705V15.1705H44.3451L42.7952 14.0798L42.4499 14.5705ZM35.4009 14.5705L34.8545 14.3225L34.4695 15.1705H35.4009V14.5705ZM36.1039 13.022V12.422H35.7173L35.5575 12.774L36.1039 13.022ZM41.9559 13.022L42.4321 13.3869L43.1715 12.422H41.9559V13.022ZM41.3954 13.7535L40.8239 13.9364L41.1737 15.0293L41.8716 14.1184L41.3954 13.7535ZM39.6474 8.291L39.0716 8.45998L39.0737 8.46695L39.0759 8.47386L39.6474 8.291ZM38.8304 5.5075L39.4061 5.33852L39.2796 4.9075H38.8304V5.5075ZM38.7829 5.5075V4.9075H38.3292L38.2056 5.34397L38.7829 5.5075ZM37.9944 8.291L38.5658 8.47384L38.5689 8.46424L38.5716 8.45453L37.9944 8.291ZM34.8879 18V18.6H35.3258L35.4593 18.1828L34.8879 18ZM33.5664 18.1902L38.1834 4.37721L37.0453 3.99679L32.4283 17.8098L33.5664 18.1902ZM37.6144 4.787H40.0274V3.587H37.6144V4.787ZM39.4582 4.37685L44.0657 18.1899L45.204 17.8101L40.5965 3.99714L39.4582 4.37685ZM44.6349 17.4H42.7444V18.6H44.6349V17.4ZM43.3161 17.8181L41.9956 13.6666L40.8521 14.0304L42.1726 18.1819L43.3161 17.8181ZM41.0786 14.3392L42.1046 15.0612L42.7952 14.0798L41.7692 13.3578L41.0786 14.3392ZM42.4499 13.9705H35.4009V15.1705H42.4499V13.9705ZM35.9472 14.8185L36.6502 13.27L35.5575 12.774L34.8545 14.3225L35.9472 14.8185ZM36.1039 13.622H41.9559V12.422H36.1039V13.622ZM41.4796 12.6571L40.9191 13.3886L41.8716 14.1184L42.4321 13.3869L41.4796 12.6571ZM41.9668 13.5706L40.2188 8.10813L39.0759 8.47386L40.8239 13.9364L41.9668 13.5706ZM40.2231 8.12202L39.4061 5.33852L38.2546 5.67648L39.0716 8.45998L40.2231 8.12202ZM38.8304 4.9075H38.7829V6.1075H38.8304V4.9075ZM38.2056 5.34397L37.4171 8.12747L38.5716 8.45453L39.3601 5.67103L38.2056 5.34397ZM37.4229 8.10815L34.3164 17.8172L35.4593 18.1828L38.5658 8.47384L37.4229 8.10815ZM34.8879 17.4H32.9974V18.6H34.8879V17.4ZM51.5265 18H50.9265V18.6H51.5265V18ZM51.5265 16.271V15.671H50.9265V16.271H51.5265ZM56.286 15.682L56.5827 16.2035L56.5842 16.2027L56.286 15.682ZM57.9105 13.915L57.3747 13.6449L57.373 13.6484L57.9105 13.915ZM57.9105 8.0725L57.3756 8.34439L57.3775 8.34791L57.9105 8.0725ZM56.286 6.391L56.01 6.92373L56.286 6.391ZM51.4505 5.8495H50.8505V6.4495H51.4505V5.8495ZM51.4505 4.187V3.587H50.8505V4.187H51.4505ZM57.2455 4.909L56.9772 5.44567L56.9814 5.44775L57.2455 4.909ZM59.5255 7.132L58.9992 7.42001V7.42001L59.5255 7.132ZM59.497 14.865L58.971 14.5763L58.9697 14.5788L59.497 14.865ZM57.198 17.2115L56.9119 16.6841L57.198 17.2115ZM49.9685 18H49.3685V18.6H49.9685V18ZM49.9685 4.187V3.587H49.3685V4.187H49.9685ZM51.764 4.187H52.364V3.587H51.764V4.187ZM51.764 18V18.6H52.364V18H51.764ZM52.1265 18V16.271H50.9265V18H52.1265ZM51.5265 16.871H53.873V15.671H51.5265V16.871ZM53.873 16.871C54.8789 16.871 55.7886 16.6552 56.5827 16.2035L55.9894 15.1605C55.4027 15.4941 54.7038 15.671 53.873 15.671V16.871ZM56.5842 16.2027C57.3927 15.7396 58.0135 15.0579 58.448 14.1816L57.373 13.6484C57.0349 14.3301 56.5727 14.8264 55.9878 15.1613L56.5842 16.2027ZM58.4463 14.1851C58.8923 13.3002 59.0995 12.2388 59.0995 11.027H57.8995C57.8995 12.1078 57.7141 12.9718 57.3747 13.6449L58.4463 14.1851ZM59.0995 11.027C59.0995 9.75874 58.8946 8.67008 58.4436 7.79709L57.3775 8.34791C57.7117 8.99491 57.8995 9.87593 57.8995 11.027H59.0995ZM58.4454 7.80061C58.0074 6.93894 57.3799 6.28206 56.5621 5.85827L56.01 6.92373C56.5855 7.22193 57.041 7.68606 57.3757 8.34439L58.4454 7.80061ZM56.5621 5.85827C55.7667 5.44611 54.8616 5.2495 53.8635 5.2495V6.4495C54.7021 6.4495 55.412 6.61389 56.01 6.92373L56.5621 5.85827ZM53.8635 5.2495H51.4505V6.4495H53.8635V5.2495ZM52.0505 5.8495V4.187H50.8505V5.8495H52.0505ZM51.4505 4.787H53.9205V3.587H51.4505V4.787ZM53.9205 4.787C55.0967 4.787 56.1106 5.01234 56.9772 5.44566L57.5138 4.37234C56.4551 3.84299 55.2523 3.587 53.9205 3.587V4.787ZM56.9814 5.44775C57.832 5.86468 58.5036 6.51433 58.9992 7.42001L60.0519 6.84399C59.4454 5.73567 58.5971 4.90332 57.5096 4.37025L56.9814 5.44775ZM58.9992 7.42001C59.4871 8.31185 59.752 9.49582 59.752 11.008H60.952C60.952 9.36618 60.6659 7.96615 60.0519 6.84399L58.9992 7.42001ZM59.752 11.008C59.752 12.4686 59.4803 13.6484 58.971 14.5763L60.023 15.1537C60.6538 14.0043 60.952 12.6128 60.952 11.008H59.752ZM58.9697 14.5788C58.4572 15.5231 57.7714 16.2178 56.9119 16.6841L57.4841 17.7389C58.5626 17.1538 59.4095 16.2842 60.0244 15.1512L58.9697 14.5788ZM56.9119 16.6841C56.0391 17.1576 55.0497 17.4 53.93 17.4V18.6C55.2297 18.6 56.4189 18.3167 57.4841 17.7389L56.9119 16.6841ZM53.93 17.4H51.5265V18.6H53.93V17.4ZM50.5685 18V4.187H49.3685V18H50.5685ZM49.9685 4.787H51.764V3.587H49.9685V4.787ZM51.164 4.187V18H52.364V4.187H51.164ZM51.764 17.4H49.9685V18.6H51.764V17.4ZM62.9382 18H62.3382V18.6H62.9382V18ZM62.9382 4.187V3.587H62.3382V4.187H62.9382ZM71.2982 4.187H71.8982V3.587H71.2982V4.187ZM71.2982 5.8495V6.4495H71.8982V5.8495H71.2982ZM63.9357 5.8495L63.492 5.44565L62.5784 6.4495H63.9357V5.8495ZM64.7052 5.004H65.3052V3.45332L64.2615 4.60015L64.7052 5.004ZM64.7052 10.5045L64.3724 11.0037L65.3052 11.6256V10.5045H64.7052ZM63.9357 9.9915V9.3915H61.9541L63.6029 10.4907L63.9357 9.9915ZM70.8042 9.9915H71.4042V9.3915H70.8042V9.9915ZM70.8042 11.635V12.235H71.4042V11.635H70.8042ZM64.2112 11.635L63.7611 11.2383L62.8827 12.235H64.2112V11.635ZM64.7052 11.0745H65.3052V9.48629L64.2551 10.6778L64.7052 11.0745ZM64.7052 17.2115L64.2507 17.6032L65.3052 18.8269V17.2115H64.7052ZM63.9357 16.3185V15.7185H62.6267L63.4812 16.7102L63.9357 16.3185ZM71.4312 16.3185H72.0312V15.7185H71.4312V16.3185ZM71.4312 18V18.6H72.0312V18H71.4312ZM63.5382 18V4.187H62.3382V18H63.5382ZM62.9382 4.787H71.2982V3.587H62.9382V4.787ZM70.6982 4.187V5.8495H71.8982V4.187H70.6982ZM71.2982 5.2495H63.9357V6.4495H71.2982V5.2495ZM64.3795 6.25335L65.149 5.40785L64.2615 4.60015L63.492 5.44565L64.3795 6.25335ZM64.1052 5.004V10.5045H65.3052V5.004H64.1052ZM65.0381 10.0053L64.2686 9.49227L63.6029 10.4907L64.3724 11.0037L65.0381 10.0053ZM63.9357 10.5915H70.8042V9.3915H63.9357V10.5915ZM70.2042 9.9915V11.635H71.4042V9.9915H70.2042ZM70.8042 11.035H64.2112V12.235H70.8042V11.035ZM64.6614 12.0317L65.1554 11.4712L64.2551 10.6778L63.7611 11.2383L64.6614 12.0317ZM64.1052 11.0745V17.2115H65.3052V11.0745H64.1052ZM65.1598 16.8198L64.3903 15.9268L63.4812 16.7102L64.2507 17.6032L65.1598 16.8198ZM63.9357 16.9185H71.4312V15.7185H63.9357V16.9185ZM70.8312 16.3185V18H72.0312V16.3185H70.8312ZM71.4312 17.4H62.9382V18.6H71.4312V17.4Z" fill="url(#paint1_linear_520_1059)" fill-opacity="0.3" mask="url(#path-1-inside-1_520_1059)"/>
<mask id="path-3-inside-2_520_1059" fill="white">
<path d="M2.64 69C2.48 69 2.4 68.9 2.4 68.7L2.52 27.48C2.52 27.32 2.6 27.24 2.76 27.24H14.88C17.04 27.24 19.02 27.78 20.82 28.86C22.66 29.9 24.12 31.32 25.2 33.12C26.28 34.88 26.82 36.88 26.82 39.12C26.82 40.6 26.6 41.94 26.16 43.14C25.72 44.3 25.2 45.3 24.6 46.14C24 46.94 23.46 47.54 22.98 47.94C25.14 50.34 26.22 53.16 26.22 56.4L26.28 68.7C26.28 68.9 26.18 69 25.98 69H19.2C19.04 69 18.96 68.94 18.96 68.82V56.4C18.96 54.96 18.44 53.72 17.4 52.68C16.4 51.6 15.16 51.06 13.68 51.06H9.72L9.66 68.7C9.66 68.9 9.58 69 9.42 69H2.64ZM9.72 43.86H14.88C16.12 43.86 17.22 43.4 18.18 42.48C19.14 41.56 19.62 40.44 19.62 39.12C19.62 37.84 19.14 36.74 18.18 35.82C17.26 34.9 16.16 34.44 14.88 34.44H9.72V43.86ZM42.1523 69.6C39.9923 69.6 38.0123 69.06 36.2123 67.98C34.4523 66.86 33.0323 65.4 31.9523 63.6C30.8723 61.76 30.3323 59.74 30.3323 57.54L30.3923 38.52C30.3923 36.32 30.9123 34.32 31.9523 32.52C33.0323 30.72 34.4723 29.28 36.2723 28.2C38.0723 27.12 40.0323 26.58 42.1523 26.58C44.3123 26.58 46.2723 27.12 48.0323 28.2C49.7923 29.28 51.1923 30.72 52.2323 32.52C53.3123 34.32 53.8523 36.32 53.8523 38.52L53.9123 57.54C53.9123 59.74 53.3723 61.76 52.2923 63.6C51.2523 65.4 49.8323 66.86 48.0323 67.98C46.2723 69.06 44.3123 69.6 42.1523 69.6ZM42.1523 62.34C43.3523 62.34 44.3923 61.86 45.2723 60.9C46.1923 59.9 46.6523 58.78 46.6523 57.54L46.5923 38.52C46.5923 37.2 46.1723 36.08 45.3323 35.16C44.4923 34.24 43.4323 33.78 42.1523 33.78C40.9123 33.78 39.8523 34.24 38.9723 35.16C38.0923 36.04 37.6523 37.16 37.6523 38.52V57.54C37.6523 58.86 38.0923 60 38.9723 60.96C39.8523 61.88 40.9123 62.34 42.1523 62.34ZM69.8658 69.6C67.7458 69.6 65.7858 69.06 63.9858 67.98C62.1858 66.86 60.7458 65.38 59.6658 63.54C58.6258 61.7 58.1058 59.68 58.1058 57.48L58.2258 27.48C58.2258 27.32 58.3058 27.24 58.4658 27.24H65.1858C65.3458 27.24 65.4258 27.32 65.4258 27.48V57.48C65.4258 58.84 65.8458 60 66.6858 60.96C67.5658 61.88 68.6258 62.34 69.8658 62.34C71.1458 62.34 72.2058 61.88 73.0458 60.96C73.9258 60 74.3658 58.84 74.3658 57.48V27.48C74.3658 27.32 74.4458 27.24 74.6058 27.24H81.3258C81.4858 27.24 81.5658 27.32 81.5658 27.48L81.6858 57.48C81.6858 59.72 81.1458 61.76 80.0658 63.6C79.0258 65.44 77.6058 66.9 75.8058 67.98C74.0458 69.06 72.0658 69.6 69.8658 69.6ZM86.7234 69C86.5234 69 86.4234 68.9 86.4234 68.7L86.5434 27.48C86.5434 27.32 86.6234 27.24 86.7834 27.24H98.3034C101.983 27.24 104.883 28.36 107.003 30.6C109.163 32.84 110.243 35.88 110.243 39.72C110.243 42.56 109.683 45.02 108.563 47.1C107.443 49.18 105.983 50.78 104.183 51.9C102.383 53.02 100.423 53.58 98.3034 53.58H93.7434V68.7C93.7434 68.9 93.6434 69 93.4434 69H86.7234ZM93.7434 46.32H98.3034C99.5834 46.32 100.683 45.72 101.603 44.52C102.563 43.28 103.043 41.68 103.043 39.72C103.043 38.16 102.623 36.88 101.783 35.88C100.943 34.88 99.7834 34.38 98.3034 34.38L93.7434 34.44V46.32ZM108.817 68.7L116.257 27.48C116.297 27.32 116.397 27.24 116.557 27.24H125.257C125.417 27.24 125.517 27.32 125.557 27.48L132.697 68.7C132.737 68.9 132.657 69 132.457 69H125.797C125.637 69 125.537 68.9 125.497 68.7L124.837 64.32H116.677L116.017 68.7C115.977 68.9 115.877 69 115.717 69H109.057C108.897 69 108.817 68.9 108.817 68.7ZM117.877 57.9H123.637L121.177 41.04L120.817 38.82L120.577 41.04L117.877 57.9ZM145.491 69.6C143.331 69.6 141.351 69.06 139.551 67.98C137.791 66.86 136.371 65.4 135.291 63.6C134.251 61.76 133.731 59.74 133.731 57.54V54.78C133.731 54.58 133.831 54.48 134.031 54.48H140.751C140.911 54.48 140.991 54.58 140.991 54.78V57.54C140.991 58.86 141.431 60 142.311 60.96C143.191 61.88 144.251 62.34 145.491 62.34C146.731 62.34 147.791 61.86 148.671 60.9C149.551 59.94 149.991 58.82 149.991 57.54C149.991 56.06 149.031 54.78 147.111 53.7C146.471 53.34 145.471 52.78 144.111 52.02C142.751 51.26 141.471 50.54 140.271 49.86C138.071 48.58 136.431 46.98 135.351 45.06C134.311 43.1 133.791 40.9 133.791 38.46C133.791 36.22 134.331 34.22 135.411 32.46C136.491 30.66 137.911 29.24 139.671 28.2C141.471 27.16 143.411 26.64 145.491 26.64C147.611 26.64 149.551 27.18 151.311 28.26C153.111 29.3 154.531 30.72 155.571 32.52C156.651 34.28 157.191 36.26 157.191 38.46V43.38C157.191 43.54 157.111 43.62 156.951 43.62H150.231C150.071 43.62 149.991 43.54 149.991 43.38L149.931 38.46C149.931 37.06 149.491 35.92 148.611 35.04C147.731 34.16 146.691 33.72 145.491 33.72C144.251 33.72 143.191 34.2 142.311 35.16C141.431 36.08 140.991 37.18 140.991 38.46C140.991 39.78 141.271 40.88 141.831 41.76C142.391 42.64 143.411 43.48 144.891 44.28C145.091 44.4 145.471 44.62 146.031 44.94C146.631 45.22 147.271 45.56 147.951 45.96C148.631 46.32 149.231 46.64 149.751 46.92C150.311 47.2 150.651 47.38 150.771 47.46C152.771 48.58 154.351 49.96 155.511 51.6C156.671 53.2 157.251 55.18 157.251 57.54C157.251 59.82 156.711 61.88 155.631 63.72C154.591 65.52 153.171 66.96 151.371 68.04C149.611 69.08 147.651 69.6 145.491 69.6Z"/>
</mask>
<path d="M2.64 69C2.48 69 2.4 68.9 2.4 68.7L2.52 27.48C2.52 27.32 2.6 27.24 2.76 27.24H14.88C17.04 27.24 19.02 27.78 20.82 28.86C22.66 29.9 24.12 31.32 25.2 33.12C26.28 34.88 26.82 36.88 26.82 39.12C26.82 40.6 26.6 41.94 26.16 43.14C25.72 44.3 25.2 45.3 24.6 46.14C24 46.94 23.46 47.54 22.98 47.94C25.14 50.34 26.22 53.16 26.22 56.4L26.28 68.7C26.28 68.9 26.18 69 25.98 69H19.2C19.04 69 18.96 68.94 18.96 68.82V56.4C18.96 54.96 18.44 53.72 17.4 52.68C16.4 51.6 15.16 51.06 13.68 51.06H9.72L9.66 68.7C9.66 68.9 9.58 69 9.42 69H2.64ZM9.72 43.86H14.88C16.12 43.86 17.22 43.4 18.18 42.48C19.14 41.56 19.62 40.44 19.62 39.12C19.62 37.84 19.14 36.74 18.18 35.82C17.26 34.9 16.16 34.44 14.88 34.44H9.72V43.86ZM42.1523 69.6C39.9923 69.6 38.0123 69.06 36.2123 67.98C34.4523 66.86 33.0323 65.4 31.9523 63.6C30.8723 61.76 30.3323 59.74 30.3323 57.54L30.3923 38.52C30.3923 36.32 30.9123 34.32 31.9523 32.52C33.0323 30.72 34.4723 29.28 36.2723 28.2C38.0723 27.12 40.0323 26.58 42.1523 26.58C44.3123 26.58 46.2723 27.12 48.0323 28.2C49.7923 29.28 51.1923 30.72 52.2323 32.52C53.3123 34.32 53.8523 36.32 53.8523 38.52L53.9123 57.54C53.9123 59.74 53.3723 61.76 52.2923 63.6C51.2523 65.4 49.8323 66.86 48.0323 67.98C46.2723 69.06 44.3123 69.6 42.1523 69.6ZM42.1523 62.34C43.3523 62.34 44.3923 61.86 45.2723 60.9C46.1923 59.9 46.6523 58.78 46.6523 57.54L46.5923 38.52C46.5923 37.2 46.1723 36.08 45.3323 35.16C44.4923 34.24 43.4323 33.78 42.1523 33.78C40.9123 33.78 39.8523 34.24 38.9723 35.16C38.0923 36.04 37.6523 37.16 37.6523 38.52V57.54C37.6523 58.86 38.0923 60 38.9723 60.96C39.8523 61.88 40.9123 62.34 42.1523 62.34ZM69.8658 69.6C67.7458 69.6 65.7858 69.06 63.9858 67.98C62.1858 66.86 60.7458 65.38 59.6658 63.54C58.6258 61.7 58.1058 59.68 58.1058 57.48L58.2258 27.48C58.2258 27.32 58.3058 27.24 58.4658 27.24H65.1858C65.3458 27.24 65.4258 27.32 65.4258 27.48V57.48C65.4258 58.84 65.8458 60 66.6858 60.96C67.5658 61.88 68.6258 62.34 69.8658 62.34C71.1458 62.34 72.2058 61.88 73.0458 60.96C73.9258 60 74.3658 58.84 74.3658 57.48V27.48C74.3658 27.32 74.4458 27.24 74.6058 27.24H81.3258C81.4858 27.24 81.5658 27.32 81.5658 27.48L81.6858 57.48C81.6858 59.72 81.1458 61.76 80.0658 63.6C79.0258 65.44 77.6058 66.9 75.8058 67.98C74.0458 69.06 72.0658 69.6 69.8658 69.6ZM86.7234 69C86.5234 69 86.4234 68.9 86.4234 68.7L86.5434 27.48C86.5434 27.32 86.6234 27.24 86.7834 27.24H98.3034C101.983 27.24 104.883 28.36 107.003 30.6C109.163 32.84 110.243 35.88 110.243 39.72C110.243 42.56 109.683 45.02 108.563 47.1C107.443 49.18 105.983 50.78 104.183 51.9C102.383 53.02 100.423 53.58 98.3034 53.58H93.7434V68.7C93.7434 68.9 93.6434 69 93.4434 69H86.7234ZM93.7434 46.32H98.3034C99.5834 46.32 100.683 45.72 101.603 44.52C102.563 43.28 103.043 41.68 103.043 39.72C103.043 38.16 102.623 36.88 101.783 35.88C100.943 34.88 99.7834 34.38 98.3034 34.38L93.7434 34.44V46.32ZM108.817 68.7L116.257 27.48C116.297 27.32 116.397 27.24 116.557 27.24H125.257C125.417 27.24 125.517 27.32 125.557 27.48L132.697 68.7C132.737 68.9 132.657 69 132.457 69H125.797C125.637 69 125.537 68.9 125.497 68.7L124.837 64.32H116.677L116.017 68.7C115.977 68.9 115.877 69 115.717 69H109.057C108.897 69 108.817 68.9 108.817 68.7ZM117.877 57.9H123.637L121.177 41.04L120.817 38.82L120.577 41.04L117.877 57.9ZM145.491 69.6C143.331 69.6 141.351 69.06 139.551 67.98C137.791 66.86 136.371 65.4 135.291 63.6C134.251 61.76 133.731 59.74 133.731 57.54V54.78C133.731 54.58 133.831 54.48 134.031 54.48H140.751C140.911 54.48 140.991 54.58 140.991 54.78V57.54C140.991 58.86 141.431 60 142.311 60.96C143.191 61.88 144.251 62.34 145.491 62.34C146.731 62.34 147.791 61.86 148.671 60.9C149.551 59.94 149.991 58.82 149.991 57.54C149.991 56.06 149.031 54.78 147.111 53.7C146.471 53.34 145.471 52.78 144.111 52.02C142.751 51.26 141.471 50.54 140.271 49.86C138.071 48.58 136.431 46.98 135.351 45.06C134.311 43.1 133.791 40.9 133.791 38.46C133.791 36.22 134.331 34.22 135.411 32.46C136.491 30.66 137.911 29.24 139.671 28.2C141.471 27.16 143.411 26.64 145.491 26.64C147.611 26.64 149.551 27.18 151.311 28.26C153.111 29.3 154.531 30.72 155.571 32.52C156.651 34.28 157.191 36.26 157.191 38.46V43.38C157.191 43.54 157.111 43.62 156.951 43.62H150.231C150.071 43.62 149.991 43.54 149.991 43.38L149.931 38.46C149.931 37.06 149.491 35.92 148.611 35.04C147.731 34.16 146.691 33.72 145.491 33.72C144.251 33.72 143.191 34.2 142.311 35.16C141.431 36.08 140.991 37.18 140.991 38.46C140.991 39.78 141.271 40.88 141.831 41.76C142.391 42.64 143.411 43.48 144.891 44.28C145.091 44.4 145.471 44.62 146.031 44.94C146.631 45.22 147.271 45.56 147.951 45.96C148.631 46.32 149.231 46.64 149.751 46.92C150.311 47.2 150.651 47.38 150.771 47.46C152.771 48.58 154.351 49.96 155.511 51.6C156.671 53.2 157.251 55.18 157.251 57.54C157.251 59.82 156.711 61.88 155.631 63.72C154.591 65.52 153.171 66.96 151.371 68.04C149.611 69.08 147.651 69.6 145.491 69.6Z" fill="url(#paint2_linear_520_1059)" fill-opacity="0.85"/>
<path d="M2.4 68.7L1.8 68.6983V68.7H2.4ZM2.52 27.48L3.12 27.4817V27.48H2.52ZM20.82 28.86L20.5113 29.3745L20.518 29.3785L20.5248 29.3823L20.82 28.86ZM25.2 33.12L24.6855 33.4287L24.6886 33.4338L25.2 33.12ZM26.16 43.14L26.721 43.3528L26.7233 43.3466L26.16 43.14ZM24.6 46.14L25.0801 46.5001L25.0882 46.4887L24.6 46.14ZM22.98 47.94L22.5959 47.4791L22.1171 47.8781L22.534 48.3414L22.98 47.94ZM26.22 56.4H25.62L25.62 56.4029L26.22 56.4ZM26.28 68.7H26.88L26.88 68.6971L26.28 68.7ZM17.4 52.68L16.9597 53.0876L16.9676 53.0961L16.9757 53.1043L17.4 52.68ZM9.72 51.06V50.46H9.12204L9.12 51.058L9.72 51.06ZM9.66 68.7L9.06 68.698V68.7H9.66ZM9.72 43.86H9.12V44.46H9.72V43.86ZM18.18 42.48L17.7649 42.0468L18.18 42.48ZM18.18 35.82L17.7556 36.2444L17.7649 36.2532L18.18 35.82ZM9.72 34.44V33.84H9.12V34.44H9.72ZM2.64 68.4C2.66147 68.4 2.70788 68.4033 2.76577 68.4274C2.82733 68.4531 2.88458 68.4953 2.92852 68.5502C3.0098 68.6518 3 68.7359 3 68.7H1.8C1.8 68.8641 1.8302 69.0982 1.99148 69.2998C2.17321 69.527 2.42758 69.6 2.64 69.6V68.4ZM3 68.7017L3.12 27.4817L1.92 27.4783L1.8 68.6983L3 68.7017ZM3.12 27.48C3.12 27.4925 3.11647 27.6121 3.00426 27.7243C2.89206 27.8365 2.77249 27.84 2.76 27.84V26.64C2.58751 26.64 2.34794 26.6835 2.15574 26.8757C1.96353 27.0679 1.92 27.3075 1.92 27.48H3.12ZM2.76 27.84H14.88V26.64H2.76V27.84ZM14.88 27.84C16.9346 27.84 18.8074 28.3521 20.5113 29.3745L21.1287 28.3455C19.2327 27.2079 17.1454 26.64 14.88 26.64V27.84ZM20.5248 29.3823C22.2751 30.3716 23.6593 31.7183 24.6855 33.4287L25.7145 32.8113C24.5807 30.9217 23.0449 29.4283 21.1152 28.3377L20.5248 29.3823ZM24.6886 33.4338C25.7058 35.0914 26.22 36.981 26.22 39.12H27.42C27.42 36.779 26.8542 34.6686 25.7114 32.8062L24.6886 33.4338ZM26.22 39.12C26.22 40.5405 26.0089 41.8092 25.5967 42.9334L26.7233 43.3466C27.1911 42.0708 27.42 40.6595 27.42 39.12H26.22ZM25.599 42.9272C25.1738 44.0483 24.6764 45.0007 24.1118 45.7913L25.0882 46.4887C25.7236 45.5993 26.2662 44.5517 26.721 43.3528L25.599 42.9272ZM24.12 45.78C23.5334 46.5621 23.0254 47.1212 22.5959 47.4791L23.3641 48.4009C23.8946 47.9588 24.4666 47.3179 25.08 46.5L24.12 45.78ZM22.534 48.3414C24.5945 50.6308 25.62 53.3077 25.62 56.4H26.82C26.82 53.0123 25.6855 50.0492 23.426 47.5386L22.534 48.3414ZM25.62 56.4029L25.68 68.7029L26.88 68.6971L26.82 56.3971L25.62 56.4029ZM25.68 68.7C25.68 68.7075 25.6785 68.6029 25.7807 68.5007C25.829 68.4524 25.8812 68.4255 25.9215 68.412C25.9406 68.4057 25.9558 68.4027 25.9655 68.4013C25.9703 68.4006 25.974 68.4003 25.9764 68.4002C25.9776 68.4001 25.9785 68.4 25.9791 68.4C25.9794 68.4 25.9796 68.4 25.9798 68.4C25.9799 68.4 25.9799 68.4 25.9799 68.4C25.98 68.4 25.98 68.4 25.98 68.4C25.9799 68.4 25.9801 68.4 25.98 68.4C25.9799 68.4 25.9801 68.4 25.98 68.4V69.6C26.1725 69.6 26.4271 69.5515 26.6293 69.3493C26.8315 69.1471 26.88 68.8925 26.88 68.7H25.68ZM25.98 68.4H19.2V69.6H25.98V68.4ZM19.2 68.4C19.1777 68.4 19.2704 68.3928 19.38 68.475C19.4406 68.5204 19.491 68.5825 19.5233 68.6551C19.554 68.7241 19.56 68.784 19.56 68.82H18.36C18.36 69.0264 18.4379 69.2684 18.66 69.435C18.8496 69.5772 19.0623 69.6 19.2 69.6V68.4ZM19.56 68.82V56.4H18.36V68.82H19.56ZM19.56 56.4C19.56 54.7971 18.9741 53.4056 17.8243 52.2557L16.9757 53.1043C17.9059 54.0344 18.36 55.1229 18.36 56.4H19.56ZM17.8403 52.2724C16.726 51.0689 15.3261 50.46 13.68 50.46V51.66C14.9939 51.66 16.074 52.1311 16.9597 53.0876L17.8403 52.2724ZM13.68 50.46H9.72V51.66H13.68V50.46ZM9.12 51.058L9.06 68.698L10.26 68.702L10.32 51.062L9.12 51.058ZM9.06 68.7C9.06 68.7359 9.0502 68.6518 9.13148 68.5502C9.17542 68.4953 9.23267 68.4531 9.29423 68.4274C9.35213 68.4033 9.39853 68.4 9.42 68.4V69.6C9.63242 69.6 9.88679 69.527 10.0685 69.2998C10.2298 69.0982 10.26 68.8641 10.26 68.7H9.06ZM9.42 68.4H2.64V69.6H9.42V68.4ZM9.72 44.46H14.88V43.26H9.72V44.46ZM14.88 44.46C16.2866 44.46 17.5323 43.9317 18.5951 42.9132L17.7649 42.0468C16.9077 42.8683 15.9534 43.26 14.88 43.26V44.46ZM18.5951 42.9132C19.6723 41.881 20.22 40.6049 20.22 39.12H19.02C19.02 40.2751 18.6077 41.239 17.7649 42.0468L18.5951 42.9132ZM20.22 39.12C20.22 37.6694 19.6681 36.415 18.5951 35.3868L17.7649 36.2532C18.6119 37.065 19.02 38.0106 19.02 39.12H20.22ZM18.6043 35.3957C17.5738 34.3653 16.322 33.84 14.88 33.84V35.04C15.998 35.04 16.9462 35.4347 17.7557 36.2443L18.6043 35.3957ZM14.88 33.84H9.72V35.04H14.88V33.84ZM9.12 34.44V43.86H10.32V34.44H9.12ZM36.2123 67.98L35.8902 68.4862L35.8969 68.4904L35.9036 68.4945L36.2123 67.98ZM31.9523 63.6L31.4349 63.9037L31.4378 63.9087L31.9523 63.6ZM30.3323 57.54L29.7323 57.5381V57.54H30.3323ZM30.3923 38.52L30.9923 38.5219V38.52H30.3923ZM31.9523 32.52L31.4378 32.2113L31.4328 32.2198L31.9523 32.52ZM36.2723 28.2L36.581 28.7145H36.581L36.2723 28.2ZM48.0323 28.2L47.7185 28.7114L48.0323 28.2ZM52.2323 32.52L51.7128 32.8202L51.7178 32.8287L52.2323 32.52ZM53.8523 38.52H53.2523L53.2523 38.5219L53.8523 38.52ZM53.9123 57.54H54.5123L54.5123 57.5381L53.9123 57.54ZM52.2923 63.6L51.7749 63.2963L51.7728 63.2998L52.2923 63.6ZM48.0323 67.98L48.3462 68.4914L48.3493 68.4894L48.0323 67.98ZM45.2723 60.9L44.8308 60.4938L44.8301 60.4946L45.2723 60.9ZM46.6523 57.54H47.2523L47.2523 57.5381L46.6523 57.54ZM46.5923 38.52H45.9923L45.9923 38.5219L46.5923 38.52ZM45.3323 35.16L45.7754 34.7554L45.3323 35.16ZM38.9723 35.16L39.3967 35.5844L39.4059 35.5747L38.9723 35.16ZM38.9723 60.96L38.53 61.3655L38.5388 61.3747L38.9723 60.96ZM42.1523 69C40.0978 69 38.225 68.4879 36.521 67.4655L35.9036 68.4945C37.7997 69.6321 39.8869 70.2 42.1523 70.2V69ZM36.5345 67.4738C34.8536 66.4041 33.4992 65.0119 32.4668 63.2913L31.4378 63.9087C32.5655 65.7881 34.0511 67.3159 35.8902 68.4862L36.5345 67.4738ZM32.4698 63.2963C31.4456 61.5513 30.9323 59.6367 30.9323 57.54H29.7323C29.7323 59.8433 30.2991 61.9687 31.4349 63.9037L32.4698 63.2963ZM30.9323 57.5419L30.9923 38.5219L29.7923 38.5181L29.7323 57.5381L30.9323 57.5419ZM30.9923 38.52C30.9923 36.419 31.4877 34.5235 32.4719 32.8202L31.4328 32.2198C30.337 34.1164 29.7923 36.221 29.7923 38.52H30.9923ZM32.4668 32.8287C33.4962 31.1131 34.8655 29.7438 36.581 28.7145L35.9636 27.6855C34.0792 28.8162 32.5685 30.3268 31.4378 32.2113L32.4668 32.8287ZM36.581 28.7145C38.2868 27.691 40.1399 27.18 42.1523 27.18V25.98C39.9247 25.98 37.8579 26.549 35.9636 27.6855L36.581 28.7145ZM42.1523 27.18C44.2069 27.18 46.0574 27.6921 47.7185 28.7114L48.3462 27.6886C46.4873 26.5479 44.4178 25.98 42.1523 25.98V27.18ZM47.7185 28.7114C49.3929 29.7388 50.7224 31.106 51.7128 32.8202L52.7519 32.2198C51.6623 30.334 50.1918 28.8212 48.3462 27.6886L47.7185 28.7114ZM51.7178 32.8287C52.7392 34.5309 53.2523 36.4233 53.2523 38.52H54.4523C54.4523 36.2167 53.8855 34.1091 52.7468 32.2113L51.7178 32.8287ZM53.2523 38.5219L53.3123 57.5419L54.5123 57.5381L54.4523 38.5181L53.2523 38.5219ZM53.3123 57.54C53.3123 59.6367 52.7991 61.5513 51.7749 63.2963L52.8098 63.9037C53.9456 61.9687 54.5123 59.8433 54.5123 57.54H53.3123ZM51.7728 63.2998C50.7831 65.0128 49.4334 66.4016 47.7154 67.4706L48.3493 68.4894C50.2313 67.3184 51.7216 65.7872 52.8119 63.9002L51.7728 63.2998ZM47.7185 67.4686C46.0574 68.4879 44.2069 69 42.1523 69V70.2C44.4178 70.2 46.4873 69.6321 48.3462 68.4914L47.7185 67.4686ZM42.1523 62.94C43.5359 62.94 44.7318 62.3776 45.7146 61.3054L44.8301 60.4946C44.0529 61.3424 43.1688 61.74 42.1523 61.74V62.94ZM45.7139 61.3062C46.7252 60.207 47.2523 58.9454 47.2523 57.54H46.0523C46.0523 58.6145 45.6595 59.593 44.8308 60.4938L45.7139 61.3062ZM47.2523 57.5381L47.1923 38.5181L45.9923 38.5219L46.0523 57.5419L47.2523 57.5381ZM47.1923 38.52C47.1923 37.0601 46.7228 35.793 45.7754 34.7554L44.8893 35.5646C45.6219 36.367 45.9923 37.3399 45.9923 38.52H47.1923ZM45.7754 34.7554C44.8183 33.7071 43.5957 33.18 42.1523 33.18V34.38C43.269 34.38 44.1664 34.7729 44.8893 35.5646L45.7754 34.7554ZM42.1523 33.18C40.7437 33.18 39.5285 33.7105 38.5388 34.7453L39.4059 35.5747C40.1761 34.7695 41.081 34.38 42.1523 34.38V33.18ZM38.5481 34.7357C37.5446 35.7393 37.0523 37.0171 37.0523 38.52H38.2523C38.2523 37.3029 38.6401 36.3407 39.3966 35.5843L38.5481 34.7357ZM37.0523 38.52V57.54H38.2523V38.52H37.0523ZM37.0523 57.54C37.0523 59.0079 37.5471 60.2931 38.5301 61.3654L39.4146 60.5546C38.6376 59.7069 38.2523 58.7121 38.2523 57.54H37.0523ZM38.5388 61.3747C39.5285 62.4095 40.7437 62.94 42.1523 62.94V61.74C41.081 61.74 40.1761 61.3505 39.4059 60.5453L38.5388 61.3747ZM63.9858 67.98L63.6688 68.4895L63.6771 68.4945L63.9858 67.98ZM59.6658 63.54L59.1434 63.8353L59.1483 63.8437L59.6658 63.54ZM58.1058 57.48L57.5058 57.4776V57.48H58.1058ZM58.2258 27.48L58.8258 27.4824V27.48H58.2258ZM66.6858 60.96L66.2342 61.3551L66.243 61.3651L66.2522 61.3747L66.6858 60.96ZM73.0458 60.96L72.6035 60.5546L72.6027 60.5554L73.0458 60.96ZM81.5658 27.48L80.9658 27.48L80.9658 27.4824L81.5658 27.48ZM81.6858 57.48H82.2858L82.2858 57.4776L81.6858 57.48ZM80.0658 63.6L79.5483 63.2962L79.5434 63.3048L80.0658 63.6ZM75.8058 67.98L75.4971 67.4655L75.492 67.4686L75.8058 67.98ZM69.8658 69C67.8534 69 66.0003 68.489 64.2945 67.4655L63.6771 68.4945C65.5713 69.631 67.6382 70.2 69.8658 70.2V69ZM64.3028 67.4706C62.5858 66.4022 61.2144 64.993 60.1832 63.2363L59.1483 63.8437C60.2772 65.767 61.7858 67.3178 63.6688 68.4894L64.3028 67.4706ZM60.1881 63.2448C59.2012 61.4986 58.7058 59.5809 58.7058 57.48H57.5058C57.5058 59.7791 58.0504 61.9014 59.1434 63.8352L60.1881 63.2448ZM58.7058 57.4824L58.8258 27.4824L57.6258 27.4776L57.5058 57.4776L58.7058 57.4824ZM58.8258 27.48C58.8258 27.4925 58.8223 27.6121 58.71 27.7243C58.5978 27.8365 58.4783 27.84 58.4658 27.84V26.64C58.2933 26.64 58.0537 26.6835 57.8615 26.8757C57.6693 27.0679 57.6258 27.3075 57.6258 27.48H58.8258ZM58.4658 27.84H65.1858V26.64H58.4658V27.84ZM65.1858 27.84C65.1733 27.84 65.0537 27.8365 64.9415 27.7243C64.8293 27.6121 64.8258 27.4925 64.8258 27.48H66.0258C66.0258 27.3075 65.9823 27.0679 65.79 26.8757C65.5978 26.6835 65.3583 26.64 65.1858 26.64V27.84ZM64.8258 27.48V57.48H66.0258V27.48H64.8258ZM64.8258 57.48C64.8258 58.9749 65.2919 60.2781 66.2342 61.3551L67.1373 60.5649C66.3997 59.7219 66.0258 58.7051 66.0258 57.48H64.8258ZM66.2522 61.3747C67.242 62.4095 68.4572 62.94 69.8658 62.94V61.74C68.7944 61.74 67.8896 61.3505 67.1194 60.5453L66.2522 61.3747ZM69.8658 62.94C71.3091 62.94 72.5317 62.4129 73.4889 61.3646L72.6027 60.5554C71.8799 61.3471 70.9824 61.74 69.8658 61.74V62.94ZM73.4881 61.3654C74.4743 60.2895 74.9658 58.9828 74.9658 57.48H73.7658C73.7658 58.6972 73.3772 59.7105 72.6035 60.5546L73.4881 61.3654ZM74.9658 57.48V27.48H73.7658V57.48H74.9658ZM74.9658 27.48C74.9658 27.4925 74.9623 27.6121 74.8501 27.7243C74.7378 27.8365 74.6183 27.84 74.6058 27.84V26.64C74.4333 26.64 74.1937 26.6835 74.0015 26.8757C73.8093 27.0679 73.7658 27.3075 73.7658 27.48H74.9658ZM74.6058 27.84H81.3258V26.64H74.6058V27.84ZM81.3258 27.84C81.3133 27.84 81.1937 27.8365 81.0815 27.7243C80.9693 27.6121 80.9658 27.4925 80.9658 27.48H82.1658C82.1658 27.3075 82.1223 27.0679 81.93 26.8757C81.7378 26.6835 81.4983 26.64 81.3258 26.64V27.84ZM80.9658 27.4824L81.0858 57.4824L82.2858 57.4776L82.1658 27.4776L80.9658 27.4824ZM81.0858 57.48C81.0858 59.6188 80.5715 61.553 79.5483 63.2963L80.5832 63.9037C81.72 61.967 82.2858 59.8212 82.2858 57.48H81.0858ZM79.5434 63.3048C78.5541 65.0551 77.2075 66.4393 75.4971 67.4655L76.1145 68.4945C78.0041 67.3607 79.4974 65.8249 80.5881 63.8952L79.5434 63.3048ZM75.492 67.4686C73.8326 68.4868 71.9626 69 69.8658 69V70.2C72.169 70.2 74.2589 69.6332 76.1196 68.4914L75.492 67.4686ZM86.4234 68.7L85.8234 68.6983V68.7H86.4234ZM86.5434 27.48L87.1434 27.4817V27.48H86.5434ZM107.003 30.6L106.568 31.0124L106.572 31.0165L107.003 30.6ZM108.563 47.1L109.092 47.3845L108.563 47.1ZM104.183 51.9L103.866 51.3906L104.183 51.9ZM93.7434 53.58V52.98H93.1434V53.58H93.7434ZM93.7434 46.32H93.1434V46.92H93.7434V46.32ZM101.603 44.52L101.129 44.1527L101.127 44.1549L101.603 44.52ZM101.783 35.88L102.243 35.4941L101.783 35.88ZM98.3034 34.38V33.7799L98.2955 33.7801L98.3034 34.38ZM93.7434 34.44L93.7355 33.84L93.1434 33.8478V34.44H93.7434ZM86.7234 68.4C86.7233 68.4 86.7235 68.4 86.7234 68.4C86.7233 68.4 86.7235 68.4 86.7234 68.4C86.7235 68.4 86.7235 68.4 86.7235 68.4C86.7235 68.4 86.7236 68.4 86.7237 68.4C86.7238 68.4 86.724 68.4 86.7243 68.4C86.7249 68.4 86.7258 68.4001 86.727 68.4002C86.7294 68.4003 86.7331 68.4006 86.738 68.4013C86.7476 68.4027 86.7628 68.4057 86.7819 68.412C86.8223 68.4255 86.8744 68.4524 86.9227 68.5007C87.0249 68.6029 87.0234 68.7075 87.0234 68.7H85.8234C85.8234 68.8925 85.872 69.1471 86.0742 69.3493C86.2764 69.5515 86.531 69.6 86.7234 69.6V68.4ZM87.0234 68.7017L87.1434 27.4817L85.9434 27.4783L85.8234 68.6983L87.0234 68.7017ZM87.1434 27.48C87.1434 27.4925 87.1399 27.6121 87.0277 27.7243C86.9155 27.8365 86.7959 27.84 86.7834 27.84V26.64C86.611 26.64 86.3714 26.6835 86.1792 26.8757C85.987 27.0679 85.9434 27.3075 85.9434 27.48H87.1434ZM86.7834 27.84H98.3034V26.64H86.7834V27.84ZM98.3034 27.84C101.853 27.84 104.583 28.9151 106.568 31.0124L107.439 30.1876C105.184 27.8049 102.114 26.64 98.3034 26.64V27.84ZM106.572 31.0165C108.6 33.1198 109.643 35.997 109.643 39.72H110.843C110.843 35.763 109.727 32.5602 107.435 30.1835L106.572 31.0165ZM109.643 39.72C109.643 42.4807 109.099 44.839 108.035 46.8155L109.092 47.3845C110.267 45.201 110.843 42.6393 110.843 39.72H109.643ZM108.035 46.8155C106.959 48.8142 105.568 50.332 103.866 51.3906L104.5 52.4094C106.399 51.228 107.928 49.5458 109.092 47.3845L108.035 46.8155ZM103.866 51.3906C102.162 52.4514 100.311 52.98 98.3034 52.98V54.18C100.535 54.18 102.605 53.5886 104.5 52.4094L103.866 51.3906ZM98.3034 52.98H93.7434V54.18H98.3034V52.98ZM93.1434 53.58V68.7H94.3434V53.58H93.1434ZM93.1434 68.7C93.1434 68.7075 93.142 68.6029 93.2442 68.5007C93.2925 68.4524 93.3446 68.4255 93.3849 68.412C93.4041 68.4057 93.4192 68.4027 93.4289 68.4013C93.4338 68.4006 93.4375 68.4003 93.4399 68.4002C93.4411 68.4001 93.442 68.4 93.4426 68.4C93.4428 68.4 93.4431 68.4 93.4432 68.4C93.4433 68.4 93.4433 68.4 93.4434 68.4C93.4434 68.4 93.4434 68.4 93.4434 68.4C93.4433 68.4 93.4435 68.4 93.4434 68.4C93.4433 68.4 93.4435 68.4 93.4434 68.4V69.6C93.6359 69.6 93.8905 69.5515 94.0927 69.3493C94.2949 69.1471 94.3434 68.8925 94.3434 68.7H93.1434ZM93.4434 68.4H86.7234V69.6H93.4434V68.4ZM93.7434 46.92H98.3034V45.72H93.7434V46.92ZM98.3034 46.92C99.8051 46.92 101.069 46.2029 102.08 44.8851L101.127 44.1549C100.298 45.2371 99.3618 45.72 98.3034 45.72V46.92ZM102.078 44.8873C103.138 43.5182 103.643 41.7791 103.643 39.72H102.443C102.443 41.5809 101.989 43.0418 101.129 44.1527L102.078 44.8873ZM103.643 39.72C103.643 38.0475 103.191 36.6223 102.243 35.4941L101.324 36.2659C102.056 37.1377 102.443 38.2725 102.443 39.72H103.643ZM102.243 35.4941C101.273 34.3393 99.9342 33.78 98.3034 33.78V34.98C99.6327 34.98 100.614 35.4207 101.324 36.2659L102.243 35.4941ZM98.2955 33.7801L93.7355 33.84L93.7513 35.0399L98.3113 34.9799L98.2955 33.7801ZM93.1434 34.44V46.32H94.3434V34.44H93.1434ZM108.817 68.7L108.227 68.5934L108.217 68.6463V68.7H108.817ZM116.257 27.48L115.675 27.3345L115.67 27.3538L115.667 27.3734L116.257 27.48ZM125.557 27.48L126.148 27.3776L126.144 27.3559L126.139 27.3345L125.557 27.48ZM132.697 68.7L132.106 68.8024L132.107 68.8101L132.109 68.8177L132.697 68.7ZM125.497 68.7L124.904 68.7894L124.906 68.8036L124.909 68.8177L125.497 68.7ZM124.837 64.32L125.43 64.2306L125.353 63.72H124.837V64.32ZM116.677 64.32V63.72H116.161L116.084 64.2306L116.677 64.32ZM116.017 68.7L116.605 68.8177L116.608 68.8036L116.61 68.7894L116.017 68.7ZM117.877 57.9L117.285 57.8051L117.173 58.5H117.877V57.9ZM123.637 57.9V58.5H124.331L124.231 57.8134L123.637 57.9ZM121.177 41.04L121.771 40.9534L121.769 40.944L121.177 41.04ZM120.817 38.82L121.409 38.724L120.221 38.7555L120.817 38.82ZM120.577 41.04L121.169 41.1349L121.172 41.1197L121.174 41.1045L120.577 41.04ZM109.407 68.8066L116.847 27.5866L115.667 27.3734L108.227 68.5934L109.407 68.8066ZM116.839 27.6255C116.836 27.636 116.816 27.7055 116.737 27.7685C116.656 27.8331 116.579 27.84 116.557 27.84V26.64C116.376 26.64 116.168 26.6869 115.987 26.8315C115.808 26.9745 115.718 27.164 115.675 27.3345L116.839 27.6255ZM116.557 27.84H125.257V26.64H116.557V27.84ZM125.257 27.84C125.236 27.84 125.158 27.8331 125.077 27.7685C124.998 27.7055 124.978 27.636 124.975 27.6255L126.139 27.3345C126.096 27.164 126.006 26.9745 125.827 26.8315C125.646 26.6869 125.438 26.64 125.257 26.64V27.84ZM124.966 27.5824L132.106 68.8024L133.288 68.5976L126.148 27.3776L124.966 27.5824ZM132.109 68.8177C132.114 68.846 132.076 68.7033 132.199 68.5502C132.324 68.3932 132.478 68.4 132.457 68.4V69.6C132.636 69.6 132.93 69.5569 133.136 69.2998C133.338 69.0467 133.32 68.754 133.285 68.5823L132.109 68.8177ZM132.457 68.4H125.797V69.6H132.457V68.4ZM125.797 68.4C125.82 68.4 125.858 68.4037 125.904 68.4212C125.951 68.4394 125.993 68.4673 126.026 68.5007C126.089 68.5639 126.092 68.6151 126.085 68.5823L124.909 68.8177C124.942 68.9849 125.015 69.1861 125.178 69.3493C125.355 69.5269 125.581 69.6 125.797 69.6V68.4ZM126.09 68.6106L125.43 64.2306L124.244 64.4094L124.904 68.7894L126.09 68.6106ZM124.837 63.72H116.677V64.92H124.837V63.72ZM116.084 64.2306L115.424 68.6106L116.61 68.7894L117.27 64.4094L116.084 64.2306ZM115.429 68.5823C115.422 68.6151 115.425 68.5639 115.488 68.5007C115.521 68.4673 115.563 68.4394 115.61 68.4212C115.656 68.4037 115.694 68.4 115.717 68.4V69.6C115.933 69.6 116.159 69.5269 116.336 69.3493C116.499 69.1861 116.572 68.9849 116.605 68.8177L115.429 68.5823ZM115.717 68.4H109.057V69.6H115.717V68.4ZM109.057 68.4C109.078 68.4 109.125 68.4033 109.183 68.4274C109.244 68.4531 109.302 68.4953 109.346 68.5502C109.427 68.6518 109.417 68.7359 109.417 68.7H108.217C108.217 68.8641 108.247 69.0982 108.409 69.2998C108.59 69.527 108.845 69.6 109.057 69.6V68.4ZM117.877 58.5H123.637V57.3H117.877V58.5ZM124.231 57.8134L121.771 40.9534L120.583 41.1266L123.043 57.9866L124.231 57.8134ZM121.769 40.944L121.409 38.724L120.225 38.916L120.585 41.136L121.769 40.944ZM120.221 38.7555L119.981 40.9755L121.174 41.1045L121.414 38.8845L120.221 38.7555ZM119.985 40.9451L117.285 57.8051L118.469 57.9949L121.169 41.1349L119.985 40.9451ZM139.551 67.98L139.229 68.4862L139.235 68.4904L139.242 68.4945L139.551 67.98ZM135.291 63.6L134.768 63.8952L134.772 63.902L134.776 63.9087L135.291 63.6ZM142.311 60.96L141.868 61.3655L141.877 61.3747L142.311 60.96ZM148.671 60.9L148.228 60.4946L148.671 60.9ZM147.111 53.7L147.405 53.1771L147.111 53.7ZM144.111 52.02L144.403 51.4962L144.111 52.02ZM140.271 49.86L139.969 50.3786L139.975 50.382L140.271 49.86ZM135.351 45.06L134.821 45.3412L134.824 45.3477L134.828 45.3542L135.351 45.06ZM135.411 32.46L135.922 32.7738L135.925 32.7687L135.411 32.46ZM139.671 28.2L139.37 27.6805L139.365 27.6834L139.671 28.2ZM151.311 28.26L150.997 28.7714L151.004 28.7755L151.01 28.7795L151.311 28.26ZM155.571 32.52L155.051 32.8202L155.055 32.827L155.059 32.8338L155.571 32.52ZM149.991 43.38H150.591L150.591 43.3727L149.991 43.38ZM149.931 38.46H149.331L149.331 38.4673L149.931 38.46ZM148.611 35.04L149.035 34.6157V34.6157L148.611 35.04ZM142.311 35.16L142.744 35.5748L142.753 35.5654L142.311 35.16ZM141.831 41.76L142.337 41.4379L141.831 41.76ZM144.891 44.28L145.199 43.7655L145.188 43.7586L145.176 43.7522L144.891 44.28ZM146.031 44.94L145.733 45.4609L145.754 45.4732L145.777 45.4837L146.031 44.94ZM147.951 45.96L147.646 46.4772L147.658 46.484L147.67 46.4903L147.951 45.96ZM149.751 46.92L149.466 47.4483L149.474 47.4526L149.482 47.4567L149.751 46.92ZM150.771 47.46L150.438 47.9592L150.457 47.9721L150.477 47.9835L150.771 47.46ZM155.511 51.6L155.021 51.9465L155.025 51.9522L155.511 51.6ZM155.631 63.72L155.113 63.4163L155.111 63.4198L155.631 63.72ZM151.371 68.04L151.676 68.5566L151.679 68.5545L151.371 68.04ZM145.491 69C143.436 69 141.563 68.4879 139.859 67.4655L139.242 68.4945C141.138 69.6321 143.225 70.2 145.491 70.2V69ZM139.873 67.4738C138.192 66.4041 136.838 65.0119 135.805 63.2913L134.776 63.9087C135.904 65.7881 137.389 67.3159 139.229 68.4862L139.873 67.4738ZM135.813 63.3048C134.826 61.5586 134.331 59.6409 134.331 57.54H133.131C133.131 59.8391 133.675 61.9614 134.768 63.8952L135.813 63.3048ZM134.331 57.54V54.78H133.131V57.54H134.331ZM134.331 54.78C134.331 54.7799 134.331 54.7801 134.331 54.78C134.331 54.7799 134.331 54.7801 134.331 54.78C134.331 54.78 134.331 54.78 134.331 54.7801C134.331 54.7801 134.331 54.7801 134.331 54.7802C134.331 54.7804 134.331 54.7806 134.331 54.7809C134.331 54.7815 134.331 54.7824 134.33 54.7836C134.33 54.786 134.33 54.7897 134.329 54.7945C134.328 54.8042 134.325 54.8194 134.319 54.8385C134.305 54.8788 134.278 54.931 134.23 54.9793C134.128 55.0815 134.023 55.08 134.031 55.08V53.88C133.838 53.88 133.584 53.9285 133.381 54.1307C133.179 54.3329 133.131 54.5875 133.131 54.78H134.331ZM134.031 55.08H140.751V53.88H134.031V55.08ZM140.751 55.08C140.729 55.08 140.683 55.0767 140.625 55.0526C140.563 55.0269 140.506 54.9847 140.462 54.9298C140.381 54.8282 140.391 54.7441 140.391 54.78H141.591C141.591 54.6159 141.56 54.3818 141.399 54.1802C141.217 53.953 140.963 53.88 140.751 53.88V55.08ZM140.391 54.78V57.54H141.591V54.78H140.391ZM140.391 57.54C140.391 59.0079 140.885 60.2931 141.868 61.3654L142.753 60.5546C141.976 59.7069 141.591 58.7121 141.591 57.54H140.391ZM141.877 61.3747C142.867 62.4095 144.082 62.94 145.491 62.94V61.74C144.419 61.74 143.514 61.3505 142.744 60.5453L141.877 61.3747ZM145.491 62.94C146.908 62.94 148.126 62.3824 149.113 61.3054L148.228 60.4946C147.456 61.3376 146.553 61.74 145.491 61.74V62.94ZM149.113 61.3054C150.092 60.2369 150.591 58.973 150.591 57.54H149.391C149.391 58.667 149.009 59.6431 148.228 60.4946L149.113 61.3054ZM150.591 57.54C150.591 55.7479 149.413 54.3064 147.405 53.1771L146.816 54.2229C148.649 55.2536 149.391 56.3721 149.391 57.54H150.591ZM147.405 53.1771C146.764 52.8166 145.763 52.2563 144.403 51.4962L143.818 52.5438C145.178 53.3037 146.177 53.8634 146.816 54.2229L147.405 53.1771ZM144.403 51.4962C143.044 50.7367 141.765 50.0173 140.566 49.338L139.975 50.382C141.176 51.0627 142.457 51.7833 143.818 52.5438L144.403 51.4962ZM140.572 49.3414C138.45 48.1067 136.893 46.579 135.874 44.7658L134.828 45.3542C135.968 47.381 137.691 49.0533 139.969 50.3786L140.572 49.3414ZM135.881 44.7788C134.891 42.9138 134.391 40.8119 134.391 38.46H133.191C133.191 40.9881 133.73 43.2862 134.821 45.3412L135.881 44.7788ZM134.391 38.46C134.391 36.321 134.905 34.4314 135.922 32.7738L134.899 32.1462C133.756 34.0086 133.191 36.119 133.191 38.46H134.391ZM135.925 32.7687C136.955 31.0519 138.304 29.7044 139.976 28.7166L139.365 27.6834C137.517 28.7756 136.026 30.2681 134.896 32.1513L135.925 32.7687ZM139.971 28.7195C141.679 27.7323 143.516 27.24 145.491 27.24V26.04C143.305 26.04 141.262 26.5877 139.37 27.6805L139.971 28.7195ZM145.491 27.24C147.503 27.24 149.334 27.7509 150.997 28.7714L151.624 27.7486C149.767 26.6091 147.718 26.04 145.491 26.04V27.24ZM151.01 28.7795C152.719 29.7669 154.064 31.1112 155.051 32.8202L156.09 32.2198C154.998 30.3287 153.502 28.8331 151.611 27.7405L151.01 28.7795ZM155.059 32.8338C156.077 34.4932 156.591 36.3632 156.591 38.46H157.791C157.791 36.1568 157.224 34.0668 156.082 32.2062L155.059 32.8338ZM156.591 38.46V43.38H157.791V38.46H156.591ZM156.591 43.38C156.591 43.3675 156.594 43.2479 156.706 43.1357C156.819 43.0235 156.938 43.02 156.951 43.02V44.22C157.123 44.22 157.363 44.1765 157.555 43.9843C157.747 43.7921 157.791 43.5525 157.791 43.38H156.591ZM156.951 43.02H150.231V44.22H156.951V43.02ZM150.231 43.02C150.243 43.02 150.363 43.0235 150.475 43.1357C150.587 43.2479 150.591 43.3675 150.591 43.38H149.391C149.391 43.5525 149.434 43.7921 149.626 43.9843C149.819 44.1765 150.058 44.22 150.231 44.22V43.02ZM150.591 43.3727L150.531 38.4527L149.331 38.4673L149.391 43.3873L150.591 43.3727ZM150.531 38.46C150.531 36.9226 150.042 35.6227 149.035 34.6157L148.186 35.4643C148.939 36.2173 149.331 37.1974 149.331 38.46H150.531ZM149.035 34.6157C148.047 33.6279 146.856 33.12 145.491 33.12V34.32C146.525 34.32 147.414 34.6921 148.186 35.4643L149.035 34.6157ZM145.491 33.12C144.073 33.12 142.856 33.6776 141.868 34.7546L142.753 35.5654C143.526 34.7224 144.428 34.32 145.491 34.32V33.12ZM141.877 34.7453C140.89 35.7776 140.391 37.0264 140.391 38.46H141.591C141.591 37.3336 141.972 36.3824 142.744 35.5747L141.877 34.7453ZM140.391 38.46C140.391 39.864 140.689 41.0833 141.324 42.0821L142.337 41.4379C141.852 40.6767 141.591 39.696 141.591 38.46H140.391ZM141.324 42.0821C141.963 43.0859 143.085 43.9859 144.605 44.8078L145.176 43.7522C143.736 42.9741 142.818 42.1941 142.337 41.4379L141.324 42.0821ZM144.582 44.7945C144.788 44.9183 145.174 45.1413 145.733 45.4609L146.328 44.4191C145.768 44.0987 145.393 43.8817 145.199 43.7655L144.582 44.7945ZM145.777 45.4837C146.357 45.7543 146.98 46.085 147.646 46.4772L148.255 45.4428C147.561 45.035 146.904 44.6857 146.284 44.3963L145.777 45.4837ZM147.67 46.4903C148.349 46.8498 148.948 47.1691 149.466 47.4483L150.035 46.3917C149.514 46.1109 148.912 45.7902 148.231 45.4297L147.67 46.4903ZM149.482 47.4567C150.057 47.7438 150.356 47.9049 150.438 47.9592L151.103 46.9608C150.945 46.8551 150.565 46.6562 150.019 46.3833L149.482 47.4567ZM150.477 47.9835C152.411 49.066 153.919 50.389 155.021 51.9465L156 51.2535C154.782 49.531 153.131 48.094 151.064 46.9365L150.477 47.9835ZM155.025 51.9522C156.097 53.4311 156.651 55.2813 156.651 57.54H157.851C157.851 55.0787 157.244 52.9689 155.996 51.2478L155.025 51.9522ZM156.651 57.54C156.651 59.7208 156.135 61.6747 155.113 63.4163L156.148 64.0237C157.286 62.0853 157.851 59.9192 157.851 57.54H156.651ZM155.111 63.4198C154.123 65.1308 152.775 66.4974 151.062 67.5255L151.679 68.5545C153.566 67.4226 155.059 65.9092 156.15 64.0202L155.111 63.4198ZM151.065 67.5234C149.403 68.5057 147.55 69 145.491 69V70.2C147.752 70.2 149.818 69.6543 151.676 68.5566L151.065 67.5234Z" fill="url(#paint3_linear_520_1059)" fill-opacity="0.3" mask="url(#path-3-inside-2_520_1059)"/>
<path d="M194.808 72.9103C193.071 73.9168 190.929 73.9168 189.192 72.9103L173.192 63.6375C171.464 62.636 170.4 60.7898 170.4 58.7924L170.4 40.2069C170.4 38.2094 171.464 36.3632 173.192 35.3617L189.192 26.0895C190.929 25.0831 193.071 25.0831 194.808 26.0895L210.808 35.3617C212.536 36.3632 213.6 38.2094 213.6 40.2069L213.6 58.7924C213.6 60.7898 212.536 62.636 210.808 63.6375L194.808 72.9103Z" fill="black" fill-opacity="0.6"/>
<path d="M194.808 72.9103C193.071 73.9168 190.929 73.9168 189.192 72.9103L173.192 63.6375C171.464 62.636 170.4 60.7898 170.4 58.7924L170.4 40.2069C170.4 38.2094 171.464 36.3632 173.192 35.3617L189.192 26.0895C190.929 25.0831 193.071 25.0831 194.808 26.0895L210.808 35.3617C212.536 36.3632 213.6 38.2094 213.6 40.2069L213.6 58.7924C213.6 60.7898 212.536 62.636 210.808 63.6375L194.808 72.9103Z" fill="url(#paint4_linear_520_1059)"/>
<path d="M194.808 72.9103C193.071 73.9168 190.929 73.9168 189.192 72.9103L173.192 63.6375C171.464 62.636 170.4 60.7898 170.4 58.7924L170.4 40.2069C170.4 38.2094 171.464 36.3632 173.192 35.3617L189.192 26.0895C190.929 25.0831 193.071 25.0831 194.808 26.0895L210.808 35.3617C212.536 36.3632 213.6 38.2094 213.6 40.2069L213.6 58.7924C213.6 60.7898 212.536 62.636 210.808 63.6375L194.808 72.9103Z" stroke="#1E90F3" stroke-width="0.8"/>
<path d="M192.5 42.9375C193.857 42.9375 194.99 41.8801 195.125 40.5586C195.137 40.4355 195.002 40.3125 194.879 40.3125C194.812 40.3126 194.746 40.3251 194.684 40.3494C194.676 40.3527 193.819 40.6816 192.5 40.6816C191.181 40.6816 190.322 40.3535 190.316 40.3494C190.246 40.3251 190.172 40.3126 190.098 40.3125H190.096C190.065 40.3141 190.035 40.3218 190.007 40.335C189.98 40.3483 189.955 40.3669 189.934 40.3897C189.914 40.4126 189.898 40.4393 189.888 40.4683C189.878 40.4972 189.873 40.5279 189.875 40.5586C190.012 41.8777 191.146 42.9375 192.5 42.9375Z" fill="white"/>
<path d="M201.904 42.6872L196.602 40.8308C196.579 40.8229 196.555 40.8201 196.531 40.8225C196.507 40.825 196.484 40.8327 196.463 40.845C196.443 40.8574 196.425 40.8741 196.411 40.8941C196.398 40.914 196.389 40.9367 196.385 40.9604C196.232 41.8796 195.758 42.7146 195.046 43.3169C194.335 43.9192 193.434 44.2497 192.502 44.2497C191.57 44.2497 190.668 43.9192 189.957 43.3169C189.246 42.7146 188.771 41.8796 188.618 40.9604C188.614 40.9363 188.605 40.9132 188.592 40.893C188.578 40.8727 188.56 40.8558 188.539 40.8434C188.518 40.8309 188.494 40.8234 188.47 40.8212C188.446 40.819 188.421 40.8223 188.398 40.8308L183.096 42.6872C182.947 42.7392 182.822 42.8427 182.744 42.9789C182.665 43.1152 182.638 43.2751 182.668 43.4296L183.35 47.039C183.376 47.1765 183.446 47.3021 183.548 47.3973C183.651 47.4925 183.782 47.5523 183.921 47.5681L185.926 47.7945C186.007 47.8037 186.083 47.8434 186.137 47.9056C186.191 47.9678 186.219 48.0481 186.217 48.1304L185.916 58.011C185.912 58.1384 185.945 58.2641 186.012 58.373C186.078 58.4818 186.174 58.5689 186.289 58.6238C186.385 58.667 186.489 58.6887 186.594 58.6874H198.406C198.511 58.6887 198.615 58.667 198.711 58.6238C198.826 58.5689 198.922 58.4818 198.988 58.373C199.055 58.2641 199.088 58.1384 199.084 58.011L198.783 48.1304C198.781 48.0481 198.809 47.9678 198.863 47.9056C198.917 47.8434 198.993 47.8037 199.074 47.7945L201.079 47.5681C201.218 47.5523 201.349 47.4925 201.452 47.3973C201.554 47.3021 201.624 47.1765 201.65 47.039L202.332 43.4296C202.362 43.2751 202.335 43.1152 202.256 42.9789C202.178 42.8427 202.053 42.7392 201.904 42.6872Z" fill="white"/>
<defs>
<linearGradient id="paint0_linear_520_1059" x1="0" y1="11.5" x2="204" y2="11.5" gradientUnits="userSpaceOnUse">
<stop offset="0.644841" stop-color="white"/>
<stop offset="1" stop-color="white" stop-opacity="0.3"/>
</linearGradient>
<linearGradient id="paint1_linear_520_1059" x1="0" y1="11.5" x2="204" y2="11.5" gradientUnits="userSpaceOnUse">
<stop offset="0.644841" stop-color="white"/>
<stop offset="1" stop-color="white" stop-opacity="0.3"/>
</linearGradient>
<linearGradient id="paint2_linear_520_1059" x1="0" y1="49.5" x2="160" y2="49.5" gradientUnits="userSpaceOnUse">
<stop offset="0.644841" stop-color="white"/>
<stop offset="1" stop-color="white" stop-opacity="0.3"/>
</linearGradient>
<linearGradient id="paint3_linear_520_1059" x1="0" y1="49.5" x2="160" y2="49.5" gradientUnits="userSpaceOnUse">
<stop offset="0.644841" stop-color="white"/>
<stop offset="1" stop-color="white" stop-opacity="0.3"/>
</linearGradient>
<linearGradient id="paint4_linear_520_1059" x1="159.758" y1="86.9983" x2="236.71" y2="20.6086" gradientUnits="userSpaceOnUse">
<stop stop-color="#1E90F3"/>
<stop offset="1" stop-color="#1E90F3" stop-opacity="0"/>
</linearGradient>
</defs>
</svg>
