<svg width="351" height="44" viewBox="0 0 351 44" fill="none" xmlns="http://www.w3.org/2000/svg">
<path d="M20.8037 42.4935C19.688 43.1395 18.312 43.1395 17.1963 42.4935L2.19626 33.8093C1.08452 33.1656 0.399999 31.9784 0.399999 30.6937L0.399999 13.3056C0.399999 12.021 1.08456 10.8337 2.19635 10.19L17.1963 1.50635C18.312 0.860458 19.688 0.860458 20.8037 1.50635L35.8037 10.19C36.9154 10.8337 37.6 12.021 37.6 13.3056L37.6 30.6937C37.6 31.9784 36.9155 33.1656 35.8037 33.8093L20.8037 42.4935Z" fill="black" fill-opacity="0.6"/>
<path d="M20.8037 42.4935C19.688 43.1395 18.312 43.1395 17.1963 42.4935L2.19626 33.8093C1.08452 33.1656 0.399999 31.9784 0.399999 30.6937L0.399999 13.3056C0.399999 12.021 1.08456 10.8337 2.19635 10.19L17.1963 1.50635C18.312 0.860458 19.688 0.860458 20.8037 1.50635L35.8037 10.19C36.9154 10.8337 37.6 12.021 37.6 13.3056L37.6 30.6937C37.6 31.9784 36.9155 33.1656 35.8037 33.8093L20.8037 42.4935Z" fill="url(#paint0_linear_520_1217)"/>
<path d="M20.8037 42.4935C19.688 43.1395 18.312 43.1395 17.1963 42.4935L2.19626 33.8093C1.08452 33.1656 0.399999 31.9784 0.399999 30.6937L0.399999 13.3056C0.399999 12.021 1.08456 10.8337 2.19635 10.19L17.1963 1.50635C18.312 0.860458 19.688 0.860458 20.8037 1.50635L35.8037 10.19C36.9154 10.8337 37.6 12.021 37.6 13.3056L37.6 30.6937C37.6 31.9784 36.9155 33.1656 35.8037 33.8093L20.8037 42.4935Z" stroke="#1E90F3" stroke-width="0.8"/>
<g clip-path="url(#clip0_520_1217)">
<path d="M19 31.7777C17.3793 31.7777 15.8249 31.1339 14.6788 29.9878C13.5328 28.8418 12.8889 27.2874 12.8889 25.6666V18.3333C12.8889 16.7125 13.5328 15.1581 14.6788 14.0121C15.8249 12.866 17.3793 12.2222 19 12.2222C20.6208 12.2222 22.1752 12.866 23.3212 14.0121C24.4673 15.1581 25.1111 16.7125 25.1111 18.3333V25.6666C25.1111 26.4691 24.9531 27.2638 24.646 28.0052C24.3388 28.7467 23.8887 29.4204 23.3212 29.9878C22.7538 30.5553 22.0801 31.0054 21.3386 31.3125C20.5972 31.6197 19.8025 31.7777 19 31.7777ZM19 13.4444C17.7034 13.4444 16.4599 13.9595 15.5431 14.8763C14.6262 15.7932 14.1111 17.0367 14.1111 18.3333V25.6666C14.1111 26.9632 14.6262 28.2067 15.5431 29.1236C16.4599 30.0404 17.7034 30.5555 19 30.5555C20.2966 30.5555 21.5401 30.0404 22.457 29.1236C23.3738 28.2067 23.8889 26.9632 23.8889 25.6666V18.3333C23.8889 17.0367 23.3738 15.7932 22.457 14.8763C21.5401 13.9595 20.2966 13.4444 19 13.4444Z" fill="white"/>
<path d="M19 20.1667C18.838 20.1667 18.6825 20.1023 18.5679 19.9877C18.4533 19.8731 18.3889 19.7176 18.3889 19.5556V17.1111C18.3889 16.949 18.4533 16.7936 18.5679 16.679C18.6825 16.5644 18.838 16.5 19 16.5C19.1621 16.5 19.3175 16.5644 19.4321 16.679C19.5468 16.7936 19.6111 16.949 19.6111 17.1111V19.5556C19.6111 19.7176 19.5468 19.8731 19.4321 19.9877C19.3175 20.1023 19.1621 20.1667 19 20.1667Z" fill="white"/>
</g>
<path d="M48.105 26.5V17.049H50.081L51.8165 22.0865L52.46 24.29H52.4925L53.149 22.0865L54.8325 17.049H56.815V26.5H55.6125V20.9815L55.684 18.219H55.6385L54.7155 20.8905L52.8305 26.5H52.174L50.211 20.8905L49.288 18.219H49.2425L49.314 20.9815V26.5H48.105ZM61.5468 26.5975C60.9228 26.5975 60.3746 26.4567 59.9023 26.175C59.4343 25.8933 59.0681 25.4795 58.8038 24.9335C58.5438 24.3832 58.4138 23.7093 58.4138 22.912C58.4138 22.158 58.5525 21.508 58.8298 20.962C59.1071 20.416 59.4841 19.9978 59.9608 19.7075C60.4418 19.4128 60.9791 19.2655 61.5728 19.2655C62.2185 19.2655 62.7753 19.4128 63.2433 19.7075C63.7156 19.9978 64.0796 20.416 64.3353 20.962C64.591 21.508 64.7188 22.158 64.7188 22.912C64.7188 23.7093 64.5758 24.3832 64.2898 24.9335C64.0081 25.4795 63.6268 25.8933 63.1458 26.175C62.6648 26.4567 62.1318 26.5975 61.5468 26.5975ZM61.5728 25.5315C62.1535 25.5315 62.6171 25.3148 62.9638 24.8815C63.3105 24.4482 63.4838 23.7917 63.4838 22.912C63.4838 22.0713 63.3126 21.4322 62.9703 20.9945C62.6323 20.5525 62.1578 20.3315 61.5468 20.3315C60.9705 20.3315 60.509 20.5525 60.1623 20.9945C59.82 21.4322 59.6488 22.0713 59.6488 22.912C59.6488 23.7613 59.8221 24.4113 60.1688 24.862C60.5198 25.3083 60.9878 25.5315 61.5728 25.5315ZM68.3168 26.643C67.7058 26.643 67.2139 26.435 66.8413 26.019C66.4686 25.603 66.2823 25.0223 66.2823 24.277V19.402H67.4913V23.952C67.4913 24.3073 67.5324 24.5998 67.6148 24.8295C67.6971 25.0592 67.8271 25.2303 68.0048 25.343C68.1868 25.4513 68.4208 25.5077 68.7068 25.512C69.0968 25.512 69.4348 25.408 69.7208 25.2C70.0111 24.9877 70.2516 24.6952 70.4423 24.3225V19.402H71.6448V26.5H70.6178L70.4813 24.0365L70.6113 24.3615C70.5549 24.7775 70.4358 25.1588 70.2538 25.5055C70.0761 25.8478 69.8269 26.123 69.5063 26.331C69.1899 26.539 68.7934 26.643 68.3168 26.643ZM75.9153 26.6105C75.4256 26.6105 74.9771 26.5368 74.5698 26.3895C74.1668 26.2378 73.8396 26.0038 73.5883 25.6875C73.3369 25.3668 73.1961 24.9552 73.1658 24.4525H74.3618C74.4398 24.8858 74.6109 25.1848 74.8753 25.3495C75.1439 25.5098 75.4841 25.59 75.8958 25.59C76.1774 25.59 76.4309 25.5597 76.6562 25.499C76.8859 25.4383 77.0679 25.3365 77.2023 25.1935C77.3366 25.0505 77.4038 24.8555 77.4038 24.6085C77.4038 24.4178 77.3626 24.264 77.2803 24.147C77.1979 24.03 77.0831 23.9347 76.9358 23.861C76.7884 23.783 76.6151 23.7158 76.4157 23.6595C76.2208 23.6032 76.0084 23.5425 75.7788 23.4775C75.3498 23.3518 74.9533 23.2067 74.5893 23.042C74.2253 22.873 73.9328 22.6477 73.7118 22.366C73.4908 22.0843 73.3803 21.7073 73.3803 21.235C73.3803 20.6543 73.6013 20.1842 74.0433 19.8245C74.4853 19.4605 75.0659 19.2785 75.7853 19.2785C76.2403 19.2785 76.6498 19.3478 77.0138 19.4865C77.3821 19.6252 77.6811 19.8483 77.9108 20.156C78.1448 20.4593 78.2878 20.8667 78.3398 21.378H77.1503C77.1069 21.144 77.0268 20.9468 76.9098 20.7865C76.7971 20.6262 76.6476 20.5048 76.4613 20.4225C76.2749 20.3402 76.0474 20.299 75.7788 20.299C75.5534 20.299 75.3498 20.3315 75.1678 20.3965C74.9858 20.4572 74.8406 20.5547 74.7323 20.689C74.6239 20.8233 74.5698 21.001 74.5698 21.222C74.5698 21.4647 74.6348 21.6597 74.7648 21.807C74.8948 21.9543 75.0789 22.0778 75.3173 22.1775C75.5556 22.2728 75.8351 22.3682 76.1558 22.4635C76.4028 22.5415 76.6671 22.6238 76.9488 22.7105C77.2304 22.7928 77.4948 22.9033 77.7418 23.042C77.9931 23.1807 78.1968 23.367 78.3528 23.601C78.5131 23.8307 78.5933 24.1318 78.5933 24.5045C78.5933 25.1718 78.3463 25.6897 77.8523 26.058C77.3583 26.4263 76.7126 26.6105 75.9153 26.6105ZM82.908 26.5975C82.2624 26.5975 81.6947 26.4567 81.205 26.175C80.7197 25.8933 80.3427 25.4795 80.074 24.9335C79.8054 24.3832 79.671 23.7115 79.671 22.9185C79.671 22.1558 79.8097 21.5015 80.087 20.9555C80.3644 20.4095 80.7457 19.9913 81.231 19.701C81.7164 19.4107 82.2689 19.2655 82.8885 19.2655C83.5039 19.2655 84.0304 19.3977 84.468 19.662C84.91 19.9263 85.2502 20.3055 85.4885 20.7995C85.7269 21.2892 85.8439 21.8763 85.8395 22.561C85.8395 22.6997 85.8352 22.8145 85.8265 22.9055C85.8179 22.9965 85.8114 23.0918 85.807 23.1915H80.88C80.9104 23.9715 81.1054 24.563 81.465 24.966C81.829 25.3647 82.2927 25.564 82.856 25.564C83.3327 25.564 83.701 25.4643 83.961 25.265C84.2254 25.0613 84.3922 24.8013 84.4615 24.485H85.6445C85.6142 24.9357 85.4755 25.3192 85.2285 25.6355C84.9859 25.9518 84.6652 26.1923 84.2665 26.357C83.8679 26.5173 83.415 26.5975 82.908 26.5975ZM81.5235 22.2815H84.624C84.6154 21.6748 84.4659 21.1982 84.1755 20.8515C83.8852 20.5048 83.441 20.3315 82.843 20.3315C82.2147 20.3315 81.738 20.546 81.413 20.975C81.088 21.3997 80.9104 21.9868 80.88 22.7365C80.9147 22.5588 80.984 22.4397 81.088 22.379C81.1964 22.314 81.3415 22.2815 81.5235 22.2815ZM92.8071 26.578C92.3478 26.578 91.9773 26.4978 91.6956 26.3375C91.4183 26.1728 91.2125 25.9843 91.0781 25.772C90.9438 25.5597 90.8636 25.382 90.8376 25.239L90.4541 25.174L90.9156 24.836C90.9546 24.94 91.0391 25.0505 91.1691 25.1675C91.2991 25.2845 91.4746 25.3863 91.6956 25.473C91.921 25.5553 92.1875 25.5965 92.4951 25.5965C93.0281 25.5965 93.4701 25.3777 93.8211 24.94C94.1765 24.5023 94.3541 23.8155 94.3541 22.8795C94.3541 22.0388 94.1895 21.4062 93.8601 20.9815C93.5351 20.5525 93.1191 20.338 92.6121 20.338C92.2698 20.338 91.9795 20.3922 91.7411 20.5005C91.5071 20.6088 91.3208 20.741 91.1821 20.897C91.0478 21.0487 90.959 21.196 90.9156 21.339V20.858C90.9243 20.7193 90.9676 20.5612 91.0456 20.3835C91.1236 20.2015 91.2428 20.026 91.4031 19.857C91.5678 19.688 91.778 19.5493 92.0336 19.441C92.2893 19.3283 92.6013 19.272 92.9696 19.272C93.5113 19.272 93.9793 19.4172 94.3736 19.7075C94.768 19.9978 95.0713 20.4073 95.2836 20.936C95.496 21.4647 95.6021 22.0843 95.6021 22.795C95.6021 23.4407 95.522 24.0018 95.3616 24.4785C95.2013 24.9508 94.9846 25.343 94.7116 25.655C94.443 25.967 94.1418 26.1988 93.8081 26.3505C93.4788 26.5022 93.1451 26.578 92.8071 26.578ZM89.7131 29.1195V19.402H90.9026L90.9156 20.364V24.836L90.8376 25.239L90.9156 26.5065L90.9221 29.1195H89.7131ZM99.0785 26.578C98.6278 26.578 98.2378 26.4935 97.9085 26.3245C97.5835 26.1512 97.3322 25.9172 97.1545 25.6225C96.9812 25.3278 96.8945 24.9942 96.8945 24.6215C96.8945 24.2358 96.9703 23.9108 97.122 23.6465C97.2737 23.3778 97.4925 23.159 97.7785 22.99C98.0645 22.8167 98.4112 22.6867 98.8185 22.6C99.0872 22.5393 99.371 22.4917 99.67 22.457C99.9733 22.4223 100.264 22.3942 100.541 22.3725C100.818 22.3508 101.055 22.3357 101.25 22.327V21.9305C101.25 21.3628 101.13 20.9555 100.892 20.7085C100.654 20.4572 100.283 20.3315 99.7805 20.3315C99.4685 20.3315 99.1933 20.3727 98.955 20.455C98.721 20.5373 98.539 20.6912 98.409 20.9165C98.279 21.1375 98.2162 21.4625 98.2205 21.8915H97.0895C97.0375 21.3065 97.1198 20.8212 97.3365 20.4355C97.5532 20.0455 97.8782 19.7552 98.3115 19.5645C98.7448 19.3695 99.2583 19.272 99.852 19.272C100.19 19.272 100.513 19.3132 100.821 19.3955C101.128 19.4735 101.401 19.6078 101.64 19.7985C101.878 19.9848 102.066 20.2405 102.205 20.5655C102.344 20.8905 102.413 21.2978 102.413 21.7875V26.5H101.237L101.25 24.9595C101.141 25.4492 100.896 25.8413 100.515 26.136C100.138 26.4307 99.6592 26.578 99.0785 26.578ZM99.358 25.6225C99.6743 25.6225 99.9647 25.564 100.229 25.447C100.498 25.33 100.723 25.1805 100.905 24.9985C101.087 24.8165 101.202 24.6302 101.25 24.4395V23.0615C100.998 23.0788 100.719 23.1092 100.411 23.1525C100.103 23.1915 99.8325 23.2392 99.5985 23.2955C99.1305 23.4038 98.7817 23.549 98.552 23.731C98.3267 23.913 98.214 24.1752 98.214 24.5175C98.214 24.7212 98.2573 24.9075 98.344 25.0765C98.435 25.2412 98.565 25.3733 98.734 25.473C98.903 25.5683 99.111 25.6182 99.358 25.6225ZM104.459 26.5V19.402H105.486L105.616 22.132L105.473 21.7615C105.503 21.4928 105.561 21.2133 105.648 20.923C105.739 20.6327 105.867 20.3618 106.032 20.1105C106.201 19.8548 106.415 19.649 106.675 19.493C106.939 19.337 107.262 19.259 107.644 19.259C107.717 19.259 107.787 19.2633 107.852 19.272C107.921 19.2807 107.988 19.2915 108.053 19.3045V20.585C107.945 20.5503 107.83 20.5287 107.709 20.52C107.592 20.507 107.481 20.5005 107.377 20.5005C107.165 20.5005 106.95 20.5417 106.734 20.624C106.517 20.7063 106.315 20.8385 106.129 21.0205C105.943 21.1982 105.789 21.43 105.668 21.716V26.5H104.459ZM110.949 26.578C110.498 26.578 110.108 26.4935 109.779 26.3245C109.454 26.1512 109.202 25.9172 109.025 25.6225C108.851 25.3278 108.765 24.9942 108.765 24.6215C108.765 24.2358 108.84 23.9108 108.992 23.6465C109.144 23.3778 109.363 23.159 109.649 22.99C109.935 22.8167 110.281 22.6867 110.689 22.6C110.957 22.5393 111.241 22.4917 111.54 22.457C111.843 22.4223 112.134 22.3942 112.411 22.3725C112.688 22.3508 112.925 22.3357 113.12 22.327V21.9305C113.12 21.3628 113 20.9555 112.762 20.7085C112.524 20.4572 112.153 20.3315 111.651 20.3315C111.339 20.3315 111.063 20.3727 110.825 20.455C110.591 20.5373 110.409 20.6912 110.279 20.9165C110.149 21.1375 110.086 21.4625 110.091 21.8915H108.96C108.908 21.3065 108.99 20.8212 109.207 20.4355C109.423 20.0455 109.748 19.7552 110.182 19.5645C110.615 19.3695 111.128 19.272 111.722 19.272C112.06 19.272 112.383 19.3132 112.691 19.3955C112.998 19.4735 113.271 19.6078 113.51 19.7985C113.748 19.9848 113.936 20.2405 114.075 20.5655C114.214 20.8905 114.283 21.2978 114.283 21.7875V26.5H113.107L113.12 24.9595C113.011 25.4492 112.766 25.8413 112.385 26.136C112.008 26.4307 111.529 26.578 110.949 26.578ZM111.228 25.6225C111.544 25.6225 111.835 25.564 112.099 25.447C112.368 25.33 112.593 25.1805 112.775 24.9985C112.957 24.8165 113.072 24.6302 113.12 24.4395V23.0615C112.868 23.0788 112.589 23.1092 112.281 23.1525C111.973 23.1915 111.703 23.2392 111.469 23.2955C111.001 23.4038 110.652 23.549 110.422 23.731C110.197 23.913 110.084 24.1752 110.084 24.5175C110.084 24.7212 110.127 24.9075 110.214 25.0765C110.305 25.2412 110.435 25.3733 110.604 25.473C110.773 25.5683 110.981 25.6182 111.228 25.6225Z" fill="white" fill-opacity="0.6"/>
<path d="M118.612 26.5V19.402H119.925L120.094 22.1385L119.958 21.7615C119.988 21.4755 120.044 21.1852 120.127 20.8905C120.213 20.5958 120.335 20.325 120.491 20.078C120.651 19.831 120.855 19.6338 121.102 19.4865C121.353 19.3348 121.658 19.259 122.018 19.259C122.105 19.259 122.191 19.2633 122.278 19.272C122.365 19.2807 122.445 19.2958 122.519 19.3175V20.9555C122.371 20.9078 122.213 20.8775 122.044 20.8645C121.879 20.8472 121.728 20.8385 121.589 20.8385C121.42 20.8385 121.238 20.8732 121.043 20.9425C120.848 21.0075 120.668 21.1072 120.504 21.2415C120.339 21.3758 120.22 21.5427 120.146 21.742V26.5H118.612ZM126.422 26.5975C125.737 26.5975 125.144 26.4588 124.641 26.1815C124.143 25.8998 123.759 25.486 123.49 24.94C123.222 24.394 123.087 23.7245 123.087 22.9315C123.087 22.1602 123.228 21.5015 123.51 20.9555C123.796 20.4052 124.188 19.987 124.686 19.701C125.185 19.4107 125.757 19.2655 126.402 19.2655C127.039 19.2655 127.583 19.3912 128.034 19.6425C128.489 19.8938 128.836 20.2665 129.074 20.7605C129.312 21.2502 129.431 21.8525 129.431 22.5675C129.431 22.7062 129.427 22.821 129.418 22.912C129.414 23.003 129.408 23.1113 129.399 23.237H124.615C124.654 23.9607 124.832 24.4937 125.148 24.836C125.464 25.174 125.852 25.343 126.311 25.343C126.74 25.343 127.068 25.252 127.293 25.07C127.523 24.8837 127.67 24.6757 127.735 24.446H129.217C129.178 24.901 129.035 25.291 128.788 25.616C128.541 25.9367 128.214 26.1815 127.806 26.3505C127.403 26.5152 126.942 26.5975 126.422 26.5975ZM125.317 22.1905H127.904C127.891 21.6705 127.765 21.2697 127.527 20.988C127.289 20.702 126.896 20.559 126.35 20.559C125.783 20.559 125.36 20.7497 125.083 21.131C124.806 21.508 124.65 22.0302 124.615 22.6975C124.65 22.5025 124.723 22.3703 124.836 22.301C124.949 22.2273 125.109 22.1905 125.317 22.1905ZM132.7 26.578C132.267 26.578 131.884 26.4978 131.55 26.3375C131.216 26.1728 130.954 25.9453 130.763 25.655C130.577 25.3647 130.484 25.0288 130.484 24.6475C130.484 24.2272 130.56 23.8805 130.711 23.6075C130.863 23.3345 131.082 23.1178 131.368 22.9575C131.658 22.7928 131.998 22.6672 132.388 22.5805C132.666 22.5198 132.958 22.47 133.266 22.431C133.578 22.392 133.866 22.3617 134.13 22.34C134.395 22.314 134.598 22.2967 134.741 22.288V22.002C134.741 21.521 134.644 21.1613 134.449 20.923C134.258 20.6803 133.933 20.559 133.474 20.559C133.179 20.559 132.932 20.5958 132.733 20.6695C132.534 20.7388 132.382 20.8732 132.278 21.0725C132.178 21.2675 132.124 21.5535 132.115 21.9305H130.718C130.67 21.3195 130.757 20.819 130.978 20.429C131.203 20.0347 131.537 19.7443 131.979 19.558C132.425 19.3673 132.952 19.272 133.558 19.272C133.918 19.272 134.256 19.3132 134.572 19.3955C134.893 19.4735 135.177 19.61 135.424 19.805C135.671 19.9957 135.866 20.2578 136.009 20.5915C136.152 20.9252 136.223 21.3477 136.223 21.859V26.5H134.722L134.741 24.9075C134.659 25.3885 134.451 25.7872 134.117 26.1035C133.784 26.4198 133.311 26.578 132.7 26.578ZM133.11 25.421C133.335 25.421 133.563 25.382 133.792 25.304C134.026 25.226 134.23 25.1133 134.403 24.966C134.581 24.8187 134.694 24.6453 134.741 24.446V23.146C134.568 23.1633 134.362 23.1937 134.124 23.237C133.89 23.2803 133.688 23.3193 133.519 23.354C133.034 23.4537 132.683 23.5858 132.466 23.7505C132.254 23.9108 132.148 24.1578 132.148 24.4915C132.148 24.6822 132.191 24.849 132.278 24.992C132.369 25.1307 132.488 25.2368 132.635 25.3105C132.783 25.3842 132.941 25.421 133.11 25.421ZM138.112 26.5V16.386H139.646V26.5H138.112ZM141.591 26.5V19.402H143.144L143.125 26.5H141.591ZM142.377 18.3555C142.096 18.3555 141.857 18.258 141.662 18.063C141.467 17.8637 141.37 17.6102 141.37 17.3025C141.37 16.9992 141.467 16.7522 141.662 16.5615C141.857 16.3708 142.096 16.2755 142.377 16.2755C142.65 16.2755 142.884 16.3708 143.079 16.5615C143.279 16.7522 143.378 16.9992 143.378 17.3025C143.378 17.6102 143.279 17.8637 143.079 18.063C142.884 18.258 142.65 18.3555 142.377 18.3555ZM144.212 26.5L147.17 21.534C147.308 21.3043 147.449 21.1115 147.592 20.9555C147.735 20.7952 147.893 20.6652 148.067 20.5655L148.255 20.598C148.013 20.6153 147.761 20.6348 147.501 20.6565C147.241 20.6782 147.005 20.689 146.793 20.689H144.68V19.4085H149.984L147.014 24.407C146.862 24.6627 146.687 24.8772 146.487 25.0505C146.292 25.2238 146.093 25.3712 145.889 25.4925L145.824 25.2845C146.054 25.2758 146.29 25.2607 146.533 25.239C146.78 25.2173 147.003 25.2065 147.202 25.2065H149.848V26.5H144.212ZM152.975 26.578C152.541 26.578 152.158 26.4978 151.824 26.3375C151.491 26.1728 151.228 25.9453 151.038 25.655C150.851 25.3647 150.758 25.0288 150.758 24.6475C150.758 24.2272 150.834 23.8805 150.986 23.6075C151.137 23.3345 151.356 23.1178 151.642 22.9575C151.933 22.7928 152.273 22.6672 152.663 22.5805C152.94 22.5198 153.233 22.47 153.54 22.431C153.852 22.392 154.14 22.3617 154.405 22.34C154.669 22.314 154.873 22.2967 155.016 22.288V22.002C155.016 21.521 154.918 21.1613 154.723 20.923C154.533 20.6803 154.208 20.559 153.748 20.559C153.454 20.559 153.207 20.5958 153.007 20.6695C152.808 20.7388 152.656 20.8732 152.552 21.0725C152.453 21.2675 152.398 21.5535 152.39 21.9305H150.992C150.945 21.3195 151.031 20.819 151.252 20.429C151.478 20.0347 151.811 19.7443 152.253 19.558C152.7 19.3673 153.226 19.272 153.833 19.272C154.192 19.272 154.53 19.3132 154.847 19.3955C155.167 19.4735 155.451 19.61 155.698 19.805C155.945 19.9957 156.14 20.2578 156.283 20.5915C156.426 20.9252 156.498 21.3477 156.498 21.859V26.5H154.996L155.016 24.9075C154.933 25.3885 154.725 25.7872 154.392 26.1035C154.058 26.4198 153.586 26.578 152.975 26.578ZM153.384 25.421C153.61 25.421 153.837 25.382 154.067 25.304C154.301 25.226 154.504 25.1133 154.678 24.966C154.855 24.8187 154.968 24.6453 155.016 24.446V23.146C154.842 23.1633 154.637 23.1937 154.398 23.237C154.164 23.2803 153.963 23.3193 153.794 23.354C153.308 23.4537 152.957 23.5858 152.741 23.7505C152.528 23.9108 152.422 24.1578 152.422 24.4915C152.422 24.6822 152.466 24.849 152.552 24.992C152.643 25.1307 152.762 25.2368 152.91 25.3105C153.057 25.3842 153.215 25.421 153.384 25.421ZM158.386 26.5V19.402H159.699L159.868 22.1385L159.732 21.7615C159.762 21.4755 159.819 21.1852 159.901 20.8905C159.988 20.5958 160.109 20.325 160.265 20.078C160.425 19.831 160.629 19.6338 160.876 19.4865C161.127 19.3348 161.433 19.259 161.792 19.259C161.879 19.259 161.966 19.2633 162.052 19.272C162.139 19.2807 162.219 19.2958 162.293 19.3175V20.9555C162.146 20.9078 161.987 20.8775 161.818 20.8645C161.654 20.8472 161.502 20.8385 161.363 20.8385C161.194 20.8385 161.012 20.8732 160.817 20.9425C160.622 21.0075 160.443 21.1072 160.278 21.2415C160.113 21.3758 159.994 21.5427 159.92 21.742V26.5H158.386ZM167.562 26.578C167.128 26.578 166.745 26.4978 166.411 26.3375C166.078 26.1728 165.815 25.9453 165.625 25.655C165.438 25.3647 165.345 25.0288 165.345 24.6475C165.345 24.2272 165.421 23.8805 165.573 23.6075C165.724 23.3345 165.943 23.1178 166.229 22.9575C166.52 22.7928 166.86 22.6672 167.25 22.5805C167.527 22.5198 167.82 22.47 168.127 22.431C168.439 22.392 168.727 22.3617 168.992 22.34C169.256 22.314 169.46 22.2967 169.603 22.288V22.002C169.603 21.521 169.505 21.1613 169.31 20.923C169.12 20.6803 168.795 20.559 168.335 20.559C168.041 20.559 167.794 20.5958 167.594 20.6695C167.395 20.7388 167.243 20.8732 167.139 21.0725C167.04 21.2675 166.985 21.5535 166.977 21.9305H165.579C165.532 21.3195 165.618 20.819 165.839 20.429C166.065 20.0347 166.398 19.7443 166.84 19.558C167.287 19.3673 167.813 19.272 168.42 19.272C168.779 19.272 169.117 19.3132 169.434 19.3955C169.754 19.4735 170.038 19.61 170.285 19.805C170.532 19.9957 170.727 20.2578 170.87 20.5915C171.013 20.9252 171.085 21.3477 171.085 21.859V26.5H169.583L169.603 24.9075C169.52 25.3885 169.312 25.7872 168.979 26.1035C168.645 26.4198 168.173 26.578 167.562 26.578ZM167.971 25.421C168.197 25.421 168.424 25.382 168.654 25.304C168.888 25.226 169.091 25.1133 169.265 24.966C169.442 24.8187 169.555 24.6453 169.603 24.446V23.146C169.429 23.1633 169.224 23.1937 168.985 23.237C168.751 23.2803 168.55 23.3193 168.381 23.354C167.895 23.4537 167.544 23.5858 167.328 23.7505C167.115 23.9108 167.009 24.1578 167.009 24.4915C167.009 24.6822 167.053 24.849 167.139 24.992C167.23 25.1307 167.349 25.2368 167.497 25.3105C167.644 25.3842 167.802 25.421 167.971 25.421ZM175.866 26.6235C175.164 26.6235 174.561 26.4697 174.059 26.162C173.556 25.85 173.17 25.4167 172.902 24.862C172.637 24.3073 172.505 23.6638 172.505 22.9315C172.505 22.1602 172.642 21.5015 172.915 20.9555C173.188 20.4095 173.567 19.9935 174.052 19.7075C174.537 19.4172 175.096 19.272 175.729 19.272C176.357 19.272 176.884 19.389 177.309 19.623C177.738 19.8527 178.058 20.1625 178.271 20.5525C178.483 20.9382 178.58 21.3693 178.563 21.846H177.088C177.083 21.6553 177.053 21.482 176.997 21.326C176.94 21.1657 176.856 21.0313 176.743 20.923C176.635 20.8103 176.496 20.7237 176.327 20.663C176.158 20.6023 175.961 20.572 175.736 20.572C175.129 20.5677 174.698 20.7757 174.442 21.196C174.191 21.6163 174.065 22.184 174.065 22.899C174.065 23.7137 174.217 24.3225 174.52 24.7255C174.828 25.1242 175.307 25.3257 175.957 25.33C176.108 25.33 176.273 25.2867 176.451 25.2C176.633 25.109 176.786 24.9812 176.912 24.8165C177.042 24.6475 177.105 24.446 177.101 24.212H178.563C178.58 24.7103 178.461 25.1393 178.206 25.499C177.954 25.8587 177.621 26.136 177.205 26.331C176.789 26.526 176.342 26.6235 175.866 26.6235ZM175.794 29.0935C175.599 29.0935 175.421 29.074 175.261 29.035C175.105 28.996 174.932 28.9353 174.741 28.853L174.748 27.9235C174.973 28.0362 175.187 28.0925 175.391 28.0925C175.625 28.0925 175.772 28.0427 175.833 27.943C175.898 27.8433 175.931 27.7155 175.931 27.5595C175.931 27.3602 175.872 27.1782 175.755 27.0135C175.642 26.8532 175.456 26.682 175.196 26.5H175.658C176.186 26.6473 176.572 26.8402 176.815 27.0785C177.057 27.3212 177.179 27.592 177.179 27.891C177.179 28.2593 177.046 28.5518 176.782 28.7685C176.522 28.9852 176.193 29.0935 175.794 29.0935ZM182.718 26.5975C182.064 26.5975 181.494 26.4567 181.009 26.175C180.523 25.8933 180.146 25.4795 179.878 24.9335C179.609 24.3832 179.475 23.7093 179.475 22.912C179.475 22.158 179.616 21.508 179.897 20.962C180.183 20.416 180.573 19.9978 181.067 19.7075C181.561 19.4128 182.12 19.2655 182.744 19.2655C183.42 19.2655 183.999 19.4128 184.48 19.7075C184.965 19.9978 185.338 20.416 185.598 20.962C185.858 21.508 185.988 22.158 185.988 22.912C185.988 23.7093 185.843 24.3832 185.552 24.9335C185.266 25.4795 184.876 25.8933 184.382 26.175C183.888 26.4567 183.334 26.5975 182.718 26.5975ZM182.744 25.291C183.243 25.291 183.65 25.1047 183.966 24.732C184.283 24.3593 184.441 23.7527 184.441 22.912C184.441 22.132 184.287 21.547 183.979 21.157C183.672 20.767 183.251 20.572 182.718 20.572C182.22 20.572 181.813 20.7648 181.496 21.1505C181.184 21.5362 181.028 22.1233 181.028 22.912C181.028 23.7137 181.186 24.3117 181.503 24.706C181.823 25.096 182.237 25.291 182.744 25.291ZM183.583 18.3425C183.331 18.3425 183.128 18.2948 182.972 18.1995C182.82 18.0998 182.694 17.9893 182.595 17.868C182.499 17.7423 182.408 17.6318 182.322 17.5365C182.235 17.4412 182.131 17.3935 182.01 17.3935C181.836 17.3935 181.706 17.4585 181.62 17.5885C181.533 17.7185 181.488 17.9222 181.483 18.1995H180.508C180.5 17.7705 180.552 17.4173 180.664 17.14C180.781 16.8583 180.948 16.6503 181.165 16.516C181.381 16.3773 181.633 16.308 181.919 16.308C182.166 16.308 182.363 16.3557 182.51 16.451C182.662 16.542 182.785 16.6503 182.881 16.776C182.976 16.9017 183.067 17.0122 183.154 17.1075C183.24 17.2028 183.344 17.2505 183.466 17.2505C183.639 17.2505 183.771 17.1855 183.862 17.0555C183.958 16.9255 184.007 16.7218 184.012 16.4445H184.98C184.993 17.0685 184.872 17.5408 184.616 17.8615C184.361 18.1822 184.016 18.3425 183.583 18.3425ZM190.292 26.5975C189.607 26.5975 189.014 26.4588 188.511 26.1815C188.013 25.8998 187.629 25.486 187.361 24.94C187.092 24.394 186.958 23.7245 186.958 22.9315C186.958 22.1602 187.098 21.5015 187.38 20.9555C187.666 20.4052 188.058 19.987 188.557 19.701C189.055 19.4107 189.627 19.2655 190.273 19.2655C190.91 19.2655 191.453 19.3912 191.904 19.6425C192.359 19.8938 192.706 20.2665 192.944 20.7605C193.182 21.2502 193.302 21.8525 193.302 22.5675C193.302 22.7062 193.297 22.821 193.289 22.912C193.284 23.003 193.278 23.1113 193.269 23.237H188.485C188.524 23.9607 188.702 24.4937 189.018 24.836C189.334 25.174 189.722 25.343 190.182 25.343C190.611 25.343 190.938 25.252 191.163 25.07C191.393 24.8837 191.54 24.6757 191.605 24.446H193.087C193.048 24.901 192.905 25.291 192.658 25.616C192.411 25.9367 192.084 26.1815 191.677 26.3505C191.274 26.5152 190.812 26.5975 190.292 26.5975ZM189.187 22.1905H191.774C191.761 21.6705 191.635 21.2697 191.397 20.988C191.159 20.702 190.767 20.559 190.221 20.559C189.653 20.559 189.23 20.7497 188.953 21.131C188.676 21.508 188.52 22.0302 188.485 22.6975C188.52 22.5025 188.593 22.3703 188.706 22.301C188.819 22.2273 188.979 22.1905 189.187 22.1905ZM197.246 26.6105C196.713 26.6105 196.236 26.5325 195.816 26.3765C195.4 26.2205 195.068 25.98 194.821 25.655C194.578 25.3257 194.444 24.9053 194.418 24.394H195.9C195.956 24.758 196.102 25.0158 196.336 25.1675C196.574 25.3192 196.866 25.395 197.213 25.395C197.464 25.395 197.688 25.3712 197.883 25.3235C198.082 25.2715 198.238 25.187 198.351 25.07C198.468 24.9487 198.526 24.7862 198.526 24.5825C198.526 24.4395 198.494 24.3225 198.429 24.2315C198.368 24.1362 198.273 24.0538 198.143 23.9845C198.017 23.9152 197.857 23.8502 197.662 23.7895C197.471 23.7288 197.25 23.6617 196.999 23.588C196.548 23.458 196.138 23.3042 195.77 23.1265C195.402 22.9488 195.109 22.717 194.893 22.431C194.676 22.1407 194.568 21.7637 194.568 21.3C194.568 20.6673 194.802 20.1733 195.27 19.818C195.738 19.4583 196.34 19.2785 197.077 19.2785C197.553 19.2785 197.982 19.3478 198.364 19.4865C198.749 19.6208 199.066 19.8462 199.313 20.1625C199.56 20.4745 199.72 20.8992 199.794 21.4365L198.312 21.43C198.247 21.1787 198.151 20.9858 198.026 20.8515C197.9 20.7128 197.755 20.6175 197.59 20.5655C197.43 20.5092 197.254 20.481 197.064 20.481C196.856 20.481 196.676 20.5135 196.524 20.5785C196.372 20.6435 196.255 20.7345 196.173 20.8515C196.091 20.9685 196.05 21.1093 196.05 21.274C196.05 21.4647 196.104 21.625 196.212 21.755C196.325 21.8807 196.492 21.9912 196.713 22.0865C196.938 22.1775 197.217 22.2728 197.551 22.3725C197.82 22.4505 198.097 22.5372 198.383 22.6325C198.669 22.7235 198.936 22.8405 199.183 22.9835C199.43 23.1265 199.629 23.3172 199.781 23.5555C199.932 23.7895 200.008 24.095 200.008 24.472C200.008 25.1437 199.755 25.668 199.248 26.045C198.745 26.422 198.078 26.6105 197.246 26.6105Z" fill="white" fill-opacity="0.8"/>
<path d="M247.806 41.9134C246.07 42.9182 243.93 42.9182 242.194 41.9134L229.194 34.387C227.465 33.3858 226.4 31.5389 226.4 29.5406L226.4 14.4588C226.4 12.4604 227.465 10.6135 229.194 9.61231L242.194 2.08644C243.93 1.08172 246.07 1.08172 247.806 2.08644L260.806 9.61231C262.535 10.6135 263.6 12.4604 263.6 14.4588L263.6 29.5406C263.6 31.5389 262.535 33.3858 260.806 34.387L247.806 41.9134Z" fill="black" fill-opacity="0.6"/>
<path d="M247.806 41.9134C246.07 42.9182 243.93 42.9182 242.194 41.9134L229.194 34.387C227.465 33.3858 226.4 31.5389 226.4 29.5406L226.4 14.4588C226.4 12.4604 227.465 10.6135 229.194 9.61231L242.194 2.08644C243.93 1.08172 246.07 1.08172 247.806 2.08644L260.806 9.61231C262.535 10.6135 263.6 12.4604 263.6 14.4588L263.6 29.5406C263.6 31.5389 262.535 33.3858 260.806 34.387L247.806 41.9134Z" fill="url(#paint1_linear_520_1217)"/>
<path d="M247.806 41.9134C246.07 42.9182 243.93 42.9182 242.194 41.9134L229.194 34.387C227.465 33.3858 226.4 31.5389 226.4 29.5406L226.4 14.4588C226.4 12.4604 227.465 10.6135 229.194 9.61231L242.194 2.08644C243.93 1.08172 246.07 1.08172 247.806 2.08644L260.806 9.61231C262.535 10.6135 263.6 12.4604 263.6 14.4588L263.6 29.5406C263.6 31.5389 262.535 33.3858 260.806 34.387L247.806 41.9134Z" stroke="#1E90F3" stroke-width="0.8"/>
<path d="M239.652 27.3473L249.861 17.1384M250.347 24.4304V16.6523H242.569" stroke="white" stroke-width="1.2" stroke-linecap="round" stroke-linejoin="round"/>
<path d="M274.047 26.5V17.049H279.799V18.479H274.924L275.568 17.777V21.3455L274.924 20.897H279.442V22.3075H275.191L275.568 21.8135V25.7655L274.924 25.057H279.871V26.5H274.047ZM284.198 26.63C283.505 26.63 282.905 26.5195 282.398 26.2985C281.891 26.0775 281.496 25.746 281.215 25.304C280.933 24.8577 280.786 24.2987 280.773 23.627H282.255C282.272 23.991 282.361 24.2965 282.521 24.5435C282.686 24.7905 282.916 24.9747 283.21 25.096C283.509 25.2173 283.869 25.278 284.289 25.278C284.692 25.278 285.022 25.2303 285.277 25.135C285.533 25.0397 285.721 24.9053 285.843 24.732C285.964 24.5543 286.025 24.3463 286.025 24.108C286.025 23.848 285.951 23.6292 285.804 23.4515C285.656 23.2695 285.422 23.1005 285.102 22.9445C284.785 22.7842 284.365 22.613 283.841 22.431C283.299 22.2447 282.825 22.0172 282.417 21.7485C282.014 21.4798 281.7 21.1613 281.475 20.793C281.254 20.4203 281.143 19.9848 281.143 19.4865C281.143 18.6458 281.418 18.0045 281.969 17.5625C282.519 17.1205 283.273 16.8995 284.231 16.8995C284.894 16.8995 285.431 17.0013 285.843 17.205C286.254 17.4087 286.564 17.7098 286.772 18.1085C286.985 18.5028 287.125 18.9925 287.195 19.5775H285.706C285.667 19.2785 285.587 19.0315 285.466 18.8365C285.344 18.6415 285.178 18.4963 284.965 18.401C284.757 18.3013 284.495 18.2515 284.179 18.2515C283.689 18.2515 283.312 18.3512 283.048 18.5505C282.783 18.7455 282.651 19.038 282.651 19.428C282.651 19.649 282.692 19.8505 282.775 20.0325C282.861 20.2145 283.037 20.3943 283.301 20.572C283.57 20.7497 283.973 20.9447 284.51 21.157C284.926 21.3217 285.316 21.4798 285.68 21.6315C286.049 21.7788 286.371 21.95 286.649 22.145C286.93 22.34 287.151 22.5827 287.312 22.873C287.472 23.1633 287.554 23.5317 287.559 23.978C287.567 24.836 287.286 25.4925 286.714 25.9475C286.146 26.4025 285.308 26.63 284.198 26.63ZM292.664 26.6365C291.862 26.6365 291.145 26.4523 290.512 26.084C289.88 25.7157 289.379 25.1697 289.011 24.446C288.647 23.7223 288.465 22.8253 288.465 21.755C288.465 20.7497 288.642 19.883 288.998 19.155C289.357 18.4227 289.856 17.8593 290.493 17.465C291.13 17.0707 291.869 16.8735 292.709 16.8735C293.312 16.8735 293.877 16.9905 294.406 17.2245C294.939 17.4585 295.372 17.8138 295.706 18.2905C296.039 18.7628 296.215 19.363 296.232 20.091H294.666C294.64 19.6577 294.529 19.3088 294.334 19.0445C294.139 18.7802 293.892 18.5895 293.593 18.4725C293.299 18.3555 292.98 18.297 292.638 18.297C292.17 18.297 291.739 18.4292 291.344 18.6935C290.954 18.9578 290.638 19.3478 290.395 19.8635C290.157 20.3792 290.038 21.0118 290.038 21.7615C290.038 22.6282 290.161 23.3128 290.408 23.8155C290.655 24.3182 290.98 24.6778 291.383 24.8945C291.786 25.1068 292.22 25.213 292.683 25.213C293.173 25.213 293.559 25.1372 293.84 24.9855C294.122 24.8338 294.326 24.6323 294.451 24.381C294.581 24.1253 294.657 23.8502 294.679 23.5555H296.245C296.211 24.2012 296.05 24.7537 295.764 25.213C295.483 25.6723 295.082 26.0255 294.562 26.2725C294.042 26.5152 293.409 26.6365 292.664 26.6365Z" fill="white" fill-opacity="0.8"/>
<path d="M303.23 26.578C302.771 26.578 302.4 26.4978 302.118 26.3375C301.841 26.1728 301.635 25.9843 301.501 25.772C301.367 25.5597 301.286 25.382 301.26 25.239L300.877 25.174L301.338 24.836C301.377 24.94 301.462 25.0505 301.592 25.1675C301.722 25.2845 301.897 25.3863 302.118 25.473C302.344 25.5553 302.61 25.5965 302.918 25.5965C303.451 25.5965 303.893 25.3777 304.244 24.94C304.599 24.5023 304.777 23.8155 304.777 22.8795C304.777 22.0388 304.612 21.4062 304.283 20.9815C303.958 20.5525 303.542 20.338 303.035 20.338C302.693 20.338 302.402 20.3922 302.164 20.5005C301.93 20.6088 301.744 20.741 301.605 20.897C301.471 21.0487 301.382 21.196 301.338 21.339V20.858C301.347 20.7193 301.39 20.5612 301.468 20.3835C301.546 20.2015 301.666 20.026 301.826 19.857C301.991 19.688 302.201 19.5493 302.456 19.441C302.712 19.3283 303.024 19.272 303.392 19.272C303.934 19.272 304.402 19.4172 304.796 19.7075C305.191 19.9978 305.494 20.4073 305.706 20.936C305.919 21.4647 306.025 22.0843 306.025 22.795C306.025 23.4407 305.945 24.0018 305.784 24.4785C305.624 24.9508 305.407 25.343 305.134 25.655C304.866 25.967 304.565 26.1988 304.231 26.3505C303.902 26.5022 303.568 26.578 303.23 26.578ZM300.136 29.1195V19.402H301.325L301.338 20.364V24.836L301.26 25.239L301.338 26.5065L301.345 29.1195H300.136ZM309.501 26.578C309.051 26.578 308.661 26.4935 308.331 26.3245C308.006 26.1512 307.755 25.9172 307.577 25.6225C307.404 25.3278 307.317 24.9942 307.317 24.6215C307.317 24.2358 307.393 23.9108 307.545 23.6465C307.697 23.3778 307.915 23.159 308.201 22.99C308.487 22.8167 308.834 22.6867 309.241 22.6C309.51 22.5393 309.794 22.4917 310.093 22.457C310.396 22.4223 310.687 22.3942 310.964 22.3725C311.241 22.3508 311.477 22.3357 311.672 22.327V21.9305C311.672 21.3628 311.553 20.9555 311.315 20.7085C311.077 20.4572 310.706 20.3315 310.203 20.3315C309.891 20.3315 309.616 20.3727 309.378 20.455C309.144 20.5373 308.962 20.6912 308.832 20.9165C308.702 21.1375 308.639 21.4625 308.643 21.8915H307.512C307.46 21.3065 307.543 20.8212 307.759 20.4355C307.976 20.0455 308.301 19.7552 308.734 19.5645C309.168 19.3695 309.681 19.272 310.275 19.272C310.613 19.272 310.936 19.3132 311.243 19.3955C311.551 19.4735 311.824 19.6078 312.062 19.7985C312.301 19.9848 312.489 20.2405 312.628 20.5655C312.767 20.8905 312.836 21.2978 312.836 21.7875V26.5H311.659L311.672 24.9595C311.564 25.4492 311.319 25.8413 310.938 26.136C310.561 26.4307 310.082 26.578 309.501 26.578ZM309.781 25.6225C310.097 25.6225 310.388 25.564 310.652 25.447C310.921 25.33 311.146 25.1805 311.328 24.9985C311.51 24.8165 311.625 24.6302 311.672 24.4395V23.0615C311.421 23.0788 311.142 23.1092 310.834 23.1525C310.526 23.1915 310.255 23.2392 310.021 23.2955C309.553 23.4038 309.205 23.549 308.975 23.731C308.75 23.913 308.637 24.1752 308.637 24.5175C308.637 24.7212 308.68 24.9075 308.767 25.0765C308.858 25.2412 308.988 25.3733 309.157 25.473C309.326 25.5683 309.534 25.6182 309.781 25.6225ZM314.881 26.5V19.402H315.908L316.038 22.132L315.895 21.7615C315.926 21.4928 315.984 21.2133 316.071 20.923C316.162 20.6327 316.29 20.3618 316.454 20.1105C316.623 19.8548 316.838 19.649 317.098 19.493C317.362 19.337 317.685 19.259 318.066 19.259C318.14 19.259 318.209 19.2633 318.274 19.272C318.344 19.2807 318.411 19.2915 318.476 19.3045V20.585C318.368 20.5503 318.253 20.5287 318.131 20.52C318.014 20.507 317.904 20.5005 317.8 20.5005C317.588 20.5005 317.373 20.5417 317.156 20.624C316.94 20.7063 316.738 20.8385 316.552 21.0205C316.366 21.1982 316.212 21.43 316.09 21.716V26.5H314.881ZM321.371 26.578C320.921 26.578 320.531 26.4935 320.201 26.3245C319.876 26.1512 319.625 25.9172 319.447 25.6225C319.274 25.3278 319.187 24.9942 319.187 24.6215C319.187 24.2358 319.263 23.9108 319.415 23.6465C319.567 23.3778 319.785 23.159 320.071 22.99C320.357 22.8167 320.704 22.6867 321.111 22.6C321.38 22.5393 321.664 22.4917 321.963 22.457C322.266 22.4223 322.557 22.3942 322.834 22.3725C323.111 22.3508 323.347 22.3357 323.542 22.327V21.9305C323.542 21.3628 323.423 20.9555 323.185 20.7085C322.947 20.4572 322.576 20.3315 322.073 20.3315C321.761 20.3315 321.486 20.3727 321.248 20.455C321.014 20.5373 320.832 20.6912 320.702 20.9165C320.572 21.1375 320.509 21.4625 320.513 21.8915H319.382C319.33 21.3065 319.413 20.8212 319.629 20.4355C319.846 20.0455 320.171 19.7552 320.604 19.5645C321.038 19.3695 321.551 19.272 322.145 19.272C322.483 19.272 322.806 19.3132 323.113 19.3955C323.421 19.4735 323.694 19.6078 323.932 19.7985C324.171 19.9848 324.359 20.2405 324.498 20.5655C324.637 20.8905 324.706 21.2978 324.706 21.7875V26.5H323.529L323.542 24.9595C323.434 25.4492 323.189 25.8413 322.808 26.136C322.431 26.4307 321.952 26.578 321.371 26.578ZM321.651 25.6225C321.967 25.6225 322.258 25.564 322.522 25.447C322.791 25.33 323.016 25.1805 323.198 24.9985C323.38 24.8165 323.495 24.6302 323.542 24.4395V23.0615C323.291 23.0788 323.012 23.1092 322.704 23.1525C322.396 23.1915 322.125 23.2392 321.891 23.2955C321.423 23.4038 321.075 23.549 320.845 23.731C320.62 23.913 320.507 24.1752 320.507 24.5175C320.507 24.7212 320.55 24.9075 320.637 25.0765C320.728 25.2412 320.858 25.3733 321.027 25.473C321.196 25.5683 321.404 25.6182 321.651 25.6225ZM331.368 26.6105C330.879 26.6105 330.43 26.5368 330.023 26.3895C329.62 26.2378 329.293 26.0038 329.041 25.6875C328.79 25.3668 328.649 24.9552 328.619 24.4525H329.815C329.893 24.8858 330.064 25.1848 330.328 25.3495C330.597 25.5098 330.937 25.59 331.349 25.59C331.631 25.59 331.884 25.5597 332.109 25.499C332.339 25.4383 332.521 25.3365 332.655 25.1935C332.79 25.0505 332.857 24.8555 332.857 24.6085C332.857 24.4178 332.816 24.264 332.733 24.147C332.651 24.03 332.536 23.9347 332.389 23.861C332.242 23.783 332.068 23.7158 331.869 23.6595C331.674 23.6032 331.462 23.5425 331.232 23.4775C330.803 23.3518 330.406 23.2067 330.042 23.042C329.678 22.873 329.386 22.6477 329.165 22.366C328.944 22.0843 328.833 21.7073 328.833 21.235C328.833 20.6543 329.054 20.1842 329.496 19.8245C329.938 19.4605 330.519 19.2785 331.238 19.2785C331.693 19.2785 332.103 19.3478 332.467 19.4865C332.835 19.6252 333.134 19.8483 333.364 20.156C333.598 20.4593 333.741 20.8667 333.793 21.378H332.603C332.56 21.144 332.48 20.9468 332.363 20.7865C332.25 20.6262 332.101 20.5048 331.914 20.4225C331.728 20.3402 331.501 20.299 331.232 20.299C331.007 20.299 330.803 20.3315 330.621 20.3965C330.439 20.4572 330.294 20.5547 330.185 20.689C330.077 20.8233 330.023 21.001 330.023 21.222C330.023 21.4647 330.088 21.6597 330.218 21.807C330.348 21.9543 330.532 22.0778 330.77 22.1775C331.009 22.2728 331.288 22.3682 331.609 22.4635C331.856 22.5415 332.12 22.6238 332.402 22.7105C332.684 22.7928 332.948 22.9033 333.195 23.042C333.446 23.1807 333.65 23.367 333.806 23.601C333.966 23.8307 334.046 24.1318 334.046 24.5045C334.046 25.1718 333.799 25.6897 333.305 26.058C332.811 26.4263 332.166 26.6105 331.368 26.6105ZM337.406 26.578C336.955 26.578 336.565 26.4935 336.236 26.3245C335.911 26.1512 335.659 25.9172 335.482 25.6225C335.308 25.3278 335.222 24.9942 335.222 24.6215C335.222 24.2358 335.297 23.9108 335.449 23.6465C335.601 23.3778 335.82 23.159 336.106 22.99C336.392 22.8167 336.738 22.6867 337.146 22.6C337.414 22.5393 337.698 22.4917 337.997 22.457C338.3 22.4223 338.591 22.3942 338.868 22.3725C339.145 22.3508 339.382 22.3357 339.577 22.327V21.9305C339.577 21.3628 339.457 20.9555 339.219 20.7085C338.981 20.4572 338.61 20.3315 338.108 20.3315C337.796 20.3315 337.52 20.3727 337.282 20.455C337.048 20.5373 336.866 20.6912 336.736 20.9165C336.606 21.1375 336.543 21.4625 336.548 21.8915H335.417C335.365 21.3065 335.447 20.8212 335.664 20.4355C335.88 20.0455 336.205 19.7552 336.639 19.5645C337.072 19.3695 337.585 19.272 338.179 19.272C338.517 19.272 338.84 19.3132 339.148 19.3955C339.455 19.4735 339.728 19.6078 339.967 19.7985C340.205 19.9848 340.393 20.2405 340.532 20.5655C340.671 20.8905 340.74 21.2978 340.74 21.7875V26.5H339.564L339.577 24.9595C339.468 25.4492 339.223 25.8413 338.842 26.136C338.465 26.4307 337.986 26.578 337.406 26.578ZM337.685 25.6225C338.001 25.6225 338.292 25.564 338.556 25.447C338.825 25.33 339.05 25.1805 339.232 24.9985C339.414 24.8165 339.529 24.6302 339.577 24.4395V23.0615C339.325 23.0788 339.046 23.1092 338.738 23.1525C338.43 23.1915 338.16 23.2392 337.926 23.2955C337.458 23.4038 337.109 23.549 336.879 23.731C336.654 23.913 336.541 24.1752 336.541 24.5175C336.541 24.7212 336.584 24.9075 336.671 25.0765C336.762 25.2412 336.892 25.3733 337.061 25.473C337.23 25.5683 337.438 25.6182 337.685 25.6225ZM342.833 26.5V19.4475H344.055L344.035 26.5H342.833ZM343.45 18.31C343.212 18.31 343.008 18.2277 342.839 18.063C342.675 17.8983 342.592 17.686 342.592 17.426C342.592 17.1703 342.675 16.9602 342.839 16.7955C343.008 16.6308 343.212 16.5485 343.45 16.5485C343.684 16.5485 343.884 16.6308 344.048 16.7955C344.217 16.9602 344.302 17.1703 344.302 17.426C344.302 17.686 344.217 17.8983 344.048 18.063C343.879 18.2277 343.68 18.31 343.45 18.31ZM346.239 26.5V19.402H347.266L347.396 22.132L347.253 21.7615C347.283 21.4928 347.342 21.2133 347.428 20.923C347.519 20.6327 347.647 20.3618 347.812 20.1105C347.981 19.8548 348.195 19.649 348.455 19.493C348.72 19.337 349.043 19.259 349.424 19.259C349.498 19.259 349.567 19.2633 349.632 19.272C349.701 19.2807 349.768 19.2915 349.833 19.3045V20.585C349.725 20.5503 349.61 20.5287 349.489 20.52C349.372 20.507 349.261 20.5005 349.157 20.5005C348.945 20.5005 348.731 20.5417 348.514 20.624C348.297 20.7063 348.096 20.8385 347.909 21.0205C347.723 21.1982 347.569 21.43 347.448 21.716V26.5H346.239Z" fill="white" fill-opacity="0.6"/>
<defs>
<linearGradient id="paint0_linear_520_1217" x1="-8.84541" y1="54.3514" x2="57.5543" y2="-2.99377" gradientUnits="userSpaceOnUse">
<stop stop-color="#1E90F3"/>
<stop offset="1" stop-color="#1E90F3" stop-opacity="0"/>
</linearGradient>
<linearGradient id="paint1_linear_520_1217" x1="217.155" y1="54.3514" x2="283.554" y2="-2.99377" gradientUnits="userSpaceOnUse">
<stop stop-color="#1E90F3"/>
<stop offset="1" stop-color="#1E90F3" stop-opacity="0"/>
</linearGradient>
<clipPath id="clip0_520_1217">
<rect width="22" height="22" fill="white" transform="translate(8 11)"/>
</clipPath>
</defs>
</svg>
