<svg width="18" height="18" viewBox="0 0 18 18" fill="none"
  xmlns="http://www.w3.org/2000/svg">
  <path d="M16.1483 5.46029L7.14828 14.4603C7.09604 14.5126 7.034 14.5541 6.96572 14.5824C6.89743 14.6107 6.82423 14.6253 6.75031 14.6253C6.67639 14.6253 6.6032 14.6107 6.53491 14.5824C6.46662 14.5541 6.40459 14.5126 6.35234 14.4603L2.41484 10.5228C2.3093 10.4172 2.25 10.2741 2.25 10.1248C2.25 9.97556 2.3093 9.8324 2.41484 9.72686C2.52039 9.62131 2.66355 9.56201 2.81281 9.56201C2.96208 9.56201 3.10523 9.62131 3.21078 9.72686L6.75031 13.2671L15.3523 4.66436C15.4579 4.55881 15.601 4.49951 15.7503 4.49951C15.8996 4.49951 16.0427 4.55881 16.1483 4.66436C16.2538 4.7699 16.3131 4.91306 16.3131 5.06232C16.3131 5.21159 16.2538 5.35475 16.1483 5.46029Z" fill="white"/>
</svg>
