<svg width="310" height="126" viewBox="0 0 310 126" fill="none" xmlns="http://www.w3.org/2000/svg">
<g clip-path="url(#clip0_513_791)">
<rect width="310" height="126" rx="4" fill="white" fill-opacity="0.04"/>
<rect width="310" height="126" rx="4" fill="url(#paint0_linear_513_791)" fill-opacity="0.45"/>
<rect x="0.5" y="0.5" width="309" height="125" rx="3.5" stroke="white" stroke-opacity="0.04"/>
<path d="M300.642 16.8661L301.245 17.0056L301.933 17.2463L302.602 17.5695L303.245 17.9735L336.64 41.949C337.643 42.6698 338.421 43.6618 338.881 44.8087C339.341 45.9555 339.465 47.2098 339.237 48.4245L339.057 49.1581L329.424 80.1971C328.952 81.7176 327.938 83.0119 326.575 83.8346C325.212 84.6572 323.595 84.951 322.03 84.6603L321.29 84.4783L308.874 80.625L295.388 124.08C294.416 127.212 292.297 129.862 289.454 131.498C286.612 133.134 283.256 133.634 280.059 132.9L279.118 132.642L217.039 113.375C213.907 112.404 211.257 110.285 209.621 107.442C207.985 104.6 207.485 101.244 208.219 98.0473L208.477 97.1065L221.963 53.6518L209.548 49.7985C208.027 49.3264 206.733 48.3127 205.91 46.9497C205.087 45.5866 204.794 43.9691 205.084 42.4038L205.266 41.664L214.899 10.6249C215.265 9.44438 215.96 8.39264 216.903 7.59303C217.845 6.79343 218.996 6.27912 220.221 6.11041L220.974 6.05156L262.075 5.19587C263.104 5.17468 264.124 5.39848 265.051 5.84883C265.977 6.29919 266.783 6.9632 267.402 7.78616C268.021 8.60911 268.436 9.56744 268.613 10.5822C268.789 11.5969 268.721 12.639 268.416 13.6226C267.402 16.8398 267.678 20.3254 269.186 23.3429C270.694 26.3605 273.316 28.6736 276.498 29.7937C279.68 30.9138 283.173 30.7531 286.239 29.3456C289.304 27.9381 291.703 25.394 292.927 22.2507L293.446 20.7782L293.769 20.1095L294.257 19.3489L294.728 18.7943L295.216 18.3195L295.817 17.8732L296.4 17.5095C296.852 17.2822 297.294 17.1064 297.756 16.9776L298.454 16.8335L299.178 16.7588L299.91 16.7682L300.642 16.8661Z" fill="url(#paint1_linear_513_791)"/>
</g>
<defs>
<linearGradient id="paint0_linear_513_791" x1="0" y1="0" x2="310" y2="126" gradientUnits="userSpaceOnUse">
<stop stop-color="#1E90F3" stop-opacity="0"/>
<stop offset="1" stop-color="#1E90F3" stop-opacity="0.305882"/>
</linearGradient>
<linearGradient id="paint1_linear_513_791" x1="282.759" y1="11.2666" x2="248.079" y2="123.009" gradientUnits="userSpaceOnUse">
<stop stop-color="#1E90F3"/>
<stop offset="1" stop-color="#1E90F3" stop-opacity="0.08"/>
</linearGradient>
<clipPath id="clip0_513_791">
<rect width="310" height="126" rx="4" fill="white"/>
</clipPath>
</defs>
</svg>
