<svg width="310" height="126" viewBox="0 0 310 126" fill="none" xmlns="http://www.w3.org/2000/svg">
<g clip-path="url(#clip0_513_800)">
<rect width="310" height="126" rx="4" fill="white" fill-opacity="0.04"/>
<rect width="310" height="126" rx="4" fill="url(#paint0_linear_513_800)" fill-opacity="0.45"/>
<rect x="0.5" y="0.5" width="309" height="125" rx="3.5" stroke="white" stroke-opacity="0.04"/>
<path d="M325.25 37.0824C317.53 31.5572 308.907 26.9741 299.674 23.5201C299.591 23.5016 299.505 23.5014 299.422 23.5196C299.339 23.5378 299.261 23.5739 299.193 23.6253C297.652 25.4948 295.8 27.9603 294.514 29.878C284.678 26.4406 274.383 24.4882 263.971 24.086C263.488 21.7672 262.656 18.8581 261.843 16.5422C261.803 16.4036 261.624 16.3042 261.433 16.268C251.577 16.102 241.938 17.2219 232.668 19.5252C232.605 19.5132 232.529 19.5643 232.454 19.6155C210.266 42.0685 200.745 66.203 198.399 91.4361C198.375 91.5625 198.415 91.7011 198.53 91.7885C208.4 102.307 218.449 109.453 228.694 114.868C228.873 114.967 229.076 114.94 229.163 114.826C232.368 111.831 235.354 108.598 238.058 105.115C238.234 104.886 238.154 104.609 237.912 104.497C234.549 102.418 231.424 100.123 228.412 97.5863C228.181 97.4116 228.253 97.0322 228.48 96.8787C229.276 96.5056 230.084 96.0692 230.88 95.6961C231.031 95.5938 231.222 95.63 231.337 95.7173C251.343 109.796 274.95 114.272 298.466 108.448C298.605 108.409 298.796 108.445 298.9 108.595C299.492 109.297 300.096 109.936 300.688 110.638C300.906 110.876 300.834 111.255 300.492 111.321C296.812 112.654 293.012 113.571 289.122 114.274C288.855 114.289 288.731 114.593 288.759 114.795C290.064 119.038 291.659 123.14 293.481 127.088C293.66 127.188 293.839 127.287 294.042 127.26C305.622 125.984 317.589 123.014 330.625 116.839C330.764 116.8 330.852 116.686 330.876 116.559C339.107 88.4463 336.375 62.1846 325.48 37.2571C325.428 37.1818 325.377 37.1065 325.25 37.0824ZM245.36 84.6861C238.806 83.4432 234.473 76.3985 235.876 69.0005C237.279 61.6024 243.763 56.6091 250.444 57.8761C257.189 59.1551 261.383 66.2389 259.928 73.5617C258.525 80.9597 252.041 85.9531 245.36 84.6861ZM289.71 93.0966C283.156 91.8537 278.823 84.809 280.226 77.411C281.629 70.0129 288.113 65.0196 294.794 66.2866C301.539 67.5657 305.733 74.6495 304.278 81.9722C302.875 89.3703 296.455 94.3757 289.71 93.0966Z" fill="url(#paint1_linear_513_800)"/>
</g>
<defs>
<linearGradient id="paint0_linear_513_800" x1="0" y1="0" x2="310" y2="126" gradientUnits="userSpaceOnUse">
<stop stop-color="#1E90F3" stop-opacity="0"/>
<stop offset="1" stop-color="#1E90F3"/>
</linearGradient>
<linearGradient id="paint1_linear_513_800" x1="280.596" y1="19.9017" x2="261.405" y2="121.098" gradientUnits="userSpaceOnUse">
<stop stop-color="#1E90F3"/>
<stop offset="1" stop-color="#1E90F3" stop-opacity="0.08"/>
</linearGradient>
<clipPath id="clip0_513_800">
<rect width="310" height="126" rx="4" fill="white"/>
</clipPath>
</defs>
</svg>
