<svg width="310" height="126" viewBox="0 0 310 126" fill="none" xmlns="http://www.w3.org/2000/svg">
<g clip-path="url(#clip0_513_781)">
<rect width="310" height="126" rx="4" fill="white" fill-opacity="0.04"/>
<rect width="310" height="126" rx="4" fill="url(#paint0_linear_513_781)" fill-opacity="0.45"/>
<rect x="0.5" y="0.5" width="309" height="125" rx="3.5" stroke="white" stroke-opacity="0.04"/>
<path d="M297.901 42.7531L251.143 28.5974L244.065 51.9769L290.824 66.1326L297.901 42.7531Z" fill="url(#paint1_linear_513_781)"/>
<path d="M313.025 49.7539L313.877 37.0656C314.06 34.3327 313.178 31.7654 311.577 29.7526L314.786 19.153C316.249 14.3193 313.506 9.19502 308.673 7.73175C303.836 6.26753 298.715 9.01129 297.251 13.8447L294.597 22.6118L291.675 21.7271L294.329 12.96C295.792 8.12626 293.05 3.002 288.216 1.53873C283.38 0.0745091 278.258 2.81827 276.795 7.65168L274.141 16.4188L271.064 15.4872L282.588 -22.5801C284.039 -27.3728 281.321 -32.4516 276.528 -33.9025C271.738 -35.3526 266.659 -32.6343 265.208 -27.8417L253.684 10.2257L253.444 10.1531C248.669 8.70748 243.603 10.7182 241.123 15.0431L234.799 26.0712C229.285 35.686 225.89 46.6055 224.983 57.653C224.106 68.3144 222.907 76.4182 221.092 83.9304L219.084 92.2681L212.935 112.582C209.007 125.554 216.366 139.299 229.336 143.226L252.592 150.266C265.562 154.193 279.309 146.838 283.236 133.865L289.333 113.717L292.34 105.5C295.001 98.231 298.5 90.8236 303.677 81.4771C309.049 71.7817 312.281 60.8123 313.025 49.7539ZM303.096 15.6142C303.585 14.0011 305.29 13.0883 306.903 13.5766C308.513 14.0641 309.429 15.7704 308.941 17.3835L306.287 26.1507L300.442 24.3812L303.096 15.6141L303.096 15.6142ZM282.639 9.42105C283.128 7.80794 284.833 6.89513 286.446 7.38348C288.057 7.87099 288.972 9.57732 288.484 11.1904L285.83 19.9575L279.985 18.1881L282.639 9.42105ZM271.053 -26.0723C271.528 -27.6415 273.192 -28.532 274.758 -28.0578C276.327 -27.5827 277.218 -25.9189 276.743 -24.3497L265.218 13.7176L259.528 11.995L271.053 -26.0723ZM233.796 64.82C234.286 63.2037 235.99 62.294 237.603 62.7824L246.37 65.4366C247.983 65.9249 248.897 67.6276 248.408 69.2435C247.919 70.8597 246.214 71.7694 244.601 71.2811L235.834 68.6269C234.221 68.1386 233.307 66.4359 233.796 64.82ZM234.521 125.654L228.676 123.885C227.063 123.396 226.149 121.694 226.639 120.078C227.128 118.461 228.832 117.552 230.446 118.04L236.29 119.81C237.904 120.298 238.817 122.001 238.328 123.616C237.839 125.232 236.134 126.142 234.521 125.654ZM238.06 113.964L232.215 112.195C230.602 111.707 229.688 110.004 230.178 108.388C230.667 106.772 232.371 105.862 233.984 106.35L239.829 108.12C241.442 108.608 242.356 110.311 241.867 111.927C241.378 113.543 239.673 114.453 238.06 113.964ZM241.599 102.275L235.754 100.505C234.141 100.017 233.227 98.3144 233.716 96.6985C234.206 95.0823 235.91 94.1726 237.523 94.661L243.368 96.4305C244.981 96.9188 245.895 98.6215 245.406 100.237C244.917 101.853 243.212 102.763 241.599 102.275ZM245.138 90.5852L239.293 88.8158C237.68 88.3274 236.766 86.6247 237.255 85.0088C237.745 83.3926 239.449 82.4829 241.062 82.9712L246.907 84.7407C248.52 85.2291 249.434 86.9318 248.945 88.5477C248.456 90.1636 246.751 91.0736 245.138 90.5852ZM249.133 130.078L243.288 128.308C241.675 127.82 240.761 126.117 241.251 124.501C241.74 122.885 243.444 121.975 245.058 122.464L250.902 124.233C252.515 124.722 253.429 126.424 252.94 128.04C252.451 129.656 250.746 130.566 249.133 130.078ZM252.672 118.388L246.827 116.619C245.214 116.13 244.3 114.427 244.79 112.812C245.279 111.195 246.983 110.286 248.596 110.774L254.441 112.543C256.054 113.032 256.968 114.735 256.479 116.35C255.99 117.967 254.285 118.876 252.672 118.388ZM256.211 106.699L250.366 104.929C248.753 104.441 247.839 102.738 248.328 101.122C248.818 99.5059 250.522 98.5963 252.135 99.0846L257.98 100.854C259.593 101.342 260.507 103.045 260.018 104.661C259.529 106.277 257.824 107.187 256.211 106.699ZM259.75 95.0089L253.905 93.2394C252.292 92.7511 251.378 91.0484 251.867 89.4325C252.357 87.8162 254.061 86.9065 255.674 87.3949L261.519 89.1644C263.132 89.6527 264.046 91.3554 263.557 92.9713C263.068 94.5872 261.363 95.4972 259.75 95.0089ZM263.745 134.501L257.9 132.732C256.287 132.244 255.373 130.541 255.863 128.925C256.352 127.309 258.056 126.399 259.669 126.887L265.514 128.657C267.127 129.145 268.041 130.848 267.552 132.464C267.063 134.08 265.358 134.99 263.745 134.501ZM267.284 122.812L261.439 121.042C259.826 120.554 258.912 118.851 259.402 117.235C259.891 115.619 261.595 114.709 263.208 115.198L269.053 116.967C270.666 117.455 271.58 119.158 271.091 120.774C270.602 122.39 268.897 123.3 267.284 122.812ZM270.823 111.122L264.978 109.353C263.365 108.864 262.451 107.162 262.94 105.546C263.43 103.93 265.134 103.02 266.747 103.508L272.592 105.278C274.205 105.766 275.119 107.469 274.63 109.085C274.141 110.701 272.436 111.611 270.823 111.122ZM274.362 99.4325L268.517 97.6631C266.904 97.1747 265.99 95.472 266.479 93.8561C266.969 92.2399 268.673 91.3302 270.286 91.8185L276.131 93.588C277.744 94.0764 278.658 95.7791 278.169 97.395C277.679 99.0109 275.975 99.9209 274.362 99.4325ZM288.437 84.5521L253.368 73.9353C251.755 73.447 250.842 71.7443 251.331 70.1284C251.82 68.5122 253.525 67.6025 255.138 68.0908L290.207 78.7076C291.82 79.196 292.733 80.8987 292.244 82.5146C291.755 84.1305 290.051 85.0406 288.437 84.5521ZM295.784 70.8249C295.294 72.4412 293.59 73.3509 291.977 72.8625L239.373 56.9372C237.76 56.4488 236.846 54.7461 237.335 53.1302L246.183 23.9063C246.672 22.2901 248.376 21.3804 249.99 21.8687L302.593 37.7939C304.206 38.2823 305.12 39.985 304.63 41.6009L295.783 70.8248L295.784 70.8249Z" fill="url(#paint2_linear_513_781)"/>
</g>
<defs>
<linearGradient id="paint0_linear_513_781" x1="0" y1="0" x2="310" y2="126" gradientUnits="userSpaceOnUse">
<stop stop-color="#1E90F3" stop-opacity="0"/>
<stop offset="1" stop-color="#1E90F3" stop-opacity="0.305882"/>
</linearGradient>
<linearGradient id="paint1_linear_513_781" x1="274.522" y1="35.6753" x2="267.444" y2="59.0547" gradientUnits="userSpaceOnUse">
<stop stop-color="#1E90F3"/>
<stop offset="1" stop-color="#1E90F3" stop-opacity="0.08"/>
</linearGradient>
<linearGradient id="paint2_linear_513_781" x1="294.048" y1="-28.5986" x2="240.964" y2="146.746" gradientUnits="userSpaceOnUse">
<stop stop-color="#1E90F3"/>
<stop offset="1" stop-color="#1E90F3" stop-opacity="0.08"/>
</linearGradient>
<clipPath id="clip0_513_781">
<rect width="310" height="126" rx="4" fill="white"/>
</clipPath>
</defs>
</svg>
