<svg width="87" height="88" viewBox="0 0 87 88" fill="none" xmlns="http://www.w3.org/2000/svg">
<g filter="url(#filter0_d_90_243)">
<path d="M50.8224 36.6776C46.2979 32.1531 43.5 25.9038 43.5 19C43.5 32.8066 32.3076 44 18.5 44C25.4038 44 31.654 46.7979 36.1776 51.3224C40.7021 55.846 43.5 62.0962 43.5 69C43.5 62.0962 46.2979 55.846 50.8224 51.3224C55.3469 46.7979 61.5971 44 68.5 44C61.5971 44 55.3469 41.2012 50.8224 36.6776ZM47.5929 48.0929C45.0644 50.6213 43.5 54.1147 43.5 57.9735C43.5 50.2558 37.2442 44 29.5265 44C33.3853 44 36.8787 42.4356 39.4071 39.9071C41.9365 37.3778 43.5 33.8844 43.5 30.0255C43.5 33.8844 45.0644 37.3778 47.5929 39.9071C50.1222 42.4356 53.6156 44 57.4745 44C53.6156 44 50.1222 45.5644 47.5929 48.0929Z" fill="#A6A6A6"/>
<path d="M37.1107 56.8772H36.0646L33.7422 52.8552C32.0314 51.2357 30.1062 49.9202 28.0327 48.9338L34.3417 59.8606H38.7478C38.2816 58.8285 37.7344 57.8309 37.1107 56.8772ZM36.0646 31.1201H37.0948C37.7148 30.1729 38.263 29.1762 38.7347 28.1367H34.3417L28.0448 39.0439C30.1537 38.036 32.0799 36.7038 33.759 35.1123L36.0646 31.1201ZM53.2583 52.8533L50.935 56.8772H49.889C49.2643 57.8309 48.718 58.8285 48.2518 59.8606H52.657L58.965 48.9348C56.8925 49.9212 54.9682 51.2367 53.2583 52.8533ZM52.657 28.1367H48.2518C48.717 29.1688 49.2643 30.1664 49.889 31.1201H50.935L53.2593 35.1459C54.9701 36.7625 56.8934 38.0771 58.965 39.0625L52.657 28.1367Z" fill="#A6A6A6"/>
</g>
<defs>
<filter id="filter0_d_90_243" x="0.4" y="0.9" width="86.2" height="86.2" filterUnits="userSpaceOnUse" color-interpolation-filters="sRGB">
<feFlood flood-opacity="0" result="BackgroundImageFix"/>
<feColorMatrix in="SourceAlpha" type="matrix" values="0 0 0 0 0 0 0 0 0 0 0 0 0 0 0 0 0 0 127 0" result="hardAlpha"/>
<feOffset/>
<feGaussianBlur stdDeviation="9.05"/>
<feComposite in2="hardAlpha" operator="out"/>
<feColorMatrix type="matrix" values="0 0 0 0 0.65098 0 0 0 0 0.65098 0 0 0 0 0.65098 0 0 0 0.45 0"/>
<feBlend mode="normal" in2="BackgroundImageFix" result="effect1_dropShadow_90_243"/>
<feBlend mode="normal" in="SourceGraphic" in2="effect1_dropShadow_90_243" result="shape"/>
</filter>
</defs>
</svg>
