<svg width="87" height="88" viewBox="0 0 87 88" fill="none" xmlns="http://www.w3.org/2000/svg">
<g filter="url(#filter0_d_90_23)">
<path d="M50.8224 36.6776C46.2979 32.1531 43.5 25.9038 43.5 19C43.5 32.8066 32.3076 44 18.5 44C25.4038 44 31.654 46.7979 36.1776 51.3224C40.7021 55.846 43.5 62.0962 43.5 69C43.5 62.0962 46.2979 55.846 50.8224 51.3224C55.3469 46.7979 61.5971 44 68.5 44C61.5971 44 55.3469 41.2012 50.8224 36.6776ZM47.5929 48.0929C45.0644 50.6213 43.5 54.1147 43.5 57.9735C43.5 50.2558 37.2442 44 29.5265 44C33.3853 44 36.8787 42.4356 39.4071 39.9071C41.9365 37.3778 43.5 33.8844 43.5 30.0255C43.5 33.8844 45.0644 37.3778 47.5929 39.9071C50.1222 42.4356 53.6156 44 57.4745 44C53.6156 44 50.1222 45.5644 47.5929 48.0929Z" fill="#954CFB"/>
<path d="M62.4531 39.653C57.8139 37.4183 54.4958 33.2573 53.35 28.2378L52.8447 26.0254L50.8011 27.0099C49.9527 27.4183 49.0819 27.753 48.1962 28.0112C48.694 29.1319 49.286 30.2124 49.9694 31.2417C50.1158 31.1932 50.2612 31.1438 50.4058 31.0916C50.5941 31.6426 50.8067 32.1871 51.0416 32.7203C51.5842 33.4093 52.1716 34.0703 52.8009 34.6996C55.9996 37.8984 60.0021 39.9998 64.3522 40.8184L64.4967 40.6366L62.4531 39.653ZM36.2001 27.0099L34.1565 26.0254L33.6511 28.2378C32.5053 33.2583 29.1872 37.4183 24.548 39.653L22.5044 40.6366L22.6461 40.8138C28.0246 39.7947 32.7226 36.829 35.9773 32.6793C36.2057 32.1591 36.4127 31.6286 36.5963 31.0916C36.7362 31.1419 36.8769 31.1904 37.0187 31.237C37.6965 30.2171 38.2903 29.1375 38.7938 28.0084C37.9118 27.7502 37.0448 27.4173 36.2001 27.0099ZM59.8333 56.6454C59.2068 53.9006 59.2767 51.1046 59.9946 48.4774C58.5654 49.0694 57.1986 49.8134 55.9148 50.7009C55.7479 52.2449 55.7582 53.8102 55.9428 55.3513C53.8376 55.5742 51.7623 56.1233 49.8277 56.9745C48.6437 58.8037 47.7431 60.7905 47.1483 62.8779C50.1652 60.2945 54.0073 58.8568 58.0694 58.8568H60.3386L59.8333 56.6454ZM31.0584 55.3513C31.243 53.8093 31.2532 52.2439 31.0863 50.7C29.8016 49.8124 28.4348 49.0685 27.0056 48.4764C27.7244 51.1046 27.7943 53.8997 27.1678 56.6454L26.6625 58.8568H28.9318C32.9948 58.8568 36.8369 60.2945 39.8538 62.8788C39.259 60.7904 38.3575 58.8037 37.1734 56.9745C35.2389 56.1233 33.1635 55.5742 31.0584 55.3513Z" fill="#954CFB"/>
</g>
<defs>
<filter id="filter0_d_90_23" x="0.4" y="0.9" width="86.2" height="86.2" filterUnits="userSpaceOnUse" color-interpolation-filters="sRGB">
<feFlood flood-opacity="0" result="BackgroundImageFix"/>
<feColorMatrix in="SourceAlpha" type="matrix" values="0 0 0 0 0 0 0 0 0 0 0 0 0 0 0 0 0 0 127 0" result="hardAlpha"/>
<feOffset/>
<feGaussianBlur stdDeviation="9.05"/>
<feComposite in2="hardAlpha" operator="out"/>
<feColorMatrix type="matrix" values="0 0 0 0 0.584314 0 0 0 0 0.298039 0 0 0 0 0.984314 0 0 0 0.45 0"/>
<feBlend mode="normal" in2="BackgroundImageFix" result="effect1_dropShadow_90_23"/>
<feBlend mode="normal" in="SourceGraphic" in2="effect1_dropShadow_90_23" result="shape"/>
</filter>
</defs>
</svg>
