<svg width="12" height="12" viewBox="0 0 12 12" fill="none" xmlns="http://www.w3.org/2000/svg">
<g clip-path="url(#clip0_370_50)">
<path fill-rule="evenodd" clip-rule="evenodd" d="M8.25011 0C8.3486 -1.84493e-09 8.44613 0.0172439 8.53713 0.0507471C8.62812 0.0842502 8.7108 0.133356 8.78045 0.195262C8.85009 0.257168 8.90534 0.330661 8.94303 0.411544C8.98072 0.492428 9.00012 0.579119 9.00012 0.666667C9.00012 0.754215 8.98072 0.840905 8.94303 0.921789C8.90534 1.00267 8.85009 1.07617 8.78045 1.13807C8.7108 1.19998 8.62812 1.24908 8.53713 1.28259C8.44613 1.31609 8.3486 1.33333 8.25011 1.33333H1.50002V10C1.50002 10.1768 1.57904 10.3464 1.71969 10.4714C1.86035 10.5964 2.05112 10.6667 2.25003 10.6667H8.25011C8.44903 10.6667 8.63979 10.7369 8.78045 10.8619C8.9211 10.987 9.00012 11.1565 9.00012 11.3333C9.00012 11.5101 8.9211 11.6797 8.78045 11.8047C8.63979 11.9298 8.44903 12 8.25011 12H2.25003C1.65328 12 1.08098 11.7893 0.659019 11.4142C0.237056 11.0391 0 10.5304 0 10V0.666667C0 0.489856 0.0790188 0.320287 0.219673 0.195262C0.360327 0.070238 0.551095 0 0.75001 0H8.25011ZM9.53038 3.52867C9.42553 3.4355 9.29198 3.37204 9.14658 3.34631C9.00118 3.32058 8.85047 3.33372 8.71347 3.38409C8.57648 3.43445 8.45934 3.51977 8.37687 3.62928C8.2944 3.73878 8.25029 3.86756 8.25011 3.99933V5.33267H3.75005C3.55114 5.33267 3.36037 5.4029 3.21971 5.52793C3.07906 5.65295 3.00004 5.82252 3.00004 5.99933C3.00004 6.17614 3.07906 6.34571 3.21971 6.47074C3.36037 6.59576 3.55114 6.666 3.75005 6.666H8.25011V7.99933C8.25014 8.13117 8.29415 8.26003 8.37656 8.36964C8.45897 8.47925 8.5761 8.56467 8.71313 8.61512C8.85015 8.66557 9.00093 8.67877 9.1464 8.65306C9.29186 8.62734 9.42549 8.56387 9.53038 8.47067L11.7804 6.47067C11.921 6.34565 12 6.17611 12 5.99933C12 5.82256 11.921 5.65302 11.7804 5.528L9.53038 3.52867Z" fill="white"/>
</g>
<defs>
<clipPath id="clip0_370_50">
<rect width="12" height="12" fill="white"/>
</clipPath>
</defs>
</svg>
