<svg width="20" height="20" viewBox="0 0 20 20" fill="none"
  xmlns="http://www.w3.org/2000/svg">
  <path d="M5.83327 4.16683H19.1666V7.50016H18.3333V8.3335H13.3333C13.1123 8.3335 12.9003 8.42129 12.744 8.57757C12.5877 8.73385 12.4999 8.94582 12.4999 9.16683V10.0002C12.4999 10.4422 12.3243 10.8661 12.0118 11.1787C11.6992 11.4912 11.2753 11.6668 10.8333 11.6668H8.0166C7.69993 11.6668 7.40827 11.8502 7.2666 12.1335L5.22493 16.2085C5.08327 16.4918 4.79993 16.6668 4.48327 16.6668H1.6666C1.6666 16.6668 -0.833398 16.6668 2.49993 11.6668C2.49993 11.6668 4.99993 8.3335 1.6666 8.3335V4.16683H2.49993L2.9166 3.3335H5.4166L5.83327 4.16683ZM11.6666 10.0002V9.16683C11.6666 8.94582 11.5788 8.73385 11.4225 8.57757C11.2662 8.42129 11.0543 8.3335 10.8333 8.3335H9.99993C9.99993 8.3335 9.1666 9.16683 9.99993 10.0002C9.55791 10.0002 9.13398 9.82457 8.82142 9.51201C8.50886 9.19945 8.33327 8.77552 8.33327 8.3335C8.11225 8.3335 7.90029 8.42129 7.74401 8.57757C7.58773 8.73385 7.49993 8.94582 7.49993 9.16683V10.0002C7.49993 10.2212 7.58773 10.4331 7.74401 10.5894C7.90029 10.7457 8.11225 10.8335 8.33327 10.8335H10.8333C11.0543 10.8335 11.2662 10.7457 11.4225 10.5894C11.5788 10.4331 11.6666 10.2212 11.6666 10.0002Z" fill="white"/>
</svg>
