<svg width="24" height="24" viewBox="0 0 24 24" fill="none" xmlns="http://www.w3.org/2000/svg">
<g clip-path="url(#clip0_188_13)">
<path d="M19.5 18.6984C22.2422 16.7719 24 13.8188 24 10.5C24 4.70156 18.6281 0 12 0C5.37188 0 0 4.70156 0 10.5C0 13.8141 1.75781 16.7719 4.5 18.6984V21.75C4.5 22.9922 5.50781 24 6.75 24H9V21.75C9 21.3375 9.3375 21 9.75 21C10.1625 21 10.5 21.3375 10.5 21.75V24H13.5V21.75C13.5 21.3375 13.8375 21 14.25 21C14.6625 21 15 21.3375 15 21.75V24H17.25C18.4922 24 19.5 22.9922 19.5 21.75V18.6984ZM4.5 12C4.5 11.2044 4.81607 10.4413 5.37868 9.87868C5.94129 9.31607 6.70435 9 7.5 9C8.29565 9 9.05871 9.31607 9.62132 9.87868C10.1839 10.4413 10.5 11.2044 10.5 12C10.5 12.7956 10.1839 13.5587 9.62132 14.1213C9.05871 14.6839 8.29565 15 7.5 15C6.70435 15 5.94129 14.6839 5.37868 14.1213C4.81607 13.5587 4.5 12.7956 4.5 12ZM16.5 9C17.2956 9 18.0587 9.31607 18.6213 9.87868C19.1839 10.4413 19.5 11.2044 19.5 12C19.5 12.7956 19.1839 13.5587 18.6213 14.1213C18.0587 14.6839 17.2956 15 16.5 15C15.7044 15 14.9413 14.6839 14.3787 14.1213C13.8161 13.5587 13.5 12.7956 13.5 12C13.5 11.2044 13.8161 10.4413 14.3787 9.87868C14.9413 9.31607 15.7044 9 16.5 9Z" fill="white" fill-opacity="0.45"/>
</g>
<defs>
<clipPath id="clip0_188_13">
<rect width="24" height="24" fill="white"/>
</clipPath>
</defs>
</svg>
