<svg width="32" height="32" viewBox="0 0 32 32" fill="none" xmlns="http://www.w3.org/2000/svg">
<path d="M20.2902 12.5716C21.3942 12.5716 22.2902 13.4676 22.2902 14.5716V22.2847C22.2902 23.9521 21.6279 25.5512 20.4488 26.7302C19.2698 27.9092 17.6707 28.5716 16.0034 28.5716C14.336 28.5716 12.7369 27.9092 11.5579 26.7302C10.3789 25.5512 9.7165 23.9521 9.7165 22.2847V14.5716C9.7165 13.4676 10.6114 12.5716 11.7165 12.5716H20.2902ZM4.28565 12.5716L9.29365 12.5693C8.88182 13.0655 8.63387 13.6772 8.58393 14.3201L8.5725 14.5716V22.2847C8.5725 23.5796 8.90507 24.7979 9.48679 25.8584C8.70385 26.2004 7.84807 26.3418 6.99674 26.2701C6.14541 26.1984 5.32536 25.9157 4.61067 25.4476C3.89598 24.9795 3.30917 24.3407 2.90324 23.589C2.49731 22.8372 2.28505 21.9962 2.28565 21.1419V14.5716C2.28565 14.3088 2.33742 14.0487 2.438 13.8059C2.53858 13.5632 2.686 13.3427 2.87184 13.157C3.05767 12.9712 3.27829 12.8239 3.52107 12.7235C3.76385 12.623 4.02291 12.5714 4.28565 12.5716ZM22.7142 12.5693L27.7142 12.5716C28.8182 12.5716 29.7142 13.4676 29.7142 14.5716V21.143C29.7146 21.9969 29.5023 22.8374 29.0965 23.5888C28.6908 24.3401 28.1043 24.9786 27.3901 25.4466C26.6759 25.9147 25.8564 26.1975 25.0055 26.2696C24.1547 26.3417 23.2993 26.2008 22.5165 25.8596L22.5805 25.743C23.0708 24.8139 23.3691 23.767 23.4239 22.6573L23.4331 22.2847V14.5716C23.4331 13.8104 23.1634 13.1133 22.7142 12.5693ZM15.9999 3.42871C16.5252 3.42871 17.0454 3.53217 17.5307 3.73319C18.016 3.93421 18.4569 4.22885 18.8284 4.60028C19.1998 4.97172 19.4944 5.41267 19.6954 5.89798C19.8965 6.38328 19.9999 6.90342 19.9999 7.42871C19.9999 7.954 19.8965 8.47414 19.6954 8.95944C19.4944 9.44475 19.1998 9.8857 18.8284 10.2571C18.4569 10.6286 18.016 10.9232 17.5307 11.1242C17.0454 11.3252 16.5252 11.4287 15.9999 11.4287C14.9391 11.4287 13.9216 11.0073 13.1715 10.2571C12.4214 9.50699 11.9999 8.48958 11.9999 7.42871C11.9999 6.36785 12.4214 5.35043 13.1715 4.60028C13.9216 3.85014 14.9391 3.42871 15.9999 3.42871ZM25.1462 4.57157C25.5965 4.57157 26.0423 4.66025 26.4583 4.83255C26.8742 5.00485 27.2522 5.2574 27.5706 5.57577C27.889 5.89415 28.1415 6.27211 28.3138 6.68808C28.4861 7.10406 28.5748 7.54989 28.5748 8.00014C28.5748 8.45039 28.4861 8.89622 28.3138 9.3122C28.1415 9.72817 27.889 10.1061 27.5706 10.4245C27.2522 10.7429 26.8742 10.9954 26.4583 11.1677C26.0423 11.34 25.5965 11.4287 25.1462 11.4287C24.2369 11.4287 23.3648 11.0675 22.7219 10.4245C22.0789 9.78152 21.7176 8.90945 21.7176 8.00014C21.7176 7.09083 22.0789 6.21876 22.7219 5.57577C23.3648 4.93279 24.2369 4.57157 25.1462 4.57157ZM6.85365 4.57157C7.30389 4.57157 7.74973 4.66025 8.1657 4.83255C8.58168 5.00485 8.95964 5.2574 9.27801 5.57577C9.59638 5.89415 9.84893 6.27211 10.0212 6.68808C10.1935 7.10406 10.2822 7.54989 10.2822 8.00014C10.2822 8.45039 10.1935 8.89622 10.0212 9.3122C9.84893 9.72817 9.59638 10.1061 9.27801 10.4245C8.95964 10.7429 8.58168 10.9954 8.1657 11.1677C7.74973 11.34 7.30389 11.4287 6.85365 11.4287C5.94433 11.4287 5.07226 11.0675 4.42928 10.4245C3.7863 9.78152 3.42507 8.90945 3.42507 8.00014C3.42507 7.09083 3.7863 6.21876 4.42928 5.57577C5.07226 4.93279 5.94433 4.57157 6.85365 4.57157Z" fill="white" fill-opacity="0.45"/>
</svg>
