<svg width="52" height="52" viewBox="0 0 52 52" fill="none" xmlns="http://www.w3.org/2000/svg">
<path fill-rule="evenodd" clip-rule="evenodd" d="M17.3333 15.1667C17.3333 12.8681 18.2464 10.6637 19.8717 9.03841C21.4971 7.41309 23.7015 6.5 26 6.5C28.2985 6.5 30.5029 7.41309 32.1283 9.03841C33.7536 10.6637 34.6667 12.8681 34.6667 15.1667C34.6667 17.4652 33.7536 19.6696 32.1283 21.2949C30.5029 22.9202 28.2985 23.8333 26 23.8333C23.7015 23.8333 21.4971 22.9202 19.8717 21.2949C18.2464 19.6696 17.3333 17.4652 17.3333 15.1667ZM17.3333 28.1667C14.4602 28.1667 11.7047 29.308 9.67301 31.3397C7.64137 33.3713 6.5 36.1268 6.5 39C6.5 40.7239 7.18482 42.3772 8.40381 43.5962C9.62279 44.8152 11.2761 45.5 13 45.5H39C40.7239 45.5 42.3772 44.8152 43.5962 43.5962C44.8152 42.3772 45.5 40.7239 45.5 39C45.5 36.1268 44.3586 33.3713 42.327 31.3397C40.2953 29.308 37.5398 28.1667 34.6667 28.1667H17.3333Z" fill="white"/>
</svg>
