<svg width="20" height="16" viewBox="0 0 20 16" fill="none" xmlns="http://www.w3.org/2000/svg">
<path fill-rule="evenodd" clip-rule="evenodd" d="M11.8486 9.7433L8.26378 9.7433L8.26378 4.61885L5.16052 4.61885L10.0561 -3.05176e-05L14.9517 4.61885L11.8486 4.61885V9.7433ZM4.28038 8.27261H5.96588L3.20834 11.0301H5.42731C5.76352 11.0301 6.07724 11.1991 6.26226 11.4798L7.00231 12.6027C7.18733 12.8834 7.50105 13.0523 7.83726 13.0523H12.2491C12.5743 13.0523 12.8793 12.8942 13.0666 12.6283L13.8938 11.4542C14.0811 11.1883 14.386 11.0301 14.7113 11.0301H16.9501L14.1925 8.27261H15.8321C16.0505 8.27261 16.263 8.34413 16.4369 8.47625L19.2193 10.5894C19.5651 10.8521 19.7019 11.3079 19.5578 11.7175L18.5638 14.5442C18.4231 14.9445 18.0449 15.2124 17.6205 15.2124H2.53065C2.10982 15.2124 1.73403 14.949 1.59056 14.5533L0.563878 11.7222C0.414614 11.3106 0.550471 10.8497 0.899145 10.5849L3.67555 8.47625C3.84951 8.34413 4.06194 8.27261 4.28038 8.27261Z" fill="white"/>
</svg>
