<svg width="14" height="14" viewBox="0 0 14 14" fill="none" xmlns="http://www.w3.org/2000/svg">
<path d="M8.16671 12.8334H5.83337V12.25H8.16671V12.8334ZM7.58337 5.83335V4.08335H6.41671V5.83335L5.83337 6.70835V11.6667H8.16671V6.70835L7.58337 5.83335ZM7.00004 1.16669C7.00004 1.16669 6.41671 1.75002 6.41671 2.91669V3.50002H7.58337V2.91669C7.58337 2.91669 7.58337 1.75002 7.00004 1.16669ZM4.66671 12.8334H2.33337V12.25H4.66671V12.8334ZM4.08337 5.83335V4.08335H2.91671V5.83335L2.33337 6.70835V11.6667H4.66671V6.70835L4.08337 5.83335ZM3.50004 1.16669C3.50004 1.16669 2.91671 1.75002 2.91671 2.91669V3.50002H4.08337V2.91669C4.08337 2.91669 4.08337 1.75002 3.50004 1.16669ZM11.6667 12.8334H9.33337V12.25H11.6667V12.8334ZM11.0834 5.83335V4.08335H9.91671V5.83335L9.33337 6.70835V11.6667H11.6667V6.70835L11.0834 5.83335ZM10.5 1.16669C10.5 1.16669 9.91671 1.75002 9.91671 2.91669V3.50002H11.0834V2.91669C11.0834 2.91669 11.0834 1.75002 10.5 1.16669Z" fill="#F2F2F2" fill-opacity="0.6"/>
</svg>
