<svg width="17" height="14" viewBox="0 0 17 14" fill="none" xmlns="http://www.w3.org/2000/svg">
<path d="M0.00141663 4.67898C0.0110795 3.70577 0.324544 2.75926 0.898975 1.96877C1.47341 1.17828 2.28078 0.582388 3.21077 0.262513C4.14076 -0.0573622 5.148 -0.0856122 6.09485 0.181623C7.04169 0.448859 7.88196 0.998544 8.50082 1.75556C9.1328 0.982728 9.99521 0.426482 10.9654 0.165909C11.9356 -0.0946643 12.9643 -0.0463003 13.9051 0.304124C14.8459 0.654549 15.6509 1.2892 16.2058 2.11784C16.7607 2.94648 17.0372 3.92693 16.996 4.9198C16.9067 7.90762 14.704 10.1842 12.81 11.6179C11.6329 12.5029 10.3618 13.2587 9.01928 13.8721C8.99001 13.8861 8.9664 13.8963 8.94845 13.9029L8.92862 13.9113L8.92296 13.9141H8.92012C8.78775 13.9705 8.64514 13.9998 8.50097 14C8.35679 14.0002 8.21408 13.9715 8.08152 13.9155H8.07868L8.07302 13.9113L8.05177 13.9029C7.94116 13.8552 7.83158 13.8053 7.72312 13.753C6.45319 13.1509 5.24977 12.4203 4.13213 11.5731C2.21693 10.1086 0 7.78161 0 4.73218L0.00141663 4.67898Z" fill="white"/>
</svg>
