<svg width="18" height="18" viewBox="0 0 18 18" fill="none" xmlns="http://www.w3.org/2000/svg">
<path d="M9 15.75C8.475 15.75 8.03125 15.5687 7.66875 15.2062C7.30625 14.8438 7.125 14.4 7.125 13.875C7.125 13.35 7.30625 12.9062 7.66875 12.5438C8.03125 12.1813 8.475 12 9 12C9.525 12 9.96875 12.1813 10.3312 12.5438C10.6937 12.9062 10.875 13.35 10.875 13.875C10.875 14.4 10.6937 14.8438 10.3312 15.2062C9.96875 15.5687 9.525 15.75 9 15.75ZM4.7625 11.5125L3.1875 9.9C3.925 9.1625 4.79075 8.57825 5.78475 8.14725C6.77875 7.71625 7.8505 7.5005 9 7.5C10.1495 7.4995 11.2215 7.71825 12.216 8.15625C13.2105 8.59425 14.076 9.188 14.8125 9.9375L13.2375 11.5125C12.6875 10.9625 12.05 10.5312 11.325 10.2188C10.6 9.90625 9.825 9.75 9 9.75C8.175 9.75 7.4 9.90625 6.675 10.2188C5.95 10.5312 5.3125 10.9625 4.7625 11.5125ZM1.575 8.325L0 6.75C1.15 5.575 2.49375 4.65625 4.03125 3.99375C5.56875 3.33125 7.225 3 9 3C10.775 3 12.4312 3.33125 13.9688 3.99375C15.5063 4.65625 16.85 5.575 18 6.75L16.425 8.325C15.4625 7.3625 14.347 6.6095 13.0785 6.066C11.81 5.5225 10.4505 5.2505 9 5.25C7.5495 5.2495 6.19025 5.5215 4.92225 6.066C3.65425 6.6105 2.5385 7.3635 1.575 8.325Z" fill="white" fill-opacity="0.25"/>
</svg>
