<svg width="14" height="14" viewBox="0 0 14 14" fill="none"
  xmlns="http://www.w3.org/2000/svg">
  <path d="M6.12533 8.02083H7.87533L7.00033 6.27083L6.12533 8.02083ZM4.95866 6.41667C5.27949 6.41667 5.55424 6.30253 5.78291 6.07425C6.01158 5.84597 6.12572 5.57122 6.12533 5.25C6.12494 4.92878 6.0108 4.65422 5.78291 4.42633C5.55502 4.19844 5.28027 4.08411 4.95866 4.08333C4.63705 4.08256 4.36249 4.19689 4.13499 4.42633C3.90749 4.65578 3.79316 4.93033 3.79199 5.25C3.79083 5.56967 3.90516 5.84442 4.13499 6.07425C4.36483 6.30408 4.63938 6.41822 4.95866 6.41667ZM9.04199 6.41667C9.36283 6.41667 9.63758 6.30253 9.86624 6.07425C10.0949 5.84597 10.209 5.57122 10.2087 5.25C10.2083 4.92878 10.0941 4.65422 9.86624 4.42633C9.63836 4.19844 9.36361 4.08411 9.04199 4.08333C8.72038 4.08256 8.44583 4.19689 8.21833 4.42633C7.99083 4.65578 7.87649 4.93033 7.87533 5.25C7.87416 5.56967 7.98849 5.84442 8.21833 6.07425C8.44816 6.30408 8.72272 6.41822 9.04199 6.41667ZM3.50033 11.6667V9.1875C3.12116 9.02222 2.78808 8.80114 2.50108 8.52425C2.21408 8.24736 1.97102 7.93372 1.77191 7.58333C1.5728 7.23294 1.42211 6.85864 1.31983 6.46042C1.21755 6.06219 1.16661 5.65872 1.16699 5.25C1.16699 3.71389 1.71144 2.45486 2.80033 1.47292C3.88922 0.490972 5.28922 0 7.00033 0C8.71144 0 10.1114 0.490972 11.2003 1.47292C12.2892 2.45486 12.8337 3.71389 12.8337 5.25C12.8337 5.65833 12.7827 6.06181 12.6808 6.46042C12.5789 6.85903 12.4282 7.23333 12.2287 7.58333C12.0292 7.93333 11.7862 8.24697 11.4996 8.52425C11.213 8.80153 10.8799 9.02261 10.5003 9.1875V11.6667H8.75033V10.5H7.58366V11.6667H6.41699V10.5H5.25033V11.6667H3.50033Z" fill="white"/>
</svg>
