<svg width="27" height="27" viewBox="0 0 27 27" fill="none" xmlns="http://www.w3.org/2000/svg">
<path d="M11.3333 24.3334V16.75H9.16667V10.25C9.16667 9.65419 9.37901 9.14431 9.80367 8.72036C10.2283 8.29642 10.7382 8.08408 11.3333 8.08336H15.6667C16.2625 8.08336 16.7728 8.29569 17.1974 8.72036C17.6221 9.14503 17.8341 9.65492 17.8333 10.25V16.75H15.6667V24.3334H11.3333ZM13.5 7.00003C12.9042 7.00003 12.3943 6.78806 11.9703 6.36411C11.5464 5.94017 11.3341 5.42992 11.3333 4.83336C11.3326 4.23681 11.5449 3.72692 11.9703 3.30369C12.3957 2.88047 12.9056 2.66814 13.5 2.66669C14.0944 2.66525 14.6046 2.87758 15.0308 3.30369C15.4569 3.72981 15.6688 4.23969 15.6667 4.83336C15.6645 5.42703 15.4525 5.93728 15.0308 6.36411C14.609 6.79094 14.0987 7.00292 13.5 7.00003Z" fill="white"/>
</svg>
