<svg width="78" height="42" viewBox="0 0 78 42" fill="none" xmlns="http://www.w3.org/2000/svg">
  <path
    d="M12.455 5.13804C13.455 3.05369 14.0914 1.01565 14.7277 0.645098C16.1368 -0.234964 16.8641 -0.281282 19.7277 0.923011C22.2276 2.03467 18.2277 4.72117 17.1822 6.43498C14.5459 10.789 8.45506 22.3687 7.63688 24.0362C6.81871 25.7037 4.09147 32.6515 5.59145 34.1338C6.63689 35.1065 11.2732 33.5779 15.3641 33.0221C17.2731 32.7442 20.6367 31.7715 21.864 32.0957C23.5913 32.5589 22.0458 36.4034 18.0913 36.496C12.3641 36.635 7.54597 39.2752 4.04601 38.5804C2.50057 38.2561 -0.0448535 38.2561 0.000600524 35.9402C0.0915086 32.0494 2.59148 26.4911 3.63693 23.9436C6.00054 18.0611 9.81868 10.511 12.455 5.13804Z"
    fill="white" />
  <path
    d="M28.7776 19.0338C29.5049 19.5896 33.323 22.3687 32.3685 26.1206C31.414 29.8724 26.7777 32.6052 23.8686 31.9568C20.9141 31.3546 20.8686 27.5101 22.0959 25.7963C23.3231 24.0362 25.9595 20.5623 27.5958 20.238C27.7776 20.1917 27.914 20.1454 28.0958 20.0991C27.9595 19.8675 27.7776 19.6822 27.5958 19.5433C26.1868 18.339 28.0049 18.4779 28.7776 19.0338ZM25.8231 27.4638C25.6868 28.066 27.5958 27.1859 28.414 25.9816C28.7322 25.5647 28.914 24.6847 28.914 23.7583C27.5504 24.9626 25.9595 27.0006 25.8231 27.4638Z"
    fill="white" />
  <path
    d="M54.391 2.5905C54.4365 3.14633 53.891 3.14633 53.5728 3.60952C52.4819 5.18436 49.8001 8.33406 45.6184 15.8377C46.9365 15.7451 48.1183 15.6061 48.982 15.5135C51.9365 15.0966 52.4819 15.3745 52.3456 15.6988C52.2092 16.0693 50.7547 18.2926 47.6183 18.8485C46.5729 19.0338 45.1184 19.2653 43.6184 19.5433C43.0729 20.5623 42.482 21.6739 41.8911 22.8782C35.573 35.5696 35.073 38.7657 34.6185 40.2942C34.1185 41.8227 32.9821 42.6565 32.0276 41.3595C31.0731 40.0163 31.4821 37.3298 32.8458 34.1801C33.6185 32.3736 36.0276 26.3058 38.6184 20.3307C37.6639 20.4696 36.8912 20.5623 36.4366 20.5623C34.8912 20.6549 34.2548 17.0884 35.4367 16.6252C36.573 16.1157 36.3912 16.3472 37.9366 16.2546C38.3003 16.2546 39.2548 16.2083 40.4821 16.162C41.7548 13.3828 43.0275 10.8816 44.0729 9.12148C47.8911 2.77577 49.8001 0.0892682 50.891 0.274545C51.9819 0.50614 54.3001 2.03467 54.391 2.5905Z"
    fill="white" />
  <path
    d="M53.6566 18.6632C54.0657 18.8948 54.6112 19.4969 53.3839 21.1644C52.1566 22.8319 49.3385 28.4828 50.4294 27.6491C51.5203 26.8153 56.9748 22.2298 58.2475 19.4969C58.7929 18.339 59.0202 18.4316 59.7929 18.5242C60.5656 18.6169 63.3383 19.8675 62.5656 20.9792C61.7929 22.0908 58.7929 27.4638 58.2475 29.085C57.702 30.7061 58.1111 31.8641 57.3839 32.3736C56.6566 32.8831 56.0202 32.5589 55.0657 31.5399C54.1112 30.5209 54.4748 28.1586 54.8839 26.6764C52.3385 28.6681 51.0657 30.6598 48.5658 31.3083C46.0658 31.9568 45.4294 28.5755 45.3385 27.7417C45.2476 26.908 48.384 21.1181 49.0658 19.7749C49.7476 18.4316 49.9294 18.2463 51.0203 18.2C52.1112 18.1537 52.9294 18.2926 53.6566 18.6632Z"
    fill="white" />
  <path
    d="M72.7917 21.4423C76.2008 19.8212 78.928 20.0528 77.7008 20.6086C75.8826 21.4423 72.2008 23.8046 69.4736 25.75C69.519 26.1206 69.5645 26.4911 69.6554 26.8617C70.2008 29.5019 69.7008 32.0494 68.019 33.3463C66.4282 34.5969 64.3373 34.458 63.2009 33.3926C62.7009 33.0221 62.3373 32.3273 61.9737 32.0031C61.5646 31.6788 61.8373 29.965 62.5646 28.7144C63.2464 27.6028 64.5191 26.4448 66.2918 25.1942C66.1554 24.731 65.9282 24.1752 65.7918 23.712C64.9282 21.0718 66.1554 18.8485 67.2918 17.6905C69.019 15.9304 71.9735 15.9767 72.7463 16.3936C73.4735 16.7641 73.4735 17.8295 73.2008 18.0147C72.9735 18.2463 72.8372 18.2463 72.4281 18.2463C71.2463 18.2463 70.3372 19.1264 69.7008 20.7012C69.3827 21.4423 69.2463 22.3224 69.2463 23.3877C70.4736 22.6466 71.7463 21.9518 72.7917 21.4423ZM66.8827 30.5672C67.11 29.8261 66.8827 28.8534 66.7463 27.6491C66.6554 27.6954 66.5645 27.788 66.5191 27.8344C64.2918 29.5945 64.2464 31.0304 64.2918 31.5399C64.3373 31.8178 64.4736 32.0031 64.7009 32.1884C65.4282 32.1884 66.5191 31.7252 66.8827 30.5672Z"
    fill="white" />
  <path
    d="M46.5692 35.5111C46.5823 35.5111 46.6084 35.5111 46.6215 35.5111C46.7654 35.5111 46.9878 35.7244 46.9878 35.8443C46.9878 35.871 46.9747 35.8977 46.9485 35.8977C45.9806 36.2975 45.078 36.7374 44.2671 37.1906C43.8354 38.1636 42.1742 41.5093 40.9054 41.5093C40.8269 41.5093 40.7615 41.4959 40.6831 41.4693C40.3037 41.336 39.9375 41.0427 39.8852 40.6429C39.8852 40.6162 39.8852 40.5762 39.8852 40.5495C39.8852 39.2566 42.8021 37.4172 43.8485 36.8174C43.9662 36.5375 44.097 36.2309 44.2278 35.911C43.3253 36.7774 41.821 37.897 40.67 37.897C40.2645 37.897 39.8982 37.6971 39.6105 37.4039C39.2311 37.0173 39.0088 36.3908 39.0088 35.6444C39.0088 35.5378 39.0088 35.4311 39.0219 35.3245C39.1788 33.3784 40.7485 30.9925 42.6451 30.4193C42.9198 30.3394 43.2076 30.2994 43.4692 30.2994C44.6072 30.2994 45.5228 31.0192 45.5228 32.0988C45.5228 32.4587 45.4181 32.8453 45.1958 33.2718C45.1827 33.2985 45.1565 33.2985 45.1304 33.2985C44.9865 33.2985 44.751 33.0985 44.751 32.9786C44.751 32.9652 44.751 32.9386 44.751 32.9386C44.9734 32.5254 45.065 32.1521 45.065 31.8322C45.065 31.7923 45.065 31.7523 45.065 31.7123C44.9996 30.9525 44.424 30.6993 43.7962 30.6993C43.5346 30.6993 43.2599 30.7392 43.0114 30.8192C41.1801 31.3657 39.6366 33.7117 39.4797 35.6044C39.4666 35.7244 39.4535 35.831 39.4535 35.9376C39.4535 36.5641 39.6105 37.0306 39.8721 37.2972C40.0029 37.4438 40.1991 37.4972 40.4215 37.4972C41.7949 37.4972 44.5025 35.1645 44.8295 34.2848C44.8688 34.2315 44.908 34.2182 44.9603 34.2182C45.1173 34.2182 45.3004 34.3648 45.3004 34.5247C45.3004 34.5514 45.2873 34.5647 45.2743 34.5914C45.0519 35.2045 44.8426 35.8043 44.5941 36.4175C45.2219 36.0976 45.8759 35.791 46.5692 35.5111ZM43.443 37.6704C42.8936 38.017 40.2776 39.9364 40.2776 40.7761C40.2776 40.9228 40.3561 41.0294 40.5392 41.096C40.5915 41.1094 40.6307 41.1227 40.6831 41.1227C41.5856 41.1227 43.0637 38.4435 43.443 37.6704Z"
    fill="white" />
  <path
    d="M49.7159 35.5778C49.8337 35.4578 50.1868 35.8443 50.0691 35.951C49.5197 36.4975 47.6885 38.8434 47.0606 38.6301C46.9298 38.5768 46.799 38.4702 46.7205 38.3502C46.4066 37.8704 47.3746 36.3642 47.6492 35.8043C47.2307 35.9376 46.7859 35.991 46.4328 35.751C45.8049 35.3112 46.1973 34.3515 46.6813 34.2048C46.9691 34.1249 47.3092 34.4181 47.3615 34.698C47.4007 34.858 47.3615 35.1112 47.2045 35.4311C47.3615 35.3911 47.6754 35.2445 47.8062 35.2445C48.0155 35.2579 48.1463 35.3778 48.2248 35.5778C48.3556 35.9376 47.1914 37.6171 47.0868 38.2303C47.7146 37.9237 49.1142 36.1909 49.7159 35.5778ZM46.5505 35.4978C46.7729 35.1379 46.8775 34.8713 46.9037 34.6847C46.8252 34.7513 46.7336 34.8846 46.6551 35.0579C46.6421 35.0712 46.5113 35.4578 46.5505 35.4978Z"
    fill="white" />
  <path
    d="M50.4372 35.3112C50.5418 35.4178 50.5942 35.4711 50.5942 35.5111C50.5942 35.5911 50.4503 35.6177 50.3718 35.6711C50.4503 35.9376 50.6988 36.0709 50.9604 36.1242C51.0781 35.911 51.2089 35.5644 51.2089 35.3112C51.2089 35.2312 51.1958 35.1512 51.1697 35.0979C51.1697 35.0846 51.1304 35.0712 51.0912 35.0712C50.9342 35.0712 50.5549 35.1645 50.4372 35.3112ZM49.9009 35.3645C49.9009 35.3378 49.9009 35.3112 49.9009 35.2845C49.9009 34.8846 50.2933 34.6847 50.6988 34.6847C50.9604 34.6847 51.2351 34.778 51.392 34.9379C51.5752 35.1112 51.6667 35.3512 51.6667 35.6177C51.6667 35.7777 51.6275 35.951 51.549 36.1242C51.8891 36.0576 52.3992 35.8843 52.8178 35.5244C52.844 35.5111 52.857 35.5111 52.8832 35.5111C53.014 35.5111 53.2233 35.711 53.2233 35.8443C53.2233 35.871 53.2102 35.8843 53.1971 35.8977C52.6216 36.3775 52.0068 36.5508 51.5229 36.5508C51.4705 36.5508 51.4051 36.5508 51.3528 36.5508C50.895 37.3106 50.3849 37.4972 50.0055 37.4972C49.6654 37.4972 49.4431 37.3505 49.4562 37.3239C49.2207 37.1639 49.1292 36.9373 49.1292 36.7107C49.1292 36.2176 49.5477 35.6577 49.9009 35.3645ZM50.1494 35.8977C49.914 36.1509 49.6 36.5908 49.5739 36.9373C49.5608 37.0173 49.5608 37.0706 49.5739 37.0973C49.6262 37.1239 49.6916 37.1373 49.757 37.1373C50.1233 37.1373 50.5288 36.7507 50.7904 36.3908C50.5157 36.2709 50.2933 36.0976 50.1494 35.8977Z"
    fill="white" />
  <path
    d="M53.3982 34.5381C53.4113 34.5247 53.4375 34.5114 53.4636 34.5114C53.5944 34.5114 53.843 34.7113 53.843 34.8446C53.843 34.858 53.8299 34.8713 53.8299 34.8846C53.5683 35.2712 53.0189 36.1909 53.0189 36.7374C53.0189 36.7774 53.0189 36.8174 53.032 36.8574C53.5944 36.6574 54.6016 35.2978 54.9417 34.7913C54.981 34.738 55.0202 34.7247 55.0725 34.7247C55.2164 34.7247 55.4126 34.938 55.4126 35.0579C55.4126 35.0846 55.3995 35.0979 55.3864 35.1112C55.3341 35.2712 55.0987 36.1776 55.0987 36.6174C55.0987 36.7374 55.1118 36.8174 55.151 36.844C55.1902 36.8707 55.2426 36.884 55.2949 36.884C55.8443 36.884 57.1131 35.871 57.3747 35.5511C57.3877 35.5378 57.4139 35.5244 57.4401 35.5244C57.5578 35.5244 57.7801 35.7244 57.7801 35.8443C57.7801 35.871 57.7671 35.8843 57.7671 35.8977C57.3747 36.3775 56.3282 37.2439 55.5434 37.2439C55.3734 37.2439 55.2164 37.2039 55.0856 37.1106C54.7978 36.924 54.6539 36.6308 54.6539 36.2042C54.6539 36.1776 54.6539 36.1376 54.6539 36.1109C54.3008 36.5241 53.7383 37.1506 53.3721 37.2572C53.3328 37.2706 53.2936 37.2839 53.2544 37.2839C53.0712 37.2839 52.9012 37.1639 52.7704 37.0306C52.6396 36.8707 52.5873 36.6841 52.5873 36.4708C52.5873 35.8043 53.1105 34.9513 53.3982 34.5381Z"
    fill="white" />
  <path
    d="M57.9585 33.8983C57.9715 33.8583 57.9977 33.845 58.0369 33.845C58.1808 33.845 58.4555 34.0849 58.4163 34.2182C58.4032 34.2182 58.0893 35.0979 57.6838 36.2309C57.7099 36.2176 57.7492 36.1909 57.7884 36.1776C57.8015 36.1509 58.5078 34.6847 58.8479 34.4314C58.9002 34.4048 58.9526 34.3914 59.0049 34.3914C59.2534 34.3914 59.5935 34.6847 59.6981 34.858C59.7766 35.0179 59.8159 35.2045 59.8159 35.4045C59.8159 35.4578 59.8159 35.5244 59.8028 35.5911C60.3652 35.4978 60.81 35.4445 60.81 35.4445C60.8231 35.4445 60.8231 35.4445 60.8361 35.4445C60.9931 35.4445 61.2024 35.6577 61.2024 35.7777C61.2024 35.8177 61.1893 35.8443 61.137 35.8443C61.137 35.8443 60.4568 35.9243 59.6851 36.0576C59.4627 36.6707 58.9264 37.4172 58.2593 37.4172C58.1154 37.4172 57.9715 37.3772 57.8277 37.3106C57.4222 38.1503 57.0036 39.07 56.6635 39.8164C56.3365 40.4962 56.088 41.0561 55.9179 41.2827C55.9179 41.2827 55.9179 41.2827 55.9179 41.296C55.9179 41.3093 55.9049 41.3093 55.8918 41.3093C55.8525 41.376 55.8133 41.4026 55.7871 41.3893C55.5648 41.336 55.4601 41.2293 55.4601 41.0827C55.4601 41.0561 55.4601 41.0294 55.4601 40.9894C55.6563 40.2163 57.9585 33.9116 57.9585 33.8983ZM58.5602 35.8843C58.7825 35.8177 59.018 35.7644 59.2534 35.711C59.2927 35.5911 59.3581 35.3112 59.3581 35.0979C59.3581 34.9646 59.3319 34.8446 59.2665 34.8047C59.1618 34.8047 58.5994 35.8043 58.5602 35.8843ZM58.2985 36.3775C58.1939 36.5774 58.0893 36.804 57.9715 37.0306C58.3901 37.0306 58.8218 36.5241 59.0311 36.1909C58.7694 36.2442 58.5078 36.3109 58.2985 36.3775Z"
    fill="white" />
</svg>