<svg width="32" height="33" viewBox="0 0 32 33" fill="none" xmlns="http://www.w3.org/2000/svg">
<path d="M27.7075 17.4217L17.7075 27.4217C17.5676 27.5617 17.3894 27.657 17.1953 27.6957C17.0012 27.7343 16.8 27.7145 16.6172 27.6388C16.4344 27.563 16.2782 27.4347 16.1683 27.2701C16.0584 27.1056 15.9998 26.9121 16 26.7142V19.1279L7.7075 27.4217C7.56764 27.5617 7.38939 27.657 7.19531 27.6957C7.00122 27.7343 6.80003 27.7145 6.61721 27.6388C6.43439 27.563 6.27815 27.4347 6.16828 27.2701C6.05841 27.1056 5.99984 26.9121 6 26.7142V6.71417C5.99984 6.51627 6.05841 6.32278 6.16828 6.15818C6.27815 5.99359 6.43439 5.8653 6.61721 5.78954C6.80003 5.71379 7.00122 5.69399 7.19531 5.73264C7.38939 5.77129 7.56764 5.86666 7.7075 6.00667L16 14.3004V6.71417C15.9998 6.51627 16.0584 6.32278 16.1683 6.15818C16.2782 5.99359 16.4344 5.8653 16.6172 5.78954C16.8 5.71379 17.0012 5.69399 17.1953 5.73264C17.3894 5.77129 17.5676 5.86666 17.7075 6.00667L27.7075 16.0067C27.8005 16.0995 27.8742 16.2098 27.9246 16.3312C27.9749 16.4526 28.0008 16.5828 28.0008 16.7142C28.0008 16.8456 27.9749 16.9757 27.9246 17.0971C27.8742 17.2185 27.8005 17.3288 27.7075 17.4217Z" fill="white"/>
</svg>
