<svg width="33" height="33" viewBox="0 0 33 33" fill="none" xmlns="http://www.w3.org/2000/svg">
<path d="M26.0457 6.71417V26.7142C26.0459 26.9121 25.9873 27.1056 25.8774 27.2701C25.7676 27.4347 25.6113 27.563 25.4285 27.6388C25.2457 27.7145 25.0445 27.7343 24.8504 27.6957C24.6563 27.657 24.4781 27.5617 24.3382 27.4217L16.0457 19.1279V26.7142C16.0459 26.9121 15.9873 27.1056 15.8774 27.2701C15.7676 27.4347 15.6113 27.563 15.4285 27.6388C15.2457 27.7145 15.0445 27.7343 14.8504 27.6957C14.6563 27.657 14.4781 27.5617 14.3382 27.4217L4.33821 17.4217C4.24523 17.3288 4.17147 17.2185 4.12115 17.0971C4.07082 16.9757 4.04492 16.8456 4.04492 16.7142C4.04492 16.5828 4.07082 16.4526 4.12115 16.3312C4.17147 16.2098 4.24523 16.0995 4.33821 16.0067L14.3382 6.00667C14.4781 5.86666 14.6563 5.77129 14.8504 5.73264C15.0445 5.69399 15.2457 5.71379 15.4285 5.78954C15.6113 5.8653 15.7676 5.99359 15.8774 6.15818C15.9873 6.32278 16.0459 6.51627 16.0457 6.71417V14.3004L24.3382 6.00667C24.4781 5.86666 24.6563 5.77129 24.8504 5.73264C25.0445 5.69399 25.2457 5.71379 25.4285 5.78954C25.6113 5.8653 25.7676 5.99359 25.8774 6.15818C25.9873 6.32278 26.0459 6.51627 26.0457 6.71417Z" fill="white"/>
</svg>
