<svg width="32" height="33" viewBox="0 0 32 33" fill="none" xmlns="http://www.w3.org/2000/svg">
<path d="M27 6.71411V26.7141C27 27.2445 26.7893 27.7533 26.4142 28.1283C26.0391 28.5034 25.5304 28.7141 25 28.7141H20C19.4696 28.7141 18.9609 28.5034 18.5858 28.1283C18.2107 27.7533 18 27.2445 18 26.7141V6.71411C18 6.18368 18.2107 5.67497 18.5858 5.2999C18.9609 4.92482 19.4696 4.71411 20 4.71411H25C25.5304 4.71411 26.0391 4.92482 26.4142 5.2999C26.7893 5.67497 27 6.18368 27 6.71411ZM12 4.71411H7C6.46957 4.71411 5.96086 4.92482 5.58579 5.2999C5.21071 5.67497 5 6.18368 5 6.71411V26.7141C5 27.2445 5.21071 27.7533 5.58579 28.1283C5.96086 28.5034 6.46957 28.7141 7 28.7141H12C12.5304 28.7141 13.0391 28.5034 13.4142 28.1283C13.7893 27.7533 14 27.2445 14 26.7141V6.71411C14 6.18368 13.7893 5.67497 13.4142 5.2999C13.0391 4.92482 12.5304 4.71411 12 4.71411Z" fill="white"/>
</svg>
