<svg width="32" height="33" viewBox="0 0 32 33" fill="none" xmlns="http://www.w3.org/2000/svg">
<path d="M30 16.7141C30.0008 17.0537 29.9138 17.3876 29.7473 17.6836C29.5808 17.9795 29.3406 18.2273 29.05 18.4029L11.04 29.4204C10.7364 29.6063 10.3886 29.7078 10.0326 29.7144C9.67661 29.721 9.32532 29.6324 9.015 29.4579C8.70764 29.286 8.4516 29.0354 8.2732 28.7318C8.09481 28.4282 8.00051 28.0825 8 27.7304V5.69787C8.00051 5.34573 8.09481 5.00008 8.2732 4.69646C8.4516 4.39285 8.70764 4.14223 9.015 3.97037C9.32532 3.79581 9.67661 3.70725 10.0326 3.71384C10.3886 3.72044 10.7364 3.82194 11.04 4.00788L29.05 15.0254C29.3406 15.201 29.5808 15.4488 29.7473 15.7447C29.9138 16.0406 30.0008 16.3746 30 16.7141Z" fill="white"/>
</svg>
