<svg width="28" height="27" viewBox="0 0 28 27" fill="none"
  xmlns="http://www.w3.org/2000/svg">
  <path d="M18.8721 1.63902V25.639C18.8719 25.8261 18.8193 26.0095 18.7201 26.1682C18.621 26.3268 18.4793 26.4545 18.3112 26.5367C18.1431 26.6189 17.9553 26.6522 17.7692 26.633C17.583 26.6137 17.406 26.5426 17.2583 26.4278L8.52832 19.639H2.87207C2.34164 19.639 1.83293 19.4283 1.45786 19.0532C1.08278 18.6782 0.87207 18.1695 0.87207 17.639V9.63902C0.87207 9.10859 1.08278 8.59988 1.45786 8.22481C1.83293 7.84973 2.34164 7.63902 2.87207 7.63902H8.52832L17.2583 0.850271C17.406 0.735427 17.583 0.664336 17.7692 0.64508C17.9553 0.625824 18.1431 0.659176 18.3112 0.741344C18.4793 0.823512 18.621 0.951199 18.7201 1.10989C18.8193 1.26858 18.8719 1.4519 18.8721 1.63902ZM22.8721 9.63902C22.6069 9.63902 22.3525 9.74438 22.165 9.93191C21.9774 10.1195 21.8721 10.3738 21.8721 10.639V16.639C21.8721 16.9042 21.9774 17.1586 22.165 17.3461C22.3525 17.5337 22.6069 17.639 22.8721 17.639C23.1373 17.639 23.3916 17.5337 23.5792 17.3461C23.7667 17.1586 23.8721 16.9042 23.8721 16.639V10.639C23.8721 10.3738 23.7667 10.1195 23.5792 9.93191C23.3916 9.74438 23.1373 9.63902 22.8721 9.63902ZM26.8721 7.63902C26.6069 7.63902 26.3525 7.74438 26.165 7.93191C25.9774 8.11945 25.8721 8.3738 25.8721 8.63902V18.639C25.8721 18.9042 25.9774 19.1586 26.165 19.3461C26.3525 19.5337 26.6069 19.639 26.8721 19.639C27.1373 19.639 27.3916 19.5337 27.5792 19.3461C27.7667 19.1586 27.8721 18.9042 27.8721 18.639V8.63902C27.8721 8.3738 27.7667 8.11945 27.5792 7.93191C27.3916 7.74438 27.1373 7.63902 26.8721 7.63902Z" fill="white"/>
</svg>
