<svg width="52" height="52" viewBox="0 0 52 52" fill="none" xmlns="http://www.w3.org/2000/svg">
<path fill-rule="evenodd" clip-rule="evenodd" d="M13.6731 27.6251L25.5255 39.4746C25.8306 39.7797 26.002 40.1936 26.002 40.6251C26.002 41.0566 25.8306 41.4705 25.5255 41.7756C25.2203 42.0807 24.8065 42.2522 24.375 42.2522C23.9435 42.2522 23.5296 42.0807 23.2245 41.7756L8.59947 27.1506C8.44814 26.9997 8.32808 26.8203 8.24616 26.6229C8.16424 26.4255 8.12207 26.2138 8.12207 26.0001C8.12207 25.7864 8.16424 25.5747 8.24616 25.3773C8.32808 25.1799 8.44814 25.0005 8.59947 24.8496L23.2245 10.2246C23.5296 9.91947 23.9435 9.74805 24.375 9.74805C24.8065 9.74805 25.2203 9.91947 25.5255 10.2246C25.8306 10.5297 26.002 10.9436 26.002 11.3751C26.002 11.8066 25.8306 12.2205 25.5255 12.5256L13.6731 24.3751H43.875C44.306 24.3751 44.7193 24.5463 45.024 24.8511C45.3288 25.1558 45.5 25.5691 45.5 26.0001C45.5 26.4311 45.3288 26.8444 45.024 27.1492C44.7193 27.4539 44.306 27.6251 43.875 27.6251H13.6731Z" fill="white" fill-opacity="0.25"/>
</svg>
