<svg width="18" height="18" viewBox="0 0 18 18" fill="none" xmlns="http://www.w3.org/2000/svg">
<path d="M1.84062 12.0454C2.05158 12.2563 2.33768 12.3748 2.63599 12.3748C2.9343 12.3748 3.2204 12.2563 3.43137 12.0454L9.00012 6.47662L14.5689 12.0454C14.781 12.2503 15.0652 12.3637 15.3602 12.3611C15.6552 12.3586 15.9373 12.2403 16.1459 12.0317C16.3545 11.8231 16.4728 11.5409 16.4754 11.2459C16.4779 10.951 16.3645 10.6668 16.1596 10.4546L9.79549 4.0905C9.58452 3.87959 9.29842 3.76111 9.00012 3.76111C8.70181 3.76111 8.41571 3.87959 8.20474 4.0905L1.84062 10.4546C1.62971 10.6656 1.51123 10.9517 1.51123 11.25C1.51123 11.5483 1.62971 11.8344 1.84062 12.0454Z" fill="#62DD67"/>
</svg>
