<svg width="45" height="46" viewBox="0 0 45 46" fill="none" xmlns="http://www.w3.org/2000/svg">
<path fill-rule="evenodd" clip-rule="evenodd" d="M5.625 23C5.625 13.6798 13.1798 6.12502 22.5 6.12502C31.8202 6.12502 39.375 13.6798 39.375 23C39.375 32.3202 31.8202 39.875 22.5 39.875C13.1798 39.875 5.625 32.3202 5.625 23ZM22.5 9.87502C15.2508 9.87502 9.375 15.7509 9.375 23C9.375 30.2492 15.2508 36.125 22.5 36.125C29.7492 36.125 35.625 30.2492 35.625 23C35.625 15.7509 29.7492 9.87502 22.5 9.87502Z" fill="#1E90F3"/>
<path fill-rule="evenodd" clip-rule="evenodd" d="M21.1742 2.9242C21.5258 2.57256 22.0027 2.37502 22.5 2.37502C25.2085 2.37502 27.8905 2.9085 30.3928 3.94501C32.8952 4.98151 35.1689 6.50074 37.0841 8.41594C38.9993 10.3312 40.5185 12.6048 41.555 15.1072C42.5915 17.6095 43.125 20.2915 43.125 23C43.125 23.4973 42.9275 23.9742 42.5758 24.3258C42.2242 24.6775 41.7473 24.875 41.25 24.875H33.7556C32.7201 24.875 31.8806 24.0356 31.8806 23C31.8806 20.5121 30.8923 18.1261 29.1331 16.3669C27.3739 14.6077 24.9879 13.6194 22.5 13.6194C21.4645 13.6194 20.625 12.7799 20.625 11.7444V4.25002C20.625 3.75274 20.8225 3.27583 21.1742 2.9242ZM18.5225 19.0225C19.5774 17.9677 21.0082 17.375 22.5 17.375C23.9918 17.375 25.4226 17.9677 26.4775 19.0225C27.5324 20.0774 28.125 21.5082 28.125 23C28.125 24.4919 27.5324 25.9226 26.4775 26.9775C25.4226 28.0324 23.9918 28.625 22.5 28.625C21.0082 28.625 19.5774 28.0324 18.5225 26.9775C17.4676 25.9226 16.875 24.4919 16.875 23C16.875 21.5082 17.4676 20.0774 18.5225 19.0225Z" fill="#1E90F3"/>
</svg>
