<svg width="130" height="130" viewBox="0 0 130 130" fill="none" xmlns="http://www.w3.org/2000/svg">
<path d="M122.367 65C122.367 96.6827 96.6826 122.367 65 122.367C33.3173 122.367 7.63343 96.6827 7.63343 65C7.63343 33.3173 33.3173 7.63346 65 7.63346C96.6826 7.63346 122.367 33.3173 122.367 65ZM7.88501 65C7.88501 96.5437 33.4563 122.115 65 122.115C96.5437 122.115 122.115 96.5437 122.115 65C122.115 33.4563 96.5437 7.88505 65 7.88505C33.4563 7.88505 7.88501 33.4563 7.88501 65Z" fill="white" fill-opacity="0.19"/>
<path d="M96.9217 65C96.9217 82.6299 82.6299 96.9217 65 96.9217C47.3701 96.9217 33.0783 82.6299 33.0783 65C33.0783 47.3701 47.3701 33.0783 65 33.0783C82.6299 33.0783 96.9217 47.3701 96.9217 65ZM33.2183 65C33.2183 82.5525 47.4474 96.7817 65 96.7817C82.5526 96.7817 96.7817 82.5525 96.7817 65C96.7817 47.4474 82.5526 33.2183 65 33.2183C47.4474 33.2183 33.2183 47.4474 33.2183 65Z" fill="white" fill-opacity="0.19"/>
<path d="M130 65C130 56.4641 128.319 48.0117 125.052 40.1256C121.786 32.2394 116.998 25.0739 110.962 19.0381C104.926 13.0023 97.7606 8.21439 89.8744 4.94783C81.9883 1.68127 73.5359 -3.73117e-07 65 0V0.285059C73.4985 0.285058 81.9137 1.95896 89.7653 5.21119C97.6169 8.46342 104.751 13.2303 110.76 19.2396C116.77 25.249 121.537 32.3831 124.789 40.2347C128.041 48.0862 129.715 56.5015 129.715 65H130Z" fill="#1E90F3"/>
<path d="M0 65C0 73.5359 1.68128 81.9883 4.94783 89.8744C8.21439 97.7606 13.0023 104.926 19.0381 110.962C25.0739 116.998 32.2394 121.786 40.1256 125.052C48.0117 128.319 56.4641 130 65 130V129.715C56.5015 129.715 48.0862 128.041 40.2347 124.789C32.3831 121.537 25.249 116.77 19.2396 110.76C13.2303 104.751 8.46342 97.6169 5.21119 89.7653C1.95896 81.9138 0.285059 73.4985 0.285059 65H0Z" fill="#1E90F3"/>
<path d="M0 65C0 29.1015 29.1015 0 65 0C100.898 0 130 29.1015 130 65C130 100.899 100.899 130 65 130C29.1015 130 0 100.899 0 65ZM129.715 65C129.715 29.2589 100.741 0.285059 65 0.285059C29.2589 0.285059 0.285059 29.2589 0.285059 65C0.285059 100.741 29.2589 129.715 65 129.715C100.741 129.715 129.715 100.741 129.715 65Z" fill="white" fill-opacity="0.11"/>
<path d="M122.367 65C122.367 72.5335 120.883 79.9932 118 86.9532C115.117 93.9133 110.891 100.237 105.564 105.564C100.237 110.891 93.9132 115.117 86.9532 118C79.9932 120.883 72.5335 122.367 65 122.367V105.713C70.3465 105.713 75.6406 104.66 80.5801 102.614C85.5196 100.568 90.0077 97.5688 93.7882 93.7883C97.5688 90.0077 100.568 85.5196 102.614 80.5801C104.66 75.6406 105.713 70.3465 105.713 65H122.367Z" fill="white" fill-opacity="0.02"/>
<path d="M7.63343 65C7.63343 57.4665 9.1173 50.0068 12.0002 43.0468C14.8832 36.0867 19.1088 29.7627 24.4357 24.4357C29.7627 19.1088 36.0868 14.8832 43.0468 12.0002C50.0068 9.11728 57.4665 7.63346 65 7.63346L65 24.2873C59.6535 24.2873 54.3594 25.3403 49.4199 27.3863C44.4804 29.4323 39.9923 32.4312 36.2118 36.2117C32.4312 39.9923 29.4323 44.4804 27.3863 49.4199C25.3403 54.3594 24.2873 59.6535 24.2873 65L7.63343 65Z" fill="white" fill-opacity="0.02"/>
<path d="M12.6545 88.4706C9.87664 82.2752 8.22064 75.6359 7.76359 68.8617L15.0796 68.3681C15.4782 74.2764 16.9225 80.0671 19.3453 85.4706L12.6545 88.4706Z" fill="white" fill-opacity="0.02"/>
<path d="M122.159 60.1214C121.581 53.3563 119.808 46.7475 116.92 40.6025L109.998 43.855C112.501 49.1808 114.038 54.9086 114.539 60.7718L122.159 60.1214Z" fill="white" fill-opacity="0.02"/>
</svg>
