<svg width="134" height="49" viewBox="0 0 134 49" fill="none" xmlns="http://www.w3.org/2000/svg">
<path d="M71.8623 0.0735472C62.4765 1.53072 54.7853 4.96746 46.8334 11.2086L45.1605 12.5283L43.7917 12.2808C38.9901 11.4285 31.6031 11.3186 25.9108 12.0334C17.4375 13.0782 9.3987 16.24 4.48852 20.4465C2.92421 21.7937 -0.226125 25.6429 0.0128659 25.9178C0.0563189 26.0003 0.642934 25.6429 1.273 25.1205C6.16146 21.1889 13.744 18.3295 22.6518 17.0648C27.8227 16.3224 36.4047 16.4324 43.7265 17.3122C53.1775 18.467 57.11 18.6869 65.7789 18.522C72.84 18.3845 79.7055 17.8346 80.0749 17.3672C80.1401 17.2847 79.5969 17.2297 78.9017 17.2297C75.86 17.2297 65.0185 15.7451 57.8704 14.3429C55.9585 13.958 54.3073 13.6555 54.2204 13.6555C53.5686 13.6555 54.4811 12.9132 57.3707 11.0986C67.9298 4.47257 80.2487 2.96041 93.328 6.67208C95.5007 7.27695 100.976 9.33899 101.475 9.72391C101.997 10.1363 98.3686 13.5181 95.4138 15.3876C88.961 19.4567 74.9257 22.7285 63.8018 22.7285C62.2375 22.7285 61.0208 22.8385 61.086 22.976C61.3901 23.5808 68.712 24.3782 73.948 24.3782C88.1789 24.3782 103.605 19.5667 116.901 10.9886C118.9 9.69641 120.53 8.51418 120.53 8.4042C120.53 8.29422 119.965 8.04678 119.291 7.88182C118.596 7.71685 116.966 7.27695 115.641 6.91953C106.147 4.30761 92.7197 1.55822 84.6809 0.595931C81.1395 0.156029 73.3397 -0.146404 71.8623 0.0735472Z" fill="white"/>
<path d="M122.094 10.7412C121.486 10.9336 120.204 11.7035 119.269 12.4183C114.424 16.2675 110.579 18.5494 104.821 20.9689C95.8918 24.7631 85.8107 26.8801 74.6867 27.32C72.1665 27.4025 70.1459 27.5125 70.1676 27.5674C70.3632 27.7874 78.2933 28.8322 81.7913 29.0521C93.7626 29.8769 102.692 27.5949 114.685 20.7215C118.009 18.7969 120.682 17.6147 122.55 17.2297C126.939 16.3499 130.676 20.1441 131.132 25.9453L131.284 27.7874L132.175 26.4127C133.718 24.0757 134 23.3334 134 21.4363C134 17.1473 131.328 12.8032 127.634 11.1811C126.026 10.4662 123.571 10.2738 122.094 10.7412Z" fill="#1E90F3"/>
<path d="M26.454 20.529C23.7382 21.0239 21.5438 21.6563 18.9801 22.756C16.5902 23.7733 12.0276 26.2752 12.1797 26.4677C12.2014 26.5227 12.9618 26.3027 13.8526 26.0278C18.2196 24.5981 23.0646 23.8283 28.6266 23.6908C34.6014 23.5533 39.3812 24.1307 45.6819 25.7803C47.3331 26.1927 48.7453 26.4952 48.8105 26.4402C48.9843 26.1927 44.2914 23.5533 42.0319 22.591C38.2297 20.9964 35.9267 20.5015 31.6683 20.3915C29.5826 20.3365 27.2361 20.3915 26.454 20.529Z" fill="#1E90F3"/>
<path d="M1.10696 48.6884V35.0556H7.80696C9.32174 35.0556 10.6553 35.3348 11.8075 35.8931C12.9598 36.4384 13.8596 37.2174 14.507 38.2301C15.1543 39.2428 15.478 40.4503 15.478 41.8525C15.478 43.2678 15.1543 44.4882 14.507 45.5139C13.8596 46.5266 12.9598 47.3121 11.8075 47.8704C10.6553 48.4157 9.32174 48.6884 7.80696 48.6884H1.10696ZM5.69015 45.1049H7.61275C8.2601 45.1049 8.82329 44.9816 9.30232 44.7349C9.7943 44.4882 10.1762 44.1247 10.4481 43.6443C10.72 43.1509 10.8559 42.5537 10.8559 41.8525C10.8559 41.1644 10.72 40.5802 10.4481 40.0998C10.1762 39.6194 9.7943 39.2558 9.30232 39.0091C8.82329 38.7625 8.2601 38.6391 7.61275 38.6391H5.69015V45.1049Z" fill="white"/>
<path d="M21.3462 40.1192H27.4054V43.43H21.3462V40.1192ZM21.657 45.2218H28.4541V48.6884H17.1515V35.0556H28.2016V38.5223H21.657V45.2218Z" fill="white"/>
<path d="M28.7425 48.6884L34.6851 35.0556H39.1906L45.1332 48.6884H40.3947L36.0057 37.2369H37.7923L33.4034 48.6884H28.7425ZM32.277 46.3124L33.4422 43.0016H39.6955L40.8607 46.3124H32.277Z" fill="white"/>
<path d="M45.8647 48.6884V35.0556H50.4478V45.1244H56.5847V48.6884H45.8647Z" fill="white"/>
<path d="M62.0454 40.1192H68.1045V43.43H62.0454V40.1192ZM62.3561 45.2218H69.1532V48.6884H57.8506V35.0556H68.9008V38.5223H62.3561V45.2218Z" fill="white"/>
<path d="M70.9176 48.6884V35.0556H77.4622C78.731 35.0556 79.825 35.2634 80.7443 35.6789C81.6764 36.0943 82.395 36.6916 82.8999 37.4706C83.4048 38.2366 83.6573 39.1455 83.6573 40.1971C83.6573 41.2488 83.4048 42.1577 82.8999 42.9237C82.395 43.6767 81.6764 44.2545 80.7443 44.657C79.825 45.0595 78.731 45.2607 77.4622 45.2607H73.4616L75.5008 43.3716V48.6884H70.9176ZM79.0547 48.6884L75.7144 43.7222H80.5695L83.9486 48.6884H79.0547ZM75.5008 43.878L73.4616 41.7941H77.1709C77.8053 41.7941 78.2714 41.6513 78.5692 41.3657C78.8799 41.08 79.0353 40.6905 79.0353 40.1971C79.0353 39.7038 78.8799 39.3143 78.5692 39.0286C78.2714 38.743 77.8053 38.6002 77.1709 38.6002H73.4616L75.5008 36.5163V43.878Z" fill="white"/>
<path d="M90.4567 49C89.3174 49 88.2169 48.8702 87.1552 48.6105C86.0936 48.3508 85.2197 48.0132 84.5335 47.5978L86.0094 44.248C86.6568 44.6245 87.3753 44.9296 88.1651 45.1634C88.9678 45.3841 89.7446 45.4944 90.4955 45.4944C90.9357 45.4944 91.2788 45.4685 91.5248 45.4165C91.7837 45.3516 91.9715 45.2672 92.088 45.1634C92.2045 45.0465 92.2628 44.9102 92.2628 44.7544C92.2628 44.5077 92.1268 44.3129 91.8549 44.1701C91.5831 44.0273 91.2205 43.9104 90.7674 43.8196C90.3272 43.7157 89.8417 43.6118 89.3109 43.5079C88.7801 43.3911 88.2428 43.2418 87.699 43.06C87.1682 42.8782 86.6762 42.6381 86.2231 42.3394C85.7829 42.0408 85.4268 41.6513 85.1549 41.1709C84.8831 40.6775 84.7471 40.0673 84.7471 39.3402C84.7471 38.4963 84.9801 37.7303 85.4462 37.0421C85.9253 36.341 86.6309 35.7827 87.563 35.3672C88.5082 34.9518 89.6799 34.744 91.0781 34.744C91.9974 34.744 92.9036 34.8414 93.797 35.0362C94.6903 35.2309 95.493 35.5295 96.2051 35.932L94.8262 39.2623C94.153 38.9247 93.4992 38.6716 92.8648 38.5028C92.2433 38.334 91.6348 38.2496 91.0393 38.2496C90.5991 38.2496 90.2495 38.2886 89.9906 38.3665C89.7317 38.4444 89.5439 38.5482 89.4274 38.6781C89.3238 38.8079 89.272 38.9507 89.272 39.1065C89.272 39.3402 89.408 39.5285 89.6799 39.6713C89.9517 39.8011 90.3078 39.9115 90.748 40.0024C91.2011 40.0933 91.6931 40.1906 92.2239 40.2945C92.7677 40.3984 93.305 40.5412 93.8358 40.723C94.3666 40.9047 94.8521 41.1449 95.2923 41.4436C95.7455 41.7422 96.108 42.1317 96.3799 42.6121C96.6517 43.0925 96.7877 43.6897 96.7877 44.4038C96.7877 45.2348 96.5482 46.0008 96.0691 46.7019C95.6031 47.39 94.9039 47.9483 93.9717 48.3768C93.0396 48.7923 91.8679 49 90.4567 49Z" fill="#1E90F3"/>
<path d="M106.968 35.0556H111.552V48.6884H106.968V35.0556ZM102.735 48.6884H98.1515V35.0556H102.735V48.6884ZM107.279 43.6638H102.424V39.8855H107.279V43.6638Z" fill="#1E90F3"/>
<path d="M113.76 48.6884V35.0556H118.343V48.6884H113.76Z" fill="#1E90F3"/>
<path d="M120.549 48.6884V35.0556H127.094C128.363 35.0556 129.457 35.2634 130.376 35.6789C131.308 36.0943 132.027 36.6916 132.532 37.4706C133.037 38.2366 133.289 39.1455 133.289 40.1971C133.289 41.2488 133.037 42.1577 132.532 42.9237C132.027 43.6897 131.308 44.287 130.376 44.7154C129.457 45.1309 128.363 45.3386 127.094 45.3386H123.093L125.133 43.3716V48.6884H120.549ZM125.133 43.878L123.093 41.7941H126.803C127.437 41.7941 127.903 41.6513 128.201 41.3657C128.512 41.08 128.667 40.6905 128.667 40.1971C128.667 39.7038 128.512 39.3143 128.201 39.0286C127.903 38.743 127.437 38.6002 126.803 38.6002H123.093L125.133 36.5163V43.878Z" fill="#1E90F3"/>
</svg>
