<svg width="45" height="45" viewBox="0 0 45 45" fill="none" xmlns="http://www.w3.org/2000/svg">
<path d="M16.875 4.21875C16.875 3.84579 17.0232 3.4881 17.2869 3.22438C17.5506 2.96066 17.9083 2.8125 18.2812 2.8125H26.7188C27.0917 2.8125 27.4494 2.96066 27.7131 3.22438C27.9768 3.4881 28.125 3.84579 28.125 4.21875C28.125 4.59171 27.9768 4.9494 27.7131 5.21312C27.4494 5.47684 27.0917 5.625 26.7188 5.625H18.2812C17.9083 5.625 17.5506 5.47684 17.2869 5.21312C17.0232 4.9494 16.875 4.59171 16.875 4.21875ZM43.5938 19.6875C43.5938 20.0605 43.4456 20.4181 43.1819 20.6819C42.9181 20.9456 42.5605 21.0938 42.1875 21.0938H40.7812V35.1562C40.7812 35.9022 40.4849 36.6175 39.9575 37.145C39.43 37.6724 38.7147 37.9688 37.9688 37.9688H33.75C33.0041 37.9688 32.2887 37.6724 31.7613 37.145C31.2338 36.6175 30.9375 35.9022 30.9375 35.1562V33.75H14.0625V35.1562C14.0625 35.9022 13.7662 36.6175 13.2387 37.145C12.7113 37.6724 11.9959 37.9688 11.25 37.9688H7.03125C6.28533 37.9688 5.56996 37.6724 5.04251 37.145C4.51507 36.6175 4.21875 35.9022 4.21875 35.1562V21.0938H2.8125C2.43954 21.0938 2.08185 20.9456 1.81813 20.6819C1.55441 20.4181 1.40625 20.0605 1.40625 19.6875C1.40625 19.3145 1.55441 18.9569 1.81813 18.6931C2.08185 18.4294 2.43954 18.2812 2.8125 18.2812H4.80938L9.62402 9.8543C9.87003 9.42391 10.2254 9.06619 10.6542 8.81739C11.083 8.56858 11.5699 8.43753 12.0656 8.4375H32.9344C33.4301 8.43753 33.917 8.56858 34.3458 8.81739C34.7746 9.06619 35.13 9.42391 35.376 9.8543L40.1906 18.2812H42.1875C42.5605 18.2812 42.9181 18.4294 43.1819 18.6931C43.4456 18.9569 43.5938 19.3145 43.5938 19.6875ZM15.4688 25.3125C15.4688 24.9395 15.3206 24.5819 15.0569 24.3181C14.7931 24.0544 14.4355 23.9062 14.0625 23.9062H9.84375C9.47079 23.9062 9.1131 24.0544 8.84938 24.3181C8.58566 24.5819 8.4375 24.9395 8.4375 25.3125C8.4375 25.6855 8.58566 26.0431 8.84938 26.3069C9.1131 26.5706 9.47079 26.7188 9.84375 26.7188H14.0625C14.4355 26.7188 14.7931 26.5706 15.0569 26.3069C15.3206 26.0431 15.4688 25.6855 15.4688 25.3125ZM36.5625 25.3125C36.5625 24.9395 36.4143 24.5819 36.1506 24.3181C35.8869 24.0544 35.5292 23.9062 35.1562 23.9062H30.9375C30.5645 23.9062 30.2069 24.0544 29.9431 24.3181C29.6794 24.5819 29.5312 24.9395 29.5312 25.3125C29.5312 25.6855 29.6794 26.0431 29.9431 26.3069C30.2069 26.5706 30.5645 26.7188 30.9375 26.7188H35.1562C35.5292 26.7188 35.8869 26.5706 36.1506 26.3069C36.4143 26.0431 36.5625 25.6855 36.5625 25.3125ZM36.951 18.2812L32.9344 11.25H12.0656L8.04902 18.2812H36.951Z" fill="#1E90F3"/>
</svg>
