<svg width="45" height="46" viewBox="0 0 45 46" fill="none" xmlns="http://www.w3.org/2000/svg">
<path d="M28.125 2.375H16.875V6.125H28.125V2.375ZM35.6813 14.3563L38.3438 11.6937C37.5375 10.7375 36.6563 9.8375 35.7 9.05L33.0375 11.7125C30.0512 9.30936 26.3331 7.99942 22.5 8C13.1813 8 5.625 15.5563 5.625 24.875C5.625 34.1938 13.1625 41.75 22.5 41.75C25.6768 41.7517 28.7895 40.8561 31.4796 39.1662C34.1697 37.4763 36.3277 35.0609 37.7052 32.1983C39.0826 29.3356 39.6235 26.1421 39.2654 22.9855C38.9073 19.8289 37.6649 16.8376 35.6813 14.3563ZM22.5 38C15.2438 38 9.375 32.1313 9.375 24.875C9.375 17.6188 15.2438 11.75 22.5 11.75C29.7563 11.75 35.625 17.6188 35.625 24.875C35.625 32.1313 29.7563 38 22.5 38ZM21.9 28.625H11.9062C12.4376 30.1274 13.2825 31.4996 14.3849 32.6505C15.4872 33.8013 16.8218 34.7045 18.3 35.3L18.0937 35.1875L21.9 28.625ZM33.0938 21.125C32.5702 19.6432 31.7427 18.2873 30.6642 17.1442C29.5857 16.0011 28.2801 15.0962 26.8313 14.4875L22.9875 21.125H33.0938ZM19.8937 35.8063C20.7375 36.0125 21.6 36.125 22.5 36.125C25.0125 36.125 27.3187 35.2813 29.1937 33.8937L25.2375 26.5812L19.8937 35.8063ZM14.1562 17.3563C12.2866 19.4141 11.2505 22.0946 11.25 24.875C11.25 25.5125 11.325 26.1313 11.4188 26.75H20.2688L14.1562 17.3563ZM30.6375 32.6187C32.6395 30.5385 33.7554 27.7621 33.75 24.875C33.75 24.2375 33.675 23.6188 33.5812 23H25.4437L30.6375 32.6187ZM24.9937 13.9063C24.1875 13.7375 23.3625 13.625 22.5 13.625C19.875 13.625 17.4563 14.5438 15.5437 16.0438L19.8937 22.7188L24.9937 13.9063Z" fill="#1E90F3"/>
</svg>
