<svg width="46" height="46" viewBox="0 0 46 46" fill="none" xmlns="http://www.w3.org/2000/svg">
<path d="M20.5251 3.18198C21.892 1.81515 24.108 1.81515 25.4749 3.18198L42.818 20.5251C44.1849 21.892 44.1849 24.108 42.818 25.4749L25.4749 42.818C24.108 44.1849 21.892 44.1849 20.5251 42.818L3.18198 25.4749C1.81515 24.108 1.81515 21.892 3.18198 20.5251L20.5251 3.18198Z" fill="url(#paint0_linear_235_2695)" stroke="#B80100"/>
<path d="M32.7285 23.7074L29.0251 27.707C28.8514 27.8946 28.6157 28 28.37 28C28.1244 28 27.8887 27.8946 27.715 27.707C27.5413 27.5194 27.4437 27.2649 27.4437 26.9996C27.4437 26.7342 27.5413 26.4798 27.715 26.2921L29.8387 23.9999H16.1613L18.285 26.2921C18.4587 26.4798 18.5563 26.7342 18.5563 26.9996C18.5563 27.2649 18.4587 27.5194 18.285 27.707C18.1113 27.8946 17.8756 28 17.63 28C17.3843 28 17.1486 27.8946 16.9749 27.707L13.2715 23.7074C13.1855 23.6146 13.1172 23.5043 13.0706 23.3829C13.024 23.2615 13 23.1314 13 23C13 22.8686 13.024 22.7385 13.0706 22.6171C13.1172 22.4957 13.1855 22.3854 13.2715 22.2926L16.9749 18.293C17.1486 18.1054 17.3843 18 17.63 18C17.8756 18 18.1113 18.1054 18.285 18.293C18.4587 18.4806 18.5563 18.7351 18.5563 19.0004C18.5563 19.2658 18.4587 19.5202 18.285 19.7079L16.1613 22.0001H29.8387L27.715 19.7079C27.5413 19.5202 27.4437 19.2658 27.4437 19.0004C27.4437 18.7351 27.5413 18.4806 27.715 18.293C27.8887 18.1054 28.1244 18 28.37 18C28.6157 18 28.8514 18.1054 29.0251 18.293L32.7285 22.2926C32.8145 22.3854 32.8828 22.4957 32.9294 22.6171C32.976 22.7385 33 22.8686 33 23C33 23.1314 32.976 23.2615 32.9294 23.3829C32.8828 23.5043 32.8145 23.6146 32.7285 23.7074Z" fill="white"/>
<defs>
<linearGradient id="paint0_linear_235_2695" x1="0" y1="0" x2="46" y2="46" gradientUnits="userSpaceOnUse">
<stop stop-color="#B80100"/>
<stop offset="1" stop-color="#850100"/>
</linearGradient>
</defs>
</svg>
