<svg width="60" height="60" viewBox="0 0 60 60" fill="none" xmlns="http://www.w3.org/2000/svg">
<path d="M4.33013 35.5C2.36516 32.0966 2.36516 27.9034 4.33013 24.5L12.4019 10.5192C14.3669 7.11583 17.9983 5.01924 21.9282 5.01924L38.0718 5.01924C42.0017 5.01924 45.6331 7.11583 47.5981 10.5192L55.6699 24.5C57.6348 27.9034 57.6348 32.0966 55.6699 35.5L47.5981 49.4808C45.6331 52.8842 42.0017 54.9808 38.0718 54.9808L21.9282 54.9808C17.9983 54.9808 14.3669 52.8842 12.4019 49.4808L4.33013 35.5Z" fill="url(#paint0_radial_397_3321)" fill-opacity="0.45" stroke="#2981FF" stroke-width="2"/>
<path d="M7.3094 34C5.88034 31.5248 5.88034 28.4752 7.3094 26L15.1906 12.3494C16.6197 9.87416 19.2607 8.34937 22.1188 8.34937L37.8812 8.34937C40.7393 8.34937 43.3803 9.87416 44.8094 12.3494L52.6906 26C54.1197 28.4752 54.1197 31.5248 52.6906 34L44.8094 47.6506C43.3803 50.1258 40.7393 51.6506 37.8812 51.6506L22.1188 51.6506C19.2607 51.6506 16.6197 50.1258 15.1906 47.6506L7.3094 34Z" fill="#2981FF"/>
<defs>
<radialGradient id="paint0_radial_397_3321" cx="0" cy="0" r="1" gradientUnits="userSpaceOnUse" gradientTransform="translate(30 -0.0857063) rotate(90) scale(66.6214 679.837)">
<stop/>
<stop offset="1" stop-opacity="0"/>
</radialGradient>
</defs>
</svg>
