<svg width="172" height="47" viewBox="0 0 172 47" fill="none" xmlns="http://www.w3.org/2000/svg">
<path d="M5.54501 0.727273H6.86248V5.47869C6.86248 5.99953 6.73938 6.45762 6.49316 6.85298C6.24932 7.24834 5.90604 7.55729 5.46333 7.77983C5.02063 8 4.50334 8.11009 3.91149 8.11009C3.31726 8.11009 2.7988 8 2.35609 7.77983C1.91338 7.55729 1.57011 7.24834 1.32626 6.85298C1.08242 6.45762 0.960494 5.99953 0.960494 5.47869V0.727273H2.27797V5.36861C2.27797 5.67164 2.34425 5.94152 2.47683 6.17827C2.61177 6.41501 2.80117 6.60085 3.04501 6.7358C3.28886 6.86837 3.57768 6.93466 3.91149 6.93466C4.24529 6.93466 4.53412 6.86837 4.77797 6.7358C5.02418 6.60085 5.21357 6.41501 5.34615 6.17827C5.47872 5.94152 5.54501 5.67164 5.54501 5.36861V0.727273ZM7.97488 1.83168V0.727273H13.7774V1.83168H11.5296V8H10.2227V1.83168H7.97488ZM16.2135 0.727273V8H14.896V0.727273H16.2135ZM17.6402 8V0.727273H18.9577V6.8956H22.1608V8H17.6402ZM24.6217 0.727273V8H23.3042V0.727273H24.6217ZM25.9134 8V7.17969L29.6421 1.83168H25.8921V0.727273H31.2757V1.54759L27.5505 6.8956H31.297V8H25.9134ZM32.5718 8V0.727273H37.3019V1.83168H33.8893V3.80611H37.0569V4.91051H33.8893V6.8956H37.3303V8H32.5718ZM77.7769 8V0.727273H80.5042C81.0629 0.727273 81.5316 0.831439 81.9104 1.03977C82.2916 1.24811 82.5792 1.53456 82.7733 1.89915C82.9698 2.26136 83.0681 2.6733 83.0681 3.13494C83.0681 3.60133 82.9698 4.01562 82.7733 4.37784C82.5769 4.74006 82.2868 5.02533 81.9033 5.23366C81.5198 5.43963 81.0475 5.54261 80.4864 5.54261H78.6789V4.45952H80.3089C80.6356 4.45952 80.9031 4.4027 81.1114 4.28906C81.3198 4.17543 81.4736 4.01918 81.5731 3.82031C81.6749 3.62145 81.7258 3.39299 81.7258 3.13494C81.7258 2.87689 81.6749 2.64962 81.5731 2.45312C81.4736 2.25663 81.3186 2.10393 81.1079 1.99503C80.8995 1.88376 80.6308 1.82812 80.3018 1.82812H79.0944V8H77.7769ZM84.3358 8H82.9296L85.49 0.727273H87.1164L89.6803 8H88.2741L86.3316 2.21875H86.2748L84.3358 8ZM84.382 5.14844H88.2172V6.20668H84.382V5.14844ZM90.6382 8V0.727273H93.3655C93.9242 0.727273 94.393 0.824337 94.7718 1.01847C95.1529 1.21259 95.4405 1.48485 95.6347 1.83523C95.8312 2.18324 95.9294 2.58925 95.9294 3.05327C95.9294 3.51965 95.83 3.92448 95.6311 4.26776C95.4346 4.60866 95.1446 4.87263 94.7611 5.05966C94.3776 5.24432 93.9065 5.33665 93.3477 5.33665H91.4053V4.2429H93.1702C93.4969 4.2429 93.7644 4.19792 93.9727 4.10795C94.1811 4.01562 94.335 3.88187 94.4344 3.70668C94.5362 3.52912 94.5871 3.31132 94.5871 3.05327C94.5871 2.79522 94.5362 2.57505 94.4344 2.39276C94.3326 2.2081 94.1775 2.06842 93.9692 1.97372C93.7609 1.87666 93.4922 1.82812 93.1631 1.82812H91.9557V8H90.6382ZM94.3953 4.70455L96.1958 8H94.7256L92.9571 4.70455H94.3953ZM98.0761 8H96.6698L99.2302 0.727273H100.857L103.421 8H102.014L100.072 2.21875H100.015L98.0761 8ZM98.1222 5.14844H101.957V6.20668H98.1222V5.14844ZM106.859 8V0.727273H109.586C110.145 0.727273 110.614 0.824337 110.992 1.01847C111.374 1.21259 111.661 1.48485 111.855 1.83523C112.052 2.18324 112.15 2.58925 112.15 3.05327C112.15 3.51965 112.051 3.92448 111.852 4.26776C111.655 4.60866 111.365 4.87263 110.982 5.05966C110.598 5.24432 110.127 5.33665 109.568 5.33665H107.626V4.2429H109.391C109.718 4.2429 109.985 4.19792 110.193 4.10795C110.402 4.01562 110.556 3.88187 110.655 3.70668C110.757 3.52912 110.808 3.31132 110.808 3.05327C110.808 2.79522 110.757 2.57505 110.655 2.39276C110.553 2.2081 110.398 2.06842 110.19 1.97372C109.982 1.87666 109.713 1.82812 109.384 1.82812H108.176V8H106.859ZM110.616 4.70455L112.416 8H110.946L109.178 4.70455H110.616ZM119.861 4.36364C119.861 5.14725 119.715 5.81842 119.421 6.37713C119.13 6.93348 118.732 7.35961 118.228 7.65554C117.726 7.95147 117.157 8.09943 116.52 8.09943C115.883 8.09943 115.312 7.95147 114.808 7.65554C114.306 7.35724 113.909 6.92992 113.615 6.37358C113.324 5.81487 113.178 5.14489 113.178 4.36364C113.178 3.58002 113.324 2.91004 113.615 2.35369C113.909 1.79498 114.306 1.36766 114.808 1.07173C115.312 0.775805 115.883 0.627841 116.52 0.627841C117.157 0.627841 117.726 0.775805 118.228 1.07173C118.732 1.36766 119.13 1.79498 119.421 2.35369C119.715 2.91004 119.861 3.58002 119.861 4.36364ZM118.537 4.36364C118.537 3.81203 118.45 3.34683 118.278 2.96804C118.107 2.58688 117.87 2.29924 117.567 2.10511C117.264 1.90862 116.915 1.81037 116.52 1.81037C116.124 1.81037 115.775 1.90862 115.472 2.10511C115.169 2.29924 114.931 2.58688 114.758 2.96804C114.588 3.34683 114.503 3.81203 114.503 4.36364C114.503 4.91525 114.588 5.38163 114.758 5.76278C114.931 6.14157 115.169 6.42921 115.472 6.62571C115.775 6.81984 116.124 6.9169 116.52 6.9169C116.915 6.9169 117.264 6.81984 117.567 6.62571C117.87 6.42921 118.107 6.14157 118.278 5.76278C118.45 5.38163 118.537 4.91525 118.537 4.36364ZM120.465 1.83168V0.727273H126.268V1.83168H124.02V8H122.713V1.83168H120.465ZM127.441 8H126.035L128.595 0.727273H130.222L132.786 8H131.38L129.437 2.21875H129.38L127.441 8ZM127.487 5.14844H131.323V6.20668H127.487V5.14844ZM139.627 3.18111H138.299C138.261 2.9633 138.191 2.77036 138.089 2.60227C137.988 2.43182 137.861 2.28741 137.709 2.16903C137.558 2.05066 137.385 1.96188 137.191 1.9027C136.999 1.84115 136.792 1.81037 136.57 1.81037C136.174 1.81037 135.824 1.9098 135.518 2.10866C135.213 2.30516 134.974 2.59399 134.801 2.97514C134.628 3.35393 134.542 3.81676 134.542 4.36364C134.542 4.91998 134.628 5.38873 134.801 5.76989C134.976 6.14867 135.215 6.43513 135.518 6.62926C135.824 6.82102 136.173 6.9169 136.566 6.9169C136.784 6.9169 136.987 6.88849 137.177 6.83168C137.369 6.77249 137.54 6.68608 137.692 6.57244C137.846 6.45881 137.975 6.31913 138.079 6.15341C138.185 5.98769 138.259 5.7983 138.299 5.58523L139.627 5.59233C139.577 5.93797 139.47 6.26231 139.304 6.56534C139.141 6.86837 138.926 7.13589 138.661 7.3679C138.396 7.59754 138.086 7.77746 137.731 7.90767C137.376 8.03551 136.981 8.09943 136.548 8.09943C135.909 8.09943 135.338 7.95147 134.837 7.65554C134.335 7.35961 133.939 6.93229 133.65 6.37358C133.362 5.81487 133.217 5.14489 133.217 4.36364C133.217 3.58002 133.363 2.91004 133.654 2.35369C133.945 1.79498 134.342 1.36766 134.844 1.07173C135.346 0.775805 135.914 0.627841 136.548 0.627841C136.953 0.627841 137.329 0.684659 137.677 0.798295C138.025 0.911932 138.336 1.07884 138.608 1.29901C138.88 1.51681 139.104 1.78433 139.279 2.10156C139.457 2.41643 139.573 2.77628 139.627 3.18111ZM142.151 0.727273V8H140.834V0.727273H142.151ZM150.076 4.36364C150.076 5.14725 149.929 5.81842 149.636 6.37713C149.345 6.93348 148.947 7.35961 148.443 7.65554C147.941 7.95147 147.371 8.09943 146.735 8.09943C146.098 8.09943 145.527 7.95147 145.023 7.65554C144.521 7.35724 144.123 6.92992 143.83 6.37358C143.539 5.81487 143.393 5.14489 143.393 4.36364C143.393 3.58002 143.539 2.91004 143.83 2.35369C144.123 1.79498 144.521 1.36766 145.023 1.07173C145.527 0.775805 146.098 0.627841 146.735 0.627841C147.371 0.627841 147.941 0.775805 148.443 1.07173C148.947 1.36766 149.345 1.79498 149.636 2.35369C149.929 2.91004 150.076 3.58002 150.076 4.36364ZM148.752 4.36364C148.752 3.81203 148.665 3.34683 148.492 2.96804C148.322 2.58688 148.085 2.29924 147.782 2.10511C147.479 1.90862 147.13 1.81037 146.735 1.81037C146.339 1.81037 145.99 1.90862 145.687 2.10511C145.384 2.29924 145.146 2.58688 144.973 2.96804C144.803 3.34683 144.718 3.81203 144.718 4.36364C144.718 4.91525 144.803 5.38163 144.973 5.76278C145.146 6.14157 145.384 6.42921 145.687 6.62571C145.99 6.81984 146.339 6.9169 146.735 6.9169C147.13 6.9169 147.479 6.81984 147.782 6.62571C148.085 6.42921 148.322 6.14157 148.492 5.76278C148.665 5.38163 148.752 4.91525 148.752 4.36364ZM157.298 0.727273V8H156.127L152.7 3.04616H152.639V8H151.322V0.727273H152.501L155.924 5.68466H155.988V0.727273H157.298ZM159.668 8H158.262L160.822 0.727273H162.448L165.012 8H163.606L161.664 2.21875H161.607L159.668 8ZM159.714 5.14844H163.549V6.20668H159.714V5.14844ZM165.97 8V0.727273H168.698C169.256 0.727273 169.725 0.824337 170.104 1.01847C170.485 1.21259 170.773 1.48485 170.967 1.83523C171.163 2.18324 171.261 2.58925 171.261 3.05327C171.261 3.51965 171.162 3.92448 170.963 4.26776C170.767 4.60866 170.477 4.87263 170.093 5.05966C169.71 5.24432 169.238 5.33665 168.68 5.33665H166.737V4.2429H168.502C168.829 4.2429 169.096 4.19792 169.305 4.10795C169.513 4.01562 169.667 3.88187 169.766 3.70668C169.868 3.52912 169.919 3.31132 169.919 3.05327C169.919 2.79522 169.868 2.57505 169.766 2.39276C169.665 2.2081 169.51 2.06842 169.301 1.97372C169.093 1.87666 168.824 1.82812 168.495 1.82812H167.288V8H165.97ZM169.727 4.70455L171.528 8H170.058L168.289 4.70455H169.727Z" fill="white" fill-opacity="0.9"/>
<path d="M42.1288 8H40.4811L42.9917 0.727273H44.9733L47.4804 8H45.8327L44.0109 2.3892H43.9541L42.1288 8ZM42.0258 5.14134H45.9179V6.34162H42.0258V5.14134ZM57.3534 4.36364C57.3534 5.15672 57.2031 5.83144 56.9024 6.38778C56.6041 6.94413 56.1969 7.36908 55.6808 7.66264C55.1671 7.95384 54.5895 8.09943 53.9479 8.09943C53.3016 8.09943 52.7216 7.95265 52.2078 7.65909C51.6941 7.36553 51.2881 6.94058 50.9898 6.38423C50.6915 5.82789 50.5423 5.15436 50.5423 4.36364C50.5423 3.57055 50.6915 2.89583 50.9898 2.33949C51.2881 1.78314 51.6941 1.35937 52.2078 1.06818C52.7216 0.774621 53.3016 0.627841 53.9479 0.627841C54.5895 0.627841 55.1671 0.774621 55.6808 1.06818C56.1969 1.35937 56.6041 1.78314 56.9024 2.33949C57.2031 2.89583 57.3534 3.57055 57.3534 4.36364ZM55.7945 4.36364C55.7945 3.84991 55.7175 3.41667 55.5637 3.06392C55.4121 2.71117 55.1979 2.44366 54.9209 2.26136C54.6439 2.07907 54.3196 1.98793 53.9479 1.98793C53.5762 1.98793 53.2519 2.07907 52.9749 2.26136C52.6979 2.44366 52.4825 2.71117 52.3286 3.06392C52.1771 3.41667 52.1013 3.84991 52.1013 4.36364C52.1013 4.87737 52.1771 5.31061 52.3286 5.66335C52.4825 6.0161 52.6979 6.28362 52.9749 6.46591C53.2519 6.6482 53.5762 6.73935 53.9479 6.73935C54.3196 6.73935 54.6439 6.6482 54.9209 6.46591C55.1979 6.28362 55.4121 6.0161 55.5637 5.66335C55.7175 5.31061 55.7945 4.87737 55.7945 4.36364ZM62.9846 0.727273H64.5223V5.45028C64.5223 5.98059 64.3956 6.4446 64.1423 6.84233C63.8914 7.24006 63.5398 7.55019 63.0876 7.77273C62.6354 7.9929 62.1087 8.10298 61.5074 8.10298C60.9037 8.10298 60.3757 7.9929 59.9236 7.77273C59.4714 7.55019 59.1198 7.24006 58.8689 6.84233C58.6179 6.4446 58.4925 5.98059 58.4925 5.45028V0.727273H60.0301V5.31889C60.0301 5.59588 60.0905 5.84209 60.2112 6.05753C60.3343 6.27296 60.5071 6.44223 60.7297 6.56534C60.9522 6.68845 61.2114 6.75 61.5074 6.75C61.8057 6.75 62.0649 6.68845 62.2851 6.56534C62.5076 6.44223 62.6792 6.27296 62.8 6.05753C62.9231 5.84209 62.9846 5.59588 62.9846 5.31889V0.727273ZM70.68 8H68.1018V0.727273H70.7013C71.4328 0.727273 72.0625 0.872869 72.5905 1.16406C73.1184 1.45289 73.5244 1.86837 73.8085 2.41051C74.095 2.95265 74.2382 3.60133 74.2382 4.35653C74.2382 5.11411 74.095 5.76515 73.8085 6.30966C73.5244 6.85417 73.116 7.27202 72.5834 7.56321C72.0531 7.8544 71.4186 8 70.68 8ZM69.6395 6.68253H70.616C71.0706 6.68253 71.4529 6.60204 71.7631 6.44105C72.0756 6.2777 72.3099 6.02557 72.4662 5.68466C72.6248 5.34138 72.7041 4.89867 72.7041 4.35653C72.7041 3.81913 72.6248 3.37997 72.4662 3.03906C72.3099 2.69815 72.0767 2.44721 71.7666 2.28622C71.4565 2.12524 71.0741 2.04474 70.6196 2.04474H69.6395V6.68253Z" fill="#2981FF"/>
<path d="M34.0323 42H30.2539L35.1616 27.4545H39.842L44.7496 42H40.9712L37.555 31.1193H37.4414L34.0323 42ZM33.5281 36.2756H41.4258V38.946H33.5281V36.2756Z" fill="white" fill-opacity="0.9"/>
<path d="M96.1608 40.8524V35.6604C96.5525 35.5413 96.9939 35.4137 97.431 35.2745C98.8937 34.8096 100.339 34.302 101.556 33.3405C101.855 33.1047 102.074 32.7699 102.307 32.5056C102.096 31.873 101.665 31.55 101.219 31.2471C100.061 30.4811 98.7771 29.9184 97.4233 29.5841C95.7083 29.1487 93.9813 28.7073 92.2304 28.469C89.4633 28.0932 86.6705 27.9656 83.8752 28.2115C82.1208 28.3675 80.3588 28.5202 78.6292 28.8323C76.2094 29.2686 73.8392 29.9038 71.7538 31.284C71.3261 31.5668 70.9232 31.8772 70.7342 32.384C70.8197 32.9268 71.2269 33.2608 71.6477 33.4831C72.7306 34.0562 73.8281 34.6267 74.9751 35.0521C76.0725 35.4582 77.229 35.7309 78.3794 35.97C79.476 36.1974 80.5983 36.3056 81.7102 36.4634C82.1131 36.5188 82.5194 36.5473 83.0283 36.6052V31.717L83.1695 31.6633L93.1704 39.2876L83.0711 47C82.9856 45.2137 83.0839 43.5255 83.0189 41.7845C82.5057 41.7199 82.0327 41.6679 81.5597 41.5974C79.9302 41.3541 78.2828 41.1855 76.6781 40.8331C75.1014 40.4836 73.5491 40.0352 72.0309 39.4906C70.1987 38.8387 68.5436 37.8646 67.1819 36.4567C65.3061 34.5177 64.9451 31.6968 66.3735 29.4297C67.2289 28.0713 68.4872 27.1148 69.8942 26.3337C71.4159 25.4888 73.0428 24.8948 74.7142 24.44C75.9819 24.0943 77.288 23.8753 78.583 23.6328C82.2175 22.9541 85.8913 22.9163 89.5668 23.0833C91.0987 23.1529 92.6273 23.3694 94.1481 23.5867C95.2606 23.7421 96.364 23.9541 97.4541 24.2218C99.8055 24.8016 102.073 25.6063 104.106 26.9361C105.224 27.6694 106.206 28.579 106.843 29.767C108.041 32.0106 107.561 34.7601 105.725 36.5632C104.35 37.9057 102.721 38.8597 100.913 39.4999C99.5566 39.9823 98.1657 40.3733 96.7869 40.7928C96.6021 40.8431 96.3994 40.8297 96.1608 40.8524Z" fill="white" fill-opacity="0.9"/>
<path d="M134.173 42H128.796V27.4545H134.165C135.647 27.4545 136.924 27.7457 137.994 28.3281C139.068 28.9058 139.897 29.7391 140.479 30.8281C141.062 31.9124 141.353 33.2098 141.353 34.7202C141.353 36.2353 141.062 37.5374 140.479 38.6264C139.902 39.7154 139.076 40.5511 138.001 41.1335C136.926 41.7112 135.65 42 134.173 42ZM132.312 39.0028H134.038C134.852 39.0028 135.541 38.8655 136.104 38.5909C136.673 38.3116 137.101 37.8594 137.39 37.2344C137.683 36.6046 137.83 35.7666 137.83 34.7202C137.83 33.6738 137.683 32.8404 137.39 32.2202C137.096 31.5952 136.663 31.1454 136.09 30.8707C135.522 30.5914 134.821 30.4517 133.988 30.4517H132.312V39.0028Z" fill="white" fill-opacity="0.9"/>
</svg>
