<svg width="25" height="14" viewBox="0 0 25 14" fill="none" xmlns="http://www.w3.org/2000/svg">
<path fill-rule="evenodd" clip-rule="evenodd" d="M7.18228 12.7296C3.20126 12.9103 3.17717 12.8604 3.05759 12.4895C2.99309 12.2894 2.41468 12.0313 1.77225 11.916C1.00279 11.7779 0.539392 11.5458 0.414322 11.2357C0.309902 10.9768 0.173959 10.765 0.11223 10.765C0.0505021 10.765 0 10.4759 0 10.1225C0 9.61036 0.0781865 9.47999 0.385344 9.47999C0.597279 9.47999 0.770682 9.33542 0.770682 9.15873C0.770682 8.98203 0.668247 8.83746 0.54305 8.83746C0.213991 8.83746 0.118963 8.20217 0.441249 8.15689C0.590188 8.13598 0.751625 8.13598 0.800002 8.15689C0.848378 8.17782 0.887962 8.05037 0.887962 7.87367C0.887962 7.69698 0.756023 7.55241 0.594767 7.55241C0.43351 7.55241 0.301572 7.40784 0.301572 7.23115C0.301572 7.05445 0.357244 6.90988 0.425283 6.90988C0.490579 6.90988 0.772662 6.62465 1.06296 6.26707C0.916709 6.20512 0.828722 6.12355 0.828722 6.03452C0.828722 5.85783 1.02663 5.71128 1.26851 5.70887C1.40101 5.70755 1.55991 5.67608 1.70303 5.62762C1.86645 5.50376 2.0458 5.39267 2.24662 5.29278L2.29469 5.25602L1.94286 5.04075C1.74157 4.91759 1.91047 4.82414 2.42312 4.77124C2.54543 4.74093 2.59553 4.56771 2.55793 4.29923C2.55134 4.2522 2.54798 4.20615 2.54771 4.16156C1.8885 4.20457 1.2474 4.29099 0.946002 4.41128C0.314217 4.66343 0.134131 4.61752 0.272133 4.23948C0.39007 3.9164 1.22233 3.41456 1.58199 3.44965C1.77054 3.46804 1.96342 3.31193 2.01062 3.10273C2.05781 2.89353 2.27142 2.736 2.4853 2.75265C2.53804 2.75676 2.59172 2.75337 2.64366 2.74373C2.56733 2.53313 2.62846 2.44623 2.86096 2.15603C2.90559 2.10033 2.94817 2.03461 2.98689 1.96359C2.77959 1.95781 2.49987 1.96622 2.17741 1.99073C0.336069 2.13068 0.942355 1.65828 2.96947 1.37358C3.04034 1.36363 3.11123 1.35333 3.18176 1.34276C3.18212 1.33388 3.1823 1.32515 3.1823 1.3166C3.1823 1.0755 3.35135 0.785622 3.55797 0.672424C3.8791 0.496485 3.90038 0.43098 3.70456 0.22114C3.57858 0.0861318 5.08513 -0.0127773 7.05246 0.00134223C9.01979 0.0154577 10.3919 0.128156 10.1017 0.251773C9.65081 0.443791 9.62518 0.491026 9.92576 0.576015C10.0392 0.608104 10.7669 0.649101 11.7982 0.686359C12.8295 0.649101 13.5571 0.608104 13.6706 0.576015C13.9712 0.491026 13.9456 0.443791 13.4947 0.251773C13.2044 0.128156 14.5766 0.0154577 16.5439 0.00134223C18.5112 -0.0127773 20.0178 0.0861318 19.8918 0.22114C19.696 0.43098 19.7173 0.496485 20.0384 0.672424C20.245 0.785622 20.4141 1.0755 20.4141 1.3166C20.4141 1.32515 20.4142 1.33388 20.4146 1.34276C20.4851 1.35333 20.556 1.36363 20.6269 1.37358C22.654 1.65828 23.2603 2.13068 21.419 1.99073C21.0965 1.96622 20.8168 1.95781 20.6095 1.96359C20.6482 2.03461 20.6908 2.10033 20.7354 2.15603C20.9679 2.44623 21.029 2.53313 20.9527 2.74373C21.0046 2.75337 21.0583 2.75676 21.1111 2.75265C21.3249 2.736 21.5386 2.89353 21.5857 3.10273C21.6329 3.31193 21.8258 3.46804 22.0144 3.44965C22.2611 3.42558 22.7302 3.65416 23.0385 3.90437C23.0789 3.92997 23.1099 3.95698 23.1318 3.98545C23.2263 4.07383 23.2959 4.16182 23.3242 4.23948C23.3311 4.25837 23.3372 4.27643 23.3425 4.29367C23.4338 4.37175 23.5427 4.42105 23.6434 4.42105C23.9278 4.42105 23.9751 4.52952 23.9241 5.06358C23.8773 5.55352 23.9205 5.70611 24.1059 5.70611C24.2396 5.70611 24.3143 5.80124 24.2718 5.9175C24.2596 5.95095 24.2531 5.99937 24.2519 6.05727C24.7141 6.14382 25.0155 6.2599 24.9869 6.39101C24.955 6.53769 24.6945 6.75416 24.396 6.88682C24.3987 6.94567 24.3867 6.97224 24.3591 6.95323C24.2579 6.88357 23.9557 7.23266 23.7664 7.56567C23.7591 7.69514 23.6976 7.86007 23.6066 8.01145C23.6129 8.14179 23.7027 8.174 23.8115 8.08128C23.9653 7.95028 23.9579 8.00606 23.7822 8.30383C23.7434 8.36946 23.703 8.44897 23.664 8.5345C23.7873 8.52283 23.9398 8.50349 24.1242 8.47719C24.7366 8.38982 25.1162 8.39933 24.9679 8.49833C24.7679 8.63177 24.7302 8.78083 24.822 9.07478C24.9172 9.37934 24.7906 9.55846 24.2761 9.84733C23.5521 10.2538 23.0931 10.6923 23.0306 11.0121C23.1611 11.1309 23.2544 11.2967 23.2544 11.4523C23.2544 11.4811 23.2146 11.5072 23.1425 11.5295C23.1349 11.9182 22.7538 12.3651 22.181 12.5907C21.8118 12.7361 21.5889 12.8752 21.6858 12.8996C21.8301 12.9361 21.826 13.0037 21.6634 13.2726C21.5542 13.4532 21.1456 13.5417 20.7555 13.4692C20.332 13.3904 20.0469 13.4636 20.0479 13.6509C20.0501 14.04 18.1679 14.1234 16.6473 13.8016C14.4285 13.3322 13.8748 13.2728 14.2414 13.5436C14.5321 13.7583 14.4736 13.8032 13.9114 13.7971C13.5356 13.7929 13.2043 13.6876 13.1752 13.563C13.15 13.4549 13.044 13.3644 12.849 13.2901C12.5752 13.3984 12.3954 13.4997 12.3694 13.5708C12.3359 13.6626 12.1766 13.7378 12.0153 13.7378C11.6462 13.7378 11.7432 13.4412 12.184 13.2222C12.2255 13.2016 12.2661 13.1796 12.3043 13.1575C11.7197 13.0636 10.8263 13.0199 9.57498 13.0189C8.17888 13.0177 7.4147 12.9265 7.18228 12.7296ZM22.7308 5.90578C23.0833 5.91802 23.4331 5.94428 23.7484 5.98184C23.7662 5.74159 23.7157 5.56005 23.6356 5.57761C23.5549 5.59528 23.1855 5.63584 22.8146 5.66766C22.6528 5.68157 22.5313 5.69806 22.4451 5.72171C22.5731 5.74902 22.678 5.81758 22.7308 5.90578ZM2.23606 3.32274C2.23606 3.24482 2.28884 3.09172 2.35335 2.98252C2.41785 2.87331 2.47062 2.93707 2.47062 3.12419C2.47062 3.31131 2.41785 3.46441 2.35335 3.46441C2.28884 3.46441 2.23606 3.40066 2.23606 3.32274ZM19.4172 0.573037C19.3774 0.396342 19.4006 0.251773 19.4689 0.251773C19.5372 0.251773 19.5931 0.396342 19.5931 0.573037C19.5931 0.749732 19.5699 0.894301 19.5414 0.894301C19.513 0.894301 19.4571 0.749732 19.4172 0.573037ZM16.0455 0.333675C16.6421 0.275365 17.6185 0.275365 18.2151 0.333675C18.8118 0.391984 18.3236 0.439687 17.1303 0.439687C15.937 0.439687 15.4488 0.391979 16.0455 0.333675ZM21.3603 3.32274C21.3603 3.24482 21.3075 3.09172 21.243 2.98252C21.1785 2.87331 21.1257 2.93707 21.1257 3.12419C21.1257 3.31131 21.1785 3.46441 21.243 3.46441C21.3075 3.46441 21.3603 3.40066 21.3603 3.32274ZM4.17915 0.573037C4.21901 0.396342 4.19575 0.251773 4.12743 0.251773C4.05912 0.251773 4.00323 0.396342 4.00323 0.573037C4.00323 0.749732 4.0265 0.894301 4.05495 0.894301C4.08339 0.894301 4.13928 0.749732 4.17915 0.573037ZM7.55087 0.333675C6.95422 0.275365 5.97789 0.275365 5.38124 0.333675C4.78459 0.391984 5.27276 0.439687 6.46606 0.439687C7.65936 0.439687 8.14752 0.391979 7.55087 0.333675ZM4.08377 12.1446C3.93864 12.068 3.70115 12.068 3.55602 12.1446C3.41089 12.2212 3.52963 12.2838 3.81989 12.2838C4.11016 12.2838 4.2289 12.2212 4.08377 12.1446Z" fill="black" fill-opacity="0.29"/>
</svg>
