<svg width="84" height="21" viewBox="0 0 84 21" fill="none" xmlns="http://www.w3.org/2000/svg">
<path fill-rule="evenodd" clip-rule="evenodd" d="M24.1325 19.0938C10.7562 19.3649 10.6753 19.29 10.2735 18.7336C10.0568 18.4334 8.11334 18.0464 5.95476 17.8734C3.36937 17.6663 1.81236 17.318 1.39212 16.853C1.04127 16.4647 0.584501 16.147 0.377094 16.147C0.169687 16.147 0 15.7132 0 15.1832C0 14.4149 0.262707 14.2194 1.29475 14.2194C2.00686 14.2194 2.58949 14.0025 2.58949 13.7375C2.58949 13.4724 2.24531 13.2556 1.82465 13.2556C0.719011 13.2556 0.399716 12.3026 1.4826 12.2347C1.98303 12.2034 2.52546 12.2034 2.68801 12.2347C2.85055 12.2661 2.98355 12.0749 2.98355 11.8099C2.98355 11.5449 2.54024 11.328 1.99842 11.328C1.45659 11.328 1.01328 11.1112 1.01328 10.8461C1.01328 10.5811 1.20034 10.3642 1.42895 10.3642C1.64835 10.3642 2.59614 9.93636 3.57155 9.4C3.08014 9.30708 2.78451 9.18471 2.78451 9.05117C2.78451 8.78613 3.44947 8.56631 4.2622 8.5627C4.7074 8.56072 5.24129 8.51351 5.72217 8.44082C6.27128 8.25503 6.8739 8.08839 7.54865 7.93856L7.71016 7.88342L6.52801 7.56052C5.85166 7.37578 6.41917 7.23561 8.14169 7.15625C8.55265 7.11079 8.72099 6.85095 8.59464 6.44823C8.5725 6.37769 8.56122 6.30862 8.56032 6.24173C6.34535 6.30624 4.19127 6.43587 3.17857 6.61631C1.05577 6.99453 0.450679 6.92566 0.914367 6.35861C1.31064 5.87399 4.10703 5.12123 5.3155 5.17386C5.949 5.20145 6.59708 4.96728 6.75567 4.65348C6.91425 4.33968 7.63198 4.10339 8.35061 4.12837C8.52782 4.13453 8.70817 4.12945 8.8827 4.11499C8.62621 3.79909 8.83162 3.66873 9.61283 3.23344C9.76279 3.14988 9.90586 3.0513 10.036 2.94478C9.33944 2.93611 8.39958 2.94872 7.3161 2.98548C1.12919 3.1954 3.16631 2.48681 9.97742 2.05977C10.2155 2.04484 10.4537 2.02939 10.6907 2.01353C10.6919 2.0002 10.6925 1.98712 10.6925 1.97429C10.6925 1.61264 11.2606 1.17782 11.9548 1.00803C13.0338 0.744117 13.1053 0.64586 12.4473 0.331099C12.024 0.128587 17.086 -0.0197763 23.6963 0.00140299C30.3065 0.0225763 34.9169 0.191624 33.9416 0.377049C32.4267 0.665077 32.3406 0.735929 33.3505 0.863412C33.7319 0.911546 36.1768 0.973042 39.6419 1.02893C43.107 0.973042 45.5519 0.911546 45.9332 0.863412C46.9432 0.735929 46.8571 0.665077 45.3422 0.377049C44.3669 0.191624 48.9773 0.0225763 55.5875 0.00140299C62.1978 -0.0197763 67.2598 0.128587 66.8365 0.331099C66.1785 0.64586 66.25 0.744117 67.329 1.00803C68.0232 1.17782 68.5912 1.61264 68.5912 1.97429C68.5912 1.98712 68.5919 2.0002 68.5931 2.01353C68.83 2.02939 69.0682 2.04484 69.3064 2.05977C76.1175 2.48681 78.1546 3.1954 71.9677 2.98548C70.8842 2.94872 69.9444 2.93611 69.2478 2.94478C69.3779 3.0513 69.521 3.14988 69.671 3.23344C70.4522 3.66873 70.6576 3.79909 70.4011 4.11499C70.5756 4.12945 70.756 4.13453 70.9332 4.12837C71.6518 4.10339 72.3695 4.33968 72.5281 4.65348C72.6867 4.96728 73.3348 5.20145 73.9683 5.17386C74.7972 5.13776 76.3734 5.48062 77.4095 5.85595C77.545 5.89435 77.6492 5.93486 77.723 5.97757C78.0402 6.11013 78.2742 6.24212 78.3694 6.35861C78.3926 6.38695 78.4131 6.41404 78.4309 6.4399C78.7374 6.55702 79.1034 6.63097 79.4418 6.63097C80.3973 6.63097 80.5563 6.79367 80.385 7.59476C80.2279 8.32966 80.3729 8.55855 80.9958 8.55855C81.445 8.55855 81.696 8.70126 81.5534 8.87564C81.5124 8.92581 81.4905 8.99845 81.4862 9.08529C83.0393 9.21511 84.0521 9.38925 83.9561 9.58591C83.8487 9.80592 82.9735 10.1306 81.9707 10.3296C81.9797 10.4179 81.9395 10.4578 81.8465 10.4292C81.5064 10.3247 80.4911 10.8484 79.855 11.3479C79.8306 11.5421 79.6239 11.7895 79.3182 12.0166C79.3394 12.2121 79.641 12.2604 80.0066 12.1213C80.5234 11.9248 80.4987 12.0085 79.9081 12.4551C79.7779 12.5536 79.642 12.6728 79.511 12.8011C79.9253 12.7836 80.4378 12.7546 81.0574 12.7152C83.1149 12.5841 84.3905 12.5984 83.892 12.7469C83.22 12.947 83.0933 13.1706 83.402 13.6116C83.7218 14.0684 83.2965 14.3371 81.5676 14.7704C79.1351 15.38 77.5927 16.0378 77.3829 16.5176C77.8212 16.6957 78.1348 16.9444 78.1348 17.1778C78.1348 17.2211 78.0011 17.2601 77.7589 17.2936C77.7334 17.8767 76.4528 18.547 74.5283 18.8854C73.2875 19.1036 72.5388 19.3122 72.8644 19.3489C73.349 19.4035 73.3353 19.505 72.789 19.9083C72.422 20.1792 71.0492 20.3119 69.7384 20.2031C68.3154 20.085 67.3575 20.1949 67.361 20.4758C67.3684 21.0594 61.0441 21.1844 55.935 20.7019C48.4798 19.9977 46.6192 19.9086 47.8512 20.3148C48.8279 20.6368 48.6313 20.7042 46.7423 20.695C45.4795 20.6888 44.3664 20.5308 44.2686 20.3439C44.1838 20.1817 43.8279 20.0459 43.1727 19.9346C42.2527 20.097 41.6485 20.2489 41.5613 20.3556C41.4487 20.4933 40.9133 20.606 40.3715 20.606C39.1311 20.606 39.4572 20.1611 40.9382 19.8327C41.0777 19.8018 41.2142 19.7689 41.3425 19.7356C39.3783 19.5948 36.3763 19.5292 32.1719 19.5277C27.481 19.526 24.9134 19.3891 24.1325 19.0938ZM76.3755 8.85806C77.5598 8.87642 78.7352 8.91582 79.7947 8.97215C79.8543 8.61178 79.6847 8.33947 79.4155 8.3658C79.1446 8.39231 77.9034 8.45315 76.6572 8.50088C76.1135 8.52174 75.7053 8.54648 75.4156 8.58195C75.8456 8.62291 76.1982 8.72575 76.3755 8.85806ZM7.51317 4.9835C7.51317 4.86662 7.69051 4.63697 7.90725 4.47316C8.12398 4.30936 8.30129 4.40499 8.30129 4.68567C8.30129 4.96635 8.12398 5.196 7.90725 5.196C7.69051 5.196 7.51317 5.10038 7.51317 4.9835ZM65.2419 0.858945C65.1079 0.593903 65.1861 0.377049 65.4156 0.377049C65.6451 0.377049 65.8329 0.593903 65.8329 0.858945C65.8329 1.12399 65.7547 1.34084 65.6592 1.34084C65.5636 1.34084 65.3758 1.12399 65.2419 0.858945ZM53.9129 0.499901C55.9176 0.412437 59.1981 0.412437 61.2028 0.499901C63.2076 0.587365 61.5673 0.65892 57.5578 0.65892C53.5484 0.65892 51.9081 0.587358 53.9129 0.499901ZM71.7706 4.9835C71.7706 4.86662 71.5933 4.63697 71.3765 4.47316C71.1598 4.30936 70.9825 4.40499 70.9825 4.68567C70.9825 4.96635 71.1598 5.196 71.3765 5.196C71.5933 5.196 71.7706 5.10038 71.7706 4.9835ZM14.0419 0.858945C14.1759 0.593903 14.0977 0.377049 13.8682 0.377049C13.6386 0.377049 13.4509 0.593903 13.4509 0.858945C13.4509 1.12399 13.529 1.34084 13.6246 1.34084C13.7202 1.34084 13.908 1.12399 14.0419 0.858945ZM25.3709 0.499901C23.3662 0.412437 20.0857 0.412437 18.081 0.499901C16.0762 0.587365 17.7165 0.65892 21.726 0.65892C25.7354 0.65892 27.3757 0.587358 25.3709 0.499901ZM13.7215 18.2163C13.2338 18.1014 12.4359 18.1014 11.9482 18.2163C11.4606 18.3312 11.8596 18.4252 12.8348 18.4252C13.8101 18.4252 14.2091 18.3312 13.7215 18.2163Z" fill="#9747FF"/>
</svg>
