<svg width="56" height="17" viewBox="0 0 56 17" fill="none" xmlns="http://www.w3.org/2000/svg">
<path d="M42.8498 1.75465C42.5318 1.7952 42.2138 1.83723 41.8964 1.88258C40.7441 2.05168 39.5934 2.23352 38.4557 2.48916C37.8043 2.62867 37.1525 2.76705 36.4976 2.88834C35.7938 3.01871 35.7436 3.01654 35.0249 3.13671C34.7718 3.17887 34.5192 3.22382 34.2663 3.26736C32.862 3.52026 31.4651 3.82181 30.0498 4.0062C28.5814 4.19459 27.1121 4.37672 25.6392 4.52698C24.119 4.68184 22.5989 4.8366 21.0774 4.97872C19.3234 5.16595 17.5721 5.37585 15.8267 5.63096C14.2171 5.88217 12.6079 6.13877 11.0132 6.47877C9.69913 6.73999 8.38723 7.01207 7.07726 7.29503C6.71761 7.37403 6.35795 7.45332 5.99059 7.48427C5.29156 7.57589 5.16965 8.36957 5.48632 8.82568C5.08947 8.8713 4.69231 8.91452 4.29512 8.95741C3.66362 9.02551 3.03299 9.10051 2.40221 9.17464C1.73823 9.26164 1.59756 9.98128 1.85685 10.4438C1.19665 10.7609 1.34692 11.7873 1.95195 11.9967C1.93318 12.1113 1.93708 12.2298 1.95995 12.3449C1.90116 12.3505 1.84239 12.3558 1.78368 12.3619C1.67393 12.374 1.56422 12.3864 1.45429 12.3969C0.44317 12.5141 0.618248 14.1116 1.60023 14.0554C1.5649 14.4697 1.50551 14.886 1.59024 15.2906C1.61964 15.4309 1.84046 15.3485 1.96694 15.3573C2.11457 15.3677 2.58534 15.299 2.69269 15.2819C3.02893 15.2281 3.37831 15.156 3.71705 15.0863C3.90376 15.0609 4.09061 15.0363 4.27721 15.0101C3.81298 15.4884 4.1137 16.5545 4.94666 16.4453C5.6417 16.3405 6.3381 16.2451 7.0357 16.159C7.23881 16.135 7.44204 16.112 7.64505 16.0872C8.71998 15.9556 8.14451 16.0159 9.30001 15.8919C10.2044 15.7949 11.1103 15.7123 12.0156 15.6248C13.2509 15.4859 14.4843 15.3194 15.7067 15.0903C16.2726 14.9841 17.0261 14.8197 17.5892 14.6994C19.2491 14.3439 20.9107 13.997 22.5673 13.6247C23.0182 13.5204 23.4716 13.4296 23.9259 13.3436C25.0266 13.2571 26.1267 13.1658 27.2275 13.0796C27.7096 13.0313 28.3598 12.968 28.8366 12.9127C30.0309 12.7743 31.2175 12.5787 32.4055 12.3956C34.0788 12.1284 35.7501 11.8453 37.4293 11.6187C38.2496 11.5263 39.07 11.4348 39.891 11.3485C39.9929 11.3386 40.0949 11.3286 40.1969 11.3187C40.2786 11.3338 40.3685 11.359 40.3907 11.3002C40.7876 11.2659 40.9917 11.2874 40.8838 10.8062C41.9287 10.6561 42.9742 10.509 44.0224 10.3838C44.3478 10.3558 44.6733 10.3278 44.9989 10.3019C45.8838 10.2398 46.7711 10.2056 47.6572 10.1579C48.2401 10.1251 48.822 10.0796 49.4025 10.0204C49.5279 10.0115 49.5751 10.0057 50.2577 9.94406C50.4294 9.92858 50.6014 9.91545 50.7731 9.90018C50.8803 9.89069 51.0797 9.98993 51.0944 9.86965C51.0944 9.86978 51.0945 9.86952 51.0944 9.86965C51.4067 9.91416 51.3898 9.87968 51.1721 9.28385C51.1749 9.26339 51.1769 9.24997 51.1798 9.2302C51.4949 9.20138 51.81 9.17324 52.1247 9.14095C52.1611 9.13738 52.5924 9.09104 52.6497 9.08371C53.2948 9.00069 53.5998 8.93925 53.2623 7.55567C53.4744 7.53355 53.5856 7.52524 53.6041 7.43061C53.6741 7.40888 53.7443 7.38772 53.814 7.36497C53.928 7.32773 54.0379 7.27747 54.1499 7.23376C54.2894 7.08147 54.5511 6.99846 54.5683 6.77687C54.6072 6.27655 54.5247 5.98027 54.3574 5.78909C54.7345 5.60131 54.8381 5.14244 54.7174 4.76667C55.4796 4.44072 55.2209 3.05645 54.2788 3.17913C54.0275 3.21307 53.776 3.24574 53.5245 3.27792C53.2531 3.31237 52.9818 3.34679 52.7105 3.38233C52.7076 3.36409 52.7046 3.34714 52.7019 3.32834C52.8611 3.28672 52.9844 3.20465 53.0743 3.09842C53.2875 3.1685 53.5347 3.12853 53.7663 2.90954C53.6112 2.39134 53.5028 1.8537 53.3011 1.35493C53.2787 1.29971 53.1957 1.36303 53.1432 1.36903C52.8933 1.3973 52.645 1.44129 52.395 1.46934C51.9015 1.53603 51.4079 1.60203 50.9141 1.66729C50.8992 1.21912 50.5833 0.772229 50.0296 0.845101L49.7707 0.881009C49.4134 0.931192 49.0557 0.978108 48.6984 1.02808C47.7054 1.16492 46.7118 1.29612 45.7164 1.41453C44.7612 1.52893 43.8041 1.6333 42.8498 1.75465ZM17.3616 7.03353C18.4101 6.89393 19.4607 6.77072 20.5124 6.65626C20.3922 6.68476 20.2672 6.71599 20.1562 6.74016C19.4275 6.89846 18.69 7.00757 17.9501 7.09434C17.0226 7.21512 16.0956 7.34031 15.1679 7.45963C14.4265 7.55491 13.6851 7.64981 12.9439 7.74589C13.9821 7.55281 15.0232 7.37685 16.0665 7.21454C16.4978 7.15151 16.9295 7.09115 17.3616 7.03353ZM50.2872 3.64397C50.6765 3.59444 51.0657 3.54385 51.455 3.49398C51.5738 3.4793 51.6924 3.46402 51.8111 3.44846C51.1671 3.59826 50.523 3.74792 49.8778 3.89178C49.3698 3.95949 48.8617 4.02636 48.3543 4.09793C47.7078 4.18842 47.0615 4.28 46.4154 4.37305C46.8466 4.29276 47.2738 4.19095 47.6998 4.08335C48.1231 3.97042 48.5527 3.88951 48.9845 3.82159C49.418 3.75732 49.8526 3.70039 50.2872 3.64397ZM53.5303 7.10053C53.5447 7.10516 53.5592 7.10952 53.5732 7.11567C53.5754 7.11663 53.5791 7.12393 53.5764 7.12334C53.5609 7.11882 53.5374 7.12061 53.5313 7.10378C53.5309 7.10255 53.5305 7.10179 53.5303 7.10053ZM15.9985 12.9686C16.0635 13.0997 16.1445 13.2278 16.2279 13.3536C15.9706 13.407 15.7137 13.4598 15.4451 13.5103C14.2536 13.7341 13.0518 13.8977 11.8474 14.0316C11.0214 14.1114 10.1954 14.1903 9.36977 14.273C10.2937 14.1236 11.2161 13.965 12.1357 13.7892C13.2492 13.5603 14.3579 13.3078 15.471 13.0773C15.6467 13.0401 15.8227 13.0049 15.9985 12.9686ZM2.03147 15.3148C2.03147 15.316 2.03142 15.3165 2.03137 15.3173C2.01371 15.3191 1.96116 15.3263 1.97858 15.3229C1.99616 15.3199 2.01382 15.3173 2.03147 15.3148Z" fill="#9747FF"/>
</svg>
