<svg width="6" height="11" viewBox="0 0 6 11" fill="none" xmlns="http://www.w3.org/2000/svg">
<path d="M5.96875 3.09616C5.97233 3.15428 5.97496 3.21242 5.97545 3.27055C5.97437 3.48168 5.96507 3.69285 5.90785 3.90362C5.87943 4.02412 5.85177 4.14467 5.83521 4.26531C5.81739 4.39497 5.82338 4.40392 5.81341 4.536C5.80999 4.58251 5.80476 4.62899 5.80045 4.67549C5.76949 4.93402 5.70705 5.19249 5.72048 5.45122C5.73626 5.71955 5.75609 5.9879 5.79643 6.25607C5.8382 6.53282 5.88003 6.80958 5.93 7.08624C5.97278 7.40579 6.00097 7.72545 5.99997 8.04522C5.98897 8.34054 5.97452 8.63593 5.90591 8.93088C5.86139 9.17344 5.80978 9.41589 5.75111 9.65828C5.73416 9.72486 5.71704 9.79145 5.73123 9.85816C5.73752 9.98596 5.24619 10.0285 4.92826 9.98359C4.93587 10.056 4.94504 10.1284 4.95442 10.2007C4.96938 10.3158 4.9799 10.4309 4.99098 10.546C4.99697 10.6674 4.55424 10.7114 4.23754 10.6769C4.09745 10.8036 3.43377 10.8034 3.24549 10.7003C3.17465 10.7067 3.09926 10.7091 3.02427 10.708C3.02617 10.7186 3.0282 10.7293 3.02972 10.74C3.03216 10.76 3.03441 10.78 3.03788 10.8C3.05667 10.9845 2.02906 10.9947 1.97433 10.8171C1.7152 10.8342 1.45711 10.8557 1.19314 10.851C1.10154 10.8494 1.13342 10.8077 1.11619 10.7852C1.09608 10.759 1.09624 10.6727 1.09722 10.653C1.10034 10.5913 1.11389 10.5268 1.12683 10.4642C1.12575 10.43 1.12412 10.3958 1.12355 10.3617C0.863435 10.4574 0.160719 10.4313 0.153204 10.279C0.155644 10.1516 0.152013 10.0241 0.142361 9.89674C0.138891 9.85968 0.134718 9.82262 0.131763 9.78555C0.116201 9.58928 0.130949 9.69409 0.103181 9.48356C0.0814381 9.31878 0.0503851 9.15411 0.0225259 8.9894C-0.00314845 8.76417 -0.0111564 8.53856 0.0214421 8.31329C0.0366513 8.20899 0.0714585 8.06953 0.0958096 7.96537C0.168224 7.65831 0.235067 7.35118 0.318396 7.04428C0.342985 6.96066 0.358782 6.87695 0.371451 6.79321C0.324952 6.59349 0.28157 6.39373 0.234882 6.19401C0.221136 6.10625 0.201404 5.98796 0.192549 5.90098C0.170372 5.68311 0.185065 5.46514 0.191735 5.24723C0.206971 4.94008 0.232517 4.63285 0.221507 4.3257C0.204563 4.17613 0.187078 4.02656 0.166165 3.87703C0.163101 3.85847 0.160039 3.83992 0.156948 3.82137C0.139841 3.80709 0.115604 3.79162 0.150821 3.78611C0.136019 3.71402 0.103649 3.67795 0.418255 3.68477C0.41717 3.4934 0.414136 3.30201 0.397029 3.11069C0.384828 3.05157 0.372576 2.99246 0.359053 2.93337C0.31699 2.77299 0.257005 2.61292 0.205684 2.45271C0.172844 2.34728 0.148128 2.24169 0.132222 2.13601C0.126339 2.11328 0.125685 2.10466 0.101903 1.98058C0.0959119 1.94938 0.0884055 1.91818 0.0822782 1.88698C0.0784287 1.8675 -0.00274618 1.83432 0.0720562 1.82854C0.0719804 1.82854 0.0721401 1.82853 0.0720562 1.82854C0.01515 1.77368 0.0385408 1.77582 0.435841 1.79935C0.448528 1.7983 0.45685 1.7976 0.469105 1.79657C0.458369 1.73928 0.4472 1.68202 0.438695 1.62471C0.437611 1.6181 0.42728 1.53951 0.426657 1.52905C0.419879 1.41114 0.430727 1.35482 1.33783 1.3793C1.33233 1.34068 1.32737 1.32052 1.38559 1.31473C1.39291 1.3016 1.39984 1.28845 1.40784 1.27536C1.42094 1.25394 1.44265 1.23291 1.46002 1.21168C1.54363 1.18269 1.57211 1.13357 1.71083 1.12471C2.02406 1.1047 2.21925 1.11177 2.35569 1.1368C2.4399 1.06425 2.72092 1.03371 2.96996 1.04557C3.10624 0.900344 4.00654 0.910677 4.01551 1.08288C4.01714 1.12886 4.01958 1.17482 4.02235 1.22079C4.02549 1.27037 4.02866 1.31995 4.0311 1.36953C4.04292 1.36959 4.05393 1.36968 4.06609 1.36968C4.0778 1.34003 4.11842 1.31577 4.17741 1.29687C4.11343 1.26045 4.116 1.21507 4.23336 1.16781C4.57574 1.18212 4.92614 1.18756 5.26052 1.21075C5.29753 1.21332 5.26507 1.22986 5.2661 1.23944C5.2712 1.28502 5.26618 1.3307 5.27141 1.37628C5.27459 1.46657 5.27819 1.55683 5.28229 1.64712C5.56744 1.63812 5.87946 1.68314 5.88425 1.78437L5.88533 1.83177C5.88642 1.89716 5.88962 1.96257 5.89084 2.02797C5.89553 2.20968 5.90385 2.39136 5.92043 2.57301C5.93586 2.74736 5.95781 2.92179 5.96875 3.09616ZM4.9707 7.80642C4.96265 7.61468 4.94403 7.42298 4.91977 7.23132C4.91277 7.25362 4.9045 7.27687 4.89941 7.29741C4.8662 7.43227 4.86495 7.56742 4.87807 7.70242C4.88691 7.87197 4.8929 8.04153 4.90269 8.21108C4.91055 8.34657 4.91865 8.48205 4.926 8.61754C4.95276 8.42625 4.96841 8.23489 4.97522 8.04348C4.97546 7.96446 4.97396 7.88543 4.9707 7.80642ZM4.08834 1.81111C4.08389 1.73997 4.08013 1.66883 4.0759 1.59769C4.07427 1.576 4.07302 1.55431 4.07197 1.53262C4.03636 1.65206 4.00083 1.77152 3.9691 1.89102C3.97295 1.98392 3.97734 2.0768 3.97869 2.16971C3.98086 2.28805 3.98233 2.4064 3.98284 2.52473C3.99401 2.44527 4.01918 2.36597 4.04813 2.28675C4.0807 2.20786 4.09241 2.12868 4.09571 2.04945C4.09652 1.96999 4.0926 1.89055 4.08834 1.81111ZM1.60137 1.31936C1.59712 1.3169 1.59303 1.31442 1.58785 1.31207C1.58703 1.31169 1.58207 1.31122 1.5827 1.31169C1.58698 1.31436 1.58801 1.31862 1.59923 1.31928C1.60005 1.31932 1.60056 1.31936 1.60137 1.31936ZM1.33807 8.20563C1.24905 8.19739 1.16051 8.18619 1.07317 8.17451C1.06306 8.22206 1.05322 8.26953 1.04598 8.31904C1.01384 8.53863 1.02079 8.7585 1.04679 8.97807C1.07224 9.12833 1.09829 9.27857 1.12186 9.42885C1.13146 9.2592 1.14708 9.08959 1.17378 8.92002C1.21629 8.7143 1.27419 8.50881 1.31775 8.3031C1.32515 8.27062 1.33126 8.23812 1.33807 8.20563ZM1.13722 10.7725C1.13641 10.7726 1.13614 10.7726 1.1356 10.7726C1.13614 10.7758 1.13641 10.7854 1.13695 10.7822C1.13719 10.779 1.13722 10.7758 1.13722 10.7725Z" fill="#9747FF"/>
</svg>
