<svg width="84" height="22" viewBox="0 0 84 22" fill="none" xmlns="http://www.w3.org/2000/svg">
<path fill-rule="evenodd" clip-rule="evenodd" d="M24.1325 2.85008C10.7562 2.57902 10.6753 2.65391 10.2735 3.21034C10.0568 3.51048 8.11334 3.89755 5.95476 4.07049C3.36937 4.27763 1.81236 4.62586 1.39212 5.09094C1.04127 5.47925 0.584501 5.79695 0.377094 5.79695C0.169687 5.79695 0 6.23066 0 6.76075C0 7.52898 0.262707 7.72453 1.29475 7.72453C2.00686 7.72453 2.58949 7.94139 2.58949 8.20643C2.58949 8.47147 2.24531 8.68832 1.82465 8.68832C0.719011 8.68832 0.399716 9.64126 1.4826 9.70918C1.98303 9.74055 2.52546 9.74055 2.68801 9.70918C2.85055 9.6778 2.98355 9.86897 2.98355 10.134C2.98355 10.3991 2.54024 10.6159 1.99842 10.6159C1.45659 10.6159 1.01328 10.8328 1.01328 11.0978C1.01328 11.3628 1.20034 11.5797 1.42895 11.5797C1.64835 11.5797 2.59614 12.0075 3.57155 12.5439C3.08014 12.6368 2.78451 12.7592 2.78451 12.8927C2.78451 13.1578 3.44947 13.3776 4.2622 13.3812C4.7074 13.3832 5.24129 13.4304 5.72217 13.5031C6.27128 13.6889 6.8739 13.8555 7.54865 14.0053L7.71016 14.0605L6.52801 14.3834C5.85166 14.5681 6.41917 14.7083 8.14169 14.7877C8.55265 14.8331 8.72099 15.093 8.59464 15.4957C8.5725 15.5662 8.56122 15.6353 8.56032 15.7022C6.34535 15.6377 4.19127 15.508 3.17857 15.3276C1.05577 14.9494 0.450679 15.0182 0.914367 15.5853C1.31064 16.0699 4.10703 16.8227 5.3155 16.77C5.949 16.7425 6.59708 16.9766 6.75567 17.2904C6.91425 17.6042 7.63198 17.8405 8.35061 17.8155C8.52782 17.8094 8.70817 17.8145 8.8827 17.8289C8.62621 18.1448 8.83162 18.2752 9.61283 18.7105C9.76279 18.794 9.90586 18.8926 10.036 18.9991C9.33944 19.0078 8.39958 18.9952 7.3161 18.9584C1.12919 18.7485 3.16631 19.4571 9.97742 19.8841C10.2155 19.8991 10.4537 19.9145 10.6907 19.9304C10.6919 19.9437 10.6925 19.9568 10.6925 19.9696C10.6925 20.3313 11.2606 20.7661 11.9548 20.9359C13.0338 21.1998 13.1053 21.298 12.4473 21.6128C12.024 21.8153 17.086 21.9637 23.6963 21.9425C30.3065 21.9213 34.9169 21.7523 33.9416 21.5669C32.4267 21.2788 32.3406 21.208 33.3505 21.0805C33.7319 21.0324 36.1768 20.9709 39.6419 20.915C43.107 20.9709 45.5519 21.0324 45.9332 21.0805C46.9432 21.208 46.8571 21.2788 45.3422 21.5669C44.3669 21.7523 48.9773 21.9213 55.5875 21.9425C62.1978 21.9637 67.2598 21.8153 66.8365 21.6128C66.1785 21.298 66.25 21.1998 67.329 20.9359C68.0232 20.7661 68.5912 20.3313 68.5912 19.9696C68.5912 19.9568 68.5919 19.9437 68.5931 19.9304C68.83 19.9145 69.0682 19.8991 69.3064 19.8841C76.1175 19.4571 78.1546 18.7485 71.9677 18.9584C70.8842 18.9952 69.9444 19.0078 69.2478 18.9991C69.3779 18.8926 69.521 18.794 69.671 18.7105C70.4522 18.2752 70.6576 18.1448 70.4011 17.8289C70.5756 17.8145 70.756 17.8094 70.9332 17.8155C71.6518 17.8405 72.3695 17.6042 72.5281 17.2904C72.6867 16.9766 73.3348 16.7425 73.9683 16.77C74.7972 16.8061 76.3734 16.4633 77.4095 16.088C77.545 16.0496 77.6492 16.009 77.723 15.9663C78.0402 15.8338 78.2742 15.7018 78.3694 15.5853C78.3926 15.557 78.4131 15.5299 78.4309 15.504C78.7374 15.3869 79.1034 15.3129 79.4418 15.3129C80.3973 15.3129 80.5563 15.1502 80.385 14.3491C80.2279 13.6142 80.3729 13.3854 80.9958 13.3854C81.445 13.3854 81.696 13.2427 81.5534 13.0683C81.5124 13.0181 81.4905 12.9455 81.4862 12.8586C83.0393 12.7288 84.0521 12.5547 83.9561 12.358C83.8487 12.138 82.9735 11.8133 81.9707 11.6143C81.9797 11.526 81.9395 11.4862 81.8465 11.5147C81.5064 11.6192 80.4911 11.0955 79.855 10.596C79.8306 10.4018 79.6239 10.1544 79.3182 9.92735C79.3394 9.73184 79.641 9.68352 80.0066 9.8226C80.5234 10.0191 80.4987 9.93542 79.9081 9.48878C79.7779 9.39033 79.642 9.27107 79.511 9.14277C79.9253 9.16027 80.4378 9.18928 81.0574 9.22873C83.1149 9.35979 84.3905 9.34553 83.892 9.19703C83.22 8.99687 83.0933 8.77328 83.402 8.33235C83.7218 7.87551 83.2965 7.60683 81.5676 7.17352C79.1351 6.56389 77.5927 5.90611 77.3829 5.4263C77.8212 5.24817 78.1348 4.9995 78.1348 4.76613C78.1348 4.7228 78.0011 4.68379 77.7589 4.65028C77.7334 4.06718 76.4528 3.39692 74.5283 3.05849C73.2875 2.8403 72.5388 2.63172 72.8644 2.59505C73.349 2.54038 73.3353 2.43896 72.789 2.03561C72.422 1.76469 71.0492 1.63204 69.7384 1.74077C68.3154 1.85892 67.3575 1.74905 67.361 1.46814C67.3684 0.884542 61.0441 0.759472 55.935 1.24205C48.4798 1.94623 46.6192 2.03534 47.8512 1.62912C48.8279 1.30711 48.6313 1.23972 46.7423 1.24892C45.4795 1.25512 44.3664 1.41313 44.2686 1.60005C44.1838 1.76217 43.8279 1.89797 43.1727 2.00935C42.2527 1.8469 41.6485 1.69497 41.5613 1.58829C41.4487 1.45065 40.9133 1.33787 40.3715 1.33787C39.1311 1.33787 39.4572 1.78278 40.9382 2.1112C41.0777 2.14215 41.2142 2.17505 41.3425 2.20833C39.3783 2.34912 36.3763 2.41471 32.1719 2.41622C27.481 2.41791 24.9134 2.55483 24.1325 2.85008ZM76.3755 13.0858C77.5598 13.0675 78.7352 13.0281 79.7947 12.9718C79.8543 13.3321 79.6847 13.6044 79.4155 13.5781C79.1446 13.5516 77.9034 13.4908 76.6572 13.443C76.1135 13.4222 75.7053 13.3974 75.4156 13.362C75.8456 13.321 76.1982 13.2182 76.3755 13.0858ZM7.51317 16.9604C7.51317 17.0773 7.69051 17.3069 7.90725 17.4707C8.12398 17.6346 8.30129 17.5389 8.30129 17.2582C8.30129 16.9776 8.12398 16.7479 7.90725 16.7479C7.69051 16.7479 7.51317 16.8435 7.51317 16.9604ZM65.2419 21.085C65.1079 21.35 65.1861 21.5669 65.4156 21.5669C65.6451 21.5669 65.8329 21.35 65.8329 21.085C65.8329 20.8199 65.7547 20.6031 65.6592 20.6031C65.5636 20.6031 65.3758 20.8199 65.2419 21.085ZM53.9129 21.444C55.9176 21.5315 59.1981 21.5315 61.2028 21.444C63.2076 21.3565 61.5673 21.285 57.5578 21.285C53.5484 21.285 51.9081 21.3566 53.9129 21.444ZM71.7706 16.9604C71.7706 17.0773 71.5933 17.3069 71.3765 17.4707C71.1598 17.6346 70.9825 17.5389 70.9825 17.2582C70.9825 16.9776 71.1598 16.7479 71.3765 16.7479C71.5933 16.7479 71.7706 16.8435 71.7706 16.9604ZM14.0419 21.085C14.1759 21.35 14.0977 21.5669 13.8682 21.5669C13.6386 21.5669 13.4509 21.35 13.4509 21.085C13.4509 20.8199 13.529 20.6031 13.6246 20.6031C13.7202 20.6031 13.908 20.8199 14.0419 21.085ZM25.3709 21.444C23.3662 21.5315 20.0857 21.5315 18.081 21.444C16.0762 21.3565 17.7165 21.285 21.726 21.285C25.7354 21.285 27.3757 21.3566 25.3709 21.444ZM13.7215 3.72759C13.2338 3.84246 12.4359 3.84246 11.9482 3.72759C11.4606 3.61273 11.8596 3.51875 12.8348 3.51875C13.8101 3.51875 14.2091 3.61273 13.7215 3.72759Z" fill="#9747FF"/>
</svg>
