<svg width="30" height="3" viewBox="0 0 30 3" fill="none" xmlns="http://www.w3.org/2000/svg">
<path fill-rule="evenodd" clip-rule="evenodd" d="M20.8476 0.0575776C19.7942 0.0432491 18.9079 0.0279841 18.4505 0.0144342C17.5468 -0.0123327 15.4031 -0.000834185 13.6864 0.0403298C12.3667 0.0718581 10.204 0.15067 8.24053 0.231756C7.6915 0.226131 7.13538 0.219088 6.58736 0.210643C1.6916 0.13521 1.06363 0.146488 0.815889 0.314304C0.559247 0.488249 0.558274 0.503051 0.803222 0.508385C0.870423 0.509847 0.939359 0.520374 0.998315 0.53648C0.888989 0.560431 0.825715 0.58904 0.777785 0.623532C0.767101 0.631226 0.756875 0.638618 0.747106 0.645719C0.36971 0.598332 0.315252 0.625048 0.376162 0.816114C0.38981 0.858914 0.388638 0.908201 0.375238 0.958651C0.338526 0.975772 0.328223 1.00622 0.336153 1.05378C0.299459 1.11964 0.24422 1.1817 0.176409 1.22763C-0.076478 1.39895 -0.0694444 1.41356 0.275557 1.43377L0.291864 1.43471C0.260936 1.47802 0.222051 1.51791 0.176952 1.55036C-0.0686248 1.7271 -0.0609812 1.74156 0.284716 1.75424C0.489358 1.76174 0.708163 1.76239 0.770942 1.75569C0.823008 1.75012 1.00043 1.83423 1.19447 1.95314C1.04563 1.9683 1.09591 1.99179 1.30773 2.04874C1.33061 2.0549 1.35304 2.06147 1.37493 2.06841C1.47779 2.13093 1.58674 2.18197 1.70172 2.22151C1.82091 2.30572 1.84228 2.38228 1.6917 2.38608C1.25188 2.39718 1.79497 2.60734 2.81865 2.82216C3.93247 3.05591 3.99469 3.05609 9.42451 2.84123C10.5813 2.79546 11.7707 2.74245 12.8506 2.6896C13.4571 2.70684 14.1911 2.72142 14.9415 2.73118C15.5114 2.75082 16.0893 2.76783 16.6268 2.78019C19.7961 2.85335 27.7158 2.88761 26.6606 2.8236C25.7629 2.76914 26.2302 2.65605 27.6499 2.58418C28.3818 2.54713 29.008 2.46319 29.0414 2.39766C29.0749 2.33212 29.2971 2.28274 29.5352 2.28792C29.8575 2.29494 29.9706 2.23995 29.9776 2.07272C29.9803 2.00894 29.9617 1.95844 29.9133 1.91676C29.9748 1.88126 30 1.82643 30 1.74654C30 1.59534 29.8837 1.52127 29.5355 1.46745C29.6881 1.46429 29.7223 1.45259 29.6557 1.42233C29.704 1.39508 29.6974 1.34093 29.6595 1.24772C29.6466 1.21601 29.6416 1.18024 29.6435 1.14272C29.6973 1.13484 29.697 1.1225 29.6482 1.10228C29.6655 1.0038 29.7266 0.899303 29.8168 0.827818C30.0473 0.64516 30.0392 0.630896 29.702 0.626711C29.5172 0.624427 29.3209 0.62831 29.2445 0.635438C29.1925 0.593907 29.0507 0.535633 28.8371 0.46798C28.7874 0.439511 28.7361 0.40857 28.6852 0.376053C28.3967 0.191995 28.0647 0.102621 27.6897 0.108082C27.6059 0.109304 27.4974 0.110134 27.3675 0.110604C26.594 -0.020984 25.6579 -0.00962271 21.197 0.0525384C21.0808 0.0541575 20.9643 0.0558384 20.8476 0.0575776ZM2.55488 0.796537C2.53635 0.798986 2.51798 0.801453 2.49981 0.80394C2.45506 0.797137 2.41058 0.790023 2.36655 0.782613C2.42969 0.786898 2.49258 0.791553 2.55488 0.796537ZM1.37777 0.486236C1.47778 0.47791 1.59463 0.470453 1.73186 0.463719C1.47906 0.45327 1.37035 0.458028 1.37777 0.486236Z" fill="#9747FF"/>
</svg>
