<svg width="174" height="35" viewBox="0 0 174 35" fill="none" xmlns="http://www.w3.org/2000/svg">
<path fill-rule="evenodd" clip-rule="evenodd" d="M49.9887 31.8241C22.2807 32.2758 22.1131 32.151 21.2809 31.2236C20.8319 30.7234 16.8062 30.0783 12.3349 29.79C6.9794 29.4448 3.75417 28.8644 2.88368 28.0893C2.15691 27.4421 1.21075 26.9126 0.781124 26.9126C0.351495 26.9126 0 26.1898 0 25.3063C0 24.0259 0.544178 23.7 2.68199 23.7C4.15706 23.7 5.36394 23.3386 5.36394 22.8968C5.36394 22.4551 4.651 22.0937 3.77963 22.0937C1.48938 22.0937 0.827984 20.5054 3.07109 20.3922C4.10771 20.3399 5.23131 20.3399 5.56801 20.3922C5.90471 20.4445 6.18021 20.1259 6.18021 19.6842C6.18021 19.2424 5.26192 18.881 4.13958 18.881C3.01723 18.881 2.09894 18.5196 2.09894 18.0779C2.09894 17.6361 2.48642 17.2747 2.95997 17.2747C3.41443 17.2747 5.37773 16.5616 7.39821 15.6677C6.38029 15.5128 5.7679 15.3089 5.7679 15.0863C5.7679 14.6446 7.14532 14.2782 8.82884 14.2722C9.75105 14.2689 10.857 14.1902 11.8531 14.069C12.9905 13.7594 14.2388 13.4817 15.6365 13.232L15.971 13.14L13.5223 12.6019C12.1213 12.294 13.2968 12.0604 16.8649 11.9281C17.7162 11.8523 18.0649 11.4193 17.8032 10.7481C17.7573 10.6305 17.734 10.5154 17.7321 10.4039C13.1439 10.5114 8.68193 10.7275 6.58417 11.0282C2.18695 11.6586 0.933549 11.5438 1.89405 10.5987C2.71489 9.79101 8.50742 8.5364 11.0107 8.62412C12.3229 8.6701 13.6654 8.27982 13.9939 7.75682C14.3224 7.23382 15.8091 6.84 17.2977 6.88163C17.6648 6.8919 18.0384 6.88343 18.3999 6.85933C17.8686 6.33283 18.2941 6.11557 19.9123 5.39008C20.2229 5.25082 20.5193 5.08652 20.7888 4.90898C19.346 4.89453 17.3991 4.91555 15.1548 4.97682C2.33904 5.32669 6.55879 4.14569 20.6675 3.43396C21.1608 3.40908 21.6542 3.38333 22.1451 3.3569C22.1476 3.33469 22.1488 3.31288 22.1488 3.29149C22.1488 2.68875 23.3254 1.96406 24.7635 1.68106C26.9985 1.24121 27.1466 1.07745 25.7838 0.55285C24.9069 0.21533 35.3925 -0.0319433 49.0851 0.00335557C62.7777 0.0386444 72.3279 0.32039 70.3076 0.629433C67.1696 1.10948 66.9912 1.22757 69.0833 1.44004C69.8732 1.52026 74.9376 1.62275 82.1154 1.7159C89.2931 1.62275 94.3575 1.52026 95.1474 1.44004C97.2395 1.22757 97.0611 1.10948 93.9231 0.629433C91.9028 0.32039 101.453 0.0386444 115.146 0.00335557C128.838 -0.0319433 139.324 0.21533 138.447 0.55285C137.084 1.07745 137.232 1.24121 139.467 1.68106C140.905 1.96406 142.082 2.68875 142.082 3.29149C142.082 3.31288 142.083 3.33469 142.086 3.3569C142.577 3.38333 143.07 3.40908 143.563 3.43396C157.672 4.14569 161.892 5.32669 149.076 4.97682C146.832 4.91555 144.885 4.89453 143.442 4.90898C143.711 5.08652 144.008 5.25082 144.318 5.39008C145.937 6.11557 146.362 6.33283 145.831 6.85933C146.192 6.88343 146.566 6.8919 146.933 6.88163C148.422 6.84 149.908 7.23382 150.237 7.75682C150.565 8.27982 151.908 8.6701 153.22 8.62412C154.937 8.56395 158.202 9.13539 160.348 9.76093C160.629 9.82493 160.845 9.89245 160.998 9.96363C161.655 10.1846 162.139 10.4045 162.337 10.5987C162.385 10.6459 162.427 10.6911 162.464 10.7342C163.099 10.9294 163.857 11.0526 164.558 11.0526C166.537 11.0526 166.867 11.3238 166.512 12.6589C166.186 13.8838 166.487 14.2653 167.777 14.2653C168.708 14.2653 169.227 14.5031 168.932 14.7938C168.847 14.8774 168.802 14.9984 168.793 15.1432C172.01 15.3595 174.108 15.6498 173.909 15.9775C173.687 16.3442 171.874 16.8854 169.796 17.2171C169.815 17.3642 169.732 17.4306 169.539 17.3831C168.835 17.2089 166.732 18.0817 165.414 18.9142C165.363 19.2378 164.935 19.6502 164.302 20.0286C164.346 20.3545 164.971 20.435 165.728 20.2032C166.798 19.8757 166.747 20.0152 165.524 20.7596C165.254 20.9236 164.973 21.1224 164.701 21.3362C165.56 21.3071 166.621 21.2587 167.905 21.193C172.167 20.9745 174.809 20.9983 173.776 21.2458C172.384 21.5794 172.122 21.9521 172.761 22.687C173.424 23.4483 172.543 23.8961 168.961 24.6183C163.923 25.6344 160.728 26.7307 160.293 27.5304C161.201 27.8272 161.851 28.2417 161.851 28.6306C161.851 28.7029 161.574 28.7679 161.072 28.8237C161.019 29.7956 158.367 30.9127 154.38 31.4767C151.81 31.8404 150.259 32.188 150.933 32.2491C151.937 32.3402 151.909 32.5093 150.777 33.1815C150.017 33.633 147.173 33.8541 144.458 33.6729C141.511 33.476 139.526 33.6591 139.534 34.1273C139.549 35.1 126.448 35.3084 115.865 34.5041C100.422 33.3305 96.5684 33.182 99.1203 33.859C101.143 34.3957 100.736 34.508 96.8234 34.4927C94.2076 34.4823 91.9018 34.219 91.6993 33.9074C91.5237 33.6372 90.7863 33.4109 89.4292 33.2253C87.5234 33.496 86.272 33.7492 86.0913 33.927C85.8581 34.1564 84.749 34.3444 83.6266 34.3444C81.0573 34.3444 81.7327 33.6029 84.8005 33.0555C85.0895 33.004 85.3722 32.9491 85.6381 32.8936C81.5694 32.659 75.3509 32.5497 66.6419 32.5472C56.925 32.5443 51.6063 32.3162 49.9887 31.8241ZM158.206 14.7645C160.66 14.795 163.094 14.8607 165.289 14.9546C165.413 14.354 165.061 13.9001 164.504 13.944C163.942 13.9882 161.371 14.0896 158.79 14.1692C157.664 14.2039 156.818 14.2452 156.218 14.3043C157.109 14.3725 157.839 14.5439 158.206 14.7645ZM15.563 8.30685C15.563 8.11206 15.9303 7.7293 16.3793 7.45629C16.8282 7.18328 17.1955 7.34267 17.1955 7.81047C17.1955 8.27827 16.8282 8.66103 16.3793 8.66103C15.9303 8.66103 15.563 8.50165 15.563 8.30685ZM135.144 1.43259C134.866 0.990855 135.028 0.629433 135.504 0.629433C135.979 0.629433 136.368 0.990855 136.368 1.43259C136.368 1.87433 136.206 2.23575 136.008 2.23575C135.81 2.23575 135.421 1.87433 135.144 1.43259ZM111.677 0.834186C115.829 0.688413 122.625 0.688413 126.777 0.834186C130.93 0.97996 127.532 1.09922 119.227 1.09922C110.922 1.09922 107.524 0.979947 111.677 0.834186ZM148.668 8.30685C148.668 8.11206 148.3 7.7293 147.851 7.45629C147.402 7.18328 147.035 7.34267 147.035 7.81047C147.035 8.27827 147.402 8.66103 147.851 8.66103C148.3 8.66103 148.668 8.50165 148.668 8.30685ZM29.0869 1.43259C29.3643 0.990855 29.2024 0.629433 28.7269 0.629433C28.2515 0.629433 27.8625 0.990855 27.8625 1.43259C27.8625 1.87433 28.0245 2.23575 28.2225 2.23575C28.4204 2.23575 28.8094 1.87433 29.0869 1.43259ZM52.5541 0.834186C48.4014 0.688413 41.6061 0.688413 37.4534 0.834186C33.3008 0.97996 36.6984 1.09922 45.0038 1.09922C53.3091 1.09922 56.7068 0.979947 52.5541 0.834186ZM28.423 30.3616C27.4129 30.1701 25.76 30.1701 24.7499 30.3616C23.7398 30.553 24.5662 30.7096 26.5865 30.7096C28.6067 30.7096 29.4331 30.553 28.423 30.3616Z" fill="#9747FF"/>
</svg>
