<svg width="21" height="21" viewBox="0 0 21 21" fill="none" xmlns="http://www.w3.org/2000/svg">
<path d="M15.5312 2.625C16.2855 2.625 17.0088 2.92461 17.5421 3.45792C18.0754 3.99122 18.375 4.71454 18.375 5.46875V15.5312C18.375 16.2855 18.0754 17.0088 17.5421 17.5421C17.0088 18.0754 16.2855 18.375 15.5312 18.375H5.46875C4.71454 18.375 3.99122 18.0754 3.45792 17.5421C2.92461 17.0088 2.625 16.2855 2.625 15.5312V5.46875C2.625 4.71454 2.92461 3.99122 3.45792 3.45792C3.99122 2.92461 4.71454 2.625 5.46875 2.625H15.5312ZM17.0625 7.4375H3.9375V15.5312C3.9375 16.3765 4.6235 17.0625 5.46875 17.0625H15.5312C15.9374 17.0625 16.3268 16.9012 16.614 16.614C16.9012 16.3268 17.0625 15.9374 17.0625 15.5312V7.4375ZM12.2456 8.92062C12.829 8.92062 13.2918 9.07579 13.6342 9.38613C13.9755 9.69646 14.1464 10.1168 14.147 10.647C14.147 10.9515 14.0685 11.2227 13.9116 11.4607C13.7518 11.7015 13.5307 11.8954 13.2711 12.0225C13.596 12.1742 13.846 12.3807 14.021 12.642C14.196 12.9045 14.2835 13.2008 14.2835 13.531C14.2835 14.0776 14.0983 14.5113 13.7279 14.8321C13.3575 15.1524 12.8648 15.3125 12.25 15.3125C11.6317 15.3125 11.1367 15.1515 10.7651 14.8295C10.3935 14.5081 10.2078 14.0752 10.2078 13.531C10.2078 13.1973 10.2961 12.8981 10.4729 12.6332C10.6496 12.369 10.8975 12.1654 11.2166 12.0225C10.9587 11.895 10.7394 11.7011 10.5814 11.4607C10.4247 11.2186 10.3437 10.9353 10.3486 10.647C10.3486 10.1173 10.5195 9.69733 10.8614 9.387C11.2026 9.07608 11.664 8.92062 12.2456 8.92062ZM8.9425 8.98537V15.2268H7.90825V10.2323L6.38313 10.7537V9.87875L8.8095 8.98537H8.9425ZM12.2413 12.4504C11.9397 12.4504 11.6985 12.5443 11.5176 12.7321C11.3368 12.9205 11.2464 13.1696 11.2464 13.4794C11.2464 13.7845 11.3353 14.028 11.5133 14.21C11.6912 14.3926 11.9368 14.4839 12.25 14.4839C12.5632 14.4839 12.8074 14.3955 12.9824 14.2188C13.1574 14.042 13.2449 13.7955 13.2449 13.4794C13.2449 13.1725 13.1533 12.924 12.9701 12.7339C12.7864 12.5443 12.5434 12.4495 12.2413 12.4495M12.2456 9.75363C11.9808 9.75363 11.7714 9.83675 11.6174 10.003C11.4634 10.1693 11.3867 10.3965 11.3872 10.6846C11.3872 10.9693 11.4648 11.1956 11.62 11.3636C11.7746 11.5316 11.9846 11.6156 12.25 11.6156C12.5154 11.6156 12.7254 11.5316 12.88 11.3636C13.0358 11.1962 13.1133 10.9699 13.1128 10.6846C13.1128 10.4134 13.0346 10.1905 12.8783 10.0161C12.7208 9.84112 12.5099 9.75363 12.2456 9.75363ZM15.5312 3.9375H5.46875C5.06264 3.9375 4.67316 4.09883 4.38599 4.38599C4.09883 4.67316 3.9375 5.06264 3.9375 5.46875V6.125H17.0625V5.46875C17.0625 5.06264 16.9012 4.67316 16.614 4.38599C16.3268 4.09883 15.9374 3.9375 15.5312 3.9375Z" fill="#1871BF"/>
</svg>
