<svg width="21" height="21" viewBox="0 0 21 21" fill="none" xmlns="http://www.w3.org/2000/svg">
<path d="M3.2 8.83312H5V13.4999H3.8C3.64087 13.4999 3.48826 13.5614 3.37574 13.6708C3.26321 13.7802 3.2 13.9285 3.2 14.0833C3.2 14.238 3.26321 14.3863 3.37574 14.4957C3.48826 14.6051 3.64087 14.6666 3.8 14.6666H18.2C18.3591 14.6666 18.5117 14.6051 18.6243 14.4957C18.7368 14.3863 18.8 14.238 18.8 14.0833C18.8 13.9285 18.7368 13.7802 18.6243 13.6708C18.5117 13.5614 18.3591 13.4999 18.2 13.4999H17V8.83312H18.8C18.9305 8.83299 19.0575 8.79147 19.1616 8.71486C19.2657 8.63824 19.3412 8.53071 19.3767 8.40858C19.4123 8.28645 19.4059 8.15638 19.3585 8.0381C19.3111 7.91983 19.2254 7.8198 19.1143 7.7532L11.3143 3.08641C11.2197 3.02991 11.111 3 11 3C10.889 3 10.7803 3.02991 10.6858 3.08641L2.88575 7.7532C2.77462 7.8198 2.68887 7.91983 2.6415 8.0381C2.59413 8.15638 2.58773 8.28645 2.62327 8.40858C2.65881 8.53071 2.73435 8.63824 2.83843 8.71486C2.94251 8.79147 3.06945 8.83299 3.2 8.83312ZM6.2 8.83312H8.6V13.4999H6.2V8.83312ZM12.2 8.83312V13.4999H9.8V8.83312H12.2ZM15.8 13.4999H13.4V8.83312H15.8V13.4999ZM11 4.26769L16.6805 7.66642H5.3195L11 4.26769ZM20 16.4167C20 16.5714 19.9368 16.7197 19.8243 16.8291C19.7117 16.9385 19.5591 17 19.4 17H2.6C2.44087 17 2.28826 16.9385 2.17574 16.8291C2.06321 16.7197 2 16.5714 2 16.4167C2 16.2619 2.06321 16.1136 2.17574 16.0042C2.28826 15.8948 2.44087 15.8333 2.6 15.8333H19.4C19.5591 15.8333 19.7117 15.8948 19.8243 16.0042C19.9368 16.1136 20 16.2619 20 16.4167Z" fill="#1871BF"/>
</svg>
