<svg width="16" height="16" viewBox="0 0 16 16" fill="none" xmlns="http://www.w3.org/2000/svg">
<g clip-path="url(#clip0_290_185)">
<path fill-rule="evenodd" clip-rule="evenodd" d="M8.46857 1.95771C8.41591 1.88227 8.34581 1.82065 8.26423 1.77811C8.18265 1.73556 8.09201 1.71335 8 1.71335C7.90799 1.71335 7.81735 1.73556 7.73577 1.77811C7.65419 1.82065 7.58409 1.88227 7.53143 1.95771L3.92229 7.11428L0.976001 4.16685C0.896081 4.08673 0.794171 4.03215 0.68319 4.01001C0.572209 3.98788 0.457155 3.9992 0.352614 4.04253C0.248073 4.08586 0.158753 4.15926 0.0959778 4.25342C0.0332023 4.34758 -0.000201559 4.45826 9.1503e-07 4.57143V12C9.1503e-07 12.6062 0.240817 13.1876 0.669471 13.6162C1.09813 14.0449 1.67951 14.2857 2.28571 14.2857H13.7143C14.3205 14.2857 14.9019 14.0449 15.3305 13.6162C15.7592 13.1876 16 12.6062 16 12V4.57143C16.0002 4.45826 15.9668 4.34758 15.904 4.25342C15.8412 4.15926 15.7519 4.08586 15.6474 4.04253C15.5428 3.9992 15.4278 3.98788 15.3168 4.01001C15.2058 4.03215 15.1039 4.08673 15.024 4.16685L12.0777 7.11428L8.46857 1.95771Z" fill="white" fill-opacity="0.9"/>
</g>
<defs>
<clipPath id="clip0_290_185">
<rect width="16" height="16" fill="white"/>
</clipPath>
</defs>
</svg>
