<svg width="21" height="21" viewBox="0 0 21 21" fill="none" xmlns="http://www.w3.org/2000/svg">
<path d="M13.1498 13.3644C13.7363 12.9382 14.1672 12.3484 14.3821 11.6779C14.597 11.0074 14.5849 10.2899 14.3477 9.62623C14.1105 8.96255 13.66 8.38604 13.0595 7.97774C12.4591 7.56943 11.7388 7.34985 11 7.34985C10.2612 7.34985 9.54093 7.56943 8.94046 7.97774C8.34 8.38604 7.8895 8.96255 7.65228 9.62623C7.41506 10.2899 7.40304 11.0074 7.61791 11.6779C7.83278 12.3484 8.26375 12.9382 8.85023 13.3644C7.74978 13.7542 6.79095 14.4364 6.08837 15.3294C5.99956 15.4417 5.96142 15.5829 5.98235 15.7219C6.00329 15.8609 6.08158 15.9863 6.2 16.0706C6.31842 16.1548 6.46728 16.191 6.61382 16.1712C6.76036 16.1513 6.89258 16.077 6.9814 15.9647C7.4493 15.3729 8.05603 14.8926 8.75353 14.5618C9.45104 14.231 10.2202 14.0588 11 14.0588C11.7798 14.0588 12.549 14.231 13.2465 14.5618C13.944 14.8926 14.5507 15.3729 15.0186 15.9647C15.1074 16.077 15.2396 16.1513 15.3862 16.1712C15.5327 16.191 15.6816 16.1548 15.8 16.0706C15.9184 15.9863 15.9967 15.8609 16.0176 15.7219C16.0386 15.5829 16.0004 15.4417 15.9116 15.3294C15.2091 14.4364 14.2502 13.7542 13.1498 13.3644ZM11 8.41176C11.4784 8.41176 11.946 8.54631 12.3437 8.79839C12.7414 9.05047 13.0514 9.40877 13.2345 9.82796C13.4176 10.2472 13.4655 10.7084 13.3721 11.1534C13.2788 11.5985 13.0485 12.0072 12.7102 12.3281C12.372 12.6489 11.941 12.8674 11.4718 12.9559C11.0027 13.0444 10.5164 12.999 10.0744 12.8254C9.6325 12.6517 9.25476 12.3577 8.989 11.9804C8.72324 11.6032 8.5814 11.1596 8.5814 10.7059C8.5814 10.0974 8.83621 9.51393 9.28979 9.0837C9.74337 8.65347 10.3585 8.41176 11 8.41176ZM17.6977 1H4.30233C3.95693 1 3.62568 1.13015 3.38144 1.36181C3.13721 1.59347 3 1.90767 3 2.23529V17.7647C3 18.0923 3.13721 18.4065 3.38144 18.6382C3.62568 18.8699 3.95693 19 4.30233 19H17.6977C18.0431 19 18.3743 18.8699 18.6186 18.6382C18.8628 18.4065 19 18.0923 19 17.7647V2.23529C19 1.90767 18.8628 1.59347 18.6186 1.36181C18.3743 1.13015 18.0431 1 17.6977 1ZM17.8837 17.7647C17.8837 17.8115 17.8641 17.8564 17.8292 17.8895C17.7943 17.9226 17.747 17.9412 17.6977 17.9412H4.30233C4.25298 17.9412 4.20566 17.9226 4.17077 17.8895C4.13588 17.8564 4.11628 17.8115 4.11628 17.7647V2.23529C4.11628 2.18849 4.13588 2.14361 4.17077 2.11051C4.20566 2.07742 4.25298 2.05882 4.30233 2.05882H17.6977C17.747 2.05882 17.7943 2.07742 17.8292 2.11051C17.8641 2.14361 17.8837 2.18849 17.8837 2.23529V17.7647Z" fill="#1871BF"/>
</svg>
