<svg width="21" height="21" viewBox="0 0 21 21" fill="none" xmlns="http://www.w3.org/2000/svg">
<path d="M19 5.18182V15.8182C19 16.1316 18.8703 16.4322 18.6395 16.6539C18.4087 16.8755 18.0957 17 17.7692 17H4.23077C3.90435 17 3.5913 16.8755 3.36048 16.6539C3.12967 16.4322 3 16.1316 3 15.8182V5.18182C3 4.86838 3.12967 4.56778 3.36048 4.34615C3.5913 4.12451 3.90435 4 4.23077 4H17.7692C18.0957 4 18.4087 4.12451 18.6395 4.34615C18.8703 4.56778 19 4.86838 19 5.18182ZM17.7692 15.8182V5.18182H4.23077V15.8182H17.7692ZM11.5954 13.3068C11.6362 13.4586 11.6125 13.6198 11.5296 13.7549C11.4466 13.8899 11.3112 13.9878 11.1531 14.027C10.995 14.0662 10.8271 14.0434 10.6865 13.9638C10.5458 13.8841 10.4439 13.7541 10.4031 13.6023C10.2008 12.8444 9.39846 12.2727 8.53769 12.2727C7.67692 12.2727 6.87538 12.8444 6.67231 13.6023C6.63151 13.7541 6.52956 13.8841 6.38891 13.9638C6.24826 14.0434 6.08042 14.0662 5.92231 14.027C5.7642 13.9878 5.62877 13.8899 5.54582 13.7549C5.46288 13.6198 5.4392 13.4586 5.48 13.3068C5.67969 12.5931 6.15173 11.9777 6.80231 11.5828C6.45659 11.2528 6.2207 10.8317 6.12453 10.3728C6.02836 9.91394 6.07625 9.43798 6.26213 9.00526C6.44801 8.57254 6.7635 8.20256 7.16861 7.94222C7.57373 7.68188 8.05022 7.5429 8.53769 7.5429C9.02516 7.5429 9.50166 7.68188 9.90677 7.94222C10.3119 8.20256 10.6274 8.57254 10.8133 9.00526C10.9991 9.43798 11.047 9.91394 10.9509 10.3728C10.8547 10.8317 10.6188 11.2528 10.2731 11.5828C10.9244 11.9771 11.3961 12.5927 11.5954 13.3068ZM8.53846 11.0909C8.78188 11.0909 9.01984 11.0216 9.22224 10.8917C9.42464 10.7619 9.58239 10.5773 9.67554 10.3614C9.7687 10.1454 9.79307 9.90778 9.74558 9.67853C9.69809 9.44928 9.58087 9.2387 9.40875 9.07342C9.23662 8.90814 9.01732 8.79558 8.77857 8.74998C8.53983 8.70438 8.29236 8.72778 8.06747 8.81723C7.84257 8.90668 7.65035 9.05816 7.51511 9.25251C7.37988 9.44686 7.30769 9.67535 7.30769 9.90909C7.30769 10.2225 7.43736 10.5231 7.66818 10.7448C7.89899 10.9664 8.21204 11.0909 8.53846 11.0909Z" fill="#1871BF"/>
</svg>
