<svg width="21" height="21" viewBox="0 0 21 21" fill="none" xmlns="http://www.w3.org/2000/svg">
<path d="M9.6054 12.9263C10.5003 12.3467 11.1798 11.5024 11.5432 10.5182C11.9067 9.53405 11.9349 8.4622 11.6237 7.4612C11.3125 6.4602 10.6783 5.58319 9.81509 4.95987C8.95184 4.33654 7.90528 4 6.83018 4C5.75508 4 4.70852 4.33654 3.84527 4.95987C2.98201 5.58319 2.34789 6.4602 2.03667 7.4612C1.72546 8.4622 1.75367 9.53405 2.11714 10.5182C2.48061 11.5024 3.16004 12.3467 4.05496 12.9263C2.43614 13.5066 1.05363 14.5806 0.113724 15.9879C0.0643255 16.0593 0.0300133 16.1396 0.0127819 16.224C-0.00444961 16.3084 -0.00425668 16.3954 0.0133494 16.4797C0.0309555 16.5641 0.0656236 16.6442 0.115339 16.7154C0.165053 16.7866 0.228823 16.8475 0.302942 16.8945C0.37706 16.9415 0.460048 16.9738 0.547083 16.9893C0.634117 17.0049 0.723461 17.0034 0.809922 16.9851C0.896382 16.9668 0.978235 16.9319 1.05072 16.8825C1.12321 16.8332 1.18488 16.7703 1.23216 16.6975C1.83844 15.7904 2.66806 15.0451 3.64567 14.5291C4.62329 14.0131 5.71792 13.7428 6.83018 13.7428C7.94244 13.7428 9.03707 14.0131 10.0147 14.5291C10.9923 15.0451 11.8219 15.7904 12.4282 16.6975C12.5261 16.8391 12.6774 16.9375 12.8493 16.9714C13.0213 17.0054 13.2 16.9722 13.347 16.8789C13.4939 16.7857 13.5972 16.64 13.6346 16.4732C13.672 16.3065 13.6404 16.1322 13.5466 15.9879C12.6067 14.5806 11.2242 13.5066 9.6054 12.9263ZM3.1577 8.87332C3.1577 8.16678 3.37309 7.47611 3.77663 6.88864C4.18017 6.30118 4.75373 5.84331 5.42478 5.57293C6.09584 5.30255 6.83425 5.2318 7.54664 5.36964C8.25904 5.50748 8.91341 5.84771 9.42701 6.34731C9.94062 6.8469 10.2904 7.48343 10.4321 8.17639C10.5738 8.86935 10.5011 9.58763 10.2231 10.2404C9.94514 10.8931 9.47443 11.4511 8.8705 11.8436C8.26656 12.2361 7.55653 12.4456 6.83018 12.4456C5.85652 12.4446 4.92305 12.0678 4.23457 11.3981C3.54608 10.7284 3.15881 9.82042 3.1577 8.87332ZM20.6971 16.8867C20.5488 16.9807 20.3681 17.0137 20.1949 16.9782C20.0216 16.9427 19.8699 16.8418 19.7732 16.6975C19.1676 15.7899 18.3381 15.0442 17.3603 14.5284C16.3825 14.0127 15.2875 13.7432 14.1751 13.7447C13.998 13.7447 13.8282 13.6762 13.703 13.5544C13.5778 13.4326 13.5074 13.2674 13.5074 13.0951C13.5074 12.9229 13.5778 12.7577 13.703 12.6359C13.8282 12.5141 13.998 12.4456 14.1751 12.4456C14.716 12.4451 15.25 12.3285 15.7391 12.1039C16.2282 11.8794 16.6603 11.5525 17.0045 11.1467C17.3486 10.741 17.5964 10.2662 17.7301 9.75647C17.8639 9.24672 17.8802 8.71454 17.7779 8.19794C17.6757 7.68135 17.4574 7.1931 17.1387 6.76808C16.8199 6.34306 16.4086 5.99176 15.9342 5.73929C15.4597 5.48681 14.9337 5.33938 14.3939 5.30755C13.8541 5.27571 13.3137 5.36025 12.8113 5.55512C12.7294 5.58956 12.6412 5.60769 12.552 5.60842C12.4628 5.60915 12.3743 5.59248 12.2918 5.55939C12.2093 5.5263 12.1345 5.47746 12.0717 5.41576C12.0089 5.35406 11.9595 5.28075 11.9264 5.20016C11.8932 5.11956 11.877 5.03333 11.8788 4.94654C11.8805 4.85976 11.9 4.77419 11.9363 4.69489C11.9726 4.61558 12.0248 4.54416 12.09 4.48483C12.1551 4.4255 12.2318 4.37947 12.3155 4.34947C13.4652 3.90345 14.744 3.8874 15.9051 4.30441C17.0663 4.72142 18.0276 5.54193 18.6035 6.60767C19.1794 7.6734 19.3291 8.90885 19.0239 10.0757C18.7186 11.2425 17.9799 12.258 16.9504 12.9263C18.5692 13.5066 19.9517 14.5806 20.8916 15.9879C20.9883 16.1322 21.0222 16.3079 20.9857 16.4765C20.9492 16.645 20.8454 16.7926 20.6971 16.8867Z" fill="#1871BF"/>
</svg>
