<svg width="21" height="21" viewBox="0 0 21 21" fill="none" xmlns="http://www.w3.org/2000/svg">
<path d="M8.68291 2L7.86634 3.19139H8.96155L9.77813 2H8.68291ZM10.5495 2L9.73302 3.19139H12.2669L11.4504 2H10.5495ZM12.2219 2L13.0385 3.19139H14.1337L13.3171 2H12.2219ZM8.04153 3.81571L9.82855 5.55389L8.93502 3.81571H8.04153ZM9.65265 3.81571L11 6.43674L12.3474 3.81567L9.65265 3.81571ZM13.065 3.81571L12.1714 5.55389L13.9585 3.81571H13.065ZM8.27124 4.92206C5.76402 5.95932 4 8.37991 4 11.1913C4 14.9436 7.14229 18 11 18C14.8577 18 18 14.9436 18 11.1913C18 8.37995 16.236 5.95932 13.7288 4.92206L12.6406 5.98051C14.9369 6.66004 16.6 8.73067 16.6 11.1914C16.6 14.2077 14.101 16.6383 11 16.6383C7.89893 16.6383 5.40002 14.2077 5.40002 11.1914C5.40002 8.73067 7.06313 6.66004 9.35943 5.98054L8.27124 4.92213V4.92206Z" fill="#1871BF"/>
</svg>
