<svg width="21" height="21" viewBox="0 0 21 21" fill="none" xmlns="http://www.w3.org/2000/svg">
<path d="M17.326 12.4121L14.0283 10.9344L14.0192 10.9302C13.848 10.857 13.6612 10.8276 13.4758 10.8447C13.2904 10.8618 13.1122 10.9249 12.9573 11.0282C12.939 11.0403 12.9215 11.0534 12.9048 11.0674L11.201 12.5199C10.1215 11.9956 9.00714 10.8896 8.48284 9.82422L9.93745 8.09451C9.95145 8.07701 9.96475 8.05951 9.97735 8.04061C10.0784 7.88612 10.1398 7.70903 10.1559 7.5251C10.172 7.34118 10.1424 7.15612 10.0697 6.9864V6.978L8.58784 3.67466C8.49176 3.45295 8.32654 3.26825 8.11687 3.14815C7.90719 3.02804 7.66429 2.97897 7.42443 3.00826C6.4759 3.13307 5.60524 3.5989 4.97507 4.31874C4.34489 5.03857 3.99829 5.96319 4.00001 6.9199C4.00001 12.478 8.52204 17 14.0801 17C15.0368 17.0017 15.9614 16.6551 16.6812 16.0249C17.4011 15.3948 17.8669 14.5241 17.9917 13.5756C18.021 13.3358 17.9721 13.0929 17.8521 12.8833C17.7321 12.6736 17.5476 12.5083 17.326 12.4121ZM14.0801 15.88C11.7045 15.8774 9.427 14.9325 7.74722 13.2528C6.06745 11.573 5.12261 9.29546 5.12001 6.9199C5.11738 6.23633 5.36365 5.57518 5.81283 5.05991C6.26202 4.54465 6.8834 4.2105 7.56093 4.11987C7.56066 4.12266 7.56066 4.12548 7.56093 4.12827L9.03094 7.4183L7.58403 9.15012C7.56935 9.16702 7.55601 9.18504 7.54413 9.20402C7.43879 9.36566 7.37699 9.55178 7.36473 9.74433C7.35247 9.93687 7.39015 10.1293 7.47413 10.303C8.10834 11.6001 9.41525 12.8973 10.7264 13.5308C10.9013 13.614 11.0949 13.6503 11.2881 13.6363C11.4814 13.6224 11.6677 13.5585 11.8289 13.451C11.8468 13.4389 11.8641 13.4258 11.8807 13.4118L13.5824 11.9599L16.8724 13.4335C16.8724 13.4335 16.878 13.4335 16.8801 13.4335C16.7906 14.112 16.4569 14.7346 15.9416 15.1849C15.4262 15.6352 14.7644 15.8823 14.0801 15.88Z" fill="#1871BF"/>
</svg>
