<svg width="70" height="70" viewBox="0 0 70 70" fill="none"
  xmlns="http://www.w3.org/2000/svg">
  <path d="M4.33013 40.5C2.36517 37.0966 2.36516 32.9034 4.33013 29.5L14.9019 11.1891C16.8669 7.7857 20.4983 5.68911 24.4282 5.68911L45.5718 5.68911C49.5017 5.68911 53.1331 7.7857 55.0981 11.1891L65.6699 29.5C67.6348 32.9034 67.6348 37.0966 65.6699 40.5L55.0981 58.8109C53.1331 62.2143 49.5017 64.3109 45.5718 64.3109L24.4282 64.3109C20.4983 64.3109 16.8669 62.2143 14.9019 58.8109L4.33013 40.5Z" fill="url(#paint0_radial_229_1797)" fill-opacity="0.45" stroke="#2981FF" stroke-width="2" />
  <path d="M9.88675 40C8.10042 36.906 8.10042 33.094 9.88675 30L18.1132 15.7513C19.8996 12.6573 23.2008 10.7513 26.7735 10.7513L43.2265 10.7513C46.7992 10.7513 50.1004 12.6573 51.8868 15.7513L60.1132 30C61.8996 33.094 61.8996 36.906 60.1132 40L51.8868 54.2487C50.1004 57.3427 46.7992 59.2487 43.2265 59.2487L26.7735 59.2487C23.2008 59.2487 19.8996 57.3427 18.1132 54.2487L9.88675 40Z" fill="#2981FF" />
  <g clip-path="url(#clip0_229_1797)">
    <path d="M34.9873 23C28.365 23.0072 23 28.3774 23 35C23.0024 41.5616 28.275 46.9047 34.8358 46.9945C34.117 45.171 34.5051 42.9354 35.6 41.2926V40.7912H35.9638C36.3397 40.3436 36.8677 39.9498 37.496 39.5912H35.6V35.6H36.6896C36.7136 35.1963 36.7909 34.7919 36.914 34.4H35.6V30.4088H40.2068C40.2692 30.6478 40.3256 30.8936 40.3784 31.1422C40.8241 31.0702 41.227 31.0671 41.5986 31.1142C41.5521 30.878 41.501 30.6427 41.4452 30.4086H44.7788C45.3018 31.5229 45.6296 32.7187 45.7479 33.944C45.8506 35.1298 45.8492 36.1971 45.4825 37.6016C45.3331 38.2023 45.1324 38.789 44.8825 39.3553C45.1532 39.6399 45.481 39.9092 45.8106 40.184C46.5898 38.5667 46.9963 36.7952 47 35C47 28.3726 41.6274 23 35 23H34.9873ZM35.6 24.3637C36.8643 24.5787 38.0725 25.6203 39.0243 27.3486C39.331 27.9056 39.6051 28.531 39.8422 29.2086H35.6V24.3637ZM34.4 24.411V29.2086H30.38C30.6171 28.531 30.8912 27.9056 31.1979 27.3486C32.0936 25.7218 33.217 24.7042 34.4 24.411ZM31.6352 24.7357C31.0774 25.3002 30.5768 25.9885 30.1465 26.7697C29.7433 27.5017 29.3965 28.3218 29.1116 29.2086H25.8824C27.2108 27.1191 29.2364 25.5198 31.6352 24.7357ZM38.6936 24.8468C40.9491 25.6659 42.8504 27.2151 44.1176 29.2086H41.1092C40.825 28.3218 40.4787 27.5017 40.0755 26.7697C39.6733 26.0389 39.2082 25.3899 38.6936 24.8468ZM25.2217 30.4088H28.7756C28.4768 31.6477 28.2937 32.9912 28.2469 34.4002H24.2173C24.2919 33.0176 24.6328 31.6624 25.2214 30.409M30.0152 30.409H34.4V34.4H29.4481C29.499 32.9756 29.6984 31.6273 30.0152 30.409ZM24.2173 35.6H28.2402C28.2711 37.0054 28.437 38.349 28.7187 39.5912H25.2214C24.6328 38.3379 24.2919 36.9826 24.2173 35.6ZM29.4402 35.6H34.4V39.5912H29.9552C29.6564 38.3672 29.4738 37.0196 29.4402 35.6ZM25.8824 40.7912H29.035C29.3331 41.7716 29.707 42.6728 30.1465 43.4708C30.4916 44.0972 30.8828 44.6634 31.3114 45.1549C29.0538 44.3365 27.1508 42.7861 25.8824 40.7912ZM30.297 40.7914H34.4V45.783C34.3261 45.7789 34.2531 45.7714 34.1797 45.7662C33.0781 45.4062 32.0379 44.4174 31.1979 42.8922C30.8552 42.2696 30.5518 41.5633 30.297 40.7917" fill="#242424" />
    <path d="M41.24 32.0646C39.2516 32.0646 37.64 33.6764 37.64 35.6646C37.64 37.6527 39.2516 39.2646 41.24 39.2646C43.2279 39.2646 44.84 37.6527 44.84 35.6646C44.84 33.6764 43.2279 32.0646 41.24 32.0646ZM41.24 39.7981C37.2632 39.7981 35.48 41.5815 35.48 45.5581V46.0381C35.498 46.9837 35.9161 47.0115 36.8 46.9981H45.68C46.8068 46.9971 47.0077 46.9993 47 46.0381V45.5581C47 41.5815 45.2163 39.7981 41.24 39.7981Z" fill="#242424" />
  </g>
  <defs>
    <radialGradient id="paint0_radial_229_1797" cx="0" cy="0" r="1" gradientUnits="userSpaceOnUse" gradientTransform="translate(34.9999 -0.0999952) rotate(90) scale(77.725 793.143)">
      <stop />
      <stop offset="1" stop-opacity="0" />
    </radialGradient>
    <clipPath id="clip0_229_1797">
      <rect width="24" height="24" fill="white" transform="translate(23 23)" />
    </clipPath>
  </defs>
</svg>