<svg width="21" height="21" viewBox="0 0 21 21" fill="none" xmlns="http://www.w3.org/2000/svg">
<path d="M16.9046 15.9754C16.9158 15.9651 16.9204 15.9528 16.9204 15.9419V7.47674C16.9204 7.46577 16.9158 7.45353 16.9047 7.44323L16.9726 7.36986L16.9046 7.44323C16.8933 7.4327 16.8763 7.42558 16.8571 7.42558H3.79603H3.79592L16.9046 15.9754ZM16.9046 15.9754C16.8933 15.9859 16.8763 15.993 16.8571 15.993H3.79592C3.60356 15.993 3.42048 15.9222 3.28663 15.7983C3.15304 15.6746 3.07959 15.5085 3.07959 15.3372V7.29481L16.9046 15.9754ZM16.8571 6.3186H3.79592C3.60356 6.3186 3.42048 6.24778 3.28663 6.12385C3.15304 6.00016 3.07959 5.83413 3.07959 5.66279C3.07959 5.49145 3.15304 5.32542 3.28663 5.20173C3.42048 5.0778 3.60356 5.00698 3.79592 5.00698H14.898C15.052 5.00698 15.2011 4.95039 15.3122 4.84753C15.4236 4.74443 15.4878 4.60288 15.4878 4.45349C15.4878 4.3041 15.4236 4.16255 15.3122 4.05945C15.2011 3.95659 15.052 3.9 14.898 3.9H3.79592C3.29547 3.9 2.81411 4.08399 2.45807 4.41364C2.10177 4.74353 1.9 5.19268 1.9 5.66279V15.3372C1.9 15.8073 2.10177 16.2565 2.45807 16.5864C2.81411 16.916 3.29547 17.1 3.79592 17.1H16.8571C17.1844 17.1 17.4996 16.9797 17.7332 16.7635C17.967 16.547 18.1 16.2516 18.1 15.9419V7.47674C18.1 7.16699 17.967 6.87164 17.7332 6.65515C17.4996 6.43889 17.1844 6.3186 16.8571 6.3186ZM14.6782 11.8854C14.7799 11.7445 14.8347 11.578 14.8347 11.407C14.8347 11.1774 14.7361 10.959 14.5635 10.7992C14.3912 10.6396 14.159 10.5512 13.9184 10.5512C13.7388 10.5512 13.5627 10.6004 13.4122 10.6935C13.2617 10.7866 13.1432 10.9197 13.0729 11.0769C13.0025 11.2342 12.984 11.4078 13.02 11.5754C13.0559 11.7429 13.1445 11.8957 13.2732 12.0148C13.4018 12.1338 13.5647 12.2141 13.741 12.2466C13.9173 12.2791 14.1001 12.2625 14.2666 12.1986C14.4331 12.1348 14.5766 12.0262 14.6782 11.8854Z" fill="#1871BF" stroke="#1871BF" stroke-width="0.2"/>
</svg>
