<svg width="400" height="400" viewBox="0 0 400 400" fill="none" xmlns="http://www.w3.org/2000/svg">
<g clip-path="url(#clip0_1677_21)">
<path d="M31.9753 238.274C57.817 224.786 83.053 212.183 107.76 198.606C161.52 169.057 215.023 139.008 268.618 109.152C279.282 103.214 289.998 97.3547 300.476 91.1048C305.6 88.047 309.974 88.3737 314.653 91.7925C326.702 100.576 338.864 109.205 350.936 117.962C357.969 123.065 358.128 127.84 350.867 132.628C340.817 139.249 330.424 145.353 320.181 151.674C313.598 155.732 307.016 159.791 299.931 164.16C306.71 176.568 313.347 188.714 320.044 200.968C328.508 198.1 336.247 201.505 344.121 202.766C345.453 202.977 347.25 204.966 347.454 206.338C347.649 207.682 346.455 209.862 345.211 210.671C332.895 218.654 320.569 226.64 307.937 234.097C305.283 235.666 301.276 235.83 298.068 235.367C292.537 234.564 287.105 232.939 281.743 231.306C279.748 230.693 278.045 229.092 276.204 227.942C277.619 226.353 278.806 224.412 280.508 223.243C283.442 221.226 286.708 219.679 290.151 217.754C283.552 205.825 277.159 194.286 270.54 182.321C258.995 189.384 247.766 196.207 236.574 203.093C218.454 214.244 200.427 225.545 182.212 236.535C178.797 238.598 178.561 240.098 180.506 243.443C187.302 255.185 193.743 267.135 200.315 278.999C209.309 275.845 217.427 279.592 225.627 281.417C229.256 282.222 229.463 286.446 226.105 288.535C213.507 296.387 200.929 304.274 188.044 311.634C185.378 313.155 181.336 313.111 178.121 312.588C172.444 311.659 166.859 309.961 161.354 308.221C159.534 307.644 158.056 305.962 156.425 304.787C157.81 303.165 158.944 301.145 160.654 300.005C163.33 298.212 166.397 296.998 169.786 295.294C162.718 282.384 155.924 269.96 148.922 257.178C128.42 269.763 108.372 282.081 87.9595 294.611C69.4991 276.02 51.1272 257.528 32.0092 238.286L31.9753 238.274Z" fill="white"/>
<path d="M7.22177 263.69C6.50453 254.951 5.43723 246.708 5.36244 238.448C5.34429 235.848 7.38514 232.107 9.56957 230.974C11.3456 230.043 15.3406 231.484 17.3056 233.139C23.6334 238.452 29.6175 244.209 35.4871 250.038C52.7434 267.205 69.8056 284.569 87.102 301.695C93.0621 307.592 94.8464 314.175 92.0436 322.017C89.4218 329.346 86.8097 336.672 84.1323 343.985C82.6191 348.122 79.9845 351.143 75.394 351.815C70.8226 352.482 68.6098 349.25 66.3121 346.123C48.2252 321.405 30.0929 296.709 12.0558 271.946C10.1382 269.318 8.7438 266.301 7.24096 263.685L7.22177 263.69Z" fill="white"/>
<path d="M356.895 134.445C363.784 124.97 363.091 120.887 353.811 114.225C342.241 105.923 330.732 97.5425 319.127 89.3017C315.228 86.5318 311.286 83.8668 305.923 84.7661C304.782 84.9581 302.18 82.6887 301.998 81.3211C300.943 73.5095 299.94 65.6221 299.899 57.7561C299.879 53.6887 303.801 52.1726 307.684 54.2333C311.915 56.4798 316.01 59.0215 319.965 61.7348C339.373 74.9971 358.742 88.3108 378.053 101.713C387.957 108.59 388.567 111.021 384.101 122.018C382.043 127.076 380.174 132.229 377.847 137.163C374.551 144.125 369.985 145.079 364.145 140.359C361.824 138.489 359.537 136.59 356.914 134.44L356.895 134.445Z" fill="white"/>
</g>
<defs>
<clipPath id="clip0_1677_21">
<rect width="400" height="400" fill="white"/>
</clipPath>
</defs>
</svg>
