<?xml version="1.0" encoding="UTF-8"?>
<svg id="Camada_2" data-name="Camada 2" xmlns="http://www.w3.org/2000/svg" viewBox="0 0 400.06 473.53">
  <defs>
    <style>
      .cls-1 {
        fill: #fff;
        stroke-width: 0px;
      }
    </style>
  </defs>
  <g id="Camada_1-2" data-name="Camada 1">
    <path class="cls-1" d="M.25,174.78c0-33.62-.03-67.24.01-100.87.02-12.76,2.47-16.14,14.76-19.84C73.99,36.32,132.94,18.53,192.01,1.11c4.97-1.47,11.12-1.5,16.09-.03,59.37,17.5,118.62,35.38,177.88,53.23,11.22,3.38,14,7.07,14.01,18.53.04,66.63.18,133.25-.06,199.88-.12,32.41-14.09,59.57-34.19,83.89-36.23,43.82-82.44,74.99-132.12,101.03-40.4,21.17-26.53,21.18-66.83.07-49.41-25.89-95.33-56.88-131.58-100.26C12.31,330.04-1.06,299.29.07,262.68c.9-29.28.18-58.6.18-87.9Z"/>
  </g>
</svg>