<?xml version="1.0" encoding="UTF-8"?>
<svg id="Camada_2" data-name="Camada 2" xmlns="http://www.w3.org/2000/svg" viewBox="0 0 375.73 415.92">
  <defs>
    <style>
      .cls-1 {
        fill: #fff;
        stroke-width: 0px;
      }
    </style>
  </defs>
  <g id="Camada_1-2" data-name="Camada 1">
    <path class="cls-1" d="M366.43,6.94c-.79-7.71-11.12-9.57-14.62-2.65-16.41,32.34-41.86,54.55-76.3,67.03-2.83,1.03-5.74,2-8.7,2.89l-.08.02-15.15,2.73c-.56.1-1.09.28-1.62.48-1.34.52-2.84.92-4.03,1.54-10.3,2.5-20.11,5.13-29.46,7.88,1.21-.17,2.42-.37,3.62-.57l-19.38,5.5c-.12.02-.25.05-.37.07C85.46,129.38,47.05,184.77,36.17,228.19c-.87,3.48-6.02,2.68-5.76-.91,3.75-50.95,36.98-121.21,184.89-150.89.27-.06.55-.1.82-.12.25-.02.5-.05.73-.07,2.78-.29,5.3-1.73,6.94-4l2.26-3.12c.29-.41.37-.88.29-1.33-.15-.86.16-1.72.65-2.44.97-1.45,1.42-3.03,1.42-4.57,0-2.69-1.2-6.59-3.33-8.98-1.04-1.18-2.32-1.98-3.79-2.09-2.95-.22-6.37-.4-10.2-.5-8.72-1.28-17.66-1.93-26.74-1.93-58.28,0-110.24,27.04-144.02,69.27-.33.42-.67.84-1,1.26-1.83,2.28-3.61,4.65-5.32,7.09-.73,1.04-1.46,2.09-2.18,3.16-.22.32-.45.64-.64.97C11.49,158.31,0,193.61,0,231.58c0,2.75.06,5.48.19,8.19v.56c-4.39,84.58,72.02,161.96,154.17,173.8,8.92,1.36,17.88,1.93,26.79,1.76,1.07.01,2.13.02,3.2.02,84.31,0,155.4-56.6,177.35-133.88.05-.2.11-.4.16-.59.04-.16.09-.33.12-.51,2.02-8.3,1.35-17.06-1.95-24.95-29.01-69.45-105.79-83.13-159.13-83.88h-.14,0c8.88-2.47,18.03-3.84,27.24-3.99,20.77-.34,41.61.02,62.45.08.04,0,.11,0,.15.01,9.31.74,18.64,1.69,27.96,2.65,17.32,1.81,33.1,11.13,42.65,25.69.11.16.21.32.32.48,1.16,1.81,2.78,2.88,4.51,3.3,4.52,1.14,9.8-2.06,9.68-7.68-1.36-61.97-3.04-124.1-9.29-185.7Z"/>
  </g>
</svg>