<?xml version="1.0" encoding="UTF-8"?>
<svg id="Camada_2" data-name="Camada 2" xmlns="http://www.w3.org/2000/svg" viewBox="0 0 560.11 435.24">
  <defs>
    <style>
      .cls-1 {
        fill: #fff;
        stroke-width: 0px;
      }
    </style>
  </defs>
  <g id="Camada_1-2" data-name="Camada 1">
    <path class="cls-1" d="M560.11,161.96c-6.55,6.11-13.33,11.96-19.6,18.38-22.02,22.57-43.4,45.86-65.86,67.91-52.59,51.64-105.41,103.02-158.76,153.78-12.11,11.52-26.69,20.11-40.19,29.96-1.74,1.27-3.85,1.98-6.35,3.24-.15-2.24-.44-3.64-.31-5,3.19-35.04-5.79-67.18-20.43-98.06-14.94-31.51-33.99-59.96-56.03-86.25-28.71-34.25-60.8-64.29-97.95-87.84-19.66-12.46-40.49-22.4-63.73-23.98-9.08-.62-18.31,1.34-27.47,2.13-.95.08-1.9.26-3.43-.65,2.2-1.83,4.2-4.02,6.62-5.42,37.31-21.76,74.45-43.85,112.07-64.99,39.91-22.43,80.84-42.54,123.63-58.24,16.74-6.14,33.57-8.1,50.96-6.28,14.11,1.48,28.2,3.24,42.3,4.86,1.02.12,2.08.26,3.07.06,21.76-4.32,41.68,3.74,61.45,11.08,37.65,13.98,72.73,33.43,104.87,58.68,6.26,4.92,12.22,9.83,13.31,19.02.28,2.39,2.51,4.66,4.16,6.71,13.68,17.09,25.34,35.6,35.12,55.47.47.95.7,2.02,1.05,3.04.5.8,1.01,1.6,1.51,2.39ZM250.31,228.91c-1.48.48-2.95.97-4.43,1.45.41.7.83,1.4,1.24,2.09,1.03-1.22,2.06-2.44,3.08-3.66l.2-.08-.1.2ZM356.44,67.25c-2.94,4.77-5,8.13-7.2,11.7,18.06,11.3,35.32,22.1,53.2,33.28,3.1-3.03,6.1-5.96,10.24-10-19.36-12.04-37.48-23.31-56.24-34.98ZM297.27,37.9c-1.9,4.58-3.21,7.73-4.61,11.11,17.41,9.05,34.03,17.69,51.18,26.61,2.34-3.47,4.55-6.73,7.43-10.99-18.3-9.06-35.67-17.65-54-26.72ZM136.03,134.61c-.11-.3-.22-.6-.34-.89-.72.3-1.43.6-2.15.9.11.3.22.59.34.89.72-.3,1.43-.6,2.15-.9Z"/>
  </g>
</svg>