<svg width="400" height="400" viewBox="0 0 400 400" fill="none" xmlns="http://www.w3.org/2000/svg">
<g clip-path="url(#clip0_1677_33)">
<path d="M181.618 90.2701H129.024V55.2188H271.053V89.7663H218.367C218.367 93.537 218.367 96.4529 218.367 99.3535C218.367 117.917 218.474 136.481 218.29 155.06C218.245 159.228 219.329 161.731 223.073 164.22C250.073 182.188 249.813 218.751 222.92 237.101C220.949 238.444 218.596 241.085 218.565 243.162C218.245 265.267 218.367 287.373 218.367 310.348H271.037V345.735H129.009V310.593H181.618V279.404C181.618 270.244 181.16 261.054 181.756 251.94C182.275 244.016 180.258 238.979 173.29 233.819C150.065 216.583 151.715 181.089 176.01 164.891C180.472 161.915 181.786 158.907 181.725 153.885C181.481 133.046 181.618 112.208 181.618 90.2853V90.2701Z" fill="white"/>
<path d="M343.969 328.408C343.969 344.423 344.046 360.422 343.939 376.436C343.878 385.382 340.44 388.786 331.424 388.878C319.475 389 307.511 389 295.562 388.878C286.745 388.786 282.879 385.138 282.849 376.39C282.727 344.377 282.727 312.348 282.849 280.335C282.879 271.541 286.287 268.32 294.813 268.259C307.022 268.168 319.231 268.198 331.44 268.259C341.066 268.305 343.924 271.206 343.969 281.159C344.046 296.914 343.985 312.669 343.969 328.424V328.408Z" fill="white"/>
<path d="M56.0306 72.3933C56.0306 56.6385 55.9847 40.8837 56.0306 25.1442C56.0764 15.1906 59.2241 12.1374 69.3701 12.0763C81.0594 12.0153 92.764 11.9847 104.453 12.0763C113.392 12.1527 116.998 15.5723 117.029 24.5641C117.151 56.5774 117.166 88.5908 117.029 120.589C116.998 129.352 113.591 132.512 105.019 132.558C92.5654 132.619 80.0968 132.619 67.6435 132.558C59.3464 132.512 56.107 129.428 56.0459 121.154C55.9236 104.895 56.0153 88.6366 56.0153 72.378L56.0306 72.3933Z" fill="white"/>
<path d="M343.969 73.1566C343.969 88.9114 344.046 104.666 343.954 120.421C343.893 129.688 340.868 132.573 331.547 132.603C319.078 132.634 306.625 132.466 294.156 132.664C286.776 132.787 282.971 128.894 282.925 122.161C282.681 89.1251 282.711 56.1042 282.879 23.068C282.91 16.2288 286.883 12.1832 293.942 12.1221C306.915 11.9847 319.888 11.9389 332.845 12.1374C340.44 12.2595 343.832 15.8318 343.908 23.6176C344.046 40.1357 343.954 56.6538 343.954 73.1719L343.969 73.1566Z" fill="white"/>
<path d="M56.0306 327.95C56.0306 312.196 55.9695 296.441 56.0459 280.701C56.0917 271.221 58.9797 268.305 68.2089 268.259C80.6622 268.198 93.1308 268.168 105.584 268.275C113.331 268.336 116.968 271.496 116.998 279.297C117.182 312.073 117.166 344.85 116.998 377.611C116.952 385.046 112.949 388.741 105.447 388.863C92.9932 389.061 80.5246 389.046 68.0713 388.878C59.5297 388.771 56.107 385.275 56.0611 376.741C55.9542 360.483 56.0306 344.224 56.0306 327.966V327.95Z" fill="white"/>
</g>
<defs>
<clipPath id="clip0_1677_33">
<rect width="288" height="377" fill="white" transform="translate(56 12)"/>
</clipPath>
</defs>
</svg>
