<svg width="400" height="400" viewBox="0 0 400 400" fill="none" xmlns="http://www.w3.org/2000/svg">
<g clip-path="url(#clip0_1677_44)">
<path d="M257.81 41.9402C253.014 66.904 252.777 90.3593 265.239 112.993C277.801 135.819 297.856 147.288 322.476 154.216C320.567 155.433 319.272 156.337 317.916 157.12C253.186 194.502 188.479 231.944 123.676 269.202C109.287 277.478 93.8586 276.773 79.2452 270.712C33.0137 251.537 22.496 197.442 51.5182 161.824C52.5379 160.569 53.862 159.461 55.2643 158.651C121.94 120.114 188.638 81.6165 255.332 43.1109C255.841 42.8169 256.403 42.5965 257.806 41.9324L257.81 41.9402Z" fill="white"/>
<path d="M62.9364 395.401C69.2953 382.46 75.6542 369.52 82.0008 356.576C93.063 334.015 104.179 311.474 115.129 288.863C116.772 285.467 118.943 283.058 122.241 281.154C199.854 236.448 277.408 191.641 354.988 146.86C356.265 146.123 357.534 145.39 358.811 144.653C359.405 144.904 359.999 145.154 360.593 145.405C359.94 146.355 359.039 147.219 358.651 148.266C345.736 183.104 332.915 217.98 319.888 252.788C319.041 255.048 317.046 257.418 314.947 258.578C286.513 274.39 257.971 290.015 229.447 305.671C210.038 316.325 190.611 326.968 171.175 337.575C136.006 356.776 100.832 375.949 65.65 395.126C65.0221 395.467 64.3536 395.739 63.7076 396.049C63.4479 395.835 63.1882 395.62 62.9331 395.413L62.9364 395.401Z" fill="white"/>
<path d="M366.237 55.1295C374.901 71.3115 379.141 88.9127 373.541 107.8C365.927 133.494 341.994 146.01 316.408 137.952C284.146 127.792 261.84 89.6995 268.743 56.5519C275.024 26.378 303.759 11.631 332.093 23.9241C346.84 30.3243 357.642 40.9287 366.25 55.1327L366.237 55.1295ZM354.747 63.1073C347.711 51.4637 338.997 42.6319 326.682 37.9106C308.011 30.756 290.533 40.9199 287.364 60.6526C285.819 70.2618 287.125 79.5793 290.821 88.423C297.637 104.734 308.246 117.554 325.864 122.849C342.353 127.816 357.005 119.398 361.292 102.759C365.009 88.3543 361.319 75.1432 354.747 63.1073Z" fill="white"/>
<path d="M349.503 65.5308C354.39 75.4984 357.341 85.5846 356.008 96.5921C353.867 114.232 340.106 122.187 323.661 115.414C304.679 107.595 290.459 82.4038 293.61 62.1707C296.216 45.4607 310.109 37.6269 325.622 44.4493C329.809 46.2917 333.93 48.8173 337.287 51.8994C341.765 56.0005 345.471 60.9536 349.51 65.5263L349.503 65.5308ZM333.386 73.7837C329.941 71.3258 326.778 68.2359 322.99 66.5592C317.812 64.268 313.074 67.2429 311.64 72.7371C309.449 81.1364 316.143 92.2792 324.54 94.2117C329.38 95.3226 333.242 93.2181 334.763 88.5072C336.353 83.5898 335.162 79.0489 333.386 73.7837Z" fill="white"/>
</g>
<defs>
<clipPath id="clip0_1677_44">
<rect width="400" height="400" fill="white"/>
</clipPath>
</defs>
</svg>
