<?xml version="1.0" encoding="UTF-8"?>
<svg id="Camada_2" data-name="Camada 2" xmlns="http://www.w3.org/2000/svg" viewBox="0 0 380.05 430.15">
  <defs>
    <style>
      .cls-1 {
        fill: #fff;
        stroke-width: 0px;
      }
    </style>
  </defs>
  <g id="Camada_1-2" data-name="Camada 1">
    <g>
      <path class="cls-1" d="M195.79,397.35c-2.52,2.45-5.04,4.91-7.58,7.34-4.68,4.49-9.7,5.11-15.21,1.53-7.91-5.14-11.4-13.07-13.48-21.89-1.74-7.38.22-13.21,6.2-18.02,11.95-9.61,23.34-19.96,35.67-29.04,12.37-9.11,26.9-13.44,42.1-15.57,1.98-.28,4.19-1.58,5.56-3.07,3.83-4.19,7.55-8.44,8.05-14.71.17-2.17,2.16-4.55,3.91-6.2,23.78-22.33,47.69-44.5,71.48-66.82,4.29-4.02,9.02-4.26,15.21-2.44.13-2.8.54-5.28.31-7.69-.75-7.75-4.88-13.85-10.29-19.07-18.76-18.1-37.64-36.07-56.46-54.12-11.39-10.92-22.1-22.39-28.57-37.09-1.43-3.24-2.43-6.67-3.81-10.53-.76,3.71-1.55,7.09-2.12,10.5-.82,4.96-3.26,8.79-7.22,11.87-3.34,2.6-6.36,5.6-9.71,8.19-.86.67-2.74.98-3.57.48-.96-.57-1.72-2.22-1.73-3.4,0-1,.96-2.36,1.88-2.95,3.97-2.54,8.62-4.28,11.95-7.44,2.42-2.3,3.81-6.23,4.54-9.67,1.83-8.6,2.94-17.35,4.5-26.01.55-3.07.85-6.64,5.6-6.12.46.05,1.18-1.06,1.58-1.74,3.07-5.24,7.29-9.16,12.36-12.58,14.19-9.58,28.1-19.58,42.12-29.41,2.24-1.57,4.41-3.25,6.73-4.69,3.39-2.11,6.96-1.73,10.12.3,7.12,4.58,13.79,14.03,8.41,24.45-2.22,4.3-7.42,7.05-11.27,10.5-7.74-1.53-12.18,4.6-17.74,7.88-7.87,4.64-15.44,9.78-23.02,14.89-3.52,2.37-4.47,6.04-3.77,10.11,1.13,6.52,4.96,11.56,9.47,16.03,10.74,10.64,21.62,21.13,32.5,31.62,13.96,13.47,28.14,26.72,41.92,40.37,13.88,13.75,20.5,30.31,16.52,49.92-1.06,5.22-4.31,9.97-6.29,15.04-.71,1.81-1.2,4.07-.78,5.9,1.32,5.76.67,10.37-3.92,14.87-22.78,22.33-45.26,44.95-67.86,67.46-4.52,4.5-9.5,7.23-15.95,3.69-.57-.31-1.84-.29-2.21.11-2.34,2.52-5.06,4.44-5.1,8.8-.23,21.1-8.36,38.72-24.18,52.85-8.61,7.69-16.91,15.72-25.24,23.72-6.02,5.78-12.2,6.28-18.76.92-8.36-6.82-12.7-15.55-12.03-26.51.04-.69,0-1.38,0-2.07-.27-.16-.54-.33-.81-.49Z"/>
      <path class="cls-1" d="M62.48,259.69c.27-4.93-3.68-6.4-6.97-8.02-14.3-7.04-24.38-26.1-21.73-41.69,1.65-9.67,6.18-17.98,12.72-25.13,32.47-35.48,65.23-70.68,97.41-106.42,10.06-11.17,22.77-18.23,34.92-26.28,9.92-6.57,20.44-12.31,29.91-19.45,8.03-6.05,14.97-13.56,22.34-20.47,3.3-3.09,6.6-6.2,9.7-9.49,2.76-2.92,5.99-3.21,9.5-2.22,6.67,1.88,12.05,8.72,12.16,15.61.02,1.41-.47,3.25-1.42,4.21-11.56,11.64-22.46,24.14-35.14,34.42-12.51,10.14-26.53,18.57-40.5,26.69-12.75,7.41-21.54,18.56-30.98,29.2-28.19,31.79-56.29,63.66-84.43,95.5-.95,1.07-1.94,2.11-2.77,3.27-3.63,5.07-2.35,9.46,3.33,12.05,12.77,5.81,22.54,14.62,25.46,28.79,1.24,6,1.05,12.62-.04,18.69-1.99,11.11-7.88,20.49-15.17,29.08-12.4,14.6-24.55,29.4-36.79,44.13-.6.72-1.43,1.58-1.44,2.39-.11,5.7-4.61,8.58-7.73,12.32-.54.64-1.69,1.24-2.46,1.13-4.54-.6-9.42-.57-13.49-2.35-6.94-3.03-12.2-8.56-16.55-14.77-3.45-4.92-3.04-8.7,1.11-13.07,7.54-7.95,15.01-15.95,22.57-23.87,9.85-10.33,19.8-20.56,29.62-30.91,3.55-3.74,6.65-7.81,6.85-13.32Z"/>
    </g>
  </g>
</svg>