<?xml version="1.0" encoding="UTF-8"?>
<svg id="Camada_2" data-name="Camada 2" xmlns="http://www.w3.org/2000/svg" viewBox="0 0 419.46 220.87">
  <defs>
    <style>
      .cls-1 {
        fill: #fff;
        stroke-width: 0px;
      }
    </style>
  </defs>
  <g id="Camada_1-2" data-name="Camada 1">
    <g>
      <path class="cls-1" d="M274.13,220.33c-61.61.99-123.33,1.54-184.51-7.02-20.08-2.81-39.89-8.05-59.56-13.19-16.26-4.25-23.85-16.33-26.31-32.58C-2.99,122.96.09,78.62,7.22,34.5,11.15,10.21,30.67-3.36,54.22.72c79.13,13.68,158.21,27.63,237.31,41.46,25.41,4.44,50.78,9.07,76.26,13.06,10.15,1.59,16.48,6.78,20.58,15.86,16.45,36.34,25.51,74.67,30.75,114,.7,5.25.26,10.88-.81,16.1-2.42,11.75-7.36,16.17-19.32,17.84-6.16.86-12.44,1.23-18.67,1.25-35.4.11-70.79.06-106.19.06ZM176.9,40.46c37.03,47.73,21.87,102.93-13.81,128.21-35.95,25.46-86.28,19.18-114.71-15.2-15.14-18.31-21.05-39.24-19.14-62.74,2.36-29.15,18.07-50.04,43.12-67.39-6.93-1.31-11.74-1.95-16.41-3.14-21.15-5.37-29.93,7.46-31.58,23.28-1.25,12.01-2.73,23.99-3.9,36.01-2.96,30.38,1.4,58.08,23.14,82.25,15,16.69,32.3,27.54,53.75,30.85,24.97,3.86,50.19,6.67,75.41,8.23,65.34,4.04,130.73,2.89,196.07-.56,12.43-.66,20.18-8.24,20.54-20.62.88-30.58-3.61-60.56-10.74-90.25-2.81-11.73-9.82-17.25-21.57-18.95-23.86-3.46-47.61-7.66-71.39-11.65-35.66-5.98-71.31-12.03-108.76-18.35ZM112.7,165.33c37.21.26,67.01-28.92,67.2-65.78.18-36.57-28.94-65.8-64.74-67.24-30.68-1.24-67.65,24.31-67.78,66.62-.11,36.2,29.32,66.14,65.32,66.39Z"/>
      <path class="cls-1" d="M300.94,193.17c-27.76-.1-50.75-22.97-51.01-50.76-.27-28.01,23.32-51.89,51.39-52.01,28.47-.13,51.16,22.81,51.15,51.71,0,28.88-22.49,51.17-51.53,51.07ZM332.59,156.9c1.14-10.47,3.89-22.6-4.06-33.29-7.87-10.58-18.22-15.32-31.45-13.95-17.69,1.84-30.14,18.69-27.72,37.82,2.31,18.26,19.64,29.34,41.14,26.26,1.57,1.49,3.17,3.01,3.12,2.97,6.22-6.49,11.98-12.5,18.98-19.81Z"/>
      <path class="cls-1" d="M219.76,113.37c.56,2.79,1.12,5.57,1.5,7.42,11.46,24.38,15.72,51.92,36.68,70.75-.44.93-.89,1.86-1.33,2.79-30.21-1.36-60.41-2.71-92.25-4.14,12.35-13.06,24.5-23.23,33.15-35.8,8.46-12.31,13.35-27.07,19.81-40.75l2.45-.26Z"/>
      <path class="cls-1" d="M351.51,93.14c-2.32,0-5.23.38-8-.06-42.6-6.76-85.2-13.47-127.75-20.56-11.08-1.85-12.44-8-3.68-17.83,17.72,2.72,36.12,5.47,54.49,8.37,25.81,4.07,51.59,8.25,77.39,12.38,12.82,2.06,14.9,6.43,7.54,17.7Z"/>
      <path class="cls-1" d="M121.79,89.38c-4.36-.87-8.72-1.74-14.39-2.87-1.12-4.15-2.36-8.74-3.56-13.2,12.69-5.51,24.79-2.4,32.57,7.73,8.51,11.08,8.21,26.28-.73,36.9-8.31,9.87-22.36,12.88-34.1,7.3-12.57-5.98-18.33-17.66-15.38-32.26,3.56.75,7.11,1.5,10.93,2.3,1.6,4.82,3.08,9.29,5.32,16.04,1.87-6.67,3.04-10.86,4.38-15.63,5.03-1.38,10.13-2.78,15.23-4.18-.09-.71-.18-1.43-.27-2.14Z"/>
      <path class="cls-1" d="M58.01,98.52c.24-32.3,24.95-56.77,55.74-56.95,29.23-.17,54.78,24.33,55.31,55.23-11.35-25.96-26.41-44.77-55.86-44.42-29.95.36-44.98,19.38-55.18,46.14Z"/>
      <path class="cls-1" d="M99.57,76.33c-.49,3.07-.99,6.14-1.59,9.89-3.36.53-6.35.99-12.32,1.93,5-5.91,8.15-9.64,11.31-13.37.87.52,1.74,1.03,2.61,1.55Z"/>
      <path class="cls-1" d="M308.86,153.38c-4.43,1.33-8.58,2.58-15.58,4.68,7.15,2.17,11.53,3.51,16.56,5.03-9.11,6.53-20.7,4.23-28.14-4.76-8.24-9.96-7.23-26.05,2.18-35,9.67-9.19,23.57-9.59,33.88-.97,10.33,8.63,12.04,20.72,3.59,32.3-2.28-4.15-4.27-7.77-7.07-12.88-2.18,4.67-3.81,8.16-5.41,11.6Z"/>
    </g>
  </g>
</svg>