<?xml version="1.0" encoding="UTF-8"?>
<svg id="Camada_2" data-name="Camada 2" xmlns="http://www.w3.org/2000/svg" viewBox="0 0 498.31 278">
  <defs>
    <style>
      .cls-1 {
        fill: #fff;
        stroke-width: 0px;
      }
    </style>
  </defs>
  <g id="Camada_1-2" data-name="Camada 1">
    <g>
      <path class="cls-1" d="M0,70.36c2.31-4.7,5.6-8.54,9.31-12.11,2.83-2.73,6.55-3.42,9.95-4.75,4.23-1.65,9.05-1.64,12.91-4.43,5.34.27,9.73-3.34,14.95-3.64,1.37-.08,2.73-.66,4.06-1.1,4.48-1.49,8.86-3.69,13.46-4.34,4.83-.68,8.92-3.76,13.87-3.59,6.56-3.08,13.73-4.24,20.59-6.35,5.01-1.54,10.14-3.05,15.4-4.05,3.89-.74,7.88-1.88,11.63-3.31,3.82-1.46,7.82-2.04,11.69-3.23,5.9-1.8,12.07-2.76,17.9-4.73,3.86-1.3,7.86-1.88,11.69-3.24,2.81-1,5.77-1.59,8.68-2.31,6.17-1.53,12.37-2.95,18.52-4.57,4.36-1.15,8.77-1.82,13.24-2.28,1.57-.16,3.08-.77,4.64-1.09,1.56-.32,3.3.59,4.74-.99.44-.48,1.79-.16,2.72-.16,5.29,0,10.59-.12,15.87.05,2.5.08,4.99.67,7.47,1.09,2.3.39,4.89-1.09,6.93,1.1.18.19.73,0,1.11.03,4.38.37,8.8.49,13.13,1.19,5.96.98,11.92,2.1,17.73,3.73,5.26,1.48,10.64,2.47,15.85,4.13,2.01.64,4.04,1.22,6.07,1.78,3.39.94,6.79,1.86,10.2,2.75.53.14,1.34-.19,1.65.09,3.68,3.42,8.77,3.48,13.08,5.43,6.5,2.94,13.08,5.79,19.79,8.33,6.84,2.59,13.13,6.61,19.67,9.98,8.1,4.17,16.46,7.9,24.24,12.6,7.26,4.39,14.68,8.54,21.82,13.15,5.02,3.24,10.26,6.22,15.3,9.47,4.08,2.63,7.83,5.78,11.7,8.74,2.02,1.55,3.98,3.18,5.95,4.8,5.03,4.14,8.4,9.71,12.35,14.75,3.95,5.04,7.38,10.5,10.89,15.88,3.87,5.93,7.72,11.89,11.33,17.99,3.94,6.65,7.63,13.46,11.36,20.23,1.61,2.91,3.07,5.9,4.56,8.88.7,1.41.23,3.31-1.14,3.91-2.2.96-3.83,2.69-5.77,3.92-2.76,1.76-6.02,2.75-9.07,4.05-.8.34-1.68.52-2.47.88-5.88,2.7-12.17,4.33-18.09,6.98-5.89,2.64-12.17,4.39-18.09,6.96-4.32,1.88-8.72,3.73-13.08,5.35-4.4,1.63-8.7,3.65-13.28,4.97-5.15,1.47-9.74,4.83-14.86,6.48-10.02,3.22-19.2,8.42-29.22,11.62-5.95,1.9-11.34,5.5-17.23,7.62-7.9,2.85-15.36,6.74-23.36,9.32-4.3,1.39-8.32,3.65-12.6,5.15-5.44,1.91-10.6,4.5-16.07,6.41-4.85,1.7-9.64,4.06-14.49,6.03-8.9,3.61-17.38,8.25-26.69,10.85-5.12,3.5-11.18,4.95-16.7,7.59-2.52,1.2-5.13,2.21-7.74,3.2-.82.31-1.77.3-2.67.4-.42.05-7.03-1.86-7.67-2-7.84-1.81-13.57-7.42-20.32-11.19-13.05-7.29-24.83-16.5-37.53-24.31-5.2-3.2-9.8-7.37-14.74-11-4.33-3.18-8.77-6.21-13.13-9.35-2.49-1.79-4.92-3.65-7.36-5.5-6.04-4.58-12.08-9.18-18.1-13.78-.58-.45-1.11-.97-1.67-1.45-6.37-5.61-12.5-11.52-19.2-16.72-3.7-2.87-6.53-6.7-10.34-9.23-5.91-3.93-9.57-10.31-15.82-13.74-.6-2.67-3.78-2.82-4.92-5.23-.88-1.87-2.97-3.11-4.38-4.81-1.35-1.64-2.8-3.47-4.5-4.95-1.85-1.6-3.5-3.44-5.24-5.18-1.74-1.74-3.58-3.38-5.19-5.23-5.52-6.33-11.13-12.57-16.17-19.33-2.7-3.62-5.61-7.11-8.34-10.74-5.35-7.12-10.46-14.36-14.42-22.39-1.87-3.79-4.06-7.41-6.32-11.51ZM269.99,178.19c-.76.25-1.53.47-2.25.8-.11.05-.07.88.09.96,1.22.58,2.55,1.4,3.29-.62,2.48.39,3.11-1.71,5.17-3.32-3.13-.2-5.01.21-6.3,2.18ZM369.21,137.07c-3.52-2.7-3.84,2.36-6.21,1.41,0,.19-.07.5.01.54,1,.55,2.02,1.05,3.07,1.59,1-1.13,1.94-2.2-8.86-2.86,1.2.76,2.09,1.77,2.93,1.74.97-.04,2.56-.88,2.69-1.59.21-1.16,2.28-2.81-.48-3.9-1.65,1.2-3.39,2.46,6.84,3.06ZM391.36,111.26c-3.09.51-3.61,3.57-6.3,5.54h4.67c.5-.85.82-2.06,1.6-2.56,1.73-1.13.06-2,.04-2.28,1.29-3.57,2.68-.21,3.91-.71.93-1.46,1.81-2.85,2.73-4.31-4.76.22-5.7.84-6.66,4.32ZM283.56,171.35c-3.63-2.15-7.05-1.04-9,3.02,3.96,1.79,5.68-3.14,9.04-2.83-.78,1.14-1.64,2.4-2.82,4.13h3.84c1.72-1.72,2.96-2.96,4.13-4.13-1.5,0-3.32,0-5.18-.19ZM332.84,154.69c3.08,1.45,4.85.81,6.59-1.01.68-.72,1.29-1.49.81-2.06-.45-.53-1.85-.89-2.41-.58-1.61.89-3.01,2.16,2.07,2.12,1.06,1.63,2.56,1.57,3.41.91,1.12-.88,3.26-.87,3.18-3.03,2.97.49,4.07-2.09,5.82-3.58.17-.15.17-.5.29-.91h-4.31c-1.22,1.7-2.37,3.82-4.03,5.41-.87.84-2.62.76-11.41,2.73ZM383.49,138.19c-.07-.29-.15-.58-.22-.86-1.77.12-3.57.1-5.28.46-.46.1-1.63.52-1.43,1.83.23,1.5,1.35,1.34,2.03,1.08,1.7-.67,3.28-1.65-1.41-2.77-.82-.63-1.63-1.27-2.27-1.76-2.64.4-3.78,2.11-4.85,3.82-.51.82-.22,1.93-1.91,2.07-1.04.08-1.95,1.75-3.66,3.44,3.28-.79,5.43-1.3,7.62-1.82-.41-.45-.77-.84-1.41-1.54,2.46-.57,2.77-4.14,12.8-3.93ZM402.7,106.73c-1.09.52-2.9.81-3.14,1.6-1.37,4.33-5.73,5.93-8.3,9.5,1.74.11,4.06,1.12,4.45-.58.55-2.42,2.92-1.1,3.59-2.58-.53,1.86-2.43,4.72-3.65,5.68-1.5,1.18-3.52,2.03-3.16,4.53-1.46.54-2.91,1.08-4.4,1.63-.77,2.49-1.68,4.8-4.62,5.84-1.11.39-1.79,1.99-2.7,3.09,2.26,1.53,3.47.56,4.74-.66.51-.49,1.38-.62,2.65-1.14-1.03,1.98-1.68,3.25-2.28,4.4,2.17,2.78,1.6-3.36,3.63-.83,1.38-1.08,2.75-2.16,4.13-3.25.41.22.82.6,1.24.62.33.02.68-.4,1.03-.62,3.56.02,5.44-2.97,7.82-4.75,2.21,1.6,3.52.67,4.66-.92,2.39-.85,4.39-2.29,5.94-4.27,1.5-1.92,2.85-3.96,4.42-6.04.94-.89,2.01-1.89,3.29-3.09h-3.29c0,1.1,0,2.14-.15,3.19-1.13-.38-2.27-.76-3.4-1.13.12-.69,0-1.67.42-2.01.89-.74,2.05-1.15,3.52-1.9-2.16-1.55-3.88-2.79-5.24-3.76-1.27.34-2.25.61-3.23.87-.97-.75-1.95-1.5-2.81-2.17-1.57,1.39-3.73,1.44-4.31,3.94-.3,1.29-1.89,3.26-4.23,2.77-.35-.59-.7-1.19-.78-1.33,1.81-1.66,3.57-3.26,5.1-4.66-.47-.99-.69-1.47-.92-1.97.72-.22,1.65-.82,2.11-.57.86.47,1.22.66,1.27-.48.01-.32-.21-.66-.34-1-1.73-.37-3.46-.74-3.05,2.07ZM228.36,221.21c1.08-.77,1.99-1.91,3.07-2.12,8.16-1.59,15.45-5.65,23.22-8.33,5.19-1.79,10.31-4.32,15.49-6.33,5.35-2.09,10.43-5.13,16.29-5.83,7.73-4.18,16.15-6.62,24.36-9.59,5.75-2.08,11.41-4.39,17.22-6.33,9.11-3.05,17.87-7.01,26.82-10.51.65-.25,1.29-.54,1.94-.79,8.19-3.03,16.48-5.82,24.55-9.15,6.95-2.87,14.17-5,21.11-7.88,7.1-2.95,14.52-5.04,21.55-8.18,4.14-1.84,8.44-3.33,12.73-5,.17-4.79-.64-9.82,1.28-14.46-2.29-1.43-4.37-2.73-6.45-4.03-1.34,1.69-3.8,3.75-5.88,4.73-4.9,2.3-9.88,4.45-14.73,6.85-3.47,1.72-7,3.21-10.73,4.2-1.96.52-3.58,2.83-5.97,1.19-2.03,3.13-6.22,2.56-8.68,5.06-.43.44-1.77,0-3.3-.05-.63.49-1.42,2.02-3.52,1.85-1.38-.11-2.9.5-4.23,1.09-1.11.5-2.78,2.2-2.92,2.07-2.02-1.99-2.24.85-3.33,1.09-1.23.28-2.58.13-3.78.49-.95.28-2.45,1.01-2.49,1.61-.16,2.47-1.9,1.36-2.92,1.41-.6.03-.88-.66-2.05-.4-3.93.85-6.01,3.87-8.26,5.8-2.52-.38-4.63-.7-5.94-.9-2.14,2.36-3.82,4.21-5.5,6.07-2.04-1.27-3.75-2.3-5.65-.34-.23.23-1.49-.54-2.29-.85-.62,1.33-1.29,2.75-1.95,4.18-3.19-1.4-3.27-1.38-4.78,1.47h-5.25c-1.21,1.41-1.83,2.7-2.82,3.09-.71.28-1.9-.64-2.99-1.06-1.4.95-2.31,2.67-4.63,2.47-1.37-.12-3.58.76-4.15,1.86-1.39,2.63-2.81-.41-4.09.44-5.65,3.74-12.16,5.4-18.57,7.1-2.78.73-4.61,3.77-7.87,2.94-4.33,1.89-9.39,1.77-13.33,4.78-.54.41-1.24.64-1.89.89-4.25,1.59-8.53,3.12-12.77,4.75-3.58,1.38-7.01,3.58-10.7,4.15-4.19.64-7.33,3.32-11.53,3.95,2.2,5.78,4.25,11.17,6.31,16.58ZM161.68,154.49l.65-.92c-5.03-3.4-10.34-6.46-15-10.31-4.46-3.69-9.92-5.63-14.36-9.25-.47-.39-1.65.09-3.22.23,5.81,3.98,10.81,7.77,16.17,10.98,5.22,3.13,10.1,6.91,15.76,9.28ZM345,138.26c-3.3.76-5.62,2.05-6.87,4.53-.62,1.24-1.19,1.97-2.46,2.58-1.26.61-2.19,1.87-3.62,3.18h5.79c.01-2.25,1.4-2.35,2.97-2.09.2.03.33.46.49.71-.3.12-1.84,2.07-1.89,2.5h3.42c1.55-1.36,2.93-2.58,4.98-4.38-2.01,0-3.29.04-4.55-.01-1.38-.06-2.75-.2-4.12-.3-.19-.37-.37-.74-.56-1.12,2.56-1.08,5.91-1.33,6.43-5.6ZM380.97,129.01c4.14.23,5.25-.73,6.18-5.14,2.88.14,4.54-1.43,5.67-4.39h-4.44c-1.07,1.77-2.15,3.55-3.36,5.54h-2.41c-.58,1.42-1.08,2.65-1.63,4ZM376.29,130.96c-.23-.64-.54-1.51-1.2-3.38,1.27,1.08,1.66,1.4,2.31,1.96,1.06-1.18,2.26-2.33,3.22-3.65.36-.5.19-1.4.3-2.53-2.97,1.36-5.83,2.1-6.47,5.06-.33,1.53-.58,1.9-2.18,2.24-2.87.6-2.96,1.83-.85,4.27,1.66-1.36,3.33-2.71,4.87-3.97ZM215.54,186.68c0,1-.13,1.95.03,2.86.3,1.69,1.2,1.46,1.75.97-.07-1.33-.12-2.24-.17-3.15.79.24,1.59.48,2.35.71,1.18-.73,2.61-1.42,3.8-2.41.68-.57.98-1.6,1.67-2.8h-5.47c-1.32,1.27-2.65,2.56-3.95,3.81ZM214.52,180.05c4.5,1.8,6.99-1.46,10.2-3.6-3.95-2.64-4.8-2.31-10.2,3.6ZM254.76,160.25c.16.35.31.7.47,1.05-1.14.53-2.27,1.05-3.32,1.54,1.52,2.16,3.36,1.87,4.46,1.7,1.72-1.68,3-2.94,4.38-4.29h-5.98ZM231.37,170.39c-1.7-.43-3.55-1.5-5.01-1.11-1.62.43-2.88,2.18-4.65,3.65,1.99.63,3.41,1.07,4.74,1.49,1.44-1.19,2.96-2.43,4.92-4.03ZM264.24,160.2c-1.49,1.3-3.38,2.94-5.23,4.62-.11.1.04.5.08.79h4.02c1.75-1.72,3.01-2.97,4.2-4.14-.57-.24-1.36-.56-3.08-1.27ZM222.65,181.18q5.01.32,10.15-3.88h-6.86c-.89,1.05-1.82,2.14-3.29,3.88ZM243.73,171.15c-1.98,1.41-3.79,2.71-5.78,4.13,1.65.78,2.88,1.38,3.88,1.85,1.9-1.54,3.55-2.89,5.12-4.16-.72-.41-1.74-.98-3.22-1.82ZM239.1,171.74c-3.18-2.47-4.27-2.17-8.62,2.67,1.3.38,2.61.75,3.95,1.14,1.42-1.16,3.07-2.51,4.67-3.81ZM235.55,182.57c1.09-1.09,2.3-2.27,3.45-3.49.11-.12-.05-.51-.09-.76h-3.76c-1.88,1.88-3.13,3.13-4.26,4.25h4.65ZM268.89,160.13c2.04-1.33,4.69-1.73,5.33-4.48h-4.94c-1.72,1.42-2.65,2.18-3.52,2.9.9.46,1.83.93,3.13,1.58ZM294.76,171.5c3.88-.69,6.49-2.44,9.19-4.11-1.16-.58-2.35-1.18-3.49-1.76-2.13,1.54-5.07,2.09-5.7,5.86ZM245.38,165c-4.26-1.42-6.14,1.34-8.88,3.39q5.69,1.08,8.88-3.39ZM277.18,163.62c-1.01,1.01-2.21,2.19-3.38,3.41-.14.15-.06.51-.09.85h4.07c1.78-1.75,3.05-3.01,4.32-4.25h-4.92ZM222.76,188.04c4.05.86,6.55.21,8.61-1.92.42-.44,1.22-1.06,1.12-1.36-.69-2.06-1.28.52-1.65.14-2.39-2.47-3.85-.56-5.46,1.01-.64.63-1.4,1.14-2.62,2.13ZM279.22,155.17c-1.98,1.34-3.99,2.69-5.87,3.96,1.13,1.94,2.6,2.8,4.25,1.7,1.43-.94,2.51-2.41,3.75-3.65-.78-.73-1.31-1.23-2.13-2.01ZM298.62,150.96c2.27,0,3.54-.06,4.8.01,1.56.09,2.16-.98,2.89-2.05.55-.81,1.31-1.48,1.94-2.17-.9-.42-1.8-.85-2.98-1.41-1.86,1.57-3.86,3.26-6.65,5.62ZM251.09,172.83c-1.81,1.05-3.79,2.13-5.68,3.35-.3.19-.47,1.09-.28,1.43.19.34,1.29.6,1.32.54.83-1.58,2.28.22,3.29-.66,1.19-1.03,2.57-1.84,3.83-2.78.19-.14.22-.49.32-.74-.84-.34-1.63-.67-2.8-1.15ZM290.88,156.88c1.35-1.91,2.63-3.71,4.06-5.74h-4.14c-1.16,1.16-2.48,2.48-3.82,3.82,1.25.61,2.48,1.22,3.9,1.92ZM253.19,166.13q-4.57-.36-7.74,3.97c3.32.56,6.24.28,7.74-3.97ZM286.53,156.72q-6.06,2.82-5.73,5.58c1-2.27,1.96.38,2.39.21,1.77-1.78,3.17-3.18,4.56-4.58-.04-.04-.43-.43-1.22-1.22ZM223.23,194.78c5.61.51,6.75.04,10.19-4.06-4.1-.45-7,1.64-10.19,4.06ZM283.95,150.08c-1.84,1.84-3.08,3.08-4.15,4.15h4.67c.9-1.12,1.89-2.34,3.34-4.15h-3.86ZM301.38,145.12c-3.42.55-6.48-1.16-7.69,2.77,3.51,2.99,3.58,2.97,7.69-2.77ZM322.05,140.63c.68-2.42,3.17-3.25,4.94-5.34h-5.88c-.8,1.41-1.53,2.69-2.25,3.96,1.07.46,1.86.8,3.19,1.37ZM265.19,172.38c.9-1.12,1.89-2.34,3.27-4.06-4.45-.86-6.51,1.36-9.02,4.06h5.75ZM261.1,168.57c-1.3-.64-2.22-1.1-3.04-1.51-1.74.9-3.52,1.83-5.96,3.1,1.73.98,2.8,1.58,3.94,2.22,1.66-1.25,3.29-2.49,5.06-3.82ZM306.98,158.18c4.54,2.18,6.06-1.25,8.8-3.58h-5.36c-1.38,1.43-2.34,2.42-3.45,3.58ZM274.57,162.25c-2.7.43-5.76-1.27-6.95,2.58.69.85,1.26,1.56,1.92,2.38,1.89-1.54,4.89-1.3,5.03-4.96ZM307.77,166.62c2.7-1.4,6.67-1.06,7.33-5.48-3.68.24-6.39,1.59-7.33,5.48ZM226.21,189.64c-4.13-.29-7.07.14-8.73,4.18h4.56l4.18-4.18ZM331.89,141.69h3.33c1.4-1.43,2.36-2.4,3.19-3.25q-2.93-1.84-6.52,3.25ZM358.86,125.55c1.38-1.15,2.78-2.31,4.06-3.39-1.08-1.79-2.62-2.59-4.17-1.4-1.11.85-1.66,2.44-2.48,3.72.98.4,1.78.73,2.59,1.06ZM292.86,156.44h5.12c1.29-1.34,2.23-2.32,3.15-3.27-.2-.19-.74-.67-1.57-1.43-1.97,1.38-3.91,2.74-6.7,4.7ZM309.96,145.49c1.45-1.6,2.74-3,4.01-4.4-3.58-2.35-5.54.31-7.66,2.55,1.09.56,2.17,1.11,3.64,1.86ZM347.7,139.75c-.92,1.45-1.78,2.81-2.56,4.03,4.21,1.72,5.39-1.77,8.25-4.03h-5.69ZM271.88,173.46c.47-.47,1.21-1.08,1.78-1.82.58-.75,1.77-1.12,1.81-2.29-3.6-1.32-5.4,1.49-7.73,2.9-.11.07.1.67.19,1.21h3.95ZM297.75,164.29c1.75-1.37,3.35-2.63,4.93-3.88-1.11-.51-2.21-1.02-3.61-1.67-.67.67-1.39,1.49-2.22,2.19-.67.56-1.47.96-2.51,1.62,1.52.77,2.44,1.24,3.41,1.74ZM241.43,184.22c2.47-1.57,4.67-2.96,7.35-4.66-4.03-.62-7.04-.12-9.4,2.62.58.58,1.11,1.11,2.05,2.05ZM359.82,133.42c1.46-1.75,2.48-2.98,3.3-3.96-.72-1.06-1.19-1.77-1.66-2.47-2.02,1.51-3.67,2.75-5.79,4.33,1.17.19,1.75.15,2.17.39.59.34,1.05.88,1.99,1.71ZM339.46,130.76q-5.3-.22-8.11,2.73c1.25.6,2.49,1.19,3.69,1.77,1.47-1.5,2.78-2.83,4.42-4.5ZM308.57,160.65c-1.39-1.15-2.58-.87-3.84.33-1.22,1.17-2.6,2.16-3.9,3.21q5.41.5,7.74-3.54ZM288.8,167.58c.47,1.41.78,2.33,1.08,3.23,2.43-1.9,4.23-3.3,6.1-4.77-.37-.34-1.27-1.34-1.39-1.25-1.95,1.4-5.17.61-5.79,2.78ZM375.85,115.99h-4.73c.26.32.51.64.77.97-1.21,1.21-2.42,2.42-3.28,3.28h2.99c1.29-1.29,2.48-2.48,4.25-4.25ZM289.47,164.95c-2.98-.89-5.39-.28-7.47,1.81-.22.22-.37.52-.55.78,1.27.6,2.51,1.19,3.69,1.74,1.49-1.49,2.81-2.81,4.33-4.33ZM268.57,174.95c-3.59-1.02-5.44,2.64-8.38,3.41-.16.04-.35.24-.37.39-.01.12.22.26.43.49h3.97c1.75-1.72,3.02-2.98,4.35-4.28ZM383.09,118.06c-1.12,1.59-2.01,2.87-2.95,4.19,3.53,1.3,5.39-.56,7.18-3.89-1.85-.13-3.24-.23-4.24-.3ZM256.35,178.78c1.55-1.55,2.78-2.78,3.86-3.86h-4.46c-.91.88-1.85,1.78-2.87,2.76,1.4.44,2.71.86,3.47,1.1ZM307.62,150.56c.92.45,1.84.91,2.74,1.35,1.5-1.32,4.23-1.51,4.64-4.22-3.05-.42-5.88-.44-7.37,2.86ZM262.33,159.2c1.11-1.7,2.02-3.1,3.27-5-3.21.62-5.94.91-8.27,3.14,1.82.68,3.45,1.28,5,1.86ZM380.98,117.33q-4.25-.35-6.27,3.94c3.55,1.01,5.36-.75,6.27-3.94ZM320.65,142.2c-.73-.36-1.65-.82-2.66-1.32-1.58,1.14-3.31,2.39-5.18,3.75,1.53.75,2.77,1.36,3.65,1.79,1.49-1.5,2.77-2.78,4.2-4.22ZM323.35,149.93c-1.45,1.22-2.4,2.03-3.37,2.84,1.21.59,2.46,1.19,2.72,1.32,1.76-1.76,3.1-3.1,4.16-4.16h-3.52ZM322.42,156.22c-3.69-2.47-5.44,1.26-8.01,2.01-.16.05-.06.96-.09,1.41,4.19,1.96,5.15-2.6,8.1-3.42ZM312.75,153.03h3.08c1.83-1.85,3.16-3.2,4.28-4.33-3.31-1.13-4.82,1.98-7.36,4.33ZM353.61,145.05c1.84-1.84,3.08-3.08,4.15-4.15h-2.83c-1.65,1.41-3.04,2.61-4.84,4.15h3.52ZM343.65,128.91c1.5.68,2.74,1.24,3.9,1.77,1.02-1.61,1.89-2.99,2.74-4.33-.51-.51-.9-.91-1.3-1.3-1.03.54-2.12.99-3.08,1.64-.75.52-1.33,1.29-2.27,2.22ZM285.93,146.93c1,1.53,2.29,2.27,4.13,1.54-.21-2.59,3.22-1.85,3.58-3.92-2.47-.13-5.69.86-7.71,2.38ZM240.94,185.34c-3.69-.82-6.23.04-8.39,2.55.87.77,1.53,1.35,2.14,1.88,2.16-1.53,4-2.84,6.25-4.43ZM353.24,134.05c-.49,1-.95,1.92-1.47,2.99.74.51,1.6,1.11,1.62,1.12,1.7-1.7,3.05-3.05,4.11-4.11h-4.26ZM332.81,136.79c-4.33-1.72-5.06,1.99-7.5,3.5,3.8,1.32,5.68-.35,7.5-3.5ZM324.73,141.98c-1.47,1.14-3.17,2.45-5.02,3.88,1.37.65,2.27,1.08,3.03,1.45,1.63-1.32,3.25-2.64,4.8-3.9-.7-.35-1.62-.82-2.81-1.43ZM238.23,164.01c-2.26-.14-6.99,1.79-9.07,3.79h5.28c1.14-1.14,2.46-2.46,3.79-3.79ZM293.31,157.84c-2.07,1.31-4.13,2.63-6.38,4.06,1.62.44,2.91.79,4.39,1.19.92-.92,2.1-2.1,3.28-3.28.11-.11.19-.26.29-.39-.39-.39-.79-.79-1.58-1.58ZM244.1,161.65c1.57-.17,2.29,2.91,4.67,1.14,1.45-1.08,2.25-2.11,2.88-3.6-3.19-1.14-4.92,1.86-7.55,2.47ZM307.42,153.96q-2.89-.74-6.68,3.37,4.31.44,6.68-3.37ZM350.59,130.15c3.22,1.28,5.04-.38,6.76-2.59-.86-.61-1.72-1.21-2.61-1.84-1.48,1.59-2.75,2.94-4.15,4.43ZM369.1,126.95h2.43c1.41-1.41,2.37-2.37,3.31-3.31-.33-.25-1.02-.78-1.54-1.19-1.58,1.69-2.9,3.1-4.2,4.49ZM327.22,156.72c-2.37-.84-4.49.25-5.56,2.05.42,1.16.75,2.07.93,2.57,1.85-1.85,3.27-3.27,4.62-4.62ZM331.74,142.96c-1.68,1.3-3.37,2.61-5.22,4.04,1.36.65,2.26,1.09,2.94,1.41,1.35-1.23,2.7-2.46,4.04-3.68-.45-.45-.84-.84-1.76-1.76ZM357.66,146.19c.98-.85,1.77-.85,2.56.19.66-.66,1.32-1.31,1.97-1.97.66-.67,1.31-1.34,2.3-2.36-5.28-.05-5.4.03-6.83,4.14ZM346.47,137.45c1.94-1.94,3.29-3.29,4.51-4.51-2.55-.97-4.44.59-5.51,2,.4,1,.76,1.89,1,2.5ZM216.84,174.85c-2.53.63-4.78-3-6.65.13.44,1.53.81,2.84,1.2,4.2,1.63-1.3,3.25-2.58,5.45-4.33ZM343.45,131.98c-2.85-1.33-3.81,1.22-5.43,2.6,1.33.64,2.59,1.25,3.74,1.8,1.56-1.28,2.71-2.46,1.69-4.4ZM362.71,132.14c1.3.64,2.32,1.13,2.78,1.36,1.45-1.43,2.7-2.66,3.83-3.78-.29-.37-.72-.94-1.16-1.5-1.86,1.34-3.59,2.58-5.46,3.92ZM254.26,180.92c-4.01-1.83-5.42,1.66-7.87,2.77h4.91c.92-.86,1.88-1.76,2.96-2.77ZM253.14,184.59q3.36.28,7.5-2.87c-3.09-.39-5.95-.48-7.5,2.87ZM380.11,115.41c2.16-1.27,5.49-.42,6.5-3.95-3.42-.81-5.55.5-6.5,3.95ZM272.29,151.56q3.19,2.46,6.48-1.46c-2.52-1.09-4.44.44-6.48,1.46ZM333.97,151.01c-4.14-1.73-4.78,2.52-7.1,3.15h4.01c.71-.72,1.62-1.66,3.08-3.15ZM301.91,143.66c1.43-1.43,2.69-2.69,4.21-4.21-2.73.97-5.27,1.88-8.8,3.14,1.67.25,2.34.28,2.98.45.66.18,1.29.49,1.61.62ZM247.43,186.32h-4.3c-1.29,1.34-2.23,2.32-2.74,2.85,1.03-.14,5.18-1.68,7.04-2.85ZM367.67,123.11c-3.32-1.55-4.18.98-6.05,2.53,2.87.59,5.17.99,6.05-2.53ZM310.96,137.9q4.91.54,8.15-3.33c-2.97,1.21-5.11,2.09-8.15,3.33ZM418.94,122.73c2.71-.47,3.57-2.78,5.76-4.39q-3.96.04-5.76,4.39ZM377.92,135c1.91-1.68,2.97-2.59,3.99-3.55.12-.11-.02-.5-.06-.93-1.38.07-2.75.14-3.93.2v4.28ZM352.26,150.12c3.16-.85,5.2-1.4,7.82-2.1q-5.1-.48-7.82,2.1ZM221.23,170.08c-2.08.67-3.82,1.23-5.56,1.79,2.01.37,4.27,1.55,5.56-1.79ZM216.31,181.77h-3.07c.07,1.19.13,2.19.18,3.12,1.07-1.15,1.98-2.14,2.89-3.12ZM220.06,198.21c2.14.86,3.5.33,4.55-1.66-1.92-.56-3.33-.23-4.55,1.66ZM329.58,131.53c-1.35.57-2.71,1.15-4.15,1.76,2.14,1.68,3.41.34,4.15-1.76Z"/>
      <path class="cls-1" d="M393.63,133.95c-.29-.38-.56-1.05-.89-1.08-1.59-.18-3.2-.19-6.07-.31,2.94-2.29,4.95-3.85,6.95-5.41-.37,1.34-.74,2.68-1.17,4.27,1.52.04,3.13,1.36,3.66-1.52.21-1.12,1.64-2.01,3.19-1.61.14,1.14-.14,2.03-1.08,2.84-.91.79-1.56,1.87-2.33,2.83-.34.22-.7.64-1.03.62-.42-.02-.83-.4-1.24-.62Z"/>
      <path class="cls-1" d="M404.97,122.61c-.93,1.49-1.86,2.99-2.78,4.48-.68,1.09-1.69,1.36-2.89,1.19.77-3.12,2.56-4.9,5.67-5.67Z"/>
      <path class="cls-1" d="M410.64,116.93c-.51.7-1.12,1.35-1.51,2.12-.37.75-.52,1.61-.76,2.42-1.13.38-2.27.76-3.4,1.13.77-3.12,2.56-4.9,5.67-5.67Z"/>
      <path class="cls-1" d="M408.18,128.57c-1.4-.44-2.89-.92-5.27-1.67,2.28-1.01,3.6-1.6,5.27-2.34v4.01Z"/>
      <path class="cls-1" d="M408.37,121.47c1.34-1.07,2.9-1.27,4.54-1.13.34.59.69,1.19,1.31,2.27-1.8,0-3.4.06-4.98-.05-.31-.02-.58-.7-.87-1.08Z"/>
      <path class="cls-1" d="M392.49,124.87c1.96.35,3.48-.26,4.73-1.84.52-.66,1.37-1.05,2.07-1.56.35.59.69,1.19.84,1.44-1.35,1.35-2.66,2.65-4.25,4.23h-2.26c-.38-.76-.76-1.51-1.13-2.27Z"/>
      <path class="cls-1" d="M399.3,121.47c-.22-.47-.44-.94-.69-1.47,1.35-1.21,2.76-2.59,4.31-3.78.49-.38,1.36-.29,2.05-.42-.77,3.12-2.56,4.9-5.67,5.67Z"/>
      <path class="cls-1" d="M410.64,110.13c-.09.99.49,2.24-1.41,2.32-1.38.06-.7,1.41-.86,2.21-1.13.38-2.27.76-3.4,1.13-.22-.47-.44-.94-.69-1.47,1.35-1.21,2.76-2.59,4.31-3.78.49-.38,1.36-.29,2.05-.42Z"/>
      <path class="cls-1" d="M408.37,114.67c2.09-.18,3.94-.67,4.78-2.98.12-.32,1.15-.32,2.12-.55-.29,3.44-2.1,4.91-4.62,5.8-.29-.38-.53-.8-.87-1.12-.43-.42-.93-.77-1.4-1.14Z"/>
    </g>
  </g>
</svg>