<?xml version="1.0" encoding="UTF-8"?>
<svg id="Camada_2" data-name="Camada 2" xmlns="http://www.w3.org/2000/svg" viewBox="0 0 361.56 328.29">
  <defs>
    <style>
      .cls-1 {
        fill: #fff;
        stroke-width: 0px;
      }
    </style>
  </defs>
  <g id="Camada_1-2" data-name="Camada 1">
    <g>
      <path class="cls-1" d="M275.28,43.57c-3.29,3.18-6.4,6.18-9.63,9.31-7.05.03-9.64,1.96-8.71,9.41-5.09,4.96-10.51,10.13-15.79,15.43-5.48,5.5-5.58,10.39-.6,16.2,2.49,2.91,5.01,5.8,7.37,8.82,5.45,6.96,7.94,7.8,16.77,4.99.84,1.6,1.78,3.28,2.6,5.02.84,1.8,1.56,3.66,2.26,5.33-3.88,7.38-3.05,9.76,4.43,12.23.7,2.63,1.45,5.48,2.33,8.78-8.25,2.97-9.67,8.99-8.44,16.85.81,5.2.8,10.74-.01,15.94-1.22,7.75.33,13.52,9.45,16.73-5.44,3.67-10.83,7.06-4.64,13.51-2.65,6.01-5.24,11.88-7.79,17.68-8.98-2.91-11.62-2.03-16.95,4.84-2.34,3.02-4.86,5.92-7.37,8.8-4.88,5.61-4.88,10.58.33,15.79,11.65,11.65,23.38,23.23,35.08,34.84-57.3,55.24-156.48,62.38-223.14.63C-17.6,219.45-16.25,111.37,48.77,47.39c67.66-66.58,169.59-58.49,226.51-3.83ZM63.98,164.11c-.11,54.83,44.55,99.89,99.18,100.07,56.08.19,101.14-44,101.31-99.37.18-55.71-44.51-100.92-99.87-101.02-55.55-.1-100.51,44.73-100.62,100.32ZM137.27,307.63c3.55-13.29,6.85-25.62,10.22-38.22-6.63-1.78-12.83-3.45-19.42-5.22-7.88,16.12-15.67,32.07-23.89,48.9,9.96,2.98,19.38,5.8,29.12,8.72,1.35-4.8,2.39-8.48,3.56-12.62,3.44,5.87,6.72,7.27,10.15,4.79,2.84-2.06,3.3-5.77,1.03-8.31-2.65-2.95-6.23-2.45-10.77,1.95ZM178.42,59.54c6.82,1.5,12.92,2.84,19.22,4.23,7.93-16.27,15.77-32.33,24-49.2-9.89-2.78-19.07-5.36-28.79-8.09-4.9,18.02-9.59,35.27-14.43,53.06ZM231.23,19.09c-8.03,16.49-15.81,32.44-23.78,48.81,2.58,1.23,4.74,2.27,7.15,3.42,8.47-16.15,16.72-31.87,25.15-47.95-2.93-1.48-5.42-2.73-8.52-4.29ZM111.33,256.08c-8.5,16.17-16.73,31.81-25.16,47.84,3.04,1.54,5.62,2.86,8.59,4.37,7.95-16.31,15.7-32.2,23.61-48.42-2.39-1.29-4.4-2.37-7.04-3.79ZM99.02,38.07c.01-.76.03-1.53.04-2.29-2.14-1.59-4.1-4.08-6.46-4.55-3.31-.66-5.56,1.79-5.94,5.25-.35,3.13,2.86,6.84,5.75,6.05,2.43-.66,4.42-2.9,6.61-4.45ZM251.71,63.83c-.01-.77-.03-1.55-.04-2.32-2.17-1.51-4.19-3.92-6.55-4.31-3.33-.56-5.48,1.96-5.73,5.42-.24,3.24,2.94,6.72,5.89,5.84,2.39-.72,4.31-3.02,6.44-4.63ZM234.29,263.9c.76,0,1.52-.01,2.28-.02,1.53-2.17,3.94-4.18,4.37-6.55.62-3.4-2.05-5.44-5.41-5.79-3.09-.32-6.75,3.04-5.88,5.88.73,2.4,3.03,4.33,4.64,6.47ZM68.85,271.97c0-.75,0-1.5,0-2.25-2.16-1.59-4.11-3.88-6.52-4.58-2.97-.85-6.2,2.69-5.87,5.85.36,3.39,2.53,6,5.82,5.44,2.37-.4,4.38-2.9,6.56-4.47ZM154.48,302.67c.73-.03,1.46-.05,2.19-.08,1.49-2.24,3.7-4.31,4.29-6.76.73-3.03-2.92-6.1-6.05-5.67-3.43.48-5.83,2.83-5.15,6.06.5,2.37,3.07,4.31,4.72,6.44ZM95.94,73.6l.03-2.24c-2.13-1.65-4.07-4.24-6.43-4.72-3.27-.65-5.5,1.91-5.95,5.29-.41,3.16,2.7,6.78,5.69,6.02,2.43-.62,4.45-2.84,6.65-4.35ZM179.91,26.77c.78-.01,1.56-.03,2.34-.04,1.49-2.18,3.86-4.21,4.25-6.57.54-3.28-1.86-5.51-5.35-5.76-3.24-.24-6.57,2.86-5.71,5.9.67,2.39,2.92,4.33,4.47,6.47ZM92.36,47.98c-.77-.03-1.55-.07-2.32-.1-1.63,2.09-3.95,3.96-4.7,6.33-.95,3.01,2.32,6.25,5.53,6.13,3.52-.14,6-2.32,5.57-5.61-.31-2.39-2.65-4.51-4.08-6.75ZM34.17,205.18c.77.01,1.55.03,2.32.04,1.58-2.11,4.05-4.03,4.52-6.36.67-3.32-1.75-5.57-5.26-5.77-3.81-.21-6.4,2.08-5.98,5.59.27,2.31,2.85,4.34,4.4,6.49ZM90.39,261.67c0,.76,0,1.52,0,2.27,2.14,1.58,4.14,4.17,6.46,4.49,3.53.48,5.79-2.14,5.64-5.92-.14-3.52-2.41-5.95-5.7-5.35-2.33.43-4.29,2.93-6.41,4.5ZM164.17,48.08c-.01-.77-.03-1.54-.04-2.32-2.16-1.52-4.2-4.05-6.51-4.34-3.55-.43-5.77,2.19-5.6,5.97.16,3.57,2.5,5.9,5.78,5.24,2.33-.47,4.26-2.97,6.37-4.57ZM165.9,289.07c.75,0,1.5,0,2.25,0,1.58-2.14,4.19-4.13,4.51-6.44.48-3.5-2.12-5.84-5.89-5.68-3.44.15-5.98,2.36-5.36,5.69.44,2.34,2.92,4.3,4.48,6.44ZM167.93,40.03c.77.03,1.54.05,2.31.08,1.63-2.07,4.18-3.93,4.68-6.25.7-3.25-1.6-5.65-5.14-5.86-3.75-.22-6.44,1.98-6.11,5.5.22,2.29,2.75,4.36,4.25,6.53ZM20.41,185.21c-.76-.03-1.52-.06-2.29-.09-1.62,2.08-4.11,3.97-4.64,6.3-.76,3.34,1.71,5.6,5.15,5.84,3.74.27,6.45-1.89,6.04-5.48-.27-2.33-2.76-4.39-4.26-6.58ZM50.63,212.26c.76,0,1.51,0,2.27,0,1.58-2.16,4.09-4.14,4.53-6.51.61-3.28-1.83-5.54-5.33-5.86-3.27-.3-6.71,2.71-5.9,5.77.64,2.42,2.9,4.41,4.43,6.59ZM80.52,260.18c-.76.03-1.52.05-2.28.08-1.48,2.2-3.95,4.29-4.21,6.62-.39,3.55,2.33,5.78,6.01,5.55,3.46-.21,5.81-2.64,5.08-5.92-.52-2.33-3-4.23-4.6-6.32ZM230.86,299.26c.76.03,1.51.06,2.27.08,1.62-2.1,3.92-3.98,4.7-6.35.94-2.86-2.5-6.11-5.69-5.98-3.53.15-5.96,2.4-5.52,5.62.32,2.36,2.75,4.43,4.24,6.63ZM55.34,134.47c.06-.76.13-1.52.19-2.29-2.03-1.69-3.84-4.25-6.16-4.85-3.26-.85-5.74,1.47-6.12,4.87-.42,3.7,1.74,6.46,5.31,6.19,2.34-.18,4.52-2.54,6.77-3.92ZM226.79,73.35c.77-.02,1.54-.03,2.31-.05,1.48-2.18,3.85-4.22,4.22-6.57.52-3.33-2.02-5.58-5.46-5.62-3.72-.04-6.29,2.38-5.68,5.9.39,2.31,3,4.24,4.62,6.34ZM234.97,268.38c-.75,0-1.5-.01-2.25-.02-1.58,2.16-4.03,4.13-4.53,6.52-.71,3.39,1.94,5.45,5.28,5.88,3.17.41,6.69-2.71,5.91-5.76-.63-2.43-2.87-4.43-4.4-6.62ZM30.54,108.02c3.59-.24,5.67-2.16,5.68-5.66.01-3.49-2.05-5.63-5.6-5.68-3.59-.05-5.62,2.1-5.64,5.6-.02,3.5,2.03,5.45,5.56,5.74ZM38.49,124.14c.82,0,1.64,0,2.46,0,1.49-2.19,3.85-4.23,4.25-6.6.57-3.4-1.9-5.6-5.46-5.58-3.53.02-6.04,2.14-5.43,5.59.42,2.37,2.73,4.41,4.19,6.59Z"/>
      <path class="cls-1" d="M355.54,128.25c7.95,23.75,8.13,46.96-.09,71.12-10.22,3.06-12.11,13.1-14.62,22.63-.41,1.56-.09,3.68.67,5.13,2.92,5.56.01,12.62-5.71,14.85-2.31.9-4.32,3.3-5.79,5.48-7.13,10.63-13.63,21.7-21.12,32.06-7.03,9.73-19.09,10.78-27.92,2.49-12.51-11.74-24.48-24.05-36.66-36.14-2.64-2.63-2.91-5.48-.49-8.46,3.25-4,6.19-8.33,9.88-11.87,1.49-1.44,5.01-2.23,6.9-1.5,4.66,1.8,7.63.54,9.28-3.67,3.82-9.73,7.44-19.54,10.91-29.4,1.37-3.88-.1-6.86-4.12-8.33-3.6-1.31-4.23-3.87-4.06-7.52.35-7.63.28-15.3-.02-22.93-.14-3.59.38-6.17,4.12-7.45,4.04-1.38,5.42-4.46,4.06-8.34-3.41-9.71-6.93-19.39-10.66-28.98-1.69-4.35-4.79-6.21-9.55-3.88-2.96,1.45-5.41.45-7.43-2.13-2.97-3.8-6.09-7.49-9.18-11.2-2.43-2.91-2.42-5.77.26-8.45,12.27-12.24,24.33-24.69,36.94-36.57,8.68-8.18,20.7-6.96,27.96,2.89,7.09,9.62,13.42,19.83,19.75,29.99,2.5,4.01,3.98,8.71,10.05,8,2.33,5.18,6.9,9.51,1.95,15.26-.46.54-.65,1.68-.43,2.38,2.74,8.9,3.26,19.11,13.63,23.62.6.26,1.12.71,1.48.93ZM331.29,196.24s.07.05.1.08c-.04-.06-.08-.12-.12-.18-2.46-5.4-4.91-10.79-7.54-16.56-10.27.59-20.26,1.17-30.26,1.75,0,.28,0,.55.01.83h27.25c3.65,4.88,7.11,9.5,10.55,14.09ZM330.34,133.09c-3.17,3.97-6.33,7.93-9.68,12.12h-29.27c0,.2,0,.41-.01.61,10.73.71,21.46,1.41,32.5,2.14,2.23-5.25,4.29-10.11,6.36-14.96.26-.2.52-.39.15-.12.1-.45.03-.12-.05.21ZM313.67,236.49c-12.48,2.53-23.55-4.92-25.74-17.31-2.43-13.79,6.27-23.07,25.02-25.71-9.68-1.9-16.99.5-22.79,7.04-6.19,6.99-7.6,15.17-4.03,23.72,3.37,8.07,9.54,13.24,18.52,13.91,2.93.22,5.96-.98,8.95-1.5.24.04.49.09.49.09,0,0-.21-.12-.43-.24ZM316.03,92.11h.28s-.43-.04-.43-.04c-7.27-3.99-16.27-2.7-23.53,3.38-8.54,7.13-10.53,19.95-4.56,29.46,6.03,9.62,18.12,13.51,27.68,8.76-.57,0-1.09.21-1.62.28-9.59,1.39-17.5-1.37-22.91-9.71-4.92-7.59-4.65-16.9,1.01-24.34,6.12-8.04,14.46-10.08,24.09-7.79ZM253.42,245.86c-.18-.03-.35-.06-.3-.05-.02,0,.19-.05.4-.1.19.74.13,1.72.6,2.17,11.07,10.82,22.02,21.79,33.41,32.27,4.58,4.21,11.57,3.94,16.2.19,6.76-5.49,10.3-13.12,13.24-21.07-2.28,2.21-4.09,4.76-6.05,7.18-1.99,2.46-4,4.92-6.22,7.15-6,6.02-9.89,5.88-16.37.5-11.52-9.56-23.26-18.85-34.92-28.24ZM251.94,81.57c1.59-.66,3.46-.98,4.74-2.02,10.59-8.6,21.09-17.31,31.58-26.04,6.64-5.53,10.73-5.55,16.76.81,4.17,4.4,7.81,9.3,11.68,13.98l1.12-.67c-3.31-5.45-6.22-11.2-10.02-16.28-6.46-8.61-14.84-9.32-22.66-1.97-11.27,10.6-22.23,21.53-33.3,32.31.03.06.06.13.09.19,0-.1,0-.21.01-.31ZM305.46,63.82c-.07-4.35-3.63-7.96-7.91-8.02-4.49-.06-8.26,3.72-8.21,8.23.04,4.48,3.96,8.2,8.43,8,4.28-.19,7.76-3.91,7.69-8.21ZM284.38,171.84c4.45.04,8.23-3.75,8.18-8.2-.05-4.39-3.42-7.88-7.79-8.04-4.55-.17-8.34,3.36-8.47,7.89-.12,4.36,3.7,8.31,8.08,8.36ZM344.04,176.78c-4.41.05-7.97,3.52-8.05,7.85-.08,4.44,3.76,8.32,8.2,8.3,4.42-.03,8.21-4,8.05-8.45-.15-4.31-3.82-7.75-8.2-7.7ZM305.45,263.07c-.12-4.37-3.68-7.93-7.97-7.96-4.43-.03-8.23,3.87-8.15,8.34.09,4.51,3.95,8.06,8.54,7.84,4.43-.21,7.69-3.75,7.57-8.22ZM352.25,144.65c.06-4.28-3.52-7.99-7.85-8.14-4.56-.15-8.39,3.54-8.4,8.08,0,4.3,3.55,8.01,7.84,8.18,4.46.17,8.35-3.58,8.42-8.12Z"/>
      <path class="cls-1" d="M164.54,69.45c52.25.01,94.61,42.47,94.58,94.8-.03,52.13-42.7,94.68-94.9,94.65-52.2-.03-94.86-42.64-94.82-94.72.04-52.59,42.38-94.74,95.15-94.73ZM164.09,247.28c12.48.28,24.41-2.33,35.72-7.78,7.09-3.42,9.9-10.15,6.92-16.4-3.18-6.67-10.03-8.91-17.31-5.66-16.96,7.56-33.88,7.5-50.78-.22-7.41-3.39-14.08-1.33-17.39,5.33-3.18,6.41-.39,13.14,7.02,16.74,11.28,5.49,23.19,8.22,35.82,7.99ZM80.86,164.18c-.46.12-.93.23-1.39.35,2.54,10.44,4.62,21.01,7.76,31.26,2.37,7.74,9.44,10.74,16.2,8.12,6.66-2.58,9.4-9.48,6.41-17.03-6.93-17.49-5.85-34.47,2.63-51.15,3.58-7.03,1.68-13.58-4.77-17.11-6.2-3.4-12.91-1.1-16.75,5.82-6.87,12.36-9.85,25.71-10.09,39.75ZM209.45,100.45c-.14-4.96-3.03-8.66-7.96-11-21.82-10.35-44.09-11.8-66.81-3.26-7.68,2.89-10.93,9.38-8.32,16.1,2.65,6.83,9.14,9.09,16.89,6.86,6.48-1.87,13.22-3.31,19.93-3.85,9.98-.81,19.32,2.2,28.36,6.44,8.66,4.07,17.75-1.52,17.91-11.29ZM247.63,164.2c-.09-11.63-2.28-22.85-6.95-33.52-3.12-7.13-9.88-10.06-16.29-7.3-6.43,2.77-9.15,9.69-6.2,16.76,6.7,16.07,6.61,32.02-.04,48.07-3.16,7.63-.71,14.36,5.9,17.14,6.66,2.8,13.2-.16,16.54-7.67,4.73-10.65,6.85-21.87,7.03-33.48ZM187.29,164.03c0-12.93-10.22-23.16-23.1-23.14-12.87.02-22.99,10.27-22.97,23.27.02,13.03,10.11,23.12,23.1,23.1,12.95-.02,22.98-10.16,22.97-23.23ZM164.68,195.97c-4.65-.08-8.55,3.84-8.55,8.58,0,4.53,3.63,8.34,8.1,8.5,4.57.17,8.76-3.74,8.9-8.31.14-4.53-3.88-8.7-8.45-8.77ZM124.88,154.15c-4.59,0-8.59,4.14-8.47,8.74.12,4.45,3.93,8.21,8.38,8.29,4.68.09,8.65-3.78,8.68-8.46.03-4.65-3.91-8.58-8.6-8.57ZM175.35,123.34c.14-4.61-3.75-8.68-8.4-8.79-4.68-.11-8.59,3.72-8.64,8.47-.05,4.45,3.58,8.29,8.09,8.53,4.62.25,8.82-3.59,8.95-8.21ZM206.4,156.34c-4.57.04-8.55,4.13-8.47,8.72.08,4.72,4.03,8.42,8.81,8.27,4.41-.14,8.27-4.04,8.28-8.38.02-4.52-4.11-8.64-8.63-8.61Z"/>
      <path class="cls-1" d="M296.58,70.07c-3.07-.26-5.08-2.37-5.25-6.05-.17-3.58,2.72-6.34,6.31-6.18,3.82.16,5.76,2.31,5.88,6.04.13,3.76-2.49,6.3-6.94,6.2ZM296.87,61.28c-.17.12-.34.25-.31.23-.02.01.17-.1.36-.21-.61,1.26-1.23,2.52-1.64,3.37,1.32.35,2.39.64,3.51.87.3-.02.6-.05.18-.01.3-.17.01,0-.27.15.18-1.19.37-2.39.52-3.39-1.02-.44-1.68-.72-2.36-1Z"/>
      <path class="cls-1" d="M290.58,163.89c-.08,3.58-2.88,6.3-6.45,6.02-3.97-.31-6.03-2.68-5.83-6.59.18-3.71,2.49-5.67,6.16-5.77,3.61-.1,6.21,2.69,6.12,6.34ZM283.21,162.07c-.09-.18-.17-.37-.08-.17-.26-.11-.04-.02.18.08-.43,1.14-.85,2.28-1.19,3.18,1.68-.11,3.13-.2,4.58-.29.19-.38.38-.75.57-1.13-1.35-.56-2.7-1.11-4.05-1.67Z"/>
      <path class="cls-1" d="M344.59,191.03c-4.05-.45-6.59-2.13-6.6-6.23-.01-3.75,2.06-5.95,5.72-6.1,3.8-.16,6.35,1.68,6.56,5.76.21,4.12-2.43,5.77-5.68,6.57ZM342.21,185.9c.34-.31.67-.62,1.01-.92.96.44,1.91.88,2.96,1.36-.3-1.17-.56-2.19-.84-3.22.15-.16.3-.32.13-.14,0-.26,0,0,0,.25-1.02-.3-2.04-.61-3.5-1.04.57,1.23.95,2.05,1.33,2.87-.33.32-.65.63-.98.95-.15.11-.29.22-.31.23.01-.02.1-.18.19-.35Z"/>
      <path class="cls-1" d="M303.54,263.48c-.09,3.63-2.83,6.27-6.41,5.99-3.71-.29-5.66-2.48-5.8-6.13-.14-3.52,2.73-6.35,6.18-6.31,3.49.04,6.12,2.85,6.04,6.45ZM295.61,265.59c1.34-.52,2.69-1.04,4.02-1.56-.24-.97-.55-2.21-.86-3.43.04.06.09.12.13.18.02-.1.03-.2.05-.3-1.3.3-2.61.6-3.89.9v-.32s-.15.2-.15.2c.29,1.41.58,2.83.87,4.22l-.2-.19.03.31Z"/>
      <path class="cls-1" d="M350.31,144.18c-.11,3.96-3.34,7.18-6.54,6.7-3.47-.51-5.78-2.48-5.82-6.3-.04-3.61,2.76-6.51,6.28-6.25,3.87.29,6.04,2.43,6.08,5.85ZM346.64,145.68c-.07.2-.14.4-.12.35,0,.08.01-.1.03-.28-.48-.19-.97-.39-1.45-.58.04-.73.08-1.45.12-2.18.33-.35.66-.69.99-1.04,0,0,.14.13.14.14-.34.33-.69.66-1.03.99-.96-.22-1.93-.44-3.04-.7.25,1.63.43,2.89.62,4.13l-.26-.12.17.25c.8-.52,1.6-1.04,2.4-1.57.49.2.99.4,1.44.62Z"/>
    </g>
  </g>
</svg>