<?xml version="1.0" encoding="UTF-8"?>
<svg id="Camada_2" data-name="Camada 2" xmlns="http://www.w3.org/2000/svg" viewBox="0 0 406.14 248.04">
  <defs>
    <style>
      .cls-1 {
        fill: #fff;
        stroke-width: 0px;
      }
    </style>
  </defs>
  <g id="Camada_1-2" data-name="Camada 1">
    <g>
      <path class="cls-1" d="M197.68,6.83c1.8.05,3.59.14,5.39.14,3.72,0,6.91.5,9.95,3.48,1.97,1.93,5.73,2.56,8.76,2.79,5.98.45,12.01.21,18.02.27,2.78.03,5.48.31,6.78-3.27.33-.92,2.7-1.55,4.13-1.55,3.9.01,7.87.09,11.68.8,3.6.67,6.65,1.13,9.29-2.26.75-.97,2.87-1.22,4.35-1.2,10.14.1,20.29.36,30.43.57.92.02,1.85.02,2.76.16,7.96,1.23,15.88,3.12,23.88,3.56,8.55.47,16.88,2.09,25.32,2.94,5.65.57,9.54,2.8,12.88,6.87.72.87,1.42,1.76,1.6,1.98h33.01c.59,1.49-.01,3.95-1.83,3.57-5.86-1.23-10.01,2.69-14.95,4.09-1.73.49-3.31,1.55-4.87,2.31.07.7-.05,1.35.18,1.53,10.54,7.95,13.45,19.45,14.64,31.68,2.59,26.55-1.05,52.59-7.64,78.17-4.6,17.86-10.49,35.4-16.23,52.94-1.85,5.66-4.93,10.93-7.61,16.3-4.12,8.24-11.83,11.56-20.09,13.33-10.82,2.32-21.77,4.18-32.74,5.65-21.95,2.94-43.93,5.74-65.95,8.09-17.9,1.91-35.86,3.2-53.82,4.58-17.03,1.31-34.07,2.59-51.13,3.46-8.24.42-16.45.57-24.74-1.61-7.86-2.07-12.69-6.39-15.08-13.68-3.6-10.96-7.24-21.94-10.15-33.1-6.25-23.9-12.54-47.8-17.9-71.91-5.11-22.94-9.27-46.1-13.39-69.24-1.08-6.06-1.22-12.53-.39-18.62.67-4.99,3.42-9.71,5.53-15.3C45.49,19.09,22.74,13.73,0,8.36c.09-.44.17-.88.26-1.32,7.94.57,15.88,1.12,23.82,1.72,7.37.55,14.74,1.08,22.09,1.78,3.28.31,5.83-.34,7.57-3.41,2.03-3.6,5.48-4.57,9.38-4.86,9.19-.68,18.35-1.74,27.54-2.25,3.38-.19,6.82,1.07,10.24,1.1,11.09.12,22.19.02,33.29-.08,2.06-.02,4.11-.65,6.16-.68,3.39-.06,6.79.09,10.18.25,2.52.12,5.03.52,7.56.58,6.01.15,12.02.1,18.02.28,3.23.1,6.4.45,8.94,3,3.65,3.66,8.01,4.16,12.72,2.25l-.09.1ZM333.72,17.8c.11.1.22.21.32.31-.14-.07-.28-.15-.42-.22q-1.85-4.14-7.84-3.34c1.37,4.47,4.51,4.18,7.93,3.25ZM260.15,221.79c2.33-.46,4.67-.91,7-1.37l-.09.09c1.23-.77,2.46-1.55,4.84-3.05-6.17-1.31-10.75-1.86-14.41,2.43-1.33,1.57.02,1.81,1.27,1.89.46,0,.93,0,1.39,0ZM110.62,52.69c-5.45-8.72-17.19-9.63-22.33-.72,8.51,9.58,13.44,9.74,22.33.72ZM88.62,69.04c7.37,9.37,17.5,9.37,22.69.52-7.42-8.77-13.05-8.99-22.69-.52ZM89.7,86.29c6.09,8.69,17.47,8.68,22.75.25-7.87-8.69-14.05-8.84-22.75-.25ZM130.79,61.63c-8.18-8.88-14.6-8.87-22.21.06,9.63,9,14.66,8.98,22.21-.06ZM112.76,103.1c-7.72-8.6-14.61-8.58-22.47.05,9.26,8.75,14.77,8.73,22.47-.05ZM128.68,53.87c7.78,9.12,12.84,9.13,21.17.07-8.21-8.99-14.48-9.01-21.17-.07ZM129.26,44.75c-8.17-8.61-14.95-8.6-21.34-.35,8.1,9.38,13.43,9.53,21.34.35ZM109.65,78.26c7.72,9.34,15.25,9.31,22.16-.09-8.48-8.19-13.06-8.17-22.16.09ZM129.62,70.81c8.5,9.13,13.4,9.02,21.52-.18-8-8.08-14.27-8.14-21.52.18ZM130.35,87.8c5.7,8.6,17.58,8.38,21.27-.97-7.94-7.67-13.76-7.4-21.27.97ZM110.73,95.51c7.27,8.49,14.32,8.39,22.08-.3-8.6-8.54-14.45-8.46-22.08.3ZM169.52,62.71c-7.91-8.69-14.58-8.47-20.74.68,9.06,8.37,13.74,8.22,20.74-.68ZM112.04,128.35c7.75,8.45,13.76,8.23,21.37-.78-8.31-7.74-14.17-7.52-21.37.78ZM113.73,119.75c-8.47-8.61-16.4-8.48-22.5.07,7.37,7.34,13.38,7.4,22.5-.07ZM110.98,111.87c8.53,8.67,16.04,8.3,22.1-.69-8.1-7.23-13.55-7.13-22.1.69ZM149.9,79.85c7.92,8.49,13.22,8.38,20.8-.42-7.72-8.4-13.6-8.29-20.8.42ZM153.02,103.96c-8.59-8.38-16.08-7.95-21.46.89,7.63,7.41,12.42,7.29,21.46-.89ZM167.87,46.25c-7.72-8.72-14.02-8.68-20.57.15,9.65,8.41,13.21,8.38,20.57-.15ZM150.67,96.4c8.31,8.4,13.25,8.14,20.93-.75-7.75-7.77-12.59-7.67-20.93.75ZM91.14,135.39c8.74,8.32,14.51,8.23,22.51-.05-7.81-7.28-13.89-7.36-22.51.05ZM167.48,55.12c8.72,8.24,13.31,8.14,20.12-.08-7.13-8.81-12.68-8.89-20.12.08ZM190.33,87.76c-8.44-8.29-14.57-7.82-20.04,1.13,7.19,7.63,11.97,7.42,20.04-1.13ZM168.79,72.15c8.67,7.99,12.99,7.76,20.18-.73-7.46-8.43-13.19-8.32-20.18.73ZM152.83,119.89c-6.84-7.5-13.88-7.16-21.05,1.01,8.01,7.81,13.56,7.54,21.05-1.01ZM190.27,104.03c-7.14-7.92-12.59-7.67-19.5.88,8.12,8.11,12.21,7.93,19.5-.88ZM185.52,47.14c8.26,8.85,12.91,8.8,19.48.11-7.02-7.94-12.31-8.07-19.48-.11ZM152.94,135.84c-6.68-7.86-13.41-7.52-20.74,1.04,7.39,7.13,13.92,6.8,20.74-1.04ZM133.67,143.69c-7.66-7.63-15.97-7.15-21.26.97,8.34,7.09,12.54,6.98,21.26-.97ZM172.31,111.81c-8.67-7.57-14.36-7.14-20.85,1.33,7.53,7.19,12.7,6.96,20.85-1.33ZM112.45,158.93c6.46,8.21,12.85,8.15,20.88-.19-6.97-6.68-12.81-6.62-20.88.19ZM113.53,151.32c-3.34-5.5-8.55-5.9-13.98-5.4-3.57.33-5.68,2.52-5.43,5.05.33,3.27,2.39,5.15,5.95,5.55,5.39.61,9.9-.94,13.46-5.2ZM191.52,119.89c-8.27-7.21-13.33-6.85-20.57,1.18,7.52,7.31,11.64,7.14,20.57-1.18ZM188.26,80.46c7.84,8.06,13.62,7.64,19.48-1.08-7.12-6.85-12.55-6.65-19.48,1.08ZM152.2,128.94c6.68,7.84,12.67,7.49,20.01-1.19-7.08-6.95-13.58-6.56-20.01,1.19ZM187.15,64.13c8.77,8.06,13.43,7.76,19.71-.99-7.93-7.52-12.58-7.37-19.71.99ZM172.23,143.46c-6.44-7.08-12.95-6.7-19.93,1.18,6.73,7.36,12.21,7.04,19.93-1.18ZM205.3,55.88c7.36,8.78,12.94,8.54,18.34-.79-7.92-7.56-11.92-7.39-18.34.79ZM189.42,97.14c7.87,7.82,12.98,7.31,19.03-1.58-6.95-6.98-12.42-6.64-19.03,1.58ZM242.18,63.94c-7.39-8.21-12.85-7.87-17.83.75,7.13,7.9,10.38,7.83,17.83-.75ZM227.46,103.48c-8.23-6.97-12.17-6.65-19.14,1.29,6.62,7.76,11.21,7.55,19.14-1.29ZM190.05,113.06c7,7.54,12.71,7.06,19.35-1.64-7.89-6.88-12.63-6.48-19.35,1.64ZM131.96,152.25c8.21,6.85,14.51,6.39,20.91-1.1-6.22-6.42-13.03-6.15-20.91,1.1ZM191.21,135.5c-7.49-7.34-13.25-6.87-19.47,1.61,6.48,6.7,11.91,6.25,19.47-1.61ZM227.57,119.36c-6.79-6.9-13.22-6.22-18.83,2,7.81,6.69,11.55,6.3,18.83-2ZM75.74,53.56c.16,3.14.22,6.06.47,8.97.24,2.75,1.87,3.85,4.63,3.92,4.93.12,7.7-3.01,10.72-6.13-4.26-4.27-8.51-7.58-15.82-6.75ZM240.02,48.11c-6.55-8.13-12.67-8.43-17.86-.24,7.23,8.41,10.64,8.45,17.86.24ZM226.5,87.94c-7.16-7.2-13.13-6.77-18.65,1.02,6.56,7.46,10.94,7.29,18.65-1.02ZM225.41,80.95c7.17,7.36,12.07,6.97,17.76-1.1-6.44-7.3-11.74-7.08-17.76,1.1ZM152.09,159.87c7.2,6.55,12.27,6.11,19.97-1.41-6.56-6.52-12.3-6.21-19.97,1.41ZM165.48,37.32c7.83,9.45,14.3,9.41,19.85.65-3.85-4.61-9.17-3.33-14.04-3.2-1.88.05-3.72,1.59-5.81,2.55ZM202.85,39.46c9.68,8.51,14,8.4,17.97-.09-6.3-6.78-11.87-6.83-17.97.09ZM132.48,167.37c7.66,6.69,12.82,6.29,20.19-1.19-6.27-6.1-13.52-5.78-20.19,1.19ZM225.36,71.93c-8.22-7.77-12.05-7.59-18.58.5,6.63,7.58,11.57,7.55,18.58-.5ZM133.38,173.79c-7.68-6.68-14.47-6.34-20.85.67,7.15,6.33,12.16,6.23,20.85-.67ZM225.81,96.95c7.91,7.44,12.26,6.97,18.47-1.62-6.62-6.11-11.21-5.79-18.47,1.62ZM240.85,56.43c7,8.08,10.95,7.9,17.4-.45-6.78-8.13-10.45-8.11-17.4.45ZM209.26,136.18c6.12,7.41,11.76,6.82,18.26-1.9-6.81-6.03-11.52-5.54-18.26,1.9ZM226.56,112.85c7.51,7.13,13.93,6.22,17.81-2.53-7-5.65-11.61-4.99-17.81,2.53ZM276.02,64.07c-7.96-7.94-12.9-7.41-16.79,1.37,7.11,6.95,9.53,6.79,16.79-1.37ZM259.98,71.62c-7.64-7.48-12.75-6.91-17.24,1.57,6.8,6.76,11.44,6.43,17.24-1.57ZM191.47,150.41c-7.67-5.82-13.85-5.16-19.71,1.77,6.09,6.78,10.95,6.41,19.71-1.77ZM190.66,128.62c6.16,7.34,12.55,6.69,18.92-1.53-6.8-6.04-12.16-5.69-18.92,1.53ZM262.26,103.1c-7.93-6.98-12.67-6.35-17.93,2.02,7.19,6.52,10.14,6.23,17.93-2.02ZM243.79,88.95c6.58,7.51,10.94,7.12,17.13-1.54-6.91-6.68-11.94-6.23-17.13,1.54ZM227.09,128.41c7.23,6.69,11.44,6.08,18.04-2.24-6.97-6.12-11.11-5.68-18.04,2.24ZM131.86,181.83c8.61,6.09,14.09,5.61,20.46-1.51-7.01-5.71-12.46-5.41-20.46,1.51ZM190.64,165.04c-7.34-5.82-12.61-5.14-19.16,2.08,6.23,6.57,11.26,6.11,19.16-2.08ZM209.87,142.6c-7.41-6.38-13.4-5.62-19.36,2.11,7.03,5.82,11.47,5.42,19.36-2.11ZM262.27,118.48c-6.77-6.92-11.3-6.41-17.55,1.99,6.69,6.39,10.45,5.96,17.55-1.99ZM151.93,174.51c7.04,6.55,12.86,5.94,19.16-1.63-5.69-5.56-12.09-5.12-19.16,1.63ZM190.27,179.57c-6.78-5.66-13.61-4.69-19.26,2.44,6.46,5.16,12.41,4.51,19.26-2.44ZM273.64,48.6c-8.05-7.89-11.72-7.75-16.88.27,6.91,7.24,10.14,7.25,16.88-.27ZM278.07,95.44c-6.46-7.44-10.7-7.08-17.05,1.11,6.44,6.79,10.1,6.63,17.05-1.11ZM260.53,80.71c6.22,7.46,9.98,7.24,16.83-1-6.81-7.2-11.5-6.92-16.83,1ZM307.37,64.14c-6.72-7.97-10.03-7.71-15.85.89,7.52,7.26,9.52,7.19,15.85-.89ZM209.58,157.22c-8.03-5.63-13.33-4.82-19.14,2.55,6.86,5.74,10.1,5.34,19.14-2.55ZM291.23,55.94c-8.33-7.08-11.61-6.78-16.67,1.18,7.05,7.29,10.08,7.13,16.67-1.18ZM209.39,151.24c5.53,6.64,12.09,5.8,17.97-2.31-6.85-5.35-11.89-4.7-17.97,2.31ZM244.88,135.25c6.95,6.65,10.93,6.07,17.24-2.11-6.43-6.09-9.91-5.72-17.24,2.11ZM152.28,189.13c6.24,5.48,12.76,4.72,18.5-2.16-6.22-5.53-12.89-4.75-18.5,2.16ZM289.68,48.92c6.51,8.24,9.09,8.19,15.12-.27-6.91-7.53-10.1-7.47-15.12.27ZM255.55,39.97c-8.69-7.33-11.19-7.2-16.66.54,7.7,7.26,10.93,7.22,16.66-.54ZM292.83,71.64c-7.72-7.56-10.97-7.2-16.52,1.53,6.79,6.28,10.22,6.04,16.52-1.53ZM147.74,36.01c-7.22-2.15-13.99-.7-21.05.29,9.1,9.31,15.2,9.37,21.05-.29ZM227.29,143.41c6.23,6.47,12.64,5.5,17.28-2.62-6.27-5.4-10.83-4.71-17.28,2.62ZM113.3,166.39c-4.44-5.87-9.9-5.55-16.1-4.61.83,3.59-.19,7.95,3.42,9.35,4.72,1.84,8.77-.92,12.68-4.74ZM279.04,110.25c-7.68-6.72-11.77-6.15-17.02,2.1,6.35,6.27,9.65,5.93,17.02-2.1ZM278.91,125.26c-5.91-6.38-11.5-5.6-16.69,2.35,6.79,6,9.9,5.56,16.69-2.35ZM208.37,171.69c-6.32-5.87-12.43-5-18.05,2.56,6.8,5.31,11.68,4.62,18.05-2.56ZM112.43,188.54c7.97,6.14,12.88,6.05,19.44-.34-5.65-5.69-12.81-5.57-19.44.34ZM278.88,134.16c6.3,6.28,11.01,5.34,16.12-3.24-6.94-5.25-10.31-4.57-16.12,3.24ZM208.8,166.11c5.66,6.07,11.35,5.2,17.74-2.32-5.42-5.17-11.55-4.48-17.74,2.32ZM262.2,147.66c-6.68-5.55-11.5-4.8-17.7,2.73,6.55,5.64,11.03,4.94,17.7-2.73ZM309.94,94.15c-7.09-6.5-11.48-5.75-15.64,2.29,6.76,6.28,8.87,6.01,15.64-2.29ZM244.39,155.56c-6.29-5.19-11.8-4.31-17.12,2.7,5.41,6.06,10.88,5.19,17.12-2.7ZM244.41,169.87c-7.14-5.37-12.25-4.47-18.1,2.92,5.81,5.13,9.67,4.58,18.1-2.92ZM77.93,71.01c.13,1.3.1,2.22.32,3.06.83,3.13-.64,7.56,3.47,8.91,4.36,1.44,7.02-2.27,9.88-4.82.13-.11.08-.43.19-1.11-3.54-3.48-7.05-7.34-13.85-6.04ZM112.38,202.5c6.85,6.07,12.57,5.63,18.82-1.46-5.8-4.58-12.24-4.08-18.82,1.46ZM278.51,119.25c6.63,6.29,10.32,5.71,16.81-2.31-6.67-5.56-10.99-5.06-16.81,2.31ZM151.3,194.57c-7.01-5.22-14.54-4.37-19.08,1.77,9.01,4.91,12.88,4.6,19.08-1.77ZM272.03,40.87c6.48,7.38,11.8,8.13,15.43.08-5.87-6.82-9.92-6.91-15.43-.08ZM278.58,104.24c6.09,6.46,11.26,5.67,15.75-2.43-6.32-5.85-11.12-5.11-15.75,2.43ZM293.98,86.74c-7.95-6.44-12.03-5.75-16.44,2.41,7.39,5.96,10.04,5.62,16.44-2.41ZM309.34,87.87c6.37,6.78,8.98,6.48,15.14-1.5-6.04-6.77-9.46-6.52-15.14,1.5ZM226.42,177.91c-6.91-5.36-12.8-4.3-18.23,2.86,6.28,4.91,10,4.38,18.23-2.86ZM310.88,123.81c-6.11-6.34-10.49-5.6-15.61,2.3,5.43,5.98,8.16,5.63,15.61-2.3ZM292.97,80.96c7.96,6.45,9.89,6.19,15.45-1.76-5.72-6.92-9.74-6.54-15.45,1.76ZM323.34,71.19c-7.16-7.17-10.8-6.62-14.98,1.94,5.23,6.23,10.67,5.43,14.98-1.94ZM261.89,142.25c6.7,5.63,11.64,4.64,16.92-3.01-6.66-5.15-10.46-4.54-16.92,3.01ZM244.31,164.58c5.72,5.4,10.66,4.58,16.85-2.78-5.71-5.37-11.02-4.49-16.85,2.78ZM152.13,202.48c5.79,5.84,11.38,5.04,17.85-2.19-8.22-4.31-12.7-3.85-17.85,2.19ZM310.49,118.07c6.6,5.99,9.32,5.46,15.23-2.66-5.94-5.93-9.49-5.39-15.23,2.66ZM306.1,56.96c6.99,7.45,9.65,7.25,14.74-.83-6.23-6.83-9.16-6.75-14.74.83ZM294.74,146.19c-5.34-5.73-10.69-4.86-16.09,2.42,5.28,5.64,8.35,5.25,16.09-2.42ZM208.17,185.6c-6.47-4.75-12.63-3.85-17.91,2.32,5.11,5.36,10.22,4.8,17.91-2.32ZM150.69,207.59c-7.47-4.49-14.56-3.57-18.84,2.1,7.2,5.15,12.07,4.7,18.84-2.1ZM187.63,206.47c-5.84-4.16-11.94-3.42-18,2.18,6.39,5.36,11.68,4.72,18-2.18ZM339.72,93.39c-6.34-6.97-9.86-6.45-14.55,1.83,6.28,6.05,7.29,5.95,14.55-1.83ZM324.28,79.88c5.76,6.82,9.41,6.28,13.83-2.08-6.7-6.29-9.4-5.88-13.83,2.08ZM170.5,194.9c7.85,5.36,13.07,4.67,18.18-2.08-5.78-4.26-9.89-3.85-18.18,2.08ZM322.47,64.79c6.61,6.9,10.5,6.24,13.62-1.91-6.25-6.48-8.84-6.18-13.62,1.91ZM310.83,108.64c-7.79-5.54-11.72-4.72-15.65,2.87,6.03,5.83,9,5.34,15.65-2.87ZM294.94,140.39c5.86,5.86,10.14,4.94,15.55-3.07-6.05-4.72-9.83-4.07-15.55,3.07ZM150.77,215.45c6.03,5.21,10.46,4.82,18.34-1.33-5.14-4.88-11.67-4.54-18.34,1.33ZM277.68,162.85c6.37,5.07,9.86,4.39,16.3-3.16-6.04-5.09-10.17-4.29-16.3,3.16ZM325.3,100.74c-6.63-6.11-10.98-5.21-14.66,2.66,5.94,5.84,8.65,5.41,14.66-2.66ZM130.64,214.81c-5.48-4.78-13.12-4.33-18.47,1.09,5.98,5.15,12.24,4.78,18.47-1.09ZM149.72,220.98c-5.44-4.82-12.13-4.44-17.91,1.01,6.08,5.24,10.1,5.02,17.91-1.01ZM278.22,153.81c-6.62-5.06-11.96-3.89-16.23,3.18,6.04,4.73,9.84,4.06,16.23-3.18ZM339.57,86.79c5.63,6.81,8.66,6.35,13.12-1.98-6.08-6.23-8.72-5.83-13.12,1.98ZM333.68,49.26c-5.61-7.78-9.15-7.78-13.31-.22,6.24,7.23,7.61,7.3,13.31.22ZM277.76,167.77c-6.66-4.9-11.59-3.9-16.89,3.07,5.71,4.55,9.22,3.98,16.89-3.07ZM309.66,151.77c-1.19-3.15-3.79-3.3-6.65-3.19-4.39.17-6.75,2.87-8.83,6.18,6.24,5.09,8.91,4.53,15.48-2.98ZM326.14,129.53c-6.45-5.44-10.27-4.58-15.23,3.12,5.78,5.18,8.23,4.73,15.23-3.12ZM339.97,101.79c6.79,6.05,9.09,5.55,13.86-2.73-5.83-5.57-8.68-5.07-13.86,2.73ZM340.6,116.09c5.9,6.15,7.82,5.72,13.52-2.64-5.01-5.89-8.29-5.32-13.52,2.64ZM243.54,178.71c6.58,4.67,10.49,3.82,17.11-3.31-5.98-4.37-11.52-3.39-17.11,3.31ZM243.09,183.52c-6.64-5.13-12.38-4-16.77,2.92,6.22,3.75,9.15,3.29,16.77-2.92ZM310.35,146.67c6.44,4.83,9.44,4.07,15.2-3.42-6.14-4.88-9.18-4.25-15.2,3.42ZM224.66,191.57c-6.12-4.55-10.61-3.93-16.39,1.9,4.66,5.38,8.94,4.96,16.39-1.9ZM317.99,41.28c-2.64-4.61-6.77-3.73-10.52-3.49-2.2.14-3.57,1.67-3.55,4.01,7.77,6.97,8.53,6.96,14.07-.52ZM340.01,107.35c-5.69-5.73-9.49-5.07-14.08,2.44,5.55,5.93,8.5,5.42,14.08-2.44ZM339.95,148.97c-4.61-4.04-8.2-4.24-11.95-.43-1.1,1.11-2.34,3.56-1.84,4.42.71,1.22,2.93,2.01,4.58,2.13,4.55.34,6.65-3.27,9.22-6.12ZM293.22,172.96c-6.82-4.37-11.78-3.1-15.91,3.69,5.18,4.12,8.67,3.38,15.91-3.69ZM354.58,108.17c5.9,5.76,8.29,5.08,12.96-3.33-6.19-5.25-8.35-4.75-12.96,3.33ZM340.49,121.82c-5.94-6.04-9.52-5.3-14.26,2.62,5.66,4.98,8.03,4.6,14.26-2.62ZM337.93,72.03c6.74,6.8,8.38,6.54,13.3-1.79-5.7-5.94-8.84-5.61-13.3,1.79ZM366.86,91.28c-5.85-5.99-8.45-5.5-13.06,2.12,5.75,6.79,6.89,6.63,13.06-2.12ZM189.72,201.63c7.18,3.68,11.62,2.85,16.52-2.75-5.78-4.33-12.16-3.41-16.52,2.75ZM258.92,197.26c6.39,3.89,10.1,2.97,15.88-3.6-5.81-3.94-10.49-2.99-15.88,3.6ZM324.6,157.23c-5.21-5-8.96-4.3-14.86,2.79,4.8,5.04,7.94,4.45,14.86-2.79ZM360.97,48.05c-7.79-6.99-8.88-6.87-12.65,1.08,6.49,6.96,7.96,6.87,12.65-1.08ZM335.79,57.06c7.4,6.81,9,6.59,12.91-1.5-5.93-6.26-8.56-6.04-12.91,1.5ZM293.86,168.28c5.54,4.86,9.23,4.06,14.55-3.18-5.21-4.72-9.6-3.76-14.55,3.18ZM354.18,127.18c-1.24-3.03-3.53-3.85-6.61-3.13-3.66.86-6.05,2.91-6.71,6.63,5.65,4.94,7.73,4.36,13.32-3.51ZM363.63,62.94c-5.95-6.99-8.4-6.78-12.77,1.13,6.1,7.16,7.27,7.05,12.77-1.13ZM186.93,219.72c-5.24-4.98-12.09-4.28-17.93,2.1,6.68,3.64,12.37,1.84,17.93-2.1ZM241.44,196.29c-7.12-3.21-11.27-2.37-16.51,3.04,6.06,4.62,9.48,4.07,16.51-3.04ZM223.62,212.62c5.95,3.62,9.87,2.82,16.38-3.33-5.85-4.31-11.26-3.21-16.38,3.33ZM325.71,138.78c6.84,4.49,9.91,3.57,14.3-3.89-5.56-4.68-8.91-3.85-14.3,3.89ZM375.36,54.71c-2-1.52-3.61-3.24-5.6-4.06-1.1-.46-3.35.13-4.13,1.06-1.2,1.43-2.68,4.21-2.06,5.22,1.19,1.94,3.62,3.37,5.83,4.31.68.29,2.45-1.57,3.48-2.67.9-.96,1.46-2.24,2.48-3.85ZM187.98,214.49c7.62,3.78,12.86,2.68,17.2-3.31-6.72-3.27-11.8-2.4-17.2,3.31ZM377.52,69.01c-6.85-5.9-8.54-5.55-12.41,2.2,6.39,6.67,7,6.58,12.41-2.2ZM367.74,119.04c-5.21-5.34-9.12-4.26-12.72,3.5,5.59,5.09,6.79,4.76,12.72-3.5ZM206.58,207.38c1.51,2.55,3.64,2.67,6.43,2.35,4.24-.49,7.97-1.42,10.46-5.29-6.61-3.49-12.16-2.49-16.89,2.94ZM365.47,76.97c-6.21-5.92-9.09-5.33-12.88,2.35,5.66,6.34,8.71,5.74,12.88-2.35ZM353.03,153.66c-6.12-4.21-9.76-2.98-13.44,4.16,5.24,4.03,6.9,3.56,13.44-4.16ZM260.27,183.96c5.34,4.32,9.44,3.48,15.86-2.89-5.14-4.22-10.2-3.4-15.86,2.89ZM258.57,188.6c-6.24-3.78-11.64-2.34-15.64,3.79,6.33,3.34,9.91,2.55,15.64-3.79ZM379.64,82.96c-2.09-1.44-3.44-2.78-5.05-3.38-2.75-1.02-6.43,1.42-7.31,4.61-.8,2.9,1.39,4.35,3.4,5.08,1.34.49,3.54,0,4.74-.89,1.56-1.14,2.5-3.12,4.22-5.42ZM307.7,178.16c-5.66-4.04-10.12-3.01-15.07,3.47,5.43,4.33,8.58,3.6,15.07-3.47ZM291.46,185.9c-5.45-4.14-10.05-3.03-15.04,3.64,6.87,3.4,9.79,2.7,15.04-3.64ZM380.4,97.11c-6.17-5.37-9.22-4.5-12.65,3.21,6.04,5.22,6.38,5.15,12.65-3.21ZM167.71,226.56c-5.56-4.56-11.85-3.88-17.47,2,6.34,2.57,12.05,2.34,17.47-2ZM83.53,101.79c3.93-3.15,6.48-5.19,9.35-7.49-3.65-3.34-6.27-6.55-12.01-6.24.82,4.25,1.57,8.12,2.65,13.73ZM354.29,140.81c-4.39-3.65-7.46-4.08-10.59-1.37-1.58,1.37-4,2.8-2.62,5.6,1.05,2.11,4.93,2.91,7.35,1.24,2.16-1.49,3.89-3.59,5.86-5.47ZM273.58,205.96c-7.36-2.97-11.87-1.74-15.58,3.9,5.13,3.5,8.17,2.79,15.58-3.9ZM323.56,169.82c-6.8-3.58-9.89-2.71-14.43,3.77,5.21,4.09,7.61,3.52,14.43-3.77ZM205.23,219.86c7.85,3.25,11.35,2.47,16.62-3.36-6.52-3.14-11.3-2.25-16.62,3.36ZM338.79,161.4c-6.96-3.35-9.69-2.47-14.22,4.23,5.1,4.48,7.62,3.79,14.22-4.23ZM100.47,177.23c1.07,2.76,1.37,6.6,3.31,7.81,3.03,1.89,5.88-1.2,8.35-3.25.3-.25.35-.79.52-1.19q-4.77-4.61-12.17-3.37ZM308.34,186.85c6.59,2.75,7.51,2.47,13.52-4.16-5.8-4.03-10.58-2.55-13.52,4.16ZM256.83,201.5c-7.64-3.47-11.39-2.43-15.09,3.83,5.76,3.04,9.69,2.13,15.09-3.83ZM367.53,132.37c-1.23-2.75-3.21-3.21-6.09-2.6-3.82.81-5.75,3.08-6.76,6.49,5.69,4.32,6.67,4,12.85-3.88ZM322.82,178.54c5.82,4.17,8.78,3.15,14.18-4.53-5.84-2.81-8.43-2.04-14.18,4.53ZM89.37,43.03c-1.72-3.03-4.07-3.17-6.55-2.09-3.33,1.46-6.24,3.41-6.22,7.84,6.37,1.83,9.69-1.49,12.76-5.75ZM366.47,145.33c-5.04-3.98-7.63-3.22-12.68,3.77,4.87,4.79,7.31,4.06,12.68-3.77ZM203.94,223.81c-8.07-3.23-12.63-2.2-15.84,3.23,6.89,2.33,9.06,1.92,15.84-3.23ZM381.09,110.7c-5.38-3.49-8-3.65-10.48-.85-1.48,1.67-3.32,3.49-1.02,5.94,2.04,2.17,4.29,2.43,6.62.35,1.66-1.48,3.01-3.32,4.88-5.44ZM351.6,165.93c-6.37-2.89-9.56-1.6-13.24,4.97,5.28,3.5,7.4,2.75,13.24-4.97ZM274.71,201.8c5.13,4.55,10.12,3.06,14.52-4.11-5.62-1.92-10.32-.85-14.52,4.11ZM291.31,195.11c7.14,2.98,9.83,1.89,13.65-5.07-7.13-2.34-8.11-1.99-13.65,5.07ZM365.53,157.88c-5.79-3.32-9.31-1.87-12.8,4.88,5.62,3.2,6.57,2.86,12.8-4.88ZM256.26,213.74c-8.26-2.96-11.83-2.02-16.16,3.89,6.19,2.88,10.95.41,16.16-3.89ZM380.42,124.48c-3.66-3.89-6.77-4.11-9.87-.86-1.38,1.45-3.23,3.15-1.38,5.31,1.66,1.94,4.19,2.37,6.22.91,1.97-1.41,3.4-3.57,5.04-5.36ZM350.9,175.26c5.79,2.83,7.66,2.06,12.83-4.98-1.52-3.11-4.05-1.21-6.09-1.06-3.37.26-5.13,2.72-6.74,6.03ZM332.96,198.54c-6.19-2.55-9.36-1.3-12.65,5,5.67,2.77,7.97,1.86,12.65-5ZM289.05,206.6c6.14,3.44,10.58,2,14.5-4.36-5.77-2.2-10.1-.16-14.5,4.36ZM223.45,224.24c6.3,2.51,9.72,1.7,14.49-3.42-7.04-2.74-10.43-1.94-14.49,3.42ZM335.07,186.9c-5.39-2.95-9.38-1.43-13.13,4.66,5.41,2.86,7.36,2.22,13.13-4.66ZM349.77,178.57c-4.91-3.01-8.14-1.91-12.86,4.39,4.72,3.06,8.11,1.91,12.86-4.39ZM100.71,10.68c2.26,0,3.97.33,5.44-.12.97-.29,2.25-1.77,2.18-2.61-.07-.88-1.49-2.07-2.52-2.35-1.51-.4-3.23-.29-4.81-.05-2.03.31-5.38-1.08-5.44,2.44-.07,4.13,3.67,2.17,5.14,2.68ZM287.93,210.56c-5.56-3.46-11.09-1.77-14.79,4.72,6.13,1.46,10.72-.31,14.79-4.72ZM318.75,206.34c-8.7-1.88-10.6-1.16-14.99,5.24,6.24,2.42,10.29-.76,14.99-5.24ZM144.23,10.18c.76-2.62.61-4.59-2.29-4.74-3.33-.18-6.68-.04-10.11-.04.83,5.97,1.4,6.17,12.4,4.79ZM113.88,5.34c-.57,3.49.06,5.11,2.43,5.28,2.53.18,5.1.29,7.6-.03.98-.13,2.33-1.39,2.56-2.36.47-1.98-.92-2.88-2.85-2.89-3.19,0-6.38,0-9.73,0ZM367.48,141.1c3.62,2.96,4.96,3.6,6.51,2.49,2.79-2.01,3.83-4.88,3.57-8.54-5.59-1.13-8.2,1.81-10.08,6.06ZM335.4,195.64c5.84,1.71,8,.82,12.63-5.23-5.66-2.24-10.12-.39-12.63,5.23ZM319.44,194.6c-5.9-2.15-10.17-.56-13.6,4.71,6.22,2.18,8.73,1.37,13.6-4.71ZM115.2,225.62c5.25,5.6,9.09,5.99,14.95,1.72-4.64-3.99-9.56-2.51-14.95-1.72ZM332.34,207.41c7.23,1.19,9.84-.08,13.06-6.01-5.32-.43-9.98.12-13.06,6.01ZM332.2,40.59c8.21,8.11,9.34,8.06,13.29,0h-13.29ZM347.65,199.79c7.03.7,8.89-.36,11.08-5.96-7.15-1.15-7.88-.78-11.08,5.96ZM350.04,187.99c5.98,1.77,8.91-2.14,12.42-5.86-6.88-2.11-9.76-.7-12.42,5.86ZM162.17,8.99c-2.58-4.23-5.06-4.65-12.9-2.37.58,1.21.85,3.02,1.72,3.37,3.57,1.46,7.16.73,11.18-1.01ZM90.43,10.65c-.43-1.9-.64-4.13-.98-4.15-3.29-.2-6.61-.11-9.9.14-.4.03-1.04,1.57-.91,2.3.11.65,1.1,1.6,1.74,1.64,3.14.17,6.29.08,10.05.08ZM288.62,218.33c5.45,1.49,9.77.07,13.52-4.03-6.16-2.13-9.82-1.05-13.52,4.03ZM183.23,9.15c-3.85-4-7.62-4.54-15.7-1.7,4.7,3.13,10,2.09,15.7,1.7ZM86.09,104.95c-.64.3-1.28.6-1.92.9.75,3.08,1.49,6.16,2.47,10.18,2.88-2.14,4.78-3.55,7.11-5.28-3.04-2.3-5.35-4.05-7.66-5.8ZM317.63,215.1c9.14-.41,9.68-.64,12.93-5.39-8.34-.66-8.41-.63-12.93,5.39ZM366.41,154.56c6.15,3,7.83,1.48,7.32-5.99q-4.38.74-7.32,5.99ZM383.13,68.57c.38-4.81.29-8.15-2.33-12.05-1.7,2.52-2.99,4.43-4.57,6.78,2.34,1.79,4.18,3.19,6.9,5.27ZM92.62,39.08c5.36,3.74,8.75,3.31,13.56-1.77-4.72.48-9.25-.9-13.56,1.77ZM62.49,10.87c2.95,0,5.25.24,7.45-.11.94-.15,2.39-1.62,2.32-2.36-.1-.97-1.36-2.42-2.32-2.6-3.23-.59-5.76.64-7.45,5.07ZM280.33,13.24c5.07.34,8.84.59,12.87.87-2.35-4.79-7.68-5.47-12.87-.87ZM298.08,11.65c2.63,4.3,5.78,4.75,9.62,4.06q-1.78-4.69-9.62-4.06ZM106.24,190.8c-.52.47-1.04.93-1.56,1.4.67,2.16,1.34,4.33,2.21,7.17,2.43-1.83,4.1-3.1,6.63-5.01-3.1-1.51-5.19-2.53-7.28-3.55ZM320.88,17.44c-1.71-5.66-1.92-5.74-8.51-3.97,1.28,4.08,4.6,3.67,8.51,3.97ZM377.99,77.8c2.01,1.41,3.61,2.53,6.48,4.55-.45-4.45-.73-7.14-1-9.84l-1.31-.25c-1.26,1.68-2.53,3.36-4.17,5.54ZM268.59,35.32h-10.27q4.57,4.05,10.27,0ZM234.43,35.06h-10.76q6.33,3.92,10.76,0ZM364.19,167c5.3,1.7,5.44,1.53,6.05-6.5-2.19,2.35-3.84,4.12-6.05,6.5ZM376.22,45.68c-2.53,4.07-1.85,5.05,5.12,7.27-1.98-2.81-3.48-4.94-5.12-7.27ZM360.2,41.67c6.36,6.15,6.67,6.19,8.51,1.73-2.42-.49-4.8-.97-8.51-1.73ZM339.06,16.02q1.84,3.15,6.53,2.47-1.87-3.02-6.53-2.47ZM345.55,208.99c.26.48.52.95.79,1.43,2.98-.47,5.45-1.71,7.03-4.29l-.84-1.35c-2.33,1.4-4.65,2.8-6.98,4.2ZM351.38,17.11q2.04,3.4,5.71,1.81c-1.22-2.94-3.43-2.22-5.71-1.81ZM383.35,94.48v-6.75q-3.85,3.89,0,6.75ZM291,36.11c-.09.45-.17.9-.26,1.35,2.38.05,3.98,3.87,8.18-.16-3.29-.5-5.6-.85-7.92-1.19ZM87.9,122.74c.81,3.18,1.26,4.97,1.89,7.48,1.63-1.45,2.57-2.29,3.85-3.44-1.77-1.24-3.14-2.21-5.75-4.04ZM197.74,36.23c0-.38.02-.77.03-1.15h-7.36c.01.38.03.77.04,1.15h7.29ZM366.53,176.51c-.34-.28-.69-.56-1.03-.83-.63,1.16-1.25,2.32-1.88,3.48.39.21.78.42,1.17.63.58-1.09,1.16-2.18,1.74-3.27ZM112.57,208.44c-.95-.61-1.6-1.17-2.36-1.42-.2-.07-1.11.96-1.02,1.17.3.62.85,1.34,1.45,1.53.38.12,1.04-.65,1.92-1.27ZM383.21,102.72c-.27-.08-.53-.15-.8-.23-.37,1.1-.74,2.2-1.1,3.3.35.09.71.19,1.06.28.28-1.12.56-2.23.85-3.35ZM158.74,35.28c0-.15-.01-.29-.02-.44-1.22.08-2.44.16-3.66.24.01.06.03.13.04.19h3.64ZM93.16,142.77l-.21-.61-.2.59.41.03Z"/>
      <path class="cls-1" d="M197.77,6.73c-.17-.07-.33-.13-.5-.2.13.1.27.2.4.29l.09-.1Z"/>
      <polygon class="cls-1" points="267.15 220.42 266.73 220.08 267.06 220.51 267.15 220.42"/>
      <path class="cls-1" d="M260.23,221.88c-.52,0-1.03,0-1.55,0,.52,0,1.03,0,1.55,0Z"/>
    </g>
  </g>
</svg>