<?xml version="1.0" encoding="UTF-8"?>
<svg id="Camada_2" data-name="Camada 2" xmlns="http://www.w3.org/2000/svg" viewBox="0 0 304.97 468.37">
  <defs>
    <style>
      .cls-1 {
        fill: #fff;
        stroke-width: 0px;
      }
    </style>
  </defs>
  <g id="Camada_1-2" data-name="Camada 1">
    <path class="cls-1" d="M301.57,127.9c-1.34-3.61-2.04-7.5-2.7-11.32-1.56-9.05-4.05-17.62-8.22-26-5.57-11.18-9.75-23.06-14.19-34.77-3.44-9.07-6.08-18.45-9.57-27.5-5.68-14.73-16.08-24.14-31.93-27.08-11.51-2.13-22.81-1.43-34.08,1.66-9.6,2.63-17.45,7.8-23,15.97-3.05,4.49-5.74,9.39-7.64,14.46-3.84,10.24-6.97,20.74-10.49,31.1-3.68,10.84-9.32,20.03-20.15,25.38-4.38,2.16-8.55,5.11-12.16,8.42-6.22,5.72-12.7,11.43-17.69,18.17-11.26,15.23-11.12,31.85-3.37,48.62,2.14,4.63,4.91,8.98,7.45,13.43,3.86,6.76,6.09,13.98,5.44,21.77-.51,6.13-.86,12.46-2.65,18.27-5.26,17.02-10.46,34.13-17.07,50.65-10.24,25.58-26.48,46.47-51.07,60.2-6.75,3.77-13.04,8.45-19.21,13.15-10.75,8.17-16.85,19.63-22.23,31.73-5.87,13.22-8.49,26.5-3.5,40.43-1.03,1.19-1.91,2.22-3.54,4.11,3.41,2.39,6.01,4.97,9.14,6.26,7.16,2.96,14.48,5.61,21.9,7.83,30.28,9.04,60.58,18,90.95,26.73,13.03,3.75,25.98,8.21,39.7,8.77,7.41.3,14.7-.52,21.65-3.67,7.66-3.48,15.1-7.51,23.61-8.98,3.47-.6,7.44-1.39,8.56-4.7,3.04-1.59,5.53-2.53,7.6-4.04,7.22-5.25,16-8.07,22.45-14.49.24-.24.6-.38.93-.48,8.3-2.57,14.32-9.29,22.63-12.12,5.28-1.8,9.84-5.63,14.88-8.28,4.93-2.59,7.5-6.68,9.1-12.52-7.56-8.21-19.01-9.52-27.59-14.22,2.19-24.2,4.38-47.58,6.41-70.97,1.98-22.87,3.65-45.78,5.78-68.63.68-7.34,1.99-14.68,3.78-21.83,2.71-10.9,7.93-20.74,14.57-29.79,4.53-6.18,6.98-12.94,7.01-20.68.02-4.57.6-9.15,1.17-13.69,1.34-10.64,1.14-21.09-2.65-31.33ZM108.88,319.19c-1.37-2.26-2.47-4.08-3.89-6.44,4.46-6.07,8.87-12.07,13.65-18.58,1.54,2.3,2.59,3.87,4.01,5.98-4.6,6.36-8.91,12.32-13.76,19.03ZM185.02,102.49c-1.29-1.75-2.21-2.99-3.26-4.41,2.36-10.13,4.72-20.23,7.22-30.95,5.08-2.29,10.02-4.51,15.63-7.03.98,1.98,2.38,3.55,2.48,5.2.62,10.02.95,20.06,1.34,30.1.03.67-.3,1.35-.68,2.96-7.41,1.35-15.09,2.75-22.74,4.14ZM234.84,101.88c-.94-.32-1.87-.63-2.81-.95.94,0,1.89,0,2.84,0,0,.31-.02.63-.03.94ZM229.64,99.57c.57.39,1.14.78,1.72,1.17-.68-.13-1.36-.26-2.05-.39.11-.26.22-.52.33-.79ZM236.87,150.71c.09,0,.18-.01.27-.02l-.02.06c-.08-.01-.17-.03-.25-.04ZM249.27,107.16c-4.67-1.71-9.34-3.42-14.01-5.13,5.2-.02,9.75,2.1,14.38,3.98-.12.38-.25.76-.37,1.15ZM236.01,99.65c-.78-2.43-1.98-4.81-2.23-7.3-.76-7.52-1.16-15.07-1.64-22.61-.12-1.88-.02-3.77-.02-6.39,6.65,3.53,13.07,5.77,14.61,14.19,1.38,7.57,4.15,14.88,6.15,22.34.44,1.64.21,3.46.3,5.43-6.27-2.07-11.73-3.86-17.17-5.66Z"/>
  </g>
</svg>