<?xml version="1.0" encoding="UTF-8"?>
<svg id="Camada_2" data-name="Camada 2" xmlns="http://www.w3.org/2000/svg" viewBox="0 0 360.7 382.2">
  <defs>
    <style>
      .cls-1 {
        fill: #fff;
        stroke-width: 0px;
      }
    </style>
  </defs>
  <g id="Camada_1-2" data-name="Camada 1">
    <g>
      <path class="cls-1" d="M148.6,334.25c-.62,1.42-1.25,2.84-2.19,4.99-8.79-8.83-18.31-7.94-27,0-7.4,6.77-4.29,15.31-1.82,24.62-14.83-10.04-28.81-19.51-42.96-29.09,9.47-5.1,20.54-8,19.76-22.66,1.16,1.56,1.72,2.37,2.34,3.13,2.79,3.51,5.29,7.32,8.46,10.45,13.06,12.86,25.51,9.19,36.05-4.35.16-.04.35-.15.48-.11,13.33,4.99,23.29-4.12,21.04-20.71-2.19-16.16-10.18-29.16-23.54-38.5-14.19-9.92-24.91-5.48-28.17,11.22-9.57,4.12-20.33,6.93-20.72,20.33-4.06-4.82-7.66-9.71-11.9-13.96-4.95-4.96-10.96-8.2-18.36-7.4-11.46,1.23-19.67,10.65-19.42,22.14.02.96.11,1.93.17,2.89l-1.39.34c-.8-3.17-2.23-6.33-2.3-9.52-.28-11.81-.11-23.63-.11-35.27-10.16-7.13-17.4-16-21.5-26.99-2.12-5.68-3.51-11.83-4.01-17.87-1.16-14.02,8.91-20.93,20.69-23.9,1.89-.48,3.75-1.1,5.66-2.14,15.93,2.36,30.14,7.42,36.78,24.47,1.43,3.68,5.21,6.46,8.98,10.94-.69,11.67,4.62,22.89,14.79,31.86,5.18,4.56,11.14,7.89,18.24,5.27,7.7-2.83,12.39-8.25,11.86-17.06-.02-.38.33-.78,1.04-2.3.65,5.09,1.16,9.09,1.67,13.08.57-.03,1.15-.06,1.72-.08,0-2.15.12-4.32-.02-6.46-.6-9.47-1.22-18.95-1.92-28.41-.67-8.96,3.07-15.41,10.84-19.7,14-7.72,28-15.44,41.99-23.18,1-.55,1.97-1.18,3.45-2.07-1.78-.91-3.14-1.6-4.46-2.27-11.27,5.34-16.79-1.57-19.06-10.36-1.73-6.69-1.01-13.28,2.68-19.27,4.89-7.94,13.44-7.99,18.59-.21.85,1.29,1.68,2.6,3.04,4.72.18-5.3-3.55-10.26-8.08-12.03-4.69-1.83-10-.59-13.54,3.67-6.28,7.58-7.07,16.36-4.37,25.46.97,3.26,3.1,6.17,4.61,9.06-5.83-.63-10.97-5.76-11.97-13.3-.66-4.97-2.88-8.67-6.27-12.08-13.61-13.71-27.12-27.51-40.69-41.25-8.01-8.11-6.69-15.87,3.42-21,46.17-23.43,92.33-46.9,138.47-70.39,8.71-4.43,12-3.99,18.96,3.02,7.02,7.08,14.01,14.19,21.27,21.54-4,2.66-7.93,5.27-11.87,7.88-1.24.43-2.48.87-3.72,1.3-1.22-.38-2.45-.76-3.68-1.15-.13-.14-.26-.27-.4-.4-2.54-2.53-5.07-5.07-7.61-7.6-.13-.14-.26-.27-.4-.39-.89-1.49-1.52-3.25-2.73-4.41-4.53-4.37-9.25-8.54-14.34-13.18,4.58-2.58,7.87-4.43,11.15-6.28-8.29,3.05-16.06,7.02-23.75,11.14-3.57,1.92-6.98,4.14-10.47,6.23l.2-.14c-1.23.39-2.56.62-3.69,1.21-11.38,5.88-22.73,11.81-34.06,17.79-.93.49-1.63,1.42-2.44,2.15l.18-.13c-.73.38-1.47.75-2.2,1.13l.21-.13c-2.07,1.04-4.13,2.08-6.2,3.13l.19-.13c-13.4,6.98-26.8,13.97-40.19,20.95-4.7,2.2-9.41,4.4-14.11,6.6.27.49.54.97.8,1.46,4.53-2.59,9.05-5.17,13.58-7.76,5.95-2.83,11.91-5.66,18.1-8.6,6.43,7.19,12.7,14.28,19.1,21.25,1.5,1.63,3.46,2.82,5.21,4.22.12.13.25.25.38.37,1.35,2.36,2.7,4.72,4.24,7.41-11.42,6.71-23.04,13.55-34.66,20.38.21.36.42.72.63,1.09,11.78-6.85,23.56-13.69,35.52-20.64,3.23,3.47,6.31,6.77,9.39,10.08.26-.26.52-.53.78-.79-2.86-3.32-5.71-6.65-8.49-9.89,4.23-2.92,7.98-5.52,11.74-8.12l-.2.14c6.69-3.52,13.38-7.04,20.85-10.97,2.3,2.61,4.7,5.32,7.1,8.03.46.6.92,1.2,1.38,1.8.22-.18.43-.35.65-.53-.57-.52-1.13-1.05-1.7-1.57-2.13-2.8-4.26-5.59-6.42-8.43,6.66-4.25,12.99-8.28,19.33-12.32,2.67-1.18,5.34-2.36,8.48-3.75,2.39,2.59,4.82,5.21,7.24,7.83.2.36.39.73.59,1.09.17-.1.34-.21.52-.31-.26-.35-.53-.7-.79-1.05-2.14-2.78-4.28-5.56-6.42-8.34,2.61-1.98,5-3.8,7.4-5.62l-.19.14c6.51-3.4,13.02-6.8,21.6-11.28,1.58,2.44,3.47,5.37,5.37,8.31.29-.31.59-.62.88-.93-2.21-2.36-4.41-4.73-6.73-7.21,1.19-1.11,2.13-1.99,3.06-2.86,4.27-2.18,8.53-4.36,11.99-6.13,7.71,7.16,15.52,13.85,22.53,21.29,1.88,2,1.4,6.28,1.87,9.53.3,2.1.35,4.24.52,6.41,6.99,2.68,13.65,5.24,20.32,7.77,22.93,8.69,31.73,32.43,19.95,53.86-3.36,6.12-6.77,12.21-10.12,18.24,1.95,3.68,4.17,7.05,5.54,10.73,1.37,3.67,1.9,7.66,2.82,11.63-6.87,4.64-13.3,8.97-19.72,13.3-6.16,3.81-12.38,7.52-18.46,11.45-9.52,6.16-18.94,12.47-28.4,18.72-3.05,1.94-6.09,3.88-9.14,5.81-2.66,1.69-5.33,3.37-7.99,5.06-15.22,9.57-30.44,19.14-45.66,28.71.31.48.62.95.93,1.43,15.04-9.9,30.09-19.8,45.13-29.7,2.64-1.7,5.27-3.41,7.91-5.11,3.02-1.98,6.04-3.97,9.06-5.95,15.69-9.97,31.38-19.95,47.08-29.92,6.04-3.63,12.08-7.27,18.56-11.16v25.47c-10.46,7.41-20.88,14.77-31.26,22.17-1.3.93-2.42,2.12-3.62,3.19-1.04.46-2.19.77-3.1,1.41-8.73,6.1-17.45,12.2-26.11,18.4-10.67,7.63-21.27,15.35-31.9,23.04-.93.75-1.86,1.5-2.79,2.25-9,6.33-18.01,12.66-27.01,18.99-1.98,1.08-3.95,2.16-5.93,3.23.3.45.61.89.91,1.34,1.67-1.53,3.35-3.05,5.02-4.58,2.09-1.18,4.32-2.17,6.25-3.58,6.97-5.07,13.83-10.28,20.74-15.44,1.06-.61,2.12-1.21,3.17-1.82.61-.24,1.29-.38,1.81-.75,14.03-9.86,28.07-19.71,42.03-29.66,5.77-4.11,11.36-8.48,17.03-12.73,9.2-6.21,18.4-12.42,27.61-18.63,1.51-1.02,3.02-2.05,5.39-2.22-2.1,2.01-3.99,4.3-6.33,5.99-27.8,20.03-55.66,39.97-83.51,59.93-12.85,9.21-25.83,18.24-38.53,27.64-8.44,6.25-16.71,6.48-25.45.92-4.43-2.81-9.04-5.35-13.56-8.01-.28.37-.56.74-.84,1.11,5.23,4.17,10.47,8.34,15.7,12.52-.03,2.4-.07,4.8-.1,7.19-2.23,3.4-4.47,6.79-6.68,10.21-.36.63-.73,1.24-1.09,1.88-.18.81-.38,1.59-.58,2.37-.11.96-.22,1.92-.33,2.88-.95.67-1.89,1.34-2.83,2.02-.15.27-.31.54-.12.21.02.36,0,.01-.02-.33.96-.67,1.91-1.34,2.85-2.04.09-.97.21-1.92.32-2.86.2-.79.41-1.58.61-2.38.43-.14.85-.28,1.34-.45-.1-.54-.19-.99-.27-1.44,2.24-3.39,4.49-6.79,6.72-10.2.06-2.37.12-4.72.19-7.07-.14-.45-.29-.91-.61-1.93.9.27,1.42.37,1.89.59,8.16,3.69,15.79,2.86,23.08-2.38,25.28-18.15,50.6-36.24,75.91-54.34.75-.53,1.59-.94,2.73-1.61-3.23,17.22-12.54,29.64-26.08,39.67-34.5,25.56-68.69,51.52-103.06,77.24-4.1,3.07-8.55,5.65-14.01,9.23,2.57-12.89-1.62-22.22-8.16-31.11-1.67-2.27-1.28-6.04-1.85-9.15.62-1.34,1.25-2.65,1.91-3.96,1.47.26,2.92.52,4.4.76.32.07.62.16.26.05.3-.02-.05,0-.39.03-1.41-.28-2.83-.56-4.24-.85-.63,1.37-1.25,2.73-1.88,4.1ZM169.54,362.83c.4-.67.79-1.33,1.19-2,4.53-3.14,9.14-6.17,13.58-9.44,29.73-21.87,59.43-43.78,89.12-65.69,1.32-.98,2.52-2.11,3.78-3.18-1.63-.24-2.59.28-3.46.92-20.09,14.78-40.13,29.61-60.25,44.35-12.16,8.91-24.43,17.68-36.71,26.45,0-.45,0-.91,0-.15-.23-.64-.07-.19.1.26-2.06,2.17-4.12,4.33-6.19,6.5-.39.67-.78,1.33-1.16,2.02.08.46.15.92.23,1.37.09-.03.19-.06.28-.09-.17-.45-.34-.89-.5-1.34ZM183.85,339.27c.34-.09.68-.17.33-.08.29-.31.05-.05-.17.23-.05.96-.11,1.93-.16,2.89-1.9,2.04-3.79,4.08-5.69,6.12.3.25.6.5.9.75,1.57-2.31,3.14-4.62,4.66-6.99.04-.97.08-1.94.13-2.92ZM164.83,340.32v-1.29s-.02,0-.03,0v1.27c.31,1.03.62,2.06.92,3.09.66.49,1.32.97,1.98,1.46-.1.64-.21,1.29-.31,1.93.07.01.14.02.21.03.04-.65.08-1.3.12-1.95-.66-.49-1.31-.97-1.97-1.46-.31-1.02-.62-2.03-.92-3.08ZM162.51,354.07c-.34.36-.67.73-1.01,1.09.04.03.09.07.13.1.28-.38.56-.75.85-1.12.39.04.78.09.93.1-.14-.03-.52-.1-.9-.17ZM42.74,269.95c.35.03.71.07.33.03.33,0-.08,0-.48,0-.17-.39-.33-.78-.08-.2-.42-.46-.12-.13.24.17ZM42.44,259.09c1.18.06,2.37.11,3.55.17.47,1.03.94,2.07,1.4,3.11.16.91.32,1.81.49,2.72.27.69.54,1.37.81,2.06.14-.09.28-.18.42-.27-.42-.57-.85-1.14-1.25-1.75-.19-.88-.38-1.77-.58-2.65-.43-1.08-.87-2.16-1.3-3.25-1.2-.05-2.4-.1-3.6-.15-.11-.42-.22-.83,0-.03-.58-.67-.27-.32.07.04ZM39.71,263.9c-.07.39-.14.78-.22,1.17.03,0,.07.01.1.02.04-.39.09-.78.13-1.18-.35-1.01-.69-2.01-1.04-3.02-.2.12-.4.24-.6.36.54.88,1.08,1.75,1.62,2.65ZM191.74,310.41c-.08-1.06-.16-2.13-.24-3.19-.98-.92-1.97-1.85-2.98-2.75-.78-.24-1.57-.48-2.35-.72-.03.16-.07.32-.1.49.87.05,1.73.11,2.6.16.96.91,1.91,1.83,2.85,2.78.07,1.08.14,2.16.21,3.24.38.9.77,1.8,1.15,2.7l.48-.32c-.54-.78-1.08-1.57-1.62-2.38ZM183.89,312.11c0-.32,0-.65,0-.17-.13-.5-.05-.2.02.09,1.18,1.36,2.36,2.73,3.55,4.08h1.78c0-.07-.01-.13-.02-.2-.59.05-1.19.1-1.78.15-1.19-1.31-2.38-2.61-3.55-3.96ZM155.4,193.82c4.26-2.75,8.51-5.49,12.77-8.24,1.63-.68,3.38-1.16,4.87-2.06,7.96-4.78,15.86-9.67,23.75-14.5,4.99,1.9,9.66,3.64,14.3,5.46,9.99,3.92,12.74,11.28,7.61,20.64-5.12,9.34-10.49,18.54-15.5,27.94-3.24,6.09-1.47,12.18,3.92,15.12,5.35,2.92,11.6,1.1,14.95-4.73,5.8-10.1,11.65-20.19,16.98-30.54,9.27-18.03,1.16-40.11-17.34-47.6-12.03-4.87-24.19-9.42-36.32-14.02-5.65-2.14-11.7.27-13.96,5.35-2.44,5.48-.33,11.7,5.32,14.32,5.66,2.63,11.55,4.77,18.23,7.49-2.88,1.8-5.11,3.13-7.28,4.55-6.48,4.21-12.95,8.46-19.42,12.69-4.39,2.6-8.78,5.2-13.18,7.8-.56.26-1.11.52-1.67.78.14.24.29.47.43.71.52-.39,1.03-.77,1.55-1.16ZM310.19,219.6c1.25-1.82,2.7-3.54,3.72-5.49,2.38-4.54,4.56-9.19,7.31-14.78-2.37,2.91-4.7,4.97-5.98,7.54-2.03,4.08-3.35,8.52-4.98,12.8-5,3.65-9.94,1.23-14.99-.33,1.81,1.43,3.65,2.59,5.65,3.03,3.49.78,7.22,1.59,9.27-2.78ZM246.28,254.69c-.73,1.36-1.69,2.64-2.17,4.09-1.93,5.86-4.26,7.34-10.48,6.11-2.5-.5-4.92-1.37-8.04-2.26,10.55,8.01,18.98,4.44,20.58-8.01,4.05-3.56,8.09-7.11,11.55-10.16-5.2.65-9.91,4.58-11.46,10.24ZM271.33,201.17c6.39,1.47,12.73,3.76,19.2,4.17,6.74.43,13.04-2.31,17.89-7.42,4.02-4.25,3.96-9.4,2.38-14.96,8.38,1.88,16.09,1.84,23.45-1.71,4.84-2.34,8.64-5.76,9.62-11.32.59-3.34.42-6.68-3.34-9.48,0,1.37-.14,2.02.02,2.6,2.1,7.62.13,12.53-6.83,15.9-7.18,3.48-14.69,3.91-22.34,1.59-1.64-.5-3.27-.99-5.48-1.66.22,1.48.14,2.18.42,2.67,5.3,9.25,3.23,15.63-6.65,19.56-7.74,3.08-15.51,3.05-23.31-.21-1.39-.58-3.31.14-4.99.26.56,1.76.82,3.69,1.72,5.24,2.69,4.61,2.6,9.04-1.3,12.68-2.36,2.2-5.27,4.24-8.3,5.24-11.03,3.64-21.21,2.01-30.34-6,.73,1.98,1.71,3.76,3.22,4.77,9.97,6.67,20.55,7.17,31.21,2.03,11.26-5.43,12.64-15.11,3.76-23.95ZM238.41,145.83c1.51-.64,3.03-1.29,4.81-2.05,3.82,1.48,7.84,3.03,11.87,4.59,9.72,3.77,12.49,11.22,7.48,20.31-5.14,9.33-10.46,18.57-15.51,27.95-3.23,5.99-1.59,12.13,3.69,15.17,5.49,3.16,11.8,1.29,15.27-4.79,5.53-9.68,11.06-19.37,16.28-29.22,9.58-18.09,2.82-39.79-15.33-47.88-12.45-5.55-25.32-10.2-38.13-14.91-6.74-2.48-13.27,1.52-14.44,8.2-.91,5.16,1.76,9.77,7.38,12.17,6.04,2.58,12.17,4.92,18.42,7.42-.9,1.24-1.47,2.01-2.03,2.77-4.55,2.37-9.09,4.73-13.64,7.1.29.5.57.99.86,1.49,4.34-2.78,8.69-5.56,13.03-8.34ZM317.23,158.38c1.46,5.84,4.5,8.6,9.25,9.27,5.03.71,8.75-1.49,11.19-5.82,5.55-9.86,11.13-19.72,16.51-29.68,9.82-18.2,2.52-39.94-16.49-48.16-12.06-5.21-24.42-9.74-36.72-14.37-5.99-2.26-11.89.4-14.1,5.89-2.39,5.95.16,11.76,6.79,14.44,11.41,4.62,22.96,8.91,34.4,13.46,7.57,3.01,10.9,10.31,7.55,17.43-5.98,12.71-12.35,25.25-18.4,37.54ZM281.66,184.07c5.33,8,14.35,8.41,18.83.82,6.25-10.6,12.5-21.25,17.86-32.31,8.89-18.33.12-39.51-18.86-46.9-11.32-4.41-22.68-8.72-34.02-13.07-7.01-2.69-13.07-.54-15.47,5.48-2.35,5.88.66,11.87,7.57,14.6,11.15,4.4,22.38,8.57,33.51,13.02,8.58,3.43,11.5,10.87,7.07,19-4.85,8.9-9.76,17.59-11.31,27.91-.61,4.06-3.44,7.78-5.16,11.44ZM24.14,215.09c.02,9.79,7.95,21.95,16.33,25.04,6.5,2.4,10.91-.33,11.57-7.17.88-9.18-6.96-22.46-15.44-26.13-7.52-3.26-12.48.03-12.46,8.26ZM42.51,252.38c10.63,6.75,22.36.6,22.59-12.5.35-20.11-9.09-35.33-25.55-46.37-2.03-1.36-4.48-2.25-6.85-2.92-10.79-3.04-19.06,3.75-18.41,14.98,6.07-9.29,13.47-11.19,23.13-4.86,12.41,8.14,19.53,19.89,20.48,34.84.69,10.83-4.46,16.15-15.39,16.83ZM324.27,136.93c3.76-6.93,7.04-12.29,9.64-17.96,2.06-4.49-.01-10.23-4.52-12.4-5.73-2.75-11.82-4.78-18.23-7.32v10.74c7.76,6.7,11.72,15.37,13.12,26.93ZM97.6,265.38c-.61-7.54-5.04-14.92-13.1-19.69-7.94-4.7-16.89.8-16.57,10.02.32,9.32,4.82,16.55,12.64,21.42,8.03,5,17-.31,17.03-11.75ZM66.49,246.92c7.18-6.83,5.94-22.81-2.47-37.51-9.39-16.42-25.81-26.17-33.57-22.19,23.23,6.32,41.55,35.65,36.04,59.71ZM167.89,278.6c8.48,10.47,3.91,21.4,1.56,32.48,8.23-5.5,6.85-24.02-2.11-38.86-9.59-15.87-24.5-25.23-34.05-21.24,21.7,6.31,31.81,22.81,38.41,42.87-1.23-4.92-2.46-9.84-3.81-15.24ZM127.05,254.13c28.1,12,39.24,30.3,37.17,60.12,7.46-6,5.4-21.92-.82-34.39-8.58-17.22-22.93-27.7-36.35-25.73ZM176.36,306.9c7.26-5.88,5.4-24.18-3.49-38.95-8.86-14.71-22.52-23.35-33.12-20.81,26.94,11.31,37.37,28.33,36.61,59.76ZM220.33,276.56c1.83-6.54.37-9.78-5.12-12.56-11.58-5.86-23.11-11.84-34.85-17.36-5.77-2.72-10.02-6.79-12.4-12.39-2.19-5.13-3.73-10.64-4.8-16.12-1.41-7.24-12.65-17.71-20.69-17.9,2.82,2.35,5.74,4.63,8.95,6.37,6.24,3.37,8.98,8.33,10.06,15.45,1.87,12.34,7.48,22.5,19.96,27.78,8.25,3.49,16.18,7.78,24.11,11.99,6.29,3.34,14.77,4.6,14.77,14.76ZM148.06,78.56c-2.97.94-6.31,1.31-8.85,2.93-7.59,4.85-12.3,14.56-4,21.4,6.94,5.72,19.06,5.86,26.02.25,4.17-3.36,5.65-8.42,3.77-12.89-3.03-7.18-8.95-11.13-16.94-11.69ZM231.46,113.95c.43-.31.87-.63,1.3-.94-2.03-5.62-5.33-10.05-11.76-11.15-5.09-.87-10.01,2.2-13.27,7.95-6.55,11.55-3.55,24.73,7.84,34.41-1.64,1.32-3.28,2.63-4.91,3.95.28.4.56.8.84,1.19,5.32-2.75,10.64-5.49,15.96-8.24-.16-.39-.33-.78-.49-1.17-.88.16-1.81.18-2.62.5-6.09,2.42-10.74,1.11-14-4.5-4.92-8.45-5-17.2-.15-25.66,4.69-8.2,13.15-8.35,18.49-.62.96,1.4,1.85,2.85,2.77,4.27ZM202.74,219.74c-8.39.63-14.17,5.99-14.91,12.34-.71,6.14,3.34,11.93,10.81,15.11,8.38,3.57,17.07,3.79,25.17-.13,3.91-1.89,7.59-5.47,9.89-9.2,3.04-4.92.57-11.15-4.35-13.22.24.82.31,1.44.58,1.95,4.19,7.88,2.65,13.51-5.3,17.64-8.69,4.52-17.67,4.41-26.41.16-4.48-2.17-8.15-5.48-8.12-11.03.03-5.29,3.58-8.33,7.74-10.8,1.62-.96,3.26-1.88,4.89-2.82ZM266.88,90.95c-1.08-7.18-5.56-11.69-11.14-12.09-6.32-.45-10.28,3.17-13.09,8.28-7.63,13.89-2.21,28.69,13.27,35.62,2.31-1.47,4.81-3.07,7.94-5.06-1.55-.56-2.01-.87-2.45-.84-.64.04-1.28.29-1.88.53-6.24,2.49-10.66,1.31-14.01-4.35-4.98-8.41-5.16-17.18-.29-25.64,4.86-8.42,13.32-8.41,18.74-.32.9,1.34,1.94,2.59,2.91,3.88ZM165.19,253.05c5.65,8.9,11.09,17.47,16.49,25.98,4.58-3.68,4.12-11.49-1.62-19.45-5.13-7.11-10.53-9.31-14.87-6.54ZM303.34,68.66c.33-.16.65-.32.98-.48-.03-.6.12-1.3-.12-1.8-2.5-5.12-5.72-9.48-12.04-9.9-6.66-.44-10.44,3.63-13.15,8.94-6.91,13.52-1.84,27.01,13.26,35,2.13-1.27,4.42-2.6,6.66-4,.34-.22.48-.76,1.28-2.11-1.96.42-3.13.52-4.19.92-5.9,2.19-9.64,1.09-13.39-4.03-5.3-7.23-5.43-19.39-.28-26.87,5.14-7.47,12.59-7.6,17.93-.28,1.09,1.49,2.05,3.08,3.07,4.62ZM263.42,240.75c3.56,3.52,8.01,4.09,12.54,2.43,4.92-1.81,7.09-5.89,8.36-10.93.78-3.1,3.08-5.83,4.79-8.68.49-.82,1.3-1.45,1.97-2.16-.54-.38-1.08-.76-1.62-1.13-2.11,3.26-5.32,6.27-6.13,9.83-2.71,11.85-8.61,15.22-19.91,10.64ZM350,183.17c-3.78,1.46-4.88,5.53-6.05,9.71-2.87,10.24-7.85,12.13-16.68,6.97,2.16,1.68,4.54,3.4,7.11,3.74,5.17.68,8.45-2.71,10.66-9.19,1.33-3.91,3.34-7.6,4.97-11.22ZM232.97,143.3c-.27-.68-.55-1.36-.82-2.04-5.31,2.86-10.63,5.71-15.94,8.57l1,1.98c5.26-2.84,10.51-5.67,15.77-8.51ZM272.42,121.8c-.27-.6-.54-1.21-.8-1.81-3.17,1.49-6.35,2.97-9.52,4.46.26.58.51,1.15.77,1.73,3.19-1.46,6.37-2.91,9.56-4.37ZM303.79,105.24c.32-.04.64-.08.96-.12v-8.25l-.96.06v8.3ZM138.24,204.43c-.47-.11-.93-.22-1.4-.34-.66,2.69-1.31,5.38-1.97,8.08.27.06.53.11.8.17.85-2.64,1.71-5.27,2.56-7.91ZM182.57,307.44c.18-.42.25-.61.33-.79-.11,0-.31,0-.32.02-.03.16-.01.32-.01.77ZM160.49,333.45c-.05-.11-.08-.27-.17-.31-.08-.04-.22.05-.33.08.17.08.33.16.5.23ZM166.96,350.67c-.09,0-.18-.02-.27-.03-.03.35-.06.7-.1,1.05.08,0,.16.02.24.03.04-.35.08-.7.12-1.05ZM47.42,270.18l-.33-.2-.06.31.4-.11Z"/>
      <path class="cls-1" d="M198.26,1.69c9.1-3.92,17.95.1,26.88.92,7.77.72,15.49,2.05,23.67,4.18-44.45,22.6-88.89,45.2-133.48,67.87-16.32-5.37-32.64-10.75-50.14-16.51,7.49-3.33,13.83-6.16,20.19-8.97,35.45-15.69,70.9-31.4,106.4-46.98,1.86-.81,4.21-.5,6.33-.71-3.35,1.32-6.78,2.49-10.05,3.99-14.35,6.6-28.66,13.3-42.98,19.97-11.68,5.31-23.36,10.63-35.04,15.94-11.07,4.81-22.15,9.62-33.22,14.43.24.53.49,1.05.73,1.58,10.93-5.22,21.85-10.44,32.78-15.66,11.68-5.32,23.37-10.63,35.05-15.95,7.26-3.1,14.59-6.05,21.76-9.35,10.44-4.79,20.76-9.83,31.13-14.77Z"/>
      <path class="cls-1" d="M45.92,81.87c2.84.75,4.78,1.11,6.6,1.77,13.11,4.81,26.22,9.62,39.28,14.6,2.1.8,4.17,2.1,5.78,3.67,14.66,14.28,29.21,28.67,43.79,43.03,4.52,4.46,6.71,9.72,6.11,16.2-.63,6.73-2.31,7.82-8.63,4.92-16.18-7.42-32.35-14.88-48.53-22.32-12.54-5.78-25.04-11.65-37.64-17.3-5.74-2.57-8.28-6.66-8.02-12.96.36-8.48.29-16.98.49-25.47.04-1.74.42-3.48.77-6.14ZM145.55,157.31c.36-.15.72-.31,1.08-.46-2.18-3.62-4.36-7.25-6.54-10.87l-1.05.62c2.17,3.57,4.34,7.14,6.51,10.71Z"/>
      <path class="cls-1" d="M114.93,169.13v26.46c-5.33,2.86-9.82,6.79-16.77,7.53-4.96.53-9.5,5.1-14.22,7.87-.05.73-.1,1.46-.15,2.19-2.06-2.09-5.07-3.81-6.03-6.32-7.69-20.01-24.19-26.17-43.4-28.23-7.12-.76-14.27-1.18-21.37-2.07-3.37-.42-6.65-1.56-9.98-2.38-2.81-11.47-3.74-22.32-2.4-33.32.18-1.46,1.28-3.34,2.51-4.05,5.47-3.14,10.92-6.63,16.84-8.59,3.61-1.19,8.62-1.01,12.05.59,27.42,12.84,54.61,26.17,81.86,39.36.29.14.49.44,1.06.95ZM27.21,129.44c-2.56.77-5.22,1.24-7.58,2.36-4.35,2.07-8.6,4.39-12.76,6.83-5.47,3.21-5.45,9.69.24,12.61,2.73,1.4,5.99,1.97,9.09,2.37,9.41,1.22,18.93,1.73,28.25,3.37,9.92,1.74,18.73,6.07,24.45,14.92,1.79,2.77,2.83,6.03,4.51,8.88,3.28,5.55,7.89,6.86,13.54,3.76,4.81-2.64,9.61-5.39,14.05-8.6,2.05-1.48,4.49-4.22,4.42-6.31-.07-2.06-2.69-4.83-4.87-5.91-21.95-10.81-44.02-21.37-66.1-31.91-2.22-1.06-4.7-1.56-7.24-2.37Z"/>
      <path class="cls-1" d="M90.77,94.67c4.38-3.36,8.03-.85,10.31,1.45,14.98,15.11,29.56,30.63,44.42,45.86,3.71,3.8,6.4,7.65,7.26,13.19,1.48,9.48,9.5,15.56,19.19,15.61,1.44,0,2.89,0,4.66.76-6.41,3.6-12.81,7.23-19.24,10.8-5.68,3.15-11.42,6.18-17.08,9.35-8.59,4.81-12.38,12.14-11.57,21.97.49,5.92.73,11.87.34,18.25-5.04-11.26-10.57-21.99-22.86-28.01,4.03-2.54,7.34-4.63,10.82-6.82v-30c-17.42-8.45-35.05-17-53.14-25.78.47-2.05.93-4.03,1.49-6.47,18.04,8.29,35.57,16.35,53.09,24.4,6.96,3.2,13.88,6.47,20.9,9.54,6.13,2.69,9.41.57,10.33-5.99,1.08-7.71-1.23-14.16-6.65-19.53-14.9-14.75-29.82-29.48-44.86-44.09-1.84-1.79-4.47-2.75-7.41-4.49Z"/>
      <path class="cls-1" d="M38.8,69.78c8.49-3.76,15.69-7.02,22.97-10.08,1.09-.46,2.65-.31,3.83.07,15.18,4.93,30.32,9.94,45.47,14.96.4.13.72.5,1.78,1.27-7.63,3.1-13.3,7.41-12.4,16.68-20.67-7.68-40.52-15.05-61.65-22.9Z"/>
      <path class="cls-1" d="M115.33,239.71c.1,8.78-5.94,12.59-13.48,8.12-9.02-5.36-14.04-13.59-14.61-24.06-.46-8.5,5.4-12.03,13.05-8.35,8.04,3.87,14.93,15.02,15.04,24.29Z"/>
      <path class="cls-1" d="M39.3,128.98c-.98-1.15-2.8-2.28-2.82-3.44-.18-17.62-.13-35.24-.13-53.95,18.51,6.86,35.98,13.33,53.45,19.8-.13.65-.27,1.3-.4,1.94-1.83-.24-3.77-.17-5.47-.78-10.49-3.78-20.92-7.76-31.4-11.58-7.3-2.65-9.56-1.13-9.75,6.46-.23,8.99-.34,17.99-.57,26.99-.17,6.55,2.66,11.16,8.62,13.88,3.92,1.78,7.82,3.61,11.97,5.53-.48,1.97-.89,3.67-1.51,6.22-7.64-3.88-14.84-7.55-22.05-11.22,0,.04.02.09.04.14ZM39.71,118.41c.1,0,.19,0,.29,0v-26.46c-.1,0-.19,0-.29,0v26.46ZM39.6,80.58c.18-.36.26-.54.35-.72-.12,0-.33,0-.33.02-.04.15-.02.31-.02.69ZM39.87,122.84c-.03.24-.05.48-.07.73.03-.24.05-.48.07-.73Z"/>
      <path class="cls-1" d="M84.88,315.75c.13,14.36-9.15,20.33-20.27,13.86-13.73-7.99-21.25-20.47-22.03-36.32-.63-12.61,8.95-18.48,19.92-12.27,13.88,7.87,20.67,20.57,22.39,34.73ZM80.56,312.73c-.86-10.72-6.24-20.06-16.48-26.22-9.25-5.56-17.39-.97-17.21,9.82.2,12.2,6.06,21.55,16.4,27.94,3.79,2.35,8.01,3.43,12.26.91,4.26-2.54,5.01-6.74,5.03-12.45Z"/>
      <path class="cls-1" d="M92.42,297.09c-.23-14.7,8.72-20.36,19.48-14.13,12.84,7.44,19.46,19.19,21.01,33.72.56,5.23-.57,10.52-5.55,13.58-5,3.07-10.07,1.54-14.57-1.29-12.52-7.88-18.94-19.55-20.37-31.88ZM129.08,313.12c-1.15-10.48-6.32-20.13-17.3-25.83-7.97-4.14-14.84.09-15.45,9.03-.72,10.5,7.42,24.16,17.01,28.56,8.9,4.08,15.64-.29,15.74-11.76Z"/>
      <path class="cls-1" d="M151.24,370.35c.05,10.15-6.91,14.55-16.02,10.14-10.64-5.15-19.22-20.53-18.06-32.35.74-7.52,6.26-11.02,13.47-8.55,10.45,3.57,20.55,18.64,20.61,30.76ZM120.09,353.55c-.01,9.05,6.88,19.85,14.79,23.18,7.43,3.13,13.26-.48,13.17-8.54-.11-10.07-4.79-17.89-13.29-23.13-7.94-4.9-14.66-.87-14.67,8.49Z"/>
      <path class="cls-1" d="M107.52,252.18c8.09-2.84,10.76-6.89,9.55-14.85-1.44-9.49-6.15-17.14-14.15-22.52-6.52-4.39-11.45-3.71-16.57,1.91.46-6.99,4.86-10.58,11.45-9.42,6.1,1.07,10.48,4.82,14.33,9.28,6.51,7.53,10.66,16.07,10.02,26.3-.51,8.21-6.16,11.9-14.65,9.32Z"/>
      <path class="cls-1" d="M87.61,324.67c4.63-19.69-10.12-44.65-29.92-49.47,8.31-3.77,20.29,3.24,28.38,16.6,8.06,13.31,8.71,27.25,1.54,32.87Z"/>
      <path class="cls-1" d="M106.76,277.25c8.59-3.34,19.84,3.29,27.4,15.72,7.71,12.69,8.38,25.63,1.16,32.08,2.76-10.87.2-20.41-5.17-29.31-5.39-8.93-12.51-15.87-23.39-18.49Z"/>
      <path class="cls-1" d="M112.91,274.75c.81-6.11,4.36-9.93,9.79-10.01,3.36-.05,7.01.71,10.07,2.12,13.39,6.15,23.89,24.76,22.63,39.43-.72,8.42-6.09,13.49-13.9,12.42.93-.67,1.41-1.24,2.01-1.42,6.98-2.09,9.84-5.3,9.78-12.48-.14-15.17-7.13-26.89-19.64-35.03-8.4-5.47-13.17-4.1-20.74,4.98Z"/>
      <path class="cls-1" d="M144.26,298.07c-.83.93-1.65,1.86-2.5,2.82-2.75-4.69-5.46-9.31-8.32-14.16,1.59-1.21,3.54-2.69,6.81-5.17-5.98-3.54-11.22-6.64-15.72-9.3,14.59-.66,27.08,19.35,20.01,34.7.25-3.2.45-5.81.65-8.41-.31-.16-.62-.31-.94-.47Z"/>
      <path class="cls-1" d="M130.61,335.31c11.32-.25,17.6,7.15,22.68,16.01,5.35,9.32,5.73,18.48,1.19,23.69.75-18.61-7.08-31.77-23.87-39.7Z"/>
      <path class="cls-1" d="M98.81,204.73c10.72.34,17.08,7.25,22.13,15.6,4.98,8.24,7.72,17,3.14,26.38,2.31-14.7-7.03-34.66-25.27-41.98Z"/>
      <path class="cls-1" d="M154.56,287.35c.97,1.18,2.33,2.22,2.84,3.58,2.58,6.81,3.44,13.74.52,20.74.71-8.38.26-16.59-3.35-24.37l-.02.06Z"/>
      <path class="cls-1" d="M154.58,287.3c.06-.41.11-.83,0,.07.31-.84.16-.45,0-.04-.01.02,0-.04,0-.04Z"/>
      <path class="cls-1" d="M177.17,90.05c-.13-.12-.26-.24-.38-.37-7.58-8.7-15.16-17.4-22.93-26.32,2.18-1.23,3.92-2.19,5.63-3.18,4.94-2.87,9.87-5.75,14.81-8.62,0,0-.19.13-.19.13,2.07-1.04,4.13-2.08,6.2-3.13,0,0-.21.13-.21.13.73-.38,1.47-.75,2.2-1.13,0,0-.18.13-.18.13,1.36-.38,2.73-.77,4.13-1.16.98.39,2,.79,3.03,1.19,0,0-.15-.19-.15-.19,2.88,3.04,5.77,6.08,8.65,9.13.46.46.93.92,1.39,1.39,2.37,2.89,4.74,5.78,7.11,8.66l-.17-.18c3.06,3.39,6.11,6.78,9.17,10.18l-.2-.15c-1.31,1.15-2.5,2.47-3.94,3.43-4.97,3.3-10.02,6.48-15.05,9.71,0,0,.2-.14.2-.14-4.37,2.12-8.74,4.24-13.46,6.54-1.88-2.01-3.78-4.03-5.68-6.05Z"/>
      <path class="cls-1" d="M270.25,41.2c.14.13.27.26.4.4.45.82.91,1.65,1.32,2.38-6.09,4-11.97,7.86-17.84,11.72,0,0,.19-.14.19-.14-2.94,1.31-5.88,2.63-9.26,4.14-3.18-3.33-6.45-6.76-9.72-10.19-5.53-6.62-11.06-13.24-16.45-19.69,1.37-1.31,2.4-2.28,3.43-3.26,0,0-.2.14-.2.14,7.56-3.56,15.13-7.13,22.95-10.81,5.8,5.84,11.49,11.58,17.18,17.31.14.12.27.25.4.39,2.54,2.53,5.07,5.07,7.61,7.6Z"/>
      <path class="cls-1" d="M215.5,234.01c8.1-14.82,15.83-28.98,23.41-42.86,1.71,5.21-16.71,40.81-23.41,42.86Z"/>
      <path class="cls-1" d="M206.33,167.5c5.6,3.33,11.51,6.24,16.69,10.11,3.72,2.78,4.51,7.42,2.39,11.73-5.47,11.12-11.21,22.11-16.89,33.13-.24.47-.93.72-1.42,1.07,0,0,.11.08.11.08,4.25-8.74,8.49-17.48,12.75-26.21.65-1.34,1.41-2.62,2.08-3.95,4.93-9.72,3.64-14.32-5.7-19.98-3.34-2.03-6.78-3.88-10.17-5.81,0,0,.15-.17.15-.17Z"/>
      <path class="cls-1" d="M238.32,175.03c.3,2.74.6,5.49.9,8.23-.77.3-1.54.6-2.31.91-1.13-1.26-3.19-2.53-3.19-3.79,0-1.89,1.45-3.77,2.28-5.66.77.1,1.54.21,2.31.31Z"/>
      <path class="cls-1" d="M192.23,161.6c-5.88-1.97-11.75-3.94-17.65-5.91v-5.44l.5-.07c.2,1.29.39,2.58.59,3.86,5.6,2.61,11.04,5.14,16.49,7.67l.08-.11Z"/>
      <path class="cls-1" d="M192.14,161.71c4.01,1.66,8.02,3.32,12.03,4.98l.07-.09c-4-1.67-8.01-3.33-12.01-5,0,0-.08.11-.08.11Z"/>
      <path class="cls-1" d="M227.14,174.72c3.06,3.71,3.39,5.89,1.79,10.84-.54-3.46-1.11-7.19-1.69-10.93l-.1.09Z"/>
      <path class="cls-1" d="M206.18,225.61c-.5,2.06-.99,4.13-1.49,6.19-.47-.2-.94-.41-1.41-.61,1-1.83,2-3.66,3-5.49l-.1-.09Z"/>
      <path class="cls-1" d="M227.24,174.63c-1.14-.86-2.29-1.72-3.43-2.58.44-.38.88-.75,1.32-1.13.67,1.26,1.35,2.53,2.02,3.79,0,0,.09-.08.09-.08Z"/>
      <path class="cls-1" d="M220.91,167.49c.73.46,1.45.93,2.18,1.39l-.3.62c-.77-.36-1.55-.72-2.32-1.08.15-.31.29-.62.44-.93Z"/>
      <path class="cls-1" d="M204.17,166.69c.72.27,1.44.55,2.16.82,0,0-.15.16-.15.16-.65-.36-1.3-.71-1.94-1.07,0,0-.07.09-.07.09Z"/>
      <path class="cls-1" d="M206.28,225.7c.31-.69.63-1.39.94-2.08,0,0-.11-.08-.11-.08-.31.69-.62,1.38-.93,2.07,0,0,.1.09.1.09Z"/>
      <path class="cls-1" d="M259.41,208.29c8.28-15.06,15.98-29.06,23.76-43.21,1.28,6.03-17.09,40.8-23.76,43.21Z"/>
      <path class="cls-1" d="M262.63,180.01c-4.21,8.33-8.42,16.65-12.95,25.62.15-1.53-.03-2.63.38-3.45,3.44-6.97,6.95-13.91,10.56-20.79.33-.63,1.43-.85,2.16-1.27-.02-.02-.13-.11-.13-.11Z"/>
      <path class="cls-1" d="M242.2,136.67c6.98,3.34,13.97,6.68,20.95,10.02l.09-.1c-6.98-3.34-13.97-6.69-20.95-10.03,0,0-.09.11-.09.11Z"/>
      <path class="cls-1" d="M274.42,159.29c1.44-7.66-2-13.12-8.56-18.01,7.7,2.71,11.25,10.6,8.56,18.01Z"/>
      <path class="cls-1" d="M279.28,156.62c-.21-2.59-.41-5.18-.62-7.77.55-.05,1.1-.09,1.66-.14,2.58,2.36,3.1,4.92.74,7.76-.59.05-1.19.1-1.78.15Z"/>
      <path class="cls-1" d="M267.26,169.67c.1-.64,0-1.42.34-1.89,4.4-6.17,4.72-12.23-.32-18.22,0,0-.09.11-.09.11,5.08,3.6,6.53,8.18,3.99,13.45-1.09,2.27-2.66,4.31-4.02,6.46,0,0,.1.09.1.09Z"/>
      <path class="cls-1" d="M224.26,129.61c5.98,2.35,11.96,4.71,17.94,7.06,0,0,.09-.11.09-.11-5.98-2.35-11.97-4.7-17.95-7.05l-.08.1Z"/>
      <path class="cls-1" d="M224.34,129.51c-5.17.28-4.16-2.97-3.88-5.58,1.23,1.84,2.51,3.76,3.8,5.68,0,0,.08-.1.08-.1Z"/>
      <path class="cls-1" d="M263.15,146.68c1.34,1,2.69,1.99,4.03,2.99,0,0,.09-.11.09-.11-1.35-.99-2.69-1.98-4.04-2.98,0,0-.09.1-.09.1Z"/>
      <path class="cls-1" d="M265.17,173.59c-.34.66-.67,1.32-1.01,1.99,0,0,.1.08.1.08.34-.66.67-1.32,1.01-1.98,0,0-.1-.09-.1-.09Z"/>
      <path class="cls-1" d="M263.25,177.65c.33-.66.67-1.33,1-1.99,0,0-.1-.08-.1-.08-.34.66-.67,1.33-1.01,1.99l.1.09Z"/>
      <path class="cls-1" d="M266.18,171.61c-.34.66-.67,1.33-1.01,1.99,0,0,.1.09.1.09.34-.67.67-1.33,1.01-2l-.09-.08Z"/>
      <path class="cls-1" d="M266.27,171.68c.33-.67.66-1.34.99-2.02,0,0-.1-.09-.1-.09-.33.67-.65,1.35-.98,2.03,0,0,.09.08.09.08Z"/>
      <path class="cls-1" d="M263.15,177.57c-.19.8-.37,1.6-.54,2.43.02.02.13.11.16.13.18-.81.33-1.64.49-2.47,0,0-.1-.09-.1-.09Z"/>
      <path class="cls-1" d="M330.77,162.7c8.37-15.27,16.09-29.34,23.76-43.34,1.37,5.64-16.71,40.39-23.76,43.34Z"/>
      <path class="cls-1" d="M333.88,136.23c-4.01,7.48-8.02,14.96-12,22.39-.04-.14-.46-.81-.27-1.19,3.35-6.86,6.74-13.69,10.23-20.47.24-.47,1.4-.47,2.12-.69l-.09-.04Z"/>
      <path class="cls-1" d="M351.7,98.57c.68,2.15,1.7,4.28,1.86,6.47.06.82-1.86,1.8-2.87,2.7-.54-.25-1.08-.49-1.63-.74.17-2.73.33-5.45.5-8.18.71-.08,1.43-.17,2.14-.25Z"/>
      <path class="cls-1" d="M310.22,88.61c-5.87-1.97-11.75-3.94-17.68-5.94v-5.36c.17-.03.33-.05.5-.08.3,1.44.59,2.88.81,3.96,5.69,2.63,10.99,5.07,16.28,7.52l.08-.1Z"/>
      <path class="cls-1" d="M343.24,115.65c1.53-7.89-4.39-11.6-8.98-16.06,0,0-.09.1-.09.1,7.92,2.58,11.88,9.59,8.96,15.87,0,0,.11.09.11.09Z"/>
      <path class="cls-1" d="M310.13,88.71c5.33,2.34,10.66,4.68,15.99,7.02l.08-.11c-5.33-2.34-10.66-4.68-15.98-7.02,0,0-.09.1-.09.1Z"/>
      <path class="cls-1" d="M347.1,112.23c-.84-3.99-1.77-8.37-2.52-11.93,3.24,2.54,4.24,6.78,2.52,11.93Z"/>
      <path class="cls-1" d="M326.12,95.73c2.68,1.32,5.37,2.64,8.05,3.96,0,0,.09-.1.09-.1-2.68-1.32-5.37-2.64-8.05-3.96,0,0-.08.11-.08.11Z"/>
      <path class="cls-1" d="M333.97,136.27c.78-2.18,1.56-4.36,2.35-6.54l-.1-.08c-.79,2.18-1.59,4.36-2.36,6.56.03.02.11.06.11.06Z"/>
      <path class="cls-1" d="M338.25,125.65c.68-1.31,1.37-2.62,2.05-3.93l-.11-.09c-.68,1.31-1.36,2.62-2.04,3.93,0,0,.1.09.1.09Z"/>
      <path class="cls-1" d="M340.3,121.71c.7-1.31,1.39-2.61,2.09-3.92l-.1-.09c-.7,1.31-1.39,2.61-2.09,3.92,0,0,.11.09.11.09Z"/>
      <path class="cls-1" d="M336.31,129.73c.65-1.36,1.29-2.72,1.93-4.08,0,0-.1-.09-.1-.09-.65,1.36-1.29,2.72-1.94,4.08,0,0,.11.08.11.08Z"/>
      <path class="cls-1" d="M339.36,94.65c.5.41.99.81,1.49,1.22-.13.2-.26.4-.38.61-.57-.3-1.14-.6-1.71-.9.2-.31.41-.62.61-.93Z"/>
      <path class="cls-1" d="M342.38,117.8c.29-.72.57-1.43.86-2.15,0,0-.11-.09-.11-.09-.29.71-.57,1.43-.86,2.14,0,0,.11.09.11.09Z"/>
      <path class="cls-1" d="M317.97,142.75c.61,7.36-17.79,41.76-23.91,43.67,8.13-14.85,15.88-29.01,23.91-43.67Z"/>
      <path class="cls-1" d="M303.18,145.59c4.86-13.64,4.58-14.44-7.82-22.65-.46-.31-.72-.92-1.07-1.39l-.09.11c3.86,2.7,8.31,4.86,11.42,8.25,3.99,4.35,2.51,10.71-2.56,15.59l.12.09Z"/>
      <path class="cls-1" d="M294.29,121.55c-9.34-4-18.67-8-28.01-11.99l-.08.11c9.33,4,18.67,8,28,12,0,0,.09-.11.09-.11Z"/>
      <path class="cls-1" d="M317.1,126.16c2.56,4.44,1.08,6.77-2.65,9.16-1.63-4.09-1.93-6.96,2.65-9.16Z"/>
      <path class="cls-1" d="M310.13,135.54c-.11-7.78-.87-9.33-8.09-16.57,6.75,2.57,10.62,10.56,7.98,16.48l.11.08Z"/>
      <path class="cls-1" d="M266.29,109.56c-2.8-.8-5.9-1.12-8.3-2.57-1.54-.93-2.06-3.54-3.03-5.39.56-.23,1.12-.47,1.68-.7.15,1.4.31,2.8.46,4.16,3.13,1.59,6.12,3.1,9.12,4.62,0,0,.08-.11.08-.11Z"/>
      <path class="cls-1" d="M291.21,169.65c-1.86,4.35-3.72,8.7-5.58,13.06.34-5,2.12-9.37,5.68-12.97,0,0-.1-.08-.1-.08Z"/>
      <path class="cls-1" d="M303.07,145.49c-1.03,1.98-2.05,3.95-3.07,5.94,0,0,.11.1.11.1,1.03-1.98,2.05-3.96,3.08-5.94,0,0-.12-.1-.12-.1Z"/>
      <path class="cls-1" d="M295.25,161.66c.67-1.33,1.33-2.66,2-3.99,0,0-.07-.06-.07-.06-.68,1.32-1.36,2.65-2.03,3.97,0,0,.11.09.11.09Z"/>
      <path class="cls-1" d="M293.17,165.6c-.35.64-.7,1.29-1.05,1.93,0,0,.1.08.1.08.35-.64.7-1.28,1.05-1.93l-.1-.09Z"/>
      <path class="cls-1" d="M293.27,165.69c.41-.59.83-1.18,1.24-1.78l-.12-.1c-.41.6-.82,1.19-1.22,1.79,0,0,.1.09.1.09Z"/>
      <path class="cls-1" d="M298.18,155.61c-.33.66-.67,1.33-1,1.99,0,0,.07.06.07.06.34-.66.69-1.31,1.03-1.97l-.1-.08Z"/>
      <path class="cls-1" d="M298.28,155.69c.27-.72.54-1.44.81-2.17l.2.17c-.37.64-.74,1.27-1.12,1.91,0,0,.1.08.1.08Z"/>
      <path class="cls-1" d="M299.09,153.53c.34-.66.69-1.33,1.02-2,0,0-.11-.1-.12-.1-.24.75-.47,1.51-.7,2.27,0,0-.2-.17-.2-.17Z"/>
      <path class="cls-1" d="M294.51,163.91c.25-.75.49-1.5.74-2.25,0,0-.11-.09-.11-.09-.25.74-.51,1.48-.76,2.23,0,0,.12.11.12.11Z"/>
      <path class="cls-1" d="M310.02,135.46c.07.57.13,1.15.03.29-.32.81-.12.3.08-.21,0,0-.11-.09-.11-.09Z"/>
      <path class="cls-1" d="M291.32,169.73c.3-.7.61-1.41.91-2.11,0,0-.1-.08-.1-.08-.31.7-.61,1.41-.91,2.11,0,0,.1.08.1.08Z"/>
      <path class="cls-1" d="M235.14,49.7c2.81,3.59,5.61,7.19,8.56,10.95-2.22,1.62-4.42,3.22-6.61,4.81-5.06,2.78-10.09,5.63-15.21,8.3-2.16,1.13-4.52,1.88-6.78,2.81,0,0,.2.15.2.15-3.06-3.39-6.11-6.78-9.17-10.18l.17.18c-2.37-2.89-4.74-5.78-7.11-8.66-.46-.46-.93-.92-1.39-1.39-2.88-3.04-5.77-6.08-8.65-9.13,0,0,.15.19.15.19-.16-.79-.33-1.57-.58-2.78,9.16-4.81,18.4-9.66,27.9-14.65,6.26,6.55,12.39,12.97,18.53,19.4Z"/>
      <path class="cls-1" d="M88.4,267.51c.02,6.68-3.48,8.9-8.38,5.96-5.61-3.37-8.74-8.53-9.15-15.06-.34-5.52,3.74-7.97,8.47-5.06,5.53,3.41,8.66,8.48,9.07,14.17Z"/>
      <path class="cls-1" d="M85.92,277.1c5.31-5.12,5.61-11.08,1.65-17.83-4.47-7.62-9.6-10.06-16.6-7.89,1.96-3.67,3.75-4.46,7.59-3.33,7.82,2.31,15.71,14.84,14.36,22.94-.56,3.36-2.18,5.77-7,6.11Z"/>
      <path class="cls-1" d="M94.9,269.14c-1.9-10.94-3.95-14.51-12.44-21.63,7.82,2.31,14.66,14.13,12.49,21.57l-.04.06Z"/>
      <path class="cls-1" d="M94.95,269.08c.04.23.08.46.09.49,0,0-.06-.2-.13-.42,0,0,.04-.07.04-.07Z"/>
      <path class="cls-1" d="M166.91,303.95c-1.34-6.64-2.66-13.24-3.89-19.34,3.63,3.84,5,10.07,3.89,19.34Z"/>
      <path class="cls-1" d="M179.04,296.96c-1.48-6.98-2.9-13.71-4.41-20.84,4.37,6.55,5.45,13.37,4.41,20.84Z"/>
      <path class="cls-1" d="M155.27,82.72c3.85.98,6.7,3.75,6.01,7.35-.56,2.93-3.07,6.32-5.68,7.86-5.16,3.05-11.2,2.8-16.04-.76-2.25-1.65-4.37-5.66-3.94-8.15.44-2.55,3.72-5.71,6.39-6.51,3.39-1.03,7.41.05,11.17.21l-.06-.13c.74,0,1.47,0,2.21,0l-.06.13ZM157.81,89.98c.29-.25.59-.5.84-.72,0,0-.1-.05-.13-.02-.28.26-.56.53-.81.79.1.19.2.38.07.14-.05.3,0,.06.03-.19ZM152.95,95.57c-2.19.21-4.37.41-6.56.62.02.16.04.32.05.48,2.12-.39,4.24-.78,6.39-1.16.3-.09.6-.17.36-.1.24-.15,0,0-.25.16ZM138.82,86.39c-.1.04-.29.07-.29.12-.02.13.05.27.08.41.07-.18.14-.36.21-.54Z"/>
      <path class="cls-1" d="M133.15,93.35c8.05,12.02,24.7,10.06,30.19-.07.73,3.71-.53,6.78-4.22,9.1-6.61,4.14-13.54,4.3-20.41.73-4.59-2.38-5.94-5.08-5.56-9.76Z"/>
      <path class="cls-1" d="M153.18,82.72c.7,0,1.39,0,2.09,0,0,0,.06-.13.06-.13-.74,0-1.47,0-2.2,0l.06.13Z"/>
      <path class="cls-1" d="M176.7,265.98c1.67-.53,2.87-.9,4.99-1.57.45,3.38.84,6.29,1.23,9.21-.46.14-.91.28-1.37.43-1.51-2.51-3.02-5.02-4.85-8.07Z"/>
      <path class="cls-1" d="M103.74,168.49c-.91,1.54-1.53,3.84-3.02,4.88-4.62,3.23-9.52,6.08-14.43,8.89-4.83,2.76-7.96,1.87-10.93-2.81-.53-.84-1.07-1.71-1.41-2.63-4.38-11.91-13.6-18.48-25.32-21.1-9.84-2.2-20.03-2.77-30.06-4.13-2.95-.4-5.97-.72-8.78-1.64-3.25-1.06-5.39-3.27-4.12-8,5.4-2.88,11.04-6.47,17.14-8.89,2.76-1.09,6.89-.81,9.64.47,23.19,10.84,46.2,22.04,69.26,33.16.43.21.75.65,2.04,1.8Z"/>
      <path class="cls-1" d="M48.34,297.02c.49-9.8,7.04-13.58,14.62-9.12,9.71,5.71,14.96,14.6,15.89,25.68.79,9.34-6.04,13.79-14.19,9.31-10.49-5.76-15.15-15.37-16.32-25.87ZM59.16,297.81c-3.59,5.43-.49,13.78,5.51,15.29,3.37.85,5.06-.92,5.49-3.99.85-5.95-4.53-11.56-11-11.3Z"/>
      <path class="cls-1" d="M127.21,314.39c.03,8.86-5.55,12.43-13.46,8.61-8.92-4.31-16.18-16.78-15.52-26.65.5-7.43,5.58-10.52,12.54-7.62,8.49,3.54,16.41,15.91,16.44,25.66ZM108.11,299.03c-3.39,3.71-1.56,7.36.62,10.71,1.98,3.04,4.68,5.2,8.82,3.23,2.68-3.52,1.42-6.92-.59-10.06-1.96-3.07-4.59-5.27-8.85-3.88Z"/>
      <path class="cls-1" d="M121.59,352.18c.82-1.49,1.63-5.18,3.7-6.13,2.33-1.07,6.33-.6,8.67.78,7.61,4.49,11.8,11.59,12.25,20.46.4,7.77-5.12,11.19-11.7,7.22-7.75-4.67-11.74-11.89-12.92-22.34ZM138.28,366.35c2.06-4.93.24-10.16-4.19-12.03-3.04-1.28-4.88-.1-5.46,2.95-1.03,5.45,4.09,10.19,9.65,9.08Z"/>
      <path class="cls-1" d="M60.04,299.63c6.62.69,9.84,6.54,6.76,11.69-6.22-1.45-8.58-5.39-6.76-11.69Z"/>
      <path class="cls-1" d="M115.96,311.73c-5.84-1.17-8.23-4.89-7.05-10.59,5.76-.85,9.43,4.41,7.05,10.59Z"/>
      <path class="cls-1" d="M136.5,365.1c-4.86-1.45-6.45-4.09-5.38-8.96,5.14.3,7.34,3.96,5.38,8.96Z"/>
    </g>
  </g>
</svg>