<svg width="400" height="400" viewBox="0 0 400 400" fill="none" xmlns="http://www.w3.org/2000/svg">
<g clip-path="url(#clip0_1677_67)">
<g clip-path="url(#clip1_1677_67)">
<path d="M365.324 95.0688C374.632 95.0688 382.777 95.0688 390.921 95.0688C395.716 95.0688 400.829 96.2675 399.877 101.767C399.418 104.447 394.165 107.779 390.78 108.166C382.759 109.101 374.544 108.466 365.853 108.466L365.853 143.775C374.262 143.775 382.442 143.158 390.445 144.057C393.918 144.445 399.436 147.548 399.859 150.104C400.917 156.52 395.152 156.855 390.287 156.873C382.16 156.908 374.033 156.873 366.065 156.873C363.984 174.342 363.984 174.201 347.096 174.201C247.669 174.148 148.259 174.166 48.8323 174.148C35.117 174.148 34.8526 173.902 34.8526 160.575C34.8526 136.601 35.0641 112.626 34.7115 88.6522C34.6058 80.5785 37.0033 77 45.6415 77C148.577 77.1939 251.512 77.1763 354.429 77.0529C362.257 77.0529 366.029 79.75 365.342 87.7884C365.165 89.7804 365.324 91.79 365.324 95.0688ZM326.311 125.266C325.924 119.642 322.592 115.729 316.175 114.953C310.181 114.231 304.469 119.307 304.54 125.389C304.628 131.841 308.224 135.772 314.588 136.565C320.511 137.306 326.012 132.105 326.294 125.248L326.311 125.266ZM189.317 125.178C189.546 131.894 194.429 136.671 200.124 136.671C206.223 136.671 211.142 131.488 210.93 125.283C210.719 119.113 205.377 114.107 199.295 114.865C192.861 115.658 189.652 119.713 189.335 125.195L189.317 125.178ZM84.5132 136.601C90.2074 136.777 95.2669 132.194 95.69 126.447C96.1307 120.453 91.2475 114.812 85.1126 114.865C78.6252 114.918 74.7821 118.602 74.0064 124.966C73.2836 130.942 78.4312 136.407 84.4956 136.601L84.5132 136.601ZM246.981 125.054C246.928 131.488 251.512 136.389 257.259 136.689C263.2 136.988 268.577 131.841 268.612 125.812C268.647 119.766 263.411 114.424 257.365 114.883C250.913 115.376 247.493 119.272 246.964 125.054L246.981 125.054ZM131.635 126.006C131.723 131.647 136.677 136.565 142.336 136.653C148.418 136.742 153.583 131.594 153.266 125.46C152.931 118.884 149.07 115.323 142.689 114.883C136.73 114.477 131.547 119.942 131.653 126.024L131.635 126.006Z" fill="white"/>
<path d="M34.2883 243.832C35.3107 223.666 35.5223 225.869 52.7457 225.852C152.173 225.763 251.617 225.816 351.045 225.852C365.112 225.852 365.324 226.116 365.324 240.042C365.306 263.734 365.324 287.409 365.324 311.101C365.324 322.066 364.354 323 353.142 323C253.134 323 153.107 323 53.0983 323C41.8158 323 35.487 317.177 34.112 305.531C25.8969 305.531 17.5055 305.478 9.1318 305.548C4.23097 305.601 -0.581716 304.297 0.299729 298.744C0.687566 296.258 5.6589 293.05 8.79685 292.715C17.1177 291.869 25.5972 292.433 34.4469 292.433L34.4469 256.93C26.4434 256.93 18.387 256.93 10.3306 256.93C5.48264 256.93 0.0881681 256.93 0.0352817 250.408C-0.0176048 243.885 5.39449 243.815 10.2424 243.815C18.0873 243.815 25.9322 243.815 34.3412 243.815L34.2883 243.832ZM95.8132 274.629C95.9542 268.653 90.736 263.188 84.6717 263.505C78.149 263.84 74.5351 267.771 74.0415 274.117C73.5655 280.181 78.9423 285.593 85.0419 285.223C91.5117 284.835 95.0199 281.028 95.8132 274.646L95.8132 274.629ZM316.457 263.452C309.634 263.294 304.205 268.494 304.575 274.54C304.98 280.992 308.735 284.747 315.17 285.152C321.234 285.54 326.558 280.164 326.223 274.1C325.87 267.577 321.886 264.281 316.457 263.452ZM268.629 274.505C268.7 268.476 263.499 263.047 257.488 263.47C251.053 263.911 247.263 267.683 247.104 274.188C246.946 280.798 250.824 284.5 257.171 285.188C263.182 285.84 268.541 280.552 268.629 274.505ZM210.895 274.064C210.754 267.912 205.465 262.782 199.436 263.47C193.054 264.21 189.335 268.124 189.423 274.611C189.511 281.204 193.583 284.747 199.947 285.188C206.047 285.611 211.036 280.27 210.895 274.082L210.895 274.064ZM153.231 273.624C152.825 267.754 149.194 264.087 142.829 263.505C136.977 262.976 131.459 268.459 131.67 274.505C131.9 281.08 135.796 284.694 142.124 285.241C148.224 285.769 153.283 280.534 153.231 273.624Z" fill="white"/>
</g>
</g>
<defs>
<clipPath id="clip0_1677_67">
<rect width="400" height="400" fill="white"/>
</clipPath>
<clipPath id="clip1_1677_67">
<rect width="246" height="400" fill="white" transform="translate(400 77) rotate(90)"/>
</clipPath>
</defs>
</svg>
