<?xml version="1.0" encoding="UTF-8"?>
<svg id="Camada_2" data-name="Camada 2" xmlns="http://www.w3.org/2000/svg" viewBox="0 0 574.1 214.51">
  <defs>
    <style>
      .cls-1 {
        fill: #fff;
        stroke-width: 0px;
      }
    </style>
  </defs>
  <g id="Camada_1-2" data-name="Camada 1">
    <g>
      <path class="cls-1" d="M573.61,156.18c-1.81-8.67-2.85-17.5-4.48-26.21-1.97-10.53-2.84-20.94-.22-31.56.98-3.96.75-8.41.2-12.51-1.14-8.44-3.53-16.75-4.16-25.2-.64-8.56-4.73-15.25-9.04-22.06-.52-.82-1.25-1.53-1.61-2.41-4.33-10.33-14.3-14.94-22.07-21.78-.25-.22-.9.03-2.55.13,1.2,3.82,2.29,7.34,3.43,10.84,1.21,3.73,2.48,7.43,3.96,11.84-8.93,2.03-16.65,3.71-24.33,1.94-2.33-2.78-3.18-6.79-7.74-5.21-.99,1.15-2.03,2.34-3.5,4.04-3.81,0-7.94.24-12.03-.09-2.58-.2-5.15-1.95-7.64-1.79-12.81.82-25.67,1.52-38.35,3.36-5.67.82-11.48,3.43-16.31,6.62-7.31,4.84-14.89,7.55-23.57,7.2-13.82-.55-27.66-.94-41.46-1.89-4.87-.34-10.13-1.2-14.38-3.41-12.76-6.64-25.97-11.13-40.37-12.44-16.83-1.54-33.59-3.72-50.39-5.55-4.94-.54-10.26-2.19-14.78-.98-13.5,3.61-27.06,3.65-40.73,2.74-21.07-1.4-42.12-3.2-63.19-4.54-17.32-1.1-33.84-4.55-48.73-14.04-7.18-4.57-14.58-8.8-21.96-13.23-1.78.87-3.21,1.55-4.62,2.27-16.39,8.35-30.28,20.17-44.45,31.67-7.6,6.17-14.73,12.5-18.54,22.35,1.33,2.88,3.16,5.97,4.2,9.3,3.55,11.38,7.5,22.7,10.06,34.32,3.84,17.45,7.53,35.03,9.57,52.75,1.38,12.01,4.65,21.81,15.87,27.23,6.8,3.28,13.92,6.07,21.16,8.24,11.57,3.46,23.3,6.46,35.05,9.24,24.69,5.83,49.78,8.96,75.09,10.37,1.82.1,3.63.22,5.44.33l17.99,3.77c13.84-.46,24.63,3.31,38.46,2.57,10.46-.55,20.89-1.41,31.35-1.95,14.95-.77,29.92-1.22,44.87-2.09,18.49-1.08,36.95-2.58,55.43-3.66,20.11-1.17,40.24-2.04,60.36-3.07,6.28-.32,12.55-.71,18.82-1.08,15.44-.9,30.87-1.87,46.31-2.67,2.87-.15,5.8.69,8.65.42,10.34-.97,20.66-2.19,30.98-3.35l22.6-10.59c4.67-3.34,8.83-6.02,12.65-9.13,6.64-5.39,10.6-11.89,8.68-21.07ZM102.4,168.52c-1.26.61-2.85,1.3-4.09,1.02-4.3-.97-8.73-1.85-12.69-3.67-8.28-3.8-12.87-16.56-8.63-24.41,1.48-2.74,4.8-4.56,7.49-6.53,1.25-.92,2.95-1.26,4.48-1.73,14.64-4.45,22.75,2.66,23.31,18.89-.24,6.53-2.58,12.91-9.87,16.42ZM149.76,68.14c-3.06-4.29-6.48-9.07-9.89-13.85.3-.59.61-1.17.92-1.76,24.76,1.75,49.39,4.68,74.48,8.32v13.48c-21.65-2.05-43.18-4.08-65.51-6.19ZM197.95,76.27c.28-.06.52-.1,0,0,.51.1.28.05,0,0ZM198.66,118.53c-4.87-1.41-5.64-8.95-1.73-15.08h20.45c.42,5.65.8,10.69,1.22,16.2-7.09,1.22-13.67.69-19.94-1.12ZM396.65,68.75c2-.19,3.85-.5,5.71-.51,18.89-.07,37.78.05,56.66-.16,12.38-.14,24.75-.67,37.12-1.21,2.06-.09,4.07-1.08,6.39-1.73-.72,6-5.42,10.95-10.77,11.37-22.45,1.75-44.91,3.52-67.38,4.89-8.96.55-17.99.09-27.73.09v-12.74ZM390.61,69.14v12.3c-4.98,0-9.6.11-14.21-.02-7.73-.22-15.47-.34-23.17-.93-23.28-1.78-46.55-3.73-69.82-5.7-6.2-.53-11.43-3.29-15.65-7.86-1.01-1.09-1.72-2.45-3.02-4.36,42.43,2.22,83.82,4.38,125.88,6.57ZM506.4,169.75c-.79.02-1.58.04-2.37.06v-14.65c-.59-.02-1.18-.05-1.77-.07-.45,4.92-.91,9.84-1.45,15.72-88.01,7.69-175.63,11.53-262.97,11.46-.84-1.15-1.33-1.5-1.36-1.9-1.35-17.99-3.27-36.02.07-53.96.52-2.8,2.99-5.64,5.29-7.6,3.61-3.07,5.7-6.2,6.49-11.18.83-5.24,3.66-10.24,6.15-15.08.64-1.25,3.27-2.15,4.96-2.11,18.05.43,36.09,1.04,54.13,1.7,12.41.45,24.88,2.15,37.19,1.33,16.62-1.1,32.88,3.6,49.42,1.7,7.31-.84,14.62-1.64,21.94-2.42.95-.1,1.96-.17,2.87.05,11.56,2.78,23.1.7,34.67.11,14.81-.75,29.64-1.12,44.47-1.6,1.07-.03,2.15.4,3.9.76.61,26.25.02,51.99-1.62,77.69ZM518.62,142.48c-.99,2.88-1.77,5.83-2.65,8.75-.14,0-.27,0-.41.01v-48.28c7.22,12.72,7.73,25.93,3.06,39.52ZM516.38,75.96c4.94-5.21,8.96-11.38,17.05-12.2,2.95,2.69,7.04,4.6,6.39,10.56-7.65,1.08-15.13,4.26-23.44,1.64ZM534.08,115.47v-13.11c3.38-.37,6.03-.67,8.52-.94,4.11,7.92.29,14.26-8.52,14.05Z"/>
      <path class="cls-1" d="M94.05,160.2c-.11.04-.25.14-.32.1-.08-.04-.09-.2-.13-.32.11-.04.25-.14.32-.11.08.04.09.21.13.32Z"/>
    </g>
  </g>
</svg>