<?xml version="1.0" encoding="UTF-8"?>
<svg id="Camada_2" data-name="Camada 2" xmlns="http://www.w3.org/2000/svg" viewBox="0 0 560.6 278.84">
  <defs>
    <style>
      .cls-1 {
        fill: #fff;
        stroke-width: 0px;
      }
    </style>
  </defs>
  <g id="Camada_1-2" data-name="Camada 1">
    <g>
      <path class="cls-1" d="M44.85,259.62c1.17-2.32,1.93-3.82,2.84-5.63-1.96-2.53-4.12-4.91-5.81-7.59-4.13-6.5-8.04-13.14-12.03-19.73-1.26-2.09-2.39-4.26-3.74-6.29-5.48-8.24-7.19-17.7-8.84-27.17-3-17.24-5.77-34.52-9.03-51.7-2.29-12.05-5.3-23.96-7.84-35.96-.41-1.94-.63-4.22-.02-6.03,2.6-7.69,5.26-15.38,8.5-22.82,1.38-3.18,3.9-6.07,6.46-8.5,5.23-4.97,8.71-10.91,10.98-17.61,4.75-14.01,11.72-27,18.24-40.2,1.59-3.21,3.98-5.52,7.36-6.69,4.05-1.4,7.75-4.06,12.82-3.66,7.43,7.99,17.83,8.47,28,9.3,22.79,1.87,45.61,3.39,68.4,5.27,10.72.88,21.42,2.16,32.1,3.42,9.18,1.08,18.4,2.09,27.49,3.73,4.56.82,8.92,2.88,13.28,4.62,1.11.44,2.17,1.64,2.73,2.76,7.05,14.01,19.55,21.28,33.45,26.4,6.86,2.53,14.14,4.25,21.38,5.3,36.85,5.36,73.76,10.31,110.62,15.57,18.69,2.66,37.33,5.71,56.01,8.49,7.43,1.11,14.89,1.96,22.03,2.89,5.16-4.46,4.92-10.59,7.02-16.17,1.67,0,3.32-.1,4.96.02,11.32.79,22.64,1.56,33.95,2.48,3,.24,6,.83,8.94,1.51,3.84.89,6.76,3.17,9.06,6.38,3.19,4.45,6.43,8.86,9.8,13.18,3.94,5.04,4.53,11.09,5.48,17.05,2.19,13.78.94,27.54-.36,41.29-.45,4.7-1.25,9.36-1.62,14.06-.42,5.3-.31,10.63,1.65,15.67,2.66,6.84.92,13.06-2.77,18.8-3.66,5.71-7.8,11.11-11.81,16.75.25,11.19-7.3,17.4-18.23,19.23-16.21,2.71-32.53,4.77-48.82,7.05-17.22,2.42-34.43,4.99-51.68,7.11-21.01,2.58-42.04,4.99-63.11,7.05-21.07,2.06-42.19,3.61-63.3,5.34-3.2.26-6.43.35-9.64.35-4.87,0-9.4-.99-12.79-4.94-2-2.32-4.62-3.06-7.62-3.08-6.93-.05-13.3,1.88-18.11,6.81-4.89,5.03-10.71,6.74-17.33,7.1-13.22.71-26.44,1.48-39.66,2.23-27.94,1.6-55.88,3.21-83.82,4.8-6.8.39-13.61,1.17-20.39.94-8.1-.27-16.33-.67-24.19-2.41-9.35-2.07-16.41-7.97-20.97-16.76ZM195.46,256.45c.19.28.38.57.57.85l.5-.83c.75.04,1.52.19,2.25.09,10.22-1.41,20.48-2.61,30.63-4.43,3.59-.64,6.95-2.71,10.3-4.37,1.13-.56,1.88-1.87,3.59-3.66-3.33-.16-5.38-.45-7.4-.32-11.26.75-22.53,1.45-33.77,2.48-7.29.66-14.55,1.71-21.77,2.91-1.86.31-3.52,1.86-5.27,2.85l-.35.21.21-.35c1.56.5,3.12,1.36,4.7,1.42,4.56.15,9.01.81,13.41,1.99.8.39,1.6.78,2.41,1.18ZM387.05,181.28c6.54,2.94,12.47,2.22,18.39-.52.63-1.01,1.32-2.09,2.35-3.73h28.04c1.22-4.48-.27-7.92-1.43-11.52-4.57-1.58-9.12-.45-13.59-.64-3.77-.16-7.61.34-11.33-.14-3.79-.49-7.71-1.31-11.13-2.92-4.52-2.12-8.68-1.28-13.67-.37.7,6.94.1,13.69,2.37,19.84ZM523.42,220.38c-.1-.38-.2-.77-.3-1.15-7.62-.27-15.59-1.89-22.23,6.5h15.97c2.54-2.07,4.55-3.71,6.56-5.34ZM404.78,123.9c0,.2,0,.39,0,.59h9.21c0-.2,0-.39,0-.59h-9.21Z"/>
      <path class="cls-1" d="M195.53,255.41c-.85.01-1.7.02-2.55.03.85-.01,1.7-.02,2.55-.03Z"/>
      <path class="cls-1" d="M196.63,256.56c-.42,0-.85.02-1.27.03,0-.43,0-.86.01-1.29.42.42.84.84,1.25,1.26Z"/>
    </g>
  </g>
</svg>