<?xml version="1.0" encoding="UTF-8"?>
<svg id="Camada_2" data-name="Camada 2" xmlns="http://www.w3.org/2000/svg" viewBox="0 0 435.41 455.9">
  <defs>
    <style>
      .cls-1 {
        fill: #fff;
        stroke-width: 0px;
      }
    </style>
  </defs>
  <g id="Camada_1-2" data-name="Camada 1">
    <path class="cls-1" d="M428.26,417.15c-7.51-1.33-11.63-5.98-13.14-13.23-.72-3.42-1.78-6.81-2.04-10.27-1.6-20.91-3.71-41.82-4.31-62.77-.58-20.62.29-41.3.81-61.94.27-10.98,1.06-21.95,1.77-32.92.91-14.13,1.95-28.25,2.99-42.38,1.59-21.58,3.39-43.14,4.77-64.74.65-10.12.55-20.29.71-30.43.09-5.64.02-11.28.02-15.97,1.79-3.62,6.77-3.16,6.27-7.45-1.46-.99-2.78-1.88-3.94-2.67-.01-3.23,1.98-3.27,4.04-3.67,3.35-.65,3.62-1.52,2.26-5.39-1.52-.16-3.12-.33-5.15-.54,2.18-12.14,6.48-23.23,12.11-34.6-11.5-10.21-21.7-21.68-35.95-28.18-2.49.9-4.74,1.55-6.84,2.5-13.68,6.18-27.61,11.62-42.07,15.75-15.92,4.55-32.11,7.4-48.56,8.91-13.93,1.28-27.86,2.55-41.78,3.92-16.23,1.6-32.45,3.36-48.68,4.98-11.93,1.19-23.9,2.02-35.8,3.44-20.17,2.4-40.31,5.05-60.43,7.78-8.22,1.11-16.38,2.7-24.09,4-1.36,2.83-2.24,5.18-3.53,7.27-7.41,11.99-16.66,22.45-27.27,31.68-10.86,9.44-23.07,16.95-35.49,24.12-4.28,2.47-8.53,5-13.41,7.87,3.64,5,6.88,9.47,10.03,13.8-4.68,5.34-10.6,17.97-10.34,20.42-3.01,3.74-6.26,6.62-7.97,10.22-1.78,3.76-2.08,8.23-3.21,13.24,1.98.86,3.75,1.97,5.68,2.41,7.1,1.62,14.48,2.07,21.08,5.72,1.78.98,4.19.87,6.33,1.12,1.78.21,3.65-.06,5.36.38,4.53,1.17,7.64-.75,10.52-3.96,2.83-3.15,5.97-6.03,8.9-8.96,9.79,4.21,18.6,7.74,27.18,11.76,5.45,2.56,10.62,3.03,16.37,1.09,23.98-8.09,48.73-10.66,73.91-9.64,22.87.92,44.82,6.17,66.06,14.51,16.37,6.43,31.79,14.64,45.37,25.93,16.97,14.11,32.61,29.49,44.13,48.58,8.52,14.12,17.27,28.11,20.49,44.69.66,3.41,1.77,6.8,3.15,9.99,4.09,9.46,6,19.34,6.71,29.56.53,7.63,1.11,15.28,2.26,22.83,1.13,7.45,2.5,14.88.83,22.32-2.89,12.94-3.89,25.97-3.04,39.18.08,1.21-.6,2.47-.98,3.91-3.11.48-5.92.92-10.12,1.58,3.09,3.68,4.92,7.08,7.76,8.88,2.63,1.67,6.31,2.01,9.58,2.26,10.62.81,21.27,1.41,31.91,1.86,2.34.1,4.72-.72,6.66-1.04.99-2.13,1.62-3.46,2.5-5.36h17.1c6.28-6.78,10.62-24.95,7.62-31.12-1.53-.38-3.28-.91-5.06-1.23ZM8.9,168.98s0,0,0,0c-.21-.13-.41-.28-.64-.38.23.09.43.25.64.38Z"/>
  </g>
</svg>