<svg width="400" height="400" viewBox="0 0 400 400" fill="none" xmlns="http://www.w3.org/2000/svg">
<g clip-path="url(#clip0_1677_76)">
<path d="M145.091 89.3714C127.471 71.7542 110.014 54.2993 92.3541 36.6466C101.445 27.7289 110.389 18.9533 119.505 10.0052C120.264 10.7103 120.943 11.2937 121.571 11.9227C158.177 48.6839 194.783 85.4503 231.385 122.222C256.201 147.154 281.007 172.101 305.838 197.017C329.221 220.483 329.291 255.19 305.919 278.773C274.564 310.411 242.972 341.815 211.876 373.702C191.309 394.789 159.231 394.89 137.757 377.07C128.575 369.446 120.432 360.554 111.938 352.113C86.0893 326.425 60.1895 300.788 34.5277 274.913C13.905 254.125 13.8189 217.739 34.3099 197.058C45.2796 185.985 56.8013 175.464 67.9837 164.598C93.2707 140.027 118.507 115.399 143.759 90.7917C144.118 90.4417 144.453 90.0613 145.096 89.3765L145.091 89.3714ZM286.724 237.746C286.532 232.394 283.858 228.513 280.404 225.054C250.326 194.897 220.233 164.756 190.155 134.604C184.087 128.522 178.055 122.399 171.927 116.206C171.173 116.88 170.595 117.352 170.064 117.874C138.618 148.686 107.178 179.497 75.7375 210.313C71.0984 214.858 66.4137 219.357 61.8911 224.019C58.2498 227.778 56.072 232.186 56.8722 237.751H286.724V237.746Z" fill="white"/>
<path d="M343.194 275.831C347.341 282.298 351.292 288.264 355.039 294.351C362.96 307.21 370.577 320.251 376.396 334.237C379.526 341.759 381.907 349.378 380.656 357.814C377.941 376.045 361.568 390.056 342.723 389.919C324.116 389.782 307.919 375.442 305.504 357.302C304.45 349.409 306.213 342.064 309.53 335.206C315.324 323.224 321.512 311.42 327.954 299.773C331.905 292.626 336.63 285.91 341.021 279.006C341.598 278.093 342.241 277.22 343.199 275.825L343.194 275.831Z" fill="white"/>
</g>
<defs>
<clipPath id="clip0_1677_76">
<rect width="362" height="380" fill="white" transform="translate(19 10)"/>
</clipPath>
</defs>
</svg>
