<?xml version="1.0" encoding="UTF-8"?>
<svg id="Camada_2" data-name="Camada 2" xmlns="http://www.w3.org/2000/svg" viewBox="0 0 425.83 269.47">
  <defs>
    <style>
      .cls-1 {
        fill: #fff;
        stroke-width: 0px;
      }
    </style>
  </defs>
  <g id="Camada_1-2" data-name="Camada 1">
    <path class="cls-1" d="M82.21,269.47c-2.23-.81-5.07-1.36-7.36-2.8-4.42-2.77-7.94-6.5-9.98-11.49-10.45-25.59-21.1-51.09-31.4-76.74-8.99-22.4-17.67-44.93-26.35-67.46-2.39-6.21-4.37-12.58-6.36-18.94-2.72-8.7,2.07-17.74,11-20.3,7.83-2.24,15.77-4.14,23.74-5.88,16.74-3.66,33.53-6.97,50.08-11.56,9.09-2.52,18.64-3.35,27.95-5.17,14.21-2.77,28.43-5.51,42.56-8.63,34.11-7.55,68.19-15.22,102.25-23.02,23.19-5.31,46.36-10.73,69.45-16.48,12.83-3.19,20.16,1.32,27.16,12.33,22.68,35.69,44.89,71.68,67.27,107.56.18.28.4.54.54.84,1.56,3.22,4.32,6.11,2.45,10.19-2.2,4.8-4.85,8.99-10.18,11.02-25.35,9.64-50.68,19.37-75.98,29.14-30.28,11.69-60.51,23.54-90.82,35.16-15.07,5.78-30.29,11.17-45.42,16.82-15.59,5.82-31.18,11.65-46.71,17.63-22.19,8.54-44.33,17.22-66.51,25.78-2.14.83-4.45,1.22-7.38,2ZM136.5,226.99c-.04,3.24-.08,5.71,3.61,6.66,4.85-1.87,10.04-3.88,15.28-5.9.09-1.74.16-3,.22-4.28-1.28-.8-2.37-1.48-3.24-2.02-5.54,1.93-10.75,3.76-15.88,5.55ZM84.59,65.89c-6.4,1.67-12.52,1.99-18.86,5.64,1.91,1.54,3.03,3.23,4.16,3.24,6.39.03,12.66-.92,19.45-3.59-1.85-2.05-3.2-3.56-4.75-5.28ZM385.2,138.21c-6.39-.96-10.45,1.76-14.94,3.39v3.77c4.99,1.01,8.77-1.72,12.76-3.37.86-.35,1.19-1.98,2.18-3.79ZM297.03,18.62c.6,1.29.98,2.11,1.59,3.41,3.62-.43,7.16-.86,10.77-1.29.56-1.62.96-2.79,1.53-4.44-5.33-1.76-9.45-.04-13.89,2.32Z"/>
  </g>
</svg>