<?xml version="1.0" encoding="UTF-8"?>
<svg id="Camada_2" data-name="Camada 2" xmlns="http://www.w3.org/2000/svg" viewBox="0 0 356.91 234.84">
  <defs>
    <style>
      .cls-1 {
        fill: #fff;
        stroke-width: 0px;
      }
    </style>
  </defs>
  <g id="Camada_1-2" data-name="Camada 1">
    <g>
      <path class="cls-1" d="M129.61,203.36c-.28-5.15,1.54-9.98,3.8-14.61,11.07-22.77,22.25-45.48,33.37-68.22,12.2-24.95,24.38-49.92,36.58-74.88,6.69-13.68,13.42-27.34,20.14-41.01.34-.68.68-1.37,1.08-2.01,1.37-2.2,3.27-3.25,5.81-2.24,2.47.98,3.45,2.95,2.9,5.54-1.27,5.96-2.56,11.92-3.92,17.85-4.52,19.63-9.09,39.24-13.62,58.86-4.36,18.88-8.71,37.77-13.07,56.65-3.98,17.22-7.96,34.44-11.96,51.65-1.63,7.03-3.02,14.13-5.01,21.05-4.33,15.02-18.84,22.73-32.35,20.18-15.75-2.97-24.02-15.71-23.75-28.82ZM144.93,202.81c-.05.17-.06.35-.03.53,1.31,9.67,8.34,14.58,17.07,13.3,7.13-1.05,12.6-8.49,11-16.44-1.48-7.37-8.76-12.42-16.17-11.16-5.59.95-9.68,5.62-11.87,13.78Z"/>
      <path class="cls-1" d="M338.04,139.7c-19.32,7.74-37.83,15.17-56.69,22.73-.57.23-1.22,0-1.53-.53-.66-1.13-1.3-2.12-1.66-3.21-6.29-19.39-16.88-36.15-30.83-50.89-.84-.89-1.6-1.85-2.53-2.97-.38-.46-.38-1.12,0-1.57,10.78-13.06,21.5-26.03,32.54-39.41.37-.45,1.01-.58,1.52-.31,1.35.7,2.59,1.27,3.63,2.09,19.75,15.51,35.78,34.24,48.13,56.09,2.15,3.81,4.18,7.69,6.16,11.59.7,1.39,1.21,2.88,1.94,4.8.24.63-.07,1.34-.7,1.59Z"/>
      <path class="cls-1" d="M281.45,232.67c4.66-19.03,4.35-37.94,1.53-57.44-.09-.6.28-1.18.86-1.36,20.43-6.2,40.59-11.84,61.17-17.41.64-.17,1.3.19,1.51.81,8.2,24.98,11.41,49.83,10.1,75.16-.03.58-.46,1.07-1.04,1.16-8.71,1.31-59.26,1.69-73.03.6-.76-.06-1.28-.78-1.1-1.53Z"/>
      <path class="cls-1" d="M154.78,29.97c.53,12.31,2.02,24.36,2.34,37.06.02.69-.54,1.26-1.23,1.26-24.77.27-47.52,6.12-69.05,18.36-.56.32-1.27.15-1.63-.38-5.26-7.77-10.37-15.32-15.36-22.69-.3-.44-.29-1.04.05-1.45,11.63-14.15,63.59-34.85,83.77-33.34.61.05,1.08.56,1.11,1.17Z"/>
      <path class="cls-1" d="M24.74,153.85c-5.09-1.88-9.68-3.57-14.67-5.42-.53-.2-.87-.74-.8-1.3.19-1.58.28-3.12.78-4.52,9.09-25.59,23.28-47.93,42.75-66.88.73-.71,1.56-1.31,2.65-2.13.52-.4,1.27-.32,1.69.18,5.5,6.44,10.89,12.75,16.69,19.54.46.54.37,1.36-.19,1.79-20.55,15.64-36.09,34.65-47.35,58.13-.28.57-.95.84-1.54.62Z"/>
      <path class="cls-1" d="M262.98,53.87c-9.22,14.18-17.97,27.85-27.36,41.45-.39.57-1.18.7-1.74.3-3.29-2.32-6.21-4.38-9.28-6.54-.41-.29-.61-.8-.49-1.29,3.64-15.79,7.26-31.49,10.96-47.54.17-.72.94-1.15,1.63-.89,9.09,3.33,17.32,7.42,25.9,12.77.59.37.76,1.15.38,1.73Z"/>
      <path class="cls-1" d="M10.32,234.09h-6.11c-.6,0-1.11-.43-1.22-1.02-4.25-22.77-3.98-45.38.91-68.48.13-.6.68-1.03,1.29-.99,4.97.32,9.24,1.9,13.99,3.6.63.23.96.92.75,1.55-6.99,20.88-9.53,42.05-8.38,64.04.04.71-.52,1.3-1.23,1.3Z"/>
      <path class="cls-1" d="M173.41,27.2c8.56-.53,17.06.49,25.84,2.03.81.14,1.26,1.03.9,1.77-6.44,13.17-12.66,25.91-19.12,39.11-.24.49-.77.77-1.31.68-2.69-.43-5.39-.87-8.05-1.3-.53-.09-.95-.5-1.02-1.04-.86-6.22.21-33.56,1.63-40.28.12-.55.58-.95,1.14-.98Z"/>
    </g>
  </g>
</svg>