<?xml version="1.0" encoding="UTF-8"?>
<svg id="Camada_2" data-name="Camada 2" xmlns="http://www.w3.org/2000/svg" viewBox="0 0 469.68 430.65">
  <defs>
    <style>
      .cls-1 {
        fill: #fff;
        stroke-width: 0px;
      }
    </style>
  </defs>
  <g id="Camada_1-2" data-name="Camada 1">
    <path class="cls-1" d="M448.74,147.14c1.59-6.04,3.59-11.82,2.43-17.08L469.68,0l-8.15.07c-3.63,0-6.48-.16-9.3.03-22.14,1.48-44.31,2.58-66.39,4.68-22.34,2.13-44.69,4.54-66.83,8.12-48.64,7.87-94.34,24.72-137.83,47.65-44.38,23.39-87.59,48.75-129.51,76.37-17.96,11.83-22.92,29.42-25.89,47.47-3.34,2.86-7.89,4.85-8.98,8.02-5.23,15.27-9.54,30.86-14.1,46.36-.43,1.47-.43,3.08-.5,4.63-.25,5.91-.34,11.82-.69,17.72-.4,6.76-2.04,13.62-1.35,20.25,2.39,23.08,4.84,46.19,8.67,69.06,3.01,17.99,8.67,35.52,12,53.46,1.74,9.34,5.03,17.37,11.63,25.75,3.36,0,6.73-.04,10.1,0,23.5.34,47,1.04,70.5,1,102.91-.19,205.82-.59,308.73-.97,2.7,0,5.4-.61,8.33-.96-.15-3.11.02-5.23-.39-7.22-2.26-11-1.43-21.74,1.76-32.48,1.32-4.44,2.15-9.25,2.04-13.86-1.26-53.34-.7-106.54,11.05-158.98.1-.46.15-.92.19-1.4l7.76-58.45c-1.8-4.36-2.93-7.1-3.79-9.19ZM447,21.83c-2.1-2.79-3.12-5.35-.06-8.61,1.93,2.99,3.59,5.57,6.2,9.62-1.63,15.2-4.23,31.99-5.03,48.87-.93,19.64-5.92,38.53-8.81,57.8-.51,3.39-2.69,6.53-4.11,9.79-.67-.21-1.33-.41-2-.62,1.67-10.32,3.34-20.64,5-30.96,3.86-23.92,7.66-47.86,11.64-71.77.86-5.18.31-9.93-2.84-14.12ZM95.87,171.87c4.45-17.56,8.64-34.76,13.32-51.82.65-2.36,3.4-4.6,5.73-5.96,36.3-21.14,73.17-41.13,111.5-58.48,42.16-19.08,86.63-28.26,132.16-33.39,19.92-2.24,39.99-3.21,59.97-4.95,2.46-.21,4.8-1.68,8.14-2.92,1.56.69,3.87,1.71,5.1,2.25,1.81,3.5,3.06,5.93,4.47,8.65-3.2,41.88-13.96,82.62-27.87,122.32-104.4,8.12-207.81,16.16-312.52,24.3Z"/>
  </g>
</svg>