<?xml version="1.0" encoding="UTF-8"?>
<svg id="Camada_2" data-name="Camada 2" xmlns="http://www.w3.org/2000/svg" viewBox="0 0 433.48 433.48">
  <defs>
    <style>
      .cls-1 {
        fill: #fff;
        stroke-width: 0px;
      }
    </style>
  </defs>
  <g id="Camada_1-2" data-name="Camada 1">
    <path class="cls-1" d="M416.44,132.37c-10.92-25.81-26.54-48.99-46.44-68.89-19.9-19.9-43.08-35.52-68.89-46.44C274.38,5.73,245.99,0,216.74,0s-57.64,5.73-84.37,17.04c-25.81,10.92-48.99,26.54-68.89,46.44-19.9,19.9-35.52,43.08-46.44,68.89C5.73,159.1,0,187.49,0,216.74s5.73,57.64,17.04,84.37c10.92,25.81,26.54,48.99,46.44,68.89,19.9,19.9,43.08,35.52,68.89,46.44,26.73,11.31,55.12,17.04,84.37,17.04s57.64-5.73,84.37-17.04c25.81-10.92,48.99-26.54,68.89-46.44,19.9-19.9,35.52-43.08,46.44-68.89,11.31-26.73,17.04-55.12,17.04-84.37s-5.73-57.64-17.04-84.37ZM308.32,371.98c-9.45-11.73-18.9-23.45-28.35-35.17-18.52-22.95-37.05-45.89-55.56-68.86-1.62-2.01-3.67-2.98-6.15-3.28-4.92-.59-9.23.32-12.09,4.86-.26.41-.65.74-.98,1.12-18.05,20.65-36.14,41.28-54.15,61.97-10.44,11.99-20.77,24.07-31.15,36.12-1.16-.74-2.3-1.49-3.44-2.26.44-1.84,1.69-3.25,2.96-4.65,1.12-1.23,2.26-2.45,3.42-3.64,1.22-1.26,2.5-2.46,3.73-3.71,1.67-1.7,3.31-3.43,4.96-5.15.19.17.39.34.58.52,0,0-.01,0-.01,0l.07.06s-.02-.02-.03-.03l.78.52c.21-.36.41-.72.62-1.08-.46-1.4.08-2.21,1.47-2.51h0s.01,0,.01,0h0c2.43-2.42,4.87-4.83,7.29-7.26,2.02-2.03,4.09-4.02,5.99-6.16,3.87-4.36,7.72-8.74,11.43-13.24,2.92-3.55,5.6-7.29,8.39-10.94,0-.01,0-.03-.01-.04.21-.24.41-.47.63-.71-.34-.24-.57-.41-.81-.58,0,.24.01.47.02.71-1.09.15-1.73-.4-1.32-1.37.47-1.12,1.13-2.2,1.92-3.12.87-1.02,2.19-1.69,2.95-2.77,2.12-3.03,3.94-6.26,6.08-9.28,3.62-5.11,7.37-10.13,11.11-15.14,5.38-7.2,10.81-14.36,16.22-21.54,1.05-1.39,2.45-1.89,4.16-1.58,4.59.83,9.21,1.13,13.8.27,2.64-.49,4.49.3,5.81,2.58.33.57.77,1.07,1.15,1.61,12.04,16.99,23.8,34.19,36.18,50.93,14.1,19.06,28.74,37.72,43.16,56.54,1,1.31,2.03,2.6,3.07,3.9-1.3.81-2.61,1.61-3.92,2.39ZM278.96,349.45c-22.08,9.99-44.81,13.98-68.4,12.71-20.64-1.11-40.24-6.4-59.1-16.15,1.58-1.93,2.91-3.57,4.26-5.19,8.8-10.51,17.63-20.99,26.4-31.52,8.87-10.65,17.67-21.37,26.54-32.02,2.68-3.21,5.95-5.58,10.33-3.82,1.96.79,3.91,2.26,5.2,3.94,12.76,16.63,25.36,33.39,38.07,50.07,4.75,6.24,9.67,12.35,14.49,18.54.74.95,1.32,2.04,2.21,3.44ZM51.73,144.13c4.1,1.02,8.25,1.88,12.32,3.02,11.99,3.37,23.94,6.88,35.92,10.27,5.63,1.59,11.31,2.98,16.95,4.55.79.22,1.43.95,2.14,1.45-.14.26-.28.53-.41.79-.31.26-.62.52-.93.77.25.59.5,1.17.76,1.76,0,.01-.01.03-.02.04.82.52,1.57,1.22,2.46,1.52,10.69,3.63,21.39,7.2,32.1,10.77,3.15,1.05,6.31,2.08,9.47,3.12-.09.27-.17.54-.26.81-36.91-12.88-74.57-23.27-112.5-34.16.65-1.58,1.32-3.16,2.01-4.72ZM297.99,161.55c-5.05,1.34-10.04,2.91-15.1,4.22-3.98,1.03-8.04,1.76-12.04,2.73-2.07.5-4.07,1.33-6.14,1.84-2.52.62-5.06,1.19-7.62,1.55-4.53.63-6.58-.68-7.9-5.48-.71-2.59-.87-5.37-.97-8.07-.46-12.2-.77-24.41-1.23-36.61-.37-9.55-.9-19.1-1.34-28.65-.29-6.26-.58-12.52-.85-18.78-.05-1.05,0-2.11,0-3.72,20.54,3.66,38.99,11.24,55.89,22.6,20.61,13.86,36.65,31.84,48.56,54.09-2.83,1.05-5.35,2.21-7.98,2.91-14.4,3.85-28.85,7.56-43.26,11.37ZM340.32,161.99c-.07.09-.15.18-.22.27h0l.22-.27s0,0,0,0ZM339.76,162.82l-.02-.02.02.02ZM305.51,170.14h0c.28.02.56.04.83.06-.28-.02-.56-.04-.83-.06ZM305.81,170.76c.17-.18.34-.36.51-.54h0s0,0,0,0c.24-.16.47-.32.71-.47-.24.16-.47.32-.71.47-.17.18-.34.36-.51.54,0,0,0,0,0,0ZM304.58,170.26c-.17.48-.35.96-.52,1.44h0l.52-1.44ZM304.02,171.79h0l-.71-.03h0c.24.01.47.02.71.03ZM298.88,172.2h0c.26-.17.51-.34.77-.51.01.04.03.07.04.1-.01-.03-.02-.06-.04-.1-.26.17-.51.34-.77.51ZM299.36,173.2c-.16-.16-.32-.32-.47-.47h0c.16.16.32.32.47.47ZM298.62,172.55c-.09.13-.17.26-.26.39h0c.09-.13.17-.26.26-.39ZM296.46,173.68h0c.23-.17.46-.33.7-.5-.23.17-.46.33-.7.5ZM257.98,201.28c.39,4.95-.37,6.74-3.55,7.83-3.54,1.21-5.16-1.37-6.99-4.01-.35,3.61,3.06,3.77,4.42,5.62-2.28.19-4.61-1.64-5.44-4.23-1.04-3.25.27-6.7,3.16-8.35,2.67-1.51,6.38-.87,8.63,1.49,2.13,2.23,2.38,5.47.3,8.51v-6.99c-.18.04-.35.09-.53.13ZM232.63,193.54c-.25.25-.49.5-.74.76-12.46-7.91-31.84-5.13-39.25,11.8,1.56-4.65-.2-9.05-1.16-13.36,3.15-3.67,6.79-6.17,10.81-8.18,1.62-.81,2.76-.15,4,.88,5.44,4.5,14.34,5.35,19.96,2,.21-.13.43-.25.64-.39,4.62-3.08,5.11-3.05,9.69.82h-2.4v3.43c-1.41.23-2.51.4-3.61.58-.12.19-.24.39-.36.58.81.36,1.62.72,2.44,1.08ZM209.07,240.38c7.79,1.73,15.17.78,22.23-3.12-3.36,2.38-5.38,5.54-6.39,9.36-4.52-.29-9.07,2.39-13.5-.74.05-.68.02-1.1.13-1.48.12-.38.38-.71.69-1.26h7.48c-7.63-.22-7.79-.26-10.65-2.76ZM196.25,241.65c2.84.47,4,3.73,2.93,6.12-1.1,2.49-4.33,3.82-6.78,2.62-.54-.26-.85-.99-1.26-1.51-.82-1.06-1.64-2.13-2.41-3.12,0-.01-.26.4-.61.93-.96-3.71,1.86-7.39,4.95-7.97,3.81-.71,7.38,1.58,8.06,5.74-.9-.85-1.79-1.71-2.7-2.55-.9-.83-1.82-1.64-2.74-2.46-.15.15-.31.3-.46.45l1.03,1.74ZM187.24,230.82c-.31-.1-.53-.11-.56-.19-1.19-3.39-2.43-6.77-3.51-10.2-.5-1.59.17-2.86,1.62-3.76,3.23-2.02,5.69-4.71,7.25-8.36-1.7,6.84-.89,13.38,1.99,19.45-2.41.69-4.59,1.32-6.89,1.98,0-.04.04.47.1,1.08ZM181.27,236.68c0-.14,0-.29.01-.43,0,.14,0,.29-.01.43.17-.08.33-.16.5-.24-.17.08-.33.16-.5.24h0s0,0,0,0ZM181.27,235.2c.09-.14.19-.27.28-.41-.09.14-.19.27-.28.41h0ZM176.3,205.3c.45,2.81,3.39,3.18,5.03,4.88-2.7.23-5.26-1.62-6.19-4.42-1.02-3.08.36-6.66,3.2-8.31,2.88-1.67,6.44-1.18,8.59,1.18,2.16,2.37,2.37,5.44.26,8.56-.16-2.81-.3-5.07-.43-7.34-.24.03-.48.06-.72.09.25.95.51,1.89.76,2.84-.43,2.86-1.88,5.06-4.78,5.62-2.54.49-4.22-1.26-5.72-3.1ZM181.22,236.2c-.15,0-.3,0-.45.01h0c.15,0,.3,0,.45-.01ZM180.02,234.72h0c.24.02.47.03.71.05-.24-.02-.47-.03-.71-.05ZM179.28,234.76c.25-.04.51-.08.76-.12h0c-.25.04-.51.08-.76.12ZM180,234.78c-.06.15-.11.29-.17.44h0c.06-.15.11-.29.17-.44ZM179.2,234.73c-.12.02-.23.04-.35.06h0l.35-.06ZM178.21,240.67h0c-.09-.07-.17-.15-.26-.22.09.07.17.15.26.22ZM176.8,234.71h0c.26-.19.51-.37.77-.56h-.02c-.25.2-.5.38-.75.56ZM177.7,239.24h0c-.15.17-.3.34-.45.51h0c.15-.17.3-.34.45-.51ZM177.31,238.68c-.02-1.3-.04-2.6-.06-3.9.02,1.3.04,2.6.06,3.9h0ZM176.74,240.24s-.01.01-.02.03l.02-.03ZM176.69,240.3c-.31-.26-.62-.53-.93-.79.18-.45.36-.9.55-1.35-.18.45-.36.9-.55,1.35.31.26.62.53.93.79ZM170.52,168.84c-7.62-2.1-15.28-4.04-22.87-6.25-14.42-4.19-28.82-8.48-43.19-12.84-4.84-1.47-9.59-3.28-14.7-5.04,10.33-18.64,23.76-34.28,40.62-46.97,18.45-13.88,39.01-22.91,62.1-27.17,0,4.02.16,7.56-.03,11.08-.56,10.07-1.4,20.12-1.87,30.19-.53,11.31-.74,22.63-1.18,33.94-.24,6.19-.83,12.37-.94,18.55-.08,4.42-7.18,9.45-11.94,6.48-1.74-1.08-3.97-1.41-6-1.97ZM196.16,162.26c-.02-.14-.03-.28-.05-.42.02.14.03.28.05.42.14,0,.29-.01.43-.02h0c-.14,0-.29.01-.43.02h0s0,0,0,0ZM196.62,162.82h0c-.09.16-.19.33-.28.49.09-.16.19-.33.28-.49ZM196.61,161.37c.02.13.03.26.05.4h0c-.02-.13-.03-.26-.05-.4ZM197.1,162.33h0c.02.13.03.26.05.4-.02-.13-.03-.26-.05-.4ZM212.06,174.25c2.22-3.24,6.35-4.14,9.4-2.18,2.71,1.75,4.58,5.81,1.81,9.35.26-2.11.44-3.65.65-5.37-.66-.5-1.32-1.01-2.24-1.71,1.58,3.96,1.18,6.18-1.19,7.77-2.84,1.91-5.04,1.29-8.66-2.48-.15.32-.3.63-.45.94-.21-.02-.42-.04-.62-.05.1-1.91.19-3.82.31-6.18.93.52,1.3.73,1.84,1.03.19-.5.36-.96.58-1.55-.55.16-.89.26-1.42.42ZM235.87,243.23c2.04-1.79,4.02-1.44,7.65,1.41,1.15,3.22-.82,5.99-2.83,6.74-2.02.76-4.89-.09-5.97-1.8-1.1-1.75-.54-4.87,1.15-6.35ZM239.45,156.43c-.19.03-.38.06-.57.09-.45-3.44-.88-6.88-1.35-10.31-.24-1.74.21-3.84-2.69-4.73,0,2.4.14,4.53-.04,6.64-.18,2.1.95,4.54-1.61,6.71-.25-1.23-.53-2.05-.56-2.87-.13-4.26-.18-8.53-.28-12.8-.31-13.38-.61-26.77-.96-40.15-.22-8.26-.43-16.52-.82-24.77-.49-10.3-1.19-20.6-1.75-30.9-.12-2.16-.19-4.32-.26-6.5,1.72.11,3.43.25,5.13.41,1.94,40.03,3.85,79.61,5.76,119.18ZM205.82,85.84c-.67,11.39-1.24,22.78-1.68,34.17-.31,8.26-.3,16.53-.48,24.79-.12,5.4-.25,10.8-.53,16.19-.09,1.71-.68,3.4-1.04,5.1-.24.04-.48.08-.72.12-.71-.81-1.42-1.63-2.24-2.55-.36.06-.84.13-1.31.2l.09-.06h0,0s-.05-.03-.07-.05h0c-.23-.15-.46-.31-.69-.46.23.15.46.31.69.46.11-.56.22-1.12.33-1.68h.01s0-.07,0-.07c0,0,0,0,0,0-.02-.33-.03-.67-.05-1,0-.14,0-.28,0-.42-.02-.25-.04-.5-.05-.75.02,0,.04,0,.07,0,0-.03,0-.06,0-.09.14-.14.27-.27.41-.41.03,0,.06,0,.09,0,0-.16,0-.32,0-.47.01-.03.02-.05.03-.08h-.02s-.02-.02-.01-.02h0s-.03.03-.04.04c-.81.17-1.62.34-2.43.51,0-.01-.02-.03-.03-.04l-.06.06s.03.02.04.02c-.18.9-.37,1.81-.55,2.71.02,0,.03-.01.05-.02.15.26.31.52.46.78l-.02.03s-.01.01-.02.02h0s0,0,0,0c.02.04.05.07.07.11-.57,1.53-1.15,3.05-1.72,4.58-.11-.01-.22-.03-.32-.04.25-3.34.51-6.68.76-9.99,1.31-.48,2.36-.86,3.4-1.24-.02-.06-.04-.12-.05-.18-.98.15-1.96.3-3.04.47,2.84-39.96,5.66-79.63,8.51-119.66,1.75-.13,3.5-.23,5.26-.3-1.05,16.4-2.13,32.81-3.09,49.22ZM197.6,161.77c-.15.02-.29.04-.44.06h0c.15-.02.29-.04.44-.06ZM197.57,160.28h0c0,.33,0,.66,0,.99,0-.33,0-.66,0-.99ZM198.07,159.35l-.42.42h0c.14-.14.28-.28.42-.42ZM162.56,239.46c-3.3,4.64-6.38,9.43-9.66,14.1-8.78,12.51-17.64,24.96-26.4,37.48-4.5,6.43-8.84,12.96-13.29,19.42-.88,1.28-1.93,2.43-3.17,3.98-30.15-34.64-42.18-74.42-36.87-120.15,1.91.58,3.42.93,4.84,1.49,12.37,4.85,24.7,9.81,37.1,14.59,7,2.7,14.14,5.02,21.15,7.68,7.84,2.98,15.67,6,23.38,9.29,4.42,1.88,5.57,8.4,2.93,12.13ZM44.94,167.71c12.25,4.88,24.52,9.72,36.78,14.6,7.26,2.89,14.52,5.77,21.72,8.78,1.36.57,3.29.91,3.29,3.09-.06.96-.27,2.01,1.28,1.86.25-.17.5-.34.75-.51-.25.17-.5.34-.75.51.34,0,.69,0,1.03.01,0,0-.02.02-.02.02,0,0,.07-.02.07-.02,0,0,0-.02-.01-.03.2-.18.41-.36.61-.54l-.09.03c-.17.17-.35.34-.52.51.17-.17.35-.34.52-.51-.25.01-.5.03-.75.04h0c.25-.01.5-.03.75-.04,0,0,.09-.03.09-.03l.66,1.35v-.07c.16,2.43,2.11,3.11,3.88,3.93.92.43,1.88.75,2.82,1.13-.08.21-.15.42-.23.64-.72-.24-1.46-.44-2.16-.73-23.86-9.82-47.72-19.66-71.59-29.47-.32-.13-.64-.25-.97-.36.42-1.63.86-3.25,1.32-4.85.51.23,1.01.45,1.52.66ZM327.76,357.32c-6.4-10.01-12.82-20.02-19.23-30.03-7.75-12.1-15.37-24.28-23.26-36.28-11.21-17.04-22.61-33.96-33.97-50.9-1.24-1.85-1.21-3.4-.29-5.49,1.76-3.97,3.49-8.06,4.35-12.28.65-3.23,2.15-4.56,5.04-5.47,24.08-7.59,48.14-15.25,72.17-22.97,5.34-1.71,10.53-3.87,15.84-5.66,10.16-3.42,20.35-6.73,30.53-10.08l-.16.08c4.26-1.81,8.54-3.56,13.18-4.02.19.78.37,1.56.55,2.34-20.08,7.58-40.08,15.39-60.24,22.76-21.55,7.88-42.88,16.3-63.94,25.4-2.04.88-3.4,2.32-4.23,4.27-.61,1.44-1.07,2.95-1.51,4.45-.72,2.5-.44,4.86.87,7.16,3.44,6.02,6.69,12.16,10.24,18.12,11.71,19.65,23.5,39.25,35.3,58.84,7.6,12.61,15.29,25.17,22.94,37.75-1.19.99-2.4,1.97-3.62,2.94-.19-.32-.37-.63-.57-.93ZM322.1,320.27c-2.18-3.28-4.22-6.03-5.94-8.98-9.64-16.53-19.94-32.63-30.45-48.61-4.48-6.81-8.51-13.9-12.74-20.87-1.33-2.19-1.93-4.56-1.38-7.11.69-3.25,3-4.99,5.95-6.04,14.09-5.01,28.2-9.95,42.26-15.04,9.03-3.27,17.96-6.79,26.96-10.15,5.39-2.01,10.81-3.92,16.23-5.86.45-.16.96-.13,2-.25,4.46,47.54-9.56,88.23-42.88,122.9ZM202.94,396.5c1.24-.74,3.19-.2,4.39-.97,0-.24,0-.48,0-.72-3.47-.33-6.95-.66-10.32-.98-.02.36-.05.87-.08,1.55-.99-.13-1.78-.23-2.55-.33.06.21.12.41.18.61-3.48-.43-6.93-.96-10.34-1.58,4.63-2.74,9.61-3.45,15.12-2.72,9.85,1.3,19.79,1.2,29.69.19,4.17-.42,8.03.11,11.6,2.42.69.45,1.44.8,2.17,1.17-8.51,1.24-17.2,1.88-26.05,1.88-4.64,0-9.25-.18-13.8-.52Z"/>
  </g>
</svg>