<?xml version="1.0" encoding="UTF-8"?>
<svg id="Camada_2" data-name="Camada 2" xmlns="http://www.w3.org/2000/svg" viewBox="0 0 408.49 408.5">
  <defs>
    <style>
      .cls-1 {
        fill: #fff;
        stroke-width: 0px;
      }
    </style>
  </defs>
  <g id="Camada_1-2" data-name="Camada 1">
    <g>
      <path class="cls-1" d="M164.07,218.63c-.16-.5-.32-1.02-.48-1.53-.9.44-1.81.89-2.71,1.33.15.35.29.72.44,1.07.91-.29,1.83-.58,2.75-.87Z"/>
      <path class="cls-1" d="M399.11,142.9c-9.63-31.52-26.43-59.27-50.4-83.04-.78-.79-1.57-1.56-2.37-2.32-.99-.95-1.99-1.9-3-2.84C306.89,20.75,257.99,0,204.25,0c-6.92,0-13.77.34-20.51,1.02h-6.71l.08.77c-3.38.45-6.73.97-10.06,1.59,0,0,0,0,0,0-.05-.22-.1-.44-.16-.66-.92.34-1.84.67-2.76,1.01.56-.04,1.11-.08,1.67-.12,0,0-.02,0-.02,0-1.05.2-2.09.41-3.13.63,0,0,0,0,0,0,.3-.13.6-.26.9-.38-.75.07-1.5.13-2.24.2.04.15.09.3.13.44-1.66.34-3.31.72-4.94,1.11-.06-.21-.12-.42-.18-.62-.62.29-1.25.58-1.87.87.54-.05,1.08-.1,1.62-.14-.01,0-.02,0-.03,0C92.77,21.04,41.02,65.79,16.09,124.66c-.4.74-.76,1.49-1.09,2.26-5.41,12.68-9.14,25.88-11.48,39.36-2.31,12.3-3.52,25-3.52,37.98,0,112.8,91.44,204.25,204.25,204.25s204.25-91.44,204.25-204.25c0-21.38-3.29-41.98-9.38-61.35ZM44.24,228.58c-1.26-9.38-.74-19.01-1.18-28.6-.24,2.54-.48,5.08-.72,7.61-.41.02-.81.04-1.21.06-.15-3.19-.7-6.42-.36-9.56,1.17-11.14,2.41-22.26,4.04-33.34,1.9-12.88,7.47-24.56,13.41-35.93,13-24.87,31.64-44.69,55.23-59.88,68.97-44.39,160.66-31.7,213.26,33.3,15.18,18.77,25.06,39.95,30.2,63.44,4.38,20.09,7.39,40.49,4.68,60.88-3.09,23.33-11.1,45.28-24.2,65.16-2.6,3.96-4.86,8.23-6.68,12.61-3.62,8.68-10.57,14.06-17.85,19.21,2.63-3.37,5.28-6.75,7.92-10.12-3.01,2.3-6.03,4.62-9.04,6.93,1.98-2.67,3.97-5.31,5.95-7.97-2.41,1.45-4.85,2.9-8.31,4.97,2.17-9.66,3.63-18.35-3.89-25.89,1.84-2.56,3.4-4.75,5.08-7.09,2.25.77,3.91,1.32,5.57,1.91,8.35,2.97,16.69.44,21.49-7.11,6.75-10.62,11.18-22.29,14.37-34.42,1.12-4.31,2.05-8.68,2.87-13.06,2.39-12.62-1.55-19.67-13.44-24.31-.81-.32-1.61-.71-2.73-1.21v-8.37c4.55-3.32,8.69-5.76,12.11-8.97,4.18-3.92,5.61-9.24,4.13-14.78-2.67-9.98-5.3-20-8.77-29.71-3.49-9.78-9.88-13.23-20.43-12.52-1.06.07-2.13.01-3.7.01-.91-1.18-2.07-2.49-3.01-3.95-.96-1.49-1.71-3.11-2.48-4.54.09-.54.04-.93.2-1.23,7.08-13.5,6.31-18.32-4.35-29.33-9.88-10.19-21.23-18.4-33.33-25.75-8.89-5.4-17.07-5.41-25.16,1.19-.55.45-1.19.78-2.53,1.63-3.37-1.05-7.22-2.26-10.59-3.31-.62-.71-1-.93-1.08-1.23-3.53-12.58-11.75-18.52-24.87-18.01-8,.32-16.01.14-24.01.14-5.9,0-10.74,2.61-13.25,7.62-3.47,6.91-8.01,11.53-17.14,11.59-11.2-9.24-15.96-9.63-28.97-3.02-13.14,6.67-24.87,15.18-35.66,25.22-6.93,6.45-8.43,13.68-5.41,22.29.46,1.33.79,2.71,1.33,4.52-2.33,2.73-4.73,5.53-6.93,8.08-1.66.11-2.72.19-3.78.22-9.69.32-16.78,4.57-20.21,13.88-3.32,9.02-6.34,18.15-9.53,27.22-2.56,7.25.41,12.87,5.25,17.88,1.72,1.78,3.7,3.3,5.49,4.86-.33,3.5-.64,6.83-1.05,11.07-1.15.92-2.86,2.41-4.67,3.77-6.45,4.81-9.81,10.57-8.75,19.21,2.05,16.85,6.94,32.66,14.03,48.02,3.69,7.99,9.63,10.95,17.73,11.19,1.78.05,3.54.01,5.78.01,2.18,2.91,4.4,5.85,6.27,8.35-.96,5.04-2,9.36-2.56,13.74-.51,4.12.92,7.72,4.1,10.55,5.46,4.84,10.91,9.69,16.33,14.59,1.31,1.19,2.46,2.55,3.68,3.84-5.08-3.6-10.33-6.94-15.14-10.86-6.87-5.6-14.05-11.05-19.84-17.66-6.19-7.05-11.44-15.07-16.16-23.2-9.3-16.04-15.08-33.51-17.55-51.85ZM78,260.27c-4.67-12.39-8.95-24.82-10.18-38.09-.16-1.77-.3-3.57-.17-5.33.42-5.67,2.34-7.71,8-7.89,6.23-.2,12.47-.04,18.72-.04v.29h28.29c5.1.01,10.46-.01,12.58,5.84,2.58,7.14,4.67,14.57-1.76,20.98-2.25,2.25-4.89,4.15-7.53,5.97-10.25,7.12-20.56,14.14-30.85,21.2-.89.6-1.79,1.19-2.71,1.71-8.41,4.79-11.1,4.09-14.39-4.64ZM86.48,135.12c2.42,1.27,4.14,1.86,5.47,2.93,10.83,8.75,21.63,17.5,32.28,26.45,2.11,1.78,3.91,4.22,5.14,6.69,2.2,4.41.24,8.13-4.47,9.41-.34.1-.7.24-1.04.24-16.56-.15-33.13-.28-49.68-.54-1.3-.02-2.57-.92-4.78-1.78,3.09-15.88,5.48-31.22,17.07-43.41ZM156.07,80.22c.43.77,1.13,1.63,1.4,2.6,3.64,13.53,7.25,27.09,10.81,40.66.81,3.09,1.64,6.21,2.16,9.36,1.01,6.16-1.77,10.73-6.6,14.19-4.48,3.21-9.93,3.98-14.09.92-15.34-11.29-30.23-23.18-45.26-34.89-.36-.29-.45-.94-.63-1.36,4.28-11.68,39.98-33.3,52.2-31.48ZM300.64,122.29c-7.69,5.49-15.15,10.92-22.72,16.2-5.55,3.88-11.11,7.77-16.9,11.29-6.81,4.14-12.63,3.66-18.27-.95-6.08-4.99-8.14-11.35-5.6-18.56,4.79-13.61,9.72-27.17,14.69-40.71.71-1.92,1.92-3.66,2.84-5.36,14.9,4,36.36,21.69,45.96,38.1ZM314.71,148.32c.52-.35,1.35-.29,2.86-.58,6.01,12.21,9.96,25.02,12.52,39.4-3.47.2-6.2.61-8.93.5-12.43-.5-24.85-1.16-37.28-1.72-3.27-.14-5.97-1.16-7.21-4.44-1.19-3.18-.54-6.19,2.21-8.14,11.87-8.44,23.87-16.73,35.84-25.02ZM312.3,273.32c-5.12-3.66-9.49-6.64-13.71-9.82-8.95-6.77-17.8-13.67-26.75-20.45-6.16-4.66-7.65-10.78-6.22-18.05,1.31-6.64,4.53-9.69,11.39-9.53,11.57.27,23.14.85,34.69,1.38,5.65.26,11.3.7,17.98,1.11-.36,19.78-7.7,37.19-17.39,55.36ZM161.62,358.15c-1.83-.65-3.66-1.32-5.5-1.95-1.35-.47-3.03-.54-3.99-1.41-8.86-8.11-21.2-9.62-30.73-16.38-2.61-1.85-5.16-3.82-7.73-5.73,2.27,1.01,4.69,1.81,6.75,3.16,8.39,5.53,15.87,2.68,23.17-2.25,1.3-.87,2.45-1.95,3.8-3.03,3.07,1.41,5.93,2.72,7.73,3.54,2.78,7.56,5.19,14.1,7.62,20.67,3.42,1.26,6.68,2.45,9.94,3.65-.05.24-.11.47-.15.71-3.66-.35-7.31-.71-10.98-1.06l.07.09ZM236.74,172.09c-1.13,2.87-2.72,5.3-7.1,4.7.87-.96,1.26-1.53,1.78-1.95,2.98-2.46,3.72-5.65,2.48-9.11-1.22-3.44-4.11-4.67-7.63-4.6-.82.01-1.65-.07-2.48-.13,3.49-2.75,6.92-1.98,10.11.49,3.14,2.44,4.29,6.92,2.85,10.6ZM264.14,183.67c2.64,7.67,9.42,10.11,17.86,10.13v7.99h-31.28c-2.84-8.45-5.46-16.28-8.46-25.23,6.46-3.84,13.43-7.98,20.4-12.12.14.31.29.61.44.91,1.84-2.15,3.68-4.3,6.09-7.11,1.95,2.97,3.24,4.95,4.7,7.17-5.66,5.16-12.75,9.59-9.75,18.26ZM191.94,246.71c1.95,3.8,4.51,6.66,9.2,5.84,5.31-.93,6.96-4.88,7.38-9.85,1.64,3.11,1.53,6-.71,8.62-2.67,3.15-6.06,4.25-10.1,3.11-3.87-1.1-6.03-3.51-5.77-7.71ZM160.65,206.93c4.13.07,7.27,3.35,7.27,7.57,0,3.92-3.61,7.42-7.56,7.32-3.95-.09-7.31-3.63-7.28-7.68.03-4.13,3.35-7.29,7.57-7.22ZM240.15,232.45c7.65,5.56,15.88,11.54,24.72,17.98-2.13,2.39-3.69,4.12-5.44,6.07-6.68-4.05-13.22-7.17-20.22-2.25-6.82,4.82-6.23,11.77-4.27,19.35-2.42.77-4.47,1.44-7.43,2.39-3.26-10.19-6.34-19.84-9.08-28.43,7.65-5.32,14.25-9.92,21.71-15.11ZM244.37,208.83c4.68.36,6.51,3.34,7.05,7.33.56,4.14-1.07,7.4-4.7,9.42-3.15,1.76-6.32,1.95-10.31-1.79,5.96,1.08,9.9-.02,11.92-4.83,1.95-4.67-1.32-7.21-3.95-10.14ZM258.16,323.05c-1.2-2.25-2.53-3.96-3.06-5.89-4.21-14.89-8.29-29.82-12.36-44.76-.8-2.96-.47-5.71,2.36-7.57,2.87-1.88,9.11-1.52,12.17.86,2.67,2.08,5.08,4.49,7.76,6.53,7.51,5.71,15.13,11.25,22.61,16.99,2.21,1.69,4.07,3.8,6.77,6.36-10.61,12.02-22.41,20.52-36.26,27.48ZM241.1,212.04c3.93,1.51,4.94,4.21,3.55,7.06-.73,1.49-3.3,3.11-4.82,2.91-1.52-.19-3.67-2.41-3.95-4.02-.62-3.6,1.92-5.34,5.21-5.95ZM177.87,174.88c-4.04.3-7.66-2.9-7.89-6.97-.25-4.24,2.78-7.63,6.95-7.77,4-.14,7.67,3.21,7.81,7.14.12,3.54-3.31,7.35-6.86,7.6ZM167.1,333.93c.22-2.43.03-4.71.71-6.7,5.26-15.7,10.78-31.32,16.02-47.03,4.08-12.25,19.88-12.82,27.35-7.6,1.61,1.12,3.04,3.18,3.57,5.09,4.33,15.6,8.47,31.26,12.53,46.94.73,2.8.81,5.77,1.24,9.06-20.71,5.11-40.55,4.25-61.41.25ZM227.54,75.68c-.42,2.29-.48,4.07-1.08,5.64-4.81,12.84-9.68,25.66-14.62,38.44-1.27,3.32-3.27,5.96-7.37,5.91-4.51-.05-5.99-3.32-7.12-6.81-4.14-12.69-8.24-25.39-12.3-38.11-.79-2.49-1.34-5.08-2.31-8.86,15.72-1.49,30.2-1.9,44.8,3.78ZM109.43,288.79c8.08-5.51,16.47-10.58,24.61-16.02,4.14-2.76,7.92-6.06,12.05-8.86,1.7-1.15,3.82-2,5.86-2.27,3.7-.48,5.87,1.43,5.82,5.15-.03,2.63-.45,5.36-1.24,7.87-4.02,12.73-8.14,25.42-12.38,38.08-1.3,3.89-2.74,7.87-8.37,9.07-11.85-6.87-23.77-13.85-32.96-26.2,2.36-2.48,4.15-5.14,6.62-6.82Z"/>
      <path class="cls-1" d="M177.29,171.25c.18.57.37,1.14.56,1.7,1.09-.51,2.2-1.03,3.29-1.53-.18-.44-.37-.88-.57-1.32-1.09.39-2.18.76-3.28,1.15Z"/>
      <path class="cls-1" d="M83.36,39.12l1.14-1.2-.07-.08c-.38.4-.76.8-1.14,1.2-1.41,1.04-2.81,2.08-4.22,3.11l.05.06c1.41-1.04,2.83-2.07,4.24-3.11Z"/>
      <path class="cls-1" d="M164.13,3.74c-.12,0-.23.02-.35.03-.08.03-.16.07-.24.1.1,0,.21-.02.31-.03.09-.03.18-.07.28-.1Z"/>
      <path class="cls-1" d="M153.65,6.03c-.11.01-.1.01,0,0h0Z"/>
      <path class="cls-1" d="M153.84,6.01c-.08,0-.14.02-.18.02.04,0,.1-.01.18-.02Z"/>
      <path class="cls-1" d="M153.9,6.01s-.04,0-.06,0c.02,0,.04,0,.06,0-.33.16-.53.25,0,0,.1-.01.2-.02.31-.04.07-.03.15-.07.22-.1-.1,0-.2.02-.29.03-.08.04-.16.08-.24.11Z"/>
      <path class="cls-1" d="M325.33,308.89c-.34.32-.69.64-1.03.95-.35.36-.72.72-1.07,1.07-.36.36-.73.72-1.09,1.08-.37.37-.76.76-1.13,1.15l.06.06c.39-.37.77-.76,1.15-1.14.36-.36.73-.72,1.09-1.08.35-.35.71-.72,1.07-1.07.34-.32.67-.64,1.02-.95l-.06-.08Z"/>
      <path class="cls-1" d="M324.37,304.58l-.07-.07c-.39.39-.77.77-1.16,1.17-1.03,1.42-2.05,2.85-3.07,4.27-.73.74-1.47,1.47-2.2,2.21l.09.09,2.18-2.22c1.03-1.42,2.05-2.85,3.06-4.28.4-.39.78-.77,1.17-1.16Z"/>
    </g>
  </g>
</svg>