<?xml version="1.0" encoding="UTF-8"?>
<svg id="Camada_2" data-name="Camada 2" xmlns="http://www.w3.org/2000/svg" viewBox="0 0 418.3 417.85">
  <defs>
    <style>
      .cls-1 {
        fill: #fff;
        stroke-width: 0px;
      }
    </style>
  </defs>
  <g id="Camada_1-2" data-name="Camada 1">
    <path class="cls-1" d="M0,217.83c0-5.89,0-11.78,0-17.68.59-5.43,1.4-10.85,1.72-16.3.57-9.84,2.92-19.32,5.2-28.84.63-.42,1.19-.79,1.64-1.1,0-1.66-.35-3.28.06-4.69,3.09-10.83,7.1-21.3,12.5-31.22h.1c.12-.29.23-.58.35-.87v-.1c2.01-1.54,4.76-7.43,4.72-9.98,1.49-2.32,2.86-4.59,4.38-6.75.71-1.02,1.6-2.01,2.6-2.73,2.48-1.78,3.44-3.62,2.96-6.07,2.95-4.03,5.85-7.98,8.92-12.18,2.74-3.11,5.72-6.47,8.73-9.88.64.04,1.24.08,1.75.11.5-.63.97-1.21,1.45-1.8.58.25,1.04.45,2,.87-.99-.8-1.55-1.25-2.09-1.69-.34.17-.66.34-1.35.68.45-.84.57-1.34.89-1.63,2.53-2.36,5.13-4.65,7.62-7.05,1.11-1.08,2.01-2.38,3.01-3.58.03.07.07.14.1.21,3.43-2.8,6.86-5.6,10.35-8.44.59.04,1.19.08,1.92.13.6-.65,1.26-1.36,1.92-2.08-.38-.4-.6-.64-.73-.78,4.03-3.14,8.56-5.55,12.41-9.48,1.61.52,2.85-1.21,4.41-2.05,2.55-1.39,5-2.95,7.61-4.51.75.94,1.25,1.57,1.72,2.16.47-2.11,1.58-4.02,3.51-5.13,2.73-1.57,5.65-2.8,8.45-4.25.84-.44,1.55-1.13,2.52-1.86,1.12-.27,2.6-.5,3.98-.99,2.45-.87,4.83-1.94,7.27-2.83.8-.3,1.7-.33,2.46-.47.62,1.29,1.08,2.25,1.44,2.99.68-1.66,1.37-3.36,2-4.93,4.4-1.12,8.45-2.14,12.23-3.1.37-.97.65-1.7,1.04-2.7,1.2.78,2.12,1.39,3.2,2.1,3.75-.83,7.64-1.69,11.58-2.57.23.61.54,1.46.85,2.31.16.03.31.07.47.1.55-1.22,1.11-2.45,1.51-3.33,4.9.47,9.28-.46,13.56-1.27.07-1.43.12-2.44.17-3.47,2.31-.39,2.46,1.51,3.13,3.19,4.14-.23,8.3-.45,12.59-.69.2.35.53.93.96,1.67.58-.47,1.15-.77,1.48-1.23.37-.53.53-1.21.83-1.97.4.5.72.9,1.1,1.39h12.02c.22-1.01.42-1.9.62-2.79l.6.04v4.11c1.36-1.57.92-3.19.52-4.82.41.33.82.66,1.19.95.08.9.15,1.73.24,2.69,4.08.32,8.03.62,11.92.92.37-.5.66-.91,1.02-1.41.41,1.14.75,2.1,1.24,3.46.91-.77,1.51-1.28,1.9-1.62,4.36.59,8.57,1.17,12.78,1.74.43-.96.77-1.72,1.11-2.48l.47.12v4.17c.16,0,.33.01.49.02.22-1.3.44-2.59.65-3.89.15,0,.3.01.45.02v2.69c4.03.84,7.84,1.64,11.63,2.42.37-.31.7-.58,1.23-1.02.6,1.51,1.13,2.86,1.79,4.51.63-1.11,1.07-1.88,1.41-2.48,4.14,1.16,8.11,2.26,11.93,3.32.6-.47,1.04-.83,1.49-1.18.17.07.34.14.5.22-.25,1.51-.5,3.01-.75,4.52.16.05.32.1.48.14.46-1.41.91-2.81,1.48-4.57.42,1,.68,1.6.76,1.8,4.83,1.6,9.56,2.45,12.84,6.01.05,1.12.1,2,.15,3.09.84-1.28,1.54-2.35,2.28-3.48,4.2,2.1,8.17,4.09,12.47,6.24-.38,1.34-.79,2.84-1.21,4.33.12.05.24.09.36.14.58-1.35,1.17-2.71,1.71-3.97,1.54.93,3.12,1.84,4.66,2.81,3.15,1.98,6.85,3.32,8.33,7.54-.03.16-.11.69-.21,1.29.9-.84,1.66-1.55,2.38-2.22,2.07,1.44,3.92,2.7,5.74,4,1.8,1.29,3.56,2.62,5.38,3.96-.11.85-.21,1.7-.33,2.63.41-.69.77-1.31,1.17-2,.62.54,1.08.92,1.53,1.34,3.23,2.96,6.44,5.95,9.72,8.85.53.47,1.42.55,2.55.95,1.15,1.06,2.66,2.38,4.1,3.79,1.44,1.4,2.9,2.81,4.15,4.37.68.85.95,2.03,1.5,3.26,1.34.17,7.57,7.06,10.48,11.7.88.52,1.82,1.03,2.37,1.82,2.31,3.35,4.7,6.67,6.65,10.23.88,1.61,2.12,2.65,2.98,3.54,1.97,4.77,5.76,8.29,5.61,13.35,2.63-.03,3.35,1.67,4.1,3.29.68,1.47,1.22,3,1.92,4.46,1.79,3.75,3.74,7.42,5.42,11.21,1.25,2.84,3.03,5.58,2.39,8.97-.1.54.23,1.17.35,1.7.76.09,1.42.18,2.35.29,1.23,4.58,2.22,9.24,3.74,13.71,1.72,5.05,3.32,10.05,3.13,14.75,2.71,6.03,2.75,11.95,3.52,17.67.78,5.76,1.65,11.59-.16,17.44h1.59c.05.42.13.79.14,1.17.43,11.39-.64,22.7-2.15,33.95-2.39,17.83-7.14,35.06-14.1,51.66-5.15,12.28-11.39,23.96-18.73,35.07-6.2,9.38-13.11,18.17-20.75,26.4-7.06,7.61-14.62,14.67-22.71,21.19-7.24,5.83-14.82,11.17-22.77,15.95-11.19,6.74-22.93,12.38-35.2,16.93-16.74,6.21-33.97,10.18-51.7,12.07-4.44.47-8.88.88-13.33,1.31h-18.61c-1.24-.28-2.47-.69-3.72-.83-5.21-.56-10.47-.81-15.65-1.59-15.37-2.32-30.33-6.18-44.86-11.8-15.34-5.94-29.79-13.5-43.33-22.79-12.01-8.24-23.12-17.57-33.02-28.25-5.09-5.49-10.02-11.17-14.55-17.12-4.58-6-8.71-12.36-12.82-18.71-5.5-8.5-9.91-17.6-13.84-26.9-4.95-11.74-8.77-23.86-11.53-36.33-2.61-11.78-3.94-23.7-4.84-35.7ZM317.27,141.1c-.2-.17-.4-.35-.6-.52-.13.29-.26.58-.39.86v1.06s.06-.04.06-.04c-.2,0-.4,0-.6-.01-.09,0-.18,0-.27,0-.38,0-.76,0-1.14,0-.28.28-.56.56-.83.84l-.48,1.08.06-.02c-.21,0-.41-.02-.62-.03-.24,0-.48-.02-.72-.03-.19.18-.38.36-.58.54-.15.16-.3.31-.45.47-.29.14-.59.28-.88.42-.37.16-.74.32-1.1.49.06.03.17.09.17.1-.03.11-.09.21-.14.31.12.19.24.38.36.57-.63.27-1.26.55-1.88.82l.08-.04-.6.04s-.05-.03-.08-.05c.05.03.09.06.14.09-1.73.96-3.46,1.91-5.19,2.87h.08c-2.42,1.88-4.98,3.45-8.08,3.92.02,0,.03.02.05.02-.1.01-.19.04-.28.1l.07-.11c-1.69,1.88-3.92,2.79-6.26,3.51h.08c-.27.07-.53.13-.8.19-.17-.26-.33-.51-.5-.77-.09,0-.18,0-.26.01-.18.3-.36.59-.55.89-.36.32-.72.65-1.08.97l.09-.08c-4.72,2.62-9.45,5.24-14.17,7.87-5.14,2.86-10.64,5.23-15.32,8.7-7.9,5.87-13.59,13.92-19.23,21.9-.44.63-.52,1.52-.85,2.55,1.16.54,2.07,1.12,3.06,1.41,5.26,1.53,10.5,3.15,15.83,4.43,6.28,1.51,12.64,2.07,19.11.97,13.8-2.35,27.6-4.7,41.44-6.83,12.55-1.93,25.14-3.55,37.71-5.35,1.17-.17,2.3-.58,3.75-.96-.32-1.83-.58-3.3-.9-5.13.05-.13.24-.64.53-1.4-9.17,1.21-18.05,2.44-26.94,3.54-16.44,2.04-32.88,4.06-49.34,5.96-5.94.69-11.93,2.16-17.89,0,1.05.56,2.1,1.13,3.15,1.69-3.61.88-11.09-2.22-12.48-4.72.01-.21-.02-.45.04-.67.1-.37.22-.75.4-1.09,2.77-5.37,6.06-10.27,11.56-13.28,2.51-1.37,4.94-2.89,7.45-4.28,20.79-11.5,41.58-22.99,62.37-34.49,1.46-.81,2.88-1.71,4.25-2.52-1.01-3.68-2.4-4.44-5.63-3.31-.36.13-.69.34-1.04.52-.27-.15-.54-.31-.81-.46,0,.09,0,.17,0,.26.13.19.26.39.39.58-.46.2-.92.39-1.37.59-.01-.16-.02-.32-.02-.25-.04-.04.09.09.21.23-1.58.86-3.17,1.7-4.75,2.57-.99.55-1.97,1.14-2.95,1.7-1.5.86-3.01,1.72-4.51,2.57l.03.05c0-.2.01-.4.02-.6,0-.09,0-.18,0-.26,0-.2,0-.39,0-.59v.06c-.06-.06-.14-.12-.13-.17.02-.13.07-.25.12-.37l.02.06ZM101.3,142c-.08.1-.16.19-.24.29-.6-.28-1.19-.56-1.79-.83-.08-.98-.39-1.62-1.53-1.03-1.38.15-2.5-.14-2.77-1.75h-.01c-.18-.18-.36-.34-.54-.51-.12-.03-.24-.04-.36-.06-.35-.14-.69-.28-1.04-.41-.27-.13-.54-.25-.81-.38-.21.18-.41.37-.62.55-.19-.14-.38-.28-.57-.42h.13c-.69-.3-1.37-.61-2.06-.92-.07-.5-.15-1.01-.22-1.51-.35-.17-.7-.33-1.05-.5-.24,0-.48,0-.72,0-.17.12-.33.24-.5.37-3.98-1.54-5.24-.98-6.38,2.94.45.32.91.72,1.44,1.01,5.15,2.84,10.34,5.62,15.48,8.49,18.86,10.5,37.69,21.07,56.59,31.51,5.55,3.07,9.14,7.75,11.92,13.23.4.78.51,1.71.7,2.38-2.3,2.88-10.41,5.71-12.37,4.33.98-.49,1.88-.94,2.78-1.39-3.6.92-7.16,1.2-10.82.67-2.99-.44-6-.68-9-1.04-13.84-1.66-27.67-3.29-41.5-5.01-10.53-1.3-21.04-2.72-31.56-4.08-.28-.04-.57,0-1.02,0,.27.66.46,1.13.66,1.61l-.33-.02c-.19,1.54-.37,3.09-.58,4.86,1.21.32,2.07.64,2.95.75,5.76.76,11.54,1.35,17.28,2.25,19.73,3.09,39.45,6.3,59.17,9.45,4.66.74,9.31,1.64,14.08,1.03,8.32-1.06,16.38-3.16,24.3-5.87,1.04-.36,1.98-1.01,3.29-1.69-.72-1.3-1.15-2.37-1.82-3.25-3.21-4.18-6.37-8.4-9.76-12.42-4.11-4.87-8.7-9.25-14.48-12.19-6.48-3.3-12.97-6.61-19.41-10-2.29-1.2-4.46-2.64-6.68-3.96l.09.05c-.59-.24-1.18-.47-1.78-.71l.11.06c-.31-.15-.62-.29-.93-.44h.08c-.5-.16-1.05-.25-1.49-.51-1.91-1.14-3.8-2.32-5.69-3.49l.06.14c-.17-.17-.35-.34-.52-.51,0,0,.13.08.13.08-.32.02-.64.04-.96.07l.08-.12.06.13c-.71-.38-1.42-.76-2.14-1.14.01-.22.02-.43.04-.65-.2-.2-.41-.4-.61-.61-.09.11-.17.21-.25.33-1.8.18-3.07-.7-4.1-2.06.04.03.09.06.13.09-.05-.01-.1-.03-.16-.04l-.09.15c.14-.29.27-.57.41-.86-.28-.13-.57-.26-.85-.39-.15.35-.3.7-.44,1.05-.31-.12-.62-.23-.92-.35.02,0,.04.01.06.02-.66-.61-1.32-1.22-1.98-1.82l.11.1c-.45-.09-.99-.04-1.34-.28-1.55-1.06-3.98-.69-4.79-2.93.01-.28.03-.56.04-.84-.39-.17-.77-.35-1.16-.52-.09,0-.17,0-.26,0-.19.02-.37.04-.56.06l-.59-.49ZM172.54,235.86c.18.21.37.42.55.63-5.31,2.59-10.17,5.78-14.4,9.96-19.38,19.19-38.8,38.33-58.19,57.51-.57.57-.95,1.34-1.53,2.19.91,1.1,1.72,2.08,2.65,3.21.84-.65,1.47-1.07,2.02-1.58,3.05-2.86,6.05-5.77,9.12-8.62,16.32-15.2,32.72-30.33,48.96-45.63,4.97-4.69,10.67-7.57,17.32-8.79,3.28-.6,4.25.05,4.71,3.29.89,6.34.3,12.4-2.49,18.32-10.37,22.06-20.56,44.2-30.83,66.3-1.36,2.92-2.74,5.84-4.29,9.13,1.64.56,2.95,1,4.37,1.48.59-1.04,1.04-1.74,1.4-2.49,3.8-7.88,7.45-15.83,11.4-23.64,8.18-16.15,16.56-32.2,24.74-48.34,1.56-3.08,3.08-6.32,3.79-9.66.97-4.59,1.35-9.34,1.61-14.04.26-4.62.06-9.26.06-14.39-1.06-.07-2.1-.4-2.97-.15-3.93,1.16-7.81,2.52-11.72,3.75-.94.3-1.94.4-2.91.59,0,0,.09.04.09.04-.28,0-.56.01-.84.02l.09-.05c-.15.21-.31.41-.46.62,0,0,.11-.09.11-.09-.5.15-1,.31-1.51.46-.28-.09-.56-.19-.84-.28,0,.09,0,.18,0,.26ZM76.81,217.74c-2.31,1.71-5.14,2.8-6.76,5.34.1.16.19.31.29.47,4.38-2.08,8.75-4.17,12.57-5.99-1.46.02-3.39.06-5.32.09-.26.03-.52.06-.78.09ZM348.56,222.99c-.4-.35-.9-.65-1.2-1.07-2.57-3.62-5.94-5.32-10.43-4.54-.74.13-1.53.02-2.19.02,2.68,1.31,5.45,2.67,8.23,4,2.71,1.3,5.44,2.57,8.17,3.86l.1-.25c-.89-.72-1.77-1.44-2.66-2.16v.14ZM326.49,130.05c1.85.72,3.71,1.44,5.41,2.1,2.28-.82,4.36-1.78,6.47.01-.96-1.37-1.92-2.73-2.83-4.02-2.65.34-5,.65-7.7,1-.26.21-.8.64-1.34,1.08-2.31-1.07-4.63-1.85-7.27-1.76-3.92.13-7.72.78-11.38,2.1-4.08,1.47-8.42,2.64-10.35,7.34.54-.2,1.08-.44,1.64-.58,6.32-1.61,12.66-3.16,18.97-4.81,2.82-.73,5.59-1.64,8.38-2.47ZM229.12,331.82c.42-5.62.16-11.01-.66-16.36-1.14-7.41-3.37-14.53-5.99-21.52-2.35-6.27-5.04-12.41-7.71-18.56-1-2.3-2.85-3.79-5.48-4.04-3.07-.29-5.01,1.32-6.2,3.92-1.78,3.92-3.5,7.88-5.15,11.86-3.61,8.74-6.67,17.67-8.35,27.01-1.04,5.78-1.25,11.63-.94,17.62.88.36,1.62.87,2.41.97,5.55.76,11.11,1.59,16.73.5.74-.14,1.56-.16,2.3-.02,6.46,1.22,12.69-.28,19.03-1.38ZM97.69,265.77c1.82-.53,3.52-.97,5.17-1.53,7.8-2.65,14.99-6.45,21.7-11.24,7.88-5.61,15.47-11.56,22.44-18.28,1.92-1.85,3.14-4.03,2.2-6.86-.9-2.73-2.84-4.18-5.64-4.45-4.83-.48-9.66-1.06-14.51-1.29-10.11-.47-20.25-.95-30.26.94-4.63.87-9.11,2.58-13.65,3.91,2.29,13.86,6.27,26.62,12.55,38.81ZM332.58,227.23c-1.76-.67-3.32-1.33-4.92-1.86-9.21-3.06-18.72-3.71-28.33-3.47-7.1.18-14.2.32-21.3.64-1.89.09-3.83.58-5.62,1.23-4.04,1.46-5.33,6.33-2.68,9.71.67.85,1.42,1.64,2.22,2.37,8.52,7.78,17.52,14.96,27.28,21.13,6.42,4.05,13.42,6.83,20.87,8.69,6.33-12.11,10.27-24.82,12.48-38.43ZM119.99,120.48c4.07,6.3,8.59,12.13,14.38,16.65,7.04,5.5,14.44,10.56,21.83,15.59,3.1,2.11,6.51,3.8,9.9,5.44,2.58,1.25,4.95.44,6.94-1.57,1.97-1.99,1.62-4.47,1.13-6.77-1.19-5.64-2.43-11.28-4-16.83-2.79-9.88-5.82-19.69-11.56-28.37-1.81-2.73-3.75-5.38-5.62-8.04-12.57,6.24-23.39,14.17-33.01,23.89ZM266.64,97.71c-2.6.62-4.13,1.8-5.18,3.63-2.31,4-5.01,7.81-6.88,12-5.38,12.01-8.7,24.67-11.19,37.56-.5,2.58.11,4.89,2.37,6.56,2.1,1.55,4.3,1.61,6.53.43,2.92-1.55,5.86-3.09,8.68-4.81,8.59-5.21,16.89-10.86,24.34-17.63,4.82-4.37,8.91-9.39,12.45-15.01-9.35-9.28-19.57-17.08-31.13-22.73ZM177.35,63.43c.19.46.49.85.4.99-1.09,1.62-.51,3.25-.18,4.92.85,4.32,1.75,8.64,2.45,12.99,3.3,20.47,6.48,40.96,9.86,61.41.79,4.78,1.66,9.68,3.47,14.13,3.19,7.84,8.13,14.76,13.19,21.54.62.83,1.48,1.47,2.45,2.41.97-.95,1.88-1.59,2.45-2.44,3.22-4.74,6.51-9.44,9.48-14.33,2.41-3.95,4.81-8,5.58-12.68,2.05-12.36,3.95-24.74,6-37.09,2.22-13.36,4.62-26.68,6.77-40.05.59-3.69,2.4-7.34.96-11.22-.05-.14.11-.35.18-.58-1.39-.3-2.66-.58-3.83-.84-.26,1.21-.52,2.35-.74,3.5-4.94,25.59-10,51.17-14.75,76.8-1.41,7.59-4.3,14.16-9.91,19.47-.34.32-.79.54-1.34.9-.13-1.09-.22-1.89-.32-2.77-2.38.08-.75,1.99-1.73,3.01-3.51-3.7-7.17-7.3-8.73-12.28-1.26-4.04-2.1-8.23-2.91-12.39-4.99-25.38-9.92-50.77-14.88-76.24-1.3.28-2.5.54-3.93.85ZM315.99,309.13c3.2-2.05,3.36-3.29.95-5.65-13.17-12.9-26.35-25.78-39.48-38.71-6.95-6.84-13.62-13.98-20.82-20.55-3.54-3.23-7.83-5.75-12.07-8.06-2.94-1.6-6.36-2.33-9.59-3.37-3.07-.99-6.18-1.87-9.7-2.92-.39,1.28-.94,2.23-.92,3.17.08,5.8.2,11.6.49,17.4.35,6.97,2.17,13.55,5.63,19.66,1.37,2.42,2.58,4.93,3.83,7.41,10.13,20.11,20.25,40.22,30.37,60.34.86,1.71,1.68,3.43,2.71,5.55,1.59-.59,2.93-1.09,4.39-1.63-.4-.95-.59-1.45-.82-1.93-6.79-14.42-13.64-28.82-20.36-43.27-5.08-10.94-9.98-21.95-14.95-32.94-2.44-5.4-2-11.03-1.2-16.66.26-1.85,1.27-2.62,3.1-2.33,5.38.86,10.69,2.06,14.94,5.79,5.12,4.49,10.22,9.01,15.21,13.66,15.46,14.42,30.86,28.91,46.29,43.37.66.62,1.39,1.16,2.02,1.68ZM122.01,298.54c8.42,7.99,17.66,14.93,28.17,20.38.53-.89.97-1.52,1.29-2.2,6.75-14.36,13.55-28.7,20.18-43.12,1.47-3.19,2.72-6.55,2.31-10.26-.39-3.52-2.67-5.09-6.13-4.36-4.49.95-8.06,3.41-11.34,6.42-7.45,6.86-14.96,13.68-22.3,20.66-4.14,3.94-8.01,8.18-12.19,12.48ZM295.97,298.33c-.59-.63-1.03-1.16-1.52-1.63-10.36-9.87-20.66-19.8-31.13-29.56-3.7-3.45-7.53-6.83-12.82-7.94-4.61-.96-7.19.84-6.58,5.58.45,3.47,1.4,7,2.82,10.19,4.96,11.2,10.18,22.29,15.38,33.38,1.66,3.54,3.57,6.96,5.44,10.58,10.57-5.56,19.94-12.35,28.4-20.6ZM321.2,153.45c-.87.4-1.56.68-2.22,1.03-6.96,3.67-13.98,7.22-20.86,11.04-7.42,4.12-14.7,8.5-22.04,12.76-2.83,1.64-4.72,4.21-6.47,6.84-1.76,2.64-1.05,5.11,1.93,6.11,2.74.92,5.67,1.76,8.51,1.74,5.07-.04,10.15-.62,15.2-1.24,10.71-1.31,21.4-2.78,32.09-4.21,1.56-.21,3.1-.58,4.74-.89-2.16-11.67-5.61-22.6-10.88-33.18ZM149.3,187.36c-.4-.74-.83-1.55-1.26-2.36-2.48-4.65-6.75-7.35-11.11-9.83-9.24-5.24-18.57-10.33-27.9-15.41-3.97-2.16-8.03-4.15-12.34-6.37-5.43,10.66-8.81,21.65-10.98,33.38,2.18.31,4.21.6,6.24.9,6.09.88,12.17,1.8,18.27,2.62,5.95.81,11.89,1.73,17.87,2.21,4.67.37,9.42.5,14.07.04,2.87-.28,6.29-.91,7.13-5.18ZM191.32,84.64c1.07,6.08,2,11.99,3.15,17.86,2.1,10.64,4.36,21.26,6.49,31.89.72,3.61,2.67,6.55,4.91,9.31,1.66,2.04,4.35,2.02,6.04.01,2.52-2.98,4.45-6.31,5.25-10.18,2.16-10.56,4.32-21.12,6.36-31.71,1.09-5.65,1.95-11.34,2.94-17.18-11.81-1.61-23.37-1.64-35.14-.01ZM359.22,175.64c-.05-.73,0-1.47-.15-2.17-2.38-11.41-6.32-22.28-11.4-32.76-11.21-23.12-27.26-42.21-48.02-57.28-20.06-14.55-42.39-23.75-66.91-27.57-18.25-2.84-36.45-2.51-54.51,1.22-27.08,5.59-51.09,17.5-71.77,35.92-24.83,22.12-40.64,49.58-48.05,81.93-.31,1.37-.24,2.83-.35,4.25,14.48-69.82,73.66-120.69,144.91-123.61,33.09-1.35,63.68,7.25,91.18,25.79,33.92,22.87,55.14,54.66,65.09,94.27ZM185.39,356.72c-1.96-1.28-2.76-3.24-3.11-5.3-1.03-6.18-1.92-12.39-2.85-18.59-.32-2.16-.6-4.34-.95-6.88-3.4,6.23-7.28,11.44-12,16.01-.49.47-.8,1.13-1.32,1.56-1.81,1.5-3.5,3.32-5.58,4.26-1.72.78-3.93.5-6.27.72,10.93,2.6,21.08,7,32.07,8.22ZM239.39,325.88c-.56,4.63-1.04,9.23-1.7,13.82-.59,4.13-1.3,8.25-2.12,12.34-.35,1.77-1,3.52-2.73,4.62,10.78-1.18,20.7-5.64,31.13-8.22-3.93.35-7.35-.31-10.01-3.56-2.37-2.91-4.92-5.68-7.48-8.43-2.93-3.14-5.15-6.72-7.1-10.57ZM304.91,271.57c3.38,5.14,6.9,10.62,10.55,16.01,3.75,5.54,5.2,12.05,7.69,18.43-.12.23-.4.8-.83,1.64,3.01-3.24,5.36-6.41,4.67-10.86-.22-1.44-.68-2.9-.55-4.31.39-3.98-2.14-6.4-4.48-8.91-2.44-2.62-5-5.13-7.48-7.7-.16-.17-.13-.52-.25-1.02,8.7,1.37,17.1,3.34,25.67,4.07.04-.26.09-.53.13-.79-1.6-.11-3.21-.22-4.81-.33.02-.1.04-.2.06-.3.97-.2,1.93-.4,2.9-.6-.03-.15-.05-.31-.08-.46-5.78.64-11.31-1.02-16.92-1.82-5.55-.79-11.04-2.03-16.28-3.03ZM77.84,278.06c.02.18.04.37.06.55,4.45.55,8.73-.99,13.07-1.57,4.49-.6,8.94-1.58,13.41-2.39-.59.94-1.37,1.53-2.02,2.24-1.76,1.92-3.45,3.91-5.2,5.83-1.03,1.12-2.57,1.99-3.12,3.29-1.1,2.63-2.82,5.07-2.86,8.11-.03,2-.3,4-.5,6.46,1,1.6,2.24,3.58,3.43,5.48,2.79-6.17,5.14-12.33,8.27-18.06,3.17-5.81,7.11-11.2,10.67-16.7-10.99,2.71-22.11,4.78-33.57,5.59,1.04.21,2.07.43,3.11.64,0,.09-.02.18-.03.27-1.57.09-3.14.18-4.71.26ZM261.43,352.5c0-.18,0-.35,0-.53-.5.14-.99.29-1.49.43-6.86,1.88-13.66,4.02-20.6,5.56-5.1,1.13-10.38,1.5-15.58,2.16-.52.07-1.09-.2-1.64-.32.04-.13.08-.26.12-.39,4.17-.52,8.34-1.04,12.51-1.56-17.23,2.13-34.45,2.02-51.68.04,2.62.38,5.23.75,7.85,1.13-.05.25-.09.49-.14.74-9.74-.75-19.17-3.08-28.51-5.97-9.45-2.93-18.44-6.92-27.2-11.34,40.69,21.69,82.82,25.01,126.37,10.04ZM120.28,138.09c.16-.25.31-.51.47-.76-1.71-1.55-3.24-3.42-5.19-4.58-2.12-1.26-4.59-2.01-6.99-2.72-2.54-.75-5.15-1.49-7.77-1.66-2.18-.14-4.4.55-6.61.84-.86.11-1.74.23-2.59.13-3.03-.34-6.04-.77-9.24-1.18-.85,1.26-1.68,2.48-2.51,3.7,2.26-1.33,4.27-.48,6.27.35.61-.24,1.16-.59,1.75-.67,1.74-.25,3.18-1.68,5.14-1.12,2.77.79,5.6,1.36,8.37,2.15,6.31,1.8,12.6,3.68,18.9,5.52ZM185.8,348.68c-.28,2.05.64,2.36,1.98,2.55,3.08.42,6.14,1.11,9.22,1.5,2.6.33,5.23.38,7.87.56.36-1.23.58-1.99.86-2.94-6.82-.57-13.32-1.11-19.93-1.66ZM212.37,350.34c.13.88.21,1.48.35,2.4,1.18.15,2.38.5,3.54.41,2.93-.24,5.85-.62,8.76-1.05,1.84-.28,3.66-.72,5.48-1.14,1.09-.25,2.02-.68,1.42-2.25-6.44.54-12.86,1.08-19.56,1.64ZM208.54,336.85c.18.05.36.1.53.15.21-.34.55-.66.58-1.02.03-.25-.35-.55-.55-.82-.15.03-.3.06-.45.09-.04.54-.08,1.07-.12,1.61Z"/>
  </g>
</svg>