<?xml version="1.0" encoding="UTF-8"?>
<svg id="Camada_2" data-name="Camada 2" xmlns="http://www.w3.org/2000/svg" viewBox="0 0 402.14 402.06">
  <defs>
    <style>
      .cls-1, .cls-2 {
        stroke-width: 0px;
      }

      .cls-2 {
        fill: #fff;
      }
    </style>
  </defs>
  <g id="Camada_1-2" data-name="Camada 1">
    <g>
      <path class="cls-2" d="M400.69,179.15c-2.51-24.25-8.2-47.7-19.92-69.16-11.27-20.64-24.59-39.99-42.34-55.78-7.88-7.01-15.82-14.04-25.16-19.18-.28-.28-.55-.55-.83-.83,0,0,0,0,0,.01-.81-.54-1.63-1.08-2.44-1.62l.02-.02c-3.3,1.17-4.74-1.37-6.53-3.25.54,0,1.07,0,1.61,0l.82.82.02-.02c-.27-.27-.55-.55-.82-.82-.55,0-1.1,0-1.65,0h0,0,0l.02.02c-5.11-2.17-10.4-4-15.29-6.59-10.88-5.76-22.44-9.64-34.22-12.88-13.25-3.64-26.68-6.37-40.53-5.91-6.72.22-13.43.73-20.14,1.02-3.93.17-7.87.33-11.79.21-13.31-.4-26.15,2.09-38.77,6.05-3.96,1.24-8,2.26-12,3.38,5.67-2.1,11.23-4.59,17.03-6.2,15.21-4.22,30.69-6.4,46.56-7.12,12.46-.56,24.62.77,36.88,1.84.66.06,1.33,0,2.14-.65-1.69-.3-3.39-.63-5.09-.89-1.88-.29-3.76-.66-5.65-.74-8.13-.35-16.27-.93-24.4-.85-28.93.31-56.47,6.7-82.61,19.23-15.65,7.5-30.37,16.45-43.43,27.8-8.68,7.54-16.62,15.98-24.44,24.42-10.5,11.34-18.09,24.76-25.6,38.13-6.28,11.16-10.6,23.21-14.2,35.49C1.93,165.46-.8,186.29.2,207.48c1.35,28.38,7.42,55.65,20.09,81.29,11.63,23.53,26.93,44.3,46.39,61.9,16.35,14.78,34.79,26.33,55,35.18,17.82,7.81,36.42,12.63,55.64,15.1,11.46,1.47,22.98,1.28,34.54.59,11.98-.71,23.76-2.49,35.41-5.15,25.2-5.75,48.29-16.3,69.53-31,13.37-9.25,25.2-20.25,36.14-32.17,9.02-9.83,16.7-20.75,22.8-32.64,4.9-9.53,9.93-19.08,13.69-29.08,6.29-16.69,10.24-34.05,11.96-51.86.12-1.2.49-2.37.74-3.55v-26.1c-.49-3.61-1.08-7.21-1.45-10.84ZM312.44,34.24c0,.26,0,.52,0,.77,0,0,0,0,0,0,0-.26,0-.52,0-.77h0ZM274.99,150.06c2.29-6.08,5.05-12,7.96-17.82,4.61-9.22,9.48-18.31,14.29-27.43.86-1.64,1.96-3.15,2.95-4.71,12.25,7.95,35.21,49.59,34.37,62.46-1.49.14-3.06.45-4.63.42-14.64-.25-29.28-.52-43.91-.87-1.74-.04-3.51-.44-5.19-.92-5.93-1.72-8.04-5.33-5.85-11.14ZM204.99,75.29c.32-5.33,2.49-9.96,5.96-14,1.4-1.63,2.98-2.73,5.28-2.42,14.61,1.98,28.78,5.49,42.41,11.97,3.8,7.88,2.46,15.31-1.25,22.47-5.1,9.83-11.93,18.4-19.32,26.62-7.33,8.15-17.68,6.52-23.06,1.96-1.79-1.52-3.56-3.56-4.31-5.72-4.56-13.23-6.56-26.88-5.71-40.88ZM254.51,190.05s0,0,0,0h0s0,0,0,0c0,.02-.02.03-.03.05.01-.02.02-.03.03-.05ZM32.75,186.75h0c-.06.05-.12.1-.19.16.07-.06.13-.11.19-.16ZM59.37,189.45c.22-12.01,5.11-34.11,11.02-45,6.48-3.18,13.25-2.82,19.8.17,12.1,5.51,22.46,13.55,32.01,22.75,8.26,7.96,2.6,24.25-6.92,26.82-9.23,2.49-18.53,4.07-28.02,4.72-4.16.29-8.38.38-12.53,0-6.42-.59-11.6-4.02-15.37-9.46ZM103.46,114.2c-.18-.55-.37-1.11-.55-1.66h0c.18.55.37,1.11.55,1.66ZM162.83,63.01c.39,4.22,1.02,7.69.99,11.15-.14,14.24-.45,28.47-.78,42.7-.04,1.87-.43,3.79-.98,5.59-1.77,5.86-5.78,8.04-11.63,6.11-3.21-1.05-6.33-2.46-9.33-4.01-12.04-6.23-24.04-12.54-36.01-18.9-2.1-1.12-3.98-2.65-6.53-4.38,18.19-18.72,39.31-31.03,64.28-38.26ZM128.78,254.96c-6.6,15.77-14.28,31.04-23.33,45.59-.27.44-.71.78-1.49,1.61-18.69-16.93-31.24-37.17-38.7-61.43,2.06-.35,3.46-.8,4.85-.78,16.13.21,32.26.5,48.38.78.67.01,1.35.12,2.02.23,8.78,1.41,11.71,5.79,8.26,14.01ZM194.69,338.4c-17.45.17-34.03-3.79-50.35-10.47-1.31-4.87-.73-9.67,1.14-13.96,2.36-5.42,5.47-10.55,8.58-15.61,3.92-6.36,8.48-12.25,13.96-17.43,7.5-7.09,21.92-4.6,25.54,5.1,2.49,6.68,4.01,13.81,5.14,20.87.97,6.12.97,12.43,1.02,18.65.03,4.56-1.37,8.81-5.03,12.85ZM281.45,358.01c-.54.54-1.09,1.07-1.63,1.61.54-.54,1.09-1.07,1.63-1.61,0,0,0,0,0,0ZM241.05,332.4c-.15-2.15-.36-3.58-.33-5,.28-13.98.54-27.96.96-41.94.07-2.4.64-4.86,1.39-7.16,1.24-3.85,4.33-5.64,8.27-4.79,2.63.57,5.3,1.36,7.71,2.55,12.05,5.96,24.03,12.08,36.01,18.18,1.15.58,2.15,1.44,3.74,2.52-16.41,16.86-35.52,28.04-57.74,35.64ZM309.1,256.85c-9.84-5.64-18.9-12.21-26.6-20.57-6.09-6.61-5.94-17.85.47-24.02,1.31-1.26,3.16-2.15,4.92-2.72,12.61-4.1,25.53-6.3,38.83-5.53,4.36.25,8.59,1.25,12.59,4.91-.97,17.26-5.71,33.83-13.52,49.96-6.09.56-11.46.96-16.69-2.04Z"/>
      <path class="cls-1" d="M177.09,105.66c-2.72-.58-5.43-1.17-8.15-1.75-.02.31-.05.63-.07.94,2.67.6,5.34,1.2,8.02,1.8.07-.33.14-.66.2-.99Z"/>
      <path class="cls-1" d="M192.04,109.93c-.51-.22-1.03-.45-1.54-.67-.1.29-.2.57-.29.86.55.13,1.09.26,1.64.39.07-.19.13-.38.2-.58Z"/>
      <path class="cls-1" d="M180.96,106.71l-.14.55c.57.05,1.15.09,1.72.14-.53-.23-1.05-.45-1.58-.68Z"/>
      <path class="cls-1" d="M202.7,113.8s.06.03.11.05c-.04-.02-.08-.04-.11-.05Z"/>
      <path class="cls-1" d="M202.81,113.89s-.09-.01-.12-.02c.03,0,.07.01.12.02Z"/>
      <path class="cls-1" d="M202.63,113.77s.04.02.06.03c-.03-.01-.05-.03-.06-.03Z"/>
      <path class="cls-1" d="M202.63,113.77s-.03-.01,0,0h0Z"/>
      <path class="cls-1" d="M202.81,113.89s.06,0,.09.02c.02.01.05.03.07.04.13.03.26.07.39.1-.12-.04-.24-.08-.37-.12-.03,0-.06,0-.09-.02-.04-.02-.07-.03-.1-.05.03.02.07.03.1.05-.03,0-.06-.01-.09-.02Z"/>
      <path class="cls-1" d="M202.69,113.87c-.13-.02-.16-.03,0,0h0Z"/>
      <path class="cls-1" d="M183.67,107.59c-.33-.05-.66-.1-1-.16.3.15.59.3.89.45.04-.1.07-.2.11-.3Z"/>
      <path class="cls-1" d="M182.67,107.43s-.04-.02-.06-.03c-.02,0-.05,0-.07,0,.02,0,.04.02.06.03.03,0,.05,0,.08.01Z"/>
      <path class="cls-1" d="M195.66,111.47c-.13-.03-.26-.07-.39-.1.12.04.24.08.37.12l.02-.02Z"/>
    </g>
  </g>
</svg>