<?xml version="1.0" encoding="UTF-8"?>
<svg id="Camada_2" data-name="Camada 2" xmlns="http://www.w3.org/2000/svg" viewBox="0 0 402.61 399.96">
  <defs>
    <style>
      .cls-1 {
        fill: #fff;
        stroke-width: 0px;
      }
    </style>
  </defs>
  <g id="Camada_1-2" data-name="Camada 1">
    <g>
      <path class="cls-1" d="M211.36.19c-.34-.02-.66-.04-1-.04-.73-.04-1.48-.05-2.21-.08-.19,0-.37,0-.56,0-1.54-.04-3.08-.06-4.62-.06h-.34c-59.73,0-113.35,26.2-149.99,67.72-1.18,1.15-2.33,2.33-3.43,3.55C17.41,106.35,2.05,148.16.15,195.04c-1.54,38.23,8.48,73.77,27.45,106.79,10.26,17.86,23.47,33.47,38.77,47.26,2.16,1.94,4.74,3.4,7.13,5.08l-.04.04c.29-.28.57-.56.87-.84l.08-.08c-2.45-2.3-5.2-4.36-7.29-6.95-5.82-7.25-11.41-14.7-17-22.14-2.52-3.35-4.86-6.86-7.27-10.3,2.66,2.91,5.21,5.95,8.07,8.68,8.94,8.53,17.99,16.94,27.06,25.33,1.03.96,2.43,1.51,4.14,1.68-1.84-1.7-3.76-3.33-5.5-5.13-.57-.6-.69-1.64-1.02-2.47.95,0,2.14-.35,2.79.1,7.46,5.16,14.7,10.62,22.27,15.59,4.65,3.06,9.79,5.39,14.66,8.11,3.17,1.77,6.3,3.63,9.36,5.57.59.37.8,1.34,1.19,2.03-.77.25-1.68.88-2.27.66-2.1-.79-4.09-1.88-6.39-2.18,15.58,9.13,32.91,13.77,49.87,19.81-6.49-1.03-12.97-2.1-19.48-3.02-1.67-.24-3.41,0-5.13.04l.04-.04c-3.94-1.08-8.01-1.8-11.78-3.31-7.61-3.05-15.04-6.58-22.6-9.8-.77-.33-1.62-.5-2.47-.63,28.73,15.95,61.78,25.04,96.96,25.04,27.42,0,53.55-5.52,77.34-15.51,72.04-30.23,122.64-101.44,122.64-184.47C402.61,92.46,317.76,4.76,211.36.19ZM268.02,60.45c9.14,4.58,17.73,10.25,26.49,15.57.73.45,1.02,1.65,1.73,2.88-1.5,2.19-2.72,4.62-4.59,6.3-.49.43-3.08-1.39-4.64-2.28-7.5-4.28-15.03-8.53-22.42-12.97-1.25-.75-2.97-3.1-2.65-3.66,1.44-2.5,1.93-7.92,6.08-5.84ZM343.71,230.52c-8.99,31.49-26.05,57.68-51.3,78.58-3.16,2.61-4.78,2.41-6.45-1.36-6.61-14.93-13.43-29.77-20-44.71-1.03-2.36-1.24-5.09-1.83-7.65.32-14.57,11.33-26.29,25.97-27.51,15.96-1.33,31.93-2.74,47.89-4.17,6.87-.61,7.61.19,5.72,6.82ZM342.34,311.12c-19.68,29.03-46.07,48.8-80.02,58.1,30.25-14.46,57.51-33,80.02-58.1ZM338.83,181.73c-.73.02-1.48,0-2.21,0,0,.1-.02.19-.04.28-16.94-1.95-33.97-3.4-50.81-6.04-13.22-2.07-23.49-21.61-18.05-33.85,7.53-16.95,15.57-33.66,23.77-50.28,4.43-8.98,5.35-8.8,12.71-1.74,23.15,22.24,37.41,49.25,43.48,80.68,1.74,9.06.29,10.81-8.85,10.93ZM284.67,25.59c35.08,16.25,62.33,41.39,82.35,74.35,3.37,5.55,5.82,11.64,8.65,17.5-3.34-5.59-6.64-11.2-10.03-16.75-17.13-28.14-40.08-50.43-68.66-66.63-27.27-15.46-56.47-24.18-88.19-25.12-28.8-.85-56.29,4.02-82.67,14.99-10.53,4.38-20.29,10.61-30.38,16.03-1.39.74-2.71,1.59-4.69,1.54,2.02-1.48,3.95-3.07,6.05-4.41,23.38-15.1,48.98-24.51,76.46-28.26,38.59-5.26,75.76.38,111.12,16.76ZM251.11,76.54c-8.75,12.39-17.69,24.65-26.88,36.7-7.4,9.71-23.21,12.33-35.61,6.56-1.61-.74-3.64-.58-5.48-.84l.05-.04h-.92c0,.57,0,1.15,0,1.72-.27-.57-.56-1.15-.84-1.72,0-.28,0-.57,0-.85-4.72-6.78-9.45-13.57-14.17-20.34-1.17-1.78-2.34-3.55-3.52-5.32-.59-.89-1.19-1.78-1.78-2.67-.56-.84-1.12-1.67-1.68-2.52.56.27,1.11.54,1.67.81.3-.31.6-.61.9-.92-4.84-7.86-9.76-15.67-14.49-23.61-1.93-3.25-.76-5.48,2.87-6.66,34.1-11.01,68.04-10.85,101.82,1.36,3.31,1.19,4.89,3.55,3.56,6.89-1.56,3.94-3.11,8.03-5.53,11.45ZM244.97,205.82c-.99-1.34-3.35-3.18-3.66-5.32-.5-3.41,2-6.39,5.41-5.85,2.19.35,5.24,3.11,5.63,5.22.63,3.32-2.17,5.42-7.38,5.96ZM222.95,187.94c-3.65,3.47-9.38,4.21-13.99.65-7.46-5.77-14.52-4.76-22.07-.56-1.3.73-3.32.16-5.01.19.65-1.34,1.11-2.81,1.96-4.01,1.1-1.54,2.49-2.87,3.77-4.29-3.24,2.94-6.48,5.87-9.71,8.82.28-1.47.58-2.94.87-4.4l-.04.04c7.05-9.84,17.1-12.65,28.37-11.11,9.37,1.27,16.64,6.16,20.23,15.41-2.94-2.33-5.85-4.67-8.79-7,1.47,2.08,2.94,4.16,4.41,6.24ZM206.33,245.53c-.49,2.45-3.05,4.49-4.69,6.71-.77-.04-1.53-.08-2.3-.12-1.43-2.06-3.86-4.03-4.08-6.22-.34-3.44,2.18-5.71,5.89-5.64,3.32.07,5.77,2.25,5.17,5.26ZM195.63,154.06c.08-3.71,2.38-5.39,5.74-5.79,3.46.5,5.65,2.19,5.5,5.72-.15,3.56-2.13,5.71-5.87,5.6-3.47-.11-5.45-2.01-5.37-5.53ZM155.08,194.4c3.55-.03,5.52,2.31,5.63,5.56.12,3.46-2.17,5.25-5.54,5.6-3.55-.09-5.79-1.96-5.9-5.32-.11-3.57,2.12-5.81,5.8-5.85ZM49.75,175.51c-.27-.29-.5-.99-.34-1.28.91-1.67,2.48-3.16,2.85-4.92,6.79-32.2,22.52-59.24,46.62-81.53,5.76-5.33,8.53-6.8,11.51-3.44v.12c.59.88,1.19,1.78,1.77,2.66h.19c.5.84,1.01,1.8,1.56,2.87,8.14,16.02,16.06,32.18,23.07,48.71,5.89,13.86-6.1,34.34-21.16,36.4-16.76,2.3-33.67,3.46-50.52,5.11-5.72.1-11.23-.29-15.55-4.71ZM58.74,222.33c2.06-.06,4.12,0,7.37,0,15.11,1.23,31.36,2.91,47.66,3.79,16.8.91,28.53,24.09,22.08,37.1-7.06,14.23-13.03,29-19.79,43.39-5.01,10.67-6.95,11.69-15.64,3.96-9.48-8.42-18.12-18.13-25.6-28.38-11.3-15.49-18.12-33.28-22.32-52.02-1.52-6.78-.88-7.62,6.25-7.84ZM168.59,379.01c-10.05-2.33-20.22-4.27-30.12-7.11-14.84-4.25-28.35-11.59-40.97-20.31-16.56-11.46-30.14-25.92-40.64-43.18,6.79,7,13.24,14.4,20.46,20.92,22.17,20,47.67,34.33,76.18,43.26,5.15,1.62,10.31,3.2,15.47,4.8-.12.54-.26,1.09-.39,1.63ZM247.01,334.57c-16.75,5.61-33.87,8.84-52.37,9.03-14.13-.3-28.81-2.24-43.18-6.49-3.07-.91-3.98-2.07-2.03-4.86,10.56-15.07,20.54-30.6,31.81-45.11,9.28-11.95,31.69-10.82,40.58,1.37,9.46,12.97,18.33,26.35,27.64,39.43,2.72,3.83,1.75,5.23-2.44,6.62ZM257.57,242.39c-7.57,11.13-17.23,19.9-30.24,23.92-8.62,2.66-17.63,4.1-23.15,5.35-28.18-.61-47.18-10.86-60.22-31.8-.7-1.13-.67-4.13-.5-4.17,2.64-.6,2.95-6.56,7.24-3.18,4.45,3.52,9.14,6.75,13.43,10.45,7.14,6.16,15.26,10.12,24.35,12.43,1.24.32,2.26,1.7,3.25,2.72,6.92,7.12,14.27,6.87,20.88-.56.64-.71,2.31-.53,3.5-.69.99-.14,2.08.04,3-.29,9.96-3.53,18.86-8.79,26.31-16.39,1.44-1.47,2.79-3.1,4.47-4.25,1.34-.93,3.11-1.24,4.7-1.83.37,1.35.77,2.71,1.11,4.07.29,1.17-.49,3.75,2.18,1.54-.08.9.16,2.03-.29,2.68ZM259.96,384.25c2.76-1.26,5.51-2.55,8.28-3.8,2.95-1.34,5.92-2.64,8.86-3.98,29.84-13.63,54.73-33.72,76.16-58.34.86-.97,1.96-1.73,2.99-2.56-7.25,8.86-13.8,18.43-21.92,26.39-20.95,20.52-45.63,35.07-74.37,42.29Z"/>
      <path class="cls-1" d="M120.38,384.25c-1.46-.59-2.91-1.19-4.37-1.79-.6-.29-1.21-.58-1.81-.88-.59-.29-1.18-.58-1.77-.88-.03,0-.06.02-.09.02.02.02.03.03.04.04.59.29,1.19.58,1.77.88.61.28,1.21.57,1.82.86,1.46.6,2.91,1.19,4.37,1.8.59.29,1.18.58,1.77.88.13.03.27.05.4.09-.11-.04-.24-.09-.36-.13-.58-.29-1.18-.59-1.77-.88Z"/>
      <path class="cls-1" d="M103.58,374.57c.05,0,.11.02.16.03-.04-.03-.08-.05-.11-.08l-.04.05Z"/>
      <path class="cls-1" d="M129.23,387.79c-.88-.3-1.74-.6-2.61-.9-.13-.04-.27-.07-.39-.1.11.04.23.09.35.13.87.3,1.73.61,2.6.91.59.29,1.18.59,1.77.88.12.03.26.04.38.07-.11-.04-.23-.08-.34-.11-.58-.29-1.18-.59-1.76-.88Z"/>
    </g>
  </g>
</svg>