<?xml version="1.0" encoding="UTF-8"?>
<svg id="Camada_2" data-name="Camada 2" xmlns="http://www.w3.org/2000/svg" viewBox="0 0 413.79 413.79">
  <defs>
    <style>
      .cls-1 {
        fill: #fff;
        stroke-width: 0px;
      }
    </style>
  </defs>
  <g id="Camada_1-2" data-name="Camada 1">
    <path class="cls-1" d="M206.9,0C92.63,0,0,92.63,0,206.89s92.63,206.9,206.9,206.9,206.89-92.63,206.89-206.9S321.16,0,206.9,0ZM347.7,143.14c6.95,16.87,10.93,33.86,12.07,52.12-2.57,0-4.78.45-6.74-.08-11.39-3.02-22.71-6.25-34.05-9.44-.9-.26-1.77-.69-2.61-1.12-5.45-2.83-6.43-6.82-2.48-11.53,3.35-4.02,6.82-8.03,10.7-11.52,6.24-5.61,12.85-10.81,19.34-16.14.9-.74,2.02-1.24,3.78-2.29ZM328.7,142.04c-10,7.22-20.2,14.14-30.37,21.11-8.25,5.65-21.74,4.56-30.11-2.31-8.91-7.31-12.06-19.75-7.37-30.17,1.31-2.93,2.91-6.02,5.2-8.17,11.84-11.14,23.94-22.01,35.99-32.93,1.09-.99,2.41-1.7,4.07-2.86,14.77,12.47,26.29,26.92,35.84,44.2-4.62,3.92-8.69,7.85-13.24,11.13ZM290.69,83.63c-8.56,6.63-17.2,13.15-25.85,19.68-1.08.81-2.3,1.42-3.5,2.06-7.89,4.2-13.28,1.88-14.02-6.94-1.09-12.93-1.29-25.92-1.82-38.9-.05-1.13.41-2.29.82-4.41,18.06,4.99,33.95,12.57,49.26,23.38-1.99,2.11-3.25,3.87-4.88,5.13ZM252.64,218.66c-.17,3.09-2.02,4.59-5.03,4.48-2.88-.1-4.52-1.69-4.42-4.6.1-2.99,1.85-4.59,4.84-4.86,2.92.39,4.77,1.82,4.61,4.97ZM237.22,168.84c-.28,2.81-1.8,4.62-4.87,4.58-3.06-.04-4.76-1.78-4.71-4.84.06-3.05,1.83-4.69,4.86-4.71,3.13-.02,4.62,1.74,4.72,4.97ZM233.11,56.29c-.5,16.52-.3,33.11-1.84,49.54-1.79,19.2-24.12,29.02-40.57,18.84-7.01-4.34-11.06-10.45-12.14-18.32-1.15-8.43-1.69-16.97-2.23-25.49-.49-7.57-.65-15.16-.88-22.74-.04-1.58.28-3.18.44-4.83,11.53-4.29,46.51-4.65,56.46-.61.23,1.04.79,2.32.75,3.6ZM210.28,248.8c-.28,2.82-1.95,4.43-5,4.46-2.92.04-4.59-1.42-4.56-4.45.03-3.16,1.88-4.79,4.86-4.76,2.73.03,4.6,1.47,4.7,4.74ZM185.06,168.24c-.16,2.55-1.7,4.26-4.73,4.47-2.91.19-5.39-2.05-5.17-4.87.23-2.92,1.9-4.66,4.96-4.74,2.82-.08,4.86,1.91,4.94,5.14ZM163.33,212.86c3.02-.06,4.89,1.75,5.01,4.66.12,2.97-1.64,4.7-4.92,4.81-2.76-.16-4.79-1.49-4.83-4.6-.04-3.03,1.72-4.8,4.74-4.86ZM148.51,106.59c-11.07-7.24-21.5-15.47-32.15-23.34-.81-.6-1.29-1.64-2.36-3.04,14.55-11.04,30.33-18.78,48.31-24.11.39,2.09.87,3.37.85,4.64-.2,12.72-.23,25.45-.82,38.15-.41,8.95-6.45,12.54-13.83,7.71ZM103.23,88.62c5.6,4.64,10.86,8.85,15.97,13.25,8,6.89,16.09,13.69,23.77,20.92,11.6,10.91,11.03,24.31,2.89,36.03-7.52,10.81-23.61,13.14-35.48,5.43-12.72-8.24-25.04-17.1-37.48-25.75-1.63-1.13-2.96-2.68-4.81-4.39,8.76-17.32,20.47-31.95,35.14-45.5ZM62.62,146.07c7.14,5.32,13.69,9.83,19.79,14.87,5.21,4.29,10.09,9.03,14.79,13.88,4.29,4.42,3.66,9.79-1.68,12.54-12.77,6.61-26.77,9.29-40.7,12.15-.86.17-1.84-.2-3.58-.42.31-18.18,4.13-35.4,11.37-53.02ZM51.37,213.65c2.21-.88,4.34-2.13,6.62-2.56,15.03-2.8,30.05-5.86,45.17-7.98,14-1.95,26.22,6.65,29.31,19.49,3.14,13.08-3.79,26.78-16.9,31.41-13.65,4.83-27.61,8.77-41.48,12.9-2.77.82-5.81.77-9.22,1.18-7.98-17.61-12.69-35.21-13.51-54.44ZM75.53,278.96c13-2.58,25.99-5.36,39.07-7.49,6.75-1.1,9.43,2.57,7.98,9.23-2.85,12.98-8.83,24.69-14.57,36.51-.29.57-.82,1.03-1.19,1.49-8.04-3-30.66-27.75-34.66-38.19,1.24-.58,2.25-1.32,3.37-1.55ZM119.25,327.43c.33-1.19.54-2.96,1.31-4.44,6.05-11.63,12.28-23.17,18.33-34.81,3.99-7.66,9.53-13.48,18.1-15.77,18.59-4.99,35.86,12.44,30.82,31.08-.68,2.48-1.44,4.95-2.4,7.33-4.79,11.92-9.64,23.81-14.52,35.7-.45,1.08-1.19,2.04-1.69,2.89-8.56-.08-44.62-13.73-49.94-21.99ZM187.96,342.99c4.22-8.02,8.24-16.16,12.94-23.9,4.35-7.16,9.23-7.02,13.45.23,5.31,9.11,10.22,18.47,15.18,27.78.7,1.31.79,2.96,1.28,4.92-15.96,2.73-31.3,1.47-47.49,1.07,1.85-4.06,3.09-7.15,4.64-10.09ZM244.22,343.63c-4.95-10.98-10.08-21.89-14.63-33.03-1.86-4.56-3.11-9.6-3.45-14.5-.75-10.85,5.96-20.56,15.77-24.1,10.52-3.79,22.44-.73,28.95,7.92,3.24,4.3,5.8,9.13,8.51,13.8,4.48,7.73,8.87,15.51,13.23,23.3,1.11,1.99,1.95,4.12,3.36,7.14-14.79,11.81-31.3,18.8-49.14,23.7-1.09-1.77-2.01-2.93-2.6-4.25ZM299.64,269.79c12.07,1.47,24.05,3.77,36.05,5.75.63.1,1.19.54,1.99.92-3.62,9.86-22.57,33.15-31.22,38.31-3.03-6.5-6.17-12.92-9.02-19.45-2.16-4.95-4.29-9.96-5.88-15.11-2.37-7.7.27-11.38,8.08-10.42ZM326.58,259.67c-9.4-2.61-18.76-5.39-28.06-8.36-11.77-3.77-19.04-13.77-18.93-25.55.12-13.17,10.71-24.65,23.9-24.37,10.1.21,20.18,2.09,30.23,3.5,6.69.93,13.33,2.28,19.98,3.52,1.16.22,2.27.78,3.41,1.2,2.12,10.57-6.3,45.33-13.16,54.11-5.59-1.29-11.56-2.43-17.38-4.06Z"/>
  </g>
</svg>