<?xml version="1.0" encoding="UTF-8"?>
<svg id="Camada_2" data-name="Camada 2" xmlns="http://www.w3.org/2000/svg" viewBox="0 0 435.82 435.95">
  <defs>
    <style>
      .cls-1 {
        fill: #fff;
        stroke-width: 0px;
      }
    </style>
  </defs>
  <g id="Camada_1-2" data-name="Camada 1">
    <path class="cls-1" d="M435.78,225.88c-.25-6.52.62-13.04-.77-19.6-.92-4.37.17-9.06-1.09-13.56-.59-2.1.56-4.56-1.07-6.56-.18-5.57-1.79-10.86-2.84-16.27-1.2-6.15-3.3-12-4.87-18.01-.9-3.43-2-6.82-3.32-10.11-2.41-5.99-4.89-11.97-7.64-17.81-2.1-4.47-4.67-8.73-7.01-13.08-.73-1.36-1.26-2.85-2.15-4.1-3.85-5.37-6.99-11.18-11.03-16.46-4.16-5.44-8-11.22-12.72-16.12-11.32-11.74-22.74-23.34-36.3-32.75-8.9-6.18-18.11-11.73-27.47-17.07-4.39-2.5-9.35-3.98-13.87-6.28-4.02-2.05-8.28-3.35-12.47-4.9-6.83-2.53-13.85-4.43-20.87-6.37-5.29-1.45-10.67-2.33-15.99-3.49-4.45-.98-9.1-1.26-13.64-2.08-2.74-.5-5.65.04-8.48-.13-2.87-.17-5.72-.72-8.58-.95-8.22-.64-16.38.66-24.57,1.01-4.03.17-8.2.1-12.04,1.11-4.4,1.16-8.91,1.67-13.33,2.67-5.79,1.31-11.51,2.88-17.3,4.16-6.52,1.44-12.65,4.07-18.92,6.23-5.79,2-11.24,5.03-16.74,7.8-6.77,3.42-13.66,6.69-19.91,11.01-5.34,3.68-10.65,7.42-15.87,11.29-5.04,3.73-9.92,7.67-14.47,11.89-8.05,7.46-15.67,15.36-22.45,24.08-3.43,4.41-6.94,8.77-10.09,13.36-4.14,6.04-8.23,12.19-11.61,18.67-3.48,6.67-7.02,13.37-9.67,20.46-1.4,3.74-3.47,7.28-4.49,11.11-1.23,4.65-3.1,9.07-4.27,13.76-1.15,4.63-2.08,9.36-3.71,13.92-1,2.79-.16,6.27-1.29,8.96-1.23,2.9.16,6.15-1.83,8.74-.33,5.19-.76,10.38-.97,15.57-.16,3.99-.03,7.99-.03,13.17.57,6.16-.92,13.57.92,20.9.73,2.92-.69,6.19,1.08,9.06.32,6.03,1.65,11.89,3,17.74.77,3.34,1.25,6.8,2.48,9.96,2.07,5.33,3.36,10.89,5.34,16.26,2.61,7.11,5.71,13.97,8.77,20.85,3.97,8.95,9.13,17.31,14.54,25.42,5.86,8.78,12.18,17.32,19.68,24.85.59.59,1.44,1.07,1.72,1.78,1.08,2.72,3.65,4.13,5.32,6.3,1.64,2.12,3.78,3.88,5.78,5.36,1.99,1.47,3.52,3.33,5.42,4.82,2.03,1.58,3.94,3.33,5.97,4.92,3.64,2.85,7.19,5.83,11.02,8.41,4.92,3.32,9.76,6.74,14.94,9.7,5.25,3,10.46,6.07,15.9,8.7,5.26,2.55,10.66,4.83,16.05,7.08,3.98,1.66,8.08,3.18,12.17,4.34,4.32,1.23,8.47,3.08,12.94,3.81,5.57.91,10.96,2.69,16.58,3.43,2.86.38,5.87.49,8.52,1.2,2.29.61,4.45.45,6.65.75,2.36.33,4.72.9,7.08.95,6.16.14,12.33.19,18.49,0,6.2-.19,12.47.97,18.58-.96,4.27.69,8.45-.52,12.54-1.21,2.34-.4,4.81-.23,7.04-.99,3.71-1.28,7.63-1.53,11.35-2.75,3.38-1.12,6.91-1.81,10.31-2.87,5.31-1.64,10.74-3.04,15.79-5.29,4.5-2,9.25-3.41,13.58-5.83,5.25-2.93,10.77-5.4,16.03-8.33,4.49-2.5,8.85-5.26,13.13-8.12,3.81-2.55,7.53-5.26,11.21-8,5.96-4.44,11.64-9.19,17-14.28,4.63-4.4,9.12-8.95,13.27-13.89,4.56-5.42,9.04-10.87,13.36-16.48,5.57-7.23,10.46-14.89,14.68-22.92,3.57-6.81,7.24-13.58,10.11-20.78,1.82-4.57,3.68-9.16,5.32-13.77,1.7-4.79,3.94-9.53,4.15-14.78,2.02-2.93,1.97-6.55,2.8-9.8.84-3.3,1.56-6.73,2.14-10.12.79-4.69,1.01-9.47,1.98-14.17.49-2.4-.04-4.99.12-7.47.16-2.37.98-4.74.89-7.08ZM110.66,323.86c-5.25-5.78-10.39-11.69-14.8-18.26-4.71-7.02-9.43-13.98-13.19-21.55-1.44-2.89-2.64-5.9-3.9-8.87-1.21-2.83-2.55-5.62-3.49-8.54-1-3.08-2.49-6.12-3.03-9.19-.65-3.73-1.98-7.29-2.43-11.09-.25-2.17-.78-4.37-.78-6.6,0-.26.31-.53.48-.79.17.26.39.51.49.79.96,2.65,1.39,5.49,1.82,8.19.52,3.29,1.75,6.38,2.55,9.53.75,2.97,1.06,6.54,3.62,8.95,1.69,7.49,6.06,13.81,9.04,20.73.24.57.79,1.01,1.21,1.49.08.09.23.13.35.19.14-.28.45-.59.39-.82-.45-1.96-2.43-3.37-2.03-5.65-2.52-3.41-3.66-7.46-5.39-11.25-1.68-3.68-2.8-7.51-4.09-11.29-1.1-3.23-1.5-6.69-2.5-9.96-1.38-4.51-1.36-9.3-2.91-13.77-.36-1.04.03-2.32-.07-3.48-.28-3.2.85-6.54-.98-9.58,1.45-1.56-.26-3.08-.05-4.67.23-1.8.05-3.66.05-5.49s-.52-3.87.11-5.45c1.35-3.36.68-6.75.88-10.12.13-2.23,1.64-4.23,1.04-6.59-.04-.17.33-.45.52-.67.15.27.42.53.44.81.14,2.06-.49,4.24,1.02,6.08-2.19,2.42.07,5.73-1.67,8.32-.47.7-.32,1.88-.32,2.84-.02,5.83-.1,11.66.03,17.48.05,2.03.66,4.05.94,6.08.28,2.04-.7,4.28,1.01,6.08-.85,4.77,1.58,9.06,2.12,13.64.45,3.8,1.74,7.56,3.07,11.18,2.07,5.63,4.16,11.26,6.79,16.67,4.59,9.44,10.14,18.24,16.37,26.72,4.98,6.78,10.74,12.73,16.75,18.48,3.72,3.56,7.77,6.79,11.88,9.89,4.01,3.02,8.13,5.96,12.49,8.45,4.67,2.67,9.65,4.8,14.54,7.09,3.64,1.71,7.16,3.79,11.33,4.01,5.58,3.28,12.12,3.63,18.06,5.85,2.03.76,4.32.36,6.57.96,3.84,1.02,8,.85,12.03,1.19,3.86.33,7.72.86,11.58.93,2.52.04,5.04-.72,7.58-.89,2.49-.17,5.12.46,7.47-.14,4.36-1.11,8.92-.7,13.17-1.97,4.01-1.19,8.16-1.86,12.09-3.37.72-.28,1.51-.4,2.27-.51.09-.01.26.54.39.83-.45.12-.9.24-1.35.35.17.35.48.72.46,1.06-.02.25-.43.61-.73.7-5.86,1.7-11.76,3.12-17.79,4.2-2.56.46-5.4-.03-7.53,1-2.66,1.28-5.17.26-7.55.89-3.06-.41-5.86.64-8.71.83-6.03.4-11.98-1.58-18.07-.94-.52.05-1.11-.75-1.65-.73-1.33.05-3.33-1.5-3.71,1.31-1.27.16-2.84.86-3.75.37-2.78-1.52-5.87-.99-8.76-1.73-6.62-1.69-13.08-3.77-19.45-6.19-4.31-1.63-8.72-3.17-12.76-5.35-7.7-4.16-15.22-8.6-22.25-13.95-6.05-4.6-12.22-9.09-17.3-14.68ZM285.86,86.59c-4.93-2.54-9.94-4.95-14.85-7.54-1.36-.72-3.39-.66-3.81-2.73,1.47.32,3.06.39,4.39,1.01,5.87,2.72,11.77,5.41,17.46,8.48,6.21,3.34,12.03,7.32,17.73,11.52,7.96,5.87,15.19,12.56,21.6,19.95,6.59,7.6,12.84,15.58,17.58,24.61,2.08,3.96,4.39,7.82,6.18,11.93,2.52,5.78,7.1,15.6,8.77,24.33.32,1.66.69,3.43,1.56,4.82.9,1.44-.14,3.1,1.22,4.56,1.05,1.13-.63,3.57,1.16,4.96.08.07.02.31.04.48.33,3.86.64,7.71,1.01,11.57.3,3.19.79,6.37.96,9.57.17,3.32.16,6.66,0,9.98-.13,2.54-.62,5.05-.96,7.58-.32,2.36.21,4.67-.82,7.15-.92,2.2-.59,4.98-1.02,7.53-1.21,7.11-3.65,13.8-5.6,20.67-1.4,4.95-4.42,9.18-5.61,14.17-.08.35-1.05.79-1.49.69-1.9-.42-2.5.78-3.05,2.15-3.09,7.71-8.11,14.32-12.47,21.28-1.78,2.85-4.62,5.02-6.54,7.8-3.22,4.65-7.39,8.36-11.41,12.2-3.36,3.21-7.16,5.94-10.78,8.87-.36.29-.79.63-1.21.65-.61.03-1.23-.21-1.84-.33.27-.35.49-.76.81-1.05,2.44-2.14,4.91-4.23,7.33-6.38.33-.29.49-.79.72-1.19-.62.12-1.43.02-1.82.38-8.79,8.04-18.91,14.1-29.5,19.31-6.06,2.98-12.45,5.37-18.97,7.27-5.38,1.57-10.71,3.26-16.31,4.13-5.22.81-10.51,1.18-15.64,2.11-5.43.98-10.76.42-16.12.76-1.99.13-4.42.73-5.9-.15-2.15-1.27-4.15-.6-6.19-.79-1.9-.18-3.72-.36-5.62-.91-2.88-.84-6.02-.79-9.04-1.15-.28-.03-.54-.3-.81-.45.24-.18.51-.54.71-.5,2.2.4,4.62-1,6.65.84.19.18.62.11.93.13,4.86.34,9.71.8,14.58.96,4.99.17,10,.12,14.99,0,1.7-.04,3.38-.72,5.09-.93,1.94-.23,4.11.23,5.79-.51,1.85-.82,3.65.07,5.27-.56,3.81-1.48,7.97-1.49,11.77-2.96.37-.14.71-.39,1.06-.59-.44-.13-.91-.43-1.33-.38-2.04.27-4.29.19-6.03,1.08-2.66,1.36-5.82-.08-8.23,1.88-.1.08-.33,0-.49.01-8.85.56-17.7,1.57-26.57.92-2.85-.21-5.67-.86-8.58-1.02-2.85-.16-5.86-.4-8.54-1.07-5.85-1.46-11.78-2.65-17.58-4.49-4.89-1.55-9.69-3.13-14.31-5.32-.38-.18-.76-.37-1.14-.56.61-.15,1.37-.6,1.79-.39,3.88,1.97,8.08,3.04,12.16,4.43,4.57,1.56,9.25,2.72,14.03,3.56,5.86,1.03,11.68,2.22,17.67,1.95,3.22,1.72,6.71.87,10.08.97,3.05.09,6.06.01,9.11-.85,2.88-.82,6.01.2,9.11-.95,2.27-.84,5-.56,7.55-1.02,5.86-1.05,11.53-2.72,17.17-4.47,8.87-2.75,17.22-6.78,25.28-11.32,4.9-2.76,9.58-5.94,14.19-9.16,5.53-3.86,10.22-8.79,15.74-12.68,2.4-4.93,7.28-7.72,10.43-12.11,2.77-3.85,5.69-7.68,8.5-11.53,4.51-6.16,7.79-13.03,11.01-19.91,3.48-7.43,6.36-15.06,8.12-23.14.67-3.05,1.3-6.14,2.06-9.14,1.12-4.41,1.09-9.01,2.73-13.33.61-1.6.08-3.63.12-5.46,0-.26.31-.52.48-.78.16.26.49.54.47.79-.51,5.35.91,10.75-.86,16.11-.77,2.33-.63,5.05-.92,7.56-.57,4.9-1.94,9.54-3.23,14.21-1.81,6.54-4.01,12.99-7.28,18.95-.98,1.79-.82,2.14.95,2.54.25.06.25,1.16.37,1.78,1.8-1.17,2.22-3.25,2.93-4.98,2.8-6.85,5.47-13.74,7.17-21.01,1.22-5.23,2.94-10.31,2.89-15.76,2.12-2.83.51-6.24,1.45-9.37.87-2.88.47-6.17.53-9.28.07-3.33.13-6.66-.03-9.98-.1-2.04-.61-4.05-.96-6.08-.35-2.02.17-3.99-.77-6.17-.85-1.98-.76-4.63-1.14-6.99-1.02-6.37-4.44-18.38-7.53-26.35-2.24-5.78-5.07-11.25-7.96-16.66-2.79-5.23-5.87-10.34-9.7-15-3.28-3.98-6.47-8.02-9.85-11.92-1.9-2.19-3.66-4.54-5.78-6.53-2.72-2.56-5.56-4.99-8.42-7.4-.42-.35-1.21-.27-1.82-.38,1.41,1.58,2.82,3.16,4.24,4.74.85.95,2.15,1.61,1.8,3.28-.07.34.37.86.68,1.18,2.71,2.82,5.23,5.82,7.85,8.7,8.79,9.65,15.91,20.33,21.41,32.13.98,2.09,2.03,4.15,2.96,6.27.16.36-.12.92-.19,1.39-.26-.38-.53-.74-.77-1.13-4.36-6.87-8.38-13.94-13.27-20.5-5.34-7.17-10.96-14.04-17.4-20.24-7.05-6.78-14.99-12.41-23.1-17.8-6.33-4.2-13.22-7.46-20.19-10.34-6.69-2.76-13.45-5.47-20.71-6.74-5.91-1.03-11.64-3.11-17.76-2.92-4.41-1.9-9.05-.78-13.58-.96-4.49-.18-9.09-.62-13.46.11-5.27.87-10.65.97-15.88,2.54-3.23.97-6.69,1.6-10.06,2.25-3.99.77-7.75,2.22-11.51,3.61-7.97,2.94-15.41,7.06-22.92,10.97-4.01,2.08-7.7,4.8-11.44,7.36-9,6.16-16.42,14.1-23.84,21.94-4.9,5.17-9.08,11.01-12.77,17.15-2.24,3.73-4.64,7.38-6.68,11.22-1.66,3.11-2.89,6.46-4.33,9.69-.14.32-.44.58-.67.87-.11-.45-.41-.97-.29-1.35.52-1.61,1.05-3.23,1.78-4.75,2-4.17,3.81-8.42,6.07-12.48,2.27-4.08,4.44-8.2,7.11-12.02,3.02-4.32,5.91-8.76,9.74-12.45.46-.44.88-.95,1.21-1.5.12-.2-.04-.62-.18-.89-.04-.08-.53-.06-.66.06-2.37,2.34-4.71,4.71-7.1,7.03-.18.18-.67.04-1.02.05,0-.33-.13-.78.04-.98,1.85-2.24,3.74-4.46,5.63-6.67,2.11-2.46,4.08-5.06,6.38-7.33,8.58-8.45,18.07-15.87,28.28-22.17,9.32-5.75,19.36-10.24,29.95-13.28,5.54-1.59,11.02-3.31,16.8-4.17,4.55-.68,9.15-1.2,13.65-2.01,7.56-1.36,15.07-.52,22.6-.77,2.18-.07,4.39.58,6.58.94,2.19.36,4.34-.19,6.67.79,2.01.84,4.64.72,7.01,1.1,5.88.95,11.53,2.69,17.16,4.46,8.85,2.79,17.14,6.91,25.31,11.25.53.28,1.23.26,1.84.38-.36-1.18-1.22-1.56-2.34-2.08-4.62-2.14-8.97-4.87-13.65-6.85-6.82-2.89-13.73-5.5-21.02-7.17-4.74-1.08-9.44-2.19-14.24-3.04-2.55-.45-5.12-.43-7.58-.95-2.7-.57-5.34-1-8.1-.91-2.66.08-5.33.04-7.99-.01-.3,0-.59-.42-.88-.64.29-.11.57-.29.86-.32,1.94-.15,3.89-.26,5.84-.39-1.88-1.3-3.99-.5-5.99-.59-3.16-.14-6.32-.02-9.49-.06-.44,0-.88-.27-1.32-.41.37-.19.74-.55,1.11-.55,6.66-.03,13.36-.49,19.96.13,4.88.46,9.95.68,14.62,2.02,4.47,1.29,9.09,1.88,13.54,3.39,3.62,1.23,7.37,2.35,11.08,3.43.88.26,1.75.6,2.58,1,5.43,2.57,10.84,5.18,16.27,7.73.38.18.89.09,1.34.13-.22-.47-.31-1.19-.68-1.38ZM373.59,253.34c-.11.17-.23.33-.33.49h0c.1-.17.22-.33.33-.49ZM105.31,240.04c-2.64,1.31-5.4.86-8.12.87-.39,0-1.01-.62-1.15-1.07-.51-1.64-.86-3.33-1.04-4.08,0-1.49-.01-1.99,0-2.49.07-2.37.94-.38,1.57-.36,2.71.08,5.29-.67,7.74-1.77,4.35-1.96,8.62-4.12,13.02-5.96,4.67-1.95,9.4-3.73,14.66-3.25,2.64.24,5.66-.72,7.9.26,2.26.99,4.93-.2,6.76,1.78,4.5,0,8.99.02,13.49-.04.39,0,.76-.53,1.16-.79.58-.38,1.77.11,1.67-1.22-.1-1.35-1.14-.78-1.84-.96-1.35-.35-1.56-.93-.71-1.93.43-.51.95-.94,1.4-1.42.55-.59.92-.84,1.16.25.24,1.05.99,2.08.92,3.08-.43,7.04,2.32,13.22,5.07,19.41.94,2.11,2.01,4.17,3.11,6.2.52.96,1.82,1.9,1.72,2.7-.12.93-1.38,1.74-2.2,2.54-3.73,3.61-7.04,7.54-10,11.81-.46.66-1.31,1.5-2.01,2.06-2.44,1.94-5.1,3.66-7.81,5.22-1.58.91-3.42,1.37-5.14,2.04-3.89,1.52-7.98,2.7-11.98,3.53-3.68.76-7.15,2.44-11.02,2.57-1.41.05-2.91,1.06-4.13,1.95-1.33.97-2.45,2.25-3.54,3.51-.6.69-.97,1.59-1.44,2.39-.85-.95-1.93-1.78-2.5-2.88-2.57-4.92-5.52-9.6-7.54-14.86-1.93-5.02-4.1-9.96-5.8-15.07-1.08-3.23-1.64-6.62-2.62-9.9-.57-1.89-.1-2.18,1.99-2.21,1.67-.02,3.33,0,5,0,.83,0,1.71.15,2.47-.09.87-.27,1.62-.9,2.43-1.37-.89-.18-2-.79-2.64-.47ZM196.72,109.45c1.47,2.35,2.75,4.86,4.08,7.29,1.92,3.52,3.91,7.01,5.79,10.55,1.72,3.24,3.25,6.68,4.16,10.22.64,2.48.12,5.27.12,7.92h.07c0,1.83.13,3.67-.04,5.48-.16,1.71-.84,3.37-.92,5.08-.16,3.42-.18,3.16-2.73,4.34-2.86,1.32-6.02,1.47-8.83,2.77-2.8,1.29-5.53,2.73-8.21,4.24-.61.34-.79.66-1.46.05-2.39-2.18-4.59-4.84-7.41-6.18-2.9-1.38-3.95-4.83-7.2-5.48-3.28-4.19-6.97-8.21-8.11-13.58-.81-3.82-2.84-7.16-3.6-11.01-.74-3.75-2.64-7.28-3.35-11.03-.57-3.01-2.4-4.79-4.31-6.71-.68-.68-1-.8.3-1.4,4.61-2.13,8.92-4.99,13.64-6.81,5.01-1.93,9.85-4.37,15.32-5.28,2.84-.47,5.58-1.84,8.6-2.09.67-.06,1.27-1.2,1.32.39.05,1.49,0,2.99.01,4.49.02,2.77.21,2.65,2.76,6.76ZM232.98,98.73c-.1-.53.23-1.25.57-1.72.6-.84,1.38-1.48,2.39-.42.11.12.23.24.35.35,4.22,3.82,4.67,5.64,2.31,10.93-1.76,3.94-3.73,7.78-5.64,11.65-.41.83-.78,1.77-1.43,2.39-2.17,2.07-2.14,5.14-3.56,7.54-.18.31.14.91.22,1.37.35-.19.84-.3,1.04-.6,1.76-2.56,3.92-4.78,4.82-8,.77-2.76,2.67-5.2,4.02-7.81,1.13-2.19,2.13-4.44,3.08-6.71,1.02-2.43,1.83-4.65,1.79-7.26-.04-2.35.6-2.96,2.9-2.31,3.57,1.02,7.19,1.92,10.69,3.14,8.15,2.85,16.11,6.2,23.61,10.54,2.42,1.4,4.83,2.83,7.21,4.29.15.09.06.92,0,.93-3.23.58-3.52,3.94-5.29,5.86-1.42,1.53-1.83,4.27-2.07,6.53-.36,3.32-2.23,6.26-2.08,9.65-2.46,4.48-2.92,9.79-5.69,14.12-2.65,4.15-5.18,8.36-9.76,10.92-2.35,1.31-4.3,3.39-6.32,5.24-.95.87-1.51.82-2.46-.02-5.5-4.89-12.6-6.48-19.16-9.19-.28-.12-.63-.1-.95-.1-1-.01-2.13.3-2.97-.07-1.48-.65.56-1.03.33-1.67-.32-.87-.85-1.7-.96-2.59-.42-3.35-.56-6.73-1.09-10.06-.27-1.69-1.04-3.25-1.01-5.09.03-2.25-1.34-2.95-3.69-2.25-2.11.63-3.09.19-3.22-1.58-.1-1.32-.02-2.66-.02-3.99-.37-5.4,2.11-10.06,4.06-14.8,1.99-4.84,4.53-9.44,6.74-14.19.73-1.56,1.6-3.11,1.24-5.01ZM306.62,230.17c1.57.63,3.34.94,4.72,1.85,4.54,3.01,9.89,4.47,14.27,7.85,2,1.54,4.71,2.25,7.2,3.01.93.28,2.12-.41,3.21-.53.89-.11,1.83-.18,2.69.02.39.09.95,1.22.87,1.3-1.46,1.43-.08,3.34-.75,4.71-2.1,4.22-2.26,9.06-4.21,13.24-2.67,5.72-4.42,11.85-7.72,17.28-2.35,3.85-4.68,7.72-7.06,11.55-.07.11-.89-.05-.9-.14-.25-2.08-2.28-2.71-3.32-4.12-1.09-1.48-2.71-1.95-4.42-2.59-3.47-1.29-7.03-2.32-10.45-3.69-3.43-1.37-6.57-3.61-10.08-4.56-7.24-1.97-11.72-7.44-16.16-12.61-2.77-3.22-4.89-7.21-7.22-10.92-.66-1.05-.51-1.98.3-3.08,3.51-4.78,5.96-10.14,7.74-15.75.75-2.36,1.86-4.75,1.56-7.33-.16-1.4.63-2.41.97-3.6.54-1.9-.66-4.05.71-5.9.12,1.95.2,3.9.38,5.84.03.35.5.96.76.95,3.89-.02,7.77,2.78,11.67.07,2.97.63,5.69-1.38,8.56-.97,4,.58,7.92,1.39,11.8,2.8,5.1,1.84,9.52,5.1,14.82,6.49,1.07.28,2.13.48,3.21.65,1.55.24,3.26-.62,4.66.91.31.34,1.53-.03,2.28-.25,4.18-1.25,4.17-1.27,4.18,2.68,0,.17,0,.33,0,.5-.04,5.09-2.68,6.68-7.33,4.27-2.07-1.08-3.92-2.58-5.91-3.84-4.46-2.84-9.42-4.53-14.35-6.35-2.23-.82-4.37-.88-6.61-.89-.26,0-.52.31-.77.48.24.24.43.57.71.69ZM241.74,330.24c-2.88-5.97-5.82-11.92-8.82-17.83-1.99-3.91-3.95-7.7-4.16-12.33-.09-1.94-.94-3.99-.85-6.11.4-5.19,1.07-10.35,2.81-15.32.1-.29.19-.6.22-.91.17-1.93.33-3.86.49-5.79,2.05.69,3.76-.67,5.55-1.12,3.11-.79,6.06-2.22,9.03-3.49,1.54-.66,3.1-2.31,4.45-2.12,1.31.18,2.34,2.19,3.57,3.31,2.27,2.07,4,4.78,7,6.02,3.78,4.99,8.45,9.38,9.94,15.88,1,4.36,2.78,8.58,3.66,12.92.7,3.44,1.14,6.97,1.9,10.44.04.19-.35.46-.54.7,2.82,2.24,3.17,6.64,7,8.02.28.1.66.44.68.69.03.56.02,1.53-.27,1.65-5.68,2.42-10.5,6.59-16.64,8.1-1.62.4-3.16,1.21-4.67,1.97-3.91,1.97-8.31,2.49-12.28,4.13-1.92.79-3.84.32-5.53,1.11-.84.39-1.29,1.09-1.33-.41-.03-1.5-.19-3.02.04-4.49.29-1.9-.49-3.46-1.24-5.01ZM337.42,194.04c-1.9.17-3.89-.66-5.74.59-.59.4-1.87-.01-2.26.44-2.18,2.48-5.42,3.09-8.02,4.84-5.77,3.89-11.87,7.22-18.47,9.56-.29.1-.51.46-.79.49-3.84.42-7.69.8-11.18,1.15-4.24-.4-8.09-.74-11.93-1.14-1.28-.13-2.06-.92-2.11-2.24-.26-6.36-3.2-11.96-5.07-17.85-.45-1.44-1.61-2.66-2.52-3.93-.57-.8-.71-1.42.26-1.94.54-.29,1.27-.42,1.62-.86,1.3-1.59,2.34-3.41,3.73-4.91,2.62-2.83,5.39-5.52,8.14-8.22,2.04-2,4.36-3.71,7.04-4.66,6.09-2.17,12.01-4.73,18.28-6.48,4.23-1.18,8.74-2.4,12.03-5.85,1.28-1.34,1.66-1.14,2.75.79,2.21,3.91,4.74,7.66,6.61,11.72,2.31,5.01,4.25,10.22,6.02,15.45.89,2.62,2.35,5.08,2.52,7.95.07,1.26.38,2.5.55,3.75.15,1.12-.47,1.27-1.46,1.35ZM319.83,149.3c.02-.15.04-.3.07-.44-.16-.27-.3-.55-.49-.8.19.25.33.53.49.8-.03.14-.05.29-.07.44ZM165.03,172.53c2.55,3.48,5.38,6.76,8.09,10.13.26.32.52.64.76.94-.24.24-.37.34-.47.47-3.72,5.22-6.16,11.07-8.02,17.12-.73,2.36-1.69,4.79-1.46,7.41.03.35-.48.74-.74,1.11-2.35-2.21-4.36.89-6.8.44-2.2-.4-4.91-1.09-7.04.83-3.2-.48-6.56.99-9.66-.77-.26-.15-.6-.22-.9-.21-2.58.05-4.85-.53-7.3-1.7-2.1-1.01-4.08-2.21-6.16-3.19-5.79-2.75-11.28-5.88-16.51-9.59-1.36-.97-3.33-1.72-5.33-1.53-1.15.11-2.36.19-3.48-.03-1.27-.25-3.11,1.03-3.68-.7-.29-.89,1.06-2.19,1.23-3.37.61-4.18,1.9-8.15,3.42-12.06.78-2.01.94-4.38,2.1-6.09,2.81-4.14,2.98-9.61,6.86-13.15,1.16-3.99,3.82-7.1,6.05-10.46.34-.52.61-1.1,1.01-1.57.65-.75,1.48-.85,1.97.07,2.65,4.97,7.65,6.2,12.4,7.31,6.97,1.63,13.66,3.88,20.05,7.05,6.77,3.36,9.27,5.64,13.61,11.55ZM148.85,320.51c.53-.4.92-.97,1.43-1.39,2.64-2.21,4.5-4.89,5.3-8.29.54-2.29,1.79-4.43,1.4-6.91.97-2.67,2.32-5.21,3-7.99,1.5-.63,1.51-2.15,1.99-3.38,1.32-3.35,2.84-6.48,5.14-9.38,5.14-6.45,12.11-10.52,18.62-15.22.63-.46,1.42-.73,1.96-1.27.84-.83,1.49-2.51,2.3-2.56,1.01-.07,2.09,1.17,3.16,1.82,4.8,2.93,9.98,4.96,15.5,5.94,2.24.4.38.98.4,1.6.06,1.56-.84,3.31.64,4.71.19.18.29.58.27.87-.39,5.4,1.71,10.64,1.02,16.06-.52,4.04-1.63,7.91-3.32,11.6-3.49,7.6-7.9,14.71-12.07,21.94-1.21,2.09-1.7,4.06-1.61,6.34.05,1.16.02,2.33,0,3.49-.03,2.05,0,1.8-2.48,1.47-6.07-.81-11.69-3-17.4-5.02-5.7-2.02-11.33-4.07-16.31-7.67-1.85-1.34-4.1-2.13-6.13-3.23-.96-.52-1.85-1.16-2.77-1.75-.89-.58-.85-1.14-.01-1.78ZM84.86,307.94c-.02.23-.05.46-.06.68-.18-.08-.4-.14-.59-.21.2.07.42.13.59.21.01-.23.04-.46.06-.68ZM298.92,393.85h0c.28-.12.57-.22.85-.36-.27.14-.56.24-.85.36ZM354.88,353.3c-.05-.2-.09-.4-.11-.59-.02-.19-.04-.37-.04-.55,0,.18.01.36.04.55s.06.39.11.59h0Z"/>
  </g>
</svg>