<?xml version="1.0" encoding="UTF-8"?>
<svg id="Camada_2" data-name="Camada 2" xmlns="http://www.w3.org/2000/svg" viewBox="0 0 426.2 422.45">
  <defs>
    <style>
      .cls-1 {
        fill: #fff;
        stroke-width: 0px;
      }
    </style>
  </defs>
  <g id="Camada_1-2" data-name="Camada 1">
    <g>
      <path class="cls-1" d="M425.63,202.59c-6.03-1.06-11.7-2.06-17.49-3.07.37-.77.63-1.29.93-1.93-2.19-1.72-4.34-3.41-6.72-5.28.8-.4,1.25-.61,1.68-.85,4.08-2.32,8.27-4.46,12.19-7.01,3.63-2.37,4.54-6.06,3.76-10.24-.82-4.43-1.41-8.92-2.41-13.3-.9-3.93-2.17-7.78-3.36-11.64-.65-2.12-1.66-4.15-2.21-6.29-2.73-10.6-6.82-20.7-11.14-30.73-1.81-4.19-4.54-7.95-5.66-12.48-.25-1-1.49-1.76-2.29-2.65-3.05,1.04-5.75,1.95-8.44,2.88-1.25.43-2.69,1.53-3.7,1.22-2.34-.74-4.12.25-5.99,1.08-2.07.93-3.69.41-5.31-.97-2.06-1.75-2.61-4.23-3.68-6.46,1.18-1.6,2.3-3.06,3.36-4.54,1.98-2.74,3.71-5.57,4.67-8.88.65-2.25.5-4.18-.82-6.09-2.76-4.02-5.43-8.12-8.27-12.1-3.29-4.61-7.75-7.96-12.34-11.18-1.98,1.49-3.81,2.87-5.53,4.15-3.13-3.76-5.98-7.22-8.89-10.64-1.25-1.48-2.61-2.86-3.9-4.29-1.42-1.58-2.63-3.42-4.28-4.7-4.41-3.44-9.03-6.59-13.5-9.97-2.22-1.68-4.54-2.62-7.65-1.95-1.79,2.38-3.68,4.99-5.69,7.51-1.64,2.07-3.34,4.11-5.19,6-.74.76-1.89,1.23-2.93,1.56-3.38,1.09-6.13-.36-8.84-2.36.03-1.17.09-2.28.09-3.39-.02-3.66.11-7.33-.13-10.98-.27-4.03-2.33-6.88-6.35-8.08-2.14-.63-4.27-1.28-6.93-2.08-.02-.02-.47-.53-.72-.82-1.41-.32-2.58-.39-3.58-.85-4.5-2.04-9.18-3.43-14.08-4.06-1.88-.25-3.79-.33-5.64-.68-3.9-.74-7.74-1.81-11.66-2.38-7.15-1.04-14.34-1.87-21.52-2.66-3.42-.38-6.87-.46-10.05-.66-.45-.34-.74-.55-1.06-.77-.97.61-1.82,1.15-2.7,1.71-.78,3.79-1.55,7.53-2.6,12.65.24,8.81-3.52,11.27-13.95,11.05-.26-.69-.53-1.45-.85-2.2-1.63-3.74-3.19-7.52-4.93-11.2-1.07-2.26-2.84-3.95-4.77-4.91-11.35-.4-22.01.99-32.07,5.86.26,2.27.5,4.47.8,7.13-6.63-.09-12.61,2.77-19.08,2.67-.69,0-1.4.31-2.06.57-4.83,1.95-9.69,3.8-14.45,5.92-2.76,1.23-5.86,1.94-8.35,4.77-.07,1.68-.15,3.76-.23,5.84.14-.04.28-.09.43-.13.74,1.74,1.48,3.47,2.22,5.2-1.21.97-1.24,1.99-.65,3.3.79,1.76,1.34,3.63,2.04,5.43.51,1.32.26,2.46-.24,3.79-1.17,3.09-4.09,4.03-6.25,5.98-.97-.63-1.71-1.17-2.5-1.62-3.89-2.23-7.74-4.52-11.7-6.62-2.77-1.47-5.56-1.27-7.98.89-4.05,3.6-8.06,7.26-12.19,10.99.14,2.06-1.51,3.07-2.82,4.29-.82.76-1.75,1.41-2.56,2.18-5.84,5.55-10.96,11.73-15.92,18.07-5.54,7.08-10.58,14.48-15.07,22.27-.58,1.01-.9,2.17-1.23,2.98,3.81,3.83,7.28,7.35,10.8,10.83,1.11,1.09,2.34,2.06,4.03,3.5.1,4.37-.33,9.14-4.81,12.6-4.47.17-9.08-1.8-13.6.23-.05-.12-.15-.4-.29-.8-2.61-.29-5.2-.34-7.4,1.47-1.12,2.38-2.28,4.66-3.28,7-.96,2.25-1.84,4.55-2.61,6.87-.76,2.3-1.34,4.66-1.99,6.99.2.06.41.11.62.17.91-3.03,1.82-6.05,2.72-9.07-.07,3.2-.81,6.19-2.13,9.09-1.29,2.83-2.88,5.65-2.53,9.05,2.55,1.02,5.08,2.04,7.84,3.15-.51,1.3-.93,2.32-1.31,3.34-1.84,4.97-4.14,9.84-5.41,14.96-1.21,4.85-2.02,9.79-2.85,14.74H.41c-.11.71-.21,1.42-.32,2.12-.31,2.12.28,4.37.48,6.78,6.03,1.06,11.7,2.06,17.49,3.07-.37.77-.63,1.29-.93,1.93,2.19,1.72,4.34,3.41,6.72,5.28-.8.4-1.25.61-1.68.85-4.08,2.32-8.27,4.46-12.19,7.01-3.63,2.37-4.54,6.06-3.76,10.24.82,4.43,1.41,8.92,2.41,13.3.9,3.93,2.17,7.78,3.36,11.64.65,2.12,1.66,4.15,2.21,6.29,2.73,10.6,6.82,20.7,11.14,30.73,1.81,4.19,4.54,7.95,5.66,12.48.25,1,1.49,1.76,2.29,2.65,3.05-1.04,5.75-1.95,8.44-2.88,1.25-.43,2.69-1.53,3.7-1.22,2.34.74,4.12-.25,5.99-1.08,2.07-.93,3.69-.41,5.31.97,2.06,1.75,2.61,4.23,3.68,6.46-1.18,1.6-2.3,3.06-3.36,4.54-1.98,2.74-3.71,5.57-4.67,8.88-.65,2.25-.5,4.18.82,6.09,2.76,4.02,5.43,8.12,8.27,12.1,3.29,4.61,7.75,7.96,12.34,11.18,1.98-1.49,3.81-2.87,5.53-4.15,3.13,3.76,5.98,7.22,8.89,10.64,1.25,1.48,2.61,2.86,3.9,4.29,1.42,1.58,2.63,3.42,4.28,4.7,4.41,3.44,9.03,6.59,13.5,9.97,2.22,1.68,4.54,2.62,7.65,1.95,1.79-2.38,3.68-4.99,5.69-7.51,1.64-2.07,3.34-4.11,5.19-6,.74-.76,1.89-1.23,2.93-1.56,3.38-1.09,6.13.36,8.84,2.36-.03,1.17-.09,2.28-.09,3.39.02,3.66-.11,7.33.13,10.98.27,4.03,2.33,6.88,6.35,8.08,2.14.63,4.27,1.28,6.93,2.08.02.02.47.53.72.82,1.41.32,2.58.39,3.58.85,4.5,2.04,9.18,3.43,14.08,4.06,1.88.25,3.79.33,5.64.68,3.9.74,7.74,1.81,11.66,2.38,7.15,1.04,14.34,1.87,21.52,2.66,3.42.38,6.87.46,10.05.66.45.34.74.55,1.06.77.97-.61,1.82-1.15,2.7-1.71.78-3.79,1.55-7.53,2.6-12.65-.24-8.81,3.52-11.27,13.95-11.05.26.69.53,1.45.85,2.2,1.63,3.74,3.19,7.52,4.93,11.2,1.07,2.26,2.84,3.95,4.77,4.91,11.35.4,22.01-.99,32.07-5.86-.26-2.27-.5-4.47-.8-7.13,6.63.09,12.61-2.77,19.08-2.67.69,0,1.4-.31,2.06-.57,4.83-1.95,9.69-3.8,14.45-5.92,2.76-1.23,5.86-1.94,8.35-4.77.07-1.68.15-3.76.23-5.84-.14.04-.28.09-.43.13-.74-1.74-1.48-3.47-2.22-5.2,1.21-.97,1.24-1.99.65-3.3-.79-1.76-1.34-3.63-2.04-5.43-.51-1.32-.26-2.46.24-3.79,1.17-3.09,4.09-4.03,6.25-5.98.97.63,1.71,1.17,2.5,1.62,3.89,2.23,7.74,4.52,11.7,6.62,2.77,1.47,5.56,1.27,7.98-.89,4.05-3.6,8.06-7.26,12.19-10.99-.14-2.06,1.51-3.07,2.82-4.29.82-.76,1.75-1.41,2.56-2.18,5.84-5.55,10.96-11.73,15.92-18.07,5.54-7.08,10.58-14.48,15.07-22.27.58-1.01.9-2.17,1.23-2.98-3.81-3.83-7.28-7.35-10.8-10.83-1.11-1.09-2.34-2.06-4.03-3.5-.1-4.37.33-9.14,4.81-12.6,4.47-.17,9.08,1.8,13.6-.23.05.12.15.4.29.8,2.61.29,5.2.34,7.4-1.47,1.12-2.38,2.28-4.66,3.28-7,.96-2.25,1.84-4.55,2.61-6.87.76-2.3,1.34-4.66,1.99-6.99-.2-.06-.41-.11-.62-.17-.91,3.03-1.82,6.05-2.72,9.07.07-3.2.81-6.19,2.13-9.09,1.29-2.83,2.88-5.65,2.53-9.05-2.55-1.02-5.08-2.04-7.84-3.15.51-1.3.93-2.32,1.31-3.34,1.84-4.97,4.14-9.84,5.41-14.96,1.21-4.85,2.02-9.79,2.85-14.74h2.14c.11-.71.21-1.42.32-2.12.31-2.12-.28-4.37-.48-6.78ZM304.95,195.84c-.42,1.15-.79,2.15-1.15,3.14.09.07.18.13.27.2.46-.55.91-1.1,1.37-1.64.42-.48.86-.96,1.64-1.82.49,1.84.85,3.17,1.21,4.5.09.02.18.04.28.06v-3.81c.9.88,1.61,1.58,2.41,2.36-.55,1.47-1.04,2.79-1.45,3.92-1.96,1.36-3.7,1.09-5.4.1-1.91-1.12-1.27-3.24-2.01-5.05.9-.87,1.1-2.24,2.85-1.94ZM287.3,157.51c.61.04,1.23.08,1.85.12-.62-.04-1.23-.08-1.85-.12.12,1.05.24,2.09.37,3.14.3-1.34,1.34-2.12,2.3-2.97,0,0,0,0,0,0,.5.36,1.01.71,1.51,1.06h0s0,0,0,0c.12.26.24.53.35.79.18.35.35.71.68,1.38.21-.71.31-1.02.42-1.41-.43-.01-.71-.02-.99-.03-.15-.24-.31-.49-.46-.73,0,0,0,0,0,0-.1-.58-.21-1.16-.36-1.99.91.36,1.69.67,2.49.99.2,1.14.37,2.12.53,3-1.34,2.75-2.69,3.57-4.96,3.08-2.57-.55-3.57-2.1-3.74-5.75.61-.18,1.23-.37,1.85-.56ZM272.11,171.82c3.12-2.79,6.53-4.65,10.88-4.26,1.21.1,2.43.01,3.64,0,.1.59.18,1.1.28,1.66,1.98-.67.23-1.98.8-2.95.37.27.67.49,1.08.8-.24.97-.48,1.94-.78,3.14,4.04,6.93,7.27,14.39,9.3,22.33-.6,5.16-4.45,8.76-10.65,8.98-6.32.23-12.65.44-18.97.55-6.42.12-12.84.13-19.26.16-1.09,0-2.18-.15-3.53-.26-.39-1.31-.74-2.49-1.07-3.61-.28,0-.62,0-1.52.01,2.47-2.28,4.52-4.23,6.63-6.1,7.71-6.83,15.47-13.61,23.15-20.47ZM224.13,140.44c.16-5.15,2.7-8.22,7.08-10.29.76-.36,1.37-1.02,1.85-1.39,1.49.71,2.84,1.57,4.31,2.01,6.57,1.96,12.86,4.6,18.83,7.98,1.18-.28,2.26-.53,3.92-.91.09.37.23.94.39,1.55-.57.11-1.04.2-1.27.25-.05,2.85-.16,5.19-.1,7.52.06,1.96-.49,3.64-1.95,4.93-2.47,2.19-4.58,4.71-6.79,7.16-.87.97-1.47,2.2-2.38,3.12-4.09,4.19-8.22,8.33-12.38,12.44-2.49,2.46-5.05,4.84-7.74,7.4-2.58.52-2.87.39-4.14-2.1-.29.37-.59.75-.98,1.24-.16-.4-.37-.67-.36-.93.58-13.32,1.28-26.65,1.71-39.98ZM191.91,118.91c1.23-.53,2.5-1.07,3.9-1.68.66.91,1.17,1.61,1.79,2.45.41-.34.82-.69,1.6-1.34.04,2.07.08,3.84.12,5.52-1.74,2.33-3.49.66-5.32.07,0,.5-.01.88-.03,1.86-1.14-1.52-2.01-2.68-2.84-3.79.28-1.12.5-1.99.79-3.11ZM165.77,140.71c7.5-4.81,15.56-8.15,23.96-10.59.51-1.03.95-1.93,1.45-2.94.52.06.98.1,1.61.17-.65,1.06-2.44.98-1.84,2.8.55.09,1.21.18,1.88.29,1.51,1.18,3.03,2.34,4.53,3.54,1.43,1.15,2.12,2.63,2.24,4.5.52,8.01,1.12,16.02,1.69,24.04.37,5.18.74,10.37,1.1,15.54.08,1.11.09,2.23.12,3.07-1.25.56-2.28,1.02-3.7,1.65-1.26-.57-2.8-1.26-4.34-1.96.04.29.07.58.1.87q-1.65-.67-3.24-3.08c.25-.14.5-.27.76-.41-.2-.05-.4-.11-.59-.16-.06.18-.13.36-.19.55-1.02-.94-2.05-1.9-3.07-2.86-.06-.06-.07-.16-.11-.25.17-.05.34-.1.5-.15-1.56-1.83-3.06-3.72-4.71-5.47-4.92-5.25-9.94-10.42-14.83-15.7-1.42-1.53-2.56-3.32-3.82-4.98.17-2.82.34-5.64.5-8.48ZM153.63,134.68c3.54-.6,6.09.95,7.14,4.22-1.76,2.77-3.31,3.66-5.58,3.19-2.15-.45-3.02-1.58-3.38-4.48.58-.94,1.22-1.96,1.81-2.93ZM130.41,157.97c1.34-.77,2.38-1.35,3.6-2.04,3.29.43,4.33,1.52,4.76,5.19-2.38,4.45-5.81,4.89-8.82.94.14-1.25.3-2.65.47-4.09ZM134.03,176.23c.68-1.37,1.42-2.7,2.12-4.06,1.34-2.6,3.6-3.47,6.39-3.79,3.44-.4,5.99.8,8.54,3.04,10.11,8.84,20.38,17.51,30.58,26.25.15.13.27.29.42.47-.33,1.07-.65,2.16-.91,3.03-1.53,1.98-3.52,1.23-5.27,1.31-2.94.13-5.89.13-8.82.14-2.55,0-5.09-.15-7.63-.09-2.8.07-5.61.4-8.41.4-2.2,0-4.39-.36-6.58-.53-1.93-.16-3.86-.45-5.78-.39-5.74.2-8.51-3.51-10.99-7.8,1.52-6.33,3.54-12.29,6.35-17.97ZM116.76,195.52c4.72.9,5.85,2.11,5.89,6-1.85,2.01-3.65,4.24-7.11,2.15-.47-1.35-.99-2.87-1.52-4.42.97-1.31,1.85-2.5,2.75-3.72ZM121.25,226.61c.42-1.15.79-2.15,1.15-3.14-.09-.07-.18-.13-.27-.2-.46.55-.91,1.1-1.37,1.64-.42.48-.86.96-1.64,1.82-.49-1.84-.85-3.17-1.21-4.5-.09-.02-.18-.04-.28-.06v3.81c-.9-.88-1.61-1.58-2.41-2.36.55-1.47,1.04-2.79,1.45-3.92,1.96-1.36,3.7-1.09,5.4-.1,1.91,1.12,1.27,3.24,2.01,5.05-.9.87-1.1,2.24-2.85,1.94ZM138.9,264.94c-.88-.06-1.77-.12-2.66-.17-.5-.36-1.01-.71-1.51-1.06h0c.1.58.21,1.16.36,1.99-.91-.36-1.69-.67-2.49-.99-.2-1.14-.37-2.12-.53-3,1.34-2.75,2.69-3.57,4.96-3.08,2.57.55,3.57,2.1,3.74,5.75-.61.18-1.23.37-1.85.56ZM154.09,250.63c-3.12,2.79-6.53,4.65-10.88,4.26-1.21-.1-2.43-.01-3.64,0-.1-.59-.18-1.1-.28-1.66-1.98.67-.23,1.98-.8,2.95-.37-.27-.67-.49-1.08-.8.24-.97.48-1.94.78-3.14-4.04-6.93-7.27-14.39-9.3-22.33.6-5.16,4.45-8.76,10.65-8.98,6.32-.23,12.65-.44,18.97-.55,6.42-.12,12.84-.13,19.26-.16,1.09,0,2.18.15,3.53.26.39,1.31.74,2.49,1.07,3.61.28,0,.62,0,1.52-.01-2.47,2.28-4.52,4.23-6.63,6.1-7.71,6.83-15.47,13.61-23.15,20.47ZM202.07,282.01c-.16,5.15-2.7,8.22-7.08,10.29-.76.36-1.37,1.02-1.85,1.39-1.49-.71-2.84-1.57-4.31-2.01-6.57-1.96-12.86-4.6-18.83-7.98-1.18.28-2.26.53-3.92.91-.09-.37-.23-.94-.39-1.55.57-.11,1.04-.2,1.27-.25.05-2.85.16-5.19.1-7.52-.06-1.96.49-3.64,1.95-4.93,2.47-2.19,4.58-4.71,6.79-7.16.87-.97,1.47-2.2,2.38-3.12,4.09-4.19,8.22-8.33,12.38-12.44,2.49-2.46,5.05-4.84,7.74-7.4,2.58-.52,2.87-.39,4.14,2.1.29-.37.59-.75.98-1.24.16.4.37.67.36.93-.58,13.32-1.28,26.65-1.71,39.98ZM205.16,215.18c.49-1.23.98-2.45,1.47-3.69h.14c0-.11-.01-.21-.02-.32.03-.07.06-.15.09-.22h-.1c-.13-2.18-.26-4.33-.42-6.98,1.4,2.57,2.66,4.89,3.91,7.17-1.53,1.47-3.03,2.92-4.52,4.36-.18-.11-.37-.22-.55-.33ZM234.29,303.54c-1.23.53-2.5,1.07-3.9,1.68-.66-.91-1.17-1.61-1.79-2.45-.41.34-.82.69-1.6,1.34-.04-2.07-.08-3.84-.12-5.52,1.74-2.33,3.49-.66,5.32-.07,0-.5.01-.88.03-1.86,1.14,1.52,2.01,2.68,2.84,3.79-.28,1.12-.5,1.99-.79,3.11ZM260.43,281.74c-7.5,4.81-15.56,8.15-23.96,10.59-.51,1.03-.95,1.93-1.45,2.94-.52-.06-.98-.1-1.61-.17.65-1.06,2.44-.98,1.84-2.8-.55-.09-1.21-.18-1.88-.29-1.51-1.18-3.03-2.34-4.53-3.54-1.43-1.15-2.12-2.63-2.24-4.5-.52-8.01-1.12-16.02-1.69-24.04-.37-5.18-.74-10.37-1.1-15.54-.08-1.11-.09-2.23-.12-3.07,1.25-.56,2.28-1.02,3.7-1.65,1.26.57,2.8,1.26,4.34,1.96-.04-.29-.07-.58-.1-.87q1.65.67,3.24,3.09s.02.01.02.02c1.02.95,2.05,1.9,3.07,2.86.06.06.07.16.11.25-.17.05-.34.1-.5.15,1.56,1.83,3.06,3.72,4.71,5.47,4.92,5.25,9.94,10.42,14.83,15.7,1.42,1.53,2.56,3.32,3.82,4.98-.17,2.82-.34,5.64-.5,8.48ZM272.57,287.77c-3.54.6-6.09-.95-7.14-4.22,1.76-2.77,3.31-3.66,5.58-3.19,2.15.45,3.02,1.58,3.38,4.48-.58.94-1.22,1.96-1.81,2.93ZM295.79,264.48c-1.34.77-2.38,1.35-3.6,2.04-3.29-.43-4.33-1.52-4.76-5.19,2.38-4.45,5.81-4.89,8.82-.94-.14,1.25-.3,2.65-.47,4.09ZM292.17,246.22c-.68,1.37-1.42,2.7-2.12,4.06-1.34,2.6-3.6,3.47-6.39,3.79-3.44.4-5.99-.8-8.54-3.04-10.11-8.84-20.38-17.51-30.58-26.25-.15-.13-.27-.29-.42-.47.33-1.07.65-2.16.91-3.03,1.53-1.98,3.52-1.23,5.27-1.31,2.94-.13,5.89-.13,8.82-.14,2.55,0,5.09.15,7.63.09,2.8-.07,5.61-.4,8.41-.4,2.2,0,4.39.36,6.58.53,1.93.16,3.86.45,5.78.39,5.74-.2,8.51,3.51,10.99,7.8-1.52,6.33-3.54,12.29-6.35,17.97ZM309.44,226.93c-4.72-.9-5.85-2.11-5.89-6,1.85-2.01,3.65-4.24,7.11-2.15.47,1.35.99,2.87,1.52,4.42-.97,1.31-1.85,2.5-2.75,3.72ZM219.88,218.48c-1.4-2.57-2.66-4.89-3.91-7.17,1.53-1.47,3.03-2.92,4.52-4.36.18.11.37.22.55.33-.49,1.23-.98,2.45-1.47,3.69h-.14c0,.11.01.21.02.32-.03.07-.06.15-.09.22h.1c.13,2.18.26,4.33.42,6.98Z"/>
      <path class="cls-1" d="M289.96,161.47c-.31-.43-.62-.86-.96-1.33-.51.26-.92.47-1.32.67.59,1.48.76,1.53,2.27.67Z"/>
      <path class="cls-1" d="M287.69,160.8s0-.01,0-.02c0-.04-.01-.09-.02-.13-.01.06-.04.12-.05.19.02-.01.05-.02.07-.04Z"/>
      <path class="cls-1" d="M291.03,160.7c-.29.24-.59.48-.88.71l1.09-.3c-.07-.14-.14-.28-.21-.42Z"/>
      <path class="cls-1" d="M290.14,161.42c-.06.02-.11.03-.17.05,0,0,0,0,0,0,.01.02.03.04.04.06.05-.04.09-.07.14-.11Z"/>
      <path class="cls-1" d="M193.12,179.08c-.07.07-.13.15-.2.22.08-.05.16-.1.24-.15l-.04-.07Z"/>
    </g>
  </g>
</svg>