<?xml version="1.0" encoding="UTF-8"?>
<svg id="Camada_2" data-name="Camada 2" xmlns="http://www.w3.org/2000/svg" viewBox="0 0 563.46 184.73">
  <defs>
    <style>
      .cls-1 {
        fill: #fff;
        stroke-width: 0px;
      }
    </style>
  </defs>
  <g id="Camada_1-2" data-name="Camada 1">
    <g>
      <path class="cls-1" d="M555.14,148.6C375.01,103.32,194.48,57.59,14.75,8.31,27.32,3.12,39.56-2.3,53.44,1.02c32.59,7.78,65.08,16.01,97.82,23.13,80.59,17.53,161.31,34.46,241.94,51.8,32.75,7.04,65.58,13.81,98.04,22.01,24.52,6.19,45.46,20.42,66.36,34.14,8.56,5.62,7.75,10.45-2.45,16.51Z"/>
      <path class="cls-1" d="M0,14.36c9.97,2.39,18.25,4.11,26.39,6.36,42.22,11.68,84.38,23.6,126.61,35.25,33.44,9.22,66.93,18.26,100.45,27.2,48.46,12.93,96.95,25.72,145.44,38.54,24.14,6.38,48.34,12.57,72.44,19.14,6.47,1.77,12.64,4.66,18.97,6.95,18.43,6.67,36.89,13.24,55.27,20.01,2.27.84,5.03,2.2,6.04,4.12,1.53,2.9,3.23,7.31,2.04,9.59-1.11,2.13-5.97,3.33-9.1,3.19-27.5-1.22-54.16-7.33-80.47-15-72.88-21.26-145.84-42.27-218.55-64.07-66.46-19.92-132.66-40.71-198.94-61.22-9.65-2.99-19.17-6.42-28.62-10.01C9.29,31.13,4.3,24.24,0,14.36Z"/>
    </g>
  </g>
</svg>