<?xml version="1.0" encoding="UTF-8"?>
<svg id="Camada_2" data-name="Camada 2" xmlns="http://www.w3.org/2000/svg" viewBox="0 0 473.15 421.12">
  <defs>
    <style>
      .cls-1 {
        fill: #fff;
        stroke-width: 0px;
      }
    </style>
  </defs>
  <g id="Camada_1-2" data-name="Camada 1">
    <g>
      <path class="cls-1" d="M199.86,414.88c8.49-1.55,13.57-2.47,22.95-4.18,1.65-12.47,7.32-26.98,4.1-39.14-3.13-11.84-15.37-21.27-23.46-31.58,17.32-32.33,17.48-33.97-3.56-75.43,6.26-22.17,3.27-28.76-16.4-34.54-3.11,2.7-6.58,5.71-9.97,8.65-22.74-21.55-21.35-40.11,4.19-52.92,10.97-2.34,21.94-4.67,33.17-7.07v-17.79c-4.64-1.84-8.9-3.52-14.42-5.7,4.9-2.13,8.77-3.81,15.29-6.64,0-5.89,2.74-15.83-.56-18.63-7.21-6.11-17.27-11.1-26.59-11.97-13.74-1.27-21.13,8.86-24.96,22.32,2.4,3.69,4.97,7.65,8.37,12.89-4.95,3.33-9.35,7.81-14.64,9.58-25.11,8.36-50.47,7.98-74.97-1.99-14.91-6.07-25.82-17.14-25.94-34.39-.13-18.53,9.42-32.42,25.9-40.22,9.57-4.53,20.44-6.33,30.83-9.39,1.99-58.24,54.18-105.16,114.79-56.41,80.09-22.11,108.89-7.09,120.47,62.82,40.7,11.77,47.73,42.32,41.23,86.22,14.95-3.77,29.32-2.37,36.95,11.82,6.29,11.7,9.54,25.03,12.7,33.7,13.87,11.31,26.72,19.63,36.33,30.75,3.62,4.19-.27,14.86-.98,26.56-13.62-7.45-23.59-12.9-33.04-18.07-19.37,7.31-35.48,23.1-57.03,14.45-3.49-18.47-6.76-35.77-10.03-53.07-2.97-.14-5.94-.27-8.91-.41-7.4,23.19-14.8,46.38-23,72.07-2.42,1.06-7.81,3.43-14.83,6.5-1.57,19.52-13.81,28.76-33.24,32.12-4.82.84-8.21,10.07-12.23,15.46-5.58,7.5-9.61,17.56-17.01,21.98-14.48,8.66-21.58,19.7-23.98,36.23-3.16,21.76-16.07,27.57-37.49,15.42ZM285.56,117.04c.21,1.64.42,3.27.62,4.91,31.4-10.93,55.34-3.86,69.77,30.95,2.97-26.48-9.54-37.16-28.82-42.15-1.64-13.89-2.39-26.91-4.87-39.58-2.91-14.85-13.55-24.17-27.74-26.41-11.69-1.84-24.01.36-36.06.77.12,1.63.24,3.25.36,4.88,42.81,6.72,57.07,20.16,55.57,52.88-9.44,4.5-19.14,9.13-28.84,13.76ZM231.33,321.56c9.38-16.36,16.79-31.58,9.04-48.5-5.16-11.24-6.77-19.87-.15-31.67,6.23-11.1,2.58-24.05-8.83-31.46-9.32-6.05-19.23-5.86-24.83,2.43,5.84,15.15,10.84,28.13,17.97,46.64,19.84,13.73-4.94,39.42,6.81,62.54ZM194.46,23.56c.75-1.94,1.5-3.88,2.25-5.81-9.78-2.03-19.55-4.06-29.33-6.08-.37,1.53-.73,3.07-1.1,4.6,9.39,2.43,18.78,4.87,28.17,7.3ZM333.39,230.35c-2.02-1.14-4.05-2.27-6.07-3.41-2.87,6.52-5.73,13.04-8.6,19.56,1.69.79,3.38,1.59,5.06,2.38,3.2-6.18,6.4-12.35,9.6-18.53ZM71.24,116.15c-1.35-.5-2.71-.99-4.06-1.49v17.43c.99.03,1.98.06,2.97.09.36-5.34.73-10.68,1.09-16.02Z"/>
      <path class="cls-1" d="M89.73,221.99c-7.53,1.77-14.7,3.46-22.89,5.39-2.32,3.16-5.16,7.03-7.63,10.39-18.96-1.05-37.55-2.08-59.22-3.28,2.77-6.07,4.97-15.67,10.61-22.37,15.63-18.54,36.76-24.52,60.29-20.6,16.57,2.76,20.63,9.52,18.83,30.47Z"/>
      <path class="cls-1" d="M121.99,253.28c17.43-3.21,25.15-.58,25.05,18.94-9.24-6.99-15.44-11.67-25.05-18.94Z"/>
    </g>
  </g>
</svg>