<?xml version="1.0" encoding="UTF-8"?>
<svg id="Camada_2" data-name="Camada 2" xmlns="http://www.w3.org/2000/svg" viewBox="0 0 363.65 504.11">
  <defs>
    <style>
      .cls-1 {
        fill: #fff;
        stroke-width: 0px;
      }
    </style>
  </defs>
  <g id="Camada_1-2" data-name="Camada 1">
    <g>
      <path class="cls-1" d="M118.76,419.94c-7.63,6.02-13.92,10.97-21.13,16.65,5.43,15.17,3.94,31.47-6.65,46.4-8.16,11.5-19.52,17.87-33.36,20.43-23.96,4.44-50.4-13.03-55.98-37.32-7.11-30.88,9.09-52.68,45.4-62.84,2.16-8.52,4.11-16.24,6.52-25.72-5.85-8.83-4.14-19.03,3.44-28.89,2.58-3.35,4.79-7.02,6.96-10.66,5.77-9.7,14.14-13.83,25.85-12,6.27-9.52,12.62-19.17,19.2-29.16,25.06,6.04,49.87,12.02,75.45,18.18-11.46,17.6-22.4,34.39-33.41,51.29,7.25,10.49,5.81,20.32-1.34,29.92-2.79,3.76-5.33,7.73-7.72,11.76-5.65,9.55-13.88,13.45-23.25,11.96ZM50.3,477.32c13.05-.01,23.44-10.29,23.53-23.26.09-13.45-10.25-23.91-23.59-23.89-12.92.02-23.47,10.43-23.59,23.28-.12,13.29,10.36,23.87,23.65,23.86Z"/>
      <path class="cls-1" d="M259.68,105.41c4.88-7.45,9.86-15.04,15.02-22.92-8.27-12.28-13.7-25.22-10.53-40.28,2.5-11.85,7.4-22.34,16.91-30.33,17.79-14.93,43.17-15.9,62.06-2.27,18.49,13.33,25.45,37.79,16.84,59.14-9.47,23.48-30.8,34.27-60.42,30.08-4.81,7.33-9.79,14.93-14.51,22.12,2.93,4.86,7.01,9.07,7.96,13.89.99,5.05.24,11.3-2,15.94-3.93,8.16-9.58,15.5-14.81,23.65-25.11-6.05-49.92-12.02-75.68-18.22,10.55-15.98,20.12-31.3,30.56-45.99,6.02-8.47,14.46-9.38,28.58-4.82ZM290.03,49.97c-.06,13.17,9.92,23.39,23.11,23.67,13.19.29,24.12-10.37,24.08-23.49-.03-13-11.19-24.19-23.9-23.97-12.8.22-23.23,10.88-23.29,23.79Z"/>
      <path class="cls-1" d="M162.21,180.45c2.73,3.04,5.46,6.08,8.55,9.52-3.98,5.69-8.03,11.47-12.35,17.64-8.12-5.63-14.55-11.81-17.55-20.95-5.32-16.15,4.6-31.01,21.57-29.98,13.45.82,26.75,4.45,40.08,7.01,25.18,4.85,50.33,9.88,75.51,14.72,3.7.71,7.52.76,13.03,1.28-2.39-2.87-3.82-4.59-5.62-6.76,3.95-5.66,7.99-11.44,11.99-17.17,10.3,4.75,17.43,16.42,16.72,26.98-.78,11.68-10.46,20.21-23.77,19.34-11.94-.79-23.89-2.58-35.65-4.91-27.92-5.53-55.73-11.66-83.6-17.48-2.58-.54-5.26-.59-7.89-.86-.34.54-.69,1.08-1.03,1.61Z"/>
      <path class="cls-1" d="M121.36,264.23c-5.78-7.33-11.61-12.82-15.1-19.52-8.36-16.02,1.69-32.98,19.7-32.83,10.34.08,20.73,2.62,30.98,4.64,27.79,5.47,55.5,11.32,83.27,16.86,4.31.86,8.8.85,14.54,1.36-2.14-2.92-3.49-4.76-5.11-6.97,4.02-5.74,8.07-11.54,12.27-17.54,7.38,4.75,12.45,10.77,15.23,18.55,5,13.98-4.29,28.41-19.59,27.88-16.41-.57-32.89-2.94-49.05-6-23.21-4.4-46.16-10.19-69.25-15.23-3.99-.87-8.14-1-12.22-1.48-.26.52-.52,1.05-.78,1.57,2.73,3.04,5.45,6.08,8.58,9.57-3.98,5.65-8.03,11.42-13.47,19.15Z"/>
      <path class="cls-1" d="M89.64,291.78c2.73,3.02,5.45,6.03,8.58,9.49-3.96,5.64-8.02,11.42-12.51,17.82-9.76-7.39-17.92-15.06-18.7-27.59-.86-13.9,7.54-23.79,21.44-23.39,11.02.31,22.04,2.76,32.94,4.89,28,5.46,55.91,11.32,83.89,16.86,3.78.75,7.74.57,13.06.92-2.35-2.88-3.69-4.52-5.45-6.67,3.97-5.68,8-11.46,12.27-17.57,7.54,4.61,12.64,10.62,15.22,18.44,4.89,14.87-4.83,28.91-20.77,28.14-15.75-.76-31.53-3.07-47.03-6.07-24.07-4.64-47.9-10.48-71.86-15.7-3.34-.73-6.83-.81-10.25-1.19-.28.54-.56,1.07-.84,1.61Z"/>
      <path class="cls-1" d="M221.11,258.75c-6.11,9.41-11.54,17.78-17.5,26.95-24.79-5.93-49.59-11.87-75.6-18.09,6.15-9.42,11.79-18.06,17.62-27,24.94,6,49.57,11.92,75.48,18.15Z"/>
      <path class="cls-1" d="M164.69,211.38c6.04-9.25,11.37-17.41,16.95-25.97,24.7,6.1,48.99,12.09,75.1,18.54-5.84,9.1-10.92,17.01-16.4,25.55-25.03-5.99-49.84-11.93-75.65-18.11Z"/>
    </g>
  </g>
</svg>