<?xml version="1.0" encoding="UTF-8"?>
<svg id="Camada_2" data-name="Camada 2" xmlns="http://www.w3.org/2000/svg" viewBox="0 0 413.19 374.18">
  <defs>
    <style>
      .cls-1 {
        fill: #fff;
        stroke-width: 0px;
      }
    </style>
  </defs>
  <g id="Camada_1-2" data-name="Camada 1">
    <g>
      <path class="cls-1" d="M145.78,68.13c.72-.5.72-1.02,0-1.52-.72.5-.72,1.02,0,1.52Z"/>
      <path class="cls-1" d="M300.83,225.01c-2.45-.29-3.95-.23-5.41.5-14.52,7.18-29.57,13.1-44.51,19.31-5.91,2.46-12.41,4.08-17.64,7.56-25.8,17.15-51.22,34.89-77.37,51.53-4.41,2.81-9.05,5.63-12.72,9.82,2.28,4.53,5.78,7.35,9.43,10.18,11.96-6.51,17.66-18.96,29.06-27.41,46.33-16.25,94.62-29.79,140.18-49.45-8.7-6.72-14.39-15.32-21.03-22.03Z"/>
      <path class="cls-1" d="M376.23,128.44c-1.6-1.98-3.19-3.97-4.6-5.72,1.35-45.38-30.46-84.84-81.51-81.56-2.18-.82-2.43-4.12-5.26-4.12-.11-.48-.22-.97-.33-1.45-.5-.55-1.01-1.1-1.51-1.65-4.96-3.08-7.19-9.52-13.23-11.05-2.98.73-4.46,2.99-6.25,4.78-9.89,9.82-19.85,19.59-29.52,29.63-3.91,4.05-8.18,6.58-13.77,7.77-10.46,2.21-20.78,5.12-31.94,7.93,5.7,6.55,11.09,12,16.94,17.03,9.16,7.92,17.51,16.69,26.15,25.15,2.85,2.79,5.35,6.06,9.16,8.4,1.15-4.23.48-7.81.57-11.34.22-9.49,2.61-18.32,7.86-26.25,30.73-45.88,94.57-30.93,105.14,22.47-2.65,2.89-1.27,6.42-1.32,9.63-.33,29.06-26.85,54.54-56.12,52.46-2.35-.13-5.48-1.06-6.04,2.89,7.96,10.29,18.11,18.46,26.91,27.94,1.09,1.17,2.46,1.75,3.99,2.05,3.73,7.91,11.81,11.91,16.99,19.81,2.34-8.85,4.49-16.71,6.5-24.61,2.04-8.01,4.42-15.54,10.96-21.54,10.26-9.4,19.84-19.56,29.63-29.46,1.75-1.77,4.24-3.13,4.23-6.82-3.92-4.34-7.35-9.82-13.61-12.36Z"/>
      <path class="cls-1" d="M324.91,34.11c2.77,2.98-.87,4.16-.32,5.8,2.78,2.17,5.88,2.6,8.42,1.66,4.48-1.66,9.23-.63,13.65-2.13,2.59-.88,3.86.35,4.04,2.85-2.46,4.96-8.45.47-12.27,5.06,12.51,4.82,26-.63,37.38,6.51-7.05,3.11-14.71.96-21.92,2.15-.02,2.51,1.57,3.74,3.26,4.04,13.89,2.52,27.24,7.72,41.36,9.54q1.1-9.37-9.52-14.39c-.69-3.85-1.41-7.86-2.13-11.87-.11-1.43.31-3-1.2-4.25-3.48-1.79-7.54,2.95-11.05-.6-.14-2.93-.71-5.68-3.27-7.56.34-3.2-.19-6.01-3.36-7.79-3.46.77-6.8,2.44-10.41,1.13.17-3.43-1.79-5.57-4.43-7.29-.29-2.51-.27-5.21-4.11-6.16-3.23,2.48-7.3,3.65-11.78,3.04-.15-3.42-2.76-5.35-4.66-7.71-.91-1.95-2.2-3.3-5.1-2.93-3.26,2.41-6.42,5.51-9.15,9.07-1.19,0-2.24.25-2.8,1.46-1,0-2,0-3,0-1.2-3.41,2.81-5.32,2.65-8.35-2.37-3.25-5.22-5.17-9.19-5.4-6.95,4.57-8.65,13.71-15.5,18.8-6.09-6.94,4.26-9.13,3.02-14.52-2.93-2.28-5.56-5.94-10.98-3.28-2.77,5.52-6.41,11.11-7.16,17.16,5.71,6.15,10.96,11.78,15.96,17.17,11.86.2,23.18,3.56,33.58-1.22ZM314.62,28.62s0,0,0,0c.33.23.66.46.98.68-.33-.23-.66-.46-.98-.68Z"/>
      <path class="cls-1" d="M114.52,325.23c29.38-19.5,58.57-38.88,87.97-58.39-2.07-1.98-3.15-.98-4.27-.5-18.35,7.85-36.66,15.82-55.09,23.5-4.9,2.04-9.6,5.06-15.27,4.76-1.02-.19-1.99-.44-2.61-2.91,56.52-23.59,113.23-47.26,170.37-71.11-2.1-3.51-4.04-6.07-7.52-7.06-2.06-2.14-3.25-5.26-6.62-5.94,0-3.3-2.63-4.89-4.63-6.77-3.35-3.15-7.33-5.69-10.37-9.09-13.12-14.65-27.73-27.78-41.68-41.58-10.37-10.25-20.61-20.65-30.97-30.91-1.95-1.93-3.45-4.64-6.76-4.65-.54-4.06-3.43-5.97-7.16-8.11-33.37,47.38-64.67,95.76-96.77,142.94-2.87-.45-3.01-1.79-3.29-3.05,24.57-37.38,50.48-73.95,74.81-111.51,4.27-6.52,10.21-12.22,12.09-20.23,4.56-2.83,4.9-8.8,9.2-11.74-1.8-7.38-8.17-9.87-13.4-14.9-.96,6.59-7.4,8.66-8.21,14.35-1.94.56-2.64,2.26-3.64,3.76-34.44,51.58-68.56,103.01-102.35,155.09,3.38,4.3,6.09,8.67,11.34,10.38,13.59,13.77,27.19,27.54,40.77,41.32"/>
      <path class="cls-1" d="M347.86,105.53c-13.29-60.51-101.49-54.27-102.18,10.75,0,0,0,0,0,0,.08,9.56,2.22,18.14,10,24.77,7.22,6.17,13.94,12.96,20.82,19.52,2.12,2.03,4.62,3.19,7.39,3.95,30.93,8.51,62.44-14.05,64.33-46.65,0,0,0,0,0-.01-.09-4.11.37-8.33-.37-12.33ZM316.76,123.49s0,0,0,0c-2.79,1.19-3.46,4.26-5.52,6.17-7.15,6.62-17.93,7.64-25.68,2.15-18.04-13.18-5.78-40.86,15.95-36.33,9.69,2.35,15.81,10.42,15.69,20.37l-.46,7.6.02.03Z"/>
      <path class="cls-1" d="M94.26,314.05c-13.01-12.78-25.94-25.64-38.89-38.48-4.97-5.47-9.91-10.96-16.31-15.97-7.33,9.22-16.59,8.06-26.12,4.99-4.59,4.35-9.52,8.04-12.95,14.13,6.89,7,13.43,14.18,20.87,20.49,17.3,17.46,34.59,34.92,51.88,52.39,1.13,1.14,2.45,1.82,4.02,2.05,4.41,8.62,12.37,13.78,18.96,20.53,5.94-3.58,9.77-8.2,14.03-13.35-6.9-6.85-13.05-13.96-20.46-19.83-1.09-4.06-4.91-5.74-7.55-8.37-15.42-15.41-30.4-31.27-46.48-46.01-.19-1.63-.98-3.48,1.67-4.21,1.32.9,2.72,1.86,4.12,2.81,14.99,16.09,30.72,31.43,46.52,46.72,6.11,6.26,12.21,12.52,19.54,20.02.62-8.05,4.02-12.57,6.83-17.35-3.13-5.35-9.31-7.41-12.2-12.69"/>
      <path class="cls-1" d="M335.62,227.28c-4.95-6.23-11.2-11.42-16.81-17.13-1.73-1.77-3.6-2.9-6.14-2.57.68-3.68-1.94-5.63-4.11-7.8-34.13-34.33-68.52-68.39-102.86-102.51-7.72-8.18-15.84-16.02-23.37-24.36-1.12-1.3-4.22-3.57.1-5.16-3.88-5.19-8.73-9.42-13.61-13.62-1.82-1.67-3.18-3.94-5.95-4.55-2.06.76-4.18,1.51-4.04,4.41h0c-1.89-.88-2.49,1-3.63,1.71-2.91,1.66-4.9,4.28-6.97,6.79-1.26,1.53-2.78,3.22-.34,5.08-.94.95-.93,1.88.04,2.8-.5,1.44.62,1.91,1.5,2.53,4.15-.17,7,1.83,9.9,4.75,10.95,11.04,22.22,21.76,33.36,32.6,19.91,21.25,42.02,40.3,61.54,61.93,7.75,8.59,16.96,15.6,24.6,24.45,6.79,7.87,14.14,15.67,22.74,21.9,13.24,14.7,27.69,28.16,41.66,42.42,4.4-3.91,8.1-7.05,12.02-9.15,1.51-3.81-.72-5.68-2.62-7.85-5.24-5.99-11.98-10.35-17.02-16.68Z"/>
      <path class="cls-1" d="M377.22,110.08c-.58,1.29-1.09,1.93-1.12,2.59-.1,2.3-.04,4.6-.04,6.91-.25.65-.49,1.31-.74,1.96,7.06,6.34,14.12,12.68,21.01,18.87-.61,2.44-1.03,4.13-1.53,6.11,2.94,2.04,2.93,6.38,6.51,8.36,3.19-3.2,7.06-5.4,8.76-10.08-11.66-10.84-21.54-23.15-32.87-34.72Z"/>
      <path class="cls-1" d="M374.01,96.59c9.05,13.87,21.41,24.98,32.4,37.82,2.62-3.57,5.66-6.63,6.77-11.91-12.54-9.05-25.18-18.17-37.82-27.29-.45.46-.91.91-1.36,1.37Z"/>
      <path class="cls-1" d="M404.38,90.79c3.69-3.78,1.95-8.39,4.2-12.63-15.88-3.58-30.32-8.94-45.9-8.88,13.14,9.13,28.12,14.15,41.7,21.52Z"/>
      <path class="cls-1" d="M369.81,80.51c-.06-.08-.11-.15-.15-.2.03.04.08.11.15.2l-.05.05c-.2-.19-.39-.37,0,0,.22,3.04,1.66,5.2,4.25,6.89,2.78,1.82,5.26,4.08,7.95,6.04,8.4,6.13,16.84,12.21,25.8,18.7,2.39-4.02,4.74-6.95,5.17-11.41-14.05-7.74-28.65-13.87-43.12-20.26h0Z"/>
      <path class="cls-1" d="M246.85,38.13c1.27-7.68,4.39-15.05,5.06-22.73-3.39-3.5-7.13-3.46-12.24-2.39.47,10.64-.85,20.88-1.58,32.53,4.42-2.34,6.46-4.91,8.77-7.41Z"/>
      <path class="cls-1" d="M232.93,50.15v-26.33c-3.75.46-7.02.86-10.79,1.33.32,10.88.83,21.25,4.59,31.89,2.59-2.86,4.99-4.46,6.21-6.89Z"/>
      <path class="cls-1" d="M219.15,57.71c1.08-7.15-.49-13.34-1.99-19.88-3.92,1.17-7.72,2.31-11.99,3.59,2.89,7.06,4.04,14.11,7.67,20.16,3.43.56,4.82-1.63,6.31-3.87Z"/>
      <path class="cls-1" d="M273.04,6.88c-4.09-1.76-7.88-3.22-12.83-1.6-1.45,8.48-4.67,16.22-6,24.71,5.91-8.02,15.44-12.96,18.82-23.11Z"/>
      <path class="cls-1" d="M204.34,62.15c1.65-2.25,1.97-4.6-1.06-6.51-3.93,1.63-8.38,2.52-8.48,8.37,3.83,1.83,7.07,1.5,9.53-1.86Z"/>
      <path class="cls-1" d="M369.66,80.31c-.06-.08-.05-.06,0,0h0Z"/>
    </g>
  </g>
</svg>