<?xml version="1.0" encoding="UTF-8"?>
<svg id="Camada_2" data-name="Camada 2" xmlns="http://www.w3.org/2000/svg" viewBox="0 0 446.38 482.79">
  <defs>
    <style>
      .cls-1 {
        fill: #fff;
        stroke-width: 0px;
      }
    </style>
  </defs>
  <g id="Camada_1-2" data-name="Camada 1">
    <g>
      <path class="cls-1" d="M74.83,18.45c4.57-5.71,9.13-11.41,14.76-18.45,4.78,5.4,7.04,7.96,9.64,10.9-3.04,4.25-5.85,8.17-8.81,12.29,16.22,34.83,35.5,66.88,66.84,89.07,21.49-7.36,41.98-15.02,62.87-21.34,20.65-6.25,41.87-10.64,62.55-16.79,16.43-4.89,32.58-10.82,48.58-17.01,12.71-4.91,24.99-10.9,37.47-16.4.17.8.34,1.61.52,2.41,3.94.21,8.05,1.24,11.79.48,14.4-2.93,28.68-6.44,43.59-9.87,12.87,37.68,28.07,73.76,18.99,114.99-15.3,2.1-30.67,4.22-46.02,6.33-3.38,4.86-6.47,9.31-8.44,12.14,9.69,22.11,18.78,42.85,27.88,63.58,14.55,33.14,14.66,66.98,4.45,101.14-12.86,43.04-33.05,81.94-68.64,110.61-46.57,37.53-100.31,46.92-157.99,35.96-95.71-18.19-146.59-94.36-158.54-163.22-9.97-57.46,8.42-106.84,45.96-150.06,2.49-2.87,5.05-5.69,8.31-9.34-28.22-21.9-52.92-46.79-73.18-76.05-4.62,1.8-8.58,3.35-13.35,5.21-1.39-3.29-2.49-5.88-4.07-9.64,15.33-12.01,30.24-23.94,45.43-35.51,9.04-6.88,18.52-13.19,27.8-19.75,0,0-.08-.08-.08-.08-1.84,1.9-3.51,4.04-5.56,5.67-18.8,14.98-37.7,29.84-56.49,44.82-2.11,1.68-3.76,3.94-5.62,5.94.69.67,1.38,1.34,2.08,2.01,28.69-23.17,57.39-46.35,86.08-69.52-.7-.91-1.39-1.82-2.09-2.73-2.67,2.16-5.27,4.41-8.03,6.45-2.79,2.06-5.72,3.92-8.6,5.87,0,0-.09-.1-.09-.1ZM80.32,28.51c-.77.59-1.54,1.18-2.31,1.77-15.9,11.71-31.8,23.41-48.12,35.43,2.67,3.27,4.34,5.3,6.56,8.01,12.28-10.05,24.08-19.7,35.93-29.4-1.03-2.34-1.74-3.96-2.42-5.51,2.81-3.09,5.35-5.89,7.91-8.69.86-.64,1.72-1.27,2.56-1.87-.09-.08-.19-.17-.28-.25.05.17.1.35.16.52ZM270.42,251.86c1.5-.21,3-.43,4.49-.64-.16-.5-.31-.99-.01-.04-.57-.84-.27-.4.03.04-1.51-.3-3.03-.6-4.54-.9,1.15-1.65,2.3-3.3,3.62-5.2-2.78-2.58-5.01-4.64-9-8.34,2.18,4.1,3.15,5.93,5.21,9.8-8.39,8.17-17,16.55-25.61,24.93l.67.97c7.8-6.32,15.6-12.64,23.4-18.96.58-.56,1.16-1.11,1.73-1.67ZM105.4,225.04c.5-1.32,1-2.64,1.5-3.96.98-.67,1.96-1.33,2.9-1.97-.06.05-.12.1-.18.16-.91.62-1.82,1.25-2.71,1.94-.43,1.34-.86,2.67-1.25,4.05-.36,1.26-.72,2.53-1.08,3.79-2.01,3.42-4.43,6.67-5.97,10.3-7.56,17.89-10.59,36.66-9.62,55.99-4.51,2.03-8.38,3.77-12.05,5.42,9.62,80.51,85.58,147.72,179.05,131.54,90.02-15.58,134.37-99.16,125.83-162.96-3.11-1.53-6.26-3.08-9.41-4.64.63-.44,1.27-.87,1.9-1.31-8.78-15.92-17.57-31.84-26.37-47.74-.9-.17-1.8-.35-2.7-.52-.29-.31-.59-.63-.88-.94.43-.04.86-.08,1.29-.12-.13.33-.27.66-.38.97.96.12,1.93.24,2.89.36.97,3.05,1.65,6.23,2.96,9.12,11.68,25.7,15.62,52.53,10.19,80.19-16.84,85.83-103.27,132.47-184.34,99.84-52.99-21.33-87.88-79.65-80.97-136.5,1.6-13.19,5.53-26.11,8.38-39.15.33-1.29.67-2.58,1-3.87ZM322.12,220.26c-1.13-.1-2.27-.21-3.4-.31-.08-1.79.49-3.97-.33-5.32-8.86-14.71-19.48-27.8-34.81-36.36-1.91-1.06-3.7-2.33-6.94-4.4,3.56-.47,5.15-.79,6.75-.88,20.5-1.14,41.01-2.06,61.49-3.44,8.7-.59,17.43-1.68,25.96-3.44,2.85-.59,5.12-3.95,7.66-6.04-.43-.6-.87-1.21-1.3-1.81-38.78,3.9-77.56,7.8-116.34,11.69-.37,1.01-.75,2.02-1.12,3.03,4.59,2.69,8.94,5.94,13.8,7.99,19.33,8.13,33.48,22.11,45.37,38.84,1.15.11,2.29.22,3.44.33.3.29.59.57.89.86-.44.06-.88.13-1.32.19.09-.32.17-.64.21-.92ZM178.7,311.96c-.14-.13-.29-.26-.43-.39.2.04.4.08.6.11-.16.08-.32.15-.47.23-.22-1.79-.45-3.58-.67-5.37-.56-1.59-1.12-3.17-1.84-5.2,11.85-4.89,23.04-9.51,34.22-14.12-.26-.63-.53-1.26-.79-1.89-12.13,4.74-26.66,2.63-37.54,14.45,2.05,2.32,4.01,4.54,5.96,6.76.34,1.81.67,3.62.97,5.42ZM186.22,247.73c-.38.89-.77,1.79-1.15,2.68h-5.8c-.99,2.32-1.82,4.28-2.64,6.25-.28.44-.56.88-.22.34,0,.62,0,.05,0-.52,3.5.29,7.45-.35,10.43,1.05,8.95,4.2,17.52,9.2,26.23,13.88.43-.67.87-1.33,1.3-2-9.25-6.34-18.5-12.67-27.76-19.01-.14-.89-.28-1.79-.41-2.68-.36.12-.71.24-1.07.36,0-.24,0-.48,0-.71.36.12.72.24,1.08.36ZM422.73,64.14c.08-1.17.15-2.33.23-3.5-.15,0-.29-.01-.44-.02.06,1.17.12,2.33.17,3.5.67,1.91,1.34,3.82,2.02,5.73,2.04,17.49,4.07,34.99,6.16,52.93-12.52,2.49-22.88,4.56-34.16,6.81.94,6.47,1.77,12.24,2.69,18.64,13.03-3.53,25.27-6.85,37.84-10.26-.9-9.36-1.01-17.92-2.67-26.17-2.83-14.03-6.64-27.86-10-41.8-.61-1.95-1.22-3.9-1.84-5.86ZM249.83,324.49l.07-.36c.86,2.21,1.71,4.42,2.57,6.62,1.12.63,2.24,1.26,3.37,1.9,3.2-1.4,6.41-2.81,9.61-4.21-.22-.46-.44-.93-.65-1.39-1.69.56-3.39,1.12-5.58,1.84-7.17-9.86-14.3-19.65-21.42-29.45-.69.42-1.38.83-2.07,1.25,4.7,7.93,9.41,15.86,14.11,23.8ZM208.66,335.15l.2-.09c2.58,1.61,5.17,3.21,7.78,4.82,1.96.09,3.91.17,5.87.26,0-.24-.01-.48-.02-.72-1.97.15-3.94.3-5.9.45-1.07-1.69-2.15-3.37-3.53-5.55,2.79-11.16,5.65-22.65,8.52-34.13-4.66,6.37-8.01,13.29-10.67,20.45-1.73,4.65-2.45,9.67-3.69,14.45-.44-.21-.88-.43-.13-.06-.89-.06-.4-.03.09,0l.75-.11.72.23ZM281.29,297.2c.82.05,1.64.11.3.02,1.12-.57.33-.17-.47.24,2.39-3.77,4.79-7.54,7.18-11.3-.64-.41-1.27-.82-1.91-1.23-1.02,1.59-2.03,3.19-3.24,5.09-11.87-1.04-23.51-2.06-35.16-3.09-.09.57-.19,1.14-.28,1.71,11.17,2.88,22.34,5.77,33.58,8.56ZM370.21,99.84c.09-.93.18-1.86.27-2.78-.17,0-.34,0-.51-.01.09.9.18,1.8.27,2.69v25.46c-3.03,0-5.47.02-7.9,0-63.7-.6-124.18,13.6-181.97,39.86-4.63,2.1-8.62,5.63-12.94,8.45-.5,0-1.01,0-.48,0-.56.26-.11.05.34-.16.54-.1,1.11-.1,1.61-.3,65.06-26.03,132.4-39.56,202.67-37.18,2.27.08,4.56-.41,8.01-.75-3.32-12.43-6.37-23.82-9.38-35.27ZM393.85,356.9c13.79-24.07,18.53-50.32,18.09-77.32,3.25-1.77,5.83-3.18,8.93-4.86-4.9-36.43-17.07-69.82-37.5-100.31-3.05.64-5.45,1.08-7.82,1.66-2.25.55-4.47,1.25-7.28,2.05,2.11,3.71,3.7,6.54,5.33,9.35,23.55,40.43,34.74,83.65,28.44,130.48-1.77,13.17-5.28,26.11-7.99,39.16-.34.24-.67.49-.44.32-.13.28.06-.12.25-.52ZM134.22,309.52c-.33-.76-.66-1.51-.27-.63-.71-.54-.09-.07.53.41,3.99,12.82,7.99,25.65,11.98,38.47.62-.16,1.23-.31,1.85-.47-1.05,2.47-2.11,4.93-3.1,7.25,33.1,40.21,100.8,51.43,148.97,12.85,49.59-39.71,51.49-109.28,19.09-149.41-1.68.97-3.44,1.98-5.02,2.88-31.28-25.89-52.39-35.07-74.84-32.37,5.09.98,9.67,1.55,14.08,2.76,38.04,10.42,62.65,34.77,70.46,73.32,7.76,38.28-4.92,70.79-36.29,94.09-31.39,23.31-65.84,25.12-100.66,7.62-23.68-11.9-38.28-32-46.78-56.77ZM356.21,55.66c-21.67,15.54-45.53,22.15-69.64,28.8-42.39,11.69-85.08,22.85-126.42,37.65-44.13,15.8-77.07,46.71-98.35,88.62-22.28,43.9-20.78,89.19-4.18,134.59,2.91,7.97,6.53,15.67,10.42,24.92-1.8-18.7-4.37-35.46-4.88-52.29-2.39-79.77,41.65-144.66,116.09-173.06,40.33-15.39,82.68-22.79,124.35-32.94,20.09-4.9,39.94-10.78,60.53-16.39-2.81-14.1-5.28-26.54-7.94-39.9ZM39.87,76.35c18.11,26.43,40.16,48.04,64.82,67.19,6.06-4.23,11.62-8.11,15.93-11.12-21.49-22.77-42.77-45.32-64.6-68.44-4.19,3.21-9.95,7.62-16.15,12.37ZM227.06,353.48c-41.06-6-49.52-12.47-70.36-53.08h-8.76c5.39,37.16,47.45,67.35,80.07,61.2-.3-2.59-.61-5.21-.95-8.12ZM229.03,212.34c40.17,9.66,49.51,17.71,65.64,56.04h8.65c-3.65-37.96-45.1-67.56-75.44-64.19.37,2.64.74,5.26,1.14,8.15ZM241.07,459.83c67.38-1.71,139.6-53.53,153.58-131.15-26.93,72.16-76.11,118.24-153.58,131.15ZM202.87,206.85c-29.86,6.75-56.29,38.87-56.23,67.96,1.24.16,2.54.49,3.84.47,1.6-.03,3.19-.36,5.13-.6,5.08-28.8,21.35-48.44,48.82-58.71-.55-3.21-1-5.84-1.56-9.12ZM294.73,294.44c-5.21,25.53-19.86,43.19-43.34,53.97.57,3.16,1.08,5.98,1.59,8.82,25.24-5.43,52.86-40.28,50.67-63.47-1.02-.08-2.09-.29-3.14-.2-1.62.14-3.22.48-5.78.88ZM27.77,86.21c18.77,26.07,40.51,47.84,65.41,66.98,2.19-1.69,4.05-3.13,5.81-4.49-12.03-11.27-23.57-21.36-34.25-32.29-10.66-10.91-20.45-22.67-30.92-34.38-1.79,1.24-3.52,2.42-6.05,4.17ZM244.16,282.65c.07-8.97-6.33-15.75-15.08-15.95-8.91-.21-16.13,7-16.02,16,.11,8.69,6.97,15.46,15.66,15.47,8.84,0,15.36-6.56,15.43-15.52ZM227.93,262.47c.44.03.87.06,1.31.08v-36.76c-4.25-.44-8.12-.84-11.98-1.24-.07.58-.14,1.17-.22,1.75,1.65.48,3.3.95,5.21,1.5,1.91,11.68,3.8,23.17,5.68,34.65ZM385.28,79.31c-.77.13-1.55.26-2.32.39,3.93,23.06,7.87,46.12,11.8,69.18.73-.12,1.46-.25,2.19-.37-3.89-23.07-7.78-46.13-11.66-69.2ZM23,83.23c2.61-2.21,4.56-3.86,6.87-5.81-2.01-2.4-3.65-4.35-5.65-6.73-2.31,1.9-4.25,3.5-6.39,5.25,1.74,2.45,3.1,4.37,5.17,7.28ZM381.3,74.12c.24-.65.35-.95.46-1.26-.18.02-.5.02-.5.05-.03.27,0,.54.04,1.21ZM379.97,67.76l-.36.51.49.16-.12-.66Z"/>
      <path class="cls-1" d="M73.23,20.13c.53-.56,1.07-1.12,1.6-1.68,0,0,.09.1.09.1-.59.5-1.18,1-1.77,1.5l.08.08Z"/>
      <path class="cls-1" d="M242.4,282.2c.17,7.19-6.07,13.57-13.43,13.73-7.08.15-13.92-6.28-14.07-13.23-.14-6.88,6.51-13.65,13.57-13.8,7.21-.16,13.75,6.09,13.92,13.31ZM231.2,289.05c.87-.61,1.74-1.21,2.61-1.82-.37-3.02-.03-6.44-1.42-8.88-.68-1.2-5.31-1.59-6.8-.5-1.59,1.17-2.88,5.47-1.98,6.7,1.6,2.18,4.96,3.07,7.58,4.5Z"/>
      <path class="cls-1" d="M208.66,335.15c-.08-.41-.17-.83-.18-.9.03.06.18.44.36.81.02,0-.18.09-.18.09Z"/>
      <path class="cls-1" d="M254.25,330.99c-.66,0-1.31.01-1.97.02.19-.39.38-.77.69-1.39.48.51.88.94,1.28,1.37Z"/>
      <path class="cls-1" d="M249.83,324.49c-.1-.16-.21-.33-.31-.49.12.05.25.11.38.15,0-.02-.07.34-.07.34Z"/>
      <path class="cls-1" d="M255.87,332.65c-.64-.63-1.28-1.27-1.92-1.9.64.63,1.28,1.27,1.92,1.9Z"/>
      <path class="cls-1" d="M185.9,253.05c.33-.02.67-.05,1-.07-.09-.2-.18-.4-.27-.6-.25.22-.5.44-.75.65,0,0,.01.02.01.02Z"/>
      <path class="cls-1" d="M184.89,250.21c.63,0,1.26-.01,1.89-.02-.29.95-.59,1.91-.88,2.86,0,0-.01-.02-.01-.02-.33-.94-.67-1.88-1-2.82Z"/>
      <path class="cls-1" d="M270.59,252.04c-.62-.01-1.24-.03-1.86-.04.61-.61,1.22-1.22,1.82-1.83.01.62.02,1.25.04,1.87Z"/>
      <path class="cls-1" d="M268.83,251.82c0,.63,0,1.25,0,1.88,0-.63,0-1.25,0-1.88Z"/>
    </g>
  </g>
</svg>