<?xml version="1.0" encoding="UTF-8"?>
<svg id="Camada_2" data-name="Camada 2" xmlns="http://www.w3.org/2000/svg" viewBox="0 0 476.07 220.3">
  <defs>
    <style>
      .cls-1 {
        fill: #fff;
        stroke-width: 0px;
      }
    </style>
  </defs>
  <g id="Camada_1-2" data-name="Camada 1">
    <path class="cls-1" d="M0,220.3c6.22-24.55,12.08-48.61,18.62-72.48.9-3.29,4.76-6.44,8.01-8.33,50.77-29.57,102.33-57.53,155.95-81.79,58.97-26.68,121.16-39.53,184.84-46.7,27.87-3.14,55.93-4.48,83.88-6.92,3.44-.3,6.72-2.35,11.39-4.08,2.18.96,5.42,2.39,7.13,3.14,2.53,4.89,4.28,8.3,6.25,12.1-4.48,58.57-19.53,115.56-38.98,171.08-146.01,11.35-290.65,22.6-437.09,33.98Z"/>
  </g>
</svg>