<svg width="24" height="24" viewBox="0 0 24 24" fill="none" xmlns="http://www.w3.org/2000/svg">
<path d="M11.0769 12.9232V6.46166C11.0769 6.21685 11.1742 5.98206 11.3473 5.80895C11.5204 5.63584 11.7552 5.53859 12 5.53859C12.2448 5.53859 12.4796 5.63584 12.6527 5.80895C12.8258 5.98206 12.9231 6.21685 12.9231 6.46166V12.9232C12.9231 13.168 12.8258 13.4028 12.6527 13.5759C12.4796 13.749 12.2448 13.8463 12 13.8463C11.7552 13.8463 11.5204 13.749 11.3473 13.5759C11.1742 13.4028 11.0769 13.168 11.0769 12.9232ZM24 7.79436V16.2059C24.0008 16.4484 23.9533 16.6887 23.8604 16.9127C23.7675 17.1367 23.631 17.3401 23.4588 17.5109L17.5108 23.459C17.34 23.6311 17.1366 23.7676 16.9126 23.8605C16.6886 23.9534 16.4483 24.0009 16.2058 24.0001H7.79423C7.5517 24.0009 7.31144 23.9534 7.08741 23.8605C6.86338 23.7676 6.66004 23.6311 6.48923 23.459L0.541163 17.5109C0.368986 17.3401 0.232479 17.1367 0.139578 16.9127C0.0466765 16.6887 -0.000765506 16.4484 9.34028e-06 16.2059V7.79436C-0.000765506 7.55183 0.0466765 7.31156 0.139578 7.08753C0.232479 6.8635 0.368986 6.66017 0.541163 6.48936L6.48923 0.541285C6.66004 0.369108 6.86338 0.232601 7.08741 0.1397C7.31144 0.0467986 7.5517 -0.000643436 7.79423 0.000131411H16.2058C16.4483 -0.000643436 16.6886 0.0467986 16.9126 0.1397C17.1366 0.232601 17.34 0.369108 17.5108 0.541285L23.4588 6.48936C23.631 6.66017 23.7675 6.8635 23.8604 7.08753C23.9533 7.31156 24.0008 7.55183 24 7.79436ZM22.1538 7.79436L16.2058 1.84628H7.79423L1.84616 7.79436V16.2059L7.79423 22.154H16.2058L22.1538 16.2059V7.79436ZM12 15.6924C11.7261 15.6924 11.4584 15.7736 11.2307 15.9258C11.0031 16.0779 10.8256 16.2942 10.7208 16.5472C10.616 16.8002 10.5886 17.0786 10.642 17.3472C10.6954 17.6158 10.8273 17.8625 11.0209 18.0561C11.2146 18.2498 11.4613 18.3816 11.7299 18.435C11.9985 18.4885 12.2769 18.4611 12.5299 18.3563C12.7829 18.2515 12.9991 18.074 13.1513 17.8463C13.3034 17.6186 13.3846 17.3509 13.3846 17.077C13.3846 16.7098 13.2387 16.3576 12.9791 16.098C12.7194 15.8383 12.3672 15.6924 12 15.6924Z" fill="#DC801E"/>
</svg>
