<svg width="24" height="24" viewBox="0 0 24 24" fill="none" xmlns="http://www.w3.org/2000/svg">
<path d="M24 7.79448V16.206C24.0008 16.4485 23.9533 16.6888 23.8604 16.9128C23.7675 17.1369 23.631 17.3402 23.4588 17.511L17.5108 23.4591C17.34 23.6313 17.1366 23.7678 16.9126 23.8607C16.6886 23.9536 16.4483 24.001 16.2058 24.0002H7.79423C7.55171 24.001 7.31144 23.9536 7.08741 23.8607C6.86338 23.7678 6.66004 23.6313 6.48923 23.4591L0.541163 17.511C0.368986 17.3402 0.232479 17.1369 0.139578 16.9128C0.0466765 16.6888 -0.000765506 16.4485 9.34028e-06 16.206V7.79448C-0.000765506 7.55195 0.0466765 7.31168 0.139578 7.08765C0.232479 6.86362 0.368986 6.66029 0.541163 6.48948L6.48923 0.541407C6.66004 0.36923 6.86338 0.232723 7.08741 0.139822C7.31144 0.0469207 7.55171 -0.000521365 7.79423 0.000253481H16.2058C16.4483 -0.000521365 16.6886 0.0469207 16.9126 0.139822C17.1366 0.232723 17.34 0.36923 17.5108 0.541407L23.4588 6.48948C23.631 6.66029 23.7675 6.86362 23.8604 7.08765C23.9533 7.31168 24.0008 7.55195 24 7.79448ZM22.1538 7.79448L16.2058 1.84641H7.79423L1.84616 7.79448V16.206L7.79423 22.1541H16.2058L22.1538 16.206V7.79448Z" fill="#F13657"/>
<path d="M16.4209 15.4886C16.5447 15.6124 16.6143 15.7803 16.6143 15.9554C16.6143 16.1305 16.5447 16.2984 16.4209 16.4223C16.2971 16.5461 16.1291 16.6156 15.954 16.6156C15.7789 16.6156 15.611 16.5461 15.4872 16.4223L12 12.9342L8.51172 16.4212C8.3879 16.545 8.21997 16.6145 8.04486 16.6145C7.86975 16.6145 7.70182 16.545 7.578 16.4212C7.45418 16.2973 7.38462 16.1294 7.38462 15.9543C7.38462 15.7792 7.45418 15.6113 7.578 15.4875L11.0663 12.0005L7.5791 8.51245C7.45528 8.38863 7.38572 8.22071 7.38572 8.04561C7.38572 7.87052 7.45528 7.70259 7.5791 7.57878C7.70292 7.45497 7.87085 7.38541 8.04596 7.38541C8.22106 7.38541 8.389 7.45497 8.51282 7.57878L12 11.0668L15.4883 7.57823C15.6121 7.45442 15.78 7.38486 15.9551 7.38486C16.1302 7.38486 16.2982 7.45442 16.422 7.57823C16.5458 7.70204 16.6154 7.86997 16.6154 8.04506C16.6154 8.22016 16.5458 8.38809 16.422 8.5119L12.9337 12.0005L16.4209 15.4886Z" fill="#F13657"/>
</svg>
