<svg width="30" height="30" viewBox="0 0 30 30" fill="none" xmlns="http://www.w3.org/2000/svg">
<path d="M17.5137 1.42468C16.6406 1.44226 16.0137 1.61218 15.5977 1.91687L9.89649 4.9696L6.72657 9.28152C6.0586 10.3128 6.53321 12.305 8.61915 11.0276L10.9043 8.01589C13.8047 5.51453 19.7227 6.66238 16.916 11.6839C15.5391 14.5901 16.1836 16.0081 17.959 16.6057L18.7676 13.887C20.168 10.7346 22.7813 10.1663 22.6758 7.62332L28.957 8.07449L28.8984 1.50671L17.5137 1.42468ZM14.3438 7.48269C13.3242 7.46511 12.3223 7.88699 11.5957 8.49636L9.3047 11.5081C9.93165 12.0061 10.5645 11.7366 11.1914 11.1331C11.9297 11.5081 12.5039 10.928 12.9727 9.76785C13.166 8.97683 13.4531 8.42019 14.3438 7.48269ZM9.6797 13.1077C9.65626 13.1077 9.62696 13.1077 9.60352 13.1136C9.41016 13.1546 9.18165 13.3596 9.02931 13.8284C8.8711 14.2971 8.83595 14.9651 8.97657 15.68C9.1172 16.3889 9.41016 16.9925 9.73829 17.3675C10.0547 17.7366 10.3477 17.8421 10.541 17.801C10.7402 17.7659 10.9629 17.555 11.1152 17.0921C11.2734 16.6233 11.3145 15.9495 11.1738 15.2405C11.0274 14.5257 10.7344 13.9221 10.4121 13.553C10.1309 13.2249 9.87306 13.1077 9.6797 13.1077ZM14.5195 19.3655C14.0566 19.3714 13.4766 19.5178 12.9082 19.7932C12.2578 20.1155 11.7481 20.5608 11.4727 20.971C11.1973 21.3753 11.1738 21.68 11.2617 21.8616C11.3496 22.0374 11.6074 22.2073 12.0996 22.2307C12.5918 22.26 13.2539 22.1253 13.9043 21.803C14.5547 21.4807 15.0645 21.0413 15.3399 20.6311C15.6152 20.2268 15.6387 19.9163 15.5508 19.7405C15.4629 19.5589 15.2051 19.3948 14.7129 19.3714C14.6484 19.3655 14.5899 19.3655 14.5195 19.3655ZM8.80079 24.9671C8.5254 24.9729 8.27345 25.0139 8.05079 25.0784C7.55274 25.2249 7.26563 25.4885 7.17188 25.7991C7.07227 26.1155 7.17188 26.4905 7.50587 26.8948C7.84571 27.2932 8.41407 27.6741 9.1172 27.885C9.81446 28.096 10.4941 28.0901 10.9981 27.9378C11.502 27.7913 11.7891 27.5276 11.8828 27.2171C11.9766 26.9007 11.8828 26.5257 11.543 26.1214C11.209 25.7229 10.6406 25.3421 9.93751 25.1311C9.53907 25.0139 9.15235 24.9612 8.80079 24.9671Z" fill="#B9DC1E"/>
</svg>
