<svg width="24" height="24" viewBox="0 0 24 24" fill="none" xmlns="http://www.w3.org/2000/svg">
<path d="M24 7.79423V16.2058C24.0008 16.4483 23.9533 16.6886 23.8604 16.9126C23.7675 17.1366 23.631 17.34 23.4588 17.5108L17.5108 23.4588C17.34 23.631 17.1366 23.7675 16.9126 23.8604C16.6886 23.9533 16.4483 24.0008 16.2058 24H7.79423C7.55171 24.0008 7.31144 23.9533 7.08741 23.8604C6.86338 23.7675 6.66004 23.631 6.48923 23.4588L0.541163 17.5108C0.368986 17.34 0.232479 17.1366 0.139578 16.9126C0.0466765 16.6886 -0.000765506 16.4483 9.34028e-06 16.2058V7.79423C-0.000765506 7.55171 0.0466765 7.31144 0.139578 7.08741C0.232479 6.86338 0.368986 6.66004 0.541163 6.48923L6.48923 0.541163C6.66004 0.368986 6.86338 0.232479 7.08741 0.139578C7.31144 0.0466765 7.55171 -0.000765506 7.79423 9.34028e-06H16.2058C16.4483 -0.000765506 16.6886 0.0466765 16.9126 0.139578C17.1366 0.232479 17.34 0.368986 17.5108 0.541163L23.4588 6.48923C23.631 6.66004 23.7675 6.86338 23.8604 7.08741C23.9533 7.31144 24.0008 7.55171 24 7.79423ZM22.1538 7.79423L16.2058 1.84616H7.79423L1.84616 7.79423V16.2058L7.79423 22.1538H16.2058L22.1538 16.2058V7.79423Z" fill="#B9DC1E"/>
<path d="M18.2416 8.62936L10.2913 16.4011C10.2221 16.469 10.1398 16.5229 10.0492 16.5597C9.95858 16.5964 9.86145 16.6154 9.76336 16.6154C9.66526 16.6154 9.56813 16.5964 9.47753 16.5597C9.38693 16.5229 9.30465 16.469 9.23541 16.4011L5.75715 13.001C5.68782 12.9332 5.63282 12.8527 5.5953 12.7642C5.55778 12.6756 5.53847 12.5807 5.53847 12.4849C5.53847 12.389 5.55778 12.2941 5.5953 12.2056C5.63282 12.117 5.68782 12.0365 5.75715 11.9688C5.82648 11.901 5.90879 11.8472 5.99937 11.8106C6.08996 11.7739 6.18705 11.755 6.2851 11.755C6.38315 11.755 6.48024 11.7739 6.57082 11.8106C6.66141 11.8472 6.74372 11.901 6.81305 11.9688L9.76398 14.8534L17.1869 7.59839C17.327 7.46151 17.5169 7.38462 17.7149 7.38462C17.9129 7.38462 18.1028 7.46151 18.2428 7.59839C18.3829 7.73527 18.4615 7.92091 18.4615 8.11448C18.4615 8.30805 18.3829 8.4937 18.2428 8.63057L18.2416 8.62936Z" fill="#B9DC1E"/>
</svg>
