<svg width="20" height="20" viewBox="0 0 20 20" fill="none" xmlns="http://www.w3.org/2000/svg">
<path d="M4.13167 12.3868C3.64633 12.0296 3.62233 11.7907 3.98472 11.4266C4.40507 11.0056 4.81488 10.5735 5.25279 10.1718C5.39095 10.0442 5.59762 9.97216 5.78496 9.92298C5.9723 9.8738 6.19477 9.89312 6.39382 9.85389C6.52264 9.83185 6.64361 9.777 6.74509 9.69463C6.99858 9.46687 7.22866 9.21335 7.47396 8.97564C7.72804 8.73031 7.94232 8.72153 8.18586 8.9651C9.47071 10.245 10.7532 11.5276 12.0334 12.813C12.2769 13.0578 12.2676 13.2703 12.027 13.525C11.8929 13.6667 11.7682 13.8242 11.6113 13.9348C11.2015 14.2241 11.0774 14.6287 11.0926 15.0971C11.1025 15.4033 10.9814 15.631 10.7589 15.8389C10.3532 16.2183 9.96971 16.6217 9.5757 17.014C9.21097 17.377 8.97562 17.3542 8.60796 16.8635C8.72096 16.7751 8.85912 16.6937 8.96274 16.5813C9.43871 16.0637 9.45744 15.3102 8.96801 14.8055C8.05823 13.8687 7.13421 12.9446 6.19594 12.0331C5.68309 11.5355 4.92319 11.5618 4.39921 12.0554C4.30235 12.1594 4.21295 12.2702 4.13167 12.3868Z" fill="white"/>
<path d="M11.1687 6.11959C10.9726 5.93925 10.8028 5.79229 10.6418 5.63538C10.294 5.29052 10.2975 5.10842 10.6523 4.75712C11.1148 4.29419 11.5773 3.83203 12.0398 3.37065C12.4151 2.9971 12.6241 3.01057 12.9964 3.4655C12.7172 3.73952 12.4315 4.01471 12.1516 4.29575C11.5287 4.92282 11.5246 5.6828 12.1452 6.30636C12.9906 7.15729 13.8385 8.00549 14.6889 8.85096C15.3136 9.47218 16.0735 9.471 16.6994 8.85096C16.9751 8.57636 17.2415 8.2918 17.5055 8.01837C17.9586 8.2918 18.0049 8.5828 17.6712 8.91829C17.1837 9.40972 16.6943 9.8992 16.2029 10.3867C15.895 10.6924 15.6971 10.6912 15.3868 10.3785C15.2223 10.2128 15.0689 10.0366 14.8693 9.81996C14.6831 10.0208 14.5303 10.1929 14.3693 10.3563C13.9648 10.7661 13.5596 11.176 13.1481 11.5759C12.9139 11.8025 12.6797 11.8101 12.4543 11.5882C11.4372 10.5788 10.4238 9.56527 9.4141 8.54767C9.17992 8.31347 9.1969 8.08278 9.44513 7.83335C10.0019 7.27127 10.5639 6.71973 11.1687 6.11959ZM13.2546 8.88784C13.2253 8.77074 13.2288 8.69814 13.1961 8.66184C12.9145 8.36909 12.644 8.06346 12.3261 7.81813C12.2424 7.75373 11.969 7.84331 11.8478 7.94226C11.6821 8.07692 11.6903 8.30234 11.8378 8.46921C12.0519 8.71994 12.2877 8.95115 12.5427 9.1601C12.6463 9.23973 12.8641 9.245 12.9941 9.19348C13.1129 9.14488 13.1867 8.97743 13.2546 8.88784Z" fill="white"/>
<path d="M15.7041 8.47797C15.573 8.40244 15.4377 8.35677 15.347 8.2666C14.4727 7.40318 13.6032 6.53449 12.7383 5.66053C12.4953 5.41637 12.4988 5.19212 12.7424 4.94797C13.3251 4.35856 13.9105 3.77306 14.4987 3.19146C14.758 2.9356 14.9711 2.9356 15.2317 3.19497C16.0903 4.04786 16.9458 4.90328 17.7982 5.76123C18.0681 6.03232 18.0664 6.2431 17.7982 6.51653C17.2218 7.09774 16.6408 7.67544 16.0554 8.24962C15.9646 8.34037 15.8358 8.39482 15.7041 8.47797Z" fill="white"/>
<path d="M8.478 15.6966C8.40364 15.8196 8.35388 15.9513 8.26372 16.0432C7.67828 16.6424 7.08542 17.2361 6.48515 17.8243C6.24804 18.0585 6.02967 18.0585 5.7955 17.8243C4.91577 16.952 4.03956 16.0758 3.16686 15.196C2.94556 14.9724 2.94439 14.7495 3.16334 14.5274C3.76518 13.9157 4.37228 13.3088 4.98466 12.7065C5.196 12.4992 5.42315 12.4945 5.63333 12.7018C6.53101 13.5867 7.42069 14.477 8.30236 15.3728C8.37906 15.4531 8.41243 15.5743 8.478 15.6966Z" fill="white"/>
</svg>
