<svg width="20" height="20" viewBox="0 0 20 20" fill="none" xmlns="http://www.w3.org/2000/svg">
<path d="M10.6715 17.0532C11.4766 16.6855 12.0508 16.1049 12.2767 15.1724C12.3411 14.8968 12.3734 14.6133 12.3728 14.3288C12.3803 12.0009 12.3603 9.67292 12.3847 7.34497C12.3953 6.31793 11.6638 5.91534 10.9299 6.27891C9.71159 6.88212 8.46024 7.40522 7.22199 7.95982C7.1182 8.00969 7.0101 8.048 6.89933 8.07417C6.11045 8.24397 5.70415 9.01767 5.98999 9.85436C6.37257 10.9725 6.78511 12.0776 7.16146 13.1977C7.37178 13.8242 7.55028 14.4651 7.71629 15.108C7.96219 16.0631 8.51579 16.6794 9.34835 17.0457C8.48333 17.0457 7.61768 17.0525 6.75204 17.0347C6.67215 17.0347 6.59039 16.8759 6.51986 16.7821C6.49864 16.754 6.50676 16.6924 6.513 16.6451C6.63221 15.7406 6.33325 14.9642 5.95941 14.1802C5.17864 12.5459 4.45155 10.8814 3.6895 9.23677C3.5859 9.01288 3.60337 8.88552 3.76377 8.71024C4.99328 7.36756 6.20906 6.00914 7.43919 4.66441C7.60895 4.47817 7.68446 4.28988 7.66761 4.03244C7.65669 3.79317 7.65669 3.55346 7.66761 3.3142C7.67448 3.07045 7.78058 2.94172 8.01899 2.94309C9.35043 2.94811 10.6819 2.94811 12.0133 2.94309C12.238 2.94309 12.3322 3.07045 12.351 3.29571C12.3553 3.32955 12.3553 3.36389 12.351 3.39773C12.1931 4.17828 12.5594 4.68221 13.0481 5.18751C14.1185 6.30219 15.1408 7.47301 16.1943 8.61096C16.404 8.83623 16.4439 9.00945 16.3022 9.31209C15.4372 11.1683 14.6171 13.0478 13.7346 14.8944C13.485 15.4216 13.5131 15.9461 13.5062 16.4863C13.4987 17.0484 13.4912 17.06 12.9813 17.058C12.2093 17.0505 11.4404 17.0532 10.6715 17.0532Z" fill="white" />
<path d="M7.88247 13.3764C7.55044 12.4397 7.244 11.5674 6.93194 10.6835C8.19266 10.6287 8.63453 9.3052 7.89183 8.38771L10.5468 7.1895C10.8464 7.94883 11.136 8.15629 11.7358 8.0529V12.728C11.1366 12.1446 10.4838 11.8112 9.68991 11.9454C8.89604 12.0796 8.3181 12.5527 7.88247 13.3764Z" fill="white" />
<path d="M14.8723 6.22674L14.139 5.41949C14.2014 5.42634 14.2838 5.46399 14.3175 5.43387C14.4236 5.33938 14.5597 5.23257 14.5878 5.10522C14.6052 5.02648 14.4423 4.81217 14.3687 4.81696C14.2439 4.82449 14.1153 4.94294 14.0173 5.0477C13.978 5.08947 14.0173 5.2175 14.0173 5.30651L13.0275 4.27948C13.3089 3.96863 13.5305 3.68311 13.7895 3.44826C13.9481 3.30439 14.1503 3.23115 14.3558 3.24307C14.5613 3.25499 14.7553 3.3512 14.8992 3.51262C15.4742 4.12291 16.0392 4.7437 16.5943 5.37498C16.7469 5.55016 16.832 5.78313 16.832 6.02544C16.832 6.26775 16.7469 6.50072 16.5943 6.6759C16.3933 6.92033 16.1705 7.14285 15.9352 7.39961L14.9522 6.31096C15.1713 6.41161 15.3629 6.35751 15.4178 6.10555C15.4409 5.99874 15.3292 5.82756 15.2375 5.73376C15.1931 5.68789 14.9959 5.71733 14.9703 5.77142C14.906 5.90493 14.9011 6.07268 14.8723 6.22674Z" fill="white" />
<path d="M5.88517 5.41406L5.14496 6.23158C5.1175 6.07752 5.11438 5.90977 5.05197 5.77489C5.02638 5.71943 4.82667 5.68383 4.78922 5.72696C4.69685 5.83172 4.57952 6.00769 4.60198 6.11997C4.65815 6.37673 4.86224 6.39864 5.07194 6.311L4.03778 7.3757C3.81123 7.11209 3.53038 6.83068 3.3057 6.50066C3.08913 6.18365 3.15466 5.67903 3.4249 5.37024C3.98037 4.74169 4.54332 4.11999 5.12187 3.51267C5.46326 3.15184 5.95007 3.1628 6.30332 3.51267C6.52613 3.73314 6.73583 3.96936 6.97737 4.22612L6.01748 5.2737C5.9869 5.14634 5.9869 4.99024 5.917 4.90123C5.87778 4.86163 5.83025 4.83328 5.77864 4.81871C5.72703 4.80414 5.67293 4.80379 5.62116 4.81769C5.57033 4.84878 5.52637 4.89177 5.49239 4.9436C5.45841 4.99543 5.43526 5.05483 5.42457 5.11759C5.41458 5.20865 5.50445 5.35038 5.58621 5.40379C5.66797 5.45719 5.78343 5.41406 5.88517 5.41406Z" fill="white" />
<path d="M3.68649 10.7164L5.26051 14.1658C5.40905 14.4883 5.53387 14.8307 5.70925 15.1402C5.9383 15.5414 5.88962 15.9618 5.87089 16.3849C5.18437 16.4993 5.17126 16.4911 4.88729 15.8673C4.29063 14.5568 3.69772 13.2388 3.08672 11.9338C2.95565 11.6537 2.96189 11.4545 3.18345 11.2491C3.34947 11.0991 3.49926 10.9211 3.68649 10.7164Z" fill="white" />
<path d="M14.1535 16.4377C14.0967 15.9167 14.1354 15.4887 14.3377 15.0594C14.9761 13.7058 15.5859 12.3357 16.21 10.9732C16.2462 10.8944 16.2943 10.8219 16.361 10.6993C16.5639 10.9335 16.7667 11.1327 16.9227 11.3683C16.992 11.471 17.0257 11.6798 16.977 11.788C16.3273 13.2491 15.657 14.7 14.9986 16.157C14.8007 16.5965 14.4569 16.3542 14.1535 16.4377Z" fill="white" />
<path d="M10.0207 12.6006C11.0156 12.6068 11.7514 13.4366 11.7458 14.5451C11.7433 14.796 11.6956 15.0439 11.6052 15.2745C11.5149 15.505 11.3837 15.7136 11.2194 15.8881C11.0551 16.0627 10.8608 16.1997 10.6479 16.2913C10.435 16.3829 10.2076 16.4273 9.9789 16.4219C9.02213 16.4137 8.26633 15.555 8.26945 14.4821C8.27257 13.4092 9.03648 12.5944 10.0207 12.6006ZM10.0107 13.2127C9.69538 13.2124 9.39273 13.349 9.16899 13.5928C8.94524 13.8366 8.81861 14.1677 8.8168 14.5136C8.8168 15.21 9.38786 15.8282 10.0195 15.8145C10.3291 15.803 10.6231 15.6627 10.8417 15.4219C11.0603 15.1812 11.1872 14.8581 11.1965 14.5184C11.1971 14.3472 11.1669 14.1775 11.1075 14.0191C11.0482 13.8607 10.9609 13.7168 10.8508 13.5954C10.7406 13.4741 10.6097 13.3779 10.4655 13.3122C10.3214 13.2465 10.1668 13.2127 10.0107 13.2127Z" fill="white" />
<path d="M7.69014 17.7624H12.3036C12.4384 18.4204 12.0951 18.9682 11.5041 18.9819C10.5055 19.006 9.50819 19.006 8.5121 18.9819C7.93042 18.9688 7.62336 18.4978 7.69014 17.7624Z" fill="white" />
<path d="M8.30502 2.2323C8.1908 1.49283 8.51534 1.02861 9.16817 1.01081C9.71801 0.99506 10.2691 0.997799 10.819 1.01081C11.4949 1.0245 11.8219 1.47571 11.7114 2.23572L8.30502 2.2323Z" fill="white" />
<path d="M7.63463 9.34832C7.63254 9.46938 7.59798 9.58708 7.53527 9.68673C7.47257 9.78637 7.3845 9.86354 7.28205 9.9086C7.17961 9.95366 7.06733 9.96461 6.95925 9.94009C6.85117 9.91556 6.75207 9.85665 6.67432 9.7707C6.59658 9.68475 6.54363 9.57559 6.52211 9.45683C6.50058 9.33807 6.51142 9.21498 6.55328 9.10295C6.59514 8.99091 6.66615 8.89488 6.75746 8.82686C6.84877 8.75883 6.95632 8.72182 7.06668 8.72046C7.14187 8.71953 7.21646 8.73517 7.28604 8.76645C7.35562 8.79773 7.41876 8.84402 7.47173 8.90258C7.52469 8.96113 7.5664 9.03076 7.59439 9.10732C7.62237 9.18389 7.63605 9.26584 7.63463 9.34832ZM7.51792 9.37297C7.31633 9.21275 7.21273 9.07376 7.08853 9.045C7.04779 9.03317 7.00496 9.03306 6.96417 9.04467C6.92339 9.05628 6.88601 9.07922 6.85566 9.11129C6.8253 9.14335 6.80299 9.18345 6.79086 9.22773C6.77874 9.27201 6.77723 9.31896 6.78645 9.36407C6.8058 9.48389 6.96745 9.64616 7.07729 9.65848C7.18714 9.67081 7.30634 9.51744 7.51792 9.37297Z" fill="white" />
<path d="M11.4573 7.53988C11.3325 7.32078 11.1989 7.19001 11.2164 7.09004C11.2364 6.97638 11.3899 6.89011 11.4854 6.79152C11.5715 6.89901 11.7157 6.99692 11.7263 7.11469C11.7376 7.21602 11.5959 7.33379 11.4573 7.53988Z" fill="white" />
<path d="M10.5741 14.511C10.5725 14.6338 10.5377 14.7533 10.4743 14.8545C10.4108 14.9557 10.3215 15.0339 10.2175 15.0795C10.1135 15.125 9.9996 15.1357 9.89008 15.1103C9.78056 15.0849 9.68036 15.0244 9.60212 14.9366C9.52388 14.8487 9.47111 14.7374 9.45046 14.6167C9.42981 14.496 9.44221 14.3713 9.48609 14.2583C9.52998 14.1454 9.60338 14.0492 9.69704 13.9819C9.7907 13.9146 9.90042 13.8793 10.0124 13.8804C10.0875 13.8794 10.162 13.8952 10.2314 13.9267C10.3008 13.9582 10.3637 14.0049 10.4162 14.0638C10.4687 14.1228 10.5098 14.1928 10.5369 14.2697C10.5641 14.3465 10.5767 14.4286 10.5741 14.511Z" fill="white" />
</svg>
