<svg width="17" height="17" viewBox="0 0 17 17" fill="none" xmlns="http://www.w3.org/2000/svg">
<path d="M8.15577 1.51721L7.26327 0.982422L7.09327 2.0088C6.82269 3.62946 5.71556 5.13538 4.4944 6.19363C2.10377 8.26621 1.58031 10.5187 2.32052 12.3781C3.02885 14.1574 4.8266 15.3758 6.65127 15.579L7.07344 15.6258C6.02935 14.9876 5.35927 13.4965 5.59302 12.3823C5.82394 11.2873 6.6116 10.2616 8.1246 9.31526L8.88748 8.83925L9.17223 9.6928C9.3401 10.1971 9.63052 10.6023 9.9259 11.0138C10.0676 11.2122 10.2114 11.4126 10.3431 11.6258C10.7986 12.366 10.919 13.1891 10.625 14.0058C10.3573 14.7482 9.91598 15.3318 9.30752 15.6555L9.9946 15.579C11.7074 15.3885 12.9646 14.8027 13.7814 13.8231C14.591 12.852 14.875 11.6018 14.875 10.2708C14.875 9.03121 14.3657 7.75338 13.7651 6.69017C13.061 5.44492 12.1423 4.41075 11.1393 3.40846C10.9657 3.75555 10.9792 3.8958 10.6222 4.45326C10.1586 3.22214 9.28842 2.18629 8.15577 1.51721Z" fill="#DDDDDD"/>
</svg>
