<svg width="10" height="10" viewBox="0 0 10 10" fill="none" xmlns="http://www.w3.org/2000/svg">
<path d="M9.20353 5.10248C9.20544 5.03368 9.20544 4.96488 9.20353 4.89609L9.91634 4.00555C9.95372 3.9588 9.97959 3.90391 9.99187 3.84533C10.0042 3.78674 10.0025 3.72609 9.98705 3.66826C9.86999 3.22908 9.6952 2.80737 9.46725 2.41415C9.43738 2.3627 9.39591 2.31894 9.34615 2.28635C9.29638 2.25375 9.23969 2.23322 9.1806 2.22639L8.04736 2.10026C8.00022 2.05058 7.95245 2.0028 7.90404 1.95694L7.77026 0.820835C7.76338 0.761695 7.74278 0.70498 7.7101 0.655212C7.67742 0.605444 7.63356 0.563999 7.58203 0.534182C7.18884 0.306412 6.76711 0.131935 6.32792 0.0153399C6.27009 -0.000110681 6.20944 -0.00176171 6.15085 0.0105198C6.09227 0.0228013 6.03738 0.048672 5.99063 0.0860476L5.10248 0.795036C5.03368 0.795036 4.96488 0.795036 4.89609 0.795036L4.00555 0.0836589C3.9588 0.0462833 3.90391 0.0204126 3.84533 0.00813107C3.78674 -0.00415045 3.72609 -0.00249951 3.66826 0.012951C3.22908 0.130014 2.80737 0.304804 2.41415 0.532749C2.3627 0.562621 2.31894 0.60409 2.28635 0.653854C2.25375 0.703619 2.23322 0.760306 2.22639 0.819402L2.10026 1.95455C2.05058 2.00201 2.0028 2.04978 1.95694 2.09788L0.820835 2.2283C0.761695 2.23518 0.70498 2.25578 0.655212 2.28847C0.605444 2.32115 0.563999 2.365 0.534182 2.41654C0.306459 2.80981 0.131833 3.23151 0.0148621 3.67065C-0.000523111 3.72851 -0.0020967 3.78919 0.0102681 3.84777C0.022633 3.90636 0.0485902 3.96123 0.0860476 4.00794L0.795036 4.89609C0.795036 4.96488 0.795036 5.03368 0.795036 5.10248L0.0836589 5.99301C0.0462833 6.03977 0.0204126 6.09465 0.00813107 6.15324C-0.00415045 6.21183 -0.00249951 6.27248 0.012951 6.33031C0.130014 6.76949 0.304804 7.1912 0.532749 7.58442C0.562621 7.63586 0.60409 7.67963 0.653854 7.71222C0.703619 7.74482 0.760306 7.76535 0.819402 7.77218L1.95264 7.8983C2.00009 7.94799 2.04787 7.99576 2.09596 8.04163L2.2283 9.17773C2.23518 9.23687 2.25578 9.29359 2.28847 9.34336C2.32115 9.39312 2.365 9.43457 2.41654 9.46439C2.80981 9.69211 3.23151 9.86673 3.67065 9.9837C3.72851 9.99909 3.78919 10.0007 3.84777 9.9883C3.90636 9.97593 3.96123 9.94998 4.00794 9.91252L4.89609 9.20353C4.96488 9.20544 5.03368 9.20544 5.10248 9.20353L5.99301 9.91634C6.03977 9.95372 6.09465 9.97959 6.15324 9.99187C6.21183 10.0042 6.27248 10.0025 6.33031 9.98705C6.76956 9.8702 7.1913 9.69539 7.58442 9.46725C7.63586 9.43738 7.67963 9.39591 7.71222 9.34615C7.74482 9.29638 7.76535 9.23969 7.77218 9.1806L7.8983 8.04736C7.94799 8.00022 7.99576 7.95245 8.04163 7.90404L9.17773 7.77026C9.23687 7.76338 9.29359 7.74278 9.34336 7.7101C9.39312 7.67742 9.43457 7.63356 9.46439 7.58203C9.69211 7.18876 9.86673 6.76705 9.9837 6.32792C9.99909 6.27005 10.0007 6.20938 9.9883 6.15079C9.97593 6.0922 9.94998 6.03734 9.91252 5.99063L9.20353 5.10248ZM4.99928 6.91031C4.62132 6.91031 4.25184 6.79823 3.93758 6.58824C3.62331 6.37825 3.37837 6.07979 3.23373 5.7306C3.08909 5.38141 3.05124 4.99716 3.12498 4.62646C3.19872 4.25576 3.38073 3.91525 3.64799 3.64799C3.91525 3.38073 4.25576 3.19872 4.62646 3.12498C4.99716 3.05124 5.38141 3.08909 5.7306 3.23373C6.07979 3.37837 6.37825 3.62331 6.58824 3.93758C6.79823 4.25184 6.91031 4.62132 6.91031 4.99928C6.91031 5.50612 6.70897 5.99219 6.35058 6.35058C5.99219 6.70897 5.50612 6.91031 4.99928 6.91031Z" fill="white"/>
</svg>
