<svg width="18" height="16" viewBox="0 0 18 16" fill="none" xmlns="http://www.w3.org/2000/svg">
<path d="M4.5 8.6669H1.28571C1.11522 8.6669 0.951705 8.59667 0.831146 8.47164C0.710586 8.34661 0.642857 8.17704 0.642857 8.00022C0.642857 7.8234 0.710586 7.65383 0.831146 7.5288C0.951705 7.40377 1.11522 7.33353 1.28571 7.33353H4.15607L5.25054 5.63015C5.30922 5.53871 5.38878 5.46371 5.48215 5.41184C5.57551 5.35997 5.67979 5.33283 5.78571 5.33283C5.89163 5.33283 5.99591 5.35997 6.08928 5.41184C6.18265 5.46371 6.26221 5.53871 6.32089 5.63015L8.35714 8.79691L9.10768 7.63021C9.16643 7.53888 9.24603 7.46402 9.33939 7.41226C9.43275 7.36051 9.53699 7.33346 9.64286 7.33353H11.5714C11.7419 7.33353 11.9054 7.40377 12.026 7.5288C12.1466 7.65383 12.2143 7.8234 12.2143 8.00022C12.2143 8.17704 12.1466 8.34661 12.026 8.47164C11.9054 8.59667 11.7419 8.6669 11.5714 8.6669H9.98679L8.89232 10.3703C8.83364 10.4617 8.75408 10.5367 8.66071 10.5886C8.56734 10.6405 8.46306 10.6676 8.35714 10.6676C8.25122 10.6676 8.14694 10.6405 8.05358 10.5886C7.96021 10.5367 7.88065 10.4617 7.82196 10.3703L5.78571 7.20186L5.03518 8.36856C4.97661 8.4602 4.8971 8.53539 4.80372 8.58744C4.71035 8.6395 4.60601 8.66679 4.5 8.6669ZM13.0179 0C11.3585 0 9.90563 0.74002 9 1.99089C8.09437 0.74002 6.64152 0 4.98214 0C3.66125 0.00154399 2.39489 0.546399 1.46088 1.51503C0.52687 2.48366 0.00148881 3.79696 0 5.16681C0 5.22931 0 5.29181 0 5.35431C0.00532801 5.53113 0.0781672 5.69851 0.202494 5.81963C0.32682 5.94075 0.49245 6.00569 0.662946 6.00016C0.833443 5.99464 0.994839 5.9191 1.11163 5.79017C1.22842 5.66123 1.29104 5.48946 1.28571 5.31265C1.28571 5.26431 1.28571 5.21514 1.28571 5.16681C1.28699 4.15052 1.67684 3.17624 2.36978 2.45762C3.06272 1.739 4.00218 1.33469 4.98214 1.33337C6.54509 1.33337 7.85732 2.19673 8.40536 3.58343C8.45379 3.70571 8.53618 3.81029 8.64206 3.8839C8.74794 3.9575 8.87253 3.9968 9 3.9968C9.12747 3.9968 9.25206 3.9575 9.35794 3.8839C9.46382 3.81029 9.54621 3.70571 9.59464 3.58343C10.1427 2.19423 11.4549 1.33337 13.0179 1.33337C13.9978 1.33469 14.9373 1.739 15.6302 2.45762C16.3232 3.17624 16.713 4.15052 16.7143 5.16681C16.7143 9.63443 10.4657 13.6795 9 14.5671C8.12973 14.0412 5.57437 12.4003 3.64179 10.2161C3.5847 10.1515 3.5159 10.0993 3.43933 10.0623C3.36276 10.0253 3.27991 10.0043 3.19552 10.0005C3.11113 9.9967 3.02684 10.0102 2.94747 10.0402C2.8681 10.0702 2.79521 10.1161 2.73295 10.1753C2.67069 10.2345 2.62028 10.3058 2.58461 10.3852C2.54893 10.4646 2.52869 10.5506 2.52503 10.6381C2.52138 10.7256 2.53438 10.813 2.5633 10.8953C2.59221 10.9776 2.63648 11.0532 2.69357 11.1178C5.1983 13.9512 8.55402 15.8413 8.69545 15.9204C8.78906 15.9727 8.8937 16 9 16C9.1063 16 9.21094 15.9727 9.30455 15.9204C9.65973 15.7221 18 11.0003 18 5.16681C17.9985 3.79696 17.4731 2.48366 16.5391 1.51503C15.6051 0.546399 14.3387 0.00154399 13.0179 0Z" fill="white"/>
</svg>
