<svg width="58" height="68" viewBox="0 0 58 68" fill="none" xmlns="http://www.w3.org/2000/svg">
<path d="M30.0114 67.4071C29.3869 67.7732 28.6131 67.7732 27.9886 67.4071L0.988559 51.5794C0.376213 51.2204 -7.6216e-07 50.5638 -7.93186e-07 49.854L-2.17923e-06 18.1449C-2.21026e-06 17.4351 0.376231 16.7785 0.988603 16.4195L27.9886 0.592849C28.6132 0.226744 29.3868 0.226744 30.0114 0.592848L57.0114 16.4195C57.6238 16.7785 58 17.4351 58 18.1449L58 49.854C58 50.5638 57.6238 51.2204 57.0114 51.5794L30.0114 67.4071Z" fill="white" fill-opacity="0.17"/>
<path d="M29.8092 67.062C29.3095 67.3549 28.6905 67.3549 28.1908 67.062L1.19085 51.2343C0.70097 50.9472 0.399999 50.4219 0.399999 49.854L0.399998 18.1449C0.399998 17.5771 0.700984 17.0517 1.19088 16.7646L28.1909 0.937934C28.6905 0.645049 29.3095 0.645049 29.8091 0.937934L56.8091 16.7646C57.299 17.0517 57.6 17.5771 57.6 18.1449L57.6 49.854C57.6 50.4219 57.299 50.9472 56.8092 51.2343L29.8092 67.062Z" stroke="white" stroke-opacity="0.15" stroke-width="0.8"/>
</svg>
