<svg width="17" height="15" viewBox="0 0 17 15" fill="none" xmlns="http://www.w3.org/2000/svg">
<path d="M11.25 0.25H10.6875C10.3891 0.25 10.103 0.368526 9.892 0.579505C9.68103 0.790483 9.5625 1.07663 9.5625 1.375V5.3125H3.88125C3.75072 4.67766 3.4053 4.10723 2.90323 3.69737C2.40115 3.28751 1.77312 3.06329 1.125 3.0625C0.975816 3.0625 0.832742 3.12176 0.727252 3.22725C0.621763 3.33274 0.5625 3.47582 0.5625 3.625C0.5625 3.77418 0.621763 3.91726 0.727252 4.02275C0.832742 4.12824 0.975816 4.1875 1.125 4.1875C1.57255 4.1875 2.00178 4.36529 2.31824 4.68176C2.63471 4.99822 2.8125 5.42745 2.8125 5.875C2.81417 7.36633 3.40735 8.7961 4.46187 9.85063C5.5164 10.9052 6.94617 11.4983 8.4375 11.5H11.25C12.7418 11.5 14.1726 10.9074 15.2275 9.85248C16.2824 8.79758 16.875 7.36684 16.875 5.875C16.875 4.38316 16.2824 2.95242 15.2275 1.89752C14.1726 0.842632 12.7418 0.25 11.25 0.25ZM15.7134 5.3125H11.7288L14.6721 2.95773C15.2421 3.62389 15.6042 4.44261 15.7134 5.3125ZM11.25 1.375C12.1736 1.37413 13.0748 1.6593 13.8298 2.19133L10.6875 4.7043V1.375H11.25ZM11.25 10.375H8.4375C7.3418 10.3737 6.28412 9.97319 5.46234 9.24847C4.64055 8.52374 4.11096 7.52443 3.97266 6.4375H15.7148C15.5765 7.52443 15.0469 8.52374 14.2252 9.24847C13.4034 9.97319 12.3457 10.3737 11.25 10.375ZM7.3125 13.75C7.3125 13.9725 7.24652 14.19 7.1229 14.375C6.99929 14.56 6.82359 14.7042 6.61802 14.7894C6.41245 14.8745 6.18625 14.8968 5.96802 14.8534C5.74979 14.81 5.54934 14.7028 5.392 14.5455C5.23467 14.3882 5.12752 14.1877 5.08412 13.9695C5.04071 13.7512 5.06299 13.525 5.14814 13.3195C5.23328 13.1139 5.37748 12.9382 5.56248 12.8146C5.74749 12.691 5.965 12.625 6.1875 12.625C6.48587 12.625 6.77202 12.7435 6.983 12.9545C7.19397 13.1655 7.3125 13.4516 7.3125 13.75ZM14.625 13.75C14.625 13.9725 14.559 14.19 14.4354 14.375C14.3118 14.56 14.1361 14.7042 13.9305 14.7894C13.725 14.8745 13.4988 14.8968 13.2805 14.8534C13.0623 14.81 12.8618 14.7028 12.7045 14.5455C12.5472 14.3882 12.44 14.1877 12.3966 13.9695C12.3532 13.7512 12.3755 13.525 12.4606 13.3195C12.5458 13.1139 12.69 12.9382 12.875 12.8146C13.06 12.691 13.2775 12.625 13.5 12.625C13.7984 12.625 14.0845 12.7435 14.2955 12.9545C14.5065 13.1655 14.625 13.4516 14.625 13.75Z" fill="white"/>
</svg>
