<svg width="13" height="14" viewBox="0 0 13 14" fill="none" xmlns="http://www.w3.org/2000/svg">
<path d="M12.9036 6.04075C12.9253 5.99951 12.9223 5.9579 12.9135 5.91593C12.8973 5.84118 12.8837 5.76607 12.8678 5.69132C12.7831 5.29182 12.6663 4.90189 12.5094 4.52375C12.1687 3.70191 11.6802 2.97913 11.0466 2.35576C10.6723 1.98755 10.2568 1.67053 9.80443 1.40248C9.49721 1.22021 9.1771 1.0641 8.84445 0.936328C8.34273 0.743757 7.82406 0.613781 7.29029 0.546768C6.88176 0.495587 6.47213 0.489696 6.06177 0.513261C5.69597 0.534249 5.3357 0.595002 4.98022 0.680058C4.51349 0.791992 4.06408 0.953265 3.63382 1.16646C2.9166 1.52177 2.2841 1.9905 1.74002 2.57742C1.1473 3.21662 0.698995 3.94493 0.397298 4.76308C0.215321 5.25684 0.100757 5.76681 0.0366605 6.28855C0.0167684 6.4513 0.0149265 6.61478 0.00608559 6.77826C-0.00607072 7.00324 0.00166511 7.22858 0.0145582 7.45245C0.0373973 7.84532 0.108125 8.23157 0.20427 8.61303C0.344252 9.16902 0.559013 9.69555 0.838977 10.1945C1.0029 10.4865 1.18893 10.7656 1.40075 11.0262C1.58014 11.2472 1.76138 11.467 1.97025 11.6614C2.17433 11.851 2.38283 12.0355 2.60569 12.2034C2.8024 12.3518 3.00906 12.4865 3.2194 12.6139C3.39806 12.7226 3.58409 12.8187 3.77638 12.9022C3.98378 12.9925 4.19227 13.0801 4.40667 13.1519C4.71721 13.2557 5.03253 13.34 5.35523 13.396C5.43074 13.4093 5.43038 13.4111 5.46463 13.3422C5.46279 13.3492 5.46132 13.3562 5.45948 13.3632C5.44585 13.4163 5.44879 13.4203 5.50331 13.4251C5.56115 13.4302 5.61972 13.4325 5.67682 13.442C5.94352 13.4858 6.2128 13.4928 6.48171 13.4995C6.63201 13.5032 6.78157 13.4866 6.93113 13.4829C7.126 13.4781 7.31792 13.4461 7.50984 13.4185C7.71539 13.389 7.9191 13.3456 8.12023 13.2933C8.39099 13.2229 8.65658 13.1368 8.91629 13.0322C9.76797 12.6891 10.5139 12.1879 11.1545 11.5314C11.661 11.0126 12.0696 10.4246 12.379 9.76845C12.6074 9.2839 12.7739 8.77946 12.8774 8.25366C12.9389 7.94105 12.9769 7.62661 12.9923 7.30811C13.0111 6.92334 12.9956 6.54077 12.943 6.15931C12.9374 6.12028 12.9393 6.07941 12.9308 6.03412M10.3025 7.409C10.2045 7.47638 10.091 7.50252 9.97168 7.50215C9.43901 7.50105 8.90597 7.50068 8.37331 7.50031C8.32284 7.50031 8.27237 7.50252 8.2219 7.50105C8.18249 7.49994 8.16775 7.51099 8.16775 7.55517C8.1696 8.18554 8.16702 8.81628 8.16996 9.44664C8.17107 9.65836 8.07014 9.80343 7.88926 9.8918C7.57652 10.045 7.1772 9.85682 7.16946 9.44296C7.16467 9.17969 7.16615 8.91643 7.16615 8.65353C7.16615 8.43923 7.16983 8.22494 7.16725 8.01101C7.16578 7.89576 7.17388 7.78015 7.16946 7.66527C7.16799 7.62661 7.17131 7.58794 7.16946 7.54928C7.16799 7.51504 7.15804 7.50179 7.1201 7.50289C7.03317 7.5051 6.94623 7.50068 6.85929 7.49958C6.83056 7.49921 6.79225 7.48558 6.78267 7.52498C6.77162 7.5699 6.81214 7.61998 6.85487 7.62697C6.91787 7.63728 6.96539 7.6163 6.99817 7.5607C7.00517 7.54855 7.00738 7.53014 7.0328 7.53051C6.99707 7.6163 6.93555 7.65275 6.85193 7.63949C6.81067 7.63287 6.76904 7.59015 6.76389 7.53934C6.76094 7.50694 6.74952 7.49847 6.71894 7.49847C6.43861 7.49958 6.15865 7.49958 5.87832 7.50031C5.85364 7.50031 5.8308 7.497 5.8308 7.53676C5.83227 8.13215 5.83227 8.72717 5.83264 9.32256C5.83264 9.40172 5.83743 9.48125 5.8179 9.55931C5.75491 9.80932 5.51878 9.97281 5.26313 9.94372C5.03327 9.91758 4.8244 9.7228 4.82367 9.44812C4.82182 8.81775 4.82256 8.18701 4.82367 7.55665C4.82367 7.51651 4.81593 7.50399 4.77173 7.50326C4.35694 7.49626 3.94178 7.50326 3.52699 7.49921C3.48979 7.49884 3.49237 7.51909 3.49237 7.54266C3.49237 7.70503 3.4931 7.86704 3.4931 8.02942C3.4931 8.38879 3.4931 8.74853 3.49237 9.10789C3.49237 9.22572 3.50268 9.34318 3.49384 9.461C3.48242 9.60681 3.43343 9.73384 3.31776 9.82552C3.24114 9.88628 3.15457 9.93451 3.05253 9.93893C2.98106 9.94188 2.90923 9.94666 2.8385 9.92457C2.66611 9.87081 2.48487 9.68377 2.4856 9.43523C2.49076 8.17891 2.48781 6.9226 2.48781 5.66629C2.48781 5.29734 2.48781 4.92877 2.48781 4.55983C2.48781 4.34185 2.58543 4.18132 2.78288 4.09295C3.07389 3.9626 3.42901 4.13492 3.48426 4.46189C3.50084 4.55909 3.49715 4.6563 3.49605 4.75461C3.49237 5.06353 3.49273 5.37283 3.4931 5.68175C3.4931 5.93434 3.49642 6.18656 3.49605 6.43915C3.49605 6.48186 3.5071 6.49585 3.55204 6.49548C3.95946 6.49364 4.36651 6.49364 4.77394 6.49548C4.81409 6.49548 4.8244 6.48628 4.8244 6.44541C4.82293 5.81651 4.82256 5.18762 4.82403 4.55873C4.8244 4.3842 4.89476 4.2417 5.03843 4.13971C5.30734 3.94935 5.71623 4.07159 5.81164 4.41365C5.82785 4.47109 5.83301 4.53111 5.83301 4.59076C5.83264 5.13865 5.8319 5.68617 5.83116 6.23406C5.83116 6.30733 5.83411 6.38097 5.83301 6.45424C5.83227 6.48775 5.8459 6.49622 5.87684 6.49475C5.96378 6.48996 6.05072 6.49622 6.13802 6.49069C6.18186 6.48812 6.22864 6.49401 6.27432 6.49401C6.55612 6.49475 6.83793 6.49364 7.11936 6.49511C7.15804 6.49511 7.16725 6.48407 7.16725 6.44614C7.16725 5.82167 7.16946 5.19756 7.16799 4.57309C7.16799 4.39708 7.23024 4.25459 7.36949 4.14707C7.45016 4.08485 7.54152 4.0506 7.6454 4.0506C7.76844 4.0506 7.88005 4.07859 7.97952 4.15517C8.04398 4.20451 8.08598 4.26748 8.12097 4.33817C8.15523 4.40776 8.17107 4.47882 8.1707 4.55799C8.16812 5.18688 8.1696 5.81578 8.16812 6.44467C8.16812 6.48554 8.17844 6.49475 8.21859 6.49475C8.63043 6.49327 9.04227 6.49327 9.45411 6.49475C9.49611 6.49475 9.51084 6.48775 9.51084 6.44062C9.509 5.82866 9.50937 5.21634 9.50974 4.60438C9.50974 4.52006 9.51158 4.43611 9.54584 4.35658C9.6534 4.10767 9.90868 3.99537 10.1699 4.0727C10.3585 4.12829 10.5128 4.32639 10.5121 4.53258C10.5113 4.72847 10.5121 4.92435 10.5121 5.11987C10.5121 5.74876 10.5121 6.37766 10.5121 7.00655C10.5121 7.1774 10.4417 7.3129 10.3028 7.40826L10.3025 7.409Z" fill="white"/>
</svg>
