<svg width="18" height="18" viewBox="0 0 18 18" fill="none" xmlns="http://www.w3.org/2000/svg">
<path d="M15.944 4.85159C15.9099 4.76725 15.8559 4.69245 15.7865 4.6336C15.7171 4.57475 15.6345 4.53361 15.5457 4.5137C15.4569 4.49378 15.3647 4.4957 15.2768 4.51928C15.1889 4.54286 15.1081 4.58741 15.0412 4.64909L12.2076 7.26401L10.9962 7.00385L10.736 5.79237L13.3509 2.95877C13.4126 2.8919 13.4571 2.81107 13.4807 2.7232C13.5043 2.63533 13.5062 2.54306 13.4863 2.45429C13.4664 2.36552 13.4253 2.2829 13.3664 2.21353C13.3076 2.14415 13.2328 2.09008 13.1484 2.05596C12.3799 1.74506 11.5467 1.62768 10.7222 1.71412C9.89762 1.80055 9.10692 2.08817 8.41955 2.5517C7.73217 3.01523 7.16915 3.64048 6.77996 4.37251C6.39077 5.10455 6.18732 5.92096 6.18748 6.75002C6.18657 7.45011 6.3302 8.14285 6.60936 8.78487L2.37584 12.4453C2.3653 12.4538 2.35545 12.4636 2.34561 12.4728C1.9236 12.8948 1.68652 13.4671 1.68652 14.0639C1.68652 14.3594 1.74473 14.6521 1.85781 14.9251C1.9709 15.1981 2.13665 15.4461 2.34561 15.6551C2.55456 15.8641 2.80263 16.0298 3.07564 16.1429C3.34866 16.256 3.64127 16.3142 3.93678 16.3142C4.53359 16.3142 5.10595 16.0771 5.52795 15.6551C5.53709 15.646 5.54694 15.6354 5.55537 15.6256L9.21514 11.3906C9.98607 11.7291 10.8292 11.8699 11.6683 11.8003C12.5073 11.7307 13.3158 11.453 14.0205 10.9922C14.7251 10.5315 15.3038 9.90227 15.704 9.16154C16.1042 8.42081 16.3133 7.59196 16.3125 6.75002C16.3136 6.09934 16.1885 5.45462 15.944 4.85159ZM11.25 10.6875C10.5842 10.6866 9.92941 10.5173 9.34662 10.1953C9.23372 10.133 9.1028 10.1113 8.97582 10.1339C8.84883 10.1566 8.73349 10.2222 8.64912 10.3198L4.71866 14.8718C4.50596 15.0739 4.22274 15.1849 3.92938 15.1811C3.63603 15.1774 3.35574 15.0592 3.14829 14.8517C2.94084 14.6443 2.82264 14.364 2.81888 14.0706C2.81512 13.7773 2.92611 13.494 3.12819 13.2814L7.6767 9.35159C7.77444 9.26718 7.84016 9.15171 7.86283 9.02457C7.88549 8.89743 7.86371 8.76636 7.80116 8.65338C7.44258 8.00485 7.2743 7.26829 7.31567 6.52839C7.35703 5.78848 7.60636 5.07527 8.03499 4.47074C8.46361 3.86621 9.05413 3.39492 9.73866 3.11103C10.4232 2.82715 11.1739 2.7422 11.9046 2.86596L9.71084 5.24323C9.6498 5.30944 9.60556 5.38935 9.58182 5.47622C9.55808 5.56309 9.55555 5.65439 9.57444 5.74245L9.97241 7.59377C9.99517 7.69966 10.048 7.79672 10.1246 7.8733C10.2012 7.94989 10.2982 8.00273 10.4041 8.02549L12.2569 8.42346C12.3449 8.44235 12.4362 8.43982 12.5231 8.41608C12.61 8.39234 12.6899 8.34809 12.7561 8.28706L15.1333 6.09331C15.2281 6.65792 15.1988 7.2364 15.0473 7.78852C14.8959 8.34064 14.626 8.85314 14.2564 9.29038C13.8868 9.72762 13.4264 10.0791 12.9072 10.3204C12.388 10.5617 11.8225 10.6869 11.25 10.6875Z" fill="white"/>
</svg>
