<svg width="12" height="19" viewBox="0 0 12 19" fill="none" xmlns="http://www.w3.org/2000/svg">
<path d="M3.9165 6.25V8.75H8.08317V6.25H3.9165ZM3.2915 0.833332C3.45726 0.833332 3.61623 0.89918 3.73345 1.01639C3.85066 1.1336 3.9165 1.29257 3.9165 1.45833V2.5H9.95817C10.2044 2.5 10.4482 2.5485 10.6757 2.64272C10.9032 2.73695 11.1099 2.87506 11.284 3.04917C11.4581 3.22328 11.5962 3.42998 11.6904 3.65747C11.7847 3.88495 11.8332 4.12877 11.8332 4.375V11.6667C11.8332 11.8239 11.774 11.9753 11.6673 12.0908L10.5832 13.2658V16.4583C10.5832 16.9556 10.3856 17.4325 10.034 17.7842C9.68236 18.1358 9.20545 18.3333 8.70817 18.3333H3.29234C2.79506 18.3333 2.31814 18.1358 1.96651 17.7842C1.61488 17.4325 1.41734 16.9556 1.41734 16.4583V13.265L0.33317 12.09C0.226404 11.9748 0.166903 11.8237 0.166504 11.6667V4.375C0.166504 3.87772 0.364048 3.4008 0.715679 3.04917C1.06731 2.69754 1.54422 2.5 2.0415 2.5H2.6665V1.45833C2.6665 1.29257 2.73235 1.1336 2.84956 1.01639C2.96677 0.89918 3.12574 0.833332 3.2915 0.833332ZM2.6665 5.625V9.375C2.6665 9.72 2.9465 10 3.2915 10H8.70817C8.87393 10 9.0329 9.93415 9.15011 9.81694C9.26732 9.69973 9.33317 9.54076 9.33317 9.375V5.625C9.33317 5.45924 9.26732 5.30027 9.15011 5.18306C9.0329 5.06585 8.87393 5 8.70817 5H3.2915C3.12574 5 2.96677 5.06585 2.84956 5.18306C2.73235 5.30027 2.6665 5.45924 2.6665 5.625Z" fill="#B80100"/>
</svg>
