<svg width="15" height="14" viewBox="0 0 15 14" fill="none" xmlns="http://www.w3.org/2000/svg">
<path d="M14.008 9.92117L10.247 6.80288L13.3644 3.04251C13.4264 2.96769 13.4561 2.87132 13.4471 2.77458C13.4381 2.67784 13.391 2.58864 13.3162 2.52659L10.6823 0.342013C10.6075 0.279976 10.511 0.250202 10.4143 0.259241C10.3175 0.268281 10.2283 0.315392 10.1662 0.390215L7.0482 4.15064L3.28831 1.0326C3.1387 0.908379 2.89644 0.931006 2.77223 1.0808L0.587795 3.71505C0.52576 3.78988 0.495989 3.88629 0.505029 3.98308C0.514068 4.07986 0.561178 4.16909 0.635998 4.23115L4.39646 7.34931L1.27795 11.1103C1.21606 11.1852 1.18638 11.2816 1.19541 11.3783C1.20445 11.4751 1.25146 11.5643 1.32616 11.6264L3.96028 13.8108C4.03511 13.8728 4.13152 13.9026 4.2283 13.8936C4.32508 13.8845 4.41431 13.8374 4.47636 13.7626L7.59468 10.0016L11.3557 13.1199C11.4337 13.1844 11.53 13.2115 11.6237 13.2027C11.7174 13.194 11.8073 13.1495 11.872 13.0717L14.0564 10.4373C14.1184 10.3624 14.1481 10.266 14.1391 10.1692C14.13 10.0724 14.0828 9.9832 14.008 9.92117Z" fill="white"/>
</svg>
