<svg width="20" height="20" viewBox="0 0 20 20" fill="none" xmlns="http://www.w3.org/2000/svg">
<path d="M5.25388 14.5961C5.1628 14.5018 5.11241 14.3755 5.11354 14.2444C5.11468 14.1133 5.16727 13.9879 5.25997 13.8952C5.35268 13.8025 5.47808 13.7499 5.60918 13.7488C5.74028 13.7476 5.86658 13.798 5.96088 13.8891C6.73007 14.6583 7.71006 15.182 8.77693 15.3943C9.8438 15.6065 10.9496 15.4975 11.9546 15.0813C12.9596 14.665 13.8186 13.9601 14.4229 13.0556C15.0273 12.1512 15.3498 11.0879 15.3499 10.0001C15.3558 9.8715 15.411 9.75012 15.5042 9.66123C15.5973 9.57235 15.7211 9.52282 15.8499 9.52295C15.9786 9.52308 16.1023 9.57286 16.1953 9.66193C16.2882 9.75099 16.3433 9.87248 16.3489 10.0011C16.3488 11.2866 15.9675 12.5433 15.2533 13.6121C14.5391 14.681 13.5239 15.514 12.3363 16.0059C11.1486 16.4979 9.84173 16.6266 8.5809 16.3758C7.32008 16.1251 6.16192 15.5061 5.25288 14.5971" fill="white" fill-opacity="0.6"/>
<path d="M13.1308 12.4161C13.0205 12.4897 12.8855 12.5164 12.7554 12.4904C12.6253 12.4645 12.5109 12.3879 12.4373 12.2776C12.3637 12.1672 12.337 12.0322 12.363 11.9021C12.3889 11.7721 12.4655 11.6577 12.5758 11.5841L15.5758 9.58406C15.6305 9.54762 15.6917 9.5223 15.7562 9.50953C15.8206 9.49677 15.8869 9.49682 15.9513 9.50968C16.0157 9.52254 16.0769 9.54796 16.1315 9.58449C16.186 9.62101 16.2329 9.66793 16.2693 9.72256C16.3058 9.77719 16.3311 9.83846 16.3439 9.90288C16.3566 9.9673 16.3566 10.0336 16.3437 10.098C16.3309 10.1624 16.3054 10.2236 16.2689 10.2782C16.2324 10.3328 16.1855 10.3796 16.1308 10.4161L13.1308 12.4161Z" fill="white" fill-opacity="0.6"/>
<path d="M18.2658 12.7229C18.3045 12.7775 18.3319 12.8393 18.3463 12.9046C18.3607 12.9699 18.3618 13.0375 18.3496 13.1032C18.3374 13.169 18.3121 13.2317 18.2753 13.2875C18.2384 13.3433 18.1908 13.3912 18.1351 13.4283C18.0794 13.4654 18.0168 13.4909 17.9511 13.5034C17.8854 13.5158 17.8178 13.515 17.7525 13.5009C17.6871 13.4867 17.6252 13.4596 17.5704 13.4212C17.5157 13.3827 17.4693 13.3337 17.4338 13.2769L15.4338 10.2769C15.365 10.1666 15.3418 10.0337 15.3692 9.9066C15.3967 9.77946 15.4726 9.66802 15.5808 9.59593C15.6891 9.52384 15.8212 9.49678 15.9491 9.52049C16.077 9.54419 16.1906 9.6168 16.2658 9.72291L18.2658 12.7229ZM14.3538 5.20491C14.4476 5.29879 14.5002 5.42608 14.5001 5.55876C14.5 5.69144 14.4472 5.81865 14.3533 5.91241C14.3068 5.95883 14.2517 5.99564 14.191 6.02074C14.1302 6.04584 14.0652 6.05873 13.9995 6.05869C13.8668 6.05859 13.7396 6.00579 13.6458 5.91191C12.8766 5.14269 11.8965 4.61888 10.8295 4.40671C9.76257 4.19453 8.65665 4.30354 7.65164 4.71993C6.64663 5.13632 5.78767 5.84139 5.18339 6.74599C4.57912 7.65058 4.25667 8.71405 4.25684 9.80191C4.2567 9.93452 4.2039 10.0616 4.11004 10.1553C4.01617 10.249 3.88894 10.3015 3.75634 10.3014C3.62373 10.3013 3.4966 10.2485 3.40293 10.1546C3.30925 10.0607 3.2567 9.93352 3.25684 9.80091C3.25672 8.51518 3.6379 7.2583 4.35219 6.18923C5.06647 5.12017 6.08176 4.28696 7.26964 3.79498C8.45752 3.303 9.76462 3.17436 11.0256 3.42533C12.2866 3.6763 13.4448 4.2956 14.3538 5.20491Z" fill="white" fill-opacity="0.6"/>
<path d="M6.47598 7.38484C6.53061 7.3484 6.59188 7.32308 6.6563 7.31032C6.72072 7.29755 6.78702 7.2976 6.85141 7.31046C6.91581 7.32333 6.97705 7.34874 7.03162 7.38527C7.08619 7.4218 7.13304 7.46871 7.16948 7.52334C7.20592 7.57797 7.23125 7.63925 7.24401 7.70366C7.25677 7.76808 7.25672 7.83438 7.24386 7.89878C7.231 7.96318 7.20558 8.02441 7.16905 8.07898C7.13253 8.13356 7.08561 8.1804 7.03098 8.21684L4.03098 10.2168C3.97635 10.2533 3.91508 10.2786 3.85066 10.2914C3.78624 10.3041 3.71994 10.3041 3.65555 10.2912C3.59115 10.2784 3.52991 10.2529 3.47534 10.2164C3.42077 10.1799 3.37392 10.133 3.33748 10.0783C3.30104 10.0237 3.27571 9.96244 3.26295 9.89802C3.25019 9.83361 3.25024 9.76731 3.2631 9.70291C3.27596 9.63851 3.30138 9.57728 3.33791 9.5227C3.37443 9.46813 3.42135 9.42129 3.47598 9.38484L6.47598 7.38484Z" fill="white" fill-opacity="0.6"/>
<path d="M1.34091 7.07778C1.30221 7.02321 1.27486 6.96143 1.26048 6.8961C1.24609 6.83077 1.24496 6.76322 1.25715 6.69744C1.26935 6.63167 1.29461 6.56901 1.33146 6.51318C1.3683 6.45734 1.41598 6.40947 1.47166 6.3724C1.52734 6.33532 1.5899 6.30979 1.65562 6.29733C1.72134 6.28487 1.7889 6.28572 1.85429 6.29983C1.91968 6.31395 1.98157 6.34104 2.0363 6.37951C2.09103 6.41798 2.13748 6.46704 2.17291 6.52378L4.17291 9.52378C4.24179 9.63411 4.26497 9.76694 4.23752 9.89408C4.21007 10.0212 4.13416 10.1327 4.0259 10.2048C3.91763 10.2768 3.78554 10.3039 3.65765 10.2802C3.52976 10.2565 3.41614 10.1839 3.34091 10.0778L1.34091 7.07778Z" fill="white" fill-opacity="0.6"/>
</svg>
