<svg width="28" height="18" viewBox="0 0 28 18" fill="none" xmlns="http://www.w3.org/2000/svg">
<path d="M17.6925 0.0905692C17.5721 0.21922 10.46 14.4512 10.2959 14.8908C9.89654 15.9736 10.3944 17.1475 11.4776 17.6675C11.7511 17.7961 11.8332 17.8122 12.3858 17.8122C12.9711 17.8122 12.9985 17.8069 13.4033 17.6085C13.8684 17.3887 14.1857 17.0778 14.4154 16.6383C14.5084 16.456 15.1048 14.017 16.4342 8.37246C17.4682 3.97153 18.3161 0.331789 18.3161 0.283545C18.3161 0.0369647 17.873 -0.102407 17.6925 0.0905692ZM12.9274 14.6174C13.7206 14.9712 13.8027 16.0165 13.0751 16.5043C12.9164 16.6115 12.8125 16.6329 12.4897 16.6329C12.1505 16.6329 12.0685 16.6115 11.866 16.4828C11.5487 16.2791 11.3408 15.8449 11.3901 15.4965C11.4503 15.0623 11.7894 14.6495 12.1669 14.5531C12.3967 14.4995 12.7195 14.5209 12.9274 14.6174Z" fill="white" fill-opacity="0.5"/>
<path d="M13.4799 2.12218C13.4362 2.19186 13.3158 5.16155 13.3486 5.25268C13.3815 5.32237 13.7644 5.41349 14.12 5.42958C14.1419 5.42958 14.5194 4.71664 14.9516 3.84824C15.5151 2.72791 15.723 2.26155 15.6737 2.23475C15.4713 2.12754 13.5401 2.02569 13.4799 2.12218Z" fill="white" fill-opacity="0.5"/>
<path d="M11.2478 2.24011C9.32757 2.57246 7.65897 3.23179 5.99583 4.3146C5.62382 4.55583 5.45969 4.6952 5.45969 4.77024C5.45969 4.87209 6.62498 6.5928 6.71798 6.62496C6.74534 6.63568 7.07359 6.49631 7.44013 6.31941C8.81331 5.66008 10.5476 5.24196 11.9153 5.24196C12.1724 5.24196 12.2545 5.22052 12.2818 5.15083C12.3365 5.01146 12.145 2.28836 12.0739 2.20795C11.9973 2.11682 11.9754 2.11682 11.2478 2.24011Z" fill="white" fill-opacity="0.5"/>
<path d="M18.0207 4.85065C17.78 5.87449 17.583 6.73753 17.583 6.75897C17.5721 6.83401 18.3654 7.34862 18.442 7.31645C18.5186 7.28965 20.5592 4.25564 20.5975 4.11091C20.6139 4.0573 20.5592 3.9769 20.4607 3.90721C20.2528 3.76248 18.7757 3.06026 18.5897 3.01738L18.4529 2.98521L18.0207 4.85065Z" fill="white" fill-opacity="0.5"/>
<path d="M20.5099 6.36766C19.8097 7.19316 19.2298 7.9061 19.2134 7.94899C19.1915 7.99187 19.3392 8.20093 19.5854 8.46895C20.116 9.05324 20.4443 9.48208 20.789 10.0235C21.1281 10.5542 21.5932 11.5083 21.7573 12.0068C21.8229 12.1998 21.9105 12.3928 21.9542 12.425C22.0144 12.4732 22.5123 12.2963 24.2356 11.6209C25.4501 11.1438 26.4786 10.7203 26.5224 10.6775C26.5935 10.6131 26.5661 10.5381 26.3364 10.0771C25.8221 9.06396 25.1164 8.00259 24.3614 7.12348C23.6064 6.24973 22.0855 4.86673 21.8667 4.86673C21.8175 4.86673 21.2485 5.4939 20.5099 6.36766Z" fill="white" fill-opacity="0.5"/>
<path d="M3.81297 6.13715C2.8884 7.07523 2.19361 8.01867 1.55899 9.20869C1.14321 9.99668 0.683661 11.0902 0.711015 11.2564C0.721957 11.3422 0.842315 11.4118 1.26904 11.5726C1.56994 11.6906 1.86536 11.7817 1.92554 11.7817C2.01307 11.7817 2.10061 11.6638 2.3085 11.2671C3.03612 9.89483 4.05369 8.67801 5.35575 7.622C5.59646 7.42366 5.78794 7.23605 5.777 7.19316C5.76606 7.15564 5.5144 6.83937 5.21351 6.49094C4.57889 5.76192 4.44212 5.61719 4.37647 5.61719C4.34912 5.61719 4.09746 5.85305 3.81297 6.13715Z" fill="white" fill-opacity="0.5"/>
<path d="M24.6404 12.6715C23.3493 13.0361 22.2661 13.3577 22.2387 13.3845C22.2004 13.422 22.2059 13.5935 22.2497 13.883C22.4247 15.0194 22.3864 16.4024 22.1457 17.5281L22.0527 17.9998H24.9905C27.622 17.9998 27.9339 17.9891 27.9667 17.9141C28.0214 17.7801 28.005 16.4185 27.9448 15.7484C27.8573 14.8479 27.6931 13.8884 27.4852 13.095C27.2719 12.2802 27.157 11.9961 27.0585 12.0015C27.0202 12.0068 25.9315 12.307 24.6404 12.6715Z" fill="white" fill-opacity="0.5"/>
<path d="M0.328057 12.5965C0.256937 12.6876 0.114695 13.5399 0.0381037 14.3547C-0.0384879 15.1427 0.00527869 16.5471 0.125637 17.3459C0.169404 17.6514 0.218641 17.9248 0.235053 17.9516C0.284291 18.0266 0.864199 18.0105 0.869669 17.9301C0.869669 17.898 0.869669 17.5603 0.864199 17.1904C0.864199 16.8205 0.886082 16.2416 0.918907 15.9039C0.990028 15.1856 1.24716 13.8723 1.41128 13.422C1.53164 13.0736 1.54805 12.8806 1.46599 12.827C1.41128 12.7948 0.486712 12.5322 0.421062 12.5322C0.399178 12.5322 0.360882 12.5643 0.328057 12.5965Z" fill="white" fill-opacity="0.5"/>
</svg>
