<svg width="10" height="10" viewBox="0 0 10 10" fill="none" xmlns="http://www.w3.org/2000/svg">
<path d="M5 0C6.32608 0 7.59785 0.526784 8.53553 1.46447C9.47322 2.40215 10 3.67392 10 5C10 6.32608 9.47322 7.59785 8.53553 8.53553C7.59785 9.47321 6.32608 10 5 10C3.67392 10 2.40215 9.47321 1.46447 8.53553C0.526784 7.59785 0 6.32608 0 5C0 3.67392 0.526784 2.40215 1.46447 1.46447C2.40215 0.526784 3.67392 0 5 0ZM5.74995 3.06978C6.12135 3.06978 6.42276 2.81194 6.42276 2.42983C6.42276 2.04771 6.12063 1.78987 5.74995 1.78987C5.37854 1.78987 5.07857 2.04771 5.07857 2.42983C5.07857 2.81194 5.37854 3.06978 5.74995 3.06978ZM5.88065 7.08878C5.88065 7.01236 5.90708 6.8138 5.89208 6.70095L5.30498 7.37662C5.18356 7.50446 5.03143 7.59303 4.96 7.56946C4.9276 7.55753 4.90052 7.53443 4.88363 7.50432C4.86674 7.47421 4.86115 7.43905 4.86787 7.40518L5.84637 4.31398C5.92636 3.92186 5.70638 3.56403 5.23998 3.51832C4.74788 3.51832 4.02364 4.01757 3.58296 4.6511C3.58296 4.7268 3.56867 4.91536 3.58367 5.02821L4.17006 4.35183C4.29148 4.22541 4.4329 4.13613 4.50432 4.16042C4.53951 4.17305 4.56835 4.19897 4.58464 4.23262C4.60093 4.26627 4.60338 4.30497 4.59146 4.3404L3.62153 7.41661C3.50939 7.77659 3.72152 8.12942 4.23577 8.20941C4.99286 8.20941 5.43997 7.72231 5.88137 7.08878H5.88065Z" fill="white"/>
</svg>
