<svg width="26" height="13" viewBox="0 0 26 13" fill="none" xmlns="http://www.w3.org/2000/svg">
<path d="M6.89433 12.2555C7.04091 12.2364 7.18731 12.216 7.33315 12.1923C7.8621 12.102 8.3891 11.9994 8.90304 11.825C9.19795 11.7317 9.49318 11.6396 9.79143 11.5641C10.112 11.4829 10.1359 11.4881 10.4645 11.4177C10.5802 11.393 10.6954 11.3657 10.8109 11.3397C11.4511 11.1846 12.0833 10.9824 12.7352 10.8939C13.4118 10.8049 14.0895 10.722 14.7718 10.67C15.4761 10.6165 16.1803 10.5631 16.8864 10.5219C17.6982 10.452 18.5065 10.36 19.3078 10.2243C20.0453 10.0838 20.7822 9.93804 21.5042 9.71121C22.1011 9.54252 22.6958 9.36325 23.2887 9.1734C23.4513 9.12001 23.6139 9.06635 23.7847 9.05964C24.1066 9.01542 24.0898 8.25998 23.8972 7.80158C24.0806 7.78262 24.2643 7.76598 24.4481 7.74968C24.7403 7.72383 25.0314 7.69129 25.3227 7.65959C25.6285 7.61762 25.6275 6.93454 25.4614 6.47359C25.7438 6.21009 25.5764 5.21388 25.2707 4.97453C25.2688 4.86553 25.2558 4.75136 25.2342 4.63924C25.2615 4.6376 25.2887 4.63616 25.3159 4.63395C25.3667 4.62922 25.4174 4.6242 25.4684 4.62101C25.9355 4.57177 25.7027 3.02487 25.2437 3.0173C25.2215 2.62111 25.2105 2.22464 25.1324 1.83034C25.1053 1.69352 25.0087 1.7589 24.948 1.74248C24.8773 1.72329 24.6611 1.75975 24.612 1.76949C24.458 1.80008 24.2996 1.84754 24.146 1.89324C24.0601 1.90596 23.974 1.91786 23.8883 1.93135C24.0629 1.50067 23.8206 0.456767 23.437 0.509426L23.4369 0.50927C23.1181 0.566437 22.7979 0.614645 22.4761 0.653647C22.3823 0.664001 22.2884 0.673296 22.1947 0.684424C21.6988 0.743476 21.9652 0.721606 21.4305 0.768322C21.012 0.804869 20.5914 0.827395 20.1715 0.854734C19.6005 0.910765 19.033 0.993474 18.4765 1.13699C18.2189 1.20362 17.878 1.31443 17.6231 1.39472C16.8716 1.63235 16.1185 1.86166 15.3702 2.11561C15.1667 2.18763 14.9609 2.24649 14.7542 2.30067C14.2418 2.31473 13.7302 2.33348 13.2178 2.34726C12.9944 2.36347 12.6929 2.38352 12.4726 2.40675C11.9209 2.46494 11.3782 2.57851 10.8337 2.68002C10.0676 2.83186 9.30391 2.99921 8.5312 3.11165C8.15203 3.14902 7.77271 3.18557 7.39261 3.21697C7.34533 3.22016 7.29806 3.22335 7.25078 3.2265C7.21069 3.20681 7.16582 3.17693 7.16085 3.23211C6.97642 3.24016 6.87787 3.20671 6.97409 3.67612C6.4941 3.75484 6.01358 3.83065 5.5297 3.8853C5.37846 3.89181 5.2272 3.89824 5.07568 3.90275C4.66309 3.90694 4.24674 3.88411 3.83226 3.87434C3.55972 3.86931 3.28882 3.87654 3.01992 3.89704C2.96146 3.89775 2.93969 3.90039 2.6227 3.91679C2.54297 3.92089 2.46288 3.92273 2.38312 3.92663C2.33332 3.92903 2.22975 3.8211 2.23406 3.93582C2.23407 3.93595 2.23404 3.93602 2.23405 3.93614C2.08222 3.87375 2.09348 3.90765 2.25236 4.49418C2.25292 4.51367 2.25327 4.52645 2.25376 4.54528C2.10747 4.55322 1.96112 4.56049 1.81532 4.57179C1.79848 4.57294 1.59889 4.59043 1.5725 4.59389C1.27524 4.63322 1.13679 4.67315 1.42626 6.02458C1.32806 6.03254 1.27628 6.03356 1.2764 6.12338C1.24534 6.13988 1.21413 6.15582 1.18332 6.17332C1.13291 6.20197 1.08567 6.24339 1.03681 6.27839C0.985164 6.41607 0.869199 6.47945 0.881871 6.69142C0.910475 7.17002 0.977286 7.46006 1.07433 7.65437C0.913656 7.81124 0.907757 8.24593 1.00011 8.61479C0.670342 8.88036 0.92263 10.2275 1.35655 10.1687C1.47219 10.1518 1.58803 10.1362 1.70396 10.121C1.82902 10.1049 1.9541 10.0889 2.079 10.0717C2.08211 10.0894 2.08513 10.1059 2.08818 10.1242C2.01681 10.1542 1.9662 10.2254 1.93366 10.3219C1.82627 10.2411 1.71316 10.264 1.62421 10.46C1.74617 10.968 1.84792 11.4917 1.99014 11.9839C2.00588 12.0384 2.03918 11.9827 2.06344 11.9803C2.17898 11.9688 2.29223 11.9421 2.40781 11.9308C2.63492 11.8976 2.86209 11.8651 3.08943 11.8334C3.13858 12.2652 3.32991 12.7147 3.58485 12.6794L3.70393 12.6611C3.86813 12.6353 4.03289 12.6126 4.19713 12.587C4.65378 12.5178 5.11129 12.454 5.57081 12.4026C6.01173 12.3525 6.45413 12.3116 6.89398 12.2548L6.89433 12.2555ZM18.4504 8.77946C17.9678 8.84788 17.4826 8.90041 16.9961 8.94447C17.0502 8.9246 17.1064 8.90243 17.1566 8.88615C17.4863 8.77968 17.8248 8.72106 18.1664 8.68406C18.5937 8.62614 19.0202 8.56394 19.4477 8.50744C19.7893 8.46235 20.1309 8.41764 20.4724 8.37178C19.9996 8.49226 19.5239 8.59611 19.0458 8.68669C18.8478 8.72023 18.6493 8.75102 18.4504 8.77931L18.4504 8.77946ZM3.20028 9.97223C3.02084 9.99542 2.84156 10.0196 2.66218 10.0432C2.60741 10.0498 2.55273 10.0571 2.4981 10.0646C2.78854 9.96097 3.07904 9.85749 3.37061 9.75967C3.60445 9.72644 3.83838 9.69403 4.07161 9.65706C4.36878 9.61063 4.66581 9.56313 4.96258 9.51422C4.76619 9.56435 4.57375 9.63542 4.38244 9.71215C4.1929 9.79416 3.99735 9.845 3.79958 9.88321C3.60061 9.91779 3.40052 9.94541 3.2003 9.97238L3.20028 9.97223ZM1.34228 6.44537C1.33504 6.44001 1.32779 6.43491 1.32061 6.42812C1.31945 6.42706 1.31702 6.41981 1.31836 6.42055C1.32612 6.42586 1.33705 6.42562 1.34153 6.44219C1.34184 6.44339 1.34225 6.44416 1.34246 6.44538L1.34228 6.44537ZM18.5377 3.15867C18.4946 3.0285 18.4443 2.90028 18.3931 2.77408C18.5097 2.73894 18.6262 2.70423 18.7485 2.67257C19.2909 2.53212 19.8438 2.45024 20.4007 2.39707C20.7837 2.3722 21.1669 2.34821 21.5495 2.3205C21.1267 2.40614 20.7054 2.5008 20.2871 2.61208C19.7821 2.76228 19.2816 2.93548 18.7769 3.08724C18.6973 3.11199 18.6174 3.13487 18.5377 3.15873L18.5377 3.15867ZM24.9215 1.77937C24.9214 1.77813 24.9214 1.77772 24.9213 1.77689C24.9295 1.77636 24.9537 1.77273 24.9458 1.77489C24.9377 1.77661 24.9297 1.77842 24.9216 1.77978L24.9215 1.77937Z" fill="#9747FF"/>
</svg>
