<svg width="10" height="10" viewBox="0 0 10 10" fill="none" xmlns="http://www.w3.org/2000/svg">
<path d="M9.64286 4.64286H9.27054C9.18483 3.63368 8.74501 2.68732 8.02884 1.97116C7.31268 1.25499 6.36632 0.815166 5.35714 0.729464V0.357143C5.35714 0.262423 5.31952 0.171582 5.25254 0.104605C5.18556 0.0376274 5.09472 0 5 0C4.90528 0 4.81444 0.0376274 4.74746 0.104605C4.68048 0.171582 4.64286 0.262423 4.64286 0.357143V0.729464C3.63368 0.815166 2.68732 1.25499 1.97116 1.97116C1.25499 2.68732 0.815166 3.63368 0.729464 4.64286H0.357143C0.262423 4.64286 0.171582 4.68048 0.104605 4.74746C0.0376274 4.81444 0 4.90528 0 5C0 5.09472 0.0376274 5.18556 0.104605 5.25254C0.171582 5.31952 0.262423 5.35714 0.357143 5.35714H0.729464C0.815166 6.36632 1.25499 7.31268 1.97116 8.02884C2.68732 8.74501 3.63368 9.18483 4.64286 9.27054V9.64286C4.64286 9.73758 4.68048 9.82842 4.74746 9.8954C4.81444 9.96237 4.90528 10 5 10C5.09472 10 5.18556 9.96237 5.25254 9.8954C5.31952 9.82842 5.35714 9.73758 5.35714 9.64286V9.27054C6.36632 9.18483 7.31268 8.74501 8.02884 8.02884C8.74501 7.31268 9.18483 6.36632 9.27054 5.35714H9.64286C9.73758 5.35714 9.82842 5.31952 9.8954 5.25254C9.96237 5.18556 10 5.09472 10 5C10 4.90528 9.96237 4.81444 9.8954 4.74746C9.82842 4.68048 9.73758 4.64286 9.64286 4.64286ZM5.35714 8.55357V8.21429C5.35714 8.11957 5.31952 8.02872 5.25254 7.96175C5.18556 7.89477 5.09472 7.85714 5 7.85714C4.90528 7.85714 4.81444 7.89477 4.74746 7.96175C4.68048 8.02872 4.64286 8.11957 4.64286 8.21429V8.55357C3.8236 8.46998 3.05826 8.10635 2.47595 7.52405C1.89365 6.94174 1.53002 6.1764 1.44643 5.35714H1.78571C1.88043 5.35714 1.97128 5.31952 2.03825 5.25254C2.10523 5.18556 2.14286 5.09472 2.14286 5C2.14286 4.90528 2.10523 4.81444 2.03825 4.74746C1.97128 4.68048 1.88043 4.64286 1.78571 4.64286H1.44643C1.53002 3.8236 1.89365 3.05826 2.47595 2.47595C3.05826 1.89365 3.8236 1.53002 4.64286 1.44643V1.78571C4.64286 1.88043 4.68048 1.97128 4.74746 2.03825C4.81444 2.10523 4.90528 2.14286 5 2.14286C5.09472 2.14286 5.18556 2.10523 5.25254 2.03825C5.31952 1.97128 5.35714 1.88043 5.35714 1.78571V1.44643C6.1764 1.53002 6.94174 1.89365 7.52405 2.47595C8.10635 3.05826 8.46998 3.8236 8.55357 4.64286H8.21429C8.11957 4.64286 8.02872 4.68048 7.96175 4.74746C7.89477 4.81444 7.85714 4.90528 7.85714 5C7.85714 5.09472 7.89477 5.18556 7.96175 5.25254C8.02872 5.31952 8.11957 5.35714 8.21429 5.35714H8.55357C8.46998 6.1764 8.10635 6.94174 7.52405 7.52405C6.94174 8.10635 6.1764 8.46998 5.35714 8.55357ZM5 3.21429C4.64682 3.21429 4.30157 3.31902 4.00791 3.51523C3.71425 3.71145 3.48537 3.99034 3.35021 4.31664C3.21506 4.64293 3.1797 5.00198 3.2486 5.34838C3.3175 5.69477 3.48757 6.01295 3.73731 6.26269C3.98705 6.51243 4.30523 6.6825 4.65162 6.7514C4.99802 6.8203 5.35707 6.78494 5.68336 6.64979C6.00966 6.51463 6.28855 6.28575 6.48477 5.99209C6.68098 5.69843 6.78571 5.35318 6.78571 5C6.78571 4.5264 6.59758 4.0722 6.26269 3.73731C5.9278 3.40242 5.4736 3.21429 5 3.21429ZM5 6.07143C4.78809 6.07143 4.58094 6.00859 4.40475 5.89086C4.22855 5.77313 4.09122 5.6058 4.01013 5.41002C3.92904 5.21424 3.90782 4.99881 3.94916 4.79097C3.9905 4.58314 4.09254 4.39223 4.24239 4.24239C4.39223 4.09254 4.58314 3.9905 4.79097 3.94916C4.99881 3.90782 5.21424 3.92904 5.41002 4.01013C5.6058 4.09122 5.77313 4.22855 5.89086 4.40475C6.00859 4.58094 6.07143 4.78809 6.07143 5C6.07143 5.28416 5.95855 5.55668 5.75761 5.75761C5.55668 5.95855 5.28416 6.07143 5 6.07143Z" fill="white"/>
</svg>
