<svg width="8" height="8" viewBox="0 0 8 8" fill="none" xmlns="http://www.w3.org/2000/svg">
<path d="M2.8 2H3.6V4H5.6V4.8H2.8V2Z" fill="white"/>
<path fill-rule="evenodd" clip-rule="evenodd" d="M8 4C8 6.2092 6.2092 8 4 8C1.7908 8 0 6.2092 0 4C0 1.7908 1.7908 0 4 0C6.2092 0 8 1.7908 8 4ZM7.2 4C7.2 4.84869 6.86286 5.66263 6.26274 6.26274C5.66263 6.86286 4.84869 7.2 4 7.2C3.15131 7.2 2.33737 6.86286 1.73726 6.26274C1.13714 5.66263 0.8 4.84869 0.8 4C0.8 3.15131 1.13714 2.33737 1.73726 1.73726C2.33737 1.13714 3.15131 0.8 4 0.8C4.84869 0.8 5.66263 1.13714 6.26274 1.73726C6.86286 2.33737 7.2 3.15131 7.2 4Z" fill="white"/>
</svg>
