<svg width="14" height="19" viewBox="0 0 14 19" fill="none" xmlns="http://www.w3.org/2000/svg">
<path d="M6.88333 19C8.16667 19 9.21667 17.9312 9.21667 16.625H4.55C4.55 17.9312 5.6 19 6.88333 19ZM11.55 9.2625V6.53125C11.55 4.39375 10.15 2.49375 8.05 1.9C8.16667 1.6625 8.16667 1.425 8.28333 1.30625C8.16667 0.59375 7.58333 0 6.88333 0C6.18333 0 5.6 0.59375 5.6 1.30625C5.6 1.54375 5.71667 1.78125 5.83333 1.9C3.73333 2.375 2.33333 4.275 2.33333 6.53125V9.14375C2.21667 10.5687 1.28333 11.875 0 12.4688V15.4375H14V12.4688C12.6 11.9937 11.6667 10.6875 11.55 9.2625Z" fill="white"/>
</svg>
