<svg width="8" height="8" viewBox="0 0 8 8" fill="none" xmlns="http://www.w3.org/2000/svg">
<path d="M8 3.60001V4.40001C8 4.50609 7.96488 4.60784 7.90237 4.68285C7.83986 4.75787 7.75507 4.80001 7.66667 4.80001H0.333333C0.244928 4.80001 0.160143 4.75787 0.0976311 4.68285C0.035119 4.60784 0 4.50609 0 4.40001V3.60001C0 3.49392 0.035119 3.39218 0.0976311 3.31717C0.160143 3.24215 0.244928 3.20001 0.333333 3.20001H7.66667C7.75507 3.20001 7.83986 3.24215 7.90237 3.31717C7.96488 3.39218 8 3.49392 8 3.60001ZM7.66667 6.40001H0.333333C0.244928 6.40001 0.160143 6.44215 0.0976311 6.51716C0.035119 6.59218 0 6.69392 0 6.80001V7.60001C0 7.70609 0.035119 7.80784 0.0976311 7.88285C0.160143 7.95787 0.244928 8.00001 0.333333 8.00001H7.66667C7.75507 8.00001 7.83986 7.95787 7.90237 7.88285C7.96488 7.80784 8 7.70609 8 7.60001V6.80001C8 6.69392 7.96488 6.59218 7.90237 6.51716C7.83986 6.44215 7.75507 6.40001 7.66667 6.40001ZM7.66667 7.62939e-06H0.333333C0.244928 7.62939e-06 0.160143 0.0421504 0.0976311 0.117165C0.035119 0.19218 0 0.293921 0 0.400008V1.20001C0 1.30609 0.035119 1.40784 0.0976311 1.48285C0.160143 1.55786 0.244928 1.60001 0.333333 1.60001H7.66667C7.75507 1.60001 7.83986 1.55786 7.90237 1.48285C7.96488 1.40784 8 1.30609 8 1.20001V0.400008C8 0.293921 7.96488 0.19218 7.90237 0.117165C7.83986 0.0421504 7.75507 7.62939e-06 7.66667 7.62939e-06Z" fill="white"/>
</svg>
