<svg width="17" height="12" viewBox="0 0 17 12" fill="none" xmlns="http://www.w3.org/2000/svg">
<path d="M4.56 0.75H16.56V3.75H15.81V4.5H11.31C11.1111 4.5 10.9203 4.57902 10.7797 4.71967C10.639 4.86032 10.56 5.05109 10.56 5.25V6C10.56 6.39782 10.402 6.77936 10.1207 7.06066C9.83936 7.34196 9.45782 7.5 9.06 7.5H6.525C6.24 7.5 5.9775 7.665 5.85 7.92L4.0125 11.5875C3.885 11.8425 3.63 12 3.345 12H0.81C0.81 12 -1.44 12 1.56 7.5C1.56 7.5 3.81 4.5 0.81 4.5V0.75H1.56L1.935 0H4.185L4.56 0.75ZM9.81 6V5.25C9.81 5.05109 9.73098 4.86032 9.59033 4.71967C9.44968 4.57902 9.25891 4.5 9.06 4.5H8.31C8.31 4.5 7.56 5.25 8.31 6C7.91218 6 7.53064 5.84196 7.24934 5.56066C6.96804 5.27936 6.81 4.89782 6.81 4.5C6.61109 4.5 6.42032 4.57902 6.27967 4.71967C6.13902 4.86032 6.06 5.05109 6.06 5.25V6C6.06 6.19891 6.13902 6.38968 6.27967 6.53033C6.42032 6.67098 6.61109 6.75 6.81 6.75H9.06C9.25891 6.75 9.44968 6.67098 9.59033 6.53033C9.73098 6.38968 9.81 6.19891 9.81 6Z" fill="white"/>
</svg>
