<svg width="139" height="64" viewBox="0 0 139 64" fill="none" xmlns="http://www.w3.org/2000/svg">
<path d="M30.7784 61.9516C29.0568 62.9354 26.9432 62.9354 25.2216 61.9516L3.22161 49.3801C1.4768 48.3831 0.399999 46.5276 0.399999 44.518L0.399998 19.4811C0.399998 17.4714 1.47685 15.6159 3.22174 14.6189L25.2217 2.04818C26.9433 1.06449 29.0567 1.06449 30.7783 2.04818L52.7782 14.6189C54.5231 15.6159 55.6 17.4714 55.6 19.4811L55.6 44.518C55.6 46.5276 54.5232 48.3831 52.7784 49.3801L30.7784 61.9516Z" fill="black" fill-opacity="0.6"/>
<path d="M30.7784 61.9516C29.0568 62.9354 26.9432 62.9354 25.2216 61.9516L3.22161 49.3801C1.4768 48.3831 0.399999 46.5276 0.399999 44.518L0.399998 19.4811C0.399998 17.4714 1.47685 15.6159 3.22174 14.6189L25.2217 2.04818C26.9433 1.06449 29.0567 1.06449 30.7783 2.04818L52.7782 14.6189C54.5231 15.6159 55.6 17.4714 55.6 19.4811L55.6 44.518C55.6 46.5276 54.5232 48.3831 52.7784 49.3801L30.7784 61.9516Z" fill="url(#paint0_linear_823_10369)"/>
<path d="M30.7784 61.9516C29.0568 62.9354 26.9432 62.9354 25.2216 61.9516L3.22161 49.3801C1.4768 48.3831 0.399999 46.5276 0.399999 44.518L0.399998 19.4811C0.399998 17.4714 1.47685 15.6159 3.22174 14.6189L25.2217 2.04818C26.9433 1.06449 29.0567 1.06449 30.7783 2.04818L52.7782 14.6189C54.5231 15.6159 55.6 17.4714 55.6 19.4811L55.6 44.518C55.6 46.5276 54.5232 48.3831 52.7784 49.3801L30.7784 61.9516Z" stroke="#E51717" stroke-width="0.8"/>
<path d="M19.6049 39.6002V31.4873C20.4008 31.7916 21.1828 32.0815 21.975 32.3347C22.0154 32.6997 21.9513 33.0536 22.0169 33.4036C22.133 34.0233 22.676 34.4475 23.2923 34.3945C23.9191 34.3406 24.3745 33.8446 24.3822 33.2067C24.3831 33.1123 24.3822 33.0175 24.3822 32.8995C25.594 33.0964 26.7884 33.2004 27.9915 33.2009C29.1961 33.2019 30.392 33.095 31.5758 32.9053C31.6274 32.9953 31.6057 33.0776 31.6067 33.1556C31.6168 33.8731 32.1087 34.3906 32.792 34.3993C33.4535 34.408 33.9864 33.8678 34.0033 33.1667C34.0095 32.8947 34.0042 32.6222 34.0042 32.3386C34.8065 32.08 35.5895 31.7935 36.3859 31.4854V39.5964C37.2392 37.2709 37.5765 34.8596 37.6035 32.3848C38.1499 32.379 38.5864 32.5904 38.9598 32.9419C39.6387 33.5808 39.9379 34.3993 39.9866 35.304C40.0531 36.5371 39.8661 37.7485 39.5583 38.9401C39.2436 40.1583 38.8008 41.3273 38.1412 42.4044C37.8189 42.9311 37.47 43.44 36.9448 43.7968C36.7386 43.9369 36.5189 43.9981 36.2683 43.9981C30.7601 43.9952 25.2514 43.9942 19.7431 44C19.3986 44 19.1197 43.8806 18.8701 43.6668C18.2365 43.1237 17.8125 42.4241 17.453 41.6894C16.4744 39.6893 15.9386 37.5785 16.0056 35.344C16.0355 34.3435 16.3867 33.4498 17.2015 32.7994C17.5412 32.5283 17.9291 32.3757 18.3878 32.3858C18.4133 34.861 18.753 37.2708 19.6053 39.6002H19.6049Z" fill="white"/>
<path d="M31.6072 31.6992C29.1884 32.1007 26.798 32.1022 24.3841 31.6982C24.3841 31.4122 24.3682 31.1325 24.3875 30.8547C24.4313 30.2124 23.9158 29.6057 23.1848 29.6014C22.5165 29.5975 22.0034 30.1344 21.9875 30.8445C21.9856 30.9317 21.9875 31.0188 21.9875 31.132C21.4204 30.9683 20.8788 30.7723 20.3396 30.5672C19.9956 30.4363 19.6448 30.3197 19.3533 30.0853C18.5154 29.4107 18.2779 28.5412 18.5005 27.5098C18.7077 26.5498 18.899 25.5868 19.0869 24.6229C19.1905 24.0913 19.6511 23.6402 20.2004 23.6257C21.099 23.6021 21.9981 23.6132 22.8972 23.6098C22.9844 23.6098 23.0711 23.6098 23.1925 23.6098C23.1925 23.2131 23.1916 22.8318 23.1925 22.4504C23.1954 21.6079 23.537 20.9333 24.2183 20.4398C24.6033 20.16 25.0418 20.0079 25.5183 20.0065C27.1719 20.0012 28.8256 19.9944 30.4792 20.0079C31.7435 20.018 32.7871 21.1013 32.7982 22.385C32.8016 22.7846 32.7987 23.1842 32.7987 23.5737C32.8927 23.6296 32.9746 23.6079 33.0526 23.6079C33.9035 23.6098 34.7544 23.606 35.6054 23.6098C36.3238 23.6127 36.7757 24.0152 36.9125 24.7249C37.0894 25.6422 37.2705 26.5589 37.4797 27.4694C37.6864 28.3683 37.5466 29.169 36.9039 29.8513C36.6307 30.1416 36.2862 30.3217 35.9142 30.4676C35.2912 30.7117 34.6595 30.9269 34.0071 31.1387C34.0067 30.8272 34.0057 30.5325 33.866 30.2596C33.6077 29.755 33.0647 29.5084 32.4894 29.6409C31.9936 29.755 31.6173 30.2316 31.6081 30.7656C31.6028 31.0694 31.6072 31.3732 31.6072 31.6987V31.6992ZM25.6118 22.4105V23.593H30.3795V22.4105H25.6118Z" fill="white"/>
<path d="M68.924 21.5V12.776H70.37V21.5H68.924ZM73.8215 21.5V14.624C73.8215 14.48 73.8495 14.364 73.9055 14.276C73.9655 14.188 74.0495 14.128 74.1575 14.096H71.5955V12.776H77.4815V14.096H75.2615V21.5H73.8215ZM78.716 21.5V12.776H84.026V14.096H79.526L80.12 13.448V16.742L79.526 16.328H83.696V17.63H79.772L80.12 17.174V20.822L79.526 20.168H84.092V21.5H78.716ZM85.5129 21.5V12.776H87.0969L90.0489 18.056L90.8409 19.886H90.8889L90.6609 17.948V12.776H92.0709V21.5H90.4809L87.5589 16.268L86.7909 14.48H86.7369L86.9229 16.514V21.5H85.5129ZM96.583 21.62C95.943 21.62 95.389 21.518 94.921 21.314C94.453 21.11 94.089 20.804 93.829 20.396C93.569 19.984 93.433 19.468 93.421 18.848H94.789C94.805 19.184 94.887 19.466 95.035 19.694C95.187 19.922 95.399 20.092 95.671 20.204C95.947 20.316 96.279 20.372 96.667 20.372C97.039 20.372 97.343 20.328 97.579 20.24C97.815 20.152 97.989 20.028 98.101 19.868C98.213 19.704 98.269 19.512 98.269 19.292C98.269 19.052 98.201 18.85 98.065 18.686C97.929 18.518 97.713 18.362 97.417 18.218C97.125 18.07 96.737 17.912 96.253 17.744C95.753 17.572 95.315 17.362 94.939 17.114C94.567 16.866 94.277 16.572 94.069 16.232C93.865 15.888 93.763 15.486 93.763 15.026C93.763 14.25 94.017 13.658 94.525 13.25C95.033 12.842 95.729 12.638 96.613 12.638C97.225 12.638 97.721 12.732 98.101 12.92C98.481 13.108 98.767 13.386 98.959 13.754C99.155 14.118 99.285 14.57 99.349 15.11H97.975C97.939 14.834 97.865 14.606 97.753 14.426C97.641 14.246 97.487 14.112 97.291 14.024C97.099 13.932 96.857 13.886 96.565 13.886C96.113 13.886 95.765 13.978 95.521 14.162C95.277 14.342 95.155 14.612 95.155 14.972C95.155 15.176 95.193 15.362 95.269 15.53C95.349 15.698 95.511 15.864 95.755 16.028C96.003 16.192 96.375 16.372 96.871 16.568C97.255 16.72 97.615 16.866 97.951 17.006C98.291 17.142 98.589 17.3 98.845 17.48C99.105 17.66 99.309 17.884 99.457 18.152C99.605 18.42 99.681 18.76 99.685 19.172C99.693 19.964 99.433 20.57 98.905 20.99C98.381 21.41 97.607 21.62 96.583 21.62Z" fill="#DDDDDD" fill-opacity="0.6"/>
<mask id="path-4-inside-1_823_10369" fill="white">
<path d="M69.056 44.5C68.992 44.5 68.96 44.46 68.96 44.38L69.008 27.892C69.008 27.828 69.04 27.796 69.104 27.796H72.032C72.096 27.796 72.152 27.828 72.2 27.892L74.384 31.06L76.568 27.892C76.616 27.828 76.672 27.796 76.736 27.796H79.688C79.752 27.796 79.784 27.828 79.784 27.892L79.832 44.38C79.832 44.46 79.8 44.5 79.736 44.5H77.024C76.96 44.5 76.928 44.46 76.928 44.38L76.904 32.14L74.384 35.788L71.888 32.14L71.864 44.38C71.864 44.46 71.832 44.5 71.768 44.5H69.056ZM86.2906 44.74C85.4266 44.74 84.6346 44.524 83.9146 44.092C83.2106 43.644 82.6426 43.06 82.2106 42.34C81.7786 41.604 81.5626 40.796 81.5626 39.916L81.5866 32.308C81.5866 31.428 81.7946 30.628 82.2106 29.908C82.6426 29.188 83.2186 28.612 83.9386 28.18C84.6586 27.748 85.4426 27.532 86.2906 27.532C87.1546 27.532 87.9386 27.748 88.6426 28.18C89.3466 28.612 89.9066 29.188 90.3226 29.908C90.7546 30.628 90.9706 31.428 90.9706 32.308L90.9946 39.916C90.9946 40.796 90.7786 41.604 90.3466 42.34C89.9306 43.06 89.3626 43.644 88.6426 44.092C87.9386 44.524 87.1546 44.74 86.2906 44.74ZM86.2906 41.836C86.7706 41.836 87.1866 41.644 87.5386 41.26C87.9066 40.86 88.0906 40.412 88.0906 39.916L88.0666 32.308C88.0666 31.78 87.8986 31.332 87.5626 30.964C87.2266 30.596 86.8026 30.412 86.2906 30.412C85.7946 30.412 85.3706 30.596 85.0186 30.964C84.6666 31.316 84.4906 31.764 84.4906 32.308V39.916C84.4906 40.444 84.6666 40.9 85.0186 41.284C85.3706 41.652 85.7946 41.836 86.2906 41.836ZM97.2354 44.74C96.3554 44.74 95.5554 44.524 94.8354 44.092C94.1314 43.644 93.5714 43.052 93.1554 42.316C92.7394 41.58 92.5314 40.756 92.5314 39.844L92.5554 32.356C92.5554 31.476 92.7554 30.676 93.1554 29.956C93.5714 29.22 94.1314 28.636 94.8354 28.204C95.5554 27.756 96.3554 27.532 97.2354 27.532C98.1154 27.532 98.9074 27.748 99.6114 28.18C100.315 28.612 100.875 29.196 101.291 29.932C101.707 30.652 101.915 31.46 101.915 32.356V33.46C101.915 33.524 101.883 33.556 101.819 33.556H99.1314C99.0674 33.556 99.0354 33.524 99.0354 33.46V32.356C99.0354 31.828 98.8594 31.372 98.5074 30.988C98.1714 30.604 97.7474 30.412 97.2354 30.412C96.6594 30.412 96.2194 30.612 95.9154 31.012C95.6114 31.396 95.4594 31.844 95.4594 32.356V39.844C95.4594 40.436 95.6274 40.916 95.9634 41.284C96.3154 41.652 96.7394 41.836 97.2354 41.836C97.7474 41.836 98.1714 41.636 98.5074 41.236C98.8594 40.82 99.0354 40.356 99.0354 39.844V38.74C99.0354 38.676 99.0674 38.644 99.1314 38.644H101.843C101.907 38.644 101.939 38.676 101.939 38.74V39.844C101.939 40.756 101.723 41.58 101.291 42.316C100.875 43.052 100.315 43.644 99.6114 44.092C98.9074 44.524 98.1154 44.74 97.2354 44.74ZM103.79 44.5C103.726 44.5 103.694 44.46 103.694 44.38L103.718 27.892C103.718 27.828 103.758 27.796 103.838 27.796H106.502C106.582 27.796 106.622 27.828 106.622 27.892L106.598 34.42H110.198V27.892C110.198 27.828 110.23 27.796 110.294 27.796H112.958C113.038 27.796 113.078 27.828 113.078 27.892L113.126 44.38C113.126 44.46 113.086 44.5 113.006 44.5H110.318C110.238 44.5 110.198 44.46 110.198 44.38V37.324H106.598V44.38C106.598 44.46 106.566 44.5 106.502 44.5H103.79ZM115.205 44.5C115.125 44.5 115.085 44.46 115.085 44.38L115.109 27.892C115.109 27.828 115.141 27.796 115.205 27.796H117.893C117.957 27.796 117.989 27.828 117.989 27.892L118.013 44.38C118.013 44.46 117.981 44.5 117.917 44.5H115.205ZM120.22 44.5C120.156 44.5 120.124 44.46 120.124 44.38L120.148 27.916C120.148 27.836 120.188 27.796 120.268 27.796H122.932C123.012 27.796 123.052 27.836 123.052 27.916L123.028 41.548H127.972C128.052 41.548 128.092 41.588 128.092 41.668V44.38C128.092 44.46 128.052 44.5 127.972 44.5H120.22ZM128.847 44.38L131.823 27.892C131.839 27.828 131.879 27.796 131.943 27.796H135.423C135.487 27.796 135.527 27.828 135.543 27.892L138.399 44.38C138.415 44.46 138.383 44.5 138.303 44.5H135.639C135.575 44.5 135.535 44.46 135.519 44.38L135.255 42.628H131.991L131.727 44.38C131.711 44.46 131.671 44.5 131.607 44.5H128.943C128.879 44.5 128.847 44.46 128.847 44.38ZM132.471 40.06H134.775L133.791 33.316L133.647 32.428L133.551 33.316L132.471 40.06Z"/>
</mask>
<path d="M69.056 44.5C68.992 44.5 68.96 44.46 68.96 44.38L69.008 27.892C69.008 27.828 69.04 27.796 69.104 27.796H72.032C72.096 27.796 72.152 27.828 72.2 27.892L74.384 31.06L76.568 27.892C76.616 27.828 76.672 27.796 76.736 27.796H79.688C79.752 27.796 79.784 27.828 79.784 27.892L79.832 44.38C79.832 44.46 79.8 44.5 79.736 44.5H77.024C76.96 44.5 76.928 44.46 76.928 44.38L76.904 32.14L74.384 35.788L71.888 32.14L71.864 44.38C71.864 44.46 71.832 44.5 71.768 44.5H69.056ZM86.2906 44.74C85.4266 44.74 84.6346 44.524 83.9146 44.092C83.2106 43.644 82.6426 43.06 82.2106 42.34C81.7786 41.604 81.5626 40.796 81.5626 39.916L81.5866 32.308C81.5866 31.428 81.7946 30.628 82.2106 29.908C82.6426 29.188 83.2186 28.612 83.9386 28.18C84.6586 27.748 85.4426 27.532 86.2906 27.532C87.1546 27.532 87.9386 27.748 88.6426 28.18C89.3466 28.612 89.9066 29.188 90.3226 29.908C90.7546 30.628 90.9706 31.428 90.9706 32.308L90.9946 39.916C90.9946 40.796 90.7786 41.604 90.3466 42.34C89.9306 43.06 89.3626 43.644 88.6426 44.092C87.9386 44.524 87.1546 44.74 86.2906 44.74ZM86.2906 41.836C86.7706 41.836 87.1866 41.644 87.5386 41.26C87.9066 40.86 88.0906 40.412 88.0906 39.916L88.0666 32.308C88.0666 31.78 87.8986 31.332 87.5626 30.964C87.2266 30.596 86.8026 30.412 86.2906 30.412C85.7946 30.412 85.3706 30.596 85.0186 30.964C84.6666 31.316 84.4906 31.764 84.4906 32.308V39.916C84.4906 40.444 84.6666 40.9 85.0186 41.284C85.3706 41.652 85.7946 41.836 86.2906 41.836ZM97.2354 44.74C96.3554 44.74 95.5554 44.524 94.8354 44.092C94.1314 43.644 93.5714 43.052 93.1554 42.316C92.7394 41.58 92.5314 40.756 92.5314 39.844L92.5554 32.356C92.5554 31.476 92.7554 30.676 93.1554 29.956C93.5714 29.22 94.1314 28.636 94.8354 28.204C95.5554 27.756 96.3554 27.532 97.2354 27.532C98.1154 27.532 98.9074 27.748 99.6114 28.18C100.315 28.612 100.875 29.196 101.291 29.932C101.707 30.652 101.915 31.46 101.915 32.356V33.46C101.915 33.524 101.883 33.556 101.819 33.556H99.1314C99.0674 33.556 99.0354 33.524 99.0354 33.46V32.356C99.0354 31.828 98.8594 31.372 98.5074 30.988C98.1714 30.604 97.7474 30.412 97.2354 30.412C96.6594 30.412 96.2194 30.612 95.9154 31.012C95.6114 31.396 95.4594 31.844 95.4594 32.356V39.844C95.4594 40.436 95.6274 40.916 95.9634 41.284C96.3154 41.652 96.7394 41.836 97.2354 41.836C97.7474 41.836 98.1714 41.636 98.5074 41.236C98.8594 40.82 99.0354 40.356 99.0354 39.844V38.74C99.0354 38.676 99.0674 38.644 99.1314 38.644H101.843C101.907 38.644 101.939 38.676 101.939 38.74V39.844C101.939 40.756 101.723 41.58 101.291 42.316C100.875 43.052 100.315 43.644 99.6114 44.092C98.9074 44.524 98.1154 44.74 97.2354 44.74ZM103.79 44.5C103.726 44.5 103.694 44.46 103.694 44.38L103.718 27.892C103.718 27.828 103.758 27.796 103.838 27.796H106.502C106.582 27.796 106.622 27.828 106.622 27.892L106.598 34.42H110.198V27.892C110.198 27.828 110.23 27.796 110.294 27.796H112.958C113.038 27.796 113.078 27.828 113.078 27.892L113.126 44.38C113.126 44.46 113.086 44.5 113.006 44.5H110.318C110.238 44.5 110.198 44.46 110.198 44.38V37.324H106.598V44.38C106.598 44.46 106.566 44.5 106.502 44.5H103.79ZM115.205 44.5C115.125 44.5 115.085 44.46 115.085 44.38L115.109 27.892C115.109 27.828 115.141 27.796 115.205 27.796H117.893C117.957 27.796 117.989 27.828 117.989 27.892L118.013 44.38C118.013 44.46 117.981 44.5 117.917 44.5H115.205ZM120.22 44.5C120.156 44.5 120.124 44.46 120.124 44.38L120.148 27.916C120.148 27.836 120.188 27.796 120.268 27.796H122.932C123.012 27.796 123.052 27.836 123.052 27.916L123.028 41.548H127.972C128.052 41.548 128.092 41.588 128.092 41.668V44.38C128.092 44.46 128.052 44.5 127.972 44.5H120.22ZM128.847 44.38L131.823 27.892C131.839 27.828 131.879 27.796 131.943 27.796H135.423C135.487 27.796 135.527 27.828 135.543 27.892L138.399 44.38C138.415 44.46 138.383 44.5 138.303 44.5H135.639C135.575 44.5 135.535 44.46 135.519 44.38L135.255 42.628H131.991L131.727 44.38C131.711 44.46 131.671 44.5 131.607 44.5H128.943C128.879 44.5 128.847 44.46 128.847 44.38ZM132.471 40.06H134.775L133.791 33.316L133.647 32.428L133.551 33.316L132.471 40.06Z" fill="url(#paint1_linear_823_10369)" fill-opacity="0.85"/>
<path d="M68.96 44.38L68.36 44.3783V44.38H68.96ZM69.008 27.892L69.608 27.8937V27.892H69.008ZM72.2 27.892L72.694 27.5514L72.6872 27.5416L72.68 27.532L72.2 27.892ZM74.384 31.06L73.89 31.4006L74.384 32.1171L74.878 31.4006L74.384 31.06ZM76.568 27.892L76.088 27.532L76.0808 27.5416L76.074 27.5514L76.568 27.892ZM79.784 27.892H79.184L79.184 27.8937L79.784 27.892ZM79.832 44.38H80.432L80.432 44.3783L79.832 44.38ZM76.928 44.38H77.528L77.528 44.3788L76.928 44.38ZM76.904 32.14L77.504 32.1388L77.5002 30.2212L76.4103 31.799L76.904 32.14ZM74.384 35.788L73.8888 36.1268L74.3816 36.8471L74.8777 36.129L74.384 35.788ZM71.888 32.14L72.3832 31.8012L71.2918 30.2061L71.288 32.1388L71.888 32.14ZM71.864 44.38L71.264 44.3788V44.38H71.864ZM69.056 43.9C69.1564 43.9 69.3268 43.938 69.4525 44.0952C69.5578 44.2268 69.56 44.3559 69.56 44.38H68.36C68.36 44.4841 68.3782 44.6732 68.5155 44.8448C68.6732 45.042 68.8916 45.1 69.056 45.1V43.9ZM69.56 44.3817L69.608 27.8937L68.408 27.8903L68.36 44.3783L69.56 44.3817ZM69.608 27.892C69.608 27.9525 69.5925 28.1081 69.4563 28.2443C69.3201 28.3805 69.1645 28.396 69.104 28.396V27.196C68.9795 27.196 68.7759 27.2275 68.6077 27.3957C68.4395 27.5639 68.408 27.7675 68.408 27.892H69.608ZM69.104 28.396H72.032V27.196H69.104V28.396ZM72.032 28.396C71.9587 28.396 71.8862 28.3763 71.8243 28.3409C71.7663 28.3078 71.7337 28.2702 71.72 28.252L72.68 27.532C72.5501 27.3588 72.3317 27.196 72.032 27.196V28.396ZM71.706 28.2326L73.89 31.4006L74.878 30.7194L72.694 27.5514L71.706 28.2326ZM74.878 31.4006L77.062 28.2326L76.074 27.5514L73.89 30.7194L74.878 31.4006ZM77.048 28.252C77.0343 28.2702 77.0017 28.3078 76.9437 28.3409C76.8818 28.3763 76.8093 28.396 76.736 28.396V27.196C76.4363 27.196 76.2179 27.3588 76.088 27.532L77.048 28.252ZM76.736 28.396H79.688V27.196H76.736V28.396ZM79.688 28.396C79.6275 28.396 79.4719 28.3805 79.3357 28.2443C79.1995 28.1081 79.184 27.9525 79.184 27.892H80.384C80.384 27.7675 80.3525 27.5639 80.1843 27.3957C80.0161 27.2275 79.8125 27.196 79.688 27.196V28.396ZM79.184 27.8937L79.232 44.3817L80.432 44.3783L80.384 27.8903L79.184 27.8937ZM79.232 44.38C79.232 44.3559 79.2342 44.2268 79.3395 44.0952C79.4652 43.938 79.6356 43.9 79.736 43.9V45.1C79.9004 45.1 80.1188 45.042 80.2765 44.8448C80.4138 44.6732 80.432 44.4841 80.432 44.38H79.232ZM79.736 43.9H77.024V45.1H79.736V43.9ZM77.024 43.9C77.1244 43.9 77.2948 43.938 77.4205 44.0952C77.5258 44.2268 77.528 44.3559 77.528 44.38H76.328C76.328 44.4841 76.3462 44.6732 76.4835 44.8448C76.6412 45.042 76.8596 45.1 77.024 45.1V43.9ZM77.528 44.3788L77.504 32.1388L76.304 32.1412L76.328 44.3812L77.528 44.3788ZM76.4103 31.799L73.8903 35.447L74.8777 36.129L77.3977 32.481L76.4103 31.799ZM74.8792 35.4492L72.3832 31.8012L71.3928 32.4788L73.8888 36.1268L74.8792 35.4492ZM71.288 32.1388L71.264 44.3788L72.464 44.3812L72.488 32.1412L71.288 32.1388ZM71.264 44.38C71.264 44.3559 71.2662 44.2268 71.3715 44.0952C71.4972 43.938 71.6676 43.9 71.768 43.9V45.1C71.9324 45.1 72.1508 45.042 72.3085 44.8448C72.4458 44.6732 72.464 44.4841 72.464 44.38H71.264ZM71.768 43.9H69.056V45.1H71.768V43.9ZM83.9146 44.092L83.5925 44.5982L83.5992 44.6024L83.6059 44.6065L83.9146 44.092ZM82.2106 42.34L81.6932 42.6437L81.6961 42.6487L82.2106 42.34ZM81.5626 39.916L80.9626 39.9141V39.916H81.5626ZM81.5866 32.308L82.1866 32.3099V32.308H81.5866ZM82.2106 29.908L81.6961 29.5993L81.6911 29.6078L82.2106 29.908ZM83.9386 28.18L84.2473 28.6945L83.9386 28.18ZM88.6426 28.18L88.3288 28.6914V28.6914L88.6426 28.18ZM90.3226 29.908L89.803 30.2082L89.8081 30.2167L90.3226 29.908ZM90.9706 32.308H90.3706L90.3706 32.3099L90.9706 32.308ZM90.9946 39.916H91.5946L91.5946 39.9141L90.9946 39.916ZM90.3466 42.34L89.8292 42.0363L89.8271 42.0398L90.3466 42.34ZM88.6426 44.092L88.9564 44.6034L88.9596 44.6014L88.6426 44.092ZM87.5386 41.26L87.0971 40.8538L87.0963 40.8546L87.5386 41.26ZM88.0906 39.916H88.6906L88.6906 39.9141L88.0906 39.916ZM88.0666 32.308H87.4666L87.4666 32.3099L88.0666 32.308ZM87.5626 30.964L88.0057 30.5594L87.5626 30.964ZM85.0186 30.964L85.443 31.3884L85.4522 31.3787L85.0186 30.964ZM85.0186 41.284L84.5762 41.6895L84.585 41.6987L85.0186 41.284ZM86.2906 44.14C85.5321 44.14 84.8473 43.9519 84.2233 43.5775L83.6059 44.6065C84.422 45.0961 85.3212 45.34 86.2906 45.34V44.14ZM84.2367 43.5858C83.6118 43.1881 83.1095 42.6719 82.7251 42.0313L81.6961 42.6487C82.1757 43.4481 82.8094 44.0999 83.5925 44.5982L84.2367 43.5858ZM82.7281 42.0363C82.3519 41.3953 82.1626 40.6927 82.1626 39.916H80.9626C80.9626 40.8993 81.2054 41.8127 81.6932 42.6437L82.7281 42.0363ZM82.1626 39.9179L82.1866 32.3099L80.9866 32.3061L80.9626 39.9141L82.1626 39.9179ZM82.1866 32.308C82.1866 31.527 82.37 30.8315 82.7301 30.2082L81.6911 29.6078C81.2193 30.4245 80.9866 31.329 80.9866 32.308H82.1866ZM82.7251 30.2167C83.1065 29.5811 83.6118 29.0758 84.2473 28.6945L83.6299 27.6655C82.8255 28.1482 82.1788 28.7949 81.6961 29.5993L82.7251 30.2167ZM84.2473 28.6945C84.8731 28.319 85.5502 28.132 86.2906 28.132V26.932C85.335 26.932 84.4441 27.177 83.6299 27.6655L84.2473 28.6945ZM86.2906 28.132C87.0492 28.132 87.7237 28.3201 88.3288 28.6914L88.9564 27.6686C88.1536 27.1759 87.2601 26.932 86.2906 26.932V28.132ZM88.3288 28.6914C88.9471 29.0708 89.4367 29.574 89.8031 30.2082L90.8421 29.6078C90.3766 28.802 89.7461 28.1532 88.9564 27.6686L88.3288 28.6914ZM89.8081 30.2167C90.1814 30.8389 90.3706 31.5313 90.3706 32.308H91.5706C91.5706 31.3247 91.3278 30.4171 90.8371 29.5993L89.8081 30.2167ZM90.3706 32.3099L90.3946 39.9179L91.5946 39.9141L91.5706 32.3061L90.3706 32.3099ZM90.3946 39.916C90.3946 40.6927 90.2054 41.3953 89.8292 42.0363L90.8641 42.6437C91.3519 41.8127 91.5946 40.8993 91.5946 39.916H90.3946ZM89.8271 42.0398C89.4614 42.6728 88.9637 43.1856 88.3256 43.5826L88.9596 44.6014C89.7616 44.1024 90.3998 43.4472 90.8661 42.6402L89.8271 42.0398ZM88.3288 43.5806C87.7237 43.9519 87.0492 44.14 86.2906 44.14V45.34C87.2601 45.34 88.1536 45.0961 88.9564 44.6034L88.3288 43.5806ZM86.2906 42.436C86.9542 42.436 87.5261 42.1616 87.9809 41.6654L87.0963 40.8546C86.8471 41.1264 86.587 41.236 86.2906 41.236V42.436ZM87.9802 41.6662C88.4395 41.167 88.6906 40.5774 88.6906 39.916H87.4906C87.4906 40.2465 87.3738 40.553 87.0971 40.8538L87.9802 41.6662ZM88.6906 39.9141L88.6666 32.3061L87.4666 32.3099L87.4906 39.9179L88.6906 39.9141ZM88.6666 32.308C88.6666 31.6401 88.4491 31.045 88.0057 30.5594L87.1195 31.3686C87.3482 31.619 87.4666 31.9199 87.4666 32.308H88.6666ZM88.0057 30.5594C87.5525 30.0631 86.966 29.812 86.2906 29.812V31.012C86.6393 31.012 86.9007 31.1289 87.1195 31.3686L88.0057 30.5594ZM86.2906 29.812C85.626 29.812 85.0468 30.0665 84.585 30.5493L85.4522 31.3787C85.6944 31.1255 85.9632 31.012 86.2906 31.012V29.812ZM84.5944 30.5397C84.1188 31.0153 83.8906 31.6211 83.8906 32.308H85.0906C85.0906 31.9069 85.2144 31.6167 85.4429 31.3883L84.5944 30.5397ZM83.8906 32.308V39.916H85.0906V32.308H83.8906ZM83.8906 39.916C83.8906 40.5919 84.1214 41.1931 84.5763 41.6894L85.4609 40.8786C85.2119 40.6069 85.0906 40.2961 85.0906 39.916H83.8906ZM84.585 41.6987C85.0468 42.1815 85.626 42.436 86.2906 42.436V41.236C85.9632 41.236 85.6944 41.1225 85.4522 40.8693L84.585 41.6987ZM94.8354 44.092L94.5133 44.5982L94.5199 44.6024L94.5267 44.6065L94.8354 44.092ZM93.1554 42.316L92.633 42.6112L93.1554 42.316ZM92.5314 39.844L91.9314 39.8421V39.844H92.5314ZM92.5554 32.356L93.1554 32.3579V32.356H92.5554ZM93.1554 29.956L92.633 29.6608L92.6309 29.6646L93.1554 29.956ZM94.8354 28.204L95.1492 28.7154L95.1524 28.7134L94.8354 28.204ZM99.6114 28.18L99.2976 28.6914V28.6914L99.6114 28.18ZM101.291 29.932L100.769 30.2272L100.772 30.2322L101.291 29.932ZM98.5074 30.988L98.0557 31.3832L98.0651 31.3934L98.5074 30.988ZM95.9154 31.012L96.3859 31.3845L96.3931 31.375L95.9154 31.012ZM95.9634 41.284L95.5202 41.6887L95.5298 41.6987L95.9634 41.284ZM98.5074 41.236L98.0493 40.8484L98.048 40.8501L98.5074 41.236ZM101.291 42.316L100.774 42.0122L100.769 42.0208L101.291 42.316ZM99.6114 44.092L99.9252 44.6035L99.9335 44.5982L99.6114 44.092ZM97.2354 44.14C96.4587 44.14 95.7663 43.9508 95.1441 43.5775L94.5267 44.6065C95.3445 45.0972 96.2521 45.34 97.2354 45.34V44.14ZM95.1575 43.5858C94.5377 43.1914 94.046 42.6723 93.6777 42.0208L92.633 42.6112C93.0968 43.4317 93.7251 44.0966 94.5133 44.5982L95.1575 43.5858ZM93.6777 42.0208C93.3166 41.3819 93.1314 40.6609 93.1314 39.844H91.9314C91.9314 40.8511 92.1621 41.7781 92.633 42.6112L93.6777 42.0208ZM93.1314 39.8459L93.1554 32.3579L91.9554 32.3541L91.9314 39.8421L93.1314 39.8459ZM93.1554 32.356C93.1554 31.5708 93.3328 30.8722 93.6799 30.2474L92.6309 29.6646C92.178 30.4798 91.9554 31.3812 91.9554 32.356H93.1554ZM93.6777 30.2512C94.0449 29.6016 94.534 29.0929 95.1492 28.7154L94.5216 27.6926C93.7287 28.1791 93.0979 28.8384 92.633 29.6608L93.6777 30.2512ZM95.1524 28.7134C95.7735 28.3269 96.463 28.132 97.2354 28.132V26.932C96.2478 26.932 95.3372 27.1851 94.5184 27.6946L95.1524 28.7134ZM97.2354 28.132C98.0121 28.132 98.6942 28.3212 99.2976 28.6914L99.9252 27.6686C99.1205 27.1748 98.2186 26.932 97.2354 26.932V28.132ZM99.2976 28.6914C99.9127 29.0689 100.402 29.5776 100.769 30.2272L101.814 29.6368C101.349 28.8144 100.718 28.1551 99.9252 27.6686L99.2976 28.6914ZM100.772 30.2322C101.131 30.8539 101.315 31.5569 101.315 32.356H102.515C102.515 31.3631 102.284 30.4501 101.811 29.6318L100.772 30.2322ZM101.315 32.356V33.46H102.515V32.356H101.315ZM101.315 33.46C101.315 33.3995 101.331 33.2439 101.467 33.1077C101.603 32.9715 101.759 32.956 101.819 32.956V34.156C101.944 34.156 102.147 34.1245 102.316 33.9563C102.484 33.7881 102.515 33.5845 102.515 33.46H101.315ZM101.819 32.956H99.1314V34.156H101.819V32.956ZM99.1314 32.956C99.1919 32.956 99.3474 32.9715 99.4836 33.1077C99.6198 33.2439 99.6354 33.3995 99.6354 33.46H98.4354C98.4354 33.5845 98.4669 33.7881 98.6351 33.9563C98.8033 34.1245 99.0069 34.156 99.1314 34.156V32.956ZM99.6354 33.46V32.356H98.4354V33.46H99.6354ZM99.6354 32.356C99.6354 31.6801 99.4046 31.0789 98.9497 30.5826L98.0651 31.3934C98.3141 31.6651 98.4354 31.9759 98.4354 32.356H99.6354ZM98.9589 30.5929C98.5085 30.0782 97.9197 29.812 97.2354 29.812V31.012C97.575 31.012 97.8342 31.1298 98.0558 31.3831L98.9589 30.5929ZM97.2354 29.812C96.5031 29.812 95.8728 30.0764 95.4377 30.6489L96.3931 31.375C96.566 31.1476 96.8156 31.012 97.2354 31.012V29.812ZM95.4449 30.6396C95.053 31.1346 94.8594 31.7154 94.8594 32.356H96.0594C96.0594 31.9726 96.1697 31.6574 96.3858 31.3844L95.4449 30.6396ZM94.8594 32.356V39.844H96.0594V32.356H94.8594ZM94.8594 39.844C94.8594 40.5559 95.0649 41.1898 95.5203 41.6886L96.4065 40.8794C96.1899 40.6422 96.0594 40.3161 96.0594 39.844H94.8594ZM95.5298 41.6987C95.9916 42.1815 96.5708 42.436 97.2354 42.436V41.236C96.908 41.236 96.6392 41.1225 96.397 40.8693L95.5298 41.6987ZM97.2354 42.436C97.9287 42.436 98.5195 42.1545 98.9668 41.6219L98.048 40.8501C97.8233 41.1175 97.566 41.236 97.2354 41.236V42.436ZM98.9654 41.6236C99.4027 41.1068 99.6354 40.5075 99.6354 39.844H98.4354C98.4354 40.2045 98.3161 40.5332 98.0493 40.8484L98.9654 41.6236ZM99.6354 39.844V38.74H98.4354V39.844H99.6354ZM99.6354 38.74C99.6354 38.8005 99.6198 38.9561 99.4836 39.0923C99.3474 39.2285 99.1919 39.244 99.1314 39.244V38.044C99.0069 38.044 98.8033 38.0755 98.6351 38.2437C98.4669 38.4119 98.4354 38.6155 98.4354 38.74H99.6354ZM99.1314 39.244H101.843V38.044H99.1314V39.244ZM101.843 39.244C101.783 39.244 101.627 39.2285 101.491 39.0923C101.355 38.9561 101.339 38.8005 101.339 38.74H102.539C102.539 38.6155 102.508 38.4119 102.34 38.2437C102.171 38.0755 101.968 38.044 101.843 38.044V39.244ZM101.339 38.74V39.844H102.539V38.74H101.339ZM101.339 39.844C101.339 40.6568 101.148 41.3747 100.774 42.0123L101.809 42.6197C102.299 41.7853 102.539 40.8552 102.539 39.844H101.339ZM100.769 42.0208C100.401 42.6723 99.9091 43.1914 99.2892 43.5858L99.9335 44.5982C100.722 44.0966 101.35 43.4317 101.814 42.6112L100.769 42.0208ZM99.2976 43.5806C98.6942 43.9508 98.0121 44.14 97.2354 44.14V45.34C98.2186 45.34 99.1205 45.0972 99.9252 44.6034L99.2976 43.5806ZM103.694 44.38L103.094 44.3791V44.38H103.694ZM103.718 27.892L104.318 27.8929V27.892H103.718ZM106.622 27.892L107.222 27.8942V27.892H106.622ZM106.598 34.42L105.998 34.4178L105.996 35.02H106.598V34.42ZM110.198 34.42V35.02H110.798V34.42H110.198ZM113.078 27.892H112.478L112.478 27.8937L113.078 27.892ZM113.126 44.38H113.726L113.726 44.3783L113.126 44.38ZM110.198 37.324H110.798V36.724H110.198V37.324ZM106.598 37.324V36.724H105.998V37.324H106.598ZM103.79 43.9C103.891 43.9 104.061 43.938 104.187 44.0952C104.292 44.2268 104.294 44.3559 104.294 44.38H103.094C103.094 44.4841 103.113 44.6732 103.25 44.8448C103.408 45.042 103.626 45.1 103.79 45.1V43.9ZM104.294 44.3809L104.318 27.8929L103.118 27.8911L103.094 44.3791L104.294 44.3809ZM104.318 27.892C104.318 27.9924 104.28 28.1628 104.123 28.2885C103.992 28.3938 103.862 28.396 103.838 28.396V27.196C103.734 27.196 103.545 27.2142 103.374 27.3515C103.176 27.5092 103.118 27.7276 103.118 27.892H104.318ZM103.838 28.396H106.502V27.196H103.838V28.396ZM106.502 28.396C106.478 28.396 106.349 28.3938 106.218 28.2885C106.06 28.1628 106.022 27.9924 106.022 27.892H107.222C107.222 27.7276 107.164 27.5092 106.967 27.3515C106.796 27.2142 106.606 27.196 106.502 27.196V28.396ZM106.022 27.8898L105.998 34.4178L107.198 34.4222L107.222 27.8942L106.022 27.8898ZM106.598 35.02H110.198V33.82H106.598V35.02ZM110.798 34.42V27.892H109.598V34.42H110.798ZM110.798 27.892C110.798 27.9525 110.783 28.1081 110.647 28.2443C110.51 28.3805 110.355 28.396 110.294 28.396V27.196C110.17 27.196 109.966 27.2275 109.798 27.3957C109.63 27.5639 109.598 27.7675 109.598 27.892H110.798ZM110.294 28.396H112.958V27.196H110.294V28.396ZM112.958 28.396C112.934 28.396 112.805 28.3938 112.674 28.2885C112.516 28.1628 112.478 27.9924 112.478 27.892H113.678C113.678 27.7276 113.62 27.5092 113.423 27.3515C113.252 27.2142 113.062 27.196 112.958 27.196V28.396ZM112.478 27.8937L112.526 44.3817L113.726 44.3783L113.678 27.8903L112.478 27.8937ZM112.526 44.38C112.526 44.3275 112.54 44.1779 112.672 44.0457C112.804 43.9135 112.954 43.9 113.006 43.9V45.1C113.139 45.1 113.348 45.0665 113.521 44.8943C113.693 44.7221 113.726 44.5125 113.726 44.38H112.526ZM113.006 43.9H110.318V45.1H113.006V43.9ZM110.318 43.9C110.371 43.9 110.52 43.9135 110.653 44.0457C110.785 44.1779 110.798 44.3275 110.798 44.38H109.598C109.598 44.5125 109.632 44.7221 109.804 44.8943C109.976 45.0665 110.186 45.1 110.318 45.1V43.9ZM110.798 44.38V37.324H109.598V44.38H110.798ZM110.198 36.724H106.598V37.924H110.198V36.724ZM105.998 37.324V44.38H107.198V37.324H105.998ZM105.998 44.38C105.998 44.3559 106.001 44.2268 106.106 44.0952C106.232 43.938 106.402 43.9 106.502 43.9V45.1C106.667 45.1 106.885 45.042 107.043 44.8448C107.18 44.6732 107.198 44.4841 107.198 44.38H105.998ZM106.502 43.9H103.79V45.1H106.502V43.9ZM115.085 44.38L114.485 44.3791V44.38H115.085ZM115.109 27.892L115.709 27.8929V27.892H115.109ZM117.989 27.892H117.389V27.8929L117.989 27.892ZM118.013 44.38H118.613V44.3791L118.013 44.38ZM115.205 43.9C115.257 43.9 115.407 43.9135 115.539 44.0457C115.671 44.1779 115.685 44.3275 115.685 44.38H114.485C114.485 44.5125 114.519 44.7221 114.691 44.8943C114.863 45.0665 115.073 45.1 115.205 45.1V43.9ZM115.685 44.3809L115.709 27.8929L114.509 27.8911L114.485 44.3791L115.685 44.3809ZM115.709 27.892C115.709 27.9525 115.693 28.1081 115.557 28.2443C115.421 28.3805 115.265 28.396 115.205 28.396V27.196C115.081 27.196 114.877 27.2275 114.709 27.3957C114.541 27.5639 114.509 27.7675 114.509 27.892H115.709ZM115.205 28.396H117.893V27.196H115.205V28.396ZM117.893 28.396C117.833 28.396 117.677 28.3805 117.541 28.2443C117.405 28.1081 117.389 27.9525 117.389 27.892H118.589C118.589 27.7675 118.557 27.5639 118.389 27.3957C118.221 27.2275 118.017 27.196 117.893 27.196V28.396ZM117.389 27.8929L117.413 44.3809L118.613 44.3791L118.589 27.8911L117.389 27.8929ZM117.413 44.38C117.413 44.3559 117.415 44.2268 117.52 44.0952C117.646 43.938 117.817 43.9 117.917 43.9V45.1C118.081 45.1 118.3 45.042 118.458 44.8448C118.595 44.6732 118.613 44.4841 118.613 44.38H117.413ZM117.917 43.9H115.205V45.1H117.917V43.9ZM120.124 44.38L119.524 44.3791V44.38H120.124ZM120.148 27.916L120.748 27.9169V27.916H120.148ZM123.052 27.916L123.652 27.9171V27.916H123.052ZM123.028 41.548L122.428 41.5469L122.427 42.148H123.028V41.548ZM120.22 43.9C120.32 43.9 120.491 43.938 120.617 44.0952C120.722 44.2268 120.724 44.3559 120.724 44.38H119.524C119.524 44.4841 119.542 44.6732 119.68 44.8448C119.837 45.042 120.056 45.1 120.22 45.1V43.9ZM120.724 44.3809L120.748 27.9169L119.548 27.9151L119.524 44.3791L120.724 44.3809ZM120.748 27.916C120.748 27.9685 120.735 28.1181 120.602 28.2503C120.47 28.3825 120.321 28.396 120.268 28.396V27.196C120.136 27.196 119.926 27.2295 119.754 27.4017C119.582 27.5739 119.548 27.7835 119.548 27.916H120.748ZM120.268 28.396H122.932V27.196H120.268V28.396ZM122.932 28.396C122.88 28.396 122.73 28.3825 122.598 28.2503C122.466 28.1181 122.452 27.9685 122.452 27.916H123.652C123.652 27.7835 123.619 27.5739 123.446 27.4017C123.274 27.2295 123.065 27.196 122.932 27.196V28.396ZM122.452 27.9149L122.428 41.5469L123.628 41.5491L123.652 27.9171L122.452 27.9149ZM123.028 42.148H127.972V40.948H123.028V42.148ZM127.972 42.148C127.92 42.148 127.77 42.1345 127.638 42.0023C127.506 41.8701 127.492 41.7205 127.492 41.668H128.692C128.692 41.5355 128.659 41.3259 128.486 41.1537C128.314 40.9815 128.105 40.948 127.972 40.948V42.148ZM127.492 41.668V44.38H128.692V41.668H127.492ZM127.492 44.38C127.492 44.3275 127.506 44.1779 127.638 44.0457C127.77 43.9135 127.92 43.9 127.972 43.9V45.1C128.105 45.1 128.314 45.0665 128.486 44.8943C128.659 44.7221 128.692 44.5125 128.692 44.38H127.492ZM127.972 43.9H120.22V45.1H127.972V43.9ZM128.847 44.38L128.257 44.2734L128.247 44.3263V44.38H128.847ZM131.823 27.892L131.241 27.7465L131.236 27.7658L131.233 27.7854L131.823 27.892ZM135.543 27.892L136.134 27.7896L136.131 27.7679L136.125 27.7465L135.543 27.892ZM138.399 44.38L137.808 44.4824L137.809 44.4901L137.811 44.4977L138.399 44.38ZM135.519 44.38L134.926 44.4694L134.928 44.4836L134.931 44.4977L135.519 44.38ZM135.255 42.628L135.848 42.5386L135.771 42.028H135.255V42.628ZM131.991 42.628V42.028H131.475L131.398 42.5386L131.991 42.628ZM131.727 44.38L132.315 44.4977L132.318 44.4836L132.32 44.4694L131.727 44.38ZM132.471 40.06L131.879 39.9651L131.767 40.66H132.471V40.06ZM134.775 40.06V40.66H135.469L135.369 39.9734L134.775 40.06ZM133.791 33.316L134.385 33.2294L134.383 33.22L133.791 33.316ZM133.647 32.428L134.239 32.332L133.051 32.3635L133.647 32.428ZM133.551 33.316L134.144 33.4109L134.146 33.3957L134.148 33.3805L133.551 33.316ZM129.438 44.4866L132.414 27.9986L131.233 27.7854L128.257 44.2734L129.438 44.4866ZM132.405 28.0375C132.391 28.096 132.349 28.2015 132.24 28.2885C132.129 28.3771 132.013 28.396 131.943 28.396V27.196C131.81 27.196 131.641 27.2309 131.49 27.3515C131.342 27.4705 131.272 27.624 131.241 27.7465L132.405 28.0375ZM131.943 28.396H135.423V27.196H131.943V28.396ZM135.423 28.396C135.354 28.396 135.237 28.3771 135.126 28.2885C135.018 28.2015 134.976 28.096 134.961 28.0375L136.125 27.7465C136.095 27.624 136.025 27.4705 135.876 27.3515C135.725 27.2309 135.557 27.196 135.423 27.196V28.396ZM134.952 27.9944L137.808 44.4824L138.99 44.2776L136.134 27.7896L134.952 27.9944ZM137.811 44.4977C137.804 44.466 137.772 44.2783 137.919 44.0952C138.068 43.9082 138.264 43.9 138.303 43.9V45.1C138.422 45.1 138.674 45.0718 138.856 44.8448C139.034 44.6217 139.01 44.374 138.987 44.2623L137.811 44.4977ZM138.303 43.9H135.639V45.1H138.303V43.9ZM135.639 43.9C135.743 43.9 135.878 43.9381 135.985 44.0457C136.079 44.1389 136.102 44.2351 136.107 44.2623L134.931 44.4977C134.952 44.6049 135.004 44.7611 135.137 44.8943C135.285 45.0419 135.471 45.1 135.639 45.1V43.9ZM136.112 44.2906L135.848 42.5386L134.662 42.7174L134.926 44.4694L136.112 44.2906ZM135.255 42.028H131.991V43.228H135.255V42.028ZM131.398 42.5386L131.134 44.2906L132.32 44.4694L132.584 42.7174L131.398 42.5386ZM131.139 44.2623C131.144 44.2351 131.168 44.1389 131.261 44.0457C131.369 43.9381 131.503 43.9 131.607 43.9V45.1C131.775 45.1 131.962 45.0419 132.109 44.8943C132.243 44.7611 132.294 44.6049 132.315 44.4977L131.139 44.2623ZM131.607 43.9H128.943V45.1H131.607V43.9ZM128.943 43.9C129.044 43.9 129.214 43.938 129.34 44.0952C129.445 44.2268 129.447 44.3559 129.447 44.38H128.247C128.247 44.4841 128.265 44.6732 128.403 44.8448C128.56 45.042 128.779 45.1 128.943 45.1V43.9ZM132.471 40.66H134.775V39.46H132.471V40.66ZM135.369 39.9734L134.385 33.2294L133.197 33.4026L134.181 40.1466L135.369 39.9734ZM134.383 33.22L134.239 32.332L133.055 32.524L133.199 33.412L134.383 33.22ZM133.051 32.3635L132.955 33.2515L134.148 33.3805L134.244 32.4925L133.051 32.3635ZM132.959 33.2211L131.879 39.9651L133.064 40.1549L134.144 33.4109L132.959 33.2211Z" fill="url(#paint2_linear_823_10369)" fill-opacity="0.3" mask="url(#path-4-inside-1_823_10369)"/>
<defs>
<linearGradient id="paint0_linear_823_10369" x1="-13.0353" y1="79.0566" x2="83.7219" y2="-5.60595" gradientUnits="userSpaceOnUse">
<stop stop-color="#E51717"/>
<stop offset="1" stop-color="#E51717" stop-opacity="0"/>
</linearGradient>
<linearGradient id="paint1_linear_823_10369" x1="68" y1="36.5" x2="139" y2="36.5" gradientUnits="userSpaceOnUse">
<stop offset="0.644841" stop-color="white"/>
<stop offset="1" stop-color="white" stop-opacity="0.3"/>
</linearGradient>
<linearGradient id="paint2_linear_823_10369" x1="68" y1="36.5" x2="139" y2="36.5" gradientUnits="userSpaceOnUse">
<stop offset="0.644841" stop-color="white"/>
<stop offset="1" stop-color="white" stop-opacity="0.3"/>
</linearGradient>
</defs>
</svg>
