<svg width="143" height="64" viewBox="0 0 143 64" fill="none" xmlns="http://www.w3.org/2000/svg">
<path d="M30.7784 61.9516C29.0568 62.9354 26.9432 62.9354 25.2216 61.9516L3.22161 49.3801C1.4768 48.3831 0.399999 46.5276 0.399999 44.518L0.399998 19.4811C0.399998 17.4714 1.47685 15.6159 3.22174 14.6189L25.2217 2.04818C26.9433 1.06449 29.0567 1.06449 30.7783 2.04818L52.7782 14.6189C54.5231 15.6159 55.6 17.4714 55.6 19.4811L55.6 44.518C55.6 46.5276 54.5232 48.3831 52.7784 49.3801L30.7784 61.9516Z" fill="black" fill-opacity="0.6"/>
<path d="M30.7784 61.9516C29.0568 62.9354 26.9432 62.9354 25.2216 61.9516L3.22161 49.3801C1.4768 48.3831 0.399999 46.5276 0.399999 44.518L0.399998 19.4811C0.399998 17.4714 1.47685 15.6159 3.22174 14.6189L25.2217 2.04818C26.9433 1.06449 29.0567 1.06449 30.7783 2.04818L52.7782 14.6189C54.5231 15.6159 55.6 17.4714 55.6 19.4811L55.6 44.518C55.6 46.5276 54.5232 48.3831 52.7784 49.3801L30.7784 61.9516Z" fill="url(#paint0_linear_823_10178)"/>
<path d="M30.7784 61.9516C29.0568 62.9354 26.9432 62.9354 25.2216 61.9516L3.22161 49.3801C1.4768 48.3831 0.399999 46.5276 0.399999 44.518L0.399998 19.4811C0.399998 17.4714 1.47685 15.6159 3.22174 14.6189L25.2217 2.04818C26.9433 1.06449 29.0567 1.06449 30.7783 2.04818L52.7782 14.6189C54.5231 15.6159 55.6 17.4714 55.6 19.4811L55.6 44.518C55.6 46.5276 54.5232 48.3831 52.7784 49.3801L30.7784 61.9516Z" stroke="#E51717" stroke-width="0.8"/>
<g clip-path="url(#clip0_823_10178)">
<path d="M16 23.5156V24.9219H28H40V23.5156V22.1094H28H16V23.5156Z" fill="white"/>
<path d="M17.4062 30.5469V34.7656H28H38.5938V30.5469V26.3281H37.1875H35.7812V29.1406V31.9531H28H20.2188V29.1406V26.3281H18.8125H17.4062V30.5469Z" fill="white"/>
<path d="M21.625 28.4375V30.5469H28H34.375V28.4375V26.3281H28H21.625V28.4375ZM28.7031 28.4375V29.1406H28H27.2969V28.4375V27.7344H28H28.7031V28.4375Z" fill="white"/>
<path d="M17.4062 39.0312V41.8906H18.1094H18.8125V40.8359V39.7812H28H37.1875V40.8359V41.8906H37.8906H38.5938V39.0312V36.1719H37.8906H37.1875V37.2734V38.375H28H18.8125V37.2734V36.1719H18.1094H17.4062V39.0312Z" fill="white"/>
</g>
<path d="M68.924 21.5V12.776H70.37V21.5H68.924ZM72.2941 21.5V12.776H73.7221V20.912L73.0321 20.156H77.3581V21.5H72.2941ZM78.5754 21.5V12.776H83.8854V14.096H79.3854L79.9794 13.448V16.742L79.3854 16.328H83.5554V17.63H79.6314L79.9794 17.174V20.822L79.3854 20.168H83.9514V21.5H78.5754ZM88.9385 21.62C88.1185 21.62 87.4025 21.438 86.7905 21.074C86.1785 20.706 85.7045 20.186 85.3685 19.514C85.0365 18.838 84.8705 18.036 84.8705 17.108C84.8705 16.184 85.0345 15.386 85.3625 14.714C85.6945 14.042 86.1585 13.524 86.7545 13.16C87.3505 12.796 88.0425 12.614 88.8305 12.614C89.3705 12.614 89.8705 12.714 90.3305 12.914C90.7905 13.11 91.1725 13.412 91.4765 13.82C91.7805 14.224 91.9705 14.74 92.0465 15.368H90.6125C90.5845 15.168 90.5205 14.982 90.4205 14.81C90.3245 14.634 90.1985 14.48 90.0425 14.348C89.8905 14.216 89.7085 14.114 89.4965 14.042C89.2885 13.966 89.0565 13.928 88.8005 13.928C88.4245 13.928 88.0825 14 87.7745 14.144C87.4705 14.288 87.2105 14.498 86.9945 14.774C86.7785 15.046 86.6125 15.38 86.4965 15.776C86.3805 16.168 86.3225 16.614 86.3225 17.114C86.3225 17.782 86.4265 18.354 86.6345 18.83C86.8425 19.306 87.1405 19.672 87.5285 19.928C87.9205 20.18 88.3925 20.306 88.9445 20.306C89.1725 20.306 89.4005 20.286 89.6285 20.246C89.8605 20.206 90.0765 20.146 90.2765 20.066C90.4805 19.986 90.6485 19.886 90.7805 19.766V18.122H88.9745V16.862H92.1245L92.1125 20.498C91.6805 20.83 91.1985 21.1 90.6665 21.308C90.1385 21.516 89.5625 21.62 88.9385 21.62ZM93.0469 21.5L95.9209 12.776H97.7809L100.655 21.5H99.1489L98.3509 18.878L99.1609 19.448H94.8529L95.2969 18.26H98.7949L98.3449 18.86L97.4029 15.8L96.8689 13.826H96.8209L96.2989 15.8L94.5469 21.5H93.0469ZM101.767 21.5V12.776H103.195V20.912L102.505 20.156H106.831V21.5H101.767Z" fill="#DDDDDD" fill-opacity="0.6"/>
<mask id="path-7-inside-1_823_10178" fill="white">
<path d="M69.056 44.5C68.992 44.5 68.96 44.46 68.96 44.38L69.008 27.892C69.008 27.828 69.04 27.796 69.104 27.796H73.712C74.624 27.796 75.44 28.02 76.16 28.468C76.88 28.9 77.448 29.476 77.864 30.196C78.28 30.916 78.488 31.7 78.488 32.548C78.488 33.236 78.328 33.876 78.008 34.468C77.704 35.06 77.336 35.54 76.904 35.908C77.368 36.372 77.728 36.908 77.984 37.516C78.24 38.124 78.368 38.764 78.368 39.436C78.368 40.364 78.144 41.212 77.696 41.98C77.248 42.748 76.64 43.364 75.872 43.828C75.12 44.276 74.28 44.5 73.352 44.5H69.056ZM71.888 34.42H73.712C74.272 34.42 74.72 34.228 75.056 33.844C75.408 33.444 75.584 33.012 75.584 32.548C75.584 32.036 75.4 31.596 75.032 31.228C74.664 30.844 74.224 30.652 73.712 30.652H71.888V34.42ZM71.864 41.572H73.352C73.928 41.572 74.424 41.364 74.84 40.948C75.256 40.516 75.464 40.012 75.464 39.436C75.464 38.86 75.256 38.364 74.84 37.948C74.424 37.532 73.928 37.324 73.352 37.324H71.888L71.864 41.572ZM78.8081 44.38L81.7841 27.892C81.8001 27.828 81.8401 27.796 81.9041 27.796H85.3841C85.4481 27.796 85.4881 27.828 85.5041 27.892L88.3601 44.38C88.3761 44.46 88.3441 44.5 88.2641 44.5H85.6001C85.5361 44.5 85.4961 44.46 85.4801 44.38L85.2161 42.628H81.9521L81.6881 44.38C81.6721 44.46 81.6321 44.5 81.5681 44.5H78.9041C78.8401 44.5 78.8081 44.46 78.8081 44.38ZM82.4321 40.06H84.7361L83.7521 33.316L83.6081 32.428L83.5121 33.316L82.4321 40.06ZM90.0823 44.5C89.9543 44.5 89.8903 44.444 89.8903 44.332L89.8663 27.988C89.8663 27.86 89.9303 27.796 90.0583 27.796H92.2183L96.2743 37.252L96.1543 27.988C96.1543 27.86 96.2263 27.796 96.3703 27.796H98.7463C98.8423 27.796 98.8903 27.86 98.8903 27.988L98.9143 44.356C98.9143 44.452 98.8743 44.5 98.7943 44.5H96.6823L92.5303 35.668L92.6983 44.308C92.6983 44.436 92.6263 44.5 92.4823 44.5H90.0823ZM105.415 44.74C104.535 44.74 103.735 44.524 103.015 44.092C102.311 43.644 101.751 43.052 101.335 42.316C100.919 41.58 100.711 40.756 100.711 39.844L100.735 32.356C100.735 31.476 100.935 30.676 101.335 29.956C101.751 29.22 102.311 28.636 103.015 28.204C103.735 27.756 104.535 27.532 105.415 27.532C106.295 27.532 107.087 27.748 107.791 28.18C108.495 28.612 109.055 29.196 109.471 29.932C109.887 30.652 110.095 31.46 110.095 32.356V33.46C110.095 33.524 110.063 33.556 109.999 33.556H107.311C107.247 33.556 107.215 33.524 107.215 33.46V32.356C107.215 31.828 107.039 31.372 106.687 30.988C106.351 30.604 105.927 30.412 105.415 30.412C104.839 30.412 104.399 30.612 104.095 31.012C103.791 31.396 103.639 31.844 103.639 32.356V39.844C103.639 40.436 103.807 40.916 104.143 41.284C104.495 41.652 104.919 41.836 105.415 41.836C105.927 41.836 106.351 41.636 106.687 41.236C107.039 40.82 107.215 40.356 107.215 39.844V38.74C107.215 38.676 107.247 38.644 107.311 38.644H110.023C110.087 38.644 110.119 38.676 110.119 38.74V39.844C110.119 40.756 109.903 41.58 109.471 42.316C109.055 43.052 108.495 43.644 107.791 44.092C107.087 44.524 106.295 44.74 105.415 44.74ZM110.988 44.38L113.964 27.892C113.98 27.828 114.02 27.796 114.084 27.796H117.564C117.628 27.796 117.668 27.828 117.684 27.892L120.54 44.38C120.556 44.46 120.524 44.5 120.444 44.5H117.78C117.716 44.5 117.676 44.46 117.66 44.38L117.396 42.628H114.132L113.868 44.38C113.852 44.46 113.812 44.5 113.748 44.5H111.084C111.02 44.5 110.988 44.46 110.988 44.38ZM114.612 40.06H116.916L115.932 33.316L115.788 32.428L115.692 33.316L114.612 40.06ZM122.166 44.5C122.086 44.5 122.046 44.46 122.046 44.38L122.094 27.892C122.094 27.828 122.126 27.796 122.19 27.796L126.678 27.772C127.558 27.756 128.358 27.964 129.078 28.396C129.814 28.828 130.398 29.412 130.83 30.148C131.262 30.868 131.478 31.668 131.478 32.548V39.436C131.478 40.364 131.254 41.212 130.806 41.98C130.358 42.732 129.758 43.332 129.006 43.78C128.254 44.228 127.406 44.46 126.462 44.476L122.166 44.5ZM124.974 41.548H126.462C127.054 41.548 127.55 41.34 127.95 40.924C128.366 40.508 128.574 40.012 128.574 39.436V32.524C128.574 32.012 128.382 31.572 127.998 31.204C127.63 30.82 127.19 30.636 126.678 30.652L124.998 30.676L124.974 41.548ZM132.082 44.38L135.058 27.892C135.074 27.828 135.114 27.796 135.178 27.796H138.658C138.722 27.796 138.762 27.828 138.778 27.892L141.634 44.38C141.65 44.46 141.618 44.5 141.538 44.5H138.874C138.81 44.5 138.77 44.46 138.754 44.38L138.49 42.628H135.226L134.962 44.38C134.946 44.46 134.906 44.5 134.842 44.5H132.178C132.114 44.5 132.082 44.46 132.082 44.38ZM135.706 40.06H138.01L137.026 33.316L136.882 32.428L136.786 33.316L135.706 40.06Z"/>
</mask>
<path d="M69.056 44.5C68.992 44.5 68.96 44.46 68.96 44.38L69.008 27.892C69.008 27.828 69.04 27.796 69.104 27.796H73.712C74.624 27.796 75.44 28.02 76.16 28.468C76.88 28.9 77.448 29.476 77.864 30.196C78.28 30.916 78.488 31.7 78.488 32.548C78.488 33.236 78.328 33.876 78.008 34.468C77.704 35.06 77.336 35.54 76.904 35.908C77.368 36.372 77.728 36.908 77.984 37.516C78.24 38.124 78.368 38.764 78.368 39.436C78.368 40.364 78.144 41.212 77.696 41.98C77.248 42.748 76.64 43.364 75.872 43.828C75.12 44.276 74.28 44.5 73.352 44.5H69.056ZM71.888 34.42H73.712C74.272 34.42 74.72 34.228 75.056 33.844C75.408 33.444 75.584 33.012 75.584 32.548C75.584 32.036 75.4 31.596 75.032 31.228C74.664 30.844 74.224 30.652 73.712 30.652H71.888V34.42ZM71.864 41.572H73.352C73.928 41.572 74.424 41.364 74.84 40.948C75.256 40.516 75.464 40.012 75.464 39.436C75.464 38.86 75.256 38.364 74.84 37.948C74.424 37.532 73.928 37.324 73.352 37.324H71.888L71.864 41.572ZM78.8081 44.38L81.7841 27.892C81.8001 27.828 81.8401 27.796 81.9041 27.796H85.3841C85.4481 27.796 85.4881 27.828 85.5041 27.892L88.3601 44.38C88.3761 44.46 88.3441 44.5 88.2641 44.5H85.6001C85.5361 44.5 85.4961 44.46 85.4801 44.38L85.2161 42.628H81.9521L81.6881 44.38C81.6721 44.46 81.6321 44.5 81.5681 44.5H78.9041C78.8401 44.5 78.8081 44.46 78.8081 44.38ZM82.4321 40.06H84.7361L83.7521 33.316L83.6081 32.428L83.5121 33.316L82.4321 40.06ZM90.0823 44.5C89.9543 44.5 89.8903 44.444 89.8903 44.332L89.8663 27.988C89.8663 27.86 89.9303 27.796 90.0583 27.796H92.2183L96.2743 37.252L96.1543 27.988C96.1543 27.86 96.2263 27.796 96.3703 27.796H98.7463C98.8423 27.796 98.8903 27.86 98.8903 27.988L98.9143 44.356C98.9143 44.452 98.8743 44.5 98.7943 44.5H96.6823L92.5303 35.668L92.6983 44.308C92.6983 44.436 92.6263 44.5 92.4823 44.5H90.0823ZM105.415 44.74C104.535 44.74 103.735 44.524 103.015 44.092C102.311 43.644 101.751 43.052 101.335 42.316C100.919 41.58 100.711 40.756 100.711 39.844L100.735 32.356C100.735 31.476 100.935 30.676 101.335 29.956C101.751 29.22 102.311 28.636 103.015 28.204C103.735 27.756 104.535 27.532 105.415 27.532C106.295 27.532 107.087 27.748 107.791 28.18C108.495 28.612 109.055 29.196 109.471 29.932C109.887 30.652 110.095 31.46 110.095 32.356V33.46C110.095 33.524 110.063 33.556 109.999 33.556H107.311C107.247 33.556 107.215 33.524 107.215 33.46V32.356C107.215 31.828 107.039 31.372 106.687 30.988C106.351 30.604 105.927 30.412 105.415 30.412C104.839 30.412 104.399 30.612 104.095 31.012C103.791 31.396 103.639 31.844 103.639 32.356V39.844C103.639 40.436 103.807 40.916 104.143 41.284C104.495 41.652 104.919 41.836 105.415 41.836C105.927 41.836 106.351 41.636 106.687 41.236C107.039 40.82 107.215 40.356 107.215 39.844V38.74C107.215 38.676 107.247 38.644 107.311 38.644H110.023C110.087 38.644 110.119 38.676 110.119 38.74V39.844C110.119 40.756 109.903 41.58 109.471 42.316C109.055 43.052 108.495 43.644 107.791 44.092C107.087 44.524 106.295 44.74 105.415 44.74ZM110.988 44.38L113.964 27.892C113.98 27.828 114.02 27.796 114.084 27.796H117.564C117.628 27.796 117.668 27.828 117.684 27.892L120.54 44.38C120.556 44.46 120.524 44.5 120.444 44.5H117.78C117.716 44.5 117.676 44.46 117.66 44.38L117.396 42.628H114.132L113.868 44.38C113.852 44.46 113.812 44.5 113.748 44.5H111.084C111.02 44.5 110.988 44.46 110.988 44.38ZM114.612 40.06H116.916L115.932 33.316L115.788 32.428L115.692 33.316L114.612 40.06ZM122.166 44.5C122.086 44.5 122.046 44.46 122.046 44.38L122.094 27.892C122.094 27.828 122.126 27.796 122.19 27.796L126.678 27.772C127.558 27.756 128.358 27.964 129.078 28.396C129.814 28.828 130.398 29.412 130.83 30.148C131.262 30.868 131.478 31.668 131.478 32.548V39.436C131.478 40.364 131.254 41.212 130.806 41.98C130.358 42.732 129.758 43.332 129.006 43.78C128.254 44.228 127.406 44.46 126.462 44.476L122.166 44.5ZM124.974 41.548H126.462C127.054 41.548 127.55 41.34 127.95 40.924C128.366 40.508 128.574 40.012 128.574 39.436V32.524C128.574 32.012 128.382 31.572 127.998 31.204C127.63 30.82 127.19 30.636 126.678 30.652L124.998 30.676L124.974 41.548ZM132.082 44.38L135.058 27.892C135.074 27.828 135.114 27.796 135.178 27.796H138.658C138.722 27.796 138.762 27.828 138.778 27.892L141.634 44.38C141.65 44.46 141.618 44.5 141.538 44.5H138.874C138.81 44.5 138.77 44.46 138.754 44.38L138.49 42.628H135.226L134.962 44.38C134.946 44.46 134.906 44.5 134.842 44.5H132.178C132.114 44.5 132.082 44.46 132.082 44.38ZM135.706 40.06H138.01L137.026 33.316L136.882 32.428L136.786 33.316L135.706 40.06Z" fill="url(#paint1_linear_823_10178)" fill-opacity="0.85"/>
<path d="M68.96 44.38L68.36 44.3783V44.38H68.96ZM69.008 27.892L69.608 27.8937V27.892H69.008ZM76.16 28.468L75.843 28.9775L75.8513 28.9825L76.16 28.468ZM78.008 34.468L77.4801 34.1826L77.4743 34.1939L78.008 34.468ZM76.904 35.908L76.5149 35.4513L76.0202 35.8727L76.4797 36.3323L76.904 35.908ZM77.984 37.516L77.431 37.7488L77.984 37.516ZM77.696 41.98L78.2143 42.2823L77.696 41.98ZM75.872 43.828L76.1791 44.3435L76.1823 44.3415L75.872 43.828ZM71.888 34.42H71.288V35.02H71.888V34.42ZM75.056 33.844L74.6056 33.4476L74.6045 33.4489L75.056 33.844ZM75.032 31.228L74.5987 31.6432L74.6077 31.6523L75.032 31.228ZM71.888 30.652V30.052H71.288V30.652H71.888ZM71.864 41.572L71.264 41.5686L71.2606 42.172H71.864V41.572ZM74.84 40.948L75.2643 41.3723L75.2722 41.3642L74.84 40.948ZM71.888 37.324V36.724H71.2914L71.288 37.3206L71.888 37.324ZM69.056 43.9C69.1564 43.9 69.3268 43.938 69.4525 44.0952C69.5578 44.2268 69.56 44.3559 69.56 44.38H68.36C68.36 44.4841 68.3782 44.6732 68.5155 44.8448C68.6732 45.042 68.8916 45.1 69.056 45.1V43.9ZM69.56 44.3817L69.608 27.8937L68.408 27.8903L68.36 44.3783L69.56 44.3817ZM69.608 27.892C69.608 27.9525 69.5925 28.1081 69.4563 28.2443C69.3201 28.3805 69.1645 28.396 69.104 28.396V27.196C68.9795 27.196 68.7759 27.2275 68.6077 27.3957C68.4395 27.5639 68.408 27.7675 68.408 27.892H69.608ZM69.104 28.396H73.712V27.196H69.104V28.396ZM73.712 28.396C74.5208 28.396 75.2254 28.5931 75.843 28.9774L76.477 27.9586C75.6546 27.4469 74.7272 27.196 73.712 27.196V28.396ZM75.8513 28.9825C76.4849 29.3626 76.9799 29.8652 77.3445 30.4962L78.3835 29.8958C77.9161 29.0868 77.2751 28.4374 76.4687 27.9535L75.8513 28.9825ZM77.3445 30.4962C77.7067 31.123 77.888 31.8032 77.888 32.548H79.088C79.088 31.5968 78.8533 30.709 78.3835 29.8958L77.3445 30.4962ZM77.888 32.548C77.888 33.1387 77.7517 33.6803 77.4802 34.1827L78.5358 34.7533C78.9043 34.0717 79.088 33.3333 79.088 32.548H77.888ZM77.4743 34.1939C77.2 34.728 76.8778 35.1421 76.5149 35.4513L77.2931 36.3647C77.7942 35.9379 78.208 35.392 78.5417 34.7421L77.4743 34.1939ZM76.4797 36.3323C76.8886 36.7411 77.205 37.212 77.431 37.7488L78.537 37.2832C78.251 36.604 77.8474 36.0029 77.3283 35.4837L76.4797 36.3323ZM77.431 37.7488C77.6554 38.2817 77.768 38.8424 77.768 39.436H78.968C78.968 38.6856 78.8246 37.9663 78.537 37.2832L77.431 37.7488ZM77.768 39.436C77.768 40.2626 77.5698 41.0055 77.1777 41.6777L78.2143 42.2823C78.7182 41.4185 78.968 40.4654 78.968 39.436H77.768ZM77.1777 41.6777C76.7808 42.3582 76.2446 42.9019 75.5617 43.3145L76.1823 44.3415C77.0354 43.8261 77.7152 43.1378 78.2143 42.2823L77.1777 41.6777ZM75.5649 43.3125C74.9114 43.7018 74.1787 43.9 73.352 43.9V45.1C74.3813 45.1 75.3286 44.8502 76.1791 44.3435L75.5649 43.3125ZM73.352 43.9H69.056V45.1H73.352V43.9ZM71.888 35.02H73.712V33.82H71.888V35.02ZM73.712 35.02C74.4261 35.02 75.0457 34.7669 75.5075 34.2391L74.6045 33.4489C74.3943 33.6891 74.1179 33.82 73.712 33.82V35.02ZM75.5064 34.2404C75.9396 33.7481 76.184 33.1794 76.184 32.548H74.984C74.984 32.8446 74.8764 33.1399 74.6056 33.4476L75.5064 34.2404ZM76.184 32.548C76.184 31.874 75.9347 31.2822 75.4563 30.8037L74.6077 31.6523C74.8653 31.9098 74.984 32.198 74.984 32.548H76.184ZM75.4652 30.8129C74.989 30.3159 74.3946 30.052 73.712 30.052V31.252C74.0534 31.252 74.339 31.3721 74.5988 31.6431L75.4652 30.8129ZM73.712 30.052H71.888V31.252H73.712V30.052ZM71.288 30.652V34.42H72.488V30.652H71.288ZM71.864 42.172H73.352V40.972H71.864V42.172ZM73.352 42.172C74.0909 42.172 74.7384 41.8981 75.2643 41.3723L74.4157 40.5237C74.1096 40.8299 73.7651 40.972 73.352 40.972V42.172ZM75.2722 41.3642C75.7909 40.8255 76.064 40.1742 76.064 39.436H74.864C74.864 39.8498 74.7211 40.2065 74.4078 40.5318L75.2722 41.3642ZM76.064 39.436C76.064 38.6971 75.7901 38.0496 75.2643 37.5237L74.4157 38.3723C74.7219 38.6784 74.864 39.0229 74.864 39.436H76.064ZM75.2643 37.5237C74.7384 36.9979 74.0909 36.724 73.352 36.724V37.924C73.7651 37.924 74.1096 38.0661 74.4157 38.3723L75.2643 37.5237ZM73.352 36.724H71.888V37.924H73.352V36.724ZM71.288 37.3206L71.264 41.5686L72.464 41.5754L72.488 37.3274L71.288 37.3206ZM78.8081 44.38L78.2176 44.2734L78.2081 44.3263V44.38H78.8081ZM81.7841 27.892L81.202 27.7465L81.1971 27.7658L81.1936 27.7854L81.7841 27.892ZM85.5041 27.892L86.0953 27.7896L86.0915 27.7679L86.0861 27.7465L85.5041 27.892ZM88.3601 44.38L87.7689 44.4824L87.7702 44.4901L87.7717 44.4977L88.3601 44.38ZM85.4801 44.38L84.8868 44.4694L84.8889 44.4836L84.8917 44.4977L85.4801 44.38ZM85.2161 42.628L85.8094 42.5386L85.7324 42.028H85.2161V42.628ZM81.9521 42.628V42.028H81.4357L81.3588 42.5386L81.9521 42.628ZM81.6881 44.38L82.2764 44.4977L82.2792 44.4836L82.2814 44.4694L81.6881 44.38ZM82.4321 40.06L81.8396 39.9651L81.7283 40.66H82.4321V40.06ZM84.7361 40.06V40.66H85.43L85.3298 39.9734L84.7361 40.06ZM83.7521 33.316L84.3459 33.2294L84.3443 33.22L83.7521 33.316ZM83.6081 32.428L84.2003 32.332L83.0115 32.3635L83.6081 32.428ZM83.5121 33.316L84.1045 33.4109L84.1069 33.3957L84.1086 33.3805L83.5121 33.316ZM79.3985 44.4866L82.3745 27.9986L81.1936 27.7854L78.2176 44.2734L79.3985 44.4866ZM82.3661 28.0375C82.3515 28.096 82.3097 28.2015 82.2009 28.2885C82.0902 28.3771 81.9735 28.396 81.9041 28.396V27.196C81.7706 27.196 81.6019 27.2309 81.4512 27.3515C81.3024 27.4705 81.2326 27.624 81.202 27.7465L82.3661 28.0375ZM81.9041 28.396H85.3841V27.196H81.9041V28.396ZM85.3841 28.396C85.3146 28.396 85.1979 28.3771 85.0872 28.2885C84.9784 28.2015 84.9366 28.096 84.922 28.0375L86.0861 27.7465C86.0555 27.624 85.9857 27.4705 85.8369 27.3515C85.6862 27.2309 85.5175 27.196 85.3841 27.196V28.396ZM84.9129 27.9944L87.7689 44.4824L88.9513 44.2776L86.0953 27.7896L84.9129 27.9944ZM87.7717 44.4977C87.7654 44.466 87.7331 44.2783 87.8795 44.0952C88.0292 43.9082 88.225 43.9 88.2641 43.9V45.1C88.3831 45.1 88.635 45.0718 88.8166 44.8448C88.9951 44.6217 88.9707 44.374 88.9484 44.2623L87.7717 44.4977ZM88.2641 43.9H85.6001V45.1H88.2641V43.9ZM85.6001 43.9C85.7044 43.9 85.8387 43.9381 85.9463 44.0457C86.0395 44.1389 86.063 44.2351 86.0684 44.2623L84.8917 44.4977C84.9132 44.6049 84.9646 44.7611 85.0978 44.8943C85.2455 45.0419 85.4317 45.1 85.6001 45.1V43.9ZM86.0734 44.2906L85.8094 42.5386L84.6228 42.7174L84.8868 44.4694L86.0734 44.2906ZM85.2161 42.028H81.9521V43.228H85.2161V42.028ZM81.3588 42.5386L81.0948 44.2906L82.2814 44.4694L82.5454 42.7174L81.3588 42.5386ZM81.0997 44.2623C81.1052 44.2351 81.1286 44.1389 81.2218 44.0457C81.3295 43.9381 81.4637 43.9 81.5681 43.9V45.1C81.7364 45.1 81.9227 45.0419 82.0703 44.8943C82.2035 44.7611 82.255 44.6049 82.2764 44.4977L81.0997 44.2623ZM81.5681 43.9H78.9041V45.1H81.5681V43.9ZM78.9041 43.9C79.0045 43.9 79.1749 43.938 79.3006 44.0952C79.4059 44.2268 79.4081 44.3559 79.4081 44.38H78.2081C78.2081 44.4841 78.2263 44.6732 78.3635 44.8448C78.5213 45.042 78.7396 45.1 78.9041 45.1V43.9ZM82.4321 40.66H84.7361V39.46H82.4321V40.66ZM85.3298 39.9734L84.3458 33.2294L83.1583 33.4026L84.1423 40.1466L85.3298 39.9734ZM84.3443 33.22L84.2003 32.332L83.0158 32.524L83.1598 33.412L84.3443 33.22ZM83.0115 32.3635L82.9155 33.2515L84.1086 33.3805L84.2046 32.4925L83.0115 32.3635ZM82.9196 33.2211L81.8396 39.9651L83.0245 40.1549L84.1045 33.4109L82.9196 33.2211ZM89.8902 44.332H90.4903L90.4902 44.3311L89.8902 44.332ZM89.8663 27.988H89.2662L89.2663 27.9889L89.8663 27.988ZM92.2183 27.796L92.7697 27.5595L92.6138 27.196H92.2183V27.796ZM96.2743 37.252L95.7228 37.4885L96.8742 37.2442L96.2743 37.252ZM96.1543 27.988H95.5542L95.5543 27.9958L96.1543 27.988ZM98.8903 27.988H98.2902L98.2903 27.9889L98.8903 27.988ZM98.9143 44.356H99.5143L99.5142 44.3551L98.9143 44.356ZM96.6823 44.5L96.1393 44.7553L96.3013 45.1H96.6823V44.5ZM92.5303 35.668L93.0732 35.4127L91.9304 35.6797L92.5303 35.668ZM92.6982 44.308H93.2984L93.2981 44.2963L92.6982 44.308ZM90.0823 43.9C90.0925 43.9 90.2123 43.9005 90.3334 44.0065C90.4697 44.1258 90.4902 44.2731 90.4902 44.332H89.2903C89.2903 44.5029 89.3428 44.7342 89.5431 44.9095C89.7282 45.0715 89.944 45.1 90.0823 45.1V43.9ZM90.4902 44.3311L90.4662 27.9871L89.2663 27.9889L89.2903 44.3329L90.4902 44.3311ZM90.4662 27.988C90.4662 28.0165 90.4587 28.1481 90.3385 28.2683C90.2183 28.3885 90.0867 28.396 90.0583 28.396V27.196C89.9018 27.196 89.6742 27.2355 89.49 27.4197C89.3058 27.6039 89.2663 27.8315 89.2663 27.988H90.4662ZM90.0583 28.396H92.2183V27.196H90.0583V28.396ZM91.6668 28.0325L95.7228 37.4885L96.8257 37.0155L92.7697 27.5595L91.6668 28.0325ZM96.8742 37.2442L96.7542 27.9802L95.5543 27.9958L95.6743 37.2598L96.8742 37.2442ZM96.7542 27.988C96.7542 28.036 96.7375 28.1763 96.6069 28.2924C96.4897 28.3966 96.3745 28.396 96.3703 28.396V27.196C96.222 27.196 95.9988 27.2274 95.8096 27.3956C95.607 27.5757 95.5543 27.812 95.5543 27.988H96.7542ZM96.3703 28.396H98.7463V27.196H96.3703V28.396ZM98.7463 28.396C98.7042 28.396 98.6391 28.389 98.5656 28.3563C98.4885 28.322 98.4227 28.2686 98.3742 28.204C98.3284 28.1428 98.3081 28.0853 98.2992 28.0495C98.2904 28.0144 98.2903 27.9915 98.2903 27.988H99.4902C99.4902 27.8663 99.4705 27.6656 99.3343 27.484C99.1737 27.2699 98.9406 27.196 98.7463 27.196V28.396ZM98.2903 27.9889L98.3143 44.3569L99.5142 44.3551L99.4902 27.9871L98.2903 27.9889ZM98.3143 44.356C98.3143 44.3355 98.3163 44.2084 98.4233 44.0799C98.5478 43.9305 98.7101 43.9 98.7943 43.9V45.1C98.9584 45.1 99.1807 45.0455 99.3452 44.8481C99.4922 44.6716 99.5142 44.4725 99.5142 44.356H98.3143ZM98.7943 43.9H96.6823V45.1H98.7943V43.9ZM97.2252 44.2447L93.0732 35.4127L91.9873 35.9233L96.1393 44.7553L97.2252 44.2447ZM91.9304 35.6797L92.0984 44.3197L93.2981 44.2963L93.1301 35.6563L91.9304 35.6797ZM92.0982 44.308C92.0982 44.26 92.115 44.1197 92.2456 44.0036C92.3628 43.8994 92.478 43.9 92.4823 43.9V45.1C92.6305 45.1 92.8537 45.0686 93.0429 44.9004C93.2455 44.7203 93.2983 44.484 93.2983 44.308H92.0982ZM92.4823 43.9H90.0823V45.1H92.4823V43.9ZM103.015 44.092L102.693 44.5982L102.7 44.6024L102.706 44.6065L103.015 44.092ZM101.335 42.316L100.813 42.6112L101.335 42.316ZM100.711 39.844L100.111 39.8421V39.844H100.711ZM100.735 32.356L101.335 32.3579V32.356H100.735ZM101.335 29.956L100.813 29.6608L100.811 29.6646L101.335 29.956ZM103.015 28.204L103.329 28.7154L103.332 28.7134L103.015 28.204ZM107.791 28.18L107.477 28.6914V28.6914L107.791 28.18ZM109.471 29.932L108.949 30.2272L108.952 30.2322L109.471 29.932ZM106.687 30.988L106.235 31.3832L106.245 31.3934L106.687 30.988ZM104.095 31.012L104.566 31.3845L104.573 31.375L104.095 31.012ZM104.143 41.284L103.7 41.6887L103.709 41.6987L104.143 41.284ZM106.687 41.236L106.229 40.8484L106.228 40.8501L106.687 41.236ZM109.471 42.316L108.954 42.0122L108.949 42.0208L109.471 42.316ZM107.791 44.092L108.105 44.6035L108.113 44.5982L107.791 44.092ZM105.415 44.14C104.638 44.14 103.946 43.9508 103.324 43.5775L102.706 44.6065C103.524 45.0972 104.432 45.34 105.415 45.34V44.14ZM103.337 43.5858C102.717 43.1914 102.226 42.6723 101.857 42.0208L100.813 42.6112C101.276 43.4317 101.905 44.0966 102.693 44.5982L103.337 43.5858ZM101.857 42.0208C101.496 41.3819 101.311 40.6609 101.311 39.844H100.111C100.111 40.8511 100.342 41.7781 100.813 42.6112L101.857 42.0208ZM101.311 39.8459L101.335 32.3579L100.135 32.3541L100.111 39.8421L101.311 39.8459ZM101.335 32.356C101.335 31.5708 101.512 30.8722 101.86 30.2474L100.811 29.6646C100.358 30.4798 100.135 31.3812 100.135 32.356H101.335ZM101.857 30.2512C102.225 29.6016 102.714 29.0929 103.329 28.7154L102.701 27.6926C101.908 28.1791 101.278 28.8384 100.813 29.6608L101.857 30.2512ZM103.332 28.7134C103.953 28.3269 104.643 28.132 105.415 28.132V26.932C104.427 26.932 103.517 27.1851 102.698 27.6946L103.332 28.7134ZM105.415 28.132C106.192 28.132 106.874 28.3212 107.477 28.6914L108.105 27.6686C107.3 27.1748 106.398 26.932 105.415 26.932V28.132ZM107.477 28.6914C108.092 29.0689 108.582 29.5776 108.949 30.2272L109.993 29.6368C109.529 28.8144 108.898 28.1551 108.105 27.6686L107.477 28.6914ZM108.952 30.2322C109.311 30.8539 109.495 31.5569 109.495 32.356H110.695C110.695 31.3631 110.463 30.4501 109.991 29.6318L108.952 30.2322ZM109.495 32.356V33.46H110.695V32.356H109.495ZM109.495 33.46C109.495 33.3995 109.511 33.2439 109.647 33.1077C109.783 32.9715 109.939 32.956 109.999 32.956V34.156C110.124 34.156 110.327 34.1245 110.495 33.9563C110.664 33.7881 110.695 33.5845 110.695 33.46H109.495ZM109.999 32.956H107.311V34.156H109.999V32.956ZM107.311 32.956C107.372 32.956 107.527 32.9715 107.663 33.1077C107.8 33.2439 107.815 33.3995 107.815 33.46H106.615C106.615 33.5845 106.647 33.7881 106.815 33.9563C106.983 34.1245 107.187 34.156 107.311 34.156V32.956ZM107.815 33.46V32.356H106.615V33.46H107.815ZM107.815 32.356C107.815 31.6801 107.584 31.0789 107.129 30.5826L106.245 31.3934C106.494 31.6651 106.615 31.9759 106.615 32.356H107.815ZM107.139 30.5929C106.688 30.0782 106.099 29.812 105.415 29.812V31.012C105.755 31.012 106.014 31.1298 106.236 31.3831L107.139 30.5929ZM105.415 29.812C104.683 29.812 104.052 30.0764 103.617 30.6489L104.573 31.375C104.746 31.1476 104.995 31.012 105.415 31.012V29.812ZM103.625 30.6396C103.233 31.1346 103.039 31.7154 103.039 32.356H104.239C104.239 31.9726 104.349 31.6574 104.565 31.3844L103.625 30.6396ZM103.039 32.356V39.844H104.239V32.356H103.039ZM103.039 39.844C103.039 40.5559 103.245 41.1898 103.7 41.6886L104.586 40.8794C104.37 40.6422 104.239 40.3161 104.239 39.844H103.039ZM103.709 41.6987C104.171 42.1815 104.75 42.436 105.415 42.436V41.236C105.088 41.236 104.819 41.1225 104.577 40.8693L103.709 41.6987ZM105.415 42.436C106.108 42.436 106.699 42.1545 107.146 41.6219L106.228 40.8501C106.003 41.1175 105.746 41.236 105.415 41.236V42.436ZM107.145 41.6236C107.582 41.1068 107.815 40.5075 107.815 39.844H106.615C106.615 40.2045 106.496 40.5332 106.229 40.8484L107.145 41.6236ZM107.815 39.844V38.74H106.615V39.844H107.815ZM107.815 38.74C107.815 38.8005 107.8 38.9561 107.663 39.0923C107.527 39.2285 107.372 39.244 107.311 39.244V38.044C107.187 38.044 106.983 38.0755 106.815 38.2437C106.647 38.4119 106.615 38.6155 106.615 38.74H107.815ZM107.311 39.244H110.023V38.044H107.311V39.244ZM110.023 39.244C109.963 39.244 109.807 39.2285 109.671 39.0923C109.535 38.9561 109.519 38.8005 109.519 38.74H110.719C110.719 38.6155 110.688 38.4119 110.519 38.2437C110.351 38.0755 110.148 38.044 110.023 38.044V39.244ZM109.519 38.74V39.844H110.719V38.74H109.519ZM109.519 39.844C109.519 40.6568 109.328 41.3747 108.954 42.0123L109.989 42.6197C110.478 41.7853 110.719 40.8552 110.719 39.844H109.519ZM108.949 42.0208C108.58 42.6723 108.089 43.1914 107.469 43.5858L108.113 44.5982C108.901 44.0966 109.53 43.4317 109.993 42.6112L108.949 42.0208ZM107.477 43.5806C106.874 43.9508 106.192 44.14 105.415 44.14V45.34C106.398 45.34 107.3 45.0972 108.105 44.6034L107.477 43.5806ZM110.988 44.38L110.397 44.2734L110.388 44.3263V44.38H110.988ZM113.964 27.892L113.382 27.7465L113.377 27.7658L113.373 27.7854L113.964 27.892ZM117.684 27.892L118.275 27.7896L118.271 27.7679L118.266 27.7465L117.684 27.892ZM120.54 44.38L119.949 44.4824L119.95 44.4901L119.951 44.4977L120.54 44.38ZM117.66 44.38L117.066 44.4694L117.069 44.4836L117.071 44.4977L117.66 44.38ZM117.396 42.628L117.989 42.5386L117.912 42.028H117.396V42.628ZM114.132 42.628V42.028H113.615L113.538 42.5386L114.132 42.628ZM113.868 44.38L114.456 44.4977L114.459 44.4836L114.461 44.4694L113.868 44.38ZM114.612 40.06L114.019 39.9651L113.908 40.66H114.612V40.06ZM116.916 40.06V40.66H117.61L117.509 39.9734L116.916 40.06ZM115.932 33.316L116.526 33.2294L116.524 33.22L115.932 33.316ZM115.788 32.428L116.38 32.332L115.191 32.3635L115.788 32.428ZM115.692 33.316L116.284 33.4109L116.287 33.3957L116.288 33.3805L115.692 33.316ZM111.578 44.4866L114.554 27.9986L113.373 27.7854L110.397 44.2734L111.578 44.4866ZM114.546 28.0375C114.531 28.096 114.489 28.2015 114.381 28.2885C114.27 28.3771 114.153 28.396 114.084 28.396V27.196C113.95 27.196 113.782 27.2309 113.631 27.3515C113.482 27.4705 113.412 27.624 113.382 27.7465L114.546 28.0375ZM114.084 28.396H117.564V27.196H114.084V28.396ZM117.564 28.396C117.494 28.396 117.378 28.3771 117.267 28.2885C117.158 28.2015 117.116 28.096 117.102 28.0375L118.266 27.7465C118.235 27.624 118.165 27.4705 118.017 27.3515C117.866 27.2309 117.697 27.196 117.564 27.196V28.396ZM117.093 27.9944L119.949 44.4824L121.131 44.2776L118.275 27.7896L117.093 27.9944ZM119.951 44.4977C119.945 44.466 119.913 44.2783 120.059 44.0952C120.209 43.9082 120.405 43.9 120.444 43.9V45.1C120.563 45.1 120.815 45.0718 120.996 44.8448C121.175 44.6217 121.15 44.374 121.128 44.2623L119.951 44.4977ZM120.444 43.9H117.78V45.1H120.444V43.9ZM117.78 43.9C117.884 43.9 118.018 43.9381 118.126 44.0457C118.219 44.1389 118.243 44.2351 118.248 44.2623L117.071 44.4977C117.093 44.6049 117.144 44.7611 117.277 44.8943C117.425 45.0419 117.611 45.1 117.78 45.1V43.9ZM118.253 44.2906L117.989 42.5386L116.802 42.7174L117.066 44.4694L118.253 44.2906ZM117.396 42.028H114.132V43.228H117.396V42.028ZM113.538 42.5386L113.274 44.2906L114.461 44.4694L114.725 42.7174L113.538 42.5386ZM113.279 44.2623C113.285 44.2351 113.308 44.1389 113.401 44.0457C113.509 43.9381 113.643 43.9 113.748 43.9V45.1C113.916 45.1 114.102 45.0419 114.25 44.8943C114.383 44.7611 114.435 44.6049 114.456 44.4977L113.279 44.2623ZM113.748 43.9H111.084V45.1H113.748V43.9ZM111.084 43.9C111.184 43.9 111.355 43.938 111.48 44.0952C111.586 44.2268 111.588 44.3559 111.588 44.38H110.388C110.388 44.4841 110.406 44.6732 110.543 44.8448C110.701 45.042 110.919 45.1 111.084 45.1V43.9ZM114.612 40.66H116.916V39.46H114.612V40.66ZM117.509 39.9734L116.525 33.2294L115.338 33.4026L116.322 40.1466L117.509 39.9734ZM116.524 33.22L116.38 32.332L115.195 32.524L115.339 33.412L116.524 33.22ZM115.191 32.3635L115.095 33.2515L116.288 33.3805L116.384 32.4925L115.191 32.3635ZM115.099 33.2211L114.019 39.9651L115.204 40.1549L116.284 33.4109L115.099 33.2211ZM122.166 44.5V45.1L122.169 45.1L122.166 44.5ZM122.046 44.38L121.446 44.3783V44.38H122.046ZM122.094 27.892L122.694 27.8937V27.892H122.094ZM122.19 27.796V28.396L122.193 28.396L122.19 27.796ZM126.678 27.772L126.681 28.372L126.689 28.3719L126.678 27.772ZM129.078 28.396L128.769 28.9105L128.774 28.9134L129.078 28.396ZM130.83 30.148L130.312 30.4517L130.315 30.4567L130.83 30.148ZM130.806 41.98L131.321 42.2871L131.324 42.2823L130.806 41.98ZM129.006 43.78L128.699 43.2645L129.006 43.78ZM126.462 44.476L126.465 45.076L126.472 45.0759L126.462 44.476ZM124.974 41.548L124.374 41.5467L124.373 42.148H124.974V41.548ZM127.95 40.924L127.526 40.4997L127.517 40.5081L127.95 40.924ZM127.998 31.204L127.565 31.6191L127.574 31.6284L127.583 31.6372L127.998 31.204ZM126.678 30.652L126.687 31.252L126.697 31.2517L126.678 30.652ZM124.998 30.676L124.989 30.0761L124.399 30.0845L124.398 30.6747L124.998 30.676ZM122.166 43.9C122.218 43.9 122.368 43.9135 122.5 44.0457C122.632 44.1779 122.646 44.3275 122.646 44.38H121.446C121.446 44.5125 121.479 44.7221 121.652 44.8943C121.824 45.0665 122.033 45.1 122.166 45.1V43.9ZM122.646 44.3817L122.694 27.8937L121.494 27.8903L121.446 44.3783L122.646 44.3817ZM122.694 27.892C122.694 27.9525 122.678 28.1081 122.542 28.2443C122.406 28.3805 122.25 28.396 122.19 28.396V27.196C122.065 27.196 121.862 27.2275 121.694 27.3957C121.525 27.5639 121.494 27.7675 121.494 27.892H122.694ZM122.193 28.396L126.681 28.372L126.675 27.172L122.187 27.196L122.193 28.396ZM126.689 28.3719C127.462 28.3578 128.15 28.5392 128.769 28.9105L129.387 27.8815C128.565 27.3888 127.654 27.1542 126.667 27.1721L126.689 28.3719ZM128.774 28.9134C129.422 29.2936 129.932 29.804 130.312 30.4517L131.347 29.8443C130.864 29.02 130.206 28.3624 129.382 27.8786L128.774 28.9134ZM130.315 30.4567C130.689 31.0789 130.878 31.7713 130.878 32.548H132.078C132.078 31.5647 131.835 30.6571 131.344 29.8393L130.315 30.4567ZM130.878 32.548V39.436H132.078V32.548H130.878ZM130.878 39.436C130.878 40.2626 130.68 41.0055 130.288 41.6777L131.324 42.2823C131.828 41.4185 132.078 40.4654 132.078 39.436H130.878ZM130.29 41.6729C129.894 42.3392 129.365 42.8676 128.699 43.2645L129.313 44.2955C130.151 43.7964 130.822 43.1248 131.321 42.2871L130.29 41.6729ZM128.699 43.2645C128.044 43.6548 127.3 43.8617 126.452 43.8761L126.472 45.0759C127.512 45.0583 128.464 44.8012 129.313 44.2955L128.699 43.2645ZM126.459 43.876L122.163 43.9L122.169 45.1L126.465 45.076L126.459 43.876ZM124.974 42.148H126.462V40.948H124.974V42.148ZM126.462 42.148C127.212 42.148 127.866 41.8769 128.382 41.3399L127.517 40.5081C127.234 40.8031 126.895 40.948 126.462 40.948V42.148ZM128.374 41.3483C128.9 40.8224 129.174 40.1749 129.174 39.436H127.974C127.974 39.8491 127.832 40.1936 127.526 40.4997L128.374 41.3483ZM129.174 39.436V32.524H127.974V39.436H129.174ZM129.174 32.524C129.174 31.8414 128.91 31.247 128.413 30.7708L127.583 31.6372C127.854 31.897 127.974 32.1826 127.974 32.524H129.174ZM128.431 30.7889C127.951 30.2874 127.348 30.0308 126.659 30.0523L126.697 31.2517C127.031 31.2412 127.309 31.3526 127.565 31.6191L128.431 30.7889ZM126.669 30.0521L124.989 30.0761L125.007 31.2759L126.687 31.2519L126.669 30.0521ZM124.398 30.6747L124.374 41.5467L125.574 41.5493L125.598 30.6773L124.398 30.6747ZM132.081 44.38L131.491 44.2734L131.481 44.3263V44.38H132.081ZM135.058 27.892L134.475 27.7465L134.471 27.7658L134.467 27.7854L135.058 27.892ZM138.778 27.892L139.369 27.7896L139.365 27.7679L139.36 27.7465L138.778 27.892ZM141.633 44.38L141.042 44.4824L141.044 44.4901L141.045 44.4977L141.633 44.38ZM138.754 44.38L138.16 44.4694L138.162 44.4836L138.165 44.4977L138.754 44.38ZM138.49 42.628L139.083 42.5386L139.006 42.028H138.49V42.628ZM135.226 42.628V42.028H134.709L134.632 42.5386L135.226 42.628ZM134.962 44.38L135.55 44.4977L135.553 44.4836L135.555 44.4694L134.962 44.38ZM135.705 40.06L135.113 39.9651L135.002 40.66H135.705V40.06ZM138.009 40.06V40.66H138.703L138.603 39.9734L138.009 40.06ZM137.025 33.316L137.619 33.2294L137.618 33.22L137.025 33.316ZM136.882 32.428L137.474 32.332L136.285 32.3635L136.882 32.428ZM136.785 33.316L137.378 33.4109L137.38 33.3957L137.382 33.3805L136.785 33.316ZM132.672 44.4866L135.648 27.9986L134.467 27.7854L131.491 44.2734L132.672 44.4866ZM135.64 28.0375C135.625 28.096 135.583 28.2015 135.474 28.2885C135.364 28.3771 135.247 28.396 135.177 28.396V27.196C135.044 27.196 134.875 27.2309 134.725 27.3515C134.576 27.4705 134.506 27.624 134.475 27.7465L135.64 28.0375ZM135.177 28.396H138.658V27.196H135.177V28.396ZM138.658 28.396C138.588 28.396 138.471 28.3771 138.361 28.2885C138.252 28.2015 138.21 28.096 138.195 28.0375L139.36 27.7465C139.329 27.624 139.259 27.4705 139.11 27.3515C138.96 27.2309 138.791 27.196 138.658 27.196V28.396ZM138.186 27.9944L141.042 44.4824L142.225 44.2776L139.369 27.7896L138.186 27.9944ZM141.045 44.4977C141.039 44.466 141.007 44.2783 141.153 44.0952C141.303 43.9082 141.498 43.9 141.537 43.9V45.1C141.657 45.1 141.908 45.0718 142.09 44.8448C142.268 44.6217 142.244 44.374 142.222 44.2623L141.045 44.4977ZM141.537 43.9H138.873V45.1H141.537V43.9ZM138.873 43.9C138.978 43.9 139.112 43.9381 139.22 44.0457C139.313 44.1389 139.336 44.2351 139.342 44.2623L138.165 44.4977C138.187 44.6049 138.238 44.7611 138.371 44.8943C138.519 45.0419 138.705 45.1 138.873 45.1V43.9ZM139.347 44.2906L139.083 42.5386L137.896 42.7174L138.16 44.4694L139.347 44.2906ZM138.49 42.028H135.226V43.228H138.49V42.028ZM134.632 42.5386L134.368 44.2906L135.555 44.4694L135.819 42.7174L134.632 42.5386ZM134.373 44.2623C134.379 44.2351 134.402 44.1389 134.495 44.0457C134.603 43.9381 134.737 43.9 134.841 43.9V45.1C135.01 45.1 135.196 45.0419 135.344 44.8943C135.477 44.7611 135.528 44.6049 135.55 44.4977L134.373 44.2623ZM134.841 43.9H132.177V45.1H134.841V43.9ZM132.177 43.9C132.278 43.9 132.448 43.938 132.574 44.0952C132.679 44.2268 132.682 44.3559 132.682 44.38H131.481C131.481 44.4841 131.5 44.6732 131.637 44.8448C131.795 45.042 132.013 45.1 132.177 45.1V43.9ZM135.705 40.66H138.009V39.46H135.705V40.66ZM138.603 39.9734L137.619 33.2294L136.432 33.4026L137.416 40.1466L138.603 39.9734ZM137.618 33.22L137.474 32.332L136.289 32.524L136.433 33.412L137.618 33.22ZM136.285 32.3635L136.189 33.2515L137.382 33.3805L137.478 32.4925L136.285 32.3635ZM136.193 33.2211L135.113 39.9651L136.298 40.1549L137.378 33.4109L136.193 33.2211Z" fill="url(#paint2_linear_823_10178)" fill-opacity="0.3" mask="url(#path-7-inside-1_823_10178)"/>
<defs>
<linearGradient id="paint0_linear_823_10178" x1="-13.0353" y1="79.0566" x2="83.7219" y2="-5.60595" gradientUnits="userSpaceOnUse">
<stop stop-color="#E51717"/>
<stop offset="1" stop-color="#E51717" stop-opacity="0"/>
</linearGradient>
<linearGradient id="paint1_linear_823_10178" x1="68" y1="36.5" x2="143" y2="36.5" gradientUnits="userSpaceOnUse">
<stop offset="0.644841" stop-color="white"/>
<stop offset="1" stop-color="white" stop-opacity="0.3"/>
</linearGradient>
<linearGradient id="paint2_linear_823_10178" x1="68" y1="36.5" x2="143" y2="36.5" gradientUnits="userSpaceOnUse">
<stop offset="0.644841" stop-color="white"/>
<stop offset="1" stop-color="white" stop-opacity="0.3"/>
</linearGradient>
<clipPath id="clip0_823_10178">
<rect width="24" height="24" fill="white" transform="translate(16 20)"/>
</clipPath>
</defs>
</svg>
