<svg width="23" height="18" viewBox="0 0 23 18" fill="none" xmlns="http://www.w3.org/2000/svg">
<path d="M5.244 13.5174C5.2796 13.6703 5.4327 13.8329 5.18053 13.9947C4.26537 13.0524 3.71087 11.9366 3.56078 10.6107L3.50117 10.6181C3.46472 10.8893 3.42869 11.16 3.39138 11.4391C3.25158 11.5595 3.16881 11.4804 3.13665 11.3376C3.05474 10.9684 2.94195 10.5992 2.92223 10.2253C2.84632 8.89275 2.44106 7.68989 1.74675 6.56043C0.859738 5.11202 0.282672 3.48723 0.053666 1.79339C-0.0179514 1.28271 0.00735054 0.757094 6.01338e-05 0.238068C-0.00251295 0.0688687 0.0772511 -0.0427591 0.285242 0.0156917C0.319802 0.0669896 0.350758 0.120741 0.377874 0.17654C0.882628 1.42159 1.72488 2.38844 2.74511 3.21159C3.10406 3.50121 3.45871 3.7983 3.8005 4.10857C4.01036 4.29627 4.20287 4.50341 4.37559 4.72736C4.54412 4.95061 4.67235 5.20595 4.84732 5.49513C5.09819 5.37427 5.36622 5.28594 5.58923 5.12992C6.10084 4.77218 6.57943 4.36478 7.09019 4.00837C7.81709 3.50209 8.61303 3.17336 9.50889 3.17951C10.0312 3.18258 10.527 3.3008 10.9738 3.59701C11.0464 3.64149 11.129 3.66601 11.2136 3.66821C11.5824 3.67964 11.9242 3.65283 12.2792 3.45946C12.9701 3.08326 13.7202 3.10787 14.4664 3.32234C15.3841 3.58603 16.1264 4.14505 16.8503 4.75065C17.229 5.06751 17.6377 5.35581 18.1647 5.46436C18.2449 5.33252 18.3105 5.18617 18.4122 5.06883C18.7797 4.65133 19.1412 4.22415 19.5392 3.83829C19.9372 3.45242 20.3917 3.12633 20.8043 2.75409C21.5878 2.04609 22.2624 1.24799 22.6835 0.228401H22.9691C22.9811 0.352774 23.0004 0.459127 23 0.565042C22.9918 2.56116 22.494 4.4228 21.5355 6.1583C21.1139 6.92168 20.6619 7.67187 20.4291 8.52578C20.346 8.85885 20.2806 9.19628 20.2331 9.53659C20.1409 10.1053 20.0645 10.6766 19.9719 11.2453C19.9543 11.3525 19.8909 11.4523 19.8527 11.5454C19.6507 11.5411 19.649 11.4237 19.6383 11.302C19.6173 11.0698 19.5814 10.8393 19.5306 10.612C19.3865 11.6114 19.046 12.5211 18.4469 13.3205C18.2835 13.5402 18.0996 13.7407 17.9169 13.9595C17.5914 13.7776 17.8963 13.5499 17.8114 13.3631C17.792 13.381 17.7743 13.4007 17.7586 13.422C17.7398 13.4524 17.7277 13.4879 17.7114 13.5205C17.3199 14.2944 16.9129 15.0587 16.3391 15.7108C16.2632 15.7987 16.1882 15.9025 16.0291 15.7794V15.1457C15.8923 15.2481 15.7889 15.2986 15.722 15.3804C15.4218 15.7438 15.0951 16.0906 14.851 16.4905C14.4059 17.22 13.7643 17.5351 12.9603 17.5738C12.667 17.5817 12.3801 17.6639 12.1253 17.8129C11.7861 18.015 11.4113 18.0744 11.0587 17.8858C10.6938 17.6916 10.313 17.6221 9.91458 17.5813C9.22328 17.5088 8.67092 17.2051 8.29739 16.5749C8.09565 16.2468 7.86986 15.9349 7.62196 15.6418C7.47572 15.4639 7.28188 15.3267 7.10992 15.1716L7.03787 15.2177V15.7249C6.88177 15.84 6.81401 15.757 6.74926 15.6603C6.30025 14.991 5.85254 14.3212 5.40053 13.6541C5.36322 13.5991 5.29761 13.5662 5.24615 13.5222C5.2573 13.4963 5.25215 13.509 5.24615 13.5222C5.24743 13.4915 5.24743 13.5042 5.244 13.5174ZM16.102 7.60112C15.7225 7.56771 15.3957 7.55189 15.0728 7.50883C14.143 7.38489 13.2652 7.10582 12.4735 6.57185C12.3826 6.51659 12.279 6.4873 12.1733 6.48703C11.7162 6.47825 11.259 6.47605 10.801 6.48703C10.6821 6.4919 10.5665 6.52889 10.4661 6.59427C9.74647 7.07198 8.9531 7.34138 8.11428 7.47542C7.72317 7.53783 7.32691 7.56332 6.9328 7.60331L6.90321 7.65122C7.40839 8.0028 7.90243 8.36977 8.42391 8.6919C8.54187 8.76415 8.67504 8.8063 8.81221 8.81478C8.94938 8.82327 9.08654 8.79786 9.21213 8.74069C9.50254 8.60458 9.78517 8.45169 10.0587 8.28275C10.3627 8.1008 10.6741 7.99797 11.0141 8.14651C11.1807 8.22242 11.3611 8.26128 11.5434 8.26052C11.7257 8.25976 11.9057 8.21941 12.0717 8.14212C12.4015 7.99884 12.7244 8.03137 13.0383 8.2076C13.2819 8.34428 13.5259 8.48271 13.7793 8.5983C14.0521 8.72267 14.3347 8.77804 14.6259 8.63521C15.1602 8.37548 15.6157 8.00412 16.102 7.60112Z" fill="white"/>
</svg>
