<svg width="24" height="24" viewBox="0 0 24 24" fill="none" xmlns="http://www.w3.org/2000/svg">
<path d="M6.14303 21V14.9515C5.27753 14.059 3.57153 11.8315 3.57153 8.9615C3.57153 6.92 5.07853 3 10.9915 3C14.03 3 15.38 3.743 16.565 4.8335C16.6154 4.88017 16.665 4.92567 16.714 4.97C17.14 5.3585 17.479 5.6675 17.654 6.13C18.304 7.85 19.474 10.356 20.225 11.924C20.546 12.593 20.059 13.372 19.317 13.372H18.662V15.75C18.662 16.0152 18.5567 16.2696 18.3691 16.4571C18.1816 16.6446 17.9273 16.75 17.662 16.75H16.0575C16.0348 16.7474 16.0119 16.7464 15.989 16.747C15.894 16.749 15.7957 16.75 15.694 16.75H15.683C15.047 16.75 14.305 16.71 13.608 16.637C12.784 16.551 12.07 16.4235 11.669 16.2795C11.5449 16.2372 11.4091 16.2454 11.2909 16.3023C11.1727 16.3592 11.0816 16.4603 11.0373 16.5838C10.9929 16.7072 10.9989 16.8432 11.0538 16.9623C11.1088 17.0814 11.2083 17.1741 11.331 17.2205C11.853 17.408 12.6685 17.5445 13.504 17.6315C13.8305 17.666 14.167 17.693 14.5 17.713V21H6.14303Z" fill="white"/>
</svg>
