<svg width="22" height="20" viewBox="0 0 22 20" fill="none" xmlns="http://www.w3.org/2000/svg">
<path d="M0.644308 9.8424C0.598548 9.78113 0.568034 9.73318 0.530748 9.69145C-0.114129 8.97403 -0.177682 8.25305 0.374828 7.45571C0.820565 6.81199 1.37647 6.30144 2.10609 6.01554C2.33743 5.92675 2.5425 5.76248 2.76028 5.63285L2.71113 5.5041C2.55181 5.48102 2.34929 5.51476 2.24167 5.42419C2.01372 5.23241 1.75865 5.0051 1.66967 4.73607C1.62476 4.60111 1.88491 4.22197 2.0688 4.16248C2.70859 3.95471 3.37126 3.73096 4.03055 3.7132C5.02795 3.68568 6.02958 3.82774 7.02952 3.89078C7.17204 3.90163 7.31528 3.88723 7.45323 3.84817C6.76344 3.31542 5.96603 3.13252 5.06947 3.05705C5.84061 2.24373 6.79987 1.91343 7.72439 1.45882H6.17533C6.47425 1.22776 6.81561 1.06405 7.17788 0.97802C7.54016 0.891987 7.9155 0.88549 8.28029 0.958934C8.96839 1.08324 9.63615 1.30699 10.3861 1.50499L9.28448 0C9.58107 0.120755 9.7675 0.184684 9.94376 0.266371C11.5098 1.02286 13.1809 1.24306 14.8782 1.38069C15.849 1.44493 16.8155 1.56737 17.773 1.74739C19.6788 2.13097 21.2363 3.91565 21.5016 5.92053C21.7126 7.52852 20.8796 8.99356 19.2085 9.76071C17.9179 10.3529 16.5815 10.5829 15.1773 10.0608C14.7748 9.91076 14.2537 10.0058 13.8096 10.1017C12.997 10.2792 12.269 10.2713 11.4852 9.8424C10.9767 9.56715 10.3048 9.57603 9.70563 9.56715C8.55401 9.54761 7.40238 9.60621 6.19991 9.63285C6.00162 8.94473 5.79146 8.14384 5.08981 7.60222C5.23217 8.30632 5.36776 8.97935 5.50419 9.65505C4.02038 9.92852 3.30093 10.8209 3.15009 12.5345C3.07806 13.3434 3.04755 14.1585 3.03992 14.9709C3.03992 15.3154 3.12466 15.6653 3.19923 16.0053C3.40515 16.9261 3.4704 17.8255 3.09246 18.7312C2.93145 19.1165 2.89333 19.5587 2.79418 20H2.26031C2.18828 19.3492 2.1137 18.6939 2.04422 18.0377C1.97812 17.4055 1.92643 16.7716 1.84932 16.1412C1.81965 15.9526 1.76249 15.7699 1.67984 15.5996C1.36714 14.9043 1.01462 14.2286 0.730735 13.521C0.247713 12.3143 0.0206163 11.0846 0.644308 9.8424Z" fill="white"/>
<path d="M19.2881 10.4915C20.305 9.92053 21.1838 10.2029 21.671 11.208C22.0346 11.9565 22.1608 12.6713 21.7159 13.4739C21.488 13.8832 21.4499 14.4302 21.4024 14.923C21.3033 15.9485 21.2524 16.9802 21.1863 18.0093C21.1465 18.6122 21.1151 19.2169 21.0253 19.842C20.9668 19.6013 20.8728 19.3643 20.8558 19.121C20.7626 17.869 20.7118 16.6144 20.6016 15.3652C20.544 14.7374 20.3914 14.1221 20.2626 13.5006C20.1296 12.8684 19.983 12.2388 19.8161 11.6155C19.731 11.3523 19.6253 11.0969 19.5 10.8519C19.4356 10.7223 19.3576 10.6078 19.2881 10.4915Z" fill="white"/>
</svg>
