<svg width="18" height="22" viewBox="0 0 18 22" fill="none" xmlns="http://www.w3.org/2000/svg">
<path d="M9.52179 11.3841C11.1539 11.4442 13.1605 11.7279 14.7364 12.9696C16.2749 14.1825 16.1179 15.7488 14.4224 16.8162C12.6938 17.9077 10.6771 18.2238 8.58258 18.1613C6.83668 18.1084 5.16713 17.7706 3.7295 16.8679C1.71279 15.6009 1.77618 13.7522 3.88796 12.5633C5.26077 11.7928 7.03979 11.3877 9.52179 11.3841Z" fill="white"/>
<path d="M4.44111 11.4706L3.34201 12.0031C1.2331 10.8227 0.132551 7.59519 0.97957 5.12135C2.00089 2.14024 5.07206 0.13402 8.81018 0.00539907C12.3682 -0.114807 15.6454 1.78204 16.9361 4.71266C18.0208 7.17448 17.0456 10.4982 14.7523 12.0128L13.5999 11.4682C15.4855 9.95605 16.3368 8.16618 15.9378 6.03252C15.7035 4.64624 14.8416 3.38756 13.5293 2.51529C10.5676 0.536696 6.56298 0.732632 4.04497 2.87591C1.65661 4.9122 0.97957 8.68427 4.44111 11.4706Z" fill="white"/>
<path d="M16.4881 13.7546C18.3752 15.0336 18.4472 17.0446 16.975 18.8165C14.4944 21.8012 10.9781 22.2748 7.06573 21.8805C5.04037 21.6762 3.19651 21.0391 1.87989 19.6771C1.22604 19.0164 0.682357 18.285 0.263639 17.5026C-0.400436 16.214 0.244914 14.5888 1.58459 13.7762C1.46791 14.5034 1.32385 15.2295 1.24462 15.9592C1.10057 17.3283 1.94903 18.2911 3.19075 19.0448C4.94529 20.1087 6.95768 20.4789 9.09684 20.4693C11.236 20.4597 13.2397 20.075 14.9741 18.9799C16.4261 18.0639 17.1767 16.9064 16.7027 15.3293C16.5457 14.8364 16.5544 14.3099 16.4881 13.7546Z" fill="white"/>
</svg>
