<svg width="292" height="40" viewBox="0 0 292 40" fill="none" xmlns="http://www.w3.org/2000/svg">
<path d="M1.40483 40C0.856209 40 0.359527 39.7761 0 39.4142L19.2854 20L0 0.585787C0.359527 0.223858 0.856209 0 1.40483 0H290.595C291.144 0 291.64 0.223858 292 0.585787L272.715 20L292 39.4142C291.64 39.7761 291.144 40 290.595 40H1.40483Z" fill="url(#paint0_linear_235_2714)" />
<path d="M19.5692 20.2819L19.8492 20L19.5692 19.7181L0.59906 0.621271C0.835385 0.480467 1.11071 0.4 1.40483 0.4H290.595C290.889 0.4 291.165 0.480467 291.401 0.621269L272.431 19.7181L272.151 20L272.431 20.2819L291.401 39.3787C291.165 39.5195 290.889 39.6 290.595 39.6H1.40483C1.11071 39.6 0.835385 39.5195 0.59906 39.3787L19.5692 20.2819Z" stroke="white" stroke-width="0.8"/>
<defs>
<linearGradient id="paint0_linear_235_2714" x1="7.84782" y1="20" x2="131.906" y2="20" gradientUnits="userSpaceOnUse">
<stop/>
<stop offset="1"/>
</linearGradient>
</defs>
</svg>
