<svg width="50" height="31" viewBox="0 0 50 31" fill="none" xmlns="http://www.w3.org/2000/svg">
<path d="M25.1149 12.7427C27.4406 12.6509 29.3266 10.6968 29.243 8.62492C29.2854 6.69322 27.3224 4.51415 24.786 4.62426C22.7318 4.71235 20.7638 6.51778 20.7284 8.6073C20.6872 11.0172 22.9493 12.8278 25.1149 12.7427Z" fill="white"/>
<path d="M14.6919 12.7015C14.7404 13.1669 14.9969 13.5549 15.2953 13.9128C15.7905 14.5048 16.3981 14.9449 17.2144 15.0212C17.7369 15.07 18.2648 15.0792 18.7904 15.0799C22.73 15.0863 26.6697 15.088 30.6096 15.0851C31.2642 15.0851 31.9187 15.0729 32.5733 15.0417C33.4347 15.0003 34.1035 14.5877 34.6418 13.9752C35.1039 13.4481 35.3434 12.8454 35.338 12.14C35.3211 9.96312 35.3322 7.78588 35.3326 5.60681C35.3326 5.45412 35.3284 5.30107 35.3326 5.14838C35.36 4.13978 34.8093 3.42333 34.0235 2.83865C33.5175 2.46207 32.9264 2.29911 32.2815 2.29874C31.0817 2.29874 29.8818 2.28626 28.682 2.27892H28.4344C28.2369 1.91189 28.0524 1.55513 27.8568 1.20499C27.5661 0.681964 27.4136 0.474222 27.0505 0.258774C26.7641 0.0892384 26.4335 -0.00040211 26.0964 1.65789e-05H23.8804C23.5634 -0.00131731 23.2517 0.077862 22.9775 0.229412L22.9732 0.231614C22.6113 0.433849 22.3752 0.741423 22.1885 1.09047C21.9786 1.48173 21.7649 1.87152 21.547 2.27745H21.3814C20.1816 2.28333 18.9818 2.28626 17.7816 2.29617C16.3838 2.30792 15.2017 3.10621 14.7639 4.37064C14.6603 4.67014 14.6503 5.00818 14.6484 5.3286C14.6389 7.39572 14.6379 9.46334 14.6453 11.5314C14.6469 11.9198 14.6507 12.3121 14.6919 12.7015ZM20.7865 5.25372C21.589 4.31816 22.6582 3.77825 23.8923 3.55583C25.0456 3.34845 26.1857 3.42333 27.2608 3.90157C29.3893 4.84778 30.4405 6.48475 30.4644 8.69282C30.4837 10.5133 29.7005 12.0093 28.0994 13.0212C27.0263 13.6995 26.3012 13.9234 24.9316 13.8581C23.6428 13.9612 22.4761 13.5182 21.4484 12.7133C20.341 11.846 19.7195 10.7119 19.5486 9.36412C19.3533 7.83433 19.7619 6.44841 20.7865 5.25372Z" fill="white"/>
<path d="M23.3225 16.7639C23.1447 16.5933 22.93 16.4618 22.6933 16.3787C22.4567 16.2956 22.2038 16.2628 21.9525 16.2827H21.944C21.7056 16.3025 21.5874 16.4636 21.5312 16.664C21.4773 16.8564 21.4542 17.0465 21.6425 17.2028C22.1269 17.6033 22.6051 18.0103 23.0872 18.414C23.1165 18.4366 23.1471 18.4577 23.1788 18.4772L23.1604 18.5264C22.8643 18.5113 22.5678 18.5029 22.2724 18.4797C20.9371 18.3759 19.6063 18.2327 18.2941 17.9659C16.842 17.6723 15.4185 17.2928 14.1005 16.6189C13.509 16.3164 12.9534 15.9659 12.5406 15.448C12.2226 15.0487 12.0497 14.5984 12.2437 14.1106C12.3423 13.8632 12.5433 13.6481 12.7208 13.4356C12.8748 13.2499 13.0728 13.0961 13.2337 12.9141C13.4794 12.6358 13.4732 12.3635 13.236 12.1253C13.0601 11.9477 12.6711 11.9377 12.4197 12.1132C11.8806 12.4894 11.4775 12.9735 11.1848 13.5446L11.1829 13.5487C11.0625 13.7835 10.9999 14.0415 11 14.3029V14.6652C10.9984 14.9588 11.0714 15.2485 11.213 15.5093C11.6365 16.2801 12.3331 16.8307 13.1086 17.2883C14.3353 18.0125 15.6819 18.4629 17.0669 18.8148C18.4786 19.1722 19.9186 19.4188 21.3726 19.5522C22.0676 19.6179 22.7645 19.6649 23.5019 19.7236C23.4441 19.7864 23.4018 19.8367 23.3552 19.8825C22.9763 20.2562 22.5905 20.6232 22.2193 21.0038C21.9859 21.2439 21.9113 21.4292 21.9836 21.6329C22.0262 21.7419 22.103 21.8357 22.2037 21.9014C22.3043 21.9671 22.4238 22.0016 22.5458 21.9999H22.5997C22.7582 22.0004 22.9104 21.9412 23.0233 21.8351L25.389 19.6175C25.4503 19.5596 25.4988 19.4906 25.5319 19.4146C25.5649 19.3386 25.5818 19.2572 25.5816 19.1749C25.5818 19.0931 25.5651 19.0121 25.5324 18.9365C25.4997 18.861 25.4516 18.7923 25.391 18.7345L23.3225 16.7639Z" fill="white"/>
<path d="M38.7099 13.382C38.3961 12.8777 38.0307 12.4167 37.5163 12.0838C37.2433 11.9069 36.9148 11.9521 36.7173 12.1741C36.4974 12.4215 36.504 12.6744 36.7473 12.9258C36.9645 13.1504 37.1978 13.3611 37.4096 13.5901C37.9167 14.1385 37.9487 14.743 37.5155 15.3489C37.2205 15.7608 36.8224 16.0658 36.385 16.3286C35.3892 16.9283 34.2915 17.299 33.1663 17.6029C31.7705 17.9798 30.342 18.1957 28.9069 18.3784C28.7244 18.4016 28.5345 18.4261 28.3678 18.4929C28.1414 18.5832 28.0359 18.8534 28.0983 19.0835C28.1753 19.3669 28.3728 19.55 28.6408 19.5372C29.0051 19.5199 29.3697 19.488 29.7305 19.4395C31.5553 19.1943 33.3469 18.8181 35.0623 18.1593C36.1205 17.753 37.1358 17.2682 37.9637 16.5022C38.5505 15.9593 39.0665 15.3644 38.9825 14.4523C39.0472 14.0941 38.9267 13.7292 38.7099 13.382Z" fill="white"/>
<rect y="17" width="50" height="14" rx="5" fill="#2981ff"/>
<path d="M13.6717 27.5H12.1887L14.4483 20.9545H16.2317L18.4881 27.5H17.0051L15.3656 22.4503H15.3145L13.6717 27.5ZM13.579 24.9272H17.0819V26.0075H13.579V24.9272ZM23.3189 20.9545H24.7028V25.2053C24.7028 25.6825 24.5888 26.1001 24.3608 26.4581C24.1349 26.8161 23.8185 27.0952 23.4116 27.2955C23.0046 27.4936 22.5305 27.5927 21.9893 27.5927C21.446 27.5927 20.9709 27.4936 20.5639 27.2955C20.157 27.0952 19.8406 26.8161 19.6147 26.4581C19.3888 26.1001 19.2759 25.6825 19.2759 25.2053V20.9545H20.6598V25.087C20.6598 25.3363 20.7141 25.5579 20.8228 25.7518C20.9336 25.9457 21.0891 26.098 21.2894 26.2088C21.4897 26.3196 21.723 26.375 21.9893 26.375C22.2578 26.375 22.4911 26.3196 22.6893 26.2088C22.8896 26.098 23.044 25.9457 23.1527 25.7518C23.2635 25.5579 23.3189 25.3363 23.3189 25.087V20.9545ZM25.5921 22.0955V20.9545H30.9678V22.0955H28.9639V27.5H27.596V22.0955H25.5921ZM37.5692 24.2273C37.5692 24.9411 37.4339 25.5483 37.1633 26.049C36.8948 26.5497 36.5283 26.9322 36.0638 27.1964C35.6015 27.4585 35.0816 27.5895 34.5042 27.5895C33.9225 27.5895 33.4005 27.4574 32.9381 27.1932C32.4758 26.929 32.1104 26.5465 31.8419 26.0458C31.5734 25.5451 31.4392 24.9389 31.4392 24.2273C31.4392 23.5135 31.5734 22.9062 31.8419 22.4055C32.1104 21.9048 32.4758 21.5234 32.9381 21.2614C33.4005 20.9972 33.9225 20.8651 34.5042 20.8651C35.0816 20.8651 35.6015 20.9972 36.0638 21.2614C36.5283 21.5234 36.8948 21.9048 37.1633 22.4055C37.4339 22.9062 37.5692 23.5135 37.5692 24.2273ZM36.1661 24.2273C36.1661 23.7649 36.0969 23.375 35.9584 23.0575C35.822 22.7401 35.6292 22.4993 35.3799 22.3352C35.1306 22.1712 34.8387 22.0891 34.5042 22.0891C34.1697 22.0891 33.8778 22.1712 33.6285 22.3352C33.3792 22.4993 33.1853 22.7401 33.0468 23.0575C32.9104 23.375 32.8422 23.7649 32.8422 24.2273C32.8422 24.6896 32.9104 25.0795 33.0468 25.397C33.1853 25.7145 33.3792 25.9553 33.6285 26.1193C33.8778 26.2834 34.1697 26.3654 34.5042 26.3654C34.8387 26.3654 35.1306 26.2834 35.3799 26.1193C35.6292 25.9553 35.822 25.7145 35.9584 25.397C36.0969 25.0795 36.1661 24.6896 36.1661 24.2273Z" fill="#1E1E1E"/>
</svg>
