<svg width="30" height="30" viewBox="0 0 30 30" fill="none" xmlns="http://www.w3.org/2000/svg">
<path d="M1.1547 17C0.440169 15.7624 0.440169 14.2376 1.1547 13L6.3453 4.00962C7.05983 2.77202 8.38034 2.00962 9.8094 2.00962L20.1906 2.00962C21.6197 2.00962 22.9402 2.77202 23.6547 4.00962L28.8453 13C29.5598 14.2376 29.5598 15.7624 28.8453 17L23.6547 25.9904C22.9402 27.228 21.6197 27.9904 20.1906 27.9904L9.8094 27.9904C8.38034 27.9904 7.05983 27.228 6.3453 25.9904L1.1547 17Z" fill="#2981ff"/>
<path d="M21.7719 15.5659L18.6611 18.7656C18.5151 18.9157 18.3172 19 18.1108 19C17.9045 19 17.7065 18.9157 17.5606 18.7656C17.4147 18.6155 17.3327 18.4119 17.3327 18.1996C17.3327 17.9874 17.4147 17.7838 17.5606 17.6337L19.3445 15.7999H10.6555L12.4394 17.6337C12.5853 17.7838 12.6673 17.9874 12.6673 18.1996C12.6673 18.4119 12.5853 18.6155 12.4394 18.7656C12.2935 18.9157 12.0955 19 11.8892 19C11.6828 19 11.4849 18.9157 11.3389 18.7656L8.22809 15.5659C8.15578 15.4916 8.09842 15.4034 8.05928 15.3063C8.02014 15.2092 8 15.1051 8 15C8 14.8949 8.02014 14.7908 8.05928 14.6937C8.09842 14.5966 8.15578 14.5084 8.22809 14.4341L11.3389 11.2344C11.4849 11.0843 11.6828 11 11.8892 11C12.0955 11 12.2935 11.0843 12.4394 11.2344C12.5853 11.3845 12.6673 11.5881 12.6673 11.8004C12.6673 12.0126 12.5853 12.2162 12.4394 12.3663L10.6555 14.2001H19.3445L17.5606 12.3663C17.4147 12.2162 17.3327 12.0126 17.3327 11.8004C17.3327 11.5881 17.4147 11.3845 17.5606 11.2344C17.7065 11.0843 17.9045 11 18.1108 11C18.3172 11 18.5151 11.0843 18.6611 11.2344L21.7719 14.4341C21.8442 14.5084 21.9016 14.5966 21.9407 14.6937C21.9799 14.7908 22 14.8949 22 15C22 15.1051 21.9799 15.2092 21.9407 15.3063C21.9016 15.4034 21.8442 15.4916 21.7719 15.5659Z" fill="#1E1E1E"/>
</svg>
