<svg width="22" height="22" viewBox="0 0 22 22" fill="none" xmlns="http://www.w3.org/2000/svg">
<rect x="6" y="6" width="10" height="10" rx="5" fill="white"/>
<path d="M1.19174 6.1176C1.21922 6.33102 1.4892 6.11074 1.52455 6.3134C1.56382 6.27914 1.59818 6.24976 1.64432 6.20865C1.75427 6.34081 1.86521 6.47396 1.98204 6.61102C1.98106 6.60906 1.97418 6.60319 1.96829 6.59634C1.94179 6.61885 1.91528 6.64137 1.88779 6.66487C1.89859 6.67564 1.90841 6.68543 1.91921 6.6962C1.94179 6.66976 1.96437 6.64333 1.98204 6.612C2.20489 6.66976 1.97026 6.90766 2.13225 6.9948C2.16072 6.9341 2.19115 6.86948 2.22257 6.80291C2.2638 6.84403 2.29816 6.87829 2.34725 6.92724C2.32467 6.97913 2.28834 7.03689 2.2746 7.09955C2.26184 7.16123 2.27165 7.2278 2.27656 7.29731C2.27558 7.29535 2.26871 7.28948 2.26282 7.28263C2.23631 7.30514 2.2098 7.32766 2.18231 7.35116L2.21373 7.38249C2.23631 7.35605 2.25889 7.32962 2.27656 7.29829C2.32467 7.32473 2.37768 7.35605 2.42971 7.3864C2.43168 7.54305 2.24122 7.7085 2.43953 7.80738C2.30994 8.1657 2.41891 8.57297 2.14992 8.86374C2.19508 8.9215 2.22355 8.95772 2.27067 9.01647C2.17642 9.07814 2.08119 9.1408 1.98891 9.2015C2.01542 9.24653 2.04487 9.29744 2.0753 9.34933C2.04782 9.3601 2.02131 9.37087 1.99382 9.38164C2.02131 9.40318 2.04782 9.42569 2.0753 9.44723C2.09494 9.48835 2.11359 9.52947 2.1401 9.58527C2.05567 9.79674 1.96437 10.0268 1.87208 10.2598C1.90546 10.299 1.9359 10.3342 1.97222 10.3783C1.90939 10.4086 1.84656 10.438 1.78176 10.4693C1.80434 10.4948 1.82496 10.5183 1.84852 10.5447C1.82692 10.6269 1.80434 10.7121 1.76213 10.8697C1.85834 10.7846 1.8927 10.7542 1.94375 10.7092C1.96142 10.8071 1.97713 10.8952 1.99284 10.9823C2.10574 10.997 2.20097 11.1527 2.30307 11.0548C2.45229 11.2026 2.60054 11.3495 2.76154 11.51C2.73602 11.5551 2.69969 11.6206 2.66042 11.6902C2.73504 11.884 2.90586 12.0504 2.85972 12.2874C2.83223 12.2981 2.80572 12.3089 2.77823 12.3197C2.80572 12.3412 2.83223 12.3637 2.85972 12.3853C2.89015 12.4362 2.9196 12.4881 2.94611 12.5311C2.91077 12.583 2.87641 12.633 2.81848 12.7181C2.91077 12.7563 2.97458 12.7827 3.07177 12.8219C2.99127 12.8581 2.93237 12.8846 2.86561 12.9149C2.93531 12.9962 3.00403 13.0764 3.07766 13.1626C3.04232 13.2155 3.0168 13.2527 2.98833 13.2967C3.07276 13.4357 3.0973 13.5816 2.97556 13.7255C3.03349 13.7461 3.08945 13.7667 3.1562 13.7911C3.11988 13.8332 3.09141 13.8665 3.06097 13.9027C3.12479 13.9693 3.18958 14.0388 3.2691 14.123C3.24358 14.2141 3.21511 14.3129 3.18271 14.4236C3.20824 14.4294 3.25241 14.4392 3.30445 14.45C3.37611 14.589 3.45269 14.7369 3.53221 14.8896C3.52239 14.9004 3.50178 14.9239 3.46153 14.9699C3.57541 15.0687 3.69027 15.1696 3.83066 15.291V15.6659C3.9524 15.7638 4.08395 15.8686 4.2155 15.9743C4.18016 15.9861 4.12518 16.0057 4.07021 16.0243C4.06039 16.036 4.04959 16.0478 4.03977 16.0585C4.28815 16.0409 4.25477 16.3855 4.47861 16.4002C4.49039 16.4002 4.50119 16.4227 4.51985 16.4433C4.4953 16.4727 4.46879 16.5059 4.43542 16.5471C4.49825 16.5774 4.56206 16.6078 4.64747 16.6489C4.57286 16.6734 4.51788 16.692 4.43051 16.7213C4.50119 16.8055 4.565 16.8809 4.65238 16.9857C4.61017 17.0199 4.56893 17.0522 4.52475 17.0904C4.52672 17.0894 4.53261 17.0826 4.53948 17.0767C4.5169 17.0503 4.49432 17.0238 4.47076 16.9964C4.45996 17.0072 4.45014 17.017 4.43934 17.0278C4.46585 17.0503 4.49236 17.0728 4.52377 17.0904C4.5061 17.1678 4.48352 17.249 4.45505 17.3557C4.4629 17.3626 4.49726 17.392 4.52181 17.4135C4.48843 17.4722 4.45898 17.5231 4.42952 17.574C4.39222 17.6201 4.35393 17.6671 4.30877 17.7229C4.40105 17.7591 4.45603 17.7806 4.56304 17.8227C4.39516 17.8785 4.26459 17.9226 4.13009 17.9706C4.13206 17.9696 4.13795 17.9627 4.14482 17.9568C4.12224 17.9304 4.09966 17.904 4.0761 17.8766C4.0653 17.8873 4.05548 17.8971 4.04468 17.9079C4.07119 17.9304 4.0977 17.9529 4.12911 17.9706C4.19194 18.0851 3.98087 18.1967 4.15856 18.3504C4.00934 18.4043 3.88171 18.4503 3.7423 18.5012C3.80906 18.5335 3.87091 18.5638 3.95534 18.605C3.82477 18.6441 3.71482 18.6774 3.59897 18.7126C3.5008 18.6862 3.38691 18.6568 3.27499 18.6265C3.25536 18.5707 3.23573 18.5139 3.21413 18.4542C3.15817 18.4953 3.11006 18.5306 3.06981 18.5599C3.02563 18.5413 2.98931 18.5364 2.97065 18.5168C2.66533 18.1899 2.28442 17.9265 2.07334 17.5202C1.94768 17.2784 1.81711 17.0395 1.6777 16.8055C1.46368 16.4462 1.29875 16.0742 1.28696 15.6483C1.12792 15.4692 1.2742 15.1686 1.03564 15.0169C1.00619 14.9983 1.00619 14.9336 0.992442 14.8906C0.898195 14.5871 0.780385 14.2973 0.624288 14.0163C0.390633 13.5934 0.284605 13.1156 0.119672 12.6633C0.0254249 12.4058 0.0303336 12.1092 0.013644 11.8292C-0.00304563 11.5374 -0.00599086 11.2427 0.013644 10.951C0.0499685 10.3949 0.0853112 9.83786 0.294423 9.31017C0.344491 9.1829 0.238463 9.01353 0.400451 8.91367C0.369035 8.87842 0.337619 8.84416 0.306203 8.80989C0.455428 8.67479 0.480954 8.49857 0.508443 8.3057C0.555566 7.97381 0.60269 7.62822 0.73817 7.32864C0.809838 7.17004 0.716572 6.98598 0.883468 6.84403C0.981643 6.76081 0.984588 6.56795 1.03073 6.42403C1.10829 6.41522 1.18486 6.40641 1.35569 6.38781C1.22119 6.33298 1.16621 6.30948 1.07098 6.27032C1.11418 6.21452 1.15148 6.16753 1.18879 6.11956L1.19174 6.1176ZM1.38808 6.44459V6.4769H1.48626V6.44459H1.38808ZM3.48214 18.3553H3.51454V18.2574H3.48214V18.3553ZM3.81004 18.2574H3.77765V18.3553H3.81004V18.2574ZM1.58443 6.54249V6.5748H1.68261V6.54249H1.58443Z" fill="white"/>
<path d="M19.4522 7.87983C19.4227 7.82892 19.3933 7.77801 19.3609 7.72123C19.4139 7.60374 19.6289 7.78976 19.6485 7.58612L19.73 7.55381C19.7025 7.53228 19.676 7.50976 19.6485 7.48822V7.32277C19.7349 7.30612 19.8242 7.28948 19.9371 7.26794C19.9077 7.21899 19.8822 7.17591 19.8566 7.13382C19.9794 7.07606 20.1031 7.01829 20.2395 6.95368C20.1688 6.91941 20.107 6.88906 20.0461 6.85969C20.0952 6.71676 20.32 6.90766 20.3357 6.70501C20.4015 6.77843 20.4653 6.85382 20.5331 6.92529C20.5605 6.95466 20.5979 6.97424 20.6302 6.99871C20.641 7.06039 20.6528 7.12305 20.6636 7.18473C20.6852 7.18277 20.7068 7.17983 20.7284 7.17787V6.99871C20.8109 6.97619 20.8934 6.95368 20.9866 6.9292C21.0819 7.07801 21.184 7.25815 21.3086 7.42165C21.345 7.46864 21.4441 7.46766 21.5138 7.4892C21.5138 7.52151 21.5138 7.55479 21.5187 7.592C21.5177 7.59004 21.5109 7.58416 21.505 7.57731L21.4245 7.64584L21.4559 7.67717C21.4785 7.65074 21.5011 7.6243 21.5187 7.59298C21.7956 7.6899 21.7465 7.965 21.8015 8.17255C21.8643 8.41143 21.8869 8.66402 21.9036 8.91171C21.9203 9.15451 21.8957 9.40024 21.9114 9.64304C21.9203 9.77716 22.0155 9.9152 21.9978 10.0415C21.9085 10.671 21.9566 11.3201 21.7288 11.93C21.7072 11.9868 21.7072 12.0553 21.7121 12.118C21.7435 12.5938 21.5688 13.0295 21.452 13.4759C21.4402 13.5199 21.4215 13.563 21.4166 13.6071C21.3823 13.935 21.3754 14.2679 21.3106 14.59C21.234 14.9777 21.0642 15.3439 20.8227 15.6532C20.6577 15.8647 20.5458 16.0908 20.43 16.3238C20.3367 16.5128 20.2611 16.7096 20.1443 16.8907C19.9411 17.2059 19.9332 17.2138 19.6662 17.4203C19.5474 17.5124 19.3667 17.4086 19.2882 17.5848C19.2391 17.6954 19.1547 17.7904 19.084 17.8913C19.0654 17.9177 19.0388 17.9382 19.0133 17.9627C18.979 17.9314 18.9446 17.9001 18.9122 17.8707C18.8788 17.901 18.8445 17.9324 18.7973 17.9754C18.7846 17.9206 18.7836 17.8433 18.763 17.8374C18.495 17.765 18.4282 17.4624 18.1828 17.3313C18.1788 17.2422 18.1729 17.1325 18.169 17.0297C18.1052 16.9661 18.0473 16.9083 18.0208 16.8819C18.0483 16.7243 18.0708 16.5921 18.0974 16.4403C18.1425 16.4041 18.2083 16.3532 18.2741 16.3013C18.3016 16.2906 18.3281 16.2798 18.3555 16.269L18.2741 16.2034C18.3065 16.0957 18.334 15.9851 18.3752 15.8804C18.387 15.85 18.437 15.8343 18.4743 15.8069C18.4724 15.8079 18.4665 15.8148 18.4596 15.8206C18.4822 15.8471 18.5048 15.8735 18.5283 15.9009L18.5598 15.8696C18.5332 15.8471 18.5067 15.8245 18.4753 15.8069C18.7041 15.5827 18.7257 15.2087 19.0899 14.9395C19.1252 14.8955 18.9898 14.7104 19.1498 14.5802C19.245 14.5029 19.2627 14.3374 19.3314 14.2219C19.4482 14.0281 19.4816 13.842 19.4561 13.5699C19.4482 13.4857 19.4963 13.3966 19.5238 13.2909C19.516 13.282 19.4836 13.2468 19.4364 13.1969C19.5189 13.0148 19.6485 12.819 19.4472 12.6046C19.5091 12.5918 19.5533 12.583 19.6407 12.5654C19.6289 12.4636 19.6161 12.352 19.5984 12.1934C19.5837 12.21 19.6141 12.1758 19.6446 12.1415C19.6151 12.1082 19.5837 12.0739 19.5454 12.0318C19.6073 12.0103 19.6642 11.9907 19.7241 11.9692C19.729 11.8791 19.5562 11.7979 19.6986 11.7009C19.8036 11.6295 19.5759 11.5658 19.7025 11.4816C19.728 11.465 19.6662 11.3181 19.6279 11.1615C19.7251 11.2447 19.7585 11.2731 19.8125 11.3191C19.8262 11.2555 19.837 11.2026 19.8517 11.1341C19.7408 11.1184 19.6505 11.1047 19.5101 11.0851C19.6171 11.0332 19.677 11.0039 19.7634 10.9628C19.729 10.8952 19.6966 10.8306 19.6613 10.7611C19.9136 10.5388 19.568 10.2373 19.732 9.97982C19.677 9.92108 19.6132 9.85352 19.5484 9.78499C19.5876 9.65674 19.6259 9.52751 19.6672 9.39143C19.5837 9.36108 19.5268 9.34052 19.4688 9.31996C19.4639 9.22304 19.3658 9.09772 19.5523 9.05073C19.5503 9.05171 19.5444 9.05856 19.5376 9.06444C19.5601 9.09087 19.5827 9.1173 19.6063 9.14472L19.6377 9.11339C19.6112 9.09087 19.5847 9.06835 19.5533 9.05073C19.5287 9.0194 19.5111 8.98122 19.4875 8.94696C19.4286 8.85884 19.4139 8.7864 19.5533 8.75703C19.5513 8.75801 19.5454 8.76486 19.5385 8.77073C19.5611 8.79717 19.5837 8.8236 19.6073 8.85101L19.6387 8.81968C19.6122 8.79717 19.5857 8.77465 19.5543 8.75703C19.4983 8.61213 19.4463 8.46136 19.3874 8.29004C19.3864 8.29101 19.4178 8.25773 19.4522 8.2215C19.4188 8.19213 19.3834 8.16178 19.3589 8.14025C19.3923 8.08248 19.4217 8.0306 19.4502 7.97969C19.512 7.96892 19.5749 7.95717 19.6367 7.9464C19.6348 7.92486 19.6328 7.90332 19.6299 7.88179H19.4502L19.4522 7.87983ZM20.8266 7.1299V7.16221H20.9248V7.1299H20.8266ZM20.9572 7.48822H20.9896V7.39032H20.9572V7.48822ZM19.8125 7.78193H19.7801V7.87983H19.8125V7.78193Z" fill="white"/>
<path d="M9.92925 19.628C10.0264 19.8415 10.2493 19.7533 10.3406 19.7093C10.5193 19.6231 10.6449 19.6114 10.8079 19.7201C10.8649 19.7573 10.967 19.7259 11.0533 19.7259C11.1191 19.6633 11.1888 19.5977 11.2575 19.5331L11.393 19.6682C11.5138 19.6829 11.6483 19.723 11.663 19.6956C11.7435 19.5526 11.8171 19.7719 11.879 19.6897C11.985 19.5477 12.0606 19.6975 12.1509 19.7063C12.2334 19.7142 12.3227 19.631 12.4072 19.6349C12.5093 19.6398 12.6084 19.6936 12.7115 19.7269C12.792 19.6574 12.8745 19.5869 12.9687 19.5057C13.0276 19.5507 13.0757 19.5879 13.0885 19.5977C13.3555 19.5849 13.548 19.2932 13.8238 19.5135C13.8454 19.4577 13.866 19.4019 13.8975 19.3206C13.9966 19.3637 14.0899 19.4038 14.1812 19.444C14.2528 19.3324 14.3176 19.2325 14.3824 19.1307C14.4305 19.1728 14.4639 19.2031 14.4973 19.2315C14.6063 19.1219 14.7241 19.0612 14.9018 19.1091C14.9617 19.0661 15.0471 19.0044 15.1325 18.9427L15.1649 19.024C15.1865 18.9966 15.2091 18.9701 15.2307 18.9427C15.2807 18.8791 15.3318 18.8145 15.3848 18.7479C15.4152 18.8125 15.4447 18.8761 15.4849 18.9603C15.5124 18.882 15.5321 18.8252 15.5566 18.7567C15.6607 18.7508 15.7696 18.7459 15.9326 18.7371C15.9719 18.698 16.0386 18.6314 16.127 18.5433C16.1938 18.5648 16.29 18.5961 16.3911 18.6285C16.3999 18.5854 16.4088 18.5413 16.4235 18.4689C16.4843 18.4982 16.5413 18.5257 16.6061 18.556C16.6689 18.5237 16.7347 18.4885 16.8054 18.4483C16.8034 18.4493 16.7975 18.4561 16.7907 18.462C16.8132 18.4885 16.8358 18.5149 16.8594 18.5423L16.8908 18.511C16.8643 18.4885 16.8378 18.4659 16.8064 18.4483C16.8761 18.2359 16.9752 18.4219 17.0646 18.4366C17.0862 18.3827 17.1078 18.3279 17.1372 18.2545C17.2246 18.323 17.308 18.3886 17.3934 18.4914C17.3934 18.5012 17.3915 18.4728 17.3905 18.4444C17.3267 18.4571 17.2629 18.4689 17.1991 18.4816C17.202 18.5031 17.204 18.5237 17.2069 18.5452C17.2697 18.5403 17.3326 18.5345 17.3934 18.4914C17.4573 18.4865 17.523 18.5188 17.5927 18.5462C17.5908 18.5472 17.5849 18.554 17.578 18.5599C17.6006 18.5864 17.6232 18.6128 17.6467 18.6402L17.6781 18.6089C17.6516 18.5864 17.6251 18.5638 17.5937 18.5462C17.6212 18.511 17.6536 18.4708 17.6723 18.4473C17.8244 18.5961 17.9521 18.7205 18.0797 18.8448C18.1572 18.9731 18.2348 19.1023 18.3271 19.255C18.065 19.4606 17.8421 19.6564 17.5976 19.8189C17.3709 19.9697 17.1117 20.0715 16.8829 20.2174C16.5197 20.4494 16.1054 20.5512 15.7107 20.701C15.2847 20.8626 14.8625 21.0407 14.4031 21.0956C14.3019 21.2796 14.1066 21.1475 13.9652 21.2248C13.8209 21.3031 13.6559 21.357 13.494 21.3844C13.3349 21.4108 13.1631 21.3638 13.0051 21.3942C11.9762 21.5958 10.9385 21.4382 9.90667 21.4862C9.75155 21.4931 9.60724 21.4803 9.45114 21.402C9.24694 21.2982 9.00052 21.2973 8.76294 21.2855C8.34864 21.2649 7.94515 21.1651 7.5603 21.0006C7.24124 20.8645 6.9261 20.702 6.59329 20.6198C6.34491 20.5581 6.16819 20.4357 6.00326 20.2654C6.00326 20.1841 6.00326 20.1028 6.00326 20.0206C6.04057 19.9746 6.07885 19.9286 6.12598 19.8708C6.03271 19.8356 5.97773 19.815 5.92079 19.7925C5.94337 19.7484 5.96595 19.7054 6.00522 19.629H5.80691C5.78826 19.5889 5.76862 19.5477 5.74212 19.49C5.80593 19.4263 5.88545 19.3461 5.96988 19.2599C5.98264 19.2707 6.01602 19.3001 6.04547 19.3265C6.09652 19.2971 6.14758 19.2668 6.19961 19.2374C6.21041 19.2648 6.22121 19.2912 6.232 19.3187C6.2536 19.2912 6.27618 19.2648 6.29778 19.2374C6.33018 19.2129 6.36356 19.1884 6.39596 19.163C6.36356 19.1229 6.33018 19.0817 6.29778 19.0416C6.33902 18.9799 6.37927 18.9182 6.43817 18.8301C6.49806 18.9114 6.54518 18.977 6.5982 19.0465C6.59721 19.0445 6.59034 19.0387 6.58445 19.0318C6.55794 19.0543 6.53144 19.0768 6.50395 19.1003C6.51475 19.1111 6.52456 19.1209 6.53536 19.1317C6.55794 19.1052 6.58052 19.0788 6.5982 19.0475C6.63256 19.0201 6.68557 18.9682 6.70815 18.9799C6.8613 19.0533 6.99875 18.881 7.14503 18.9603C7.17251 18.975 7.19117 19.0054 7.21473 19.0279C7.27658 18.9956 7.33941 18.9623 7.41697 18.9212C7.48471 19.0064 7.54361 19.0817 7.58681 19.1375C7.80574 19.1522 8.00209 19.1003 8.16309 19.2394C8.19549 19.2717 8.22887 19.305 8.26127 19.3373L8.29367 19.4185C8.31526 19.3911 8.33784 19.3647 8.35944 19.3373C8.45958 19.3696 8.59113 19.4596 8.65396 19.4244C8.84737 19.3187 8.99168 19.6721 9.17233 19.4567C9.33137 19.583 9.52772 19.5008 9.69952 19.5507C9.71719 19.5556 9.72308 19.6026 9.73977 19.6349C9.73879 19.6329 9.73192 19.627 9.72603 19.6202C9.69952 19.6427 9.67301 19.6652 9.64553 19.6887C9.65633 19.6995 9.66614 19.7093 9.67694 19.7201C9.69952 19.6936 9.7221 19.6672 9.73977 19.6359C9.79966 19.631 9.86544 19.631 9.93121 19.631L9.92925 19.628ZM17.7989 19.351C17.8028 19.3794 17.8058 19.4077 17.8097 19.4352C17.8627 19.4224 17.9157 19.4097 17.9697 19.397C17.9668 19.3813 17.9648 19.3657 17.9619 19.35H17.7989V19.351ZM16.1466 18.7469H16.179V18.649H16.1466V18.7469ZM16.8996 18.7146V18.6823H16.8015V18.7146H16.8996ZM15.6234 18.8781V18.9104H15.7215V18.8781H15.6234ZM17.9795 19.0739V19.1062H18.0777V19.0739H17.9795ZM6.10045 19.4655V19.4978H6.19863V19.4655H6.10045Z" fill="white"/>
<path d="M18.5637 4.06754C18.5274 4.09495 18.4842 4.1253 18.4469 4.16152C18.4174 4.18991 18.3968 4.22614 18.3722 4.25844C18.3398 4.25844 18.3065 4.25844 18.2692 4.26334C18.2711 4.26236 18.277 4.25551 18.2839 4.24963C18.2613 4.2232 18.2387 4.19677 18.2152 4.16935L18.1837 4.20068C18.2103 4.2232 18.2368 4.24572 18.2682 4.26334C18.3055 4.29075 18.3379 4.32306 18.3713 4.35635C18.331 4.49635 18.2426 4.55704 18.0924 4.55607C18.007 4.55607 17.9206 4.59229 17.8362 4.61285C17.6948 4.56292 17.5417 4.50907 17.3895 4.45425C17.3787 4.42684 17.3679 4.4004 17.3571 4.37299C17.3355 4.4004 17.3129 4.42684 17.2913 4.45425C16.9536 4.42684 16.7327 4.15663 16.4264 4.03914C16.4137 3.95495 16.3999 3.86488 16.3842 3.75621C16.3302 3.80222 16.2968 3.83159 16.2595 3.86292C16.0681 3.68964 15.911 3.45271 15.5988 3.4674C15.5762 3.46838 15.5605 3.3509 15.5203 3.33034C15.373 3.25593 15.2169 3.20013 15.0481 3.1316C15.0431 3.11202 15.0333 3.06796 15.0157 2.99258C14.8635 2.97495 14.6799 3.0102 14.5425 2.88684V2.6088C14.5248 2.60587 14.5071 2.60293 14.4894 2.59999C14.462 2.65971 14.4345 2.71943 14.4031 2.786C14.3608 2.78307 14.3167 2.77915 14.2499 2.77426C14.2833 2.71551 14.3068 2.67146 14.3638 2.57062C14.1782 2.61761 14.0369 2.65286 13.8896 2.69006C13.87 2.63426 13.8503 2.57747 13.8189 2.4874H13.4684C13.4675 2.46587 13.4655 2.44335 13.4645 2.42181C13.5951 2.40712 13.7266 2.39244 13.8572 2.37873C13.8572 2.35915 13.8562 2.33957 13.8552 2.31999C13.7816 2.31314 13.706 2.31412 13.6343 2.29747C13.5823 2.28573 13.4989 2.22111 13.494 2.22894C13.4135 2.33566 13.3673 2.26027 13.2956 2.17803C13.2377 2.25636 13.1827 2.33174 13.118 2.42083C13.0571 2.33076 13.0149 2.26713 12.9658 2.19859C12.9668 2.20055 12.9736 2.20643 12.9795 2.21328C13.006 2.19076 13.0325 2.16824 13.06 2.14475C13.0492 2.13398 13.0394 2.12419 13.0286 2.11342C13.006 2.13985 12.9835 2.16629 12.9658 2.19761C12.9206 2.2309 12.8696 2.25929 12.8107 2.2916C12.7351 2.26027 12.8185 2.06251 12.6398 2.09482C12.631 2.09678 12.5986 1.97244 12.5731 1.90293C12.5741 1.90489 12.5809 1.91076 12.5868 1.91762C12.6133 1.8951 12.6398 1.87258 12.6673 1.84908C12.6565 1.83832 12.6467 1.82853 12.6359 1.81776C12.6133 1.84419 12.5908 1.87062 12.5731 1.90195C12.5181 1.90685 12.4582 1.90685 12.3561 1.90685C12.414 1.97929 12.4396 2.0116 12.4887 2.07132C12.3934 2.08503 12.3139 2.09678 12.2265 2.1095C12.2943 1.84713 12.0842 1.65426 12.0871 1.41636C12.2344 1.40755 12.1706 1.29496 12.1804 1.21566C12.1814 1.21762 12.1882 1.22349 12.1941 1.23035L12.2746 1.16182C12.2638 1.15105 12.254 1.14126 12.2432 1.13049C12.2206 1.15692 12.1981 1.18335 12.1804 1.21468C12.039 1.22741 12.1018 1.34098 12.0871 1.41538C12.0047 1.35664 11.9222 1.29692 11.8191 1.22349C11.8103 1.28713 11.8014 1.35174 11.7926 1.41538C11.7072 1.50349 11.6208 1.5916 11.5099 1.70615C11.4892 1.68853 11.4441 1.64937 11.395 1.60727C11.396 1.60923 11.4028 1.6151 11.4087 1.62195C11.4352 1.59944 11.4618 1.57692 11.4892 1.55342C11.4784 1.54265 11.4686 1.53286 11.4578 1.52209C11.4352 1.54853 11.4127 1.57496 11.395 1.60629C11.3508 1.63762 11.3017 1.66503 11.2291 1.70517C11.2212 1.64251 11.2124 1.5779 11.2036 1.51328C11.2359 1.48097 11.2693 1.44769 11.3017 1.41538C11.4166 1.41244 11.4284 1.3165 11.3862 1.26461C11.3204 1.18531 11.2301 1.17846 11.2036 1.31748H11.1054C11.0641 1.28517 11.0278 1.24112 10.9817 1.22251C10.9287 1.20195 10.8668 1.20391 10.801 1.1951C10.8678 1.03944 11.0857 1.22937 11.1054 1.02377C11.233 1.05902 11.3439 1.23133 11.4863 1.07958C11.4559 1.02573 11.4284 0.975802 11.3999 0.925872C11.4323 0.901397 11.4657 0.876921 11.4981 0.851467C11.4657 0.811327 11.4323 0.770209 11.3999 0.730069C11.3891 0.702656 11.3783 0.676223 11.3675 0.648811C11.3459 0.676223 11.3233 0.702656 11.3066 0.733985C11.3057 0.732027 11.2988 0.726153 11.2929 0.7193C11.2664 0.741817 11.2399 0.764334 11.2124 0.787831C11.2232 0.7986 11.233 0.80839 11.2438 0.819159C11.2664 0.792726 11.289 0.766293 11.3066 0.734964C11.3341 0.730069 11.3665 0.730069 11.3999 0.730069V0.925872H11.1054C11.073 0.893565 11.0396 0.860278 11.0072 0.827971C10.9964 0.800558 10.9856 0.774125 10.9748 0.746712C10.9532 0.774125 10.9306 0.800558 10.909 0.827971C10.858 0.857341 10.8059 0.886712 10.7618 0.911187C10.7166 0.885733 10.6656 0.856362 10.6145 0.827971C10.6999 0.723216 10.7843 0.618461 10.8806 0.5C10.9552 0.550909 11.0043 0.584195 11.0769 0.633146C11.3076 0.493147 11.5835 0.523496 11.8574 0.553846C11.8711 0.555804 11.88 0.604755 11.8957 0.637062C11.8947 0.635104 11.8878 0.62923 11.8819 0.622377C11.8554 0.644894 11.8289 0.667412 11.8014 0.690908C11.8122 0.701677 11.8221 0.711468 11.8328 0.722237C11.8554 0.695803 11.878 0.66937 11.8957 0.638041C12.4749 0.61944 12.9952 0.856362 13.5283 1.04433C13.6137 1.07468 13.6952 1.11384 13.761 1.14126C13.867 1.03259 13.9505 0.947411 14.0339 0.862236C14.0143 0.842656 13.9917 0.820138 13.9397 0.768251C13.9986 0.725174 14.0585 0.681118 14.1262 0.632167C14.1782 0.635104 14.2548 0.618461 14.3039 0.647832C14.5081 0.770209 14.728 0.804474 14.9597 0.841677C15.161 0.873984 15.3534 0.990487 15.536 1.09231C15.802 1.24112 16.0396 1.45356 16.3194 1.5593C16.6532 1.68461 16.8986 1.92643 17.15 2.13496C17.6575 2.55496 18.2024 2.92796 18.6992 3.36069C18.7227 3.38125 18.7424 3.40768 18.7394 3.40474C18.7659 3.59859 18.7885 3.76404 18.813 3.94222C18.7561 3.96964 18.6619 4.01467 18.5617 4.06558C18.5637 4.0646 18.5696 4.05775 18.5764 4.05187C18.5539 4.02544 18.5313 3.99901 18.5077 3.97159C18.4969 3.98236 18.4871 3.99215 18.4763 4.00292C18.5028 4.02544 18.5293 4.04796 18.5607 4.06558L18.5637 4.06754ZM18.0316 4.2281C17.9236 4.48558 18.0276 4.46991 18.1563 4.42684C18.117 4.36418 18.0797 4.30446 18.0316 4.2281ZM11.7288 0.928809H11.7612V0.830908H11.7288V0.928809ZM13.9544 1.06V1.09231H14.0526V1.06H13.9544ZM12.4494 1.41832H12.417V1.51622H12.4494V1.41832ZM12.9403 1.90783H12.9079V2.00573H12.9403V1.90783ZM15.8197 3.34404V3.31174H15.7215V3.34404H15.8197ZM16.8338 4.15956H16.8662V4.06166H16.8338V4.15956ZM17.0636 4.15956H17.0312V4.25747H17.0636V4.15956Z" fill="white"/>
<path d="M9.83304 1.4193C10.0078 1.49272 9.92729 1.60335 9.88114 1.71594C9.86544 1.75412 9.88703 1.80797 9.89391 1.88727C9.7977 1.89901 9.66909 1.9137 9.52084 1.93132C9.57091 1.98615 9.60135 2.02041 9.60724 2.02629C9.566 2.09384 9.52575 2.16237 9.49336 2.21524C9.36475 2.16531 9.27345 2.12908 9.0879 2.05566C9.17429 2.1702 9.19687 2.20055 9.22338 2.23678C9.21454 2.2544 9.21061 2.28671 9.19196 2.2965C9.02506 2.39342 8.8405 2.40712 8.64808 2.40125C8.65004 2.40027 8.65593 2.39342 8.6628 2.38754C8.64022 2.36111 8.61764 2.33468 8.59408 2.30726C8.58328 2.31803 8.57346 2.32782 8.56266 2.33859C8.58917 2.36111 8.61568 2.38363 8.64709 2.40125C8.652 2.45412 8.652 2.5109 8.652 2.61761C8.54106 2.5716 8.46842 2.54125 8.40068 2.51286C8.35944 2.53635 8.30937 2.56377 8.2593 2.59216C8.2485 2.56475 8.23771 2.53831 8.22691 2.5109C8.20531 2.53831 8.18273 2.56475 8.16113 2.59216C8.09535 2.62642 8.02859 2.66167 7.98245 2.68614C7.87152 2.6509 7.7812 2.62251 7.61234 2.56866C7.70364 2.67146 7.73407 2.70475 7.77432 2.74978C7.66044 2.77523 7.5446 2.87118 7.469 2.68712C7.46998 2.68908 7.47686 2.69496 7.48275 2.70181C7.50925 2.67929 7.53576 2.65677 7.56325 2.63328C7.55245 2.62251 7.54263 2.61272 7.53183 2.60195C7.50925 2.62838 7.48667 2.65482 7.469 2.68614C7.44151 2.69104 7.40911 2.69104 7.37574 2.69104C7.36494 2.66363 7.35414 2.63719 7.34334 2.60978C7.32174 2.63719 7.29916 2.66363 7.27756 2.69104H7.11852C7.10085 2.74391 7.08219 2.79971 7.05765 2.87314C6.92021 2.89565 6.77687 2.92013 6.57365 2.95342C6.55598 2.98181 6.501 3.07286 6.46271 3.13747C6.3292 3.113 6.19666 3.0895 6.07296 3.06698C5.9905 3.1453 5.92177 3.2109 5.85305 3.27551C5.81771 3.2432 5.78237 3.2109 5.72935 3.16195C5.67143 3.19523 5.60958 3.23048 5.54773 3.2667C5.49079 3.20992 5.43287 3.15216 5.40341 3.12181C5.25026 3.1502 5.11773 3.17369 4.96752 3.20111C4.94396 3.13258 4.9253 3.07775 4.90862 3.02684C4.78295 2.97985 4.65631 2.93286 4.52966 2.88586C4.52966 2.78796 4.52966 2.69006 4.52475 2.58726C4.52574 2.58922 4.53261 2.5951 4.5385 2.60195C4.565 2.57943 4.59151 2.55691 4.619 2.53342L4.58758 2.50209C4.565 2.52852 4.54243 2.55496 4.52475 2.58628C4.49432 2.57062 4.45799 2.55104 4.39811 2.51775C4.68478 2.12419 5.04213 1.84517 5.43581 1.61608C5.80004 1.40363 6.16721 1.18237 6.58347 1.08741C6.89959 1.01496 7.21178 0.785873 7.55441 1.02182C7.58779 1.04433 7.66731 1.04531 7.69578 1.02182C7.9098 0.841677 8.16015 0.93762 8.39086 0.932725C8.80025 0.924893 9.19589 0.891607 9.58368 0.740838C9.79671 0.657622 10.0107 0.785873 10.2238 0.82895C10.2483 0.861257 10.2729 0.894544 10.2984 0.926851C10.3386 0.894544 10.3799 0.861257 10.4201 0.82895H10.6165C10.623 0.953611 10.6557 1.06783 10.7146 1.17161C10.5743 1.25482 10.6233 1.39286 10.6165 1.51426C10.5841 1.51426 10.5507 1.51426 10.5311 1.50839C10.4368 1.34587 10.2866 1.44475 10.1668 1.42713C10.1629 1.42713 10.1531 1.46727 10.1423 1.50251C10.2729 1.50251 10.3966 1.50251 10.532 1.50839C10.5193 1.56321 10.5193 1.61216 10.5193 1.66111C10.3475 1.63664 10.2022 1.6944 10.0402 1.83538V1.13342C9.92729 1.28713 9.88016 1.35174 9.83402 1.41636C9.81831 1.39972 9.80064 1.38405 9.78395 1.36741C9.73879 1.43692 9.69363 1.50643 9.63473 1.59748C9.7005 1.60139 9.75352 1.60531 9.82224 1.6102C9.82813 1.53188 9.83206 1.47412 9.835 1.41636L9.83304 1.4193ZM10.1472 1.22545C10.1757 1.22447 10.2041 1.22251 10.2316 1.22154C10.2189 1.1579 10.2071 1.09426 10.1943 1.03063C10.1727 1.03356 10.1521 1.03552 10.1305 1.03846C10.1354 1.10112 10.1413 1.16377 10.4594 1.10699C10.3759 1.15398 10.2925 1.20098 10.1874 1.25874C10.3759 1.39091 10.4309 1.25188 10.1462 1.22643L10.1472 1.22545ZM9.63473 0.962096V0.994403H9.7329V0.962096H9.63473ZM9.79868 1.12461H9.76628V1.22251H9.79868V1.12461ZM9.7329 1.77762V1.74531H9.63473V1.77762H9.7329ZM6.23102 2.98474H6.26342V2.88684H6.23102V2.98474Z" fill="white"/>
<path d="M5.12951 19.4547C5.12067 19.2844 5.11478 19.1757 5.10987 19.0749C5.08533 19.0612 5.06864 19.0465 5.06275 19.0504C4.98519 19.0964 5.05784 19.3118 4.83302 19.2119C4.90272 19.0886 4.97145 18.9662 5.06079 18.8076C5.14423 18.9408 5.20608 19.0396 5.27579 19.1493C5.2964 19.0866 5.31604 19.0308 5.34745 18.9368C5.45446 18.9584 5.5654 18.9809 5.7107 19.0103C5.66259 19.117 5.62431 19.1738 5.61351 19.2345C5.60074 19.3128 5.61056 19.395 5.61056 19.4919C5.51337 19.5742 5.40734 19.6633 5.30229 19.7524C5.28168 19.7396 5.26008 19.7269 5.23946 19.7132C5.25223 19.6731 5.26499 19.6329 5.29248 19.5429C5.25124 19.5203 5.17074 19.4763 5.13049 19.4538L5.12951 19.4547ZM5.29935 19.4743C5.37494 19.4077 5.41127 19.3882 5.4093 19.3745C5.40243 19.3275 5.38182 19.2824 5.36709 19.2374C5.3504 19.2961 5.33371 19.3559 5.40243 19.2286C5.4093 19.2354 5.41519 19.2413 5.42207 19.2482C5.44857 19.2257 5.47508 19.2031 5.50257 19.1796C5.49177 19.1689 5.48195 19.1591 5.47115 19.1483C5.44857 19.1747 5.42599 19.2012 5.29935 19.4743Z" fill="white"/>
<path d="M10.2238 0.830908V0.635104H10.5183C10.4859 0.700698 10.4525 0.765314 10.4201 0.830908H10.2238Z" fill="white"/>
<path d="M18.2741 18.7469C18.2652 18.8938 18.1523 18.8301 18.0777 18.8448V18.5217C18.1671 18.6236 18.2201 18.6852 18.2741 18.7469Z" fill="white"/>
<path d="M2.19213 5.1562H2.45328C2.45426 5.17285 2.45524 5.19047 2.4572 5.20711L2.1941 5.24236C2.1941 5.21396 2.19311 5.18459 2.19213 5.1562Z" fill="white"/>
<path d="M5.98755 20.0079H5.71168C5.82033 19.9472 5.91228 19.9472 5.98755 20.0079Z" fill="white"/>
<path d="M10.8541 1.62979C10.7343 1.59552 10.6754 1.57888 10.6165 1.56223C10.6626 1.54657 10.7068 1.52699 10.7539 1.52014C10.7677 1.51818 10.7873 1.55538 10.8541 1.62979Z" fill="white"/>
<path d="M6.19863 19.2364C6.21335 19.162 6.14954 19.0494 6.2968 19.0406V19.2364H6.19863Z" fill="white"/>
<path d="M10.5075 0.626293C10.5301 0.59986 10.5527 0.573426 10.5762 0.546014C10.587 0.556783 10.5968 0.566573 10.6076 0.577342C10.5811 0.59986 10.5546 0.622377 10.5271 0.645873C10.5203 0.63902 10.5144 0.633146 10.5075 0.626293Z" fill="white"/>
<path d="M11.0092 0.928809C10.9768 0.896502 10.9434 0.863215 10.911 0.830908H11.0092V0.928809Z" fill="white"/>
<path d="M11.1073 1.02671C11.0749 0.994403 11.0416 0.961117 11.0092 0.928809H11.1073V1.02671Z" fill="white"/>
<path d="M13.758 0.994403H13.6599V0.962096H13.758V0.994403Z" fill="white"/>
<path d="M10.7804 1.32042V1.41832H10.748V1.32042H10.7804Z" fill="white"/>
<path d="M11.1073 1.41832C11.0799 1.39678 11.0533 1.37426 11.0259 1.35272C11.0533 1.34195 11.0799 1.33119 11.1073 1.32042V1.41832Z" fill="white"/>
<path d="M11.2055 1.51622C11.1731 1.48391 11.1397 1.45063 11.1073 1.41832H11.2055V1.51622Z" fill="white"/>
<path d="M11.8034 1.40853C11.8299 1.43104 11.8564 1.45356 11.8839 1.47706C11.8731 1.48783 11.8633 1.49762 11.8525 1.50839L11.7838 1.42811C11.7906 1.42125 11.7965 1.41538 11.8034 1.40853Z" fill="white"/>
<path d="M11.8927 1.77762H11.7946V1.74531H11.8927V1.77762Z" fill="white"/>
<path d="M10.2238 1.94111H10.3219V1.97342H10.2238V1.94111Z" fill="white"/>
<path d="M9.82028 2.09482C9.84286 2.06838 9.86544 2.04195 9.889 2.01454C9.8998 2.02531 9.90961 2.0351 9.92041 2.04587L9.83991 2.1144C9.83304 2.10755 9.82715 2.10167 9.82028 2.09482Z" fill="white"/>
<path d="M9.84089 2.11244L9.77217 2.19272C9.76137 2.18195 9.75155 2.17216 9.74076 2.16139C9.76726 2.13887 9.79377 2.11636 9.82126 2.09286C9.82813 2.09971 9.83402 2.10559 9.84089 2.11244Z" fill="white"/>
<path d="M8.26029 2.59314C8.23869 2.62055 8.21611 2.64698 8.19451 2.6744C8.18371 2.64698 8.17291 2.62055 8.16211 2.59314H8.26029Z" fill="white"/>
<path d="M13.758 2.65873H13.6599V2.62642H13.758V2.65873Z" fill="white"/>
<path d="M4.53948 2.89565L4.47076 2.97593C4.45996 2.96516 4.45014 2.95537 4.43934 2.9446L4.51985 2.87607C4.52672 2.88293 4.53261 2.8888 4.53948 2.89565Z" fill="white"/>
<path d="M14.5533 2.89565C14.5307 2.92209 14.5081 2.94852 14.4845 2.97593C14.4737 2.96516 14.4639 2.95537 14.4531 2.9446C14.4796 2.92209 14.5061 2.89957 14.5336 2.87607C14.5405 2.88293 14.5464 2.8888 14.5533 2.89565Z" fill="white"/>
<path d="M1.18094 6.10879C1.20352 6.08235 1.2261 6.05592 1.24966 6.02851C1.26046 6.03928 1.27028 6.04907 1.28107 6.05984C1.25457 6.08235 1.22806 6.10487 1.20057 6.12837C1.1937 6.12151 1.18781 6.11564 1.18094 6.10879Z" fill="white"/>
<path d="M21.503 7.47941C21.5256 7.45298 21.5482 7.42654 21.5717 7.39913L21.6032 7.43046C21.5766 7.45298 21.5501 7.47549 21.5227 7.49899C21.5158 7.49214 21.5099 7.48626 21.503 7.47941Z" fill="white"/>
<path d="M19.6485 7.58612C19.621 7.56458 19.5945 7.54207 19.567 7.52053L19.6485 7.48822V7.58612Z" fill="white"/>
<path d="M2.23926 4.74697V4.84488H2.20686V4.74697H2.23926Z" fill="white"/>
<path d="M19.4522 7.97773C19.4247 7.95619 19.3982 7.93367 19.3707 7.91214L19.4522 7.87983V7.97773Z" fill="white"/>
<path d="M2.0753 9.34835C2.10279 9.36989 2.1293 9.39241 2.15679 9.41395C2.1293 9.42472 2.10279 9.43548 2.0753 9.44625V9.34835Z" fill="white"/>
<path d="M2.8931 4.74697V4.64907H2.92549V4.74697H2.8931Z" fill="white"/>
<path d="M2.8607 12.2854C2.88819 12.3069 2.91469 12.3295 2.94218 12.351C2.91469 12.3618 2.88819 12.3725 2.8607 12.3833V12.2854Z" fill="white"/>
<path d="M18.2741 16.2994L18.1926 16.2338C18.2201 16.223 18.2466 16.2122 18.2741 16.2015V16.2994Z" fill="white"/>
<path d="M4.44032 17.5623L4.52083 17.6308C4.51003 17.6416 4.50021 17.6514 4.48941 17.6622C4.46683 17.6357 4.44425 17.6093 4.42069 17.5819C4.42756 17.575 4.43345 17.5692 4.44032 17.5623Z" fill="white"/>
<path d="M4.26754 18.2574V18.1595H4.29993V18.2574H4.26754Z" fill="white"/>
<path d="M17.3905 4.45327C17.3689 4.48068 17.3463 4.50711 17.3247 4.53453C17.3139 4.50711 17.3031 4.48068 17.2923 4.45327H17.3905Z" fill="white"/>
<path d="M18.2417 18.3553V18.4532H18.2093V18.3553H18.2417Z" fill="white"/>
<path d="M18.3722 4.25747C18.3997 4.279 18.4262 4.30152 18.4537 4.32306C18.4262 4.33383 18.3997 4.3446 18.3722 4.35537V4.25747Z" fill="white"/>
<path d="M18.2633 18.7381C18.2858 18.7117 18.3084 18.6852 18.332 18.6578L18.3634 18.6891C18.3369 18.7117 18.3104 18.7342 18.2829 18.7577L18.2633 18.7381Z" fill="white"/>
<path d="M5.51141 18.7802H5.60958V18.8125H5.51141V18.7802Z" fill="white"/>
<path d="M6.88585 18.8125H6.78767V18.7802H6.88585V18.8125Z" fill="white"/>
<path d="M15.1325 18.9427C15.1541 18.9153 15.1767 18.8889 15.1983 18.8615C15.2091 18.8889 15.2199 18.9153 15.2307 18.9427H15.1325Z" fill="white"/>
<path d="M7.37672 2.69104C7.35512 2.71845 7.33254 2.74489 7.31094 2.7723C7.30014 2.74489 7.28934 2.71845 7.27854 2.69104H7.37672Z" fill="white"/>
<path d="M8.16211 19.2364C8.18371 19.209 8.20629 19.1826 8.22789 19.1552L8.26029 19.2364H8.16211Z" fill="white"/>
<path d="M20.3269 6.71578C20.3004 6.69326 20.2739 6.67074 20.2464 6.64725C20.2572 6.63648 20.267 6.62669 20.2778 6.61592C20.3004 6.64235 20.323 6.66878 20.3465 6.6962C20.3397 6.70305 20.3338 6.70892 20.3269 6.71578Z" fill="white"/>
<path d="M8.26029 19.2364C8.29268 19.2687 8.32606 19.302 8.35846 19.3343H8.26029V19.2364Z" fill="white"/>
<path d="M20.6302 6.99871C20.6518 6.9713 20.6744 6.94487 20.696 6.91745C20.7068 6.94487 20.7176 6.9713 20.7284 6.99871H20.6302Z" fill="white"/>
<path d="M9.91845 19.6192C9.94103 19.5928 9.96361 19.5663 9.98717 19.5389L10.0186 19.5703C9.99208 19.5928 9.96557 19.6153 9.93809 19.6388C9.93121 19.6319 9.92532 19.6261 9.91845 19.6192Z" fill="white"/>
<path d="M5.81575 19.6368C5.79317 19.6633 5.77059 19.6897 5.74702 19.7171L5.71561 19.6858C5.74212 19.6633 5.76862 19.6408 5.79611 19.6173C5.80298 19.6241 5.80887 19.63 5.81575 19.6368Z" fill="white"/>
<path d="M18.6992 4.25747V4.15956H18.7316V4.25747H18.6992Z" fill="white"/>
<path d="M5.47901 19.8238V19.9217H5.44661V19.8238H5.47901Z" fill="white"/>
<path d="M17.9471 18.3553V18.4532H17.9147V18.3553H17.9471Z" fill="white"/>
<path d="M11.3037 1.41832H11.2055V1.32042C11.2379 1.35272 11.2713 1.38601 11.3037 1.41832Z" fill="white"/>
</svg>
