<svg width="90" height="33" viewBox="0 0 90 33" fill="none" xmlns="http://www.w3.org/2000/svg">
<path d="M0.116371 7.20744C1.81977 5.22679 3.77047 5.82094 5.6552 6.05751C7.44652 6.28859 9.23232 6.60773 11.0346 6.70676C13.3208 6.82506 15.6115 6.82506 17.8977 6.70676C20.4308 6.58022 22.9529 6.25558 25.0409 6.05751L27.9972 2.10173L28.2554 2.26675L28.7115 0H32.3765L34.0579 1.359C35.0965 0.96287 36.0196 0.313636 36.9482 0.308134C47.7511 0.236611 58.5539 0.264088 69.3677 0.275091C69.7383 0.300026 70.106 0.357124 70.4667 0.44568C71.4502 1.97519 72.3184 3.3286 72.9558 4.32993L84.0224 5.83199L84.7038 7.89517L89.0117 8.25274V12.2746H83.4784L81.0937 15.2181C77.599 15.8398 58.2517 15.6417 56.1197 14.954C54.6636 16.6761 53.8283 18.5907 54.158 20.9565C54.5372 23.6579 54.8174 26.3702 55.1032 29.0826C55.1129 29.7086 55.0706 30.3343 54.9768 30.9533L44.4212 33C44.5146 30.8543 44.6245 29.0937 44.663 27.3331C44.7014 25.5725 44.663 23.7074 44.663 21.6167L42.9651 22.9041L41.7123 21.7158L34.7613 21.2371C33.7063 23.4378 32.5066 25.9577 31.1622 28.7966C28.7225 28.9176 26.2773 28.7966 24.3321 26.7664C23.7222 24.5657 24.3651 22.7061 25.7058 21.072C26.5191 20.0817 27.5191 19.2454 28.2829 18.222C28.8324 17.5068 29.0906 16.5715 29.7555 15.1851C26.4586 15.1851 23.8046 15.4766 21.233 15.1245C15.6778 14.3763 11.683 17.6389 7.39702 20.1367C6.60027 20.5989 6.14422 21.6662 5.56727 22.4804C5.13867 23.0801 4.79247 23.7239 4.37486 24.3291C4.15114 24.5826 3.90265 24.813 3.63307 25.0168H0.687855C0.484546 23.9825 -0.0374624 22.9041 0.138372 21.9633C1.03259 17.648 0.997031 13.1914 0.0340025 8.89097C-0.0131128 8.3286 0.0145502 7.7625 0.116371 7.20744ZM36.9318 18.9318L37.1131 19.0309L36.8878 18.9758L36.4427 17.6169L35.8932 18.035L36.9318 18.9318ZM52.9052 25.501V27.7017L53.4547 27.6192L52.8723 25.523V19.1133L52.1854 19.1629C52.4089 21.2829 52.6415 23.3956 52.8832 25.501H52.9052ZM36.5911 1.50749L36.4922 1.76613H69.2413V1.50749H36.5911ZM12.4688 13.9086L8.25974 10.0959V16.3624L12.4688 13.9086ZM66.906 8.3023C64.9169 7.26246 57.944 7.29547 56.1637 8.3023H66.906ZM24.2497 7.37797C18.612 8.76993 12.8479 7.44949 6.89154 8.13722C10.9962 9.03402 22.4968 8.56086 24.2277 7.37797H24.2497ZM15.6008 12.6102L18.557 9.90328H12.4688L15.6008 12.6102ZM70.9393 7.32847L72.302 6.2281L73.2086 7.7906L74.5823 5.5569L75.5549 7.35594L77.0605 6.36014L78.088 7.69705L78.4012 5.942H68.6919L70.9393 7.32847ZM47.5697 29.0002L48.3225 28.9506C48.0221 25.6495 47.7217 22.3484 47.4214 19.0473L46.7565 19.1079C47.0129 22.398 47.2767 25.6954 47.5478 29.0002H47.5697ZM42.3441 13.5951V13.9031H53.3778V13.5951H42.3441ZM50.3281 19.0088L49.6193 18.8382C49.8501 21.9743 50.079 25.1104 50.3061 28.2464L50.8556 28.2134C50.6578 25.147 50.4747 22.088 50.3061 19.0364L50.3281 19.0088ZM36.3878 3.12507L36.4647 3.40566H43.9541V3.12507H36.3878ZM27.9752 6.00802L27.7389 6.28311H34.0744V6.00802H27.9752ZM40.2891 17.4353L39.4649 17.0832L38.6516 19.3499C40.8496 19.4105 40.6682 18.4807 40.2891 17.4298V17.4353ZM87.2864 9.60072L87.5116 9.29259H82.5059V9.60072H87.2864ZM22.9529 12.0985V10.0904L20.8594 12.0985H22.9529ZM1.1934 7.2239L1.24834 7.81814L4.67161 7.41101L4.61667 6.8938L1.1934 7.2239ZM66.6643 3.2021V3.4827H69.9612V3.2021H66.6643ZM31.3545 1.458L31.4534 1.03985H30.2281V1.32045L31.3545 1.458Z" fill="white"/>
</svg>
