<svg width="52" height="37" viewBox="0 0 52 37" fill="none" xmlns="http://www.w3.org/2000/svg">
<path d="M4.83784 11.6635C3.21931 10.8794 1.01489 11.6374 0.0502466 9.35366L0.626432 8.02725L2.45537 7.67115C2.70139 7.27256 3.02185 6.78249 3.30024 6.26956C3.57863 5.75662 3.82788 5.19793 4.09332 4.65559L2.74346 1.87207L3.57862 0.663228L5.22629 0.967084L6.46284 0.294046L7.55697 1.12063H45.4305L46.3563 0H48.7193C49.6581 0.88538 50.231 2.21182 51.6521 2.20855C52.0794 3.54806 52.102 4.53145 51.7621 6.12905L50.5677 6.66813L51.8625 7.41958V9.47781L50.5677 10.1312C50.422 10.7846 50.2699 11.4381 50.0886 12.2516C46.6897 12.5129 43.3587 12.3365 40.0343 12.3692C36.7098 12.4019 33.4696 12.3692 30.0933 12.3692C29.1805 14.4438 30.1742 16.6556 29.3876 18.7563C29.0089 18.7563 28.6043 18.8674 28.2968 18.7368C27.3256 18.3218 26.4257 18.5734 25.4773 18.8838C24.6992 19.0877 23.9036 19.2157 23.1013 19.266C22.726 19.3063 22.3481 19.314 21.9715 19.2889C19.8513 19.1876 17.7634 19.2007 15.8212 20.8081C15.8794 21.1544 15.9701 21.7229 16.0898 22.4743L15.2094 24.1928C15.3346 24.7897 15.2825 25.4107 15.0597 25.9779C14.8369 26.5451 14.4531 27.0333 13.9566 27.3815C14.3515 28.5053 14.1508 29.5051 13.6135 30.5277C13.2898 31.1157 13.2898 31.8868 13.2218 32.5827C13.102 33.5955 13.0341 34.6148 12.9499 35.5884C12.5614 35.7909 12.3219 36.0262 12.0921 36.0131C9.18951 35.8759 6.28804 35.7114 3.38765 35.5198C3.09307 35.5002 2.81469 35.2714 2.41653 35.082L2.2579 31.6973L0.717078 31.1582C-0.208718 30.2369 -0.0306884 29.1718 0.182957 28.0806C0.822549 24.9913 1.8064 21.985 3.11573 19.119C3.73076 17.7305 4.26163 16.3028 4.86696 14.9077C5.10236 14.399 5.22193 13.8437 5.21688 13.2823C5.21184 12.7209 5.08233 12.1678 4.83784 11.6635ZM32.3236 8.54343C32.9322 8.5075 33.3595 8.46175 33.7868 8.45849C38.1978 8.43453 42.611 8.41495 47.0263 8.3997C47.5101 8.42718 47.9954 8.41187 48.4765 8.35396C48.6967 8.31148 48.8682 8.02724 49.3635 7.53392C48.4539 7.48818 47.9424 7.43589 47.4212 7.43589C40.8565 7.43589 34.2896 7.43589 27.7206 7.43589C27.4552 7.39443 27.184 7.41456 26.9275 7.49471C26.6661 7.69661 26.4359 7.93666 26.2445 8.20695C27.2156 8.71335 27.6785 7.8541 28.4003 7.74955C29.7211 7.8835 31.1842 7.35421 32.3107 8.54343H32.3236ZM5.35252 7.73974C5.73449 8.00764 5.98375 8.28536 6.28479 8.36704C6.7107 8.45363 7.14604 8.48326 7.57961 8.45522C12.9639 8.45522 18.3482 8.45522 23.7325 8.45522C24.1076 8.48203 24.4846 8.45564 24.8525 8.37681C25.0921 8.30493 25.2701 8.02398 25.6683 7.66134C25.2413 7.56018 24.809 7.4838 24.3734 7.43262C17.744 7.18758 6.79301 7.33789 5.35252 7.73974ZM48.975 3.98587C47.5572 3.65916 24.6227 3.73102 23.2405 4.09367C23.5011 4.23927 23.7768 4.35543 24.0627 4.44C24.4368 4.4798 24.8133 4.49181 25.1892 4.47593C32.4553 4.47593 39.7225 4.47593 46.9907 4.47593C47.664 4.47266 48.3859 4.60335 48.975 3.98587ZM23.726 16.2178C26.5293 15.4958 27.0214 14.3491 25.5064 12.3594C24.6907 12.4443 23.7875 12.1699 22.9686 12.5293C22.4506 13.9897 24.2181 14.7509 23.739 16.2178H23.726ZM22.4701 2.41765C20.1329 2.09094 8.91328 2.1661 7.80621 2.47648C8.77733 2.88813 16.7243 3.08742 21.1882 2.80318C21.6302 2.71321 22.0634 2.58419 22.483 2.41765H22.4701ZM35.3988 2.47975L35.3535 2.32943H23.4768C23.4476 2.32943 23.4023 2.3948 23.3926 2.43727C23.3838 2.5045 23.3838 2.5726 23.3926 2.63983C23.5059 2.69537 23.6419 2.81626 23.7746 2.81626C27.2059 2.81626 30.6404 2.83913 34.0717 2.81626C34.5304 2.76016 34.9805 2.64713 35.4118 2.47975H35.3988ZM20.7479 16.1656L20.9486 15.9336L19.2071 12.7711C18.427 13.5552 18.427 13.5552 18.4432 14.8228L20.7479 16.1656ZM7.1847 5.05748L10.5998 5.33517L11.1987 4.17534C9.77435 4.07733 8.46657 3.92053 7.11672 4.27337L7.1847 5.05748ZM44.7992 2.30985C45.4466 3.13969 46.2559 3.28997 48.1496 3.11681C48.5866 3.07761 49.043 3.06128 48.9621 2.30985H44.7992ZM17.3167 17.7729C16.993 17.2045 16.8764 16.7667 16.6401 16.6719C16.0348 16.4302 15.3906 16.4171 14.9795 17.1163C15.3971 18.2303 16.1869 17.8122 17.3296 17.7795L17.3167 17.7729ZM38.4449 2.46012C37.0692 2.08768 37.0692 2.08767 36.4153 3.02859H38.3899L38.4449 2.46012ZM5.89958 2.49933L5.80895 2.19224L4.21955 2.40788L5.1486 3.20176L5.89958 2.49933ZM41.7985 3.37819L42.3197 2.30985C42.07 2.27279 41.8175 2.25966 41.5654 2.27065C41.4359 2.29678 41.3291 2.43727 41.1252 2.59736L41.7985 3.37819ZM44.0353 2.29023L42.7631 2.44054C43.4364 3.10049 43.7763 3.28996 44.0482 2.29677L44.0353 2.29023ZM39.9275 3.29325L40.5328 2.31312L39.1862 2.37518L39.9275 3.29325ZM14.5393 4.13941C13.662 4.25049 13.6167 4.67521 13.6815 5.27635L14.5393 4.13941ZM50.4123 3.15928L50.1727 3.29652L50.4349 3.77677L50.6907 3.63304L50.4123 3.15928ZM16.8279 4.82876L17.0092 4.89413L17.307 4.24071L17.035 4.14922L16.8279 4.82876ZM20.4793 4.28318L20.3174 4.17534L20.107 4.52821L20.243 4.61639L20.4793 4.28318Z" fill="white"/>
</svg>
