<svg width="101" height="30" viewBox="0 0 101 30" fill="none" xmlns="http://www.w3.org/2000/svg">
<path d="M100.012 5.94271V8.01905L96.7774 10.1441H75.7512L73.9899 11.4045L56.2901 12.0134C55.8208 11.458 55.1751 11.0776 54.4589 10.9348C53.7428 10.7921 52.999 10.8954 52.35 11.2279C52.7428 16.1782 55.3818 19.9351 59.2973 23.0282C58.2724 25.7073 56.4619 27.6314 55.0381 30C49.5146 26.6328 46.446 21.7678 44.6048 15.9285C43.1012 16.7384 41.7878 16.6166 41.125 15.5998L34.0058 14.7838L32.091 17.5116V21.0919C29.6361 21.7008 27.7152 20.9824 25.8004 19.5332C25.6899 16.5253 27.7888 14.2237 28.3043 11.4837C26.4141 10.7774 18.5645 10.5825 13.3295 11.1062L2.52797 18.7416C0.760445 18.4676 0.0239932 17.7553 0.0117188 16.434C0.0117188 13.0932 0.0117188 9.75031 0.0117188 6.40547C0.0557034 6.13408 0.147126 5.87246 0.281796 5.63224C1.28216 4.41446 2.58936 4.79806 3.77384 4.79806C11.341 4.79806 18.9083 4.79806 26.3466 4.79806C26.6534 4.62758 26.905 4.56661 26.9971 4.42048C28.5744 1.72309 30.9311 1.04723 33.9935 1.15074C40.2228 1.36385 46.4644 1.21778 52.7551 1.21778L54.455 0H73.8364L75.4628 2.38071H86.2152C86.4545 3.36711 86.6571 4.20743 86.9025 5.24254H94.1814L95.4824 0.0912742H98.281V4.85284L100.012 5.94271ZM12.3844 7.3249L12.1818 7.73289L12.3352 7.27012L12.949 6.66123H23.591C20.2946 6.24425 16.97 6.08747 13.6486 6.19237C13.4277 6.19237 13.219 6.53334 13.0349 6.71601L12.3844 7.3249ZM62.7096 6.05844C62.9306 6.21066 63.1515 6.3568 62.8385 6.14369H62.6605C60.8193 4.97462 58.8984 5.72966 56.9897 6.08891L62.7096 6.05844ZM3.17855 15.0761L10.6475 9.59605L10.3345 7.48322C7.84279 7.61718 5.52911 7.02049 3.17855 7.97036V15.0761ZM54.946 6.5151V6.28372H27.5556V6.53948L54.946 6.5151ZM52.7796 3.00179C52.3622 2.6669 52.2947 2.5695 52.2334 2.5695C45.0835 2.53297 37.9398 2.49644 30.7961 2.50253C30.4462 2.50253 30.1025 2.82521 29.7588 3.00179H52.7796ZM75.3707 6.27153V6.59426H98.4651V6.28372L75.3707 6.27153ZM75.3707 8.7071V8.87151H96.581V8.71929L75.3707 8.7071ZM84.5029 4.03086L84.5582 3.26974H81.379C80.2682 3.26974 79.1574 3.22103 78.0527 3.26974C77.1014 3.33063 76.009 2.91653 74.7815 4.04907L84.5029 4.03086ZM63.0901 2.61209V2.86785H73.2964V2.63038L63.0901 2.61209ZM38.2773 11.3132C38.374 11.8468 38.6546 12.3304 39.0711 12.6814C39.4875 13.0324 40.014 13.2289 40.5603 13.2373L40.9961 11.0574C40.1799 11.0087 39.6889 10.9357 39.204 10.96C38.8895 11.0339 38.5862 11.1485 38.3019 11.301L38.2773 11.3132ZM53.0619 4.3657C48.8825 3.47672 47.2745 3.62285 46.311 4.3657H53.0619ZM29.9614 10.6007V10.8382H34.0426V10.6007H29.9614ZM97.1026 1.27256L97.2131 0.755019L96.1943 0.931547L97.1026 1.27256ZM1.7056 6.29591V6.5212H2.7489V6.28372L1.7056 6.29591ZM49.8215 10.8382L50.1222 11.3132L50.7359 10.7652L50.6193 10.5277L49.8215 10.8382ZM45.1019 11.7759H45.3167V10.7773H45.1019V11.7759ZM72.7992 6.36288C72.9227 6.44678 73.0519 6.52205 73.1859 6.58817C73.1859 6.58817 73.2779 6.47856 73.327 6.42376L72.7992 6.36288ZM54.4489 1.4065L54.32 1.5831H54.5165L54.4489 1.4065Z" fill="white"/>
</svg>
