<svg width="39" height="33" viewBox="0 0 39 33" fill="none" xmlns="http://www.w3.org/2000/svg">
<path d="M36.4266 10.7532C36.2013 11.8223 35.4746 12.3937 34.217 12.3363C33.9488 13.3451 33.6807 14.2994 33.4554 15.259C33.3562 15.6555 33.3133 16.0656 33.206 16.4621C32.7609 18.1025 31.8653 18.7888 30.1974 18.7942C27.0707 18.7942 23.944 18.7942 20.812 18.7942C18.6963 18.7942 17.4896 19.6527 16.8621 21.7143C16.2802 23.6281 15.7654 25.542 15.2693 27.4887C15.1352 28.0054 15.1861 28.5823 15.1513 29.1292L15.937 30.19V31.4559C15.7922 31.5406 15.6688 31.6582 15.5642 31.6637C11.3301 31.8906 7.09596 32.1804 2.85378 31.9043C0.440396 31.7484 -0.0449656 31.2289 0.0167097 28.8038C0.0246767 27.9422 0.167714 27.0875 0.440396 26.272C1.68999 22.8161 3.02002 19.3903 4.3152 15.9535C4.74424 14.8106 5.18938 13.6732 5.2591 12.5331C4.67989 11.4067 3.69577 11.0376 2.79746 10.54C1.45669 9.80449 1.12955 8.88308 1.60954 7.31371L2.63924 6.5919C2.41399 6.20912 2.2263 5.86463 2.01714 5.53654C1.80798 5.20844 1.57199 4.96237 1.40037 4.64521C0.721946 3.39573 1.33065 2.38137 2.74114 2.34856C3.30426 2.34856 3.8647 2.23099 4.31788 2.17904C4.73352 1.6623 5.04189 1.27406 5.35563 0.89129C5.41195 0.822937 5.49507 0.779204 5.42267 0.836621C6.15741 0.56321 6.71785 0.221426 7.29974 0.166744C8.18011 0.118096 9.06297 0.147388 9.93838 0.254254C10.3647 0.289798 10.7804 0.527665 11.2014 0.527665C16.7432 0.549538 22.2851 0.549538 27.8269 0.527665C28.181 0.560216 28.5378 0.518321 28.8754 0.40461C29.4087 0.130909 29.9988 -0.00775584 30.5958 0.000334771C31.1928 0.00842539 31.7791 0.163046 32.305 0.451102C32.607 0.562085 32.9199 0.639087 33.2382 0.680758L34.4556 2.1982L37.7432 2.84892C37.8642 3.32159 37.9476 3.80345 37.9926 4.2898C38.0301 5.7006 38.014 7.11413 38.006 8.52493C37.9953 10.1025 37.9604 10.1408 36.4266 10.7532ZM4.36883 4.57412C4.70402 4.60967 4.88101 4.64795 5.05799 4.64795C9.07314 4.64795 13.0892 4.64795 17.1061 4.64795C17.4164 4.66462 17.7268 4.62007 18.0205 4.51672C18.1975 4.44016 18.2887 4.16129 18.4496 3.94256C17.2295 3.54065 4.56995 3.52424 4.23744 3.97537L4.36883 4.57412ZM33.2999 9.01431L33.0317 8.59602C32.8698 8.53117 32.7004 8.48795 32.5276 8.46749C27.7992 8.45109 23.0725 8.44198 18.3477 8.44016C18.0385 8.4508 17.7304 8.48188 17.4252 8.53314C17.3877 8.53314 17.3501 8.58507 17.326 8.62062C17.2994 8.67179 17.2787 8.72591 17.2643 8.78192C17.3689 9.50373 17.9642 9.31234 18.4013 9.32874C22.9036 9.34788 27.4086 9.34516 31.9135 9.34516C32.1838 9.34743 32.4535 9.31991 32.718 9.26313C32.9186 9.19723 33.1132 9.11399 33.2999 9.01431ZM34.4959 3.7047C31.927 3.7047 29.4894 3.70468 27.0519 3.72108C26.8964 3.72108 26.7409 3.95896 26.4834 4.17222C26.7169 4.35136 26.972 4.49929 27.2423 4.61241C28.0334 4.79012 33.7289 4.61243 34.4288 4.42924L34.4959 3.7047ZM24.1693 12.6862C24.5527 13.6514 24.8397 14.3704 25.1507 15.1469L27.2611 15.0266L27.9341 12.689L24.1693 12.6862ZM19.423 3.93709C19.3532 4.75732 19.6697 4.85027 20.0639 4.84754C21.7934 4.84754 23.5203 4.83116 25.2499 4.80655C25.3572 4.80655 25.4618 4.67531 25.6253 4.56321L25.4403 3.90428C23.405 3.91248 21.4314 3.84413 19.423 3.93709ZM3.11656 8.46479L3.02271 8.7382C3.26405 8.89951 3.50001 9.19478 3.74671 9.20298C5.2001 9.24946 6.65618 9.244 8.10957 9.20298C8.26242 9.20298 8.40991 8.88582 8.76924 8.47844C6.69105 8.38548 4.90246 8.42651 3.11656 8.46479ZM19.6268 14.6548C20.2998 15.0649 20.8871 15.3493 21.5762 14.8106C21.2008 14.149 20.871 13.5748 20.5385 12.987C19.7608 13.2877 19.6107 13.8592 19.6268 14.6548ZM34.7426 8.65616C34.2867 8.42103 33.9005 8.33079 33.5278 8.81747C34.3108 9.42444 34.3108 9.42445 34.7426 8.65616ZM36.6625 4.39643C35.96 4.18591 35.783 4.36635 36.1423 5.00066L36.6625 4.39643Z" fill="white"/>
</svg>
