<svg width="99" height="20" viewBox="0 0 99 20" fill="none" xmlns="http://www.w3.org/2000/svg">
<path d="M1.28476 16.6994C-0.509702 12.0139 -0.301473 7.78825 1.15002 3.21461C5.27176 3.6496 9.0689 4.19647 12.8844 4.40154C16.6999 4.60661 20.4358 4.44501 24.2085 4.44501H35.8449C39.6237 4.44501 43.4024 4.44501 46.9424 2.97225C48.6266 -0.265343 49.0675 -0.489057 51.75 0.561141C51.848 1.08935 51.9766 1.68592 52.0501 2.28248C52.1236 2.87904 52.142 3.5253 52.2155 4.59414C53.3363 4.59414 54.4142 4.59414 55.4921 4.59414C63.6437 4.80542 71.8198 4.71219 79.9408 5.35225C85.3915 5.78103 90.7749 7.21658 96.1644 8.29785C97.1565 8.4967 98.0568 9.16162 99 9.61525V10.3796C98.0546 10.8502 97.0833 11.2652 96.0909 11.6224C88.2149 13.9962 80.1123 14.9346 71.9362 15.208C66.4242 15.3944 60.9122 15.2825 55.4002 15.3198C54.4019 15.3198 53.4036 15.4068 52.2584 15.4627C52.1236 16.8237 52.0011 18.0293 51.897 19.0919C50.5986 20.6081 49.4473 19.9184 48.1121 19.2286C47.8365 18.5512 47.5364 17.8055 47.2425 17.0909C46.9693 16.9075 46.6725 16.7633 46.3605 16.6621C43.3473 16.2271 40.3341 15.5373 37.3086 15.4627C30.1757 15.2888 23.0306 15.2888 15.8731 15.4627C12.125 15.5435 8.3891 16.1214 4.64095 16.4632C3.63654 16.5564 2.64438 16.6062 1.28476 16.6994ZM76.2416 7.84415C74.2267 5.94261 67.6674 5.64439 53.0301 6.27824L51.4806 8.14249C55.8167 8.04307 59.8037 7.91252 63.7907 7.86281C67.9308 7.79445 72.0831 7.84415 76.2294 7.84415H76.2416ZM94.915 9.85139C89.2245 8.24991 83.3849 7.25439 77.491 6.881C77.9871 7.65155 78.1953 8.33513 78.4954 8.37242C83.9217 9.13676 89.3173 10.4666 94.9028 9.85139H94.915ZM2.56476 5.08509C4.35922 7.49619 7.02334 7.26005 9.52823 7.57076C7.85626 4.83652 4.95942 5.81215 2.55252 5.08509H2.56476ZM40.6036 6.42115C42.9002 8.35376 44.5783 6.73808 46.2442 6.42115C46.8566 6.32172 47.8794 5.88668 47.0832 4.65627L40.6036 6.42115Z" fill="white"/>
</svg>
