<svg width="90" height="33" viewBox="0 0 90 33" fill="none" xmlns="http://www.w3.org/2000/svg">
<path d="M28.6212 15.0657H21.3262L19.1305 12.2368C15.5297 12.0328 11.7752 11.6192 8.07555 12.5567C6.93931 16.2182 5.87992 19.5985 4.7821 23.238L0.0175781 21.3246V6.93195C0.813495 5.7243 2.13087 5.82908 3.40983 5.82908H24.8886L27.8527 0.116179C41.7017 -0.0547673 55.7098 -0.0106522 69.3831 0.116179L71.9575 4.42295L82.513 5.2005L83.8743 6.93195H89.0176V10.792H81.9805C80.7181 13.1191 78.6871 14.3213 75.6791 14.211C70.4864 14.018 65.2773 14.0731 60.0791 14.1503C58.4478 14.2667 56.8253 14.4858 55.2213 14.8065C54.4843 15.6238 53.92 16.5827 53.5624 17.6253C53.2049 18.6679 53.0615 19.7725 53.1409 20.8723C53.2452 23.8722 53.1409 26.883 53.1409 30.2468L44.1772 32.028C43.8753 28.6697 43.6009 25.6202 43.3374 22.7197L40.6807 21.4018L34.0938 20.9551C32.996 23.1608 31.7664 25.7471 30.3393 28.6752L23.4999 26.0228C23.8731 23.0119 24.8886 20.6683 26.8702 18.7162C27.7374 17.856 29.0274 17.1667 28.6212 15.0657ZM68.2085 1.69329V1.59958H29.4281V1.69329H68.2085ZM63.3726 6.22064V5.92837H27.6112V6.22064H63.3726ZM64.0752 4.50016V4.30165H40.7466V4.50016H64.0752ZM23.2858 7.34553L23.2035 7.07533H3.37689V7.34553H23.2858ZM41.9102 13.6651L41.7895 13.9518H52.3889V13.6651H41.9102ZM78.0888 6.07175V5.92837H68.3896V6.07175H78.0888ZM31.6786 3.31455L31.6237 2.95058H28.4949L28.5388 3.45793L31.6786 3.31455ZM39.5664 16.9295L38.7101 16.7807C38.5015 17.4535 38.2875 18.1317 37.9801 19.1133L39.8573 18.7879L39.5664 16.9295ZM65.5682 2.8072V3.02779H68.8122V2.8072H65.5682ZM36.0369 4.53873L36.1083 4.29613H33.4461V4.53873H36.0369ZM36.0369 18.8761L36.4376 18.6556C36.2016 18.2365 35.9656 17.8174 35.735 17.3983L35.3124 17.6299L36.0369 18.8761ZM0.610375 7.51651L1.00561 7.90249C1.12088 7.77015 1.24713 7.64333 1.35692 7.49995C1.35692 7.49995 1.26907 7.34554 1.23614 7.35105C1.00011 7.39517 0.797016 7.46137 0.588431 7.51651H0.610375ZM65.7768 6.15447V6.0111L65.5901 6.06071L65.7768 6.15447Z" fill="white"/>
</svg>
