<svg width="99" height="17" viewBox="0 0 99 17" fill="none" xmlns="http://www.w3.org/2000/svg">
<path d="M88.7765 0L99 4.47573C98.8578 5.25694 98.6443 6.02442 98.3618 6.76926C94.958 13.6442 89.0987 17.0464 81.3794 16.9995C74.9244 16.9585 68.4634 16.3543 62.0205 15.8263C52.0463 14.9992 42.0902 14.0138 32.1281 13.1163C30.9843 13.1077 29.8494 12.9215 28.7669 12.5648L27.3168 14.7867C26.6854 15.754 25.2887 15.8029 24.7371 14.788C23.6552 12.0956 22.3727 11.0984 19.5099 11.5676C17.1396 12.0265 14.8211 12.7062 12.5869 13.5972C10.7999 14.2484 9.1831 15.357 7.38397 15.9436C6.07196 16.385 4.67605 16.5452 3.29338 16.4129C2.52073 16.3711 1.78547 16.0782 1.2072 15.5819C0.628935 15.0856 0.241665 14.4151 0.108414 13.6794C-0.244119 11.9196 0.248217 10.2889 1.80422 9.30339C3.16235 8.45915 4.63788 7.80537 6.18657 7.36173C12.5758 5.477 19.2009 4.439 25.8798 4.27623C42.1632 3.94774 58.4465 3.68967 74.7178 3.06788C78.778 2.9095 82.7774 1.42538 86.8072 0.539622C87.3725 0.422303 87.9803 0.228772 88.7765 0ZM96.8544 5.01535C96.3803 5.60194 95.8576 6.18852 95.4321 6.82791C92.0162 11.9665 86.9227 14.2367 80.8446 14.2895C75.7997 14.3364 70.7366 14.0255 65.7039 13.5972C56.0518 12.7819 46.424 11.7612 36.784 10.8579C35.7325 10.7582 34.6567 10.8579 33.5991 10.8579C35.4642 11.5905 37.4376 12.0339 39.4462 12.1719C46.8798 12.8758 54.3134 13.65 61.7652 14.1721C68.7126 14.659 75.6781 15.0109 82.6376 15.14C87.7736 15.2162 95.4929 11.4092 96.8544 5.01535ZM88.345 2.85084L88.1748 2.66897L87.9864 2.8391L88.2538 3.02091L88.345 2.85084Z" fill="white"/>
</svg>
