<svg width="52" height="28" viewBox="0 0 52 28" fill="none" xmlns="http://www.w3.org/2000/svg">
<path d="M7.96177 24.8914L8.35222 26.8842L7.75375 27.9108C7.51692 27.9585 7.40171 28.0221 7.3153 27.9903C5.50708 27.3769 3.68925 26.7762 1.89383 26.1214C0.229626 25.5144 -0.247249 24.6054 0.136798 22.9145C0.31282 22.1422 0.536851 21.3825 0.700071 20.607C1.04159 19.0423 1.93628 17.6509 3.22198 16.685C4.47334 15.687 5.62548 14.6031 6.42238 13.1157C6.22112 12.0935 5.67055 11.1717 4.86379 10.5062L3.37562 10.6111L2.78673 6.89884L3.74685 6.24408C3.87167 4.47057 4.76778 3.35817 6.02874 2.40466L6.53759 1.17465C8.40022 0.580297 9.76679 1.63549 11.2678 2.1917L14.7722 3.20879H19.0287L19.8416 2.18219C20.1057 2.02848 20.4151 1.96983 20.7176 2.01614C21.0202 2.06245 21.2974 2.21088 21.5026 2.43644C24.751 2.34109 27.833 2.39512 30.915 2.43644C31.3151 2.43644 31.7119 2.69073 32.1952 2.86236L32.7904 2.05187H45.9921L48.0819 1.04432L50.2006 2.3983C50.2646 2.75427 50.3414 3.16428 50.4374 3.66964L51.8264 4.04788C52.0249 5.2348 52.0249 6.4461 51.8264 7.63302L50.4726 7.85234L50.1526 9.12368C49.9605 9.23492 49.8325 9.36839 49.6853 9.38429C49.2599 9.42584 48.8326 9.44495 48.4051 9.44151C43.7134 9.44151 39.0248 9.44151 34.3234 9.44151C33.6807 9.41321 33.0398 9.35272 32.4032 9.26033C31.8495 9.86103 31.2734 10.4872 30.5502 11.2659C30.3069 13.5416 30.4125 15.509 30.9214 17.0187L29.7885 17.8132V22.6475C27.7434 22.7747 25.8552 22.6888 23.8869 22.7174C23.4613 20.998 23.8325 19.4056 23.6885 18.2519L21.9699 16.9202L22.3347 16.4498C22.0147 16.5133 21.7267 16.5578 21.429 16.6405C19.4831 17.1971 17.4563 17.4217 15.4347 17.3047C13.5145 17.1903 12.1575 18.0198 11.1878 19.5899C10.138 21.3126 9.0691 23.0766 7.96177 24.8914ZM20.3505 11.9842H16.6828C16.2028 13.157 16.094 14.263 16.8173 15.3945H18.8687L20.6449 13.8912L20.3505 11.9842ZM6.21116 10.8559C7.01126 11.393 7.55532 11.2786 8.06738 11.2754C11.6294 11.2532 15.1915 11.2087 18.7535 11.1928C19.9761 11.1928 21.1986 11.2659 22.4211 11.2595C22.658 11.2595 22.8948 11.0466 23.2821 10.8559C21.9763 10.5094 11.0694 10.3505 7.18407 10.5793C6.85243 10.6438 6.52695 10.7363 6.21116 10.8559ZM28.6555 7.35968C25.6344 6.98464 5.21264 7.07363 3.99649 7.35968H28.6555ZM29.7117 16.6436C28.95 15.9857 26.6553 15.8427 24.4982 16.0525C24.3414 16.0525 24.2006 16.2368 23.8581 16.472C24.1808 16.5473 24.5079 16.6025 24.8375 16.6373C26.4537 16.6341 28.0827 16.6309 29.7117 16.6309V16.6436ZM24.4246 3.69509C25.1063 4.45789 25.6599 4.26401 26.1432 4.29262C26.6203 4.33236 27.0999 4.33236 27.577 4.29262C28.0154 4.24494 28.6395 4.5691 28.8891 3.70141L24.4246 3.69509ZM9.91402 2.59854C9.05951 1.69589 7.92977 1.86433 7.14567 2.50953C8.06418 2.77016 8.94749 2.62713 9.90761 2.58581L9.91402 2.59854ZM31.6767 3.99701C30.8382 3.4853 30.3421 3.45351 29.7084 3.94615C30.3357 4.43244 30.835 4.32119 31.6703 3.98429L31.6767 3.99701ZM51.1511 4.93143L50.191 5.08084C50.6454 5.6148 50.9207 5.61162 51.1543 4.91874L51.1511 4.93143Z" fill="white"/>
</svg>
