<svg width="46" height="33" viewBox="0 0 46 33" fill="none" xmlns="http://www.w3.org/2000/svg">
<path d="M16.9919 19.0075C16.9661 19.6768 16.8946 20.234 16.9289 20.7826C16.9725 21.7376 16.784 22.6889 16.3796 23.5544C15.7245 25.0882 15.1066 26.6421 14.5974 28.2305C14.4086 28.805 14.5316 29.5259 14.5974 30.1693C14.6546 30.7696 14.8119 31.3613 14.8835 31.7749C14.4057 32.7171 13.7563 32.9698 13.0039 32.9727C9.33642 32.9727 5.66891 33.0014 1.99853 32.9727C0.705463 32.9727 0.073227 32.3121 0.0274546 31.0138C-0.015457 29.7729 0.0417575 28.5264 0.0532006 27.2798C0.0532006 25.8436 0.694017 24.5884 1.28048 23.3447C2.09675 21.6213 2.97596 19.9266 3.91811 18.2607C4.62472 17.0141 5.0853 15.756 4.94226 14.2107C4.4731 13.6363 4.03826 13.0101 3.51188 12.4874C2.91398 11.8669 2.55638 11.1948 2.6279 10.313C2.65953 9.93072 2.65953 9.54642 2.6279 9.16411C2.52491 7.85433 2.59071 6.57901 3.40317 5.522C3.1829 4.44488 2.5621 3.44819 3.38887 2.32511C4.12122 1.86842 4.93654 2.22171 5.8005 2.4716L7.54272 1.17619L7.93464 0.262813C10.0659 -0.228353 10.6724 -0.0933723 12.5519 1.28534H36.9486C38.2503 0.168008 39.7064 -0.34039 41.3857 0.245562C41.7948 0.917683 42.181 1.54671 42.53 2.10682L44.6584 2.26193C45.0475 3.2615 45.1419 9.15547 44.7929 11.1173L43.0478 11.5481C42.8876 11.8554 42.6959 12.2317 42.4127 12.7832C41.8156 12.9341 41.207 13.035 40.5933 13.0848C37.6409 13.1193 34.6857 13.102 31.7248 13.102H30.3431C29.9457 14.4569 29.9939 15.9043 30.4804 17.2295C30.5866 17.6448 30.647 18.0706 30.6606 18.4991C29.8911 19.1454 29.1015 19.1052 28.372 19.0994C24.899 19.0764 21.4232 19.0133 17.9502 18.9673C17.7213 18.953 17.4753 18.9817 16.9919 19.0075ZM17.7214 7.03284H28.6838C28.8412 6.8088 29.0014 6.58189 29.1559 6.35785C30.5004 6.00169 30.5004 6.00168 30.8437 5.16871H16.2109C16.0678 5.60817 15.9248 6.03042 15.7531 6.58478L17.255 6.29754L17.7214 7.03284ZM26.9416 12.226C25.3138 12.226 23.8692 12.1226 22.413 12.2949C22.1584 13.7857 22.6562 14.9173 23.3571 16.0088C24.5815 16.0088 25.7487 16.1668 26.9416 15.9025V12.226ZM41.5859 3.48554C41.2999 2.51183 40.7477 2.58075 40.2299 2.58075C36.3774 2.58075 32.523 2.58075 28.6667 2.58075C28.4065 2.60165 28.1489 2.64684 27.8971 2.71574C27.7283 3.43095 28.1603 3.63776 28.5065 3.79861C29.2217 3.7584 29.8339 3.69233 30.4489 3.68946C33.6358 3.68946 36.8227 3.68946 40.0125 3.68946C40.5406 3.65344 41.066 3.58535 41.5859 3.48554ZM26.7757 3.63203C26.8186 3.3448 26.8672 3.05757 26.9273 2.66406H15.2754V3.38502C16.2595 3.75267 23.5573 3.90203 26.7757 3.63203ZM7.27094 3.28162C8.18353 3.76129 11.9111 3.88192 13.7592 3.52288C13.8433 3.41909 13.9109 3.30279 13.9594 3.17818C13.9654 2.98516 13.9472 2.79215 13.9051 2.60372C11.8768 2.55776 9.85136 2.58361 7.85168 2.60372L7.27094 3.28162ZM40.8936 7.03859C40.702 6.2803 41.9321 6.02752 41.3828 5.15434H38.9254C38.6165 5.78337 38.3189 6.38083 37.9957 7.03859H40.8936ZM6.17527 17.2066C5.50585 18.2923 4.87933 19.1655 4.4073 20.1162C4.07831 20.7826 4.59897 21.1531 5.52587 20.9779C6.68734 18.2952 6.68734 18.2952 6.1724 17.2066H6.17527ZM5.88919 5.16296C4.85073 6.14529 4.85073 6.14529 5.0567 7.13911L5.96643 6.33201C6.84755 6.14531 7.91176 6.42965 8.32943 5.16296H5.88919ZM7.0335 14.7163L8.37806 12.4328C8.30654 11.9359 8.27221 11.4419 7.6314 11.3959C6.22104 13.3778 6.14093 13.7023 7.03064 14.7163H7.0335ZM10.0259 7.00412C10.288 6.67498 10.5801 6.3711 10.8984 6.09646C11.2331 5.85232 11.6508 5.72018 11.6308 5.15721H9.58817C9.38219 5.63114 9.16477 6.09072 8.98454 6.56753C8.94735 6.66806 9.04462 6.82317 9.09325 7.00412H10.0259ZM13.4044 7.00412L15.1667 5.19455H12.858C12.7522 5.81784 12.0971 6.25158 12.5405 7.00412H13.4044ZM31.3243 6.87488C32.2484 7.44934 32.4172 6.46412 32.9464 6.28317C33.4756 6.10221 34.1594 5.99592 34.3167 5.1888H32.2655C31.9251 5.78911 31.6304 6.3119 31.3215 6.86913L31.3243 6.87488ZM37.7182 5.45882L37.661 5.17159H35.5497C35.2636 5.7719 34.9919 6.33487 34.7258 6.89497C35.81 7.46944 35.8701 6.03326 36.7283 6.1223C37.023 6.1539 37.3806 5.69147 37.7153 5.45307L37.7182 5.45882ZM10.927 23.1379C10.1603 24.0628 10.3892 25.025 10.4493 26.0102C10.3091 24.7033 12.077 24.6286 12.0742 23.27L10.927 23.1379ZM18.6511 15.5148C19.0173 15.9686 19.3377 16.1898 19.8612 15.7819L18.6511 13.3232V15.5148ZM12.7694 19.2976C12.9925 18.5824 13.1384 18.1171 13.3129 17.5742L12.4547 17.287C12.2716 17.8012 12.1199 18.2262 11.9512 18.7059L12.7694 19.2976Z" fill="white"/>
</svg>
