<svg width="100" height="29" viewBox="0 0 100 29" fill="none" xmlns="http://www.w3.org/2000/svg">
<path d="M90.4859 2.92779C90.3132 2.92779 90.1344 3.13567 89.9433 3.18608C88.9135 3.46963 88.2292 3.18611 87.1994 3.14201L35.7566 3.39406C34.5234 3.39406 33.506 3.39406 32.5626 2.13385C31.4034 0.564893 26.9269 0.716072 25.4347 2.00779C24.6146 2.71351 23.7761 3.38774 22.7587 4.23838V9.39891C20.7424 9.17837 18.794 8.55463 16.9812 8.83187C12.3197 9.55019 7.73215 10.7222 3.08299 11.5791C0.99889 11.9572 0 12.9968 0 15.1518C0.0431619 18.3023 -4.5225e-06 21.4528 0.110983 24.6033C0.215805 27.2498 1.14689 27.9682 3.68111 27.4137C4.77262 27.1414 5.8224 26.7174 6.8011 26.1535C9.5943 24.6034 12.3505 23.0029 15.1252 21.3772C19.8607 18.6489 24.5037 15.7504 29.9236 14.5532C31.2276 14.2644 32.4185 13.5868 33.3457 12.6062C34.844 10.8986 36.1882 10.8734 38.2785 12.4801C37.3042 14.1121 36.3239 15.7441 35.3558 17.3887C34.3261 19.1404 33.9314 21.0307 35.3558 22.6374C36.7801 24.2442 38.5251 25.6556 41.0532 24.7042C41.8424 22.3602 42.4898 20.0099 43.464 17.8172C43.7053 17.3808 44.0365 17.0032 44.4347 16.7105C44.8329 16.4178 45.2886 16.2171 45.7702 16.1222C47.8225 15.9789 49.8811 15.9536 51.9361 16.0465C52.2013 16.6073 52.3554 16.7837 52.3616 16.9665C52.4192 19.3777 52.4623 21.791 52.4911 24.2064C52.5281 27.8925 52.787 28.069 56.3572 28.0312C58.2933 28.0312 59.1565 27.3506 59.0948 25.265C58.99 21.4844 59.064 17.7037 59.0948 13.9231V9.30445C60.5809 9.55649 61.5612 9.69506 62.5293 9.87779C63.4974 10.0605 64.4716 10.5079 65.4396 10.5079C71.5008 10.5079 77.5681 10.3504 83.6293 10.3693C85.6271 10.3693 87.1008 9.97867 87.0699 7.57166C87.6272 7.58995 88.1672 7.77386 88.6238 8.10093L99.9939 7.77326V3.44445C99.9939 3.44445 93.5195 3.19244 90.4859 2.92779ZM27.3462 2.47406H31.1136C31.1136 2.57488 31.1136 2.66945 31.1136 2.77027H27.0872L27.3462 2.47406ZM44.3088 14.3264V13.1229L44.7281 14.2192L44.3088 14.3264ZM49.3834 14.5217C48.8346 13.7718 48.1872 13.2615 48.1502 12.7322C48.1502 12.3667 49.0998 11.6169 49.4759 11.7114C49.7547 11.8463 50.0006 12.043 50.1958 12.2871C50.391 12.5313 50.5305 12.8167 50.6043 13.1229C50.7029 13.3938 49.9815 13.8853 49.3834 14.5217ZM32.988 9.67619L32.8894 9.36745H51.8622C51.8622 9.46826 51.8622 9.57538 51.8622 9.67619H32.988ZM53.1755 4.63535V4.41483H57.4917V4.63535H53.1755ZM60.365 4.67312C60.365 4.58491 60.365 4.49043 60.365 4.40222H61.9744C61.9744 4.49043 61.9744 4.58491 61.9744 4.67312H60.365ZM64.2866 6.60758V6.29253H84.7515L84.7885 6.60758H64.2866ZM89.191 5.34737H64.3914V5.02602H89.191V5.34737ZM97.9591 5.29069H94.019V4.98186H98.2427L97.9591 5.29069Z" fill="white"/>
</svg>
