<svg width="92" height="32" viewBox="0 0 92 32" fill="none" xmlns="http://www.w3.org/2000/svg">
<path d="M35.1765 30.6239C32.3242 29.3075 28.6977 29.5815 26.119 26.6746C27.7258 22.7438 30.1032 19.1918 33.1043 16.2383C32.1613 13.8198 30.1064 14.9397 28.5115 14.1951L27.2017 12.3187C25.2517 11.8958 23.127 11.4013 22.4169 8.78628H4.24944L2.77095 13.4981L0.0117188 12.6225V3.98514L2.95719 3.66345L4.20289 5.45049H22.12L23.4996 3.80641C26.6604 3.21073 29.7455 2.45421 32.8714 2.16829C35.9973 1.88236 39.0708 2.10277 42.185 2.10277H84.4223L87.6239 0L91.0117 3.4669V11.9851H89.5448C89.1839 12.4855 89.0326 14.7193 88.6367 15.2733C82.6586 12.7595 76.238 14.2963 69.9455 13.927C67.3376 13.7781 64.7065 13.9271 62.0987 13.9747C61.1557 13.9747 60.2127 14.0641 58.9496 14.1296C58.9496 16.9948 58.7516 19.6337 59.0077 22.2249C59.2639 24.8161 59.9624 27.2405 60.5445 30.1236L53.6233 32C52.6512 27.7409 51.7431 23.7557 50.7943 19.586C47.1387 22.07 43.227 20.3246 39.2105 21.2062C37.9997 24.0714 36.6958 27.0796 35.1765 30.6239ZM51.4754 3.60389V4.19958H57.4244V3.60389H51.4754ZM89.5448 3.69326C79.8528 3.53838 70.1434 3.17499 60.4397 3.88981C60.4688 4.16978 79.8645 4.36636 89.5448 3.67537V3.69326ZM49.3798 4.36638V3.38946L30.2345 3.65749V4.3485C36.3931 4.35445 43.2503 4.3485 49.3798 4.3485V4.36638ZM47.4414 18.4661L48.5591 15.3745H43.7276L44.8394 18.3112L47.4414 18.4661ZM66.8487 8.80417L66.773 9.05438H86.9021V8.80417H66.8487ZM24.4193 4.63441L24.5008 5.53986L27.9468 4.80718L27.8944 4.63441H24.4193ZM42.7671 18.3351C42.8952 18.1504 42.4877 17.9657 42.6158 17.781C42.2665 17.5368 42.1734 16.1609 41.8183 15.9166L40.3805 17.8168C40.7181 18.067 42.4645 17.9896 42.7846 18.2874L42.7671 18.3351ZM1.26325 5.08713L1.30404 5.59345L2.22956 5.3969L2.1946 5.08713H1.26325Z" fill="white"/>
</svg>
