<svg width="90" height="31" viewBox="0 0 90 31" fill="none" xmlns="http://www.w3.org/2000/svg">
<path d="M59.2882 14.0384L57.5483 11.5489H47.0651L45.929 13.0696H28.662C28.184 13.6145 27.7629 14.2056 27.4051 14.8339C26.033 17.9673 23.7333 19.3636 20.2371 18.9415C18.7748 18.854 17.3085 18.854 15.8462 18.9415C13.2885 21.3931 12.8824 24.8242 11.0657 27.3894C11.2743 28.2553 11.4554 29.013 11.6145 29.6245C11.0163 30.9125 10.0448 31.1885 9.01297 30.8909C6.39493 30.1386 3.80429 29.2673 1.21918 28.4176C0.834976 28.2877 0.555086 27.8385 0.0117188 27.3352C0.385349 26.3704 0.814126 25.4273 1.29602 24.5103C2.94259 21.7123 4.69345 18.9685 6.37844 16.1868C6.88338 15.3588 7.32247 14.4876 7.89328 13.4431L5.24233 12.7179C4.56724 10.1635 4.91851 7.60365 4.96791 5.29279C6.25772 3.76665 7.79451 3.98314 9.35875 3.89114C12.3865 2.08885 15.7427 0.888292 19.2382 0.357185C20.4984 0.157053 21.7711 0.0431296 23.0472 0.0162356C43.5378 -0.00541185 64.0175 -0.00541185 84.4861 0.0162356C84.7436 0.0259081 85.0002 0.0512192 85.2546 0.0920094C87.45 1.06614 86.5005 3.06314 86.945 5.11964L88.7123 6.27237C89.2612 8.50746 89.1679 10.0607 87.4719 11.4136H82.2084C80.4576 13.8273 78.0261 14.152 75.3477 14.1195C70.1226 13.9734 64.9085 14.0384 59.2882 14.0384ZM85.3369 2.17556C84.9088 1.47202 84.8264 1.20688 84.7386 1.20688C72.2467 1.14194 59.751 1.09684 47.2518 1.07159C46.924 1.12334 46.6046 1.21799 46.3022 1.35301L46.7358 2.23508H77.4663C79.9526 2.22426 82.4719 2.19721 85.3369 2.17556ZM16.0219 7.70652C17.4709 6.14249 19.3918 5.89353 21.461 5.99636C23.2832 6.08295 25.1109 5.99636 26.9496 5.99636C27.8442 5.99636 28.5193 5.72035 28.5028 4.3728C26.3403 4.3728 24.2547 4.49186 22.1855 4.3728C19.4412 4.17797 16.9549 4.72998 14.9571 6.46177C9.3258 6.59706 9.32578 6.59706 8.56287 7.54414C8.82109 7.62984 9.08794 7.68787 9.35875 7.71729C11.5377 7.71188 13.7222 7.70652 16.0219 7.70652ZM46.2473 6.34814L46.7962 7.78223C47.8939 7.71729 48.7556 7.62532 49.6393 7.61449C51.9061 7.61449 54.1673 7.61449 56.4341 7.61449C57.3123 7.61449 58.0807 7.47918 58.1246 6.37516C56.1103 5.86645 48.7501 5.8394 46.2473 6.32647V6.34814ZM46.4449 9.37335C48.6074 9.91453 55.8523 10.0228 57.8886 9.62769C57.9764 9.62769 58.0094 9.33005 58.0642 9.17311C56.1871 8.45875 48.591 8.49121 46.4449 9.37335ZM41.143 2.20264C39.3373 2.20264 37.5315 2.11064 35.7367 2.20264C33.942 2.29465 32.0759 1.66146 30.1439 2.74383C32.6357 3.62055 39.5952 3.54478 41.143 2.20264ZM24.1285 13.3078C22.7892 13.1346 21.7684 12.7125 20.9506 13.849C21.0135 14.103 21.1037 14.3497 21.2195 14.585C21.5324 15.1261 21.8836 15.6348 22.1471 16.0407L24.1285 15.4454V13.3078ZM8.9581 13.1184C10.4949 14.5146 13.8264 14.5146 15.3083 13.1184H8.9581ZM81.9559 7.64158L83.9977 7.40342L83.9208 6.14249H81.9559V7.64158Z" fill="white"/>
</svg>
