<svg width="106" height="20" viewBox="0 0 106 20" fill="none" xmlns="http://www.w3.org/2000/svg">
<path d="M102.027 0H43.2105C41.8687 0.545518 40.4651 0.948345 39.0263 1.20084C38.343 1.33894 37.6273 1.39898 36.9632 1.5731C34.9647 1.83729 31.4253 2.90602 29.1882 3.20623L27.3185 4.80938H23.8887L21.8837 3.67458C14.792 3.8547 7.87423 3.47044 1.10484 3.90274C0.526587 4.62736 0.162701 5.48069 0.0495644 6.37735C-0.0635722 7.27401 0.0780043 8.1826 0.460138 9.01233C1.08564 10.7114 1.33565 12.5107 1.19511 14.302C1.19511 15.3948 1.19511 16.4936 1.19511 18.1387L2.99386 20C7.60349 18.4689 9.82125 15.0585 13.0512 12.7349L22.0771 10.5674C22.6637 9.58872 23.1215 8.83819 23.5212 8.16572C25.4875 7.64335 27.0929 7.85347 28.4016 9.19241H33.1917C31.4897 12.1285 28.9754 14.3801 27.5055 17.4122C29.5943 18.7331 31.7799 19.2735 34.0299 19.7539C35.5901 17.6224 34.9647 14.6022 37.8981 13.1072H43.7004C46.2083 12.1225 46.1503 9.83488 47.4978 8.3038C49.6382 8.3038 51.785 8.34583 53.9448 8.3038C55.9596 8.31794 57.9719 8.17131 59.9598 7.86551C62.4355 7.40919 65.0788 7.75747 67.6189 7.75747L68.7472 9.02435H92.1692L93.4586 7.72742C94.3175 7.68291 95.1785 7.68291 96.0374 7.72742C96.5338 7.78146 96.9851 8.21376 97.4816 8.25579C100.06 8.45393 102.755 9.15644 105.012 7.21708V2.33565L102.027 0ZM2.79396 5.31371H1.44655V4.99547H2.79396V5.31371ZM4.08337 5.02552C4.31546 5.02552 4.54115 5.02552 4.76679 5.02552V5.27773C4.5347 5.27773 4.30901 5.24765 4.08337 5.22364C4.08715 5.15677 4.09798 5.09043 4.11563 5.02552H4.08337ZM29.9425 4.7193C29.382 5.17283 28.9614 5.75732 28.724 6.41253L29.4976 4.20295L33.1079 3.48841L33.166 4.20295L29.9425 4.7193ZM42.8366 6.2924L42.7334 6.41847L42.6818 6.26836L42.8366 6.2924ZM41.3795 1.79525L41.5149 2.39568L39.5292 2.52775L39.4711 2.07142L41.3795 1.79525ZM40.6187 11.432L39.8967 10.5794C40.2319 9.05435 43.0493 12.1706 40.6381 11.432H40.6187ZM42.9397 11.432L41.4569 9.34252H44.1775L42.9397 11.432ZM45.5765 8.42994C41.8502 8.42994 38.1173 8.42994 34.3909 8.42994C34.3909 8.27383 34.3909 8.1177 34.3458 7.96159H46.3437C45.9375 8.24379 45.7699 8.44189 45.5958 8.44189L45.5765 8.42994ZM43.2814 1.95137H47.8587C46.3437 2.68989 44.8416 2.51578 43.3007 1.96339L43.2814 1.95137ZM58.2449 2.25158H56.891C56.891 2.12549 56.891 1.9994 56.891 1.87331L58.2449 1.93334C58.2707 2.05342 58.2643 2.17354 58.2643 2.2636L58.2449 2.25158ZM58.8896 5.60191C62.2098 5.00148 65.0723 5.46985 67.9155 5.4098C66.1812 6.30443 62.0809 6.37646 58.909 5.61393L58.8896 5.60191ZM92.5818 5.09156L97.3977 5.69198C95.1606 6.97688 94.1614 6.86882 92.6012 5.10358L92.5818 5.09156ZM58.9928 2.3056C61.8037 1.63913 100.222 1.61511 103.477 2.3056H58.9928Z" fill="white"/>
</svg>
