<svg width="101" height="30" viewBox="0 0 101 30" fill="none" xmlns="http://www.w3.org/2000/svg">
<path d="M7.91712 12.2366L6.36312 13.3518C6.47983 14.5841 6.58422 15.7178 6.71321 17.1287H0.939243C0.619833 13.0684 0.324986 9.11892 0.0117188 5.30499C4.04734 3.50585 8.06458 3.51813 13.5683 3.87549L14.4835 4.94758H26.7071C27.868 2.17493 30.6813 1.96544 32.8127 0.480535L34.9872 1.71282H46.75L48.1874 0.572972H76.9159L78.7587 2.32287C79.68 2.32287 80.6935 2.32287 81.7071 2.32287C82.6039 2.32287 83.5068 2.41528 84.4896 2.46457C84.7599 3.37031 84.9933 4.13434 85.3066 5.17562C88.0031 5.74247 90.8348 5.34807 93.6051 5.40968C95.0977 3.95559 95.11 2.0456 95.4908 0L98.2611 0.702413V4.89214L100.012 5.92113V7.94827L97.0695 9.9384C93.384 9.9384 89.5019 9.87679 85.6137 9.9384C77.9663 10.0801 70.3004 10.0739 62.6714 10.5915C59.5449 10.8071 56.4552 10.9735 53.3594 10.4374C52.1309 14.0296 53.3103 16.7467 55.2636 19.2113C56.4 20.6408 57.7759 21.8854 59.2624 23.4442L54.9319 30C48.6911 26.0567 45.4233 20.4313 43.9245 13.284L41.2525 14.7628C39.1272 14.7628 36.7808 15.1571 34.4958 14.276C31.9835 15.8595 31.8606 18.4288 31.8545 20.9366C29.1149 21.7314 26.8484 20.9366 25.4724 18.6322C26.5228 16.451 27.6223 14.1713 28.8692 11.5958C24.4712 9.43313 19.8766 10.7825 15.4417 10.1479L14.2562 8.74304H10.2697C8.59898 9.2298 8.43309 10.9119 7.91712 12.2366ZM98.5252 6.65431L98.5867 6.32164H79.1026V6.65431H98.5252ZM30.6813 2.67404L30.7857 2.87734H45.6014V2.67404H30.6813ZM40.5093 10.4374L38.3041 10.9796C38.3041 12.1688 38.7771 12.7726 39.7108 12.9143C40.0396 12.8821 40.3611 12.7967 40.6628 12.6617C40.6014 12.0456 40.5646 11.4726 40.5093 10.4559V10.4374ZM16.5535 5.7856L16.5105 6.0505H24.3176V5.7856H16.5535ZM51.3508 10.9242V10.7332H44.293V10.9242H51.3508ZM12.5793 5.34192V5.13862H7.30902V5.37276L12.5793 5.34192ZM33.4638 6.01974V5.75476H28.728V6.01974H33.4638ZM59.8766 1.70673V1.47876H55.2513V1.70673H59.8766ZM51.5965 5.73009V6.00123H55.4724V5.75476L51.5965 5.73009ZM49.981 6.03816L50.0425 5.76093H45.9577V6.03816H49.981ZM79.0596 3.30252V3.54899H83.2427V3.30252H79.0596ZM3.599 5.15095V5.57606L4.63704 5.40359V5.15095H3.599Z" fill="white"/>
</svg>
