<svg width="110" height="152" viewBox="0 0 110 152" fill="none" xmlns="http://www.w3.org/2000/svg">
<path d="M13.3831 53.383C13.3831 51.7261 14.7262 50.383 16.3831 50.383H93.3831C95.0399 50.383 96.3831 51.7261 96.3831 53.383V148.383C96.3831 150.04 95.0399 151.383 93.3831 151.383H16.3831C14.7262 151.383 13.3831 150.04 13.3831 148.383V53.383Z" fill="url(#paint0_linear_466_6806)"/>
<path d="M13.3831 120.383H96.3831V147.383H13.3831V120.383Z" fill="#7AAEDE" fill-opacity="0.22"/>
<path d="M47.1442 6.1612C51.44 1.86544 58.4048 1.86544 62.7006 6.16121L106.066 49.5267C110.362 53.8225 110.362 60.7873 106.066 65.083L62.7005 108.449C58.4048 112.744 51.44 112.744 47.1442 108.449L3.77871 65.083C-0.517052 60.7873 -0.517046 53.8225 3.77872 49.5267L47.1442 6.1612Z" fill="#2D2D2D"/>
<path d="M47.1442 7.1612C51.44 2.86544 58.4048 2.86544 62.7006 7.16121L106.066 50.5267C110.362 54.8225 110.362 61.7873 106.066 66.083L62.7005 109.449C58.4048 113.744 51.44 113.744 47.1442 109.449L3.77871 66.083C-0.517052 61.7873 -0.517046 54.8225 3.77872 50.5267L47.1442 7.1612Z" fill="#2D2D2D"/>
<path d="M47.144 3.77846C51.4397 -0.517304 58.4045 -0.517298 62.7003 3.77847L106.066 47.144C110.362 51.4397 110.362 58.4045 106.066 62.7003L62.7003 106.066C58.4045 110.362 51.4397 110.362 47.144 106.066L3.77846 62.7003C-0.517304 58.4045 -0.517298 51.4397 3.77847 47.144L47.144 3.77846Z" fill="url(#paint1_linear_466_6806)"/>
<path d="M49.9724 17.3327C52.706 14.5991 57.1382 14.5991 59.8719 17.3327L92.9725 50.4333C95.7061 53.167 95.7061 57.5991 92.9725 60.3328L59.8719 93.4334C57.1382 96.1671 52.7061 96.1671 49.9724 93.4334L16.8718 60.3328C14.1381 57.5991 14.1381 53.167 16.8718 50.4333L49.9724 17.3327Z" fill="#181818"/>
<path d="M40.6641 132.383L43.4786 126.007H45.2547L48.0783 132.383H46.202L43.9977 126.891H44.7082L42.504 132.383H40.6641ZM42.2034 131.144L42.6679 129.814H45.783L46.2475 131.144H42.2034Z" fill="white"/>
<path d="M48.5896 132.383V126.007H51.5043C52.0872 126.007 52.5882 126.101 53.0072 126.289C53.4323 126.478 53.7602 126.751 53.9909 127.109C54.2217 127.461 54.337 127.88 54.337 128.366C54.337 128.846 54.2217 129.262 53.9909 129.614C53.7602 129.96 53.4323 130.227 53.0072 130.416C52.5882 130.598 52.0872 130.689 51.5043 130.689H49.5915L50.3931 129.933V132.383H48.5896ZM52.5336 132.383L50.9487 130.06H52.8706L54.4645 132.383H52.5336ZM50.3931 130.124L49.5915 129.295H51.395C51.7715 129.295 52.0508 129.213 52.233 129.049C52.4212 128.885 52.5153 128.658 52.5153 128.366C52.5153 128.069 52.4212 127.838 52.233 127.674C52.0508 127.51 51.7715 127.428 51.395 127.428H49.5915L50.3931 126.599V130.124Z" fill="white"/>
<path d="M56.9897 128.475H59.95V129.824H56.9897V128.475ZM57.1172 130.989H60.4509V132.383H55.332V126.007H60.3325V127.401H57.1172V130.989Z" fill="white"/>
<path d="M60.6866 132.383L63.5011 126.007H65.2773L68.1009 132.383H66.2245L64.0203 126.891H64.7307L62.5265 132.383H60.6866ZM62.2259 131.144L62.6905 129.814H65.8055L66.2701 131.144H62.2259Z" fill="white"/>
<path d="M28.6628 142.15V135.774H31.2587C31.9388 135.774 32.5339 135.911 33.044 136.184C33.5601 136.451 33.9609 136.825 34.2463 137.304C34.5317 137.784 34.6744 138.337 34.6744 138.962C34.6744 139.588 34.5317 140.14 34.2463 140.62C33.9609 141.1 33.5601 141.476 33.044 141.749C32.5339 142.016 31.9388 142.15 31.2587 142.15H28.6628ZM29.3369 141.567H31.2223C31.787 141.567 32.2759 141.458 32.6888 141.239C33.1078 141.015 33.4326 140.708 33.6634 140.319C33.8941 139.925 34.0095 139.472 34.0095 138.962C34.0095 138.446 33.8941 137.994 33.6634 137.605C33.4326 137.216 33.1078 136.913 32.6888 136.694C32.2759 136.469 31.787 136.357 31.2223 136.357H29.3369V141.567Z" fill="white" fill-opacity="0.87"/>
<path d="M38.9752 142.205C38.4954 142.205 38.0491 142.126 37.6362 141.968C37.2294 141.804 36.8741 141.576 36.5705 141.285C36.273 140.987 36.0392 140.644 35.8692 140.256C35.7052 139.861 35.6232 139.43 35.6232 138.962C35.6232 138.495 35.7052 138.066 35.8692 137.678C36.0392 137.283 36.273 136.94 36.5705 136.649C36.8741 136.351 37.2294 136.123 37.6362 135.965C38.0431 135.802 38.4894 135.72 38.9752 135.72C39.4549 135.72 39.8981 135.802 40.305 135.965C40.7118 136.123 41.064 136.348 41.3616 136.639C41.6652 136.931 41.899 137.274 42.0629 137.669C42.2329 138.063 42.3179 138.495 42.3179 138.962C42.3179 139.43 42.2329 139.861 42.0629 140.256C41.899 140.65 41.6652 140.993 41.3616 141.285C41.064 141.576 40.7118 141.804 40.305 141.968C39.8981 142.126 39.4549 142.205 38.9752 142.205ZM38.9752 141.604C39.3577 141.604 39.7099 141.54 40.0317 141.412C40.3596 141.279 40.642 141.093 40.8788 140.857C41.1217 140.614 41.3099 140.334 41.4435 140.019C41.5771 139.697 41.6439 139.345 41.6439 138.962C41.6439 138.58 41.5771 138.23 41.4435 137.915C41.3099 137.593 41.1217 137.313 40.8788 137.077C40.642 136.834 40.3596 136.649 40.0317 136.521C39.7099 136.387 39.3577 136.321 38.9752 136.321C38.5926 136.321 38.2374 136.387 37.9095 136.521C37.5816 136.649 37.2962 136.834 37.0533 137.077C36.8164 137.313 36.6282 137.593 36.4885 137.915C36.355 138.23 36.2882 138.58 36.2882 138.962C36.2882 139.339 36.355 139.688 36.4885 140.01C36.6282 140.331 36.8164 140.614 37.0533 140.857C37.2962 141.093 37.5816 141.279 37.9095 141.412C38.2374 141.54 38.5926 141.604 38.9752 141.604Z" fill="white" fill-opacity="0.87"/>
<path d="M43.8287 142.15V135.774H44.3843L47.299 140.747H47.0076L49.895 135.774H50.4506V142.15H49.8039V136.785H49.9587L47.299 141.339H46.9803L44.3024 136.785H44.4754V142.15H43.8287Z" fill="white" fill-opacity="0.87"/>
<path d="M52.528 142.15V135.774H53.202V142.15H52.528Z" fill="white" fill-opacity="0.87"/>
<path d="M55.2765 142.15V135.774H55.8322L60.2315 141.312H59.9401V135.774H60.605V142.15H60.0494L55.6591 136.612H55.9506V142.15H55.2765Z" fill="white" fill-opacity="0.87"/>
<path d="M61.6659 142.15L64.5806 135.774H65.2455L68.1602 142.15H67.4497L64.7719 136.166H65.0451L62.3672 142.15H61.6659ZM62.8136 140.447L63.0139 139.9H66.7211L66.9215 140.447H62.8136Z" fill="white" fill-opacity="0.87"/>
<path d="M69.2149 142.15V135.774H71.8108C72.4909 135.774 73.086 135.911 73.5961 136.184C74.1122 136.451 74.513 136.825 74.7984 137.304C75.0838 137.784 75.2265 138.337 75.2265 138.962C75.2265 139.588 75.0838 140.14 74.7984 140.62C74.513 141.1 74.1122 141.476 73.5961 141.749C73.086 142.016 72.4909 142.15 71.8108 142.15H69.2149ZM69.889 141.567H71.7744C72.3391 141.567 72.828 141.458 73.2409 141.239C73.6599 141.015 73.9847 140.708 74.2155 140.319C74.4462 139.925 74.5616 139.472 74.5616 138.962C74.5616 138.446 74.4462 137.994 74.2155 137.605C73.9847 137.216 73.6599 136.913 73.2409 136.694C72.828 136.469 72.3391 136.357 71.7744 136.357H69.889V141.567Z" fill="white" fill-opacity="0.87"/>
<path d="M75.631 142.15L78.5457 135.774H79.2106L82.1253 142.15H81.4148L78.7369 136.166H79.0102L76.3323 142.15H75.631ZM76.7786 140.447L76.979 139.9H80.6861L80.8865 140.447H76.7786Z" fill="white" fill-opacity="0.87"/>
<path d="M54.017 32.883C54.4019 33.5497 55.3642 33.5497 55.7491 32.883L58.7802 27.633C59.1651 26.9663 58.684 26.133 57.9142 26.133H51.852C51.0822 26.133 50.6011 26.9663 50.986 27.633L54.017 32.883Z" fill="white"/>
<path d="M54.017 79.883C54.4019 79.2163 55.3642 79.2163 55.7491 79.883L58.7802 85.133C59.1651 85.7997 58.684 86.633 57.9142 86.633H51.852C51.0822 86.633 50.6011 85.7996 50.986 85.133L54.017 79.883Z" fill="white"/>
<path d="M46.4084 43.2767C46.4445 42.905 46.4806 42.7134 46.4806 42.5178C46.4806 42.3222 46.4485 42.1265 46.4244 41.8683L44.892 41.1603V36.5362C46.8377 35.789 64.549 35.8359 66.1977 36.5831V41.0077L64.7776 41.9114V43.3471C68.9056 45.4714 70.093 48.9727 69.9927 53.2994C69.8322 60.0008 69.9687 66.71 69.9406 73.4153C69.9406 76.7836 68.6368 77.9924 65.1948 77.9963C58.7762 77.9963 52.367 77.9963 45.9671 77.9963C42.4209 77.9963 41.0409 76.6623 41.0128 73.1415C40.9847 68.9712 41.0128 64.8048 41.0128 60.6228C41.0128 58.0174 41.0449 55.412 41.0128 52.7987C40.9285 48.6519 42.4409 45.3423 46.4084 43.2767ZM56.5337 68.9751C59.2737 71.0994 62.0617 71.0915 65.0624 70.4108C64.8458 67.8797 62.8119 67.3399 61.0869 66.3501C63.6704 64.5271 65.8046 62.4654 67.1044 59.3944C63.8309 58.4595 61.448 59.9852 59.037 61.5031C58.4633 54.7743 57.332 51.3864 55.1818 50.2441C53.0637 53.6789 51.9164 57.3562 52.2092 61.726C49.6699 59.813 47.2388 58.7177 43.9854 59.238C45.1889 62.4576 47.3552 64.5388 50.0991 66.354C48.0933 67.289 46.3442 68.1027 45.8267 70.4108C48.9799 71.1619 51.8442 71.0015 54.4437 69.1433C55.246 70.2152 54.1228 71.7996 55.9721 72.7268L56.5337 68.9751ZM45.6382 51.9498L49.2486 47.0127C47.7082 46.3125 46.9179 47.4666 46.1156 48.2568C45.0003 49.3639 44.9041 50.6079 45.6382 51.9498Z" fill="white"/>
<defs>
<linearGradient id="paint0_linear_466_6806" x1="54.9223" y1="0.556641" x2="54.9223" y2="151.383" gradientUnits="userSpaceOnUse">
<stop stop-color="#44464E"/>
<stop offset="1" stop-color="#000A18"/>
</linearGradient>
<linearGradient id="paint1_linear_466_6806" x1="54.9223" y1="0.556641" x2="54.9223" y2="151.383" gradientUnits="userSpaceOnUse">
<stop stop-color="#323232"/>
<stop offset="1" stop-color="#0050CD" stop-opacity="0"/>
</linearGradient>
</defs>
</svg>
