<svg width="109" height="151" viewBox="0 0 109 151" fill="none" xmlns="http://www.w3.org/2000/svg">
<path d="M12.8264 52.8263C12.8264 51.1695 14.1696 49.8263 15.8264 49.8263H92.8264C94.4833 49.8263 95.8264 51.1695 95.8264 52.8263V147.826C95.8264 149.483 94.4833 150.826 92.8264 150.826H15.8264C14.1696 150.826 12.8264 149.483 12.8264 147.826V52.8263Z" fill="url(#paint0_linear_465_6796)"/>
<path d="M12.8264 119.826H95.8264V146.826H12.8264V119.826Z" fill="#DE7A7A" fill-opacity="0.22"/>
<path d="M46.5876 5.60456C50.8833 1.3088 57.8481 1.3088 62.1439 5.60457L105.509 48.9701C109.805 53.2658 109.805 60.2306 105.509 64.5264L62.1439 107.892C57.8481 112.188 50.8833 112.188 46.5876 107.892L3.22207 64.5264C-1.07369 60.2306 -1.07369 53.2658 3.22208 48.9701L46.5876 5.60456Z" fill="#2D2D2D"/>
<path d="M46.5876 6.60456C50.8833 2.3088 57.8481 2.3088 62.1439 6.60457L105.509 49.9701C109.805 54.2658 109.805 61.2306 105.509 65.5264L62.1439 108.892C57.8481 113.188 50.8833 113.188 46.5876 108.892L3.22207 65.5264C-1.07369 61.2306 -1.07369 54.2658 3.22208 49.9701L46.5876 6.60456Z" fill="#2D2D2D"/>
<path d="M46.5873 3.22182C50.8831 -1.07394 57.8479 -1.07394 62.1437 3.22183L105.509 46.5873C109.805 50.8831 109.805 57.8479 105.509 62.1437L62.1437 105.509C57.8479 109.805 50.8831 109.805 46.5873 105.509L3.22182 62.1437C-1.07394 57.8479 -1.07394 50.8831 3.22183 46.5873L46.5873 3.22182Z" fill="url(#paint1_linear_465_6796)"/>
<path d="M49.4157 16.7761C52.1494 14.0424 56.5816 14.0424 59.3152 16.7761L92.4158 49.8767C95.1495 52.6103 95.1495 57.0425 92.4158 59.7762L59.3152 92.8768C56.5816 95.6104 52.1494 95.6104 49.4157 92.8768L16.3152 59.7762C13.5815 57.0425 13.5815 52.6103 16.3152 49.8767L49.4157 16.7761Z" fill="#181818"/>
<path d="M12.7318 56.063L11.1778 57.1781C11.2945 58.4104 11.3989 59.5441 11.5279 60.9551H5.75395C5.43454 56.8947 5.13969 52.9453 4.82642 49.1313C8.86205 47.3322 12.8793 47.3445 18.383 47.7018L19.2982 48.7739H31.5218C32.6827 46.0013 35.496 45.7918 37.6274 44.3069L39.8019 45.5392H51.5648L53.0021 44.3993H81.7306L83.5734 46.1492C84.4948 46.1492 85.5083 46.1492 86.5218 46.1492C87.4186 46.1492 88.3215 46.2416 89.3043 46.2909C89.5746 47.1967 89.808 47.9607 90.1213 49.002C92.8178 49.5688 95.6495 49.1744 98.4198 49.236C99.9124 47.7819 99.9247 45.8719 100.306 43.8263L103.076 44.5288V48.7185L104.826 49.7475V51.7746L101.884 53.7647C98.1987 53.7647 94.3166 53.7031 90.4284 53.7647C82.781 53.9065 75.1151 53.9003 67.4862 54.4178C64.3596 54.6335 61.2699 54.7998 58.1741 54.2638C56.9456 57.8559 58.125 60.5731 60.0783 63.0377C61.2147 64.4671 62.5906 65.7117 64.0771 67.2706L59.7466 73.8263C53.5058 69.883 50.238 64.2576 48.7392 57.1104L46.0672 58.5891C43.9419 58.5891 41.5955 58.9834 39.3105 58.1023C36.7982 59.6858 36.6753 62.2552 36.6692 64.7629C33.9296 65.5577 31.6631 64.7629 30.2871 62.4585C31.3375 60.2774 32.437 57.9976 33.6839 55.4221C29.2859 53.2595 24.6913 54.6088 20.2564 53.9742L19.0709 52.5694H15.0845C13.4137 53.0561 13.2478 54.7382 12.7318 56.063ZM103.34 50.4807L103.401 50.148H83.9174V50.4807H103.34ZM35.496 46.5004L35.6004 46.7037H50.4161V46.5004H35.496ZM45.324 54.2638L43.1188 54.806C43.1188 55.9951 43.5918 56.599 44.5255 56.7407C44.8543 56.7084 45.1758 56.6231 45.4776 56.4881C45.4161 55.8719 45.3793 55.2989 45.324 54.2823V54.2638ZM21.3682 49.6119L21.3252 49.8768H29.1324V49.6119H21.3682ZM56.1655 54.7506V54.5595H49.1078V54.7506H56.1655ZM17.394 49.1683V48.965H12.1237V49.1991L17.394 49.1683ZM38.2786 49.8461V49.5811H33.5427V49.8461H38.2786ZM64.6913 45.5331V45.3051H60.066V45.5331H64.6913ZM56.4112 49.5564V49.8276H60.2871V49.5811L56.4112 49.5564ZM54.7957 49.8645L54.8572 49.5873H50.7724L60.066 45.3051L54.7957 49.8645ZM83.8744 47.1289V47.3753H88.0574V47.1289H83.8744ZM8.4137 48.9773V49.4024L9.45175 49.2299V48.9773H8.4137Z" fill="white"/>
<path d="M23.5604 131.826V125.45H26.5753C27.2797 125.45 27.899 125.581 28.4334 125.842C28.9678 126.103 29.3837 126.471 29.6812 126.944C29.9849 127.418 30.1367 127.983 30.1367 128.638C30.1367 129.288 29.9849 129.853 29.6812 130.333C29.3837 130.806 28.9678 131.174 28.4334 131.435C27.899 131.696 27.2797 131.826 26.5753 131.826H23.5604ZM25.3638 130.387H26.5024C26.8667 130.387 27.1825 130.32 27.4497 130.187C27.7229 130.047 27.9355 129.847 28.0873 129.586C28.2391 129.318 28.315 129.003 28.315 128.638C28.315 128.268 28.2391 127.952 28.0873 127.691C27.9355 127.43 27.7229 127.233 27.4497 127.099C27.1825 126.959 26.8667 126.89 26.5024 126.89H25.3638V130.387Z" fill="white"/>
<path d="M34.3008 131.954C33.7907 131.954 33.3201 131.872 32.889 131.708C32.4578 131.544 32.0814 131.313 31.7595 131.016C31.4438 130.712 31.1978 130.36 31.0217 129.959C30.8457 129.558 30.7576 129.118 30.7576 128.638C30.7576 128.159 30.8457 127.718 31.0217 127.318C31.1978 126.917 31.4438 126.568 31.7595 126.27C32.0814 125.967 32.4578 125.733 32.889 125.569C33.3201 125.405 33.7907 125.323 34.3008 125.323C34.8169 125.323 35.2875 125.405 35.7126 125.569C36.1437 125.733 36.5172 125.967 36.8329 126.27C37.1487 126.568 37.3946 126.917 37.5707 127.318C37.7529 127.718 37.844 128.159 37.844 128.638C37.844 129.118 37.7529 129.561 37.5707 129.968C37.3946 130.369 37.1487 130.718 36.8329 131.016C36.5172 131.313 36.1437 131.544 35.7126 131.708C35.2875 131.872 34.8169 131.954 34.3008 131.954ZM34.3008 130.46C34.5437 130.46 34.7684 130.418 34.9748 130.333C35.1873 130.248 35.3695 130.126 35.5213 129.968C35.6792 129.804 35.8006 129.61 35.8857 129.385C35.9767 129.161 36.0223 128.912 36.0223 128.638C36.0223 128.359 35.9767 128.11 35.8857 127.892C35.8006 127.667 35.6792 127.476 35.5213 127.318C35.3695 127.154 35.1873 127.029 34.9748 126.944C34.7684 126.859 34.5437 126.817 34.3008 126.817C34.0579 126.817 33.8302 126.859 33.6177 126.944C33.4112 127.029 33.229 127.154 33.0711 127.318C32.9193 127.476 32.7979 127.667 32.7068 127.892C32.6218 128.11 32.5793 128.359 32.5793 128.638C32.5793 128.912 32.6218 129.161 32.7068 129.385C32.7979 129.61 32.9193 129.804 33.0711 129.968C33.229 130.126 33.4112 130.248 33.6177 130.333C33.8302 130.418 34.0579 130.46 34.3008 130.46Z" fill="white"/>
<path d="M38.7885 131.826V125.45H40.2732L42.9147 129.786H42.1313L44.6999 125.45H46.1846L46.2028 131.826H44.5451L44.5269 127.973H44.8092L42.8873 131.198H42.0858L40.1093 127.973H40.4554V131.826H38.7885Z" fill="white"/>
<path d="M47.4789 131.826V125.45H49.2824V131.826H47.4789Z" fill="white"/>
<path d="M50.5655 131.826V125.45H52.0501L55.566 129.695H54.8646V125.45H56.6317V131.826H55.147L51.6311 127.582H52.3325V131.826H50.5655Z" fill="white"/>
<path d="M57.1387 131.826L59.9532 125.45H61.7293L64.553 131.826H62.6766L60.4724 126.334H61.1828L58.9786 131.826H57.1387ZM58.678 130.588L59.1425 129.258H62.2576L62.7222 130.588H58.678Z" fill="white"/>
<path d="M68.1541 131.954C67.6501 131.954 67.1826 131.875 66.7514 131.717C66.3264 131.553 65.956 131.322 65.6402 131.025C65.3305 130.727 65.0876 130.378 64.9115 129.977C64.7354 129.57 64.6474 129.124 64.6474 128.638C64.6474 128.153 64.7354 127.709 64.9115 127.309C65.0876 126.902 65.3305 126.55 65.6402 126.252C65.956 125.954 66.3264 125.727 66.7514 125.569C67.1826 125.405 67.6501 125.323 68.1541 125.323C68.7431 125.323 69.2684 125.426 69.7299 125.633C70.1975 125.839 70.5861 126.137 70.8958 126.525L69.7481 127.564C69.5416 127.321 69.3139 127.135 69.065 127.008C68.8221 126.88 68.5488 126.817 68.2452 126.817C67.9841 126.817 67.7443 126.859 67.5257 126.944C67.307 127.029 67.1188 127.154 66.9609 127.318C66.8091 127.476 66.6877 127.667 66.5966 127.892C66.5116 128.116 66.4691 128.365 66.4691 128.638C66.4691 128.912 66.5116 129.161 66.5966 129.385C66.6877 129.61 66.8091 129.804 66.9609 129.968C67.1188 130.126 67.307 130.248 67.5257 130.333C67.7443 130.418 67.9841 130.46 68.2452 130.46C68.5488 130.46 68.8221 130.396 69.065 130.269C69.3139 130.141 69.5416 129.956 69.7481 129.713L70.8958 130.752C70.5861 131.134 70.1975 131.432 69.7299 131.644C69.2684 131.851 68.7431 131.954 68.1541 131.954ZM67.5985 133.976C67.4467 133.976 67.2888 133.958 67.1249 133.921C66.967 133.885 66.8364 133.839 66.7332 133.785L66.97 133.102C67.049 133.138 67.134 133.168 67.2251 133.193C67.3222 133.217 67.4255 133.229 67.5348 133.229C67.6987 133.229 67.8141 133.205 67.8809 133.156C67.9537 133.108 67.9902 133.047 67.9902 132.974C67.9902 132.901 67.9568 132.843 67.89 132.801C67.8293 132.765 67.726 132.746 67.5803 132.746H67.2433L67.4801 131.744H68.3818L68.2543 132.291C68.5337 132.321 68.734 132.409 68.8555 132.555C68.9769 132.701 69.0377 132.859 69.0377 133.029C69.0377 133.32 68.9071 133.551 68.646 133.721C68.3849 133.891 68.0357 133.976 67.5985 133.976Z" fill="white"/>
<path d="M70.828 131.826L73.6425 125.45H75.4187L78.2423 131.826H76.366L74.1617 126.334H74.8722L72.6679 131.826H70.828ZM72.3673 130.588L72.8319 129.258H75.947L76.4115 130.588H72.3673ZM75.2456 124.995C75.0817 124.995 74.9359 124.968 74.8084 124.913C74.687 124.852 74.5746 124.786 74.4714 124.713C74.3682 124.64 74.2741 124.576 74.189 124.521C74.104 124.461 74.019 124.43 73.934 124.43C73.8126 124.43 73.7154 124.473 73.6425 124.558C73.5697 124.643 73.5272 124.761 73.515 124.913H72.6679C72.6801 124.47 72.7863 124.118 72.9867 123.856C73.1932 123.595 73.4725 123.465 73.8247 123.465C73.9887 123.465 74.1344 123.492 74.2619 123.547C74.3894 123.601 74.5018 123.668 74.5989 123.747C74.7021 123.82 74.7963 123.884 74.8813 123.938C74.9724 123.993 75.0574 124.02 75.1363 124.02C75.2578 124.02 75.3549 123.981 75.4278 123.902C75.5067 123.817 75.5492 123.705 75.5553 123.565H76.4024C76.3963 123.99 76.2901 124.336 76.0836 124.603C75.8771 124.864 75.5978 124.995 75.2456 124.995Z" fill="white"/>
<path d="M81.8799 131.954C81.3698 131.954 80.8992 131.872 80.4681 131.708C80.037 131.544 79.6605 131.313 79.3386 131.016C79.0229 130.712 78.777 130.36 78.6009 129.959C78.4248 129.558 78.3367 129.118 78.3367 128.638C78.3367 128.159 78.4248 127.718 78.6009 127.318C78.777 126.917 79.0229 126.568 79.3386 126.27C79.6605 125.967 80.037 125.733 80.4681 125.569C80.8992 125.405 81.3698 125.323 81.8799 125.323C82.396 125.323 82.8666 125.405 83.2917 125.569C83.7228 125.733 84.0963 125.967 84.412 126.27C84.7278 126.568 84.9737 126.917 85.1498 127.318C85.332 127.718 85.4231 128.159 85.4231 128.638C85.4231 129.118 85.332 129.561 85.1498 129.968C84.9737 130.369 84.7278 130.718 84.412 131.016C84.0963 131.313 83.7228 131.544 83.2917 131.708C82.8666 131.872 82.396 131.954 81.8799 131.954ZM81.8799 130.46C82.1228 130.46 82.3475 130.418 82.5539 130.333C82.7665 130.248 82.9486 130.126 83.1004 129.968C83.2583 129.804 83.3798 129.61 83.4648 129.385C83.5559 129.161 83.6014 128.912 83.6014 128.638C83.6014 128.359 83.5559 128.11 83.4648 127.892C83.3798 127.667 83.2583 127.476 83.1004 127.318C82.9486 127.154 82.7665 127.029 82.5539 126.944C82.3475 126.859 82.1228 126.817 81.8799 126.817C81.637 126.817 81.4093 126.859 81.1968 126.944C80.9903 127.029 80.8081 127.154 80.6503 127.318C80.4985 127.476 80.377 127.667 80.2859 127.892C80.2009 128.11 80.1584 128.359 80.1584 128.638C80.1584 128.912 80.2009 129.161 80.2859 129.385C80.377 129.61 80.4985 129.804 80.6503 129.968C80.8081 130.126 80.9903 130.248 81.1968 130.333C81.4093 130.418 81.637 130.46 81.8799 130.46Z" fill="white"/>
<path d="M34.0169 141.593V135.218H34.6909V141.593H34.0169Z" fill="white" fill-opacity="0.87"/>
<path d="M36.7654 141.593V135.218H37.321L41.7204 140.755H41.429V135.218H42.0939V141.593H41.5383L37.148 136.056H37.4395V141.593H36.7654Z" fill="white" fill-opacity="0.87"/>
<path d="M44.1749 141.593V135.218H44.849V141.593H44.1749Z" fill="white" fill-opacity="0.87"/>
<path d="M49.6924 141.648C49.2127 141.648 48.7694 141.569 48.3626 141.411C47.9558 141.247 47.6036 141.02 47.306 140.728C47.0085 140.437 46.7747 140.094 46.6047 139.699C46.4407 139.304 46.3588 138.873 46.3588 138.405C46.3588 137.938 46.4407 137.507 46.6047 137.112C46.7747 136.717 47.0085 136.374 47.306 136.083C47.6096 135.791 47.9649 135.567 48.3717 135.409C48.7786 135.245 49.2218 135.163 49.7015 135.163C50.163 135.163 50.5972 135.242 51.0041 135.4C51.4109 135.552 51.754 135.782 52.0333 136.092L51.6052 136.52C51.3441 136.253 51.0557 136.062 50.7399 135.946C50.4242 135.825 50.0841 135.764 49.7198 135.764C49.3372 135.764 48.982 135.831 48.6541 135.964C48.3262 136.092 48.0408 136.277 47.7979 136.52C47.555 136.757 47.3637 137.036 47.2241 137.358C47.0905 137.674 47.0237 138.023 47.0237 138.405C47.0237 138.788 47.0905 139.14 47.2241 139.462C47.3637 139.778 47.555 140.057 47.7979 140.3C48.0408 140.537 48.3262 140.722 48.6541 140.856C48.982 140.983 49.3372 141.047 49.7198 141.047C50.0841 141.047 50.4242 140.986 50.7399 140.865C51.0557 140.743 51.3441 140.549 51.6052 140.282L52.0333 140.71C51.754 141.02 51.4109 141.253 51.0041 141.411C50.5972 141.569 50.16 141.648 49.6924 141.648Z" fill="white" fill-opacity="0.87"/>
<path d="M53.4702 141.593V135.218H54.1442V141.593H53.4702Z" fill="white" fill-opacity="0.87"/>
<path d="M55.1986 141.593L58.1133 135.218H58.7782L61.6929 141.593H60.9824L58.3045 135.609H58.5778L55.8999 141.593H55.1986ZM56.3462 139.89L56.5466 139.344H60.2537L60.4541 139.89H56.3462Z" fill="white" fill-opacity="0.87"/>
<path d="M62.7476 141.593V135.218H65.3435C66.0236 135.218 66.6187 135.354 67.1288 135.627C67.6449 135.895 68.0457 136.268 68.3311 136.748C68.6165 137.227 68.7592 137.78 68.7592 138.405C68.7592 139.031 68.6165 139.584 68.3311 140.063C68.0457 140.543 67.6449 140.919 67.1288 141.193C66.6187 141.46 66.0236 141.593 65.3435 141.593H62.7476ZM63.4216 141.01H65.3071C65.8718 141.01 66.3606 140.901 66.7735 140.683C67.1925 140.458 67.5174 140.151 67.7481 139.763C67.9789 139.368 68.0942 138.916 68.0942 138.405C68.0942 137.889 67.9789 137.437 67.7481 137.048C67.5174 136.66 67.1925 136.356 66.7735 136.137C66.3606 135.913 65.8718 135.8 65.3071 135.8H63.4216V141.01Z" fill="white" fill-opacity="0.87"/>
<path d="M69.1636 141.593L72.0783 135.218H72.7432L75.6579 141.593H74.9475L72.2696 135.609H72.5429L69.865 141.593H69.1636ZM70.3113 139.89L70.5117 139.344H74.2188L74.4192 139.89H70.3113Z" fill="white" fill-opacity="0.87"/>
<path d="M53.4604 32.3263C53.8453 32.993 54.8076 32.993 55.1925 32.3263L58.2235 27.0763C58.6084 26.4097 58.1273 25.5763 57.3575 25.5763H51.2953C50.5255 25.5763 50.0444 26.4097 50.4293 27.0763L53.4604 32.3263Z" fill="white"/>
<path d="M53.4604 79.3263C53.8453 78.6597 54.8076 78.6597 55.1925 79.3263L58.2235 84.5763C58.6084 85.243 58.1273 86.0763 57.3575 86.0763H51.2953C50.5255 86.0763 50.0444 85.243 50.4293 84.5763L53.4604 79.3263Z" fill="white"/>
<defs>
<linearGradient id="paint0_linear_465_6796" x1="54.3656" y1="0" x2="54.3656" y2="150.826" gradientUnits="userSpaceOnUse">
<stop stop-color="#4E4444"/>
<stop offset="1" stop-color="#130101"/>
</linearGradient>
<linearGradient id="paint1_linear_465_6796" x1="54.3656" y1="0" x2="54.3656" y2="150.826" gradientUnits="userSpaceOnUse">
<stop stop-color="#323232"/>
<stop offset="1" stop-color="#FF6C6C" stop-opacity="0"/>
</linearGradient>
</defs>
</svg>
