<svg width="110" height="152" viewBox="0 0 110 152" fill="none" xmlns="http://www.w3.org/2000/svg">
<path d="M13.3831 53.383C13.3831 51.7261 14.7262 50.383 16.3831 50.383H93.3831C95.0399 50.383 96.3831 51.7261 96.3831 53.383V148.383C96.3831 150.04 95.0399 151.383 93.3831 151.383H16.3831C14.7262 151.383 13.3831 150.04 13.3831 148.383V53.383Z" fill="url(#paint0_linear_466_6798)"/>
<path d="M13.3831 120.383H96.3831V147.383H13.3831V120.383Z" fill="#7AAEDE" fill-opacity="0.22"/>
<path d="M47.1442 6.1612C51.44 1.86544 58.4048 1.86544 62.7006 6.16121L106.066 49.5267C110.362 53.8225 110.362 60.7873 106.066 65.083L62.7005 108.449C58.4048 112.744 51.44 112.744 47.1442 108.449L3.77871 65.083C-0.517052 60.7873 -0.517046 53.8225 3.77872 49.5267L47.1442 6.1612Z" fill="#2D2D2D"/>
<path d="M47.1442 7.1612C51.44 2.86544 58.4048 2.86544 62.7006 7.16121L106.066 50.5267C110.362 54.8225 110.362 61.7873 106.066 66.083L62.7005 109.449C58.4048 113.744 51.44 113.744 47.1442 109.449L3.77871 66.083C-0.517052 61.7873 -0.517046 54.8225 3.77872 50.5267L47.1442 7.1612Z" fill="#2D2D2D"/>
<path d="M47.144 3.77846C51.4397 -0.517304 58.4045 -0.517298 62.7003 3.77847L106.066 47.144C110.362 51.4397 110.362 58.4045 106.066 62.7003L62.7003 106.066C58.4045 110.362 51.4397 110.362 47.144 106.066L3.77846 62.7003C-0.517304 58.4045 -0.517298 51.4397 3.77847 47.144L47.144 3.77846Z" fill="url(#paint1_linear_466_6798)"/>
<path d="M49.9724 17.3327C52.706 14.5991 57.1382 14.5991 59.8719 17.3327L92.9725 50.4333C95.7061 53.167 95.7061 57.5991 92.9725 60.3328L59.8719 93.4334C57.1382 96.1671 52.7061 96.1671 49.9724 93.4334L16.8718 60.3328C14.1381 57.5991 14.1381 53.167 16.8718 50.4333L49.9724 17.3327Z" fill="#181818"/>
<path d="M13.2885 56.6196L11.7345 57.7348C11.8512 58.9671 11.9556 60.1008 12.0846 61.5117H6.31059C5.99118 57.4513 5.69633 53.5019 5.38306 49.688C9.41869 47.8888 13.4359 47.9011 18.9396 48.2585L19.8548 49.3306H32.0784C33.2394 46.5579 36.0526 46.3484 38.1841 44.8635L40.3585 46.0958H52.1214L53.5588 44.956H82.2873L84.13 46.7059C85.0514 46.7059 86.0649 46.7059 87.0784 46.7059C87.9752 46.7059 88.8781 46.7983 89.8609 46.8476C90.1312 47.7533 90.3646 48.5173 90.6779 49.5586C93.3745 50.1255 96.2062 49.7311 98.9764 49.7927C100.469 48.3386 100.481 46.4286 100.862 44.383L103.632 45.0854V49.2751L105.383 50.3041V52.3313L102.441 54.3214C98.7553 54.3214 94.8732 54.2598 90.985 54.3214C83.3376 54.4631 75.6718 54.4569 68.0428 54.9745C64.9163 55.1901 61.8266 55.3565 58.7307 54.8204C57.5022 58.4125 58.6816 61.1297 60.6349 63.5943C61.7713 65.0238 63.1472 66.2684 64.6337 67.8272L60.3032 74.383C54.0624 70.4397 50.7946 64.8143 49.2959 57.667L46.6239 59.1458C44.4986 59.1458 42.1521 59.5401 39.8671 58.659C37.3548 60.2425 37.232 62.8118 37.2258 65.3195C34.4863 66.1144 32.2197 65.3195 30.8438 63.0152C31.8942 60.834 32.9936 58.5543 34.2406 55.9788C29.8425 53.8161 25.248 55.1655 20.8131 54.5309L19.6276 53.126H15.6411C13.9703 53.6128 13.8044 55.2949 13.2885 56.6196ZM103.897 51.0373L103.958 50.7046H84.474V51.0373H103.897ZM36.0526 47.057L36.157 47.2603H50.9728V47.057H36.0526ZM45.8806 54.8204L43.6755 55.3626C43.6755 56.5518 44.1485 57.1556 45.0821 57.2973C45.411 57.265 45.7324 57.1797 46.0342 57.0447C45.9728 56.4285 45.9359 55.8556 45.8806 54.8389V54.8204ZM21.9249 50.1686L21.8819 50.4335H29.689V50.1686H21.9249ZM56.7222 55.3072V55.1162H49.6644V55.3072H56.7222ZM17.9507 49.7249V49.5216H12.6804V49.7557L17.9507 49.7249ZM38.8352 50.4027V50.1377H34.0993V50.4027H38.8352ZM65.248 46.0897V45.8617H60.6226V46.0897H65.248ZM56.9678 50.1131V50.3842H60.8438V50.1377L56.9678 50.1131ZM55.3524 50.4211L55.4138 50.1439H51.329L60.6226 45.8617L55.3524 50.4211ZM84.431 47.6855V47.932H88.614V47.6855H84.431ZM8.97034 49.5339V49.959L10.0084 49.7866V49.5339H8.97034Z" fill="white"/>
<path d="M40.6641 132.383L43.4786 126.007H45.2547L48.0783 132.383H46.202L43.9977 126.891H44.7082L42.504 132.383H40.6641ZM42.2034 131.144L42.6679 129.814H45.783L46.2475 131.144H42.2034Z" fill="white"/>
<path d="M48.5896 132.383V126.007H51.5043C52.0872 126.007 52.5882 126.101 53.0072 126.289C53.4323 126.478 53.7602 126.751 53.9909 127.109C54.2217 127.461 54.337 127.88 54.337 128.366C54.337 128.846 54.2217 129.262 53.9909 129.614C53.7602 129.96 53.4323 130.227 53.0072 130.416C52.5882 130.598 52.0872 130.689 51.5043 130.689H49.5915L50.3931 129.933V132.383H48.5896ZM52.5336 132.383L50.9487 130.06H52.8706L54.4645 132.383H52.5336ZM50.3931 130.124L49.5915 129.295H51.395C51.7715 129.295 52.0508 129.213 52.233 129.049C52.4212 128.885 52.5153 128.658 52.5153 128.366C52.5153 128.069 52.4212 127.838 52.233 127.674C52.0508 127.51 51.7715 127.428 51.395 127.428H49.5915L50.3931 126.599V130.124Z" fill="white"/>
<path d="M56.9897 128.475H59.95V129.824H56.9897V128.475ZM57.1172 130.989H60.4509V132.383H55.332V126.007H60.3325V127.401H57.1172V130.989Z" fill="white"/>
<path d="M60.6866 132.383L63.5011 126.007H65.2773L68.1009 132.383H66.2245L64.0203 126.891H64.7307L62.5265 132.383H60.6866ZM62.2259 131.144L62.6905 129.814H65.8055L66.2701 131.144H62.2259Z" fill="white"/>
<path d="M28.6628 142.15V135.774H31.2587C31.9388 135.774 32.5339 135.911 33.044 136.184C33.5601 136.451 33.9609 136.825 34.2463 137.304C34.5317 137.784 34.6744 138.337 34.6744 138.962C34.6744 139.588 34.5317 140.14 34.2463 140.62C33.9609 141.1 33.5601 141.476 33.044 141.749C32.5339 142.016 31.9388 142.15 31.2587 142.15H28.6628ZM29.3369 141.567H31.2223C31.787 141.567 32.2759 141.458 32.6888 141.239C33.1078 141.015 33.4326 140.708 33.6634 140.319C33.8941 139.925 34.0095 139.472 34.0095 138.962C34.0095 138.446 33.8941 137.994 33.6634 137.605C33.4326 137.216 33.1078 136.913 32.6888 136.694C32.2759 136.469 31.787 136.357 31.2223 136.357H29.3369V141.567Z" fill="white" fill-opacity="0.87"/>
<path d="M38.9752 142.205C38.4954 142.205 38.0491 142.126 37.6362 141.968C37.2294 141.804 36.8741 141.576 36.5705 141.285C36.273 140.987 36.0392 140.644 35.8692 140.256C35.7052 139.861 35.6232 139.43 35.6232 138.962C35.6232 138.495 35.7052 138.066 35.8692 137.678C36.0392 137.283 36.273 136.94 36.5705 136.649C36.8741 136.351 37.2294 136.123 37.6362 135.965C38.0431 135.802 38.4894 135.72 38.9752 135.72C39.4549 135.72 39.8981 135.802 40.305 135.965C40.7118 136.123 41.064 136.348 41.3616 136.639C41.6652 136.931 41.899 137.274 42.0629 137.669C42.2329 138.063 42.3179 138.495 42.3179 138.962C42.3179 139.43 42.2329 139.861 42.0629 140.256C41.899 140.65 41.6652 140.993 41.3616 141.285C41.064 141.576 40.7118 141.804 40.305 141.968C39.8981 142.126 39.4549 142.205 38.9752 142.205ZM38.9752 141.604C39.3577 141.604 39.7099 141.54 40.0317 141.412C40.3596 141.279 40.642 141.093 40.8788 140.857C41.1217 140.614 41.3099 140.334 41.4435 140.019C41.5771 139.697 41.6439 139.345 41.6439 138.962C41.6439 138.58 41.5771 138.23 41.4435 137.915C41.3099 137.593 41.1217 137.313 40.8788 137.077C40.642 136.834 40.3596 136.649 40.0317 136.521C39.7099 136.387 39.3577 136.321 38.9752 136.321C38.5926 136.321 38.2374 136.387 37.9095 136.521C37.5816 136.649 37.2962 136.834 37.0533 137.077C36.8164 137.313 36.6282 137.593 36.4885 137.915C36.355 138.23 36.2882 138.58 36.2882 138.962C36.2882 139.339 36.355 139.688 36.4885 140.01C36.6282 140.331 36.8164 140.614 37.0533 140.857C37.2962 141.093 37.5816 141.279 37.9095 141.412C38.2374 141.54 38.5926 141.604 38.9752 141.604Z" fill="white" fill-opacity="0.87"/>
<path d="M43.8287 142.15V135.774H44.3843L47.299 140.747H47.0076L49.895 135.774H50.4506V142.15H49.8039V136.785H49.9587L47.299 141.339H46.9803L44.3024 136.785H44.4754V142.15H43.8287Z" fill="white" fill-opacity="0.87"/>
<path d="M52.528 142.15V135.774H53.202V142.15H52.528Z" fill="white" fill-opacity="0.87"/>
<path d="M55.2765 142.15V135.774H55.8322L60.2315 141.312H59.9401V135.774H60.605V142.15H60.0494L55.6591 136.612H55.9506V142.15H55.2765Z" fill="white" fill-opacity="0.87"/>
<path d="M61.6659 142.15L64.5806 135.774H65.2455L68.1602 142.15H67.4497L64.7719 136.166H65.0451L62.3672 142.15H61.6659ZM62.8136 140.447L63.0139 139.9H66.7211L66.9215 140.447H62.8136Z" fill="white" fill-opacity="0.87"/>
<path d="M69.2149 142.15V135.774H71.8108C72.4909 135.774 73.086 135.911 73.5961 136.184C74.1122 136.451 74.513 136.825 74.7984 137.304C75.0838 137.784 75.2265 138.337 75.2265 138.962C75.2265 139.588 75.0838 140.14 74.7984 140.62C74.513 141.1 74.1122 141.476 73.5961 141.749C73.086 142.016 72.4909 142.15 71.8108 142.15H69.2149ZM69.889 141.567H71.7744C72.3391 141.567 72.828 141.458 73.2409 141.239C73.6599 141.015 73.9847 140.708 74.2155 140.319C74.4462 139.925 74.5616 139.472 74.5616 138.962C74.5616 138.446 74.4462 137.994 74.2155 137.605C73.9847 137.216 73.6599 136.913 73.2409 136.694C72.828 136.469 72.3391 136.357 71.7744 136.357H69.889V141.567Z" fill="white" fill-opacity="0.87"/>
<path d="M75.631 142.15L78.5457 135.774H79.2106L82.1253 142.15H81.4148L78.7369 136.166H79.0102L76.3323 142.15H75.631ZM76.7786 140.447L76.979 139.9H80.6861L80.8865 140.447H76.7786Z" fill="white" fill-opacity="0.87"/>
<path d="M54.017 32.883C54.4019 33.5497 55.3642 33.5497 55.7491 32.883L58.7802 27.633C59.1651 26.9663 58.684 26.133 57.9142 26.133H51.852C51.0822 26.133 50.6011 26.9663 50.986 27.633L54.017 32.883Z" fill="white"/>
<path d="M54.017 79.883C54.4019 79.2163 55.3642 79.2163 55.7491 79.883L58.7802 85.133C59.1651 85.7997 58.684 86.633 57.9142 86.633H51.852C51.0822 86.633 50.6011 85.7996 50.986 85.133L54.017 79.883Z" fill="white"/>
<defs>
<linearGradient id="paint0_linear_466_6798" x1="54.9223" y1="0.556641" x2="54.9223" y2="151.383" gradientUnits="userSpaceOnUse">
<stop stop-color="#44464E"/>
<stop offset="1" stop-color="#000A18"/>
</linearGradient>
<linearGradient id="paint1_linear_466_6798" x1="54.9223" y1="0.556641" x2="54.9223" y2="151.383" gradientUnits="userSpaceOnUse">
<stop stop-color="#323232"/>
<stop offset="1" stop-color="#0050CD" stop-opacity="0"/>
</linearGradient>
</defs>
</svg>
