<svg width="110" height="152" viewBox="0 0 110 152" fill="none" xmlns="http://www.w3.org/2000/svg">
<path d="M13.3831 53.383C13.3831 51.7261 14.7262 50.383 16.3831 50.383H93.3831C95.0399 50.383 96.3831 51.7261 96.3831 53.383V148.383C96.3831 150.04 95.0399 151.383 93.3831 151.383H16.3831C14.7262 151.383 13.3831 150.04 13.3831 148.383V53.383Z" fill="url(#paint0_linear_466_6802)"/>
<path d="M13.3831 120.383H96.3831V147.383H13.3831V120.383Z" fill="#DE7A7A" fill-opacity="0.22"/>
<path d="M47.1442 6.1612C51.44 1.86544 58.4048 1.86544 62.7006 6.16121L106.066 49.5267C110.362 53.8225 110.362 60.7873 106.066 65.083L62.7005 108.449C58.4048 112.744 51.44 112.744 47.1442 108.449L3.77871 65.083C-0.517052 60.7873 -0.517046 53.8225 3.77872 49.5267L47.1442 6.1612Z" fill="#2D2D2D"/>
<path d="M47.1442 7.1612C51.44 2.86544 58.4048 2.86544 62.7006 7.16121L106.066 50.5267C110.362 54.8225 110.362 61.7873 106.066 66.083L62.7005 109.449C58.4048 113.744 51.44 113.744 47.1442 109.449L3.77871 66.083C-0.517052 61.7873 -0.517046 54.8225 3.77872 50.5267L47.1442 7.1612Z" fill="#2D2D2D"/>
<path d="M47.144 3.77846C51.4397 -0.517304 58.4045 -0.517298 62.7003 3.77847L106.066 47.144C110.362 51.4397 110.362 58.4045 106.066 62.7003L62.7003 106.066C58.4045 110.362 51.4397 110.362 47.144 106.066L3.77846 62.7003C-0.517304 58.4045 -0.517298 51.4397 3.77847 47.144L47.144 3.77846Z" fill="url(#paint1_linear_466_6802)"/>
<path d="M49.9724 17.3327C52.706 14.5991 57.1382 14.5991 59.8719 17.3327L92.9725 50.4333C95.7061 53.167 95.7061 57.5991 92.9725 60.3328L59.8719 93.4334C57.1382 96.1671 52.7061 96.1671 49.9724 93.4334L16.8718 60.3328C14.1381 57.5991 14.1381 53.167 16.8718 50.4333L49.9724 17.3327Z" fill="#181818"/>
<path d="M24.117 132.383V126.007H27.1319C27.8363 126.007 28.4557 126.138 28.99 126.399C29.5244 126.66 29.9403 127.027 30.2379 127.501C30.5415 127.975 30.6933 128.539 30.6933 129.195C30.6933 129.845 30.5415 130.409 30.2379 130.889C29.9403 131.363 29.5244 131.73 28.99 131.991C28.4557 132.252 27.8363 132.383 27.1319 132.383H24.117ZM25.9205 130.944H27.059C27.4234 130.944 27.7391 130.877 28.0063 130.743C28.2796 130.604 28.4921 130.403 28.6439 130.142C28.7957 129.875 28.8716 129.559 28.8716 129.195C28.8716 128.825 28.7957 128.509 28.6439 128.248C28.4921 127.987 28.2796 127.789 28.0063 127.656C27.7391 127.516 27.4234 127.446 27.059 127.446H25.9205V130.944Z" fill="white"/>
<path d="M34.8574 132.51C34.3474 132.51 33.8768 132.429 33.4456 132.265C33.0145 132.101 32.638 131.87 32.3162 131.572C32.0004 131.269 31.7545 130.917 31.5784 130.516C31.4023 130.115 31.3142 129.675 31.3142 129.195C31.3142 128.715 31.4023 128.275 31.5784 127.874C31.7545 127.474 32.0004 127.124 32.3162 126.827C32.638 126.523 33.0145 126.289 33.4456 126.125C33.8768 125.962 34.3474 125.88 34.8574 125.88C35.3736 125.88 35.8442 125.962 36.2692 126.125C36.7004 126.289 37.0738 126.523 37.3896 126.827C37.7053 127.124 37.9513 127.474 38.1274 127.874C38.3095 128.275 38.4006 128.715 38.4006 129.195C38.4006 129.675 38.3095 130.118 38.1274 130.525C37.9513 130.926 37.7053 131.275 37.3896 131.572C37.0738 131.87 36.7004 132.101 36.2692 132.265C35.8442 132.429 35.3736 132.51 34.8574 132.51ZM34.8574 131.017C35.1003 131.017 35.325 130.974 35.5315 130.889C35.744 130.804 35.9261 130.683 36.078 130.525C36.2358 130.361 36.3573 130.167 36.4423 129.942C36.5334 129.717 36.5789 129.468 36.5789 129.195C36.5789 128.916 36.5334 128.667 36.4423 128.448C36.3573 128.223 36.2358 128.032 36.078 127.874C35.9261 127.71 35.744 127.586 35.5315 127.501C35.325 127.416 35.1003 127.373 34.8574 127.373C34.6145 127.373 34.3868 127.416 34.1743 127.501C33.9678 127.586 33.7857 127.71 33.6278 127.874C33.476 128.032 33.3545 128.223 33.2635 128.448C33.1784 128.667 33.1359 128.916 33.1359 129.195C33.1359 129.468 33.1784 129.717 33.2635 129.942C33.3545 130.167 33.476 130.361 33.6278 130.525C33.7857 130.683 33.9678 130.804 34.1743 130.889C34.3868 130.974 34.6145 131.017 34.8574 131.017Z" fill="white"/>
<path d="M39.3452 132.383V126.007H40.8299L43.4713 130.343H42.688L45.2566 126.007H46.7412L46.7594 132.383H45.1017L45.0835 128.53H45.3659L43.444 131.755H42.6424L40.6659 128.53H41.012V132.383H39.3452Z" fill="white"/>
<path d="M48.0356 132.383V126.007H49.839V132.383H48.0356Z" fill="white"/>
<path d="M51.1221 132.383V126.007H52.6068L56.1226 130.252H55.4213V126.007H57.1883V132.383H55.7036L52.1878 128.138H52.8891V132.383H51.1221Z" fill="white"/>
<path d="M57.6953 132.383L60.5098 126.007H62.286L65.1096 132.383H63.2333L61.029 126.891H61.7395L59.5352 132.383H57.6953ZM59.2347 131.144L59.6992 129.814H62.8143L63.2788 131.144H59.2347Z" fill="white"/>
<path d="M68.7108 132.51C68.2068 132.51 67.7392 132.432 67.3081 132.274C66.883 132.11 66.5126 131.879 66.1968 131.581C65.8872 131.284 65.6443 130.935 65.4682 130.534C65.2921 130.127 65.204 129.681 65.204 129.195C65.204 128.709 65.2921 128.266 65.4682 127.865C65.6443 127.458 65.8872 127.106 66.1968 126.809C66.5126 126.511 66.883 126.283 67.3081 126.125C67.7392 125.962 68.2068 125.88 68.7108 125.88C69.2998 125.88 69.825 125.983 70.2865 126.189C70.7541 126.396 71.1427 126.693 71.4524 127.082L70.3047 128.12C70.0983 127.877 69.8706 127.692 69.6216 127.565C69.3787 127.437 69.1055 127.373 68.8019 127.373C68.5407 127.373 68.3009 127.416 68.0823 127.501C67.8637 127.586 67.6754 127.71 67.5176 127.874C67.3658 128.032 67.2443 128.223 67.1532 128.448C67.0682 128.673 67.0257 128.922 67.0257 129.195C67.0257 129.468 67.0682 129.717 67.1532 129.942C67.2443 130.167 67.3658 130.361 67.5176 130.525C67.6754 130.683 67.8637 130.804 68.0823 130.889C68.3009 130.974 68.5407 131.017 68.8019 131.017C69.1055 131.017 69.3787 130.953 69.6216 130.825C69.8706 130.698 70.0983 130.513 70.3047 130.27L71.4524 131.308C71.1427 131.691 70.7541 131.988 70.2865 132.201C69.825 132.407 69.2998 132.51 68.7108 132.51ZM68.1552 134.533C68.0034 134.533 67.8455 134.514 67.6815 134.478C67.5236 134.441 67.3931 134.396 67.2899 134.341L67.5267 133.658C67.6056 133.695 67.6906 133.725 67.7817 133.749C67.8789 133.774 67.9821 133.786 68.0914 133.786C68.2554 133.786 68.3707 133.761 68.4375 133.713C68.5104 133.664 68.5468 133.604 68.5468 133.531C68.5468 133.458 68.5134 133.4 68.4466 133.358C68.3859 133.321 68.2827 133.303 68.1369 133.303H67.7999L68.0368 132.301H68.9385L68.811 132.848C69.0903 132.878 69.2907 132.966 69.4121 133.112C69.5336 133.257 69.5943 133.415 69.5943 133.585C69.5943 133.877 69.4637 134.108 69.2026 134.278C68.9415 134.448 68.5924 134.533 68.1552 134.533Z" fill="white"/>
<path d="M71.3847 132.383L74.1992 126.007H75.9753L78.7989 132.383H76.9226L74.7184 126.891H75.4288L73.2246 132.383H71.3847ZM72.924 131.144L73.3885 129.814H76.5036L76.9681 131.144H72.924ZM75.8023 125.552C75.6383 125.552 75.4926 125.524 75.3651 125.47C75.2436 125.409 75.1313 125.342 75.028 125.269C74.9248 125.196 74.8307 125.133 74.7457 125.078C74.6607 125.017 74.5757 124.987 74.4906 124.987C74.3692 124.987 74.272 125.029 74.1992 125.114C74.1263 125.199 74.0838 125.318 74.0717 125.47H73.2246C73.2367 125.026 73.343 124.674 73.5434 124.413C73.7498 124.152 74.0291 124.021 74.3813 124.021C74.5453 124.021 74.691 124.049 74.8185 124.103C74.9461 124.158 75.0584 124.225 75.1556 124.304C75.2588 124.377 75.3529 124.44 75.4379 124.495C75.529 124.55 75.614 124.577 75.693 124.577C75.8144 124.577 75.9116 124.538 75.9844 124.459C76.0634 124.374 76.1059 124.261 76.1119 124.122H76.959C76.953 124.547 76.8467 124.893 76.6402 125.16C76.4338 125.421 76.1544 125.552 75.8023 125.552Z" fill="white"/>
<path d="M82.4365 132.51C81.9265 132.51 81.4559 132.429 81.0247 132.265C80.5936 132.101 80.2171 131.87 79.8953 131.572C79.5795 131.269 79.3336 130.917 79.1575 130.516C78.9814 130.115 78.8934 129.675 78.8934 129.195C78.8934 128.715 78.9814 128.275 79.1575 127.874C79.3336 127.474 79.5795 127.124 79.8953 126.827C80.2171 126.523 80.5936 126.289 81.0247 126.125C81.4559 125.962 81.9265 125.88 82.4365 125.88C82.9527 125.88 83.4233 125.962 83.8484 126.125C84.2795 126.289 84.6529 126.523 84.9687 126.827C85.2844 127.124 85.5304 127.474 85.7065 127.874C85.8886 128.275 85.9797 128.715 85.9797 129.195C85.9797 129.675 85.8886 130.118 85.7065 130.525C85.5304 130.926 85.2844 131.275 84.9687 131.572C84.6529 131.87 84.2795 132.101 83.8484 132.265C83.4233 132.429 82.9527 132.51 82.4365 132.51ZM82.4365 131.017C82.6794 131.017 82.9041 130.974 83.1106 130.889C83.3231 130.804 83.5053 130.683 83.6571 130.525C83.8149 130.361 83.9364 130.167 84.0214 129.942C84.1125 129.717 84.158 129.468 84.158 129.195C84.158 128.916 84.1125 128.667 84.0214 128.448C83.9364 128.223 83.8149 128.032 83.6571 127.874C83.5053 127.71 83.3231 127.586 83.1106 127.501C82.9041 127.416 82.6794 127.373 82.4365 127.373C82.1936 127.373 81.9659 127.416 81.7534 127.501C81.547 127.586 81.3648 127.71 81.2069 127.874C81.0551 128.032 80.9337 128.223 80.8426 128.448C80.7576 128.667 80.715 128.916 80.715 129.195C80.715 129.468 80.7576 129.717 80.8426 129.942C80.9337 130.167 81.0551 130.361 81.2069 130.525C81.3648 130.683 81.547 130.804 81.7534 130.889C81.9659 130.974 82.1936 131.017 82.4365 131.017Z" fill="white"/>
<path d="M54.017 32.883C54.4019 33.5497 55.3642 33.5497 55.7491 32.883L58.7802 27.633C59.1651 26.9663 58.684 26.133 57.9142 26.133H51.852C51.0822 26.133 50.6011 26.9663 50.986 27.633L54.017 32.883Z" fill="white"/>
<path d="M54.017 79.883C54.4019 79.2163 55.3642 79.2163 55.7491 79.883L58.7802 85.133C59.1651 85.7997 58.684 86.633 57.9142 86.633H51.852C51.0822 86.633 50.6011 85.7996 50.986 85.133L54.017 79.883Z" fill="white"/>
<path d="M42.7266 74.7089L44.8958 73.2467L46.9367 74.5712L48.968 73.2598L51.0279 74.5958L52.9943 73.2549L52.229 72.1451L51.058 72.8959C50.326 72.4943 49.632 71.8271 48.9459 71.8189C48.2883 71.8189 47.6228 72.491 46.886 72.9106C46.4803 72.6336 46.0097 72.3402 45.5676 72.0041C45.1256 71.6681 44.7247 71.6763 44.2667 72.0041C43.4475 72.5828 42.5982 73.1205 41.6396 73.7565L38.9158 69.6846L40.8537 67.8437L43.0958 69.9633L44.6803 67.57L46.981 69.8453L48.5798 67.7552L50.4242 68.6388L49.7223 66.6717C49.2279 66.5323 48.5561 66.1078 48.0744 66.2717C47.5927 66.4356 47.2536 67.1864 46.7434 67.8159C46.3488 67.37 45.9669 66.9258 45.5724 66.4947C45.1446 66.0291 44.7025 66.0307 44.2747 66.4947C43.8468 66.9586 43.419 67.4487 42.8486 68.0929C42.3399 67.4864 41.9327 66.9897 41.5128 66.5028C41.0929 66.016 40.6699 66.0471 40.2278 66.5028C39.7033 67.0421 39.1582 67.5585 38.6179 68.0798C38.5395 68.1315 38.4547 68.1723 38.366 68.2011C38.2931 68.0503 38.2075 67.9175 38.16 67.7749C37.9144 67.1192 37.6846 66.4537 37.4184 65.7471L39.6177 62.3211C40.0931 62.7949 40.5209 63.2145 40.9345 63.6522C41.348 64.0899 41.7568 64.0915 42.1657 63.6522C42.6093 63.185 43.0435 62.7096 43.5822 62.131C44.0433 62.6326 44.4616 63.0719 44.8625 63.5293C45.3521 64.0866 45.8228 64.1341 46.3235 63.5407C46.7053 63.0899 47.1157 62.6605 47.5499 62.1769L48.9094 63.3981C48.7747 62.5687 48.7209 61.9458 48.5656 61.3507C48.3501 60.5311 47.5705 60.3082 46.9905 60.8983C46.5405 61.3524 46.1444 61.8638 45.6231 62.4637C45.0812 61.8589 44.6534 61.3802 44.2271 60.9016C43.8009 60.4229 43.3699 60.4098 42.9437 60.8884C42.5174 61.3671 42.1023 61.8638 41.5857 62.4654C41.0565 61.8736 40.6651 61.3999 40.2373 60.9639C39.6272 60.3409 39.2612 60.3819 38.7827 61.1081C38.1964 61.9982 37.6228 62.8981 37.0397 63.7948L36.7656 63.7571C36.5184 61.4802 36.2728 59.2033 36.0003 56.6789C37.1205 57.2543 37.9936 57.6755 38.8397 58.1542C39.4181 58.482 39.8792 58.423 40.3086 57.8968C40.6651 57.4591 41.0549 57.051 41.657 56.3723C42.1324 56.9936 42.5333 57.5329 42.9611 58.0427C43.3477 58.5001 43.7755 58.4951 44.1844 58.0427C44.6597 57.5296 45.1256 57.0116 45.639 56.4494L48.2534 58.0558V56.4445L45.5597 54.7839L43.5711 56.6608L41.5461 54.7233L39.342 56.8543L36.1175 55.1314C36.2522 54.7757 36.2934 54.4003 36.4946 54.1807C37.4564 53.1316 38.461 52.1251 39.6954 50.853C40.0883 51.3726 40.4623 51.8939 40.8648 52.3873C41.2958 52.9168 41.7553 52.8971 42.2084 52.3955C42.6204 51.9382 43.0419 51.4874 43.6345 50.8497L44.8689 52.325C45.3442 52.8988 45.8323 52.925 46.3314 52.3431C46.7148 51.8956 47.1094 51.4562 47.5388 50.9677C47.9365 51.3349 48.2407 51.6235 48.648 52.0038C48.7557 51.4185 48.8444 50.935 48.9443 50.3875L47.6259 49.14L45.6025 51.0694C44.9687 50.4579 44.3143 49.84 43.5727 49.1318L41.5287 51.0645L39.3991 49.0302L36.886 52.2349L36.4297 51.9071C37.0825 49.7072 37.7353 47.5057 38.4246 45.1862C39.3452 45.8287 40.0788 46.2992 40.7665 46.8254C41.3211 47.2565 41.798 47.2532 42.332 46.8057C42.6981 46.4992 43.1243 46.2582 43.568 45.95C44.0037 46.2484 44.4537 46.5238 44.8689 46.85C45.3553 47.2319 45.7942 47.2696 46.2949 46.8631C46.7275 46.5139 47.2155 46.2385 47.6814 45.9271L49.8332 47.0155C49.9916 46.5746 50.1358 46.1779 50.3086 45.7205L47.6244 44.3321L45.5993 45.6435L43.5711 44.3321L41.5112 45.6747L39.266 44.0354C39.5464 43.1158 40.0582 42.6634 40.9392 42.4568C42.6822 42.047 44.3935 41.4946 46.1682 40.9815C46.6229 41.2913 47.1189 41.5979 47.5832 41.965C48.0759 42.347 48.5196 42.365 49.0172 41.965C49.4339 41.6372 49.8918 41.3618 50.3783 41.0307L52.1878 41.9388L52.9801 40.811C52.1878 40.4028 51.4558 39.9783 50.6841 39.6504C50.4448 39.5488 50.0614 39.6308 49.8126 39.7652C49.3127 40.0616 48.8282 40.3849 48.3612 40.734C48.2946 40.7159 48.2297 40.7176 48.2027 40.6848C46.989 39.4586 45.6437 39.4587 44.1495 40.1012C43.2827 40.475 42.34 40.6569 41.4304 40.9209L41.272 40.7209C42.2766 39.8193 43.2194 38.8292 44.2984 38.0391C46.1592 36.6636 48.4009 35.9493 50.6873 36.0031C53.5648 36.0425 56.4439 36.0523 59.3229 36.0031C62.9832 35.9392 65.9035 37.5178 68.3183 40.2307C71.2117 43.4813 72.7994 47.3991 73.5172 51.6956C74.5661 57.9706 73.9751 64.0473 71.0706 69.7469C69.2865 73.2483 66.8178 76.0678 63.0735 77.3776C62.1035 77.7236 61.0885 77.9165 60.0629 77.9497C56.7639 78.0202 53.4618 78.0087 50.1612 77.9661C47.2916 77.9349 44.9006 76.712 42.7266 74.7089ZM72.6346 57.0051C72.6029 53.9282 72.1893 50.9104 71.1831 48.0089C70.0153 44.6403 68.3389 41.588 65.4535 39.4701C61.6506 36.6834 58.7985 36.7572 55.4012 40.116C54.1859 41.3143 53.1829 42.842 52.4001 44.3895C50.0344 49.0597 49.3895 54.1151 49.7397 59.3213C49.998 63.1981 50.8774 66.9143 52.7329 70.3288C53.9403 72.5516 55.4694 74.4876 57.7131 75.6744C58.8222 76.2612 59.9758 76.6874 61.2798 76.4235C64.4838 75.7777 66.8098 73.8171 68.6321 71.1517C71.5238 66.9225 72.5316 62.0982 72.6346 57.0084V57.0051Z" fill="white"/>
<path d="M55.0907 67.2864C57.8858 64.4128 58.3833 60.7409 58.3928 56.9428C58.4023 53.1447 57.7812 49.5449 55.116 46.6582C55.9289 44.919 56.9509 43.4518 58.4863 42.4388C60.4495 41.1422 62.7645 41.3798 64.6169 43.0617C66.7243 44.9796 67.8113 47.5188 68.4403 50.2563C69.7983 56.174 69.6509 62.0113 67.0364 67.5749C66.4148 68.8359 65.581 69.9721 64.5741 70.9304C62.5554 72.8975 59.8823 72.8664 57.7606 71.0271C56.5896 70.0124 55.7387 68.7437 55.0907 67.2864Z" fill="white"/>
<path d="M54.4331 65.8439C52.5317 59.9032 52.5443 54.0594 54.4252 48.1745C57.9333 51.0776 57.9634 62.6146 54.4331 65.8439Z" fill="white"/>
<defs>
<linearGradient id="paint0_linear_466_6802" x1="54.9223" y1="0.556641" x2="54.9223" y2="151.383" gradientUnits="userSpaceOnUse">
<stop stop-color="#4E4444"/>
<stop offset="1" stop-color="#130101"/>
</linearGradient>
<linearGradient id="paint1_linear_466_6802" x1="54.9223" y1="0.556641" x2="54.9223" y2="151.383" gradientUnits="userSpaceOnUse">
<stop stop-color="#323232"/>
<stop offset="1" stop-color="#FF6C6C" stop-opacity="0"/>
</linearGradient>
</defs>
</svg>
