<svg width="110" height="152" viewBox="0 0 110 152" fill="none" xmlns="http://www.w3.org/2000/svg">
<path d="M13.3831 53.383C13.3831 51.7261 14.7262 50.383 16.3831 50.383H93.3831C95.0399 50.383 96.3831 51.7261 96.3831 53.383V148.383C96.3831 150.04 95.0399 151.383 93.3831 151.383H16.3831C14.7262 151.383 13.3831 150.04 13.3831 148.383V53.383Z" fill="url(#paint0_linear_466_6807)"/>
<path d="M13.3831 120.383H96.3831V147.383H13.3831V120.383Z" fill="#7AAEDE" fill-opacity="0.22"/>
<path d="M47.1442 6.1612C51.44 1.86544 58.4048 1.86544 62.7006 6.16121L106.066 49.5267C110.362 53.8225 110.362 60.7873 106.066 65.083L62.7005 108.449C58.4048 112.744 51.44 112.744 47.1442 108.449L3.77871 65.083C-0.517052 60.7873 -0.517046 53.8225 3.77872 49.5267L47.1442 6.1612Z" fill="#2D2D2D"/>
<path d="M47.1442 7.1612C51.44 2.86544 58.4048 2.86544 62.7006 7.16121L106.066 50.5267C110.362 54.8225 110.362 61.7873 106.066 66.083L62.7005 109.449C58.4048 113.744 51.44 113.744 47.1442 109.449L3.77871 66.083C-0.517052 61.7873 -0.517046 54.8225 3.77872 50.5267L47.1442 7.1612Z" fill="#2D2D2D"/>
<path d="M47.144 3.77846C51.4397 -0.517304 58.4045 -0.517298 62.7003 3.77847L106.066 47.144C110.362 51.4397 110.362 58.4045 106.066 62.7003L62.7003 106.066C58.4045 110.362 51.4397 110.362 47.144 106.066L3.77846 62.7003C-0.517304 58.4045 -0.517298 51.4397 3.77847 47.144L47.144 3.77846Z" fill="url(#paint1_linear_466_6807)"/>
<path d="M49.9724 17.3327C52.706 14.5991 57.1382 14.5991 59.8719 17.3327L92.9725 50.4333C95.7061 53.167 95.7061 57.5991 92.9725 60.3328L59.8719 93.4334C57.1382 96.1671 52.7061 96.1671 49.9724 93.4334L16.8718 60.3328C14.1381 57.5991 14.1381 53.167 16.8718 50.4333L49.9724 17.3327Z" fill="#181818"/>
<path d="M40.6641 132.383L43.4786 126.007H45.2547L48.0783 132.383H46.202L43.9977 126.891H44.7082L42.504 132.383H40.6641ZM42.2034 131.144L42.6679 129.814H45.783L46.2475 131.144H42.2034Z" fill="white"/>
<path d="M48.5896 132.383V126.007H51.5043C52.0872 126.007 52.5882 126.101 53.0072 126.289C53.4323 126.478 53.7602 126.751 53.9909 127.109C54.2217 127.461 54.337 127.88 54.337 128.366C54.337 128.846 54.2217 129.262 53.9909 129.614C53.7602 129.96 53.4323 130.227 53.0072 130.416C52.5882 130.598 52.0872 130.689 51.5043 130.689H49.5915L50.3931 129.933V132.383H48.5896ZM52.5336 132.383L50.9487 130.06H52.8706L54.4645 132.383H52.5336ZM50.3931 130.124L49.5915 129.295H51.395C51.7715 129.295 52.0508 129.213 52.233 129.049C52.4212 128.885 52.5153 128.658 52.5153 128.366C52.5153 128.069 52.4212 127.838 52.233 127.674C52.0508 127.51 51.7715 127.428 51.395 127.428H49.5915L50.3931 126.599V130.124Z" fill="white"/>
<path d="M56.9897 128.475H59.95V129.824H56.9897V128.475ZM57.1172 130.989H60.4509V132.383H55.332V126.007H60.3325V127.401H57.1172V130.989Z" fill="white"/>
<path d="M60.6866 132.383L63.5011 126.007H65.2773L68.1009 132.383H66.2245L64.0203 126.891H64.7307L62.5265 132.383H60.6866ZM62.2259 131.144L62.6905 129.814H65.8055L66.2701 131.144H62.2259Z" fill="white"/>
<path d="M28.6628 142.15V135.774H31.2587C31.9388 135.774 32.5339 135.911 33.044 136.184C33.5601 136.451 33.9609 136.825 34.2463 137.304C34.5317 137.784 34.6744 138.337 34.6744 138.962C34.6744 139.588 34.5317 140.14 34.2463 140.62C33.9609 141.1 33.5601 141.476 33.044 141.749C32.5339 142.016 31.9388 142.15 31.2587 142.15H28.6628ZM29.3369 141.567H31.2223C31.787 141.567 32.2759 141.458 32.6888 141.239C33.1078 141.015 33.4326 140.708 33.6634 140.319C33.8941 139.925 34.0095 139.472 34.0095 138.962C34.0095 138.446 33.8941 137.994 33.6634 137.605C33.4326 137.216 33.1078 136.913 32.6888 136.694C32.2759 136.469 31.787 136.357 31.2223 136.357H29.3369V141.567Z" fill="white" fill-opacity="0.87"/>
<path d="M38.9752 142.205C38.4954 142.205 38.0491 142.126 37.6362 141.968C37.2294 141.804 36.8741 141.576 36.5705 141.285C36.273 140.987 36.0392 140.644 35.8692 140.256C35.7052 139.861 35.6232 139.43 35.6232 138.962C35.6232 138.495 35.7052 138.066 35.8692 137.678C36.0392 137.283 36.273 136.94 36.5705 136.649C36.8741 136.351 37.2294 136.123 37.6362 135.965C38.0431 135.802 38.4894 135.72 38.9752 135.72C39.4549 135.72 39.8981 135.802 40.305 135.965C40.7118 136.123 41.064 136.348 41.3616 136.639C41.6652 136.931 41.899 137.274 42.0629 137.669C42.2329 138.063 42.3179 138.495 42.3179 138.962C42.3179 139.43 42.2329 139.861 42.0629 140.256C41.899 140.65 41.6652 140.993 41.3616 141.285C41.064 141.576 40.7118 141.804 40.305 141.968C39.8981 142.126 39.4549 142.205 38.9752 142.205ZM38.9752 141.604C39.3577 141.604 39.7099 141.54 40.0317 141.412C40.3596 141.279 40.642 141.093 40.8788 140.857C41.1217 140.614 41.3099 140.334 41.4435 140.019C41.5771 139.697 41.6439 139.345 41.6439 138.962C41.6439 138.58 41.5771 138.23 41.4435 137.915C41.3099 137.593 41.1217 137.313 40.8788 137.077C40.642 136.834 40.3596 136.649 40.0317 136.521C39.7099 136.387 39.3577 136.321 38.9752 136.321C38.5926 136.321 38.2374 136.387 37.9095 136.521C37.5816 136.649 37.2962 136.834 37.0533 137.077C36.8164 137.313 36.6282 137.593 36.4885 137.915C36.355 138.23 36.2882 138.58 36.2882 138.962C36.2882 139.339 36.355 139.688 36.4885 140.01C36.6282 140.331 36.8164 140.614 37.0533 140.857C37.2962 141.093 37.5816 141.279 37.9095 141.412C38.2374 141.54 38.5926 141.604 38.9752 141.604Z" fill="white" fill-opacity="0.87"/>
<path d="M43.8287 142.15V135.774H44.3843L47.299 140.747H47.0076L49.895 135.774H50.4506V142.15H49.8039V136.785H49.9587L47.299 141.339H46.9803L44.3024 136.785H44.4754V142.15H43.8287Z" fill="white" fill-opacity="0.87"/>
<path d="M52.528 142.15V135.774H53.202V142.15H52.528Z" fill="white" fill-opacity="0.87"/>
<path d="M55.2765 142.15V135.774H55.8322L60.2315 141.312H59.9401V135.774H60.605V142.15H60.0494L55.6591 136.612H55.9506V142.15H55.2765Z" fill="white" fill-opacity="0.87"/>
<path d="M61.6659 142.15L64.5806 135.774H65.2455L68.1602 142.15H67.4497L64.7719 136.166H65.0451L62.3672 142.15H61.6659ZM62.8136 140.447L63.0139 139.9H66.7211L66.9215 140.447H62.8136Z" fill="white" fill-opacity="0.87"/>
<path d="M69.2149 142.15V135.774H71.8108C72.4909 135.774 73.086 135.911 73.5961 136.184C74.1122 136.451 74.513 136.825 74.7984 137.304C75.0838 137.784 75.2265 138.337 75.2265 138.962C75.2265 139.588 75.0838 140.14 74.7984 140.62C74.513 141.1 74.1122 141.476 73.5961 141.749C73.086 142.016 72.4909 142.15 71.8108 142.15H69.2149ZM69.889 141.567H71.7744C72.3391 141.567 72.828 141.458 73.2409 141.239C73.6599 141.015 73.9847 140.708 74.2155 140.319C74.4462 139.925 74.5616 139.472 74.5616 138.962C74.5616 138.446 74.4462 137.994 74.2155 137.605C73.9847 137.216 73.6599 136.913 73.2409 136.694C72.828 136.469 72.3391 136.357 71.7744 136.357H69.889V141.567Z" fill="white" fill-opacity="0.87"/>
<path d="M75.631 142.15L78.5457 135.774H79.2106L82.1253 142.15H81.4148L78.7369 136.166H79.0102L76.3323 142.15H75.631ZM76.7786 140.447L76.979 139.9H80.6861L80.8865 140.447H76.7786Z" fill="white" fill-opacity="0.87"/>
<path d="M54.017 32.883C54.4019 33.5497 55.3642 33.5497 55.7491 32.883L58.7802 27.633C59.1651 26.9663 58.684 26.133 57.9142 26.133H51.852C51.0822 26.133 50.6011 26.9663 50.986 27.633L54.017 32.883Z" fill="white"/>
<path d="M54.017 79.883C54.4019 79.2163 55.3642 79.2163 55.7491 79.883L58.7802 85.133C59.1651 85.7997 58.684 86.633 57.9142 86.633H51.852C51.0822 86.633 50.6011 85.7996 50.986 85.133L54.017 79.883Z" fill="white"/>
<path d="M42.7266 74.7089L44.8958 73.2467L46.9367 74.5712L48.9681 73.2598L51.028 74.5958L52.9944 73.2549L52.229 72.1451L51.0581 72.8959C50.326 72.4943 49.632 71.8271 48.9459 71.8189C48.2883 71.8189 47.6228 72.491 46.886 72.9106C46.4804 72.6336 46.0098 72.3402 45.5677 72.0041C45.1256 71.6681 44.7247 71.6763 44.2668 72.0041C43.4476 72.5828 42.5983 73.1205 41.6396 73.7565L38.9158 69.6846L40.8537 67.8437L43.0958 69.9633L44.6804 67.57L46.9811 69.8453L48.5799 67.7552L50.4243 68.6388L49.7223 66.6717C49.2279 66.5323 48.5561 66.1078 48.0744 66.2717C47.5927 66.4356 47.2536 67.1864 46.7434 67.8159C46.3489 67.37 45.967 66.9258 45.5724 66.4947C45.1446 66.0291 44.7025 66.0307 44.2747 66.4947C43.8469 66.9586 43.4191 67.4487 42.8486 68.0929C42.34 67.4864 41.9328 66.9897 41.5129 66.5028C41.093 66.016 40.6699 66.0471 40.2278 66.5028C39.7033 67.0421 39.1583 67.5585 38.6179 68.0798C38.5395 68.1315 38.4548 68.1723 38.366 68.2011C38.2931 68.0503 38.2075 67.9175 38.16 67.7749C37.9144 67.1192 37.6847 66.4537 37.4184 65.7471L39.6178 62.3211C40.0931 62.7949 40.521 63.2145 40.9345 63.6522C41.3481 64.0899 41.7569 64.0915 42.1657 63.6522C42.6094 63.185 43.0435 62.7096 43.5823 62.131C44.0434 62.6326 44.4617 63.0719 44.8626 63.5293C45.3522 64.0866 45.8228 64.1341 46.3235 63.5407C46.7054 63.0899 47.1158 62.6605 47.5499 62.1769L48.9095 63.3981C48.7748 62.5687 48.7209 61.9458 48.5656 61.3507C48.3501 60.5311 47.5705 60.3082 46.9906 60.8983C46.5406 61.3524 46.1444 61.8638 45.6231 62.4637C45.0812 61.8589 44.6534 61.3802 44.2272 60.9016C43.8009 60.4229 43.3699 60.4098 42.9437 60.8884C42.5175 61.3671 42.1023 61.8638 41.5858 62.4654C41.0565 61.8736 40.6651 61.3999 40.2373 60.9639C39.6273 60.3409 39.2613 60.3819 38.7827 61.1081C38.1965 61.9982 37.6229 62.8981 37.0397 63.7948L36.7656 63.7571C36.5184 61.4802 36.2728 59.2033 36.0003 56.6789C37.1206 57.2543 37.9936 57.6755 38.8398 58.1542C39.4181 58.482 39.8792 58.423 40.3086 57.8968C40.6652 57.4591 41.0549 57.051 41.6571 56.3723C42.1324 56.9936 42.5333 57.5329 42.9611 58.0427C43.3478 58.5001 43.7756 58.4951 44.1844 58.0427C44.6598 57.5296 45.1256 57.0116 45.639 56.4494L48.2535 58.0558V56.4445L45.5598 54.7839L43.5712 56.6608L41.5461 54.7233L39.3421 56.8543L36.1175 55.1314C36.2522 54.7757 36.2934 54.4003 36.4947 54.1807C37.4565 53.1316 38.4611 52.1251 39.6954 50.853C40.0884 51.3726 40.4623 51.8939 40.8648 52.3873C41.2958 52.9168 41.7553 52.8971 42.2085 52.3955C42.6205 51.9382 43.0419 51.4874 43.6346 50.8497L44.8689 52.325C45.3443 52.8988 45.8323 52.925 46.3314 52.3431C46.7149 51.8956 47.1094 51.4562 47.5388 50.9677C47.9366 51.3349 48.2408 51.6235 48.648 52.0038C48.7558 51.4185 48.8445 50.935 48.9443 50.3875L47.626 49.14L45.6025 51.0694C44.9687 50.4579 44.3143 49.84 43.5728 49.1318L41.5287 51.0645L39.3991 49.0302L36.8861 52.2349L36.4297 51.9071C37.0825 49.7072 37.7354 47.5057 38.4246 45.1862C39.3452 45.8287 40.0789 46.2992 40.7666 46.8254C41.3211 47.2565 41.7981 47.2532 42.3321 46.8057C42.6981 46.4992 43.1243 46.2582 43.568 45.95C44.0038 46.2484 44.4538 46.5238 44.8689 46.85C45.3554 47.2319 45.7943 47.2696 46.295 46.8631C46.7276 46.5139 47.2156 46.2385 47.6814 45.9271L49.8332 47.0155C49.9917 46.5746 50.1359 46.1779 50.3086 45.7205L47.6244 44.3321L45.5994 45.6435L43.5712 44.3321L41.5113 45.6747L39.266 44.0354C39.5465 43.1158 40.0583 42.6634 40.9393 42.4568C42.6823 42.047 44.3935 41.4946 46.1682 40.9815C46.623 41.2913 47.1189 41.5979 47.5832 41.965C48.076 42.347 48.5197 42.365 49.0172 41.965C49.4339 41.6372 49.8919 41.3618 50.3783 41.0307L52.1878 41.9388L52.9801 40.811C52.1878 40.4028 51.4558 39.9783 50.6841 39.6504C50.4449 39.5488 50.0614 39.6308 49.8126 39.7652C49.3127 40.0616 48.8283 40.3849 48.3612 40.734C48.2947 40.7159 48.2297 40.7176 48.2028 40.6848C46.989 39.4586 45.6437 39.4587 44.1495 40.1012C43.2828 40.475 42.34 40.6569 41.4305 40.9209L41.272 40.7209C42.2766 39.8193 43.2194 38.8292 44.2985 38.0391C46.1593 36.6636 48.4009 35.9493 50.6873 36.0031C53.5648 36.0425 56.4439 36.0523 59.323 36.0031C62.9833 35.9392 65.9035 37.5178 68.3184 40.2307C71.2117 43.4813 72.7994 47.3991 73.5172 51.6956C74.5662 57.9706 73.9751 64.0473 71.0707 69.7469C69.2865 73.2483 66.8178 76.0678 63.0736 77.3776C62.1035 77.7236 61.0886 77.9165 60.063 77.9497C56.764 78.0202 53.4618 78.0087 50.1612 77.9661C47.2917 77.9349 44.9006 76.712 42.7266 74.7089ZM72.6346 57.0051C72.6029 53.9282 72.1894 50.9104 71.1832 48.0089C70.0154 44.6403 68.339 41.588 65.4535 39.4701C61.6507 36.6834 58.7985 36.7572 55.4013 40.116C54.1859 41.3143 53.1829 42.842 52.4002 44.3895C50.0345 49.0597 49.3896 54.1151 49.7398 59.3213C49.998 63.1981 50.8774 66.9143 52.7329 70.3288C53.9403 72.5516 55.4694 74.4876 57.7131 75.6744C58.8223 76.2612 59.9758 76.6874 61.2799 76.4235C64.4838 75.7777 66.8099 73.8171 68.6321 71.1517C71.5239 66.9225 72.5316 62.0982 72.6346 57.0084V57.0051Z" fill="white"/>
<path d="M55.0907 67.2864C57.8858 64.4128 58.3834 60.7409 58.3929 56.9428C58.4024 53.1447 57.7812 49.5449 55.1161 46.6582C55.9289 44.919 56.9509 43.4518 58.4864 42.4388C60.4496 41.1422 62.7646 41.3798 64.6169 43.0617C66.7243 44.9796 67.8113 47.5188 68.4404 50.2563C69.7983 56.174 69.651 62.0113 67.0365 67.5749C66.4149 68.8359 65.5811 69.9721 64.5741 70.9304C62.5554 72.8975 59.8823 72.8664 57.7606 71.0271C56.5897 70.0124 55.7388 68.7437 55.0907 67.2864Z" fill="white"/>
<path d="M54.4331 65.8439C52.5317 59.9032 52.5444 54.0594 54.4252 48.1745C57.9334 51.0776 57.9635 62.6146 54.4331 65.8439Z" fill="white"/>
<defs>
<linearGradient id="paint0_linear_466_6807" x1="54.9223" y1="0.556641" x2="54.9223" y2="151.383" gradientUnits="userSpaceOnUse">
<stop stop-color="#44464E"/>
<stop offset="1" stop-color="#000A18"/>
</linearGradient>
<linearGradient id="paint1_linear_466_6807" x1="54.9223" y1="0.556641" x2="54.9223" y2="151.383" gradientUnits="userSpaceOnUse">
<stop stop-color="#323232"/>
<stop offset="1" stop-color="#0050CD" stop-opacity="0"/>
</linearGradient>
</defs>
</svg>
