<svg width="110" height="152" viewBox="0 0 110 152" fill="none" xmlns="http://www.w3.org/2000/svg">
<path d="M13.3831 53.383C13.3831 51.7261 14.7262 50.383 16.3831 50.383H93.3831C95.0399 50.383 96.3831 51.7261 96.3831 53.383V148.383C96.3831 150.04 95.0399 151.383 93.3831 151.383H16.3831C14.7262 151.383 13.3831 150.04 13.3831 148.383V53.383Z" fill="url(#paint0_linear_466_6804)"/>
<path d="M13.3831 120.383H96.3831V147.383H13.3831V120.383Z" fill="#DE7A7A" fill-opacity="0.22"/>
<path d="M47.1442 6.1612C51.44 1.86544 58.4048 1.86544 62.7006 6.16121L106.066 49.5267C110.362 53.8225 110.362 60.7873 106.066 65.083L62.7005 108.449C58.4048 112.744 51.44 112.744 47.1442 108.449L3.77871 65.083C-0.517052 60.7873 -0.517046 53.8225 3.77872 49.5267L47.1442 6.1612Z" fill="#2D2D2D"/>
<path d="M47.1442 7.1612C51.44 2.86544 58.4048 2.86544 62.7006 7.16121L106.066 50.5267C110.362 54.8225 110.362 61.7873 106.066 66.083L62.7005 109.449C58.4048 113.744 51.44 113.744 47.1442 109.449L3.77871 66.083C-0.517052 61.7873 -0.517046 54.8225 3.77872 50.5267L47.1442 7.1612Z" fill="#2D2D2D"/>
<path d="M47.144 3.77846C51.4397 -0.517304 58.4045 -0.517298 62.7003 3.77847L106.066 47.144C110.362 51.4397 110.362 58.4045 106.066 62.7003L62.7003 106.066C58.4045 110.362 51.4397 110.362 47.144 106.066L3.77846 62.7003C-0.517304 58.4045 -0.517298 51.4397 3.77847 47.144L47.144 3.77846Z" fill="url(#paint1_linear_466_6804)"/>
<path d="M49.9724 17.3327C52.706 14.5991 57.1382 14.5991 59.8719 17.3327L92.9725 50.4333C95.7061 53.167 95.7061 57.5991 92.9725 60.3328L59.8719 93.4334C57.1382 96.1671 52.7061 96.1671 49.9724 93.4334L16.8718 60.3328C14.1381 57.5991 14.1381 53.167 16.8718 50.4333L49.9724 17.3327Z" fill="#181818"/>
<path d="M24.117 132.383V126.007H27.1319C27.8363 126.007 28.4557 126.138 28.99 126.399C29.5244 126.66 29.9403 127.027 30.2379 127.501C30.5415 127.975 30.6933 128.539 30.6933 129.195C30.6933 129.845 30.5415 130.409 30.2379 130.889C29.9403 131.363 29.5244 131.73 28.99 131.991C28.4557 132.252 27.8363 132.383 27.1319 132.383H24.117ZM25.9205 130.944H27.059C27.4234 130.944 27.7391 130.877 28.0063 130.743C28.2796 130.604 28.4921 130.403 28.6439 130.142C28.7957 129.875 28.8716 129.559 28.8716 129.195C28.8716 128.825 28.7957 128.509 28.6439 128.248C28.4921 127.987 28.2796 127.789 28.0063 127.656C27.7391 127.516 27.4234 127.446 27.059 127.446H25.9205V130.944Z" fill="white"/>
<path d="M34.8574 132.51C34.3474 132.51 33.8768 132.429 33.4456 132.265C33.0145 132.101 32.638 131.87 32.3162 131.572C32.0004 131.269 31.7545 130.917 31.5784 130.516C31.4023 130.115 31.3142 129.675 31.3142 129.195C31.3142 128.715 31.4023 128.275 31.5784 127.874C31.7545 127.474 32.0004 127.124 32.3162 126.827C32.638 126.523 33.0145 126.289 33.4456 126.125C33.8768 125.962 34.3474 125.88 34.8574 125.88C35.3736 125.88 35.8442 125.962 36.2692 126.125C36.7004 126.289 37.0738 126.523 37.3896 126.827C37.7053 127.124 37.9513 127.474 38.1274 127.874C38.3095 128.275 38.4006 128.715 38.4006 129.195C38.4006 129.675 38.3095 130.118 38.1274 130.525C37.9513 130.926 37.7053 131.275 37.3896 131.572C37.0738 131.87 36.7004 132.101 36.2692 132.265C35.8442 132.429 35.3736 132.51 34.8574 132.51ZM34.8574 131.017C35.1003 131.017 35.325 130.974 35.5315 130.889C35.744 130.804 35.9261 130.683 36.078 130.525C36.2358 130.361 36.3573 130.167 36.4423 129.942C36.5334 129.717 36.5789 129.468 36.5789 129.195C36.5789 128.916 36.5334 128.667 36.4423 128.448C36.3573 128.223 36.2358 128.032 36.078 127.874C35.9261 127.71 35.744 127.586 35.5315 127.501C35.325 127.416 35.1003 127.373 34.8574 127.373C34.6145 127.373 34.3868 127.416 34.1743 127.501C33.9678 127.586 33.7857 127.71 33.6278 127.874C33.476 128.032 33.3545 128.223 33.2635 128.448C33.1784 128.667 33.1359 128.916 33.1359 129.195C33.1359 129.468 33.1784 129.717 33.2635 129.942C33.3545 130.167 33.476 130.361 33.6278 130.525C33.7857 130.683 33.9678 130.804 34.1743 130.889C34.3868 130.974 34.6145 131.017 34.8574 131.017Z" fill="white"/>
<path d="M39.3452 132.383V126.007H40.8299L43.4713 130.343H42.688L45.2566 126.007H46.7412L46.7594 132.383H45.1017L45.0835 128.53H45.3659L43.444 131.755H42.6424L40.6659 128.53H41.012V132.383H39.3452Z" fill="white"/>
<path d="M48.0356 132.383V126.007H49.839V132.383H48.0356Z" fill="white"/>
<path d="M51.1221 132.383V126.007H52.6068L56.1226 130.252H55.4213V126.007H57.1883V132.383H55.7036L52.1878 128.138H52.8891V132.383H51.1221Z" fill="white"/>
<path d="M57.6953 132.383L60.5098 126.007H62.286L65.1096 132.383H63.2333L61.029 126.891H61.7395L59.5352 132.383H57.6953ZM59.2347 131.144L59.6992 129.814H62.8143L63.2788 131.144H59.2347Z" fill="white"/>
<path d="M68.7108 132.51C68.2068 132.51 67.7392 132.432 67.3081 132.274C66.883 132.11 66.5126 131.879 66.1968 131.581C65.8872 131.284 65.6443 130.935 65.4682 130.534C65.2921 130.127 65.204 129.681 65.204 129.195C65.204 128.709 65.2921 128.266 65.4682 127.865C65.6443 127.458 65.8872 127.106 66.1968 126.809C66.5126 126.511 66.883 126.283 67.3081 126.125C67.7392 125.962 68.2068 125.88 68.7108 125.88C69.2998 125.88 69.825 125.983 70.2865 126.189C70.7541 126.396 71.1427 126.693 71.4524 127.082L70.3047 128.12C70.0983 127.877 69.8706 127.692 69.6216 127.565C69.3787 127.437 69.1055 127.373 68.8019 127.373C68.5407 127.373 68.3009 127.416 68.0823 127.501C67.8637 127.586 67.6754 127.71 67.5176 127.874C67.3658 128.032 67.2443 128.223 67.1532 128.448C67.0682 128.673 67.0257 128.922 67.0257 129.195C67.0257 129.468 67.0682 129.717 67.1532 129.942C67.2443 130.167 67.3658 130.361 67.5176 130.525C67.6754 130.683 67.8637 130.804 68.0823 130.889C68.3009 130.974 68.5407 131.017 68.8019 131.017C69.1055 131.017 69.3787 130.953 69.6216 130.825C69.8706 130.698 70.0983 130.513 70.3047 130.27L71.4524 131.308C71.1427 131.691 70.7541 131.988 70.2865 132.201C69.825 132.407 69.2998 132.51 68.7108 132.51ZM68.1552 134.533C68.0034 134.533 67.8455 134.514 67.6815 134.478C67.5236 134.441 67.3931 134.396 67.2899 134.341L67.5267 133.658C67.6056 133.695 67.6906 133.725 67.7817 133.749C67.8789 133.774 67.9821 133.786 68.0914 133.786C68.2554 133.786 68.3707 133.761 68.4375 133.713C68.5104 133.664 68.5468 133.604 68.5468 133.531C68.5468 133.458 68.5134 133.4 68.4466 133.358C68.3859 133.321 68.2827 133.303 68.1369 133.303H67.7999L68.0368 132.301H68.9385L68.811 132.848C69.0903 132.878 69.2907 132.966 69.4121 133.112C69.5336 133.257 69.5943 133.415 69.5943 133.585C69.5943 133.877 69.4637 134.108 69.2026 134.278C68.9415 134.448 68.5924 134.533 68.1552 134.533Z" fill="white"/>
<path d="M71.3847 132.383L74.1992 126.007H75.9753L78.7989 132.383H76.9226L74.7184 126.891H75.4288L73.2246 132.383H71.3847ZM72.924 131.144L73.3885 129.814H76.5036L76.9681 131.144H72.924ZM75.8023 125.552C75.6383 125.552 75.4926 125.524 75.3651 125.47C75.2436 125.409 75.1313 125.342 75.028 125.269C74.9248 125.196 74.8307 125.133 74.7457 125.078C74.6607 125.017 74.5757 124.987 74.4906 124.987C74.3692 124.987 74.272 125.029 74.1992 125.114C74.1263 125.199 74.0838 125.318 74.0717 125.47H73.2246C73.2367 125.026 73.343 124.674 73.5434 124.413C73.7498 124.152 74.0291 124.021 74.3813 124.021C74.5453 124.021 74.691 124.049 74.8185 124.103C74.9461 124.158 75.0584 124.225 75.1556 124.304C75.2588 124.377 75.3529 124.44 75.4379 124.495C75.529 124.55 75.614 124.577 75.693 124.577C75.8144 124.577 75.9116 124.538 75.9844 124.459C76.0634 124.374 76.1059 124.261 76.1119 124.122H76.959C76.953 124.547 76.8467 124.893 76.6402 125.16C76.4338 125.421 76.1544 125.552 75.8023 125.552Z" fill="white"/>
<path d="M82.4365 132.51C81.9265 132.51 81.4559 132.429 81.0247 132.265C80.5936 132.101 80.2171 131.87 79.8953 131.572C79.5795 131.269 79.3336 130.917 79.1575 130.516C78.9814 130.115 78.8934 129.675 78.8934 129.195C78.8934 128.715 78.9814 128.275 79.1575 127.874C79.3336 127.474 79.5795 127.124 79.8953 126.827C80.2171 126.523 80.5936 126.289 81.0247 126.125C81.4559 125.962 81.9265 125.88 82.4365 125.88C82.9527 125.88 83.4233 125.962 83.8484 126.125C84.2795 126.289 84.6529 126.523 84.9687 126.827C85.2844 127.124 85.5304 127.474 85.7065 127.874C85.8886 128.275 85.9797 128.715 85.9797 129.195C85.9797 129.675 85.8886 130.118 85.7065 130.525C85.5304 130.926 85.2844 131.275 84.9687 131.572C84.6529 131.87 84.2795 132.101 83.8484 132.265C83.4233 132.429 82.9527 132.51 82.4365 132.51ZM82.4365 131.017C82.6794 131.017 82.9041 130.974 83.1106 130.889C83.3231 130.804 83.5053 130.683 83.6571 130.525C83.8149 130.361 83.9364 130.167 84.0214 129.942C84.1125 129.717 84.158 129.468 84.158 129.195C84.158 128.916 84.1125 128.667 84.0214 128.448C83.9364 128.223 83.8149 128.032 83.6571 127.874C83.5053 127.71 83.3231 127.586 83.1106 127.501C82.9041 127.416 82.6794 127.373 82.4365 127.373C82.1936 127.373 81.9659 127.416 81.7534 127.501C81.547 127.586 81.3648 127.71 81.2069 127.874C81.0551 128.032 80.9337 128.223 80.8426 128.448C80.7576 128.667 80.715 128.916 80.715 129.195C80.715 129.468 80.7576 129.717 80.8426 129.942C80.9337 130.167 81.0551 130.361 81.2069 130.525C81.3648 130.683 81.547 130.804 81.7534 130.889C81.9659 130.974 82.1936 131.017 82.4365 131.017Z" fill="white"/>
<path d="M34.5735 142.15V135.774H35.2476V142.15H34.5735Z" fill="white" fill-opacity="0.87"/>
<path d="M37.3221 142.15V135.774H37.8777L42.2771 141.312H41.9856V135.774H42.6505V142.15H42.0949L37.7046 136.612H37.9961V142.15H37.3221Z" fill="white" fill-opacity="0.87"/>
<path d="M44.7316 142.15V135.774H45.4056V142.15H44.7316Z" fill="white" fill-opacity="0.87"/>
<path d="M50.2491 142.205C49.7694 142.205 49.3261 142.126 48.9192 141.968C48.5124 141.804 48.1602 141.576 47.8627 141.285C47.5651 140.993 47.3313 140.65 47.1613 140.256C46.9974 139.861 46.9154 139.43 46.9154 138.962C46.9154 138.495 46.9974 138.063 47.1613 137.669C47.3313 137.274 47.5651 136.931 47.8627 136.639C48.1663 136.348 48.5215 136.123 48.9284 135.965C49.3352 135.802 49.7785 135.72 50.2582 135.72C50.7197 135.72 51.1539 135.798 51.5607 135.956C51.9675 136.108 52.3106 136.339 52.5899 136.649L52.1618 137.077C51.9007 136.809 51.6123 136.618 51.2966 136.503C50.9808 136.381 50.6407 136.321 50.2764 136.321C49.8939 136.321 49.5386 136.387 49.2107 136.521C48.8828 136.649 48.5974 136.834 48.3545 137.077C48.1116 137.313 47.9204 137.593 47.7807 137.915C47.6471 138.23 47.5803 138.58 47.5803 138.962C47.5803 139.345 47.6471 139.697 47.7807 140.019C47.9204 140.334 48.1116 140.614 48.3545 140.857C48.5974 141.093 48.8828 141.279 49.2107 141.412C49.5386 141.54 49.8939 141.604 50.2764 141.604C50.6407 141.604 50.9808 141.543 51.2966 141.421C51.6123 141.3 51.9007 141.106 52.1618 140.838L52.5899 141.267C52.3106 141.576 51.9675 141.81 51.5607 141.968C51.1539 142.126 50.7166 142.205 50.2491 142.205Z" fill="white" fill-opacity="0.87"/>
<path d="M54.0268 142.15V135.774H54.7008V142.15H54.0268Z" fill="white" fill-opacity="0.87"/>
<path d="M55.7552 142.15L58.6699 135.774H59.3348L62.2495 142.15H61.5391L58.8612 136.166H59.1344L56.4565 142.15H55.7552ZM56.9029 140.447L57.1032 139.9H60.8104L61.0108 140.447H56.9029Z" fill="white" fill-opacity="0.87"/>
<path d="M63.3042 142.15V135.774H65.9001C66.5802 135.774 67.1753 135.911 67.6854 136.184C68.2015 136.451 68.6023 136.825 68.8877 137.304C69.1731 137.784 69.3158 138.337 69.3158 138.962C69.3158 139.588 69.1731 140.14 68.8877 140.62C68.6023 141.1 68.2015 141.476 67.6854 141.749C67.1753 142.016 66.5802 142.15 65.9001 142.15H63.3042ZM63.9783 141.567H65.8637C66.4284 141.567 66.9173 141.458 67.3302 141.239C67.7492 141.015 68.074 140.708 68.3048 140.319C68.5355 139.925 68.6509 139.472 68.6509 138.962C68.6509 138.446 68.5355 137.994 68.3048 137.605C68.074 137.216 67.7492 136.913 67.3302 136.694C66.9173 136.469 66.4284 136.357 65.8637 136.357H63.9783V141.567Z" fill="white" fill-opacity="0.87"/>
<path d="M69.7203 142.15L72.635 135.774H73.2999L76.2146 142.15H75.5041L72.8262 136.166H73.0995L70.4216 142.15H69.7203ZM70.8679 140.447L71.0683 139.9H74.7755L74.9758 140.447H70.8679Z" fill="white" fill-opacity="0.87"/>
<path d="M54.017 32.883C54.4019 33.5497 55.3642 33.5497 55.7491 32.883L58.7802 27.633C59.1651 26.9663 58.684 26.133 57.9142 26.133H51.852C51.0822 26.133 50.6011 26.9663 50.986 27.633L54.017 32.883Z" fill="white"/>
<path d="M54.017 79.883C54.4019 79.2163 55.3642 79.2163 55.7491 79.883L58.7802 85.133C59.1651 85.7997 58.684 86.633 57.9142 86.633H51.852C51.0822 86.633 50.6011 85.7996 50.986 85.133L54.017 79.883Z" fill="white"/>
<path d="M62.8424 51.2438V76.0003H47.1357V51.248H51.6815V52.7079L50.8894 52.8415L49.1169 54.764L48.7997 54.5975V72.5747L50.0605 73.1175L50.5558 74.3738H59.1173L60.7404 72.5233L61.0515 72.7289C61.1354 72.4122 61.2889 72.0977 61.293 71.7789C61.3135 69.6549 61.3217 67.5309 61.293 65.4048C61.2807 64.389 60.8182 64.1711 59.8726 64.7612V71.3677L59.5165 71.0922L57.8975 72.6076L58.227 72.9674H52.142L50.5415 71.0983L50.1526 71.4356V55.8929L51.6569 54.5584C51.7388 55.3357 51.8227 56.1314 51.9128 56.9765H58.053C58.1349 56.1828 58.2188 55.3768 58.3048 54.5461L59.8746 55.9854V62.485C60.6933 63.0073 61.25 62.8962 61.2623 62.1745C61.3012 59.7482 61.2439 57.3199 61.2132 54.8915C61.2132 54.8031 61.115 54.7167 61.0351 54.581L59.9463 54.1842C59.805 53.8223 59.6454 53.4193 59.4673 52.9628L58.272 52.6996V51.2603L62.8424 51.2438ZM54.7578 66.8523C55.1835 66.851 55.6048 66.765 55.9973 66.5992C56.3898 66.4334 56.7457 66.1911 57.0444 65.8864C57.3432 65.5816 57.5789 65.2205 57.738 64.8237C57.897 64.427 57.9763 64.0025 57.9711 63.5748C57.9487 62.7289 57.6027 61.9243 57.005 61.3281C56.4073 60.7319 55.604 60.3899 54.7618 60.3733C53.9016 60.37 53.0753 60.7099 52.4643 61.3183C51.8534 61.9266 51.5078 62.7538 51.5034 63.618C51.5034 64.0457 51.5878 64.4691 51.7518 64.8638C51.9158 65.2585 52.156 65.6166 52.4587 65.9174C52.7613 66.2182 53.1204 66.4558 53.515 66.6162C53.9096 66.7767 54.332 66.857 54.7578 66.8523Z" fill="white"/>
<path d="M26.3018 50.5776C26.2506 51.0115 26.179 51.4454 26.1503 51.8833C26.1258 52.274 26.1503 52.6667 26.1503 53.1869L32.0859 54.4865C32.3479 53.5118 32.5403 52.7963 32.7491 52.019L33.9566 53.773C33.5023 55.921 33.0247 58.1746 32.5239 60.5337L33.8932 60.7619C34.5072 58.0683 35.0864 55.4673 35.6739 52.8662L35.3198 52.9299L34.0672 51.0362L34.2984 50.8306L33.1379 50.2815C33.2198 49.8703 33.3099 49.4138 33.4265 48.8217L38.0113 49.8498C36.1856 57.9634 34.3824 65.9867 32.5505 74.1312L17.1221 70.6357C18.9355 62.5693 20.7387 54.5543 22.5767 46.3727L27.141 47.3782C27.0325 47.8902 26.9363 48.3405 26.8339 48.8361H25.5486L24.8159 49.9258L23.7208 50.0554L23.4261 49.9896C22.1019 55.8518 20.7776 61.7098 19.4391 67.6357C20.4215 68.0326 21.0028 68.5919 20.7715 69.7865L29.4067 71.7769L30.3073 70.611L31.7134 70.3499C31.9754 69.2478 32.2517 68.1004 32.5157 66.949C32.7798 65.7975 33.0254 64.6872 33.2833 63.548C33.4102 62.9929 33.5473 62.3616 32.7982 62.2259C32.0491 62.0902 31.9795 62.7646 31.8464 63.2951C31.4228 65.1621 31.0032 67.0292 30.6061 68.7954L28.5389 70.0662L22.458 68.6906L21.1665 66.6159C22.2636 61.7283 23.4016 56.664 24.5211 51.6859L26.312 50.6126L26.3018 50.5776ZM27.3252 63.3938C27.7511 63.3982 28.1737 63.3175 28.5684 63.1565C28.9631 62.9955 29.322 62.7574 29.6244 62.4559C29.9267 62.1545 30.1665 61.7957 30.3298 61.4004C30.493 61.0051 30.5765 60.5812 30.5754 60.1533C30.5612 59.3076 30.22 58.5007 29.6241 57.9032C29.0282 57.3057 28.2243 56.9645 27.3825 56.9518C26.9566 56.9417 26.533 57.0166 26.1361 57.1722C25.7393 57.3278 25.3771 57.5609 25.0706 57.8581C24.7641 58.1553 24.5194 58.5107 24.3506 58.9036C24.1818 59.2965 24.0922 59.7192 24.0872 60.1471C24.0811 60.5767 24.161 61.0031 24.3221 61.4011C24.4831 61.799 24.7222 62.1604 25.0249 62.4638C25.3277 62.7672 25.688 63.0064 26.0846 63.1672C26.4811 63.328 26.9058 63.4072 27.3334 63.4L27.3252 63.3938Z" fill="white"/>
<path d="M82.8023 47.3741L87.3727 46.346C89.2025 54.4823 91.0077 62.5015 92.8334 70.609L77.405 74.1168C75.5814 66.0113 73.7782 57.9923 71.9423 49.8395L76.4881 48.8114C76.6211 49.3563 76.7235 49.7757 76.8381 50.2507L75.6878 50.7833C75.6878 51.6736 75.4934 52.4837 74.4106 52.7079C74.4046 53.0667 74.4258 53.4255 74.4741 53.7812C74.9223 55.8188 75.4054 57.8463 75.8475 59.8839C76.0235 60.6961 76.4431 60.8647 77.4112 60.4556L75.9989 53.7832L77.1942 52.0149C77.3989 52.7778 77.6036 53.5077 77.8778 54.4823L83.8932 53.1808C83.8011 52.2884 83.7172 51.4783 83.6313 50.6496L85.4242 51.6489C86.5356 56.5837 87.6756 61.681 88.787 66.5974C88.3183 67.354 87.9458 67.9524 87.4914 68.6803L81.3696 70.0744L79.3372 68.7317C78.9565 67.0415 78.5185 65.1169 78.0907 63.1923C77.9761 62.6824 77.841 62.0923 77.1615 62.2444C76.9118 62.302 76.5475 62.8119 76.5904 63.0422C77.0878 65.4767 77.6588 67.8969 78.2135 70.3355L79.6667 70.5781L80.3994 71.7584L89.1247 69.8112C89.0469 68.7317 89.3437 67.9894 90.5227 67.6871C89.1841 61.7475 87.8619 55.8764 86.5561 50.0739L85.1765 49.9402L84.3578 48.7764L83.1564 48.871C83.0377 48.3899 82.9333 47.9375 82.8023 47.3741ZM82.612 63.3918C83.0376 63.3992 83.4604 63.3211 83.8556 63.1623C84.2508 63.0035 84.6104 62.767 84.9135 62.4667C85.2166 62.1665 85.457 61.8085 85.6206 61.4137C85.7842 61.0189 85.8677 60.5953 85.8663 60.1677C85.86 59.3212 85.5244 58.5107 84.9312 57.9094C84.3381 57.3081 83.5344 56.9637 82.6918 56.9498C82.2664 56.9405 81.8433 57.0155 81.4468 57.1706C81.0503 57.3257 80.6881 57.5578 80.3809 57.8536C80.0737 58.1494 79.8276 58.5031 79.6566 58.8945C79.4856 59.2859 79.393 59.7074 79.3842 60.1348C79.3785 60.5633 79.4579 60.9886 79.6178 61.3859C79.7777 61.7831 80.0149 62.1444 80.3155 62.4484C80.616 62.7525 80.974 62.9933 81.3683 63.1567C81.7626 63.3201 82.1854 63.4028 82.612 63.4V63.3918Z" fill="white"/>
<path d="M53.2657 55.496V42.8649H56.6612V55.496H53.2657Z" fill="white"/>
<path d="M30.4219 39.5668L33.8502 40.3564C32.9128 44.516 32.0081 48.5811 31.0564 52.7736L27.622 52.0149L30.4219 39.5668Z" fill="white"/>
<path d="M82.3438 52.0067L78.9114 52.786C77.974 48.6304 77.055 44.5612 76.1094 40.3605L79.5378 39.5668C80.4772 43.7367 81.3983 47.8121 82.3438 52.0067Z" fill="white"/>
<path d="M28.2728 42.3591C28.2462 42.4927 28.1869 42.8258 28.1173 43.1589C28.0922 43.2207 28.0569 43.2777 28.0129 43.3275C25.3009 43.6072 11.6921 40.0212 11.0003 38.8245C11.1333 38.1501 11.5263 37.9835 12.1874 38.1562C17.511 39.5483 22.8387 40.9424 28.2728 42.3591Z" fill="white"/>
<path d="M81.8874 43.3152L81.5968 42.0239C83.2547 41.7032 84.8921 41.4646 86.4906 41.0596C90.1747 40.1261 93.8445 39.1185 97.5164 38.1295C98.1427 37.9588 98.7445 37.7841 99.0003 38.8286C98.7956 39.0116 98.5602 39.3427 98.2553 39.4455C93.0265 41.1779 87.6699 42.4939 82.2354 43.381C82.1168 43.3765 81.9995 43.3543 81.8874 43.3152Z" fill="white"/>
<path d="M34.3967 44.5674C34.5666 43.8745 34.6628 43.4838 34.7569 43.0973L51.6549 44.2158V45.6778L34.3967 44.5674Z" fill="white"/>
<path d="M58.2618 45.688V44.2097L75.1945 43.0623L75.5548 44.5016L58.2618 45.688Z" fill="white"/>
<path d="M26.3202 50.6003L26.3652 50.5345L26.3038 50.5776L26.3202 50.6003Z" fill="white"/>
<path d="M54.7271 61.8722C55.19 61.8629 55.6377 62.0384 55.9719 62.3603C56.3061 62.6822 56.4996 63.1242 56.5098 63.5892C56.5093 64.0544 56.3311 64.5017 56.012 64.8388C55.6928 65.1758 55.2571 65.377 54.7946 65.4007C54.3137 65.4056 53.8504 65.2196 53.5054 64.883C53.1604 64.5464 52.9617 64.0866 52.9525 63.6036C52.9648 63.1394 53.1573 62.6984 53.4889 62.3749C53.8205 62.0514 54.2648 61.871 54.7271 61.8722Z" fill="white"/>
<path d="M29.114 60.2232C29.0938 60.6885 28.8941 61.1275 28.5571 61.4473C28.22 61.767 27.7723 61.9423 27.3088 61.936C26.8449 61.9298 26.4015 61.7431 26.0717 61.4153C25.7419 61.0874 25.5515 60.6439 25.5404 60.178C25.557 59.6955 25.7623 59.239 26.1117 58.9076C26.4612 58.5761 26.9266 58.3965 27.407 58.4076C27.8704 58.4289 28.3073 58.6301 28.6258 58.9688C28.9442 59.3076 29.1193 59.7573 29.114 60.2232Z" fill="white"/>
<path d="M82.659 58.4055C83.1228 58.4175 83.5642 58.6083 83.8919 58.9382C84.2196 59.2681 84.4084 59.712 84.4193 60.1779C84.4397 61.1464 83.5699 61.9627 82.5526 61.9298C82.1068 61.9154 81.6832 61.7309 81.368 61.4139C81.0528 61.0968 80.8697 60.6711 80.8559 60.2232C80.8509 59.9837 80.8941 59.7455 80.9828 59.5231C81.0716 59.3008 81.2041 59.0986 81.3725 58.9289C81.5409 58.7592 81.7416 58.6254 81.9627 58.5355C82.1837 58.4455 82.4206 58.4013 82.659 58.4055Z" fill="white"/>
<defs>
<linearGradient id="paint0_linear_466_6804" x1="54.9223" y1="0.556641" x2="54.9223" y2="151.383" gradientUnits="userSpaceOnUse">
<stop stop-color="#4E4444"/>
<stop offset="1" stop-color="#130101"/>
</linearGradient>
<linearGradient id="paint1_linear_466_6804" x1="54.9223" y1="0.556641" x2="54.9223" y2="151.383" gradientUnits="userSpaceOnUse">
<stop stop-color="#323232"/>
<stop offset="1" stop-color="#FF6C6C" stop-opacity="0"/>
</linearGradient>
</defs>
</svg>
