<svg width="110" height="152" viewBox="0 0 110 152" fill="none" xmlns="http://www.w3.org/2000/svg">
<path d="M13.3831 53.383C13.3831 51.7261 14.7262 50.383 16.3831 50.383H93.3831C95.0399 50.383 96.3831 51.7261 96.3831 53.383V148.383C96.3831 150.04 95.0399 151.383 93.3831 151.383H16.3831C14.7262 151.383 13.3831 150.04 13.3831 148.383V53.383Z" fill="url(#paint0_linear_466_6809)"/>
<path d="M13.3831 120.383H96.3831V147.383H13.3831V120.383Z" fill="#7AAEDE" fill-opacity="0.22"/>
<path d="M47.1442 6.1612C51.44 1.86544 58.4048 1.86544 62.7006 6.16121L106.066 49.5267C110.362 53.8225 110.362 60.7873 106.066 65.083L62.7005 108.449C58.4048 112.744 51.44 112.744 47.1442 108.449L3.77871 65.083C-0.517052 60.7873 -0.517046 53.8225 3.77872 49.5267L47.1442 6.1612Z" fill="#2D2D2D"/>
<path d="M47.1442 7.1612C51.44 2.86544 58.4048 2.86544 62.7006 7.16121L106.066 50.5267C110.362 54.8225 110.362 61.7873 106.066 66.083L62.7005 109.449C58.4048 113.744 51.44 113.744 47.1442 109.449L3.77871 66.083C-0.517052 61.7873 -0.517046 54.8225 3.77872 50.5267L47.1442 7.1612Z" fill="#2D2D2D"/>
<path d="M47.144 3.77846C51.4397 -0.517304 58.4045 -0.517298 62.7003 3.77847L106.066 47.144C110.362 51.4397 110.362 58.4045 106.066 62.7003L62.7003 106.066C58.4045 110.362 51.4397 110.362 47.144 106.066L3.77846 62.7003C-0.517304 58.4045 -0.517298 51.4397 3.77847 47.144L47.144 3.77846Z" fill="url(#paint1_linear_466_6809)"/>
<path d="M49.9724 17.3327C52.706 14.5991 57.1382 14.5991 59.8719 17.3327L92.9725 50.4333C95.7061 53.167 95.7061 57.5991 92.9725 60.3328L59.8719 93.4334C57.1382 96.1671 52.7061 96.1671 49.9724 93.4334L16.8718 60.3328C14.1381 57.5991 14.1381 53.167 16.8718 50.4333L49.9724 17.3327Z" fill="#181818"/>
<path d="M40.6641 132.383L43.4786 126.007H45.2547L48.0783 132.383H46.202L43.9977 126.891H44.7082L42.504 132.383H40.6641ZM42.2034 131.144L42.6679 129.814H45.783L46.2475 131.144H42.2034Z" fill="white"/>
<path d="M48.5896 132.383V126.007H51.5043C52.0872 126.007 52.5882 126.101 53.0072 126.289C53.4323 126.478 53.7602 126.751 53.9909 127.109C54.2217 127.461 54.337 127.88 54.337 128.366C54.337 128.846 54.2217 129.262 53.9909 129.614C53.7602 129.96 53.4323 130.227 53.0072 130.416C52.5882 130.598 52.0872 130.689 51.5043 130.689H49.5915L50.3931 129.933V132.383H48.5896ZM52.5336 132.383L50.9487 130.06H52.8706L54.4645 132.383H52.5336ZM50.3931 130.124L49.5915 129.295H51.395C51.7715 129.295 52.0508 129.213 52.233 129.049C52.4212 128.885 52.5153 128.658 52.5153 128.366C52.5153 128.069 52.4212 127.838 52.233 127.674C52.0508 127.51 51.7715 127.428 51.395 127.428H49.5915L50.3931 126.599V130.124Z" fill="white"/>
<path d="M56.9897 128.475H59.95V129.824H56.9897V128.475ZM57.1172 130.989H60.4509V132.383H55.332V126.007H60.3325V127.401H57.1172V130.989Z" fill="white"/>
<path d="M60.6866 132.383L63.5011 126.007H65.2773L68.1009 132.383H66.2245L64.0203 126.891H64.7307L62.5265 132.383H60.6866ZM62.2259 131.144L62.6905 129.814H65.8055L66.2701 131.144H62.2259Z" fill="white"/>
<path d="M28.6628 142.15V135.774H31.2587C31.9388 135.774 32.5339 135.911 33.044 136.184C33.5601 136.451 33.9609 136.825 34.2463 137.304C34.5317 137.784 34.6744 138.337 34.6744 138.962C34.6744 139.588 34.5317 140.14 34.2463 140.62C33.9609 141.1 33.5601 141.476 33.044 141.749C32.5339 142.016 31.9388 142.15 31.2587 142.15H28.6628ZM29.3369 141.567H31.2223C31.787 141.567 32.2759 141.458 32.6888 141.239C33.1078 141.015 33.4326 140.708 33.6634 140.319C33.8941 139.925 34.0095 139.472 34.0095 138.962C34.0095 138.446 33.8941 137.994 33.6634 137.605C33.4326 137.216 33.1078 136.913 32.6888 136.694C32.2759 136.469 31.787 136.357 31.2223 136.357H29.3369V141.567Z" fill="white" fill-opacity="0.87"/>
<path d="M38.9752 142.205C38.4954 142.205 38.0491 142.126 37.6362 141.968C37.2294 141.804 36.8741 141.576 36.5705 141.285C36.273 140.987 36.0392 140.644 35.8692 140.256C35.7052 139.861 35.6232 139.43 35.6232 138.962C35.6232 138.495 35.7052 138.066 35.8692 137.678C36.0392 137.283 36.273 136.94 36.5705 136.649C36.8741 136.351 37.2294 136.123 37.6362 135.965C38.0431 135.802 38.4894 135.72 38.9752 135.72C39.4549 135.72 39.8981 135.802 40.305 135.965C40.7118 136.123 41.064 136.348 41.3616 136.639C41.6652 136.931 41.899 137.274 42.0629 137.669C42.2329 138.063 42.3179 138.495 42.3179 138.962C42.3179 139.43 42.2329 139.861 42.0629 140.256C41.899 140.65 41.6652 140.993 41.3616 141.285C41.064 141.576 40.7118 141.804 40.305 141.968C39.8981 142.126 39.4549 142.205 38.9752 142.205ZM38.9752 141.604C39.3577 141.604 39.7099 141.54 40.0317 141.412C40.3596 141.279 40.642 141.093 40.8788 140.857C41.1217 140.614 41.3099 140.334 41.4435 140.019C41.5771 139.697 41.6439 139.345 41.6439 138.962C41.6439 138.58 41.5771 138.23 41.4435 137.915C41.3099 137.593 41.1217 137.313 40.8788 137.077C40.642 136.834 40.3596 136.649 40.0317 136.521C39.7099 136.387 39.3577 136.321 38.9752 136.321C38.5926 136.321 38.2374 136.387 37.9095 136.521C37.5816 136.649 37.2962 136.834 37.0533 137.077C36.8164 137.313 36.6282 137.593 36.4885 137.915C36.355 138.23 36.2882 138.58 36.2882 138.962C36.2882 139.339 36.355 139.688 36.4885 140.01C36.6282 140.331 36.8164 140.614 37.0533 140.857C37.2962 141.093 37.5816 141.279 37.9095 141.412C38.2374 141.54 38.5926 141.604 38.9752 141.604Z" fill="white" fill-opacity="0.87"/>
<path d="M43.8287 142.15V135.774H44.3843L47.299 140.747H47.0076L49.895 135.774H50.4506V142.15H49.8039V136.785H49.9587L47.299 141.339H46.9803L44.3024 136.785H44.4754V142.15H43.8287Z" fill="white" fill-opacity="0.87"/>
<path d="M52.528 142.15V135.774H53.202V142.15H52.528Z" fill="white" fill-opacity="0.87"/>
<path d="M55.2765 142.15V135.774H55.8322L60.2315 141.312H59.9401V135.774H60.605V142.15H60.0494L55.6591 136.612H55.9506V142.15H55.2765Z" fill="white" fill-opacity="0.87"/>
<path d="M61.6659 142.15L64.5806 135.774H65.2455L68.1602 142.15H67.4497L64.7719 136.166H65.0451L62.3672 142.15H61.6659ZM62.8136 140.447L63.0139 139.9H66.7211L66.9215 140.447H62.8136Z" fill="white" fill-opacity="0.87"/>
<path d="M69.2149 142.15V135.774H71.8108C72.4909 135.774 73.086 135.911 73.5961 136.184C74.1122 136.451 74.513 136.825 74.7984 137.304C75.0838 137.784 75.2265 138.337 75.2265 138.962C75.2265 139.588 75.0838 140.14 74.7984 140.62C74.513 141.1 74.1122 141.476 73.5961 141.749C73.086 142.016 72.4909 142.15 71.8108 142.15H69.2149ZM69.889 141.567H71.7744C72.3391 141.567 72.828 141.458 73.2409 141.239C73.6599 141.015 73.9847 140.708 74.2155 140.319C74.4462 139.925 74.5616 139.472 74.5616 138.962C74.5616 138.446 74.4462 137.994 74.2155 137.605C73.9847 137.216 73.6599 136.913 73.2409 136.694C72.828 136.469 72.3391 136.357 71.7744 136.357H69.889V141.567Z" fill="white" fill-opacity="0.87"/>
<path d="M75.631 142.15L78.5457 135.774H79.2106L82.1253 142.15H81.4148L78.7369 136.166H79.0102L76.3323 142.15H75.631ZM76.7786 140.447L76.979 139.9H80.6861L80.8865 140.447H76.7786Z" fill="white" fill-opacity="0.87"/>
<path d="M54.017 32.883C54.4019 33.5497 55.3642 33.5497 55.7491 32.883L58.7802 27.633C59.1651 26.9663 58.684 26.133 57.9142 26.133H51.852C51.0822 26.133 50.6011 26.9663 50.986 27.633L54.017 32.883Z" fill="white"/>
<path d="M54.017 79.883C54.4019 79.2163 55.3642 79.2163 55.7491 79.883L58.7802 85.133C59.1651 85.7997 58.684 86.633 57.9142 86.633H51.852C51.0822 86.633 50.6011 85.7996 50.986 85.133L54.017 79.883Z" fill="white"/>
<path d="M62.8424 51.2438V76.0003H47.1357V51.248H51.6815V52.7079L50.8894 52.8415L49.1169 54.764L48.7997 54.5975V72.5747L50.0605 73.1175L50.5558 74.3738H59.1173L60.7404 72.5233L61.0515 72.7289C61.1354 72.4122 61.2889 72.0977 61.293 71.7789C61.3135 69.6549 61.3217 67.5309 61.293 65.4048C61.2807 64.389 60.8182 64.1711 59.8726 64.7612V71.3677L59.5165 71.0922L57.8975 72.6076L58.227 72.9674H52.142L50.5415 71.0983L50.1526 71.4356V55.8929L51.6569 54.5584C51.7388 55.3357 51.8227 56.1314 51.9128 56.9765H58.053C58.1349 56.1828 58.2188 55.3768 58.3048 54.5461L59.8746 55.9854V62.485C60.6933 63.0073 61.25 62.8962 61.2623 62.1745C61.3012 59.7482 61.2439 57.3199 61.2132 54.8915C61.2132 54.8031 61.115 54.7167 61.0351 54.581L59.9463 54.1842C59.805 53.8223 59.6454 53.4193 59.4673 52.9628L58.272 52.6996V51.2603L62.8424 51.2438ZM54.7578 66.8523C55.1835 66.851 55.6048 66.765 55.9973 66.5992C56.3898 66.4334 56.7457 66.1911 57.0444 65.8864C57.3432 65.5816 57.5789 65.2205 57.738 64.8237C57.897 64.427 57.9763 64.0025 57.9711 63.5748C57.9487 62.7289 57.6027 61.9243 57.005 61.3281C56.4073 60.7319 55.604 60.3899 54.7618 60.3733C53.9016 60.37 53.0753 60.7099 52.4643 61.3183C51.8534 61.9266 51.5078 62.7538 51.5034 63.618C51.5034 64.0457 51.5878 64.4691 51.7518 64.8638C51.9158 65.2585 52.156 65.6166 52.4587 65.9174C52.7613 66.2182 53.1204 66.4558 53.515 66.6162C53.9096 66.7767 54.332 66.857 54.7578 66.8523Z" fill="white"/>
<path d="M26.3018 50.5776C26.2506 51.0115 26.179 51.4454 26.1503 51.8833C26.1258 52.274 26.1503 52.6667 26.1503 53.1869L32.0859 54.4865C32.3479 53.5118 32.5403 52.7963 32.7491 52.019L33.9566 53.773C33.5023 55.921 33.0247 58.1746 32.5239 60.5337L33.8932 60.7619C34.5072 58.0683 35.0864 55.4673 35.6739 52.8662L35.3198 52.9299L34.0672 51.0362L34.2984 50.8306L33.1379 50.2815C33.2198 49.8703 33.3099 49.4138 33.4265 48.8217L38.0113 49.8498C36.1856 57.9634 34.3824 65.9867 32.5505 74.1312L17.1221 70.6357C18.9355 62.5693 20.7387 54.5543 22.5767 46.3727L27.141 47.3782C27.0325 47.8902 26.9363 48.3405 26.8339 48.8361H25.5486L24.8159 49.9258L23.7208 50.0554L23.4261 49.9896C22.1019 55.8518 20.7776 61.7098 19.4391 67.6357C20.4215 68.0326 21.0028 68.5919 20.7715 69.7865L29.4067 71.7769L30.3073 70.611L31.7134 70.3499C31.9754 69.2478 32.2517 68.1004 32.5157 66.949C32.7798 65.7975 33.0254 64.6872 33.2833 63.548C33.4102 62.9929 33.5473 62.3616 32.7982 62.2259C32.0491 62.0902 31.9795 62.7646 31.8464 63.2951C31.4228 65.1621 31.0032 67.0292 30.6061 68.7954L28.5389 70.0662L22.458 68.6906L21.1665 66.6159C22.2636 61.7283 23.4016 56.664 24.5211 51.6859L26.312 50.6126L26.3018 50.5776ZM27.3252 63.3938C27.7511 63.3982 28.1737 63.3175 28.5684 63.1565C28.9631 62.9955 29.322 62.7574 29.6244 62.4559C29.9267 62.1545 30.1665 61.7957 30.3298 61.4004C30.493 61.0051 30.5765 60.5812 30.5754 60.1533C30.5612 59.3076 30.22 58.5007 29.6241 57.9032C29.0282 57.3057 28.2243 56.9645 27.3825 56.9518C26.9566 56.9417 26.533 57.0166 26.1361 57.1722C25.7393 57.3278 25.3771 57.5609 25.0706 57.8581C24.7641 58.1553 24.5194 58.5107 24.3506 58.9036C24.1818 59.2965 24.0922 59.7192 24.0872 60.1471C24.0811 60.5767 24.161 61.0031 24.3221 61.4011C24.4831 61.799 24.7222 62.1604 25.0249 62.4638C25.3277 62.7672 25.688 63.0064 26.0846 63.1672C26.4811 63.328 26.9058 63.4072 27.3334 63.4L27.3252 63.3938Z" fill="white"/>
<path d="M82.8023 47.3741L87.3727 46.346C89.2025 54.4823 91.0077 62.5015 92.8334 70.609L77.405 74.1168C75.5814 66.0113 73.7782 57.9923 71.9423 49.8395L76.4881 48.8114C76.6211 49.3563 76.7235 49.7757 76.8381 50.2507L75.6878 50.7833C75.6878 51.6736 75.4934 52.4837 74.4106 52.7079C74.4046 53.0667 74.4258 53.4255 74.4741 53.7812C74.9223 55.8188 75.4054 57.8463 75.8475 59.8839C76.0235 60.6961 76.4431 60.8647 77.4112 60.4556L75.9989 53.7832L77.1942 52.0149C77.3989 52.7778 77.6036 53.5077 77.8778 54.4823L83.8932 53.1808C83.8011 52.2884 83.7172 51.4783 83.6313 50.6496L85.4242 51.6489C86.5356 56.5837 87.6756 61.681 88.787 66.5974C88.3183 67.354 87.9458 67.9524 87.4914 68.6803L81.3696 70.0744L79.3372 68.7317C78.9565 67.0415 78.5185 65.1169 78.0907 63.1923C77.9761 62.6824 77.841 62.0923 77.1615 62.2444C76.9118 62.302 76.5475 62.8119 76.5904 63.0422C77.0878 65.4767 77.6588 67.8969 78.2135 70.3355L79.6667 70.5781L80.3994 71.7584L89.1247 69.8112C89.0469 68.7317 89.3437 67.9894 90.5227 67.6871C89.1841 61.7475 87.8619 55.8764 86.5561 50.0739L85.1765 49.9402L84.3578 48.7764L83.1564 48.871C83.0377 48.3899 82.9333 47.9375 82.8023 47.3741ZM82.612 63.3918C83.0376 63.3992 83.4604 63.3211 83.8556 63.1623C84.2508 63.0035 84.6104 62.767 84.9135 62.4667C85.2166 62.1665 85.457 61.8085 85.6206 61.4137C85.7842 61.0189 85.8677 60.5953 85.8663 60.1677C85.86 59.3212 85.5244 58.5107 84.9312 57.9094C84.3381 57.3081 83.5344 56.9637 82.6918 56.9498C82.2664 56.9405 81.8433 57.0155 81.4468 57.1706C81.0503 57.3257 80.6881 57.5578 80.3809 57.8536C80.0737 58.1494 79.8276 58.5031 79.6566 58.8945C79.4856 59.2859 79.393 59.7074 79.3842 60.1348C79.3785 60.5633 79.4579 60.9886 79.6178 61.3859C79.7777 61.7831 80.0149 62.1444 80.3155 62.4484C80.616 62.7525 80.974 62.9933 81.3683 63.1567C81.7626 63.3201 82.1854 63.4028 82.612 63.4V63.3918Z" fill="white"/>
<path d="M53.2657 55.496V42.8649H56.6612V55.496H53.2657Z" fill="white"/>
<path d="M30.4219 39.5668L33.8502 40.3564C32.9128 44.516 32.0081 48.5811 31.0564 52.7736L27.622 52.0149L30.4219 39.5668Z" fill="white"/>
<path d="M82.3438 52.0067L78.9114 52.786C77.974 48.6304 77.055 44.5612 76.1094 40.3605L79.5378 39.5668C80.4772 43.7367 81.3983 47.8121 82.3438 52.0067Z" fill="white"/>
<path d="M28.2728 42.3591C28.2462 42.4927 28.1869 42.8258 28.1173 43.1589C28.0922 43.2207 28.0569 43.2777 28.0129 43.3275C25.3009 43.6072 11.6921 40.0212 11.0003 38.8245C11.1333 38.1501 11.5263 37.9835 12.1874 38.1562C17.511 39.5483 22.8387 40.9424 28.2728 42.3591Z" fill="white"/>
<path d="M81.8874 43.3152L81.5968 42.0239C83.2547 41.7032 84.8921 41.4646 86.4906 41.0596C90.1747 40.1261 93.8445 39.1185 97.5164 38.1295C98.1427 37.9588 98.7445 37.7841 99.0003 38.8286C98.7956 39.0116 98.5602 39.3427 98.2553 39.4455C93.0265 41.1779 87.6699 42.4939 82.2354 43.381C82.1168 43.3765 81.9995 43.3543 81.8874 43.3152Z" fill="white"/>
<path d="M34.3967 44.5674C34.5666 43.8745 34.6628 43.4838 34.7569 43.0973L51.6549 44.2158V45.6778L34.3967 44.5674Z" fill="white"/>
<path d="M58.2618 45.688V44.2097L75.1945 43.0623L75.5548 44.5016L58.2618 45.688Z" fill="white"/>
<path d="M26.3202 50.6003L26.3652 50.5345L26.3038 50.5776L26.3202 50.6003Z" fill="white"/>
<path d="M54.7271 61.8722C55.19 61.8629 55.6377 62.0384 55.9719 62.3603C56.3061 62.6822 56.4996 63.1242 56.5098 63.5892C56.5093 64.0544 56.3311 64.5017 56.012 64.8388C55.6928 65.1758 55.2571 65.377 54.7946 65.4007C54.3137 65.4056 53.8504 65.2196 53.5054 64.883C53.1604 64.5464 52.9617 64.0866 52.9525 63.6036C52.9648 63.1394 53.1573 62.6984 53.4889 62.3749C53.8205 62.0514 54.2648 61.871 54.7271 61.8722Z" fill="white"/>
<path d="M29.114 60.2232C29.0938 60.6885 28.8941 61.1275 28.5571 61.4473C28.22 61.767 27.7723 61.9423 27.3088 61.936C26.8449 61.9298 26.4015 61.7431 26.0717 61.4153C25.7419 61.0874 25.5515 60.6439 25.5404 60.178C25.557 59.6955 25.7623 59.239 26.1117 58.9076C26.4612 58.5761 26.9266 58.3965 27.407 58.4076C27.8704 58.4289 28.3073 58.6301 28.6258 58.9688C28.9442 59.3076 29.1193 59.7573 29.114 60.2232Z" fill="white"/>
<path d="M82.659 58.4055C83.1228 58.4175 83.5642 58.6083 83.8919 58.9382C84.2196 59.2681 84.4084 59.712 84.4193 60.1779C84.4397 61.1464 83.5699 61.9627 82.5526 61.9298C82.1068 61.9154 81.6832 61.7309 81.368 61.4139C81.0528 61.0968 80.8697 60.6711 80.8559 60.2232C80.8509 59.9837 80.8941 59.7455 80.9828 59.5231C81.0716 59.3008 81.2041 59.0986 81.3725 58.9289C81.5409 58.7592 81.7416 58.6254 81.9627 58.5355C82.1837 58.4455 82.4206 58.4013 82.659 58.4055Z" fill="white"/>
<defs>
<linearGradient id="paint0_linear_466_6809" x1="54.9223" y1="0.556641" x2="54.9223" y2="151.383" gradientUnits="userSpaceOnUse">
<stop stop-color="#44464E"/>
<stop offset="1" stop-color="#000A18"/>
</linearGradient>
<linearGradient id="paint1_linear_466_6809" x1="54.9223" y1="0.556641" x2="54.9223" y2="151.383" gradientUnits="userSpaceOnUse">
<stop stop-color="#323232"/>
<stop offset="1" stop-color="#0050CD" stop-opacity="0"/>
</linearGradient>
</defs>
</svg>
