<svg width="110" height="152" viewBox="0 0 110 152" fill="none" xmlns="http://www.w3.org/2000/svg">
<path d="M13.3831 53.383C13.3831 51.7261 14.7262 50.383 16.3831 50.383H93.3831C95.0399 50.383 96.3831 51.7261 96.3831 53.383V148.383C96.3831 150.04 95.0399 151.383 93.3831 151.383H16.3831C14.7262 151.383 13.3831 150.04 13.3831 148.383V53.383Z" fill="url(#paint0_linear_466_6800)"/>
<path d="M13.3831 120.383H96.3831V147.383H13.3831V120.383Z" fill="#DE7A7A" fill-opacity="0.22"/>
<path d="M47.1442 6.1612C51.44 1.86544 58.4048 1.86544 62.7006 6.16121L106.066 49.5267C110.362 53.8225 110.362 60.7873 106.066 65.083L62.7005 108.449C58.4048 112.744 51.44 112.744 47.1442 108.449L3.77871 65.083C-0.517052 60.7873 -0.517046 53.8225 3.77872 49.5267L47.1442 6.1612Z" fill="#2D2D2D"/>
<path d="M47.1442 7.1612C51.44 2.86544 58.4048 2.86544 62.7006 7.16121L106.066 50.5267C110.362 54.8225 110.362 61.7873 106.066 66.083L62.7005 109.449C58.4048 113.744 51.44 113.744 47.1442 109.449L3.77871 66.083C-0.517052 61.7873 -0.517046 54.8225 3.77872 50.5267L47.1442 7.1612Z" fill="#2D2D2D"/>
<path d="M47.144 3.77846C51.4397 -0.517304 58.4045 -0.517298 62.7003 3.77847L106.066 47.144C110.362 51.4397 110.362 58.4045 106.066 62.7003L62.7003 106.066C58.4045 110.362 51.4397 110.362 47.144 106.066L3.77846 62.7003C-0.517304 58.4045 -0.517298 51.4397 3.77847 47.144L47.144 3.77846Z" fill="url(#paint1_linear_466_6800)"/>
<path d="M49.9724 17.3327C52.706 14.5991 57.1382 14.5991 59.8719 17.3327L92.9725 50.4333C95.7061 53.167 95.7061 57.5991 92.9725 60.3328L59.8719 93.4334C57.1382 96.1671 52.7061 96.1671 49.9724 93.4334L16.8718 60.3328C14.1381 57.5991 14.1381 53.167 16.8718 50.4333L49.9724 17.3327Z" fill="#181818"/>
<path d="M24.117 132.383V126.007H27.1319C27.8363 126.007 28.4557 126.138 28.99 126.399C29.5244 126.66 29.9403 127.027 30.2379 127.501C30.5415 127.975 30.6933 128.539 30.6933 129.195C30.6933 129.845 30.5415 130.409 30.2379 130.889C29.9403 131.363 29.5244 131.73 28.99 131.991C28.4557 132.252 27.8363 132.383 27.1319 132.383H24.117ZM25.9205 130.944H27.059C27.4234 130.944 27.7391 130.877 28.0063 130.743C28.2796 130.604 28.4921 130.403 28.6439 130.142C28.7957 129.875 28.8716 129.559 28.8716 129.195C28.8716 128.825 28.7957 128.509 28.6439 128.248C28.4921 127.987 28.2796 127.789 28.0063 127.656C27.7391 127.516 27.4234 127.446 27.059 127.446H25.9205V130.944Z" fill="white"/>
<path d="M34.8574 132.51C34.3474 132.51 33.8768 132.429 33.4456 132.265C33.0145 132.101 32.638 131.87 32.3162 131.572C32.0004 131.269 31.7545 130.917 31.5784 130.516C31.4023 130.115 31.3142 129.675 31.3142 129.195C31.3142 128.715 31.4023 128.275 31.5784 127.874C31.7545 127.474 32.0004 127.124 32.3162 126.827C32.638 126.523 33.0145 126.289 33.4456 126.125C33.8768 125.962 34.3474 125.88 34.8574 125.88C35.3736 125.88 35.8442 125.962 36.2692 126.125C36.7004 126.289 37.0738 126.523 37.3896 126.827C37.7053 127.124 37.9513 127.474 38.1274 127.874C38.3095 128.275 38.4006 128.715 38.4006 129.195C38.4006 129.675 38.3095 130.118 38.1274 130.525C37.9513 130.926 37.7053 131.275 37.3896 131.572C37.0738 131.87 36.7004 132.101 36.2692 132.265C35.8442 132.429 35.3736 132.51 34.8574 132.51ZM34.8574 131.017C35.1003 131.017 35.325 130.974 35.5315 130.889C35.744 130.804 35.9261 130.683 36.078 130.525C36.2358 130.361 36.3573 130.167 36.4423 129.942C36.5334 129.717 36.5789 129.468 36.5789 129.195C36.5789 128.916 36.5334 128.667 36.4423 128.448C36.3573 128.223 36.2358 128.032 36.078 127.874C35.9261 127.71 35.744 127.586 35.5315 127.501C35.325 127.416 35.1003 127.373 34.8574 127.373C34.6145 127.373 34.3868 127.416 34.1743 127.501C33.9678 127.586 33.7857 127.71 33.6278 127.874C33.476 128.032 33.3545 128.223 33.2635 128.448C33.1784 128.667 33.1359 128.916 33.1359 129.195C33.1359 129.468 33.1784 129.717 33.2635 129.942C33.3545 130.167 33.476 130.361 33.6278 130.525C33.7857 130.683 33.9678 130.804 34.1743 130.889C34.3868 130.974 34.6145 131.017 34.8574 131.017Z" fill="white"/>
<path d="M39.3452 132.383V126.007H40.8299L43.4713 130.343H42.688L45.2566 126.007H46.7412L46.7594 132.383H45.1017L45.0835 128.53H45.3659L43.444 131.755H42.6424L40.6659 128.53H41.012V132.383H39.3452Z" fill="white"/>
<path d="M48.0356 132.383V126.007H49.839V132.383H48.0356Z" fill="white"/>
<path d="M51.1221 132.383V126.007H52.6068L56.1226 130.252H55.4213V126.007H57.1883V132.383H55.7036L52.1878 128.138H52.8891V132.383H51.1221Z" fill="white"/>
<path d="M57.6953 132.383L60.5098 126.007H62.286L65.1096 132.383H63.2333L61.029 126.891H61.7395L59.5352 132.383H57.6953ZM59.2347 131.144L59.6992 129.814H62.8143L63.2788 131.144H59.2347Z" fill="white"/>
<path d="M68.7108 132.51C68.2068 132.51 67.7392 132.432 67.3081 132.274C66.883 132.11 66.5126 131.879 66.1968 131.581C65.8872 131.284 65.6443 130.935 65.4682 130.534C65.2921 130.127 65.204 129.681 65.204 129.195C65.204 128.709 65.2921 128.266 65.4682 127.865C65.6443 127.458 65.8872 127.106 66.1968 126.809C66.5126 126.511 66.883 126.283 67.3081 126.125C67.7392 125.962 68.2068 125.88 68.7108 125.88C69.2998 125.88 69.825 125.983 70.2865 126.189C70.7541 126.396 71.1427 126.693 71.4524 127.082L70.3047 128.12C70.0983 127.877 69.8706 127.692 69.6216 127.565C69.3787 127.437 69.1055 127.373 68.8019 127.373C68.5407 127.373 68.3009 127.416 68.0823 127.501C67.8637 127.586 67.6754 127.71 67.5176 127.874C67.3658 128.032 67.2443 128.223 67.1532 128.448C67.0682 128.673 67.0257 128.922 67.0257 129.195C67.0257 129.468 67.0682 129.717 67.1532 129.942C67.2443 130.167 67.3658 130.361 67.5176 130.525C67.6754 130.683 67.8637 130.804 68.0823 130.889C68.3009 130.974 68.5407 131.017 68.8019 131.017C69.1055 131.017 69.3787 130.953 69.6216 130.825C69.8706 130.698 70.0983 130.513 70.3047 130.27L71.4524 131.308C71.1427 131.691 70.7541 131.988 70.2865 132.201C69.825 132.407 69.2998 132.51 68.7108 132.51ZM68.1552 134.533C68.0034 134.533 67.8455 134.514 67.6815 134.478C67.5236 134.441 67.3931 134.396 67.2899 134.341L67.5267 133.658C67.6056 133.695 67.6906 133.725 67.7817 133.749C67.8789 133.774 67.9821 133.786 68.0914 133.786C68.2554 133.786 68.3707 133.761 68.4375 133.713C68.5104 133.664 68.5468 133.604 68.5468 133.531C68.5468 133.458 68.5134 133.4 68.4466 133.358C68.3859 133.321 68.2827 133.303 68.1369 133.303H67.7999L68.0368 132.301H68.9385L68.811 132.848C69.0903 132.878 69.2907 132.966 69.4121 133.112C69.5336 133.257 69.5943 133.415 69.5943 133.585C69.5943 133.877 69.4637 134.108 69.2026 134.278C68.9415 134.448 68.5924 134.533 68.1552 134.533Z" fill="white"/>
<path d="M71.3847 132.383L74.1992 126.007H75.9753L78.7989 132.383H76.9226L74.7184 126.891H75.4288L73.2246 132.383H71.3847ZM72.924 131.144L73.3885 129.814H76.5036L76.9681 131.144H72.924ZM75.8023 125.552C75.6383 125.552 75.4926 125.524 75.3651 125.47C75.2436 125.409 75.1313 125.342 75.028 125.269C74.9248 125.196 74.8307 125.133 74.7457 125.078C74.6607 125.017 74.5757 124.987 74.4906 124.987C74.3692 124.987 74.272 125.029 74.1992 125.114C74.1263 125.199 74.0838 125.318 74.0717 125.47H73.2246C73.2367 125.026 73.343 124.674 73.5434 124.413C73.7498 124.152 74.0291 124.021 74.3813 124.021C74.5453 124.021 74.691 124.049 74.8185 124.103C74.9461 124.158 75.0584 124.225 75.1556 124.304C75.2588 124.377 75.3529 124.44 75.4379 124.495C75.529 124.55 75.614 124.577 75.693 124.577C75.8144 124.577 75.9116 124.538 75.9844 124.459C76.0634 124.374 76.1059 124.261 76.1119 124.122H76.959C76.953 124.547 76.8467 124.893 76.6402 125.16C76.4338 125.421 76.1544 125.552 75.8023 125.552Z" fill="white"/>
<path d="M82.4365 132.51C81.9265 132.51 81.4559 132.429 81.0247 132.265C80.5936 132.101 80.2171 131.87 79.8953 131.572C79.5795 131.269 79.3336 130.917 79.1575 130.516C78.9814 130.115 78.8934 129.675 78.8934 129.195C78.8934 128.715 78.9814 128.275 79.1575 127.874C79.3336 127.474 79.5795 127.124 79.8953 126.827C80.2171 126.523 80.5936 126.289 81.0247 126.125C81.4559 125.962 81.9265 125.88 82.4365 125.88C82.9527 125.88 83.4233 125.962 83.8484 126.125C84.2795 126.289 84.6529 126.523 84.9687 126.827C85.2844 127.124 85.5304 127.474 85.7065 127.874C85.8886 128.275 85.9797 128.715 85.9797 129.195C85.9797 129.675 85.8886 130.118 85.7065 130.525C85.5304 130.926 85.2844 131.275 84.9687 131.572C84.6529 131.87 84.2795 132.101 83.8484 132.265C83.4233 132.429 82.9527 132.51 82.4365 132.51ZM82.4365 131.017C82.6794 131.017 82.9041 130.974 83.1106 130.889C83.3231 130.804 83.5053 130.683 83.6571 130.525C83.8149 130.361 83.9364 130.167 84.0214 129.942C84.1125 129.717 84.158 129.468 84.158 129.195C84.158 128.916 84.1125 128.667 84.0214 128.448C83.9364 128.223 83.8149 128.032 83.6571 127.874C83.5053 127.71 83.3231 127.586 83.1106 127.501C82.9041 127.416 82.6794 127.373 82.4365 127.373C82.1936 127.373 81.9659 127.416 81.7534 127.501C81.547 127.586 81.3648 127.71 81.2069 127.874C81.0551 128.032 80.9337 128.223 80.8426 128.448C80.7576 128.667 80.715 128.916 80.715 129.195C80.715 129.468 80.7576 129.717 80.8426 129.942C80.9337 130.167 81.0551 130.361 81.2069 130.525C81.3648 130.683 81.547 130.804 81.7534 130.889C81.9659 130.974 82.1936 131.017 82.4365 131.017Z" fill="white"/>
<path d="M34.5735 142.15V135.774H35.2476V142.15H34.5735Z" fill="white" fill-opacity="0.87"/>
<path d="M37.3221 142.15V135.774H37.8777L42.2771 141.312H41.9856V135.774H42.6505V142.15H42.0949L37.7046 136.612H37.9961V142.15H37.3221Z" fill="white" fill-opacity="0.87"/>
<path d="M44.7316 142.15V135.774H45.4056V142.15H44.7316Z" fill="white" fill-opacity="0.87"/>
<path d="M50.2491 142.205C49.7694 142.205 49.3261 142.126 48.9192 141.968C48.5124 141.804 48.1602 141.576 47.8627 141.285C47.5651 140.993 47.3313 140.65 47.1613 140.256C46.9974 139.861 46.9154 139.43 46.9154 138.962C46.9154 138.495 46.9974 138.063 47.1613 137.669C47.3313 137.274 47.5651 136.931 47.8627 136.639C48.1663 136.348 48.5215 136.123 48.9284 135.965C49.3352 135.802 49.7785 135.72 50.2582 135.72C50.7197 135.72 51.1539 135.798 51.5607 135.956C51.9675 136.108 52.3106 136.339 52.5899 136.649L52.1618 137.077C51.9007 136.809 51.6123 136.618 51.2966 136.503C50.9808 136.381 50.6407 136.321 50.2764 136.321C49.8939 136.321 49.5386 136.387 49.2107 136.521C48.8828 136.649 48.5974 136.834 48.3545 137.077C48.1116 137.313 47.9204 137.593 47.7807 137.915C47.6471 138.23 47.5803 138.58 47.5803 138.962C47.5803 139.345 47.6471 139.697 47.7807 140.019C47.9204 140.334 48.1116 140.614 48.3545 140.857C48.5974 141.093 48.8828 141.279 49.2107 141.412C49.5386 141.54 49.8939 141.604 50.2764 141.604C50.6407 141.604 50.9808 141.543 51.2966 141.421C51.6123 141.3 51.9007 141.106 52.1618 140.838L52.5899 141.267C52.3106 141.576 51.9675 141.81 51.5607 141.968C51.1539 142.126 50.7166 142.205 50.2491 142.205Z" fill="white" fill-opacity="0.87"/>
<path d="M54.0268 142.15V135.774H54.7008V142.15H54.0268Z" fill="white" fill-opacity="0.87"/>
<path d="M55.7552 142.15L58.6699 135.774H59.3348L62.2495 142.15H61.5391L58.8612 136.166H59.1344L56.4565 142.15H55.7552ZM56.9029 140.447L57.1032 139.9H60.8104L61.0108 140.447H56.9029Z" fill="white" fill-opacity="0.87"/>
<path d="M63.3042 142.15V135.774H65.9001C66.5802 135.774 67.1753 135.911 67.6854 136.184C68.2015 136.451 68.6023 136.825 68.8877 137.304C69.1731 137.784 69.3158 138.337 69.3158 138.962C69.3158 139.588 69.1731 140.14 68.8877 140.62C68.6023 141.1 68.2015 141.476 67.6854 141.749C67.1753 142.016 66.5802 142.15 65.9001 142.15H63.3042ZM63.9783 141.567H65.8637C66.4284 141.567 66.9173 141.458 67.3302 141.239C67.7492 141.015 68.074 140.708 68.3048 140.319C68.5355 139.925 68.6509 139.472 68.6509 138.962C68.6509 138.446 68.5355 137.994 68.3048 137.605C68.074 137.216 67.7492 136.913 67.3302 136.694C66.9173 136.469 66.4284 136.357 65.8637 136.357H63.9783V141.567Z" fill="white" fill-opacity="0.87"/>
<path d="M69.7203 142.15L72.635 135.774H73.2999L76.2146 142.15H75.5041L72.8262 136.166H73.0995L70.4216 142.15H69.7203ZM70.8679 140.447L71.0683 139.9H74.7755L74.9758 140.447H70.8679Z" fill="white" fill-opacity="0.87"/>
<path d="M54.017 32.883C54.4019 33.5497 55.3642 33.5497 55.7491 32.883L58.7802 27.633C59.1651 26.9663 58.684 26.133 57.9142 26.133H51.852C51.0822 26.133 50.6011 26.9663 50.986 27.633L54.017 32.883Z" fill="white"/>
<path d="M54.017 79.883C54.4019 79.2163 55.3642 79.2163 55.7491 79.883L58.7802 85.133C59.1651 85.7997 58.684 86.633 57.9142 86.633H51.852C51.0822 86.633 50.6011 85.7996 50.986 85.133L54.017 79.883Z" fill="white"/>
<path d="M38.2733 55.4395L38.3155 55.1415C38.7173 54.1597 39.1192 53.1769 39.521 52.193L39.6536 51.4171C39.7289 50.8724 39.8043 50.3309 39.8751 49.811C40.6632 49.586 45.7412 49.603 46.3785 49.8374C46.4026 50.1058 46.4087 50.41 46.4584 50.7064C46.5352 51.1549 46.6437 51.5971 46.7387 52.041C46.7583 52.1387 46.7794 52.2365 46.8004 52.3327C46.8087 52.484 46.833 52.6338 46.8728 52.7796C47.2811 53.8271 47.7 54.8715 48.1159 55.9159L48.1626 56.3675C48.1521 56.5475 48.1325 56.7259 48.1325 56.906C48.1536 61.637 48.1742 66.3685 48.1943 71.1006C48.1943 71.9013 48.2334 72.7331 47.4258 73.1924V74.181C48.256 74.9941 48.4203 76.0664 47.8929 77.0006H38.2733C37.8981 76.3659 38.0639 75.7188 38.0639 75.0795L38.6757 74.3036L38.6877 74.2911C38.9695 74.0428 38.8791 73.7511 38.7736 73.4593L38.7359 73.1645C38.415 72.7284 38.0036 72.3886 38.0232 71.7213C38.1769 66.2914 37.7429 60.8585 38.2733 55.4395ZM41.1499 50.8818C40.6737 52.1915 40.2729 53.3507 39.8269 54.4929C39.4713 55.4053 39.1307 56.3085 39.1307 57.3172C39.1307 61.8672 39.1187 66.4171 39.1217 70.9733C39.1447 71.25 39.1952 71.5235 39.2724 71.7896C40.5773 72.0115 46.4539 71.9215 47.0958 71.6592C47.1376 71.3764 47.1647 71.0915 47.1772 70.8057C47.1772 66.5397 47.1606 62.2707 47.1907 58.0093C47.1998 56.5459 46.7763 55.216 46.2083 53.9218C45.8587 53.121 45.4805 52.3358 45.4549 51.4296C45.429 51.2443 45.383 51.0627 45.3177 50.888L41.1499 50.8818Z" fill="white"/>
<path d="M42.9068 37.0146C43.4719 36.9292 43.7431 37.2396 43.9073 37.5795C44.4151 38.6363 44.9621 39.6884 45.3343 40.7964C46.1058 43.0543 46.3891 45.4131 46.4599 47.7983C46.478 48.3492 46.4855 48.3492 46.1405 48.8551C44.0942 48.8287 41.9982 48.9202 39.8751 48.7961C39.6445 47.9457 39.7515 47.1744 39.8585 46.4202C40.068 44.9398 40.2593 43.45 40.5938 41.996C40.9345 40.4096 41.5424 38.897 42.39 37.5267C42.541 37.3346 42.7146 37.1626 42.9068 37.0146Z" fill="white"/>
<path d="M50.2842 55.4395L50.3249 55.1415C50.7267 54.1597 51.1316 53.1769 51.5394 52.193L51.672 51.4171C51.7474 50.8724 51.8227 50.3309 51.8935 49.811C52.6816 49.586 57.7596 49.603 58.397 49.8374C58.4196 50.1058 58.4256 50.41 58.4768 50.7064C58.5537 51.1549 58.6622 51.5971 58.7556 52.041C58.7767 52.1387 58.7978 52.2365 58.8174 52.3327C58.8254 52.4841 58.8502 52.634 58.8912 52.7796C59.2981 53.8271 59.7185 54.8715 60.1328 55.9159L60.1796 56.3675C60.169 56.5475 60.1494 56.7259 60.1509 56.906C60.17 61.637 60.1906 66.3685 60.2127 71.1006C60.2127 71.9013 60.2519 72.7331 59.4427 73.1924V74.181C60.273 74.9941 60.4372 76.0664 59.9098 77.0006H50.2797C49.9045 76.3659 50.0703 75.7188 50.0703 75.0795L50.673 74.3036L50.6866 74.2911C50.9683 74.0428 50.8779 73.7511 50.7724 73.4593L50.7348 73.1645C50.4123 72.7284 50.0025 72.3886 50.0205 71.7213C50.1848 66.2914 49.7523 60.8585 50.2842 55.4395ZM53.1608 50.8818C52.6831 52.1915 52.2823 53.3507 51.8378 54.4929C51.4822 55.4053 51.1416 56.3085 51.1416 57.3172C51.1416 61.8672 51.1281 66.4171 51.1311 70.9733C51.1556 71.2498 51.2061 71.5231 51.2817 71.7896C52.5867 72.0115 58.4648 71.9215 59.1067 71.6592C59.1477 71.3763 59.1749 71.0914 59.1881 70.8057C59.1881 66.5397 59.1715 62.2707 59.2001 58.0093C59.2107 56.5459 58.7857 55.216 58.2192 53.9218C57.8696 53.121 57.4899 52.3358 57.4658 51.4296C57.4391 51.2445 57.3932 51.0629 57.3286 50.888L53.1608 50.8818Z" fill="white"/>
<path d="M54.9147 37.0146C55.4813 36.9292 55.7525 37.2396 55.9152 37.5795C56.4245 38.6363 56.97 39.6884 57.3437 40.7964C58.1152 43.0543 58.3985 45.4131 58.4693 47.7983C58.4859 48.3492 58.4934 48.3492 58.1483 48.8551C56.1021 48.8287 54.0076 48.9202 51.8845 48.7961C51.6539 47.9457 51.7609 47.1744 51.8664 46.4202C52.0774 44.9398 52.2672 43.45 52.6017 41.996C52.9429 40.4095 53.5513 38.8969 54.3994 37.5267C54.5495 37.3343 54.7227 37.1623 54.9147 37.0146Z" fill="white"/>
<path d="M62.0706 55.4395L62.1128 55.1415C62.5146 54.1597 62.919 53.1769 63.3258 52.193L63.4584 51.4171C63.5337 50.8724 63.6091 50.3309 63.6799 49.811C64.4695 49.586 69.546 49.603 70.1834 49.8374C70.2075 50.1058 70.2135 50.41 70.2632 50.7064C70.3401 51.1549 70.4486 51.5971 70.5435 52.041C70.5646 52.1387 70.5842 52.2365 70.6053 52.3327C70.6136 52.484 70.6378 52.6338 70.6776 52.7796C71.086 53.8271 71.5048 54.8715 71.9207 55.9159L71.9674 56.3675C71.9569 56.5475 71.9373 56.7259 71.9373 56.906C71.9584 61.637 71.979 66.3685 71.9991 71.1006C71.9991 71.9013 72.0383 72.7331 71.2306 73.1924V74.181C72.0609 74.9941 72.2251 76.0664 71.6977 77.0006H62.0661C61.6909 76.3659 61.8567 75.7188 61.8567 75.0795L62.4684 74.3036L62.4805 74.2911C62.7622 74.0428 62.6718 73.7511 62.5679 73.4593L62.5287 73.1645C62.2077 72.7284 61.7964 72.3886 61.816 71.7213C61.9727 66.2914 61.5402 60.8585 62.0706 55.4395ZM64.9487 50.8818C64.471 52.1915 64.0702 53.3507 63.6257 54.4929C63.2685 55.4053 62.928 56.3085 62.9295 57.3172C62.9295 61.8672 62.9159 66.4171 62.919 70.9733C62.942 71.25 62.9925 71.5235 63.0696 71.7896C64.3746 72.0115 70.2512 71.9215 70.8946 71.6592C70.9351 71.3763 70.9617 71.0914 70.9744 70.8057C70.9744 66.5397 70.9579 62.2707 70.988 58.0093C70.997 56.5459 70.5736 55.216 70.0071 53.9218C69.656 53.121 69.2778 52.3358 69.2537 51.4296C69.2278 51.2443 69.1818 51.0627 69.1165 50.888L64.9487 50.8818Z" fill="white"/>
<path d="M66.7026 37.0146C67.2677 36.9292 67.5389 37.2396 67.7031 37.5795C68.2109 38.6363 68.7579 39.6884 69.1301 40.7964C69.9016 43.0543 70.1849 45.4131 70.2557 47.7983C70.2738 48.3492 70.2813 48.3492 69.9362 48.8551C67.89 48.8287 65.794 48.9202 63.6709 48.7961C63.4418 47.9457 63.5473 47.1744 63.6543 46.4202C63.8637 44.9398 64.0551 43.45 64.3896 41.996C64.7302 40.4093 65.3386 38.8966 66.1873 37.5267C66.3374 37.3343 66.5106 37.1623 66.7026 37.0146Z" fill="white"/>
<defs>
<linearGradient id="paint0_linear_466_6800" x1="54.9223" y1="0.556641" x2="54.9223" y2="151.383" gradientUnits="userSpaceOnUse">
<stop stop-color="#4E4444"/>
<stop offset="1" stop-color="#130101"/>
</linearGradient>
<linearGradient id="paint1_linear_466_6800" x1="54.9223" y1="0.556641" x2="54.9223" y2="151.383" gradientUnits="userSpaceOnUse">
<stop stop-color="#323232"/>
<stop offset="1" stop-color="#FF6C6C" stop-opacity="0"/>
</linearGradient>
</defs>
</svg>
