<svg width="110" height="152" viewBox="0 0 110 152" fill="none" xmlns="http://www.w3.org/2000/svg">
<path d="M13.3831 53.383C13.3831 51.7261 14.7262 50.383 16.3831 50.383H93.3831C95.0399 50.383 96.3831 51.7261 96.3831 53.383V148.383C96.3831 150.04 95.0399 151.383 93.3831 151.383H16.3831C14.7262 151.383 13.3831 150.04 13.3831 148.383V53.383Z" fill="url(#paint0_linear_466_6805)"/>
<path d="M13.3831 120.383H96.3831V147.383H13.3831V120.383Z" fill="#7AAEDE" fill-opacity="0.22"/>
<path d="M47.1442 6.1612C51.44 1.86544 58.4048 1.86544 62.7006 6.16121L106.066 49.5267C110.362 53.8225 110.362 60.7873 106.066 65.083L62.7005 108.449C58.4048 112.744 51.44 112.744 47.1442 108.449L3.77871 65.083C-0.517052 60.7873 -0.517046 53.8225 3.77872 49.5267L47.1442 6.1612Z" fill="#2D2D2D"/>
<path d="M47.1442 7.1612C51.44 2.86544 58.4048 2.86544 62.7006 7.16121L106.066 50.5267C110.362 54.8225 110.362 61.7873 106.066 66.083L62.7005 109.449C58.4048 113.744 51.44 113.744 47.1442 109.449L3.77871 66.083C-0.517052 61.7873 -0.517046 54.8225 3.77872 50.5267L47.1442 7.1612Z" fill="#2D2D2D"/>
<path d="M47.144 3.77846C51.4397 -0.517304 58.4045 -0.517298 62.7003 3.77847L106.066 47.144C110.362 51.4397 110.362 58.4045 106.066 62.7003L62.7003 106.066C58.4045 110.362 51.4397 110.362 47.144 106.066L3.77846 62.7003C-0.517304 58.4045 -0.517298 51.4397 3.77847 47.144L47.144 3.77846Z" fill="url(#paint1_linear_466_6805)"/>
<path d="M49.9724 17.3327C52.706 14.5991 57.1382 14.5991 59.8719 17.3327L92.9725 50.4333C95.7061 53.167 95.7061 57.5991 92.9725 60.3328L59.8719 93.4334C57.1382 96.1671 52.7061 96.1671 49.9724 93.4334L16.8718 60.3328C14.1381 57.5991 14.1381 53.167 16.8718 50.4333L49.9724 17.3327Z" fill="#181818"/>
<path d="M40.6641 132.383L43.4786 126.007H45.2547L48.0783 132.383H46.202L43.9977 126.891H44.7082L42.504 132.383H40.6641ZM42.2034 131.144L42.6679 129.814H45.783L46.2475 131.144H42.2034Z" fill="white"/>
<path d="M48.5896 132.383V126.007H51.5043C52.0872 126.007 52.5882 126.101 53.0072 126.289C53.4323 126.478 53.7602 126.751 53.9909 127.109C54.2217 127.461 54.337 127.88 54.337 128.366C54.337 128.846 54.2217 129.262 53.9909 129.614C53.7602 129.96 53.4323 130.227 53.0072 130.416C52.5882 130.598 52.0872 130.689 51.5043 130.689H49.5915L50.3931 129.933V132.383H48.5896ZM52.5336 132.383L50.9487 130.06H52.8706L54.4645 132.383H52.5336ZM50.3931 130.124L49.5915 129.295H51.395C51.7715 129.295 52.0508 129.213 52.233 129.049C52.4212 128.885 52.5153 128.658 52.5153 128.366C52.5153 128.069 52.4212 127.838 52.233 127.674C52.0508 127.51 51.7715 127.428 51.395 127.428H49.5915L50.3931 126.599V130.124Z" fill="white"/>
<path d="M56.9897 128.475H59.95V129.824H56.9897V128.475ZM57.1172 130.989H60.4509V132.383H55.332V126.007H60.3325V127.401H57.1172V130.989Z" fill="white"/>
<path d="M60.6866 132.383L63.5011 126.007H65.2773L68.1009 132.383H66.2245L64.0203 126.891H64.7307L62.5265 132.383H60.6866ZM62.2259 131.144L62.6905 129.814H65.8055L66.2701 131.144H62.2259Z" fill="white"/>
<path d="M28.6628 142.15V135.774H31.2587C31.9388 135.774 32.5339 135.911 33.044 136.184C33.5601 136.451 33.9609 136.825 34.2463 137.304C34.5317 137.784 34.6744 138.337 34.6744 138.962C34.6744 139.588 34.5317 140.14 34.2463 140.62C33.9609 141.1 33.5601 141.476 33.044 141.749C32.5339 142.016 31.9388 142.15 31.2587 142.15H28.6628ZM29.3369 141.567H31.2223C31.787 141.567 32.2759 141.458 32.6888 141.239C33.1078 141.015 33.4326 140.708 33.6634 140.319C33.8941 139.925 34.0095 139.472 34.0095 138.962C34.0095 138.446 33.8941 137.994 33.6634 137.605C33.4326 137.216 33.1078 136.913 32.6888 136.694C32.2759 136.469 31.787 136.357 31.2223 136.357H29.3369V141.567Z" fill="white" fill-opacity="0.87"/>
<path d="M38.9752 142.205C38.4954 142.205 38.0491 142.126 37.6362 141.968C37.2294 141.804 36.8741 141.576 36.5705 141.285C36.273 140.987 36.0392 140.644 35.8692 140.256C35.7052 139.861 35.6232 139.43 35.6232 138.962C35.6232 138.495 35.7052 138.066 35.8692 137.678C36.0392 137.283 36.273 136.94 36.5705 136.649C36.8741 136.351 37.2294 136.123 37.6362 135.965C38.0431 135.802 38.4894 135.72 38.9752 135.72C39.4549 135.72 39.8981 135.802 40.305 135.965C40.7118 136.123 41.064 136.348 41.3616 136.639C41.6652 136.931 41.899 137.274 42.0629 137.669C42.2329 138.063 42.3179 138.495 42.3179 138.962C42.3179 139.43 42.2329 139.861 42.0629 140.256C41.899 140.65 41.6652 140.993 41.3616 141.285C41.064 141.576 40.7118 141.804 40.305 141.968C39.8981 142.126 39.4549 142.205 38.9752 142.205ZM38.9752 141.604C39.3577 141.604 39.7099 141.54 40.0317 141.412C40.3596 141.279 40.642 141.093 40.8788 140.857C41.1217 140.614 41.3099 140.334 41.4435 140.019C41.5771 139.697 41.6439 139.345 41.6439 138.962C41.6439 138.58 41.5771 138.23 41.4435 137.915C41.3099 137.593 41.1217 137.313 40.8788 137.077C40.642 136.834 40.3596 136.649 40.0317 136.521C39.7099 136.387 39.3577 136.321 38.9752 136.321C38.5926 136.321 38.2374 136.387 37.9095 136.521C37.5816 136.649 37.2962 136.834 37.0533 137.077C36.8164 137.313 36.6282 137.593 36.4885 137.915C36.355 138.23 36.2882 138.58 36.2882 138.962C36.2882 139.339 36.355 139.688 36.4885 140.01C36.6282 140.331 36.8164 140.614 37.0533 140.857C37.2962 141.093 37.5816 141.279 37.9095 141.412C38.2374 141.54 38.5926 141.604 38.9752 141.604Z" fill="white" fill-opacity="0.87"/>
<path d="M43.8287 142.15V135.774H44.3843L47.299 140.747H47.0076L49.895 135.774H50.4506V142.15H49.8039V136.785H49.9587L47.299 141.339H46.9803L44.3024 136.785H44.4754V142.15H43.8287Z" fill="white" fill-opacity="0.87"/>
<path d="M52.528 142.15V135.774H53.202V142.15H52.528Z" fill="white" fill-opacity="0.87"/>
<path d="M55.2765 142.15V135.774H55.8322L60.2315 141.312H59.9401V135.774H60.605V142.15H60.0494L55.6591 136.612H55.9506V142.15H55.2765Z" fill="white" fill-opacity="0.87"/>
<path d="M61.6659 142.15L64.5806 135.774H65.2455L68.1602 142.15H67.4497L64.7719 136.166H65.0451L62.3672 142.15H61.6659ZM62.8136 140.447L63.0139 139.9H66.7211L66.9215 140.447H62.8136Z" fill="white" fill-opacity="0.87"/>
<path d="M69.2149 142.15V135.774H71.8108C72.4909 135.774 73.086 135.911 73.5961 136.184C74.1122 136.451 74.513 136.825 74.7984 137.304C75.0838 137.784 75.2265 138.337 75.2265 138.962C75.2265 139.588 75.0838 140.14 74.7984 140.62C74.513 141.1 74.1122 141.476 73.5961 141.749C73.086 142.016 72.4909 142.15 71.8108 142.15H69.2149ZM69.889 141.567H71.7744C72.3391 141.567 72.828 141.458 73.2409 141.239C73.6599 141.015 73.9847 140.708 74.2155 140.319C74.4462 139.925 74.5616 139.472 74.5616 138.962C74.5616 138.446 74.4462 137.994 74.2155 137.605C73.9847 137.216 73.6599 136.913 73.2409 136.694C72.828 136.469 72.3391 136.357 71.7744 136.357H69.889V141.567Z" fill="white" fill-opacity="0.87"/>
<path d="M75.631 142.15L78.5457 135.774H79.2106L82.1253 142.15H81.4148L78.7369 136.166H79.0102L76.3323 142.15H75.631ZM76.7786 140.447L76.979 139.9H80.6861L80.8865 140.447H76.7786Z" fill="white" fill-opacity="0.87"/>
<path d="M54.017 79.883C54.4019 79.2163 55.3642 79.2163 55.7491 79.883L58.7802 85.133C59.1651 85.7997 58.684 86.633 57.9142 86.633H51.852C51.0822 86.633 50.6011 85.7996 50.986 85.133L54.017 79.883Z" fill="white"/>
<path d="M38.2733 55.4395L38.3155 55.1415C38.7173 54.1597 39.1191 53.1769 39.5209 52.193L39.6535 51.4171C39.7289 50.8724 39.8042 50.3309 39.875 49.811C40.6631 49.586 45.7411 49.603 46.3785 49.8374C46.4026 50.1058 46.4086 50.41 46.4584 50.7064C46.5352 51.1549 46.6437 51.5971 46.7386 52.041C46.7582 52.1387 46.7793 52.2365 46.8004 52.3327C46.8087 52.484 46.8329 52.6338 46.8727 52.7796C47.2811 53.8271 47.7 54.8715 48.1159 55.9159L48.1626 56.3675C48.152 56.5475 48.1324 56.7259 48.1324 56.906C48.1535 61.637 48.1741 66.3685 48.1942 71.1006C48.1942 71.9013 48.2334 72.7331 47.4257 73.1924V74.181C48.256 74.9941 48.4202 76.0664 47.8929 77.0006H38.2733C37.8981 76.3659 38.0638 75.7188 38.0638 75.0795L38.6756 74.3036L38.6877 74.2911C38.9694 74.0428 38.879 73.7511 38.7736 73.4593L38.7359 73.1645C38.4149 72.7284 38.0036 72.3886 38.0232 71.7213C38.1768 66.2914 37.7429 60.8585 38.2733 55.4395ZM41.1498 50.8818C40.6737 52.1915 40.2728 53.3507 39.8268 54.4929C39.4712 55.4053 39.1307 56.3085 39.1307 57.3172C39.1307 61.8672 39.1186 66.4171 39.1216 70.9733C39.1447 71.25 39.1952 71.5235 39.2723 71.7896C40.5772 72.0115 46.4538 71.9215 47.0957 71.6592C47.1375 71.3764 47.1647 71.0915 47.1771 70.8057C47.1771 66.5397 47.1605 62.2707 47.1907 58.0093C47.1997 56.5459 46.7763 55.216 46.2082 53.9218C45.8586 53.121 45.4804 52.3358 45.4548 51.4296C45.4289 51.2443 45.3829 51.0627 45.3177 50.888L41.1498 50.8818Z" fill="white"/>
<path d="M42.9068 37.0146C43.4718 36.9292 43.7431 37.2396 43.9073 37.5795C44.4151 38.6363 44.9621 39.6884 45.3343 40.7964C46.1058 43.0543 46.389 45.4131 46.4599 47.7983C46.4779 48.3492 46.4855 48.3492 46.1404 48.8551C44.0942 48.8287 41.9982 48.9202 39.875 48.7961C39.6445 47.9457 39.7515 47.1744 39.8585 46.4202C40.0679 44.9398 40.2593 43.45 40.5938 41.996C40.9345 40.4096 41.5424 38.897 42.3899 37.5267C42.541 37.3346 42.7146 37.1626 42.9068 37.0146Z" fill="white"/>
<path d="M50.2842 55.4395L50.3249 55.1415C50.7267 54.1597 51.1315 53.1769 51.5394 52.193L51.672 51.4171C51.7473 50.8724 51.8227 50.3309 51.8935 49.811C52.6816 49.586 57.7595 49.603 58.3969 49.8374C58.4195 50.1058 58.4256 50.41 58.4768 50.7064C58.5536 51.1549 58.6621 51.5971 58.7556 52.041C58.7767 52.1387 58.7978 52.2365 58.8173 52.3327C58.8254 52.4841 58.8501 52.634 58.8912 52.7796C59.298 53.8271 59.7184 54.8715 60.1328 55.9159L60.1795 56.3675C60.169 56.5475 60.1494 56.7259 60.1509 56.906C60.17 61.637 60.1906 66.3685 60.2127 71.1006C60.2127 71.9013 60.2518 72.7331 59.4427 73.1924V74.181C60.2729 74.9941 60.4372 76.0664 59.9098 77.0006H50.2797C49.9045 76.3659 50.0702 75.7188 50.0702 75.0795L50.673 74.3036L50.6865 74.2911C50.9683 74.0428 50.8779 73.7511 50.7724 73.4593L50.7347 73.1645C50.4123 72.7284 50.0024 72.3886 50.0205 71.7213C50.1847 66.2914 49.7523 60.8585 50.2842 55.4395ZM53.1607 50.8818C52.6831 52.1915 52.2822 53.3507 51.8377 54.4929C51.4821 55.4053 51.1416 56.3085 51.1416 57.3172C51.1416 61.8672 51.128 66.4171 51.131 70.9733C51.1555 71.2498 51.206 71.5231 51.2817 71.7896C52.5866 72.0115 58.4647 71.9215 59.1067 71.6592C59.1477 71.3763 59.1748 71.0914 59.188 70.8057C59.188 66.5397 59.1714 62.2707 59.2001 58.0093C59.2106 56.5459 58.7857 55.216 58.2191 53.9218C57.8695 53.121 57.4898 52.3358 57.4657 51.4296C57.4391 51.2445 57.3931 51.0629 57.3286 50.888L53.1607 50.8818Z" fill="white"/>
<path d="M54.9147 37.0146C55.4812 36.9292 55.7525 37.2396 55.9152 37.5795C56.4245 38.6363 56.97 39.6884 57.3437 40.7964C58.1152 43.0543 58.3984 45.4131 58.4693 47.7983C58.4858 48.3492 58.4934 48.3492 58.1483 48.8551C56.102 48.8287 54.0076 48.9202 51.8844 48.7961C51.6539 47.9457 51.7609 47.1744 51.8664 46.4202C52.0773 44.9398 52.2672 43.45 52.6017 41.996C52.9429 40.4095 53.5513 38.8969 54.3993 37.5267C54.5495 37.3343 54.7226 37.1623 54.9147 37.0146Z" fill="white"/>
<path d="M62.0706 55.4395L62.1128 55.1415C62.5146 54.1597 62.9189 53.1769 63.3258 52.193L63.4584 51.4171C63.5337 50.8724 63.609 50.3309 63.6799 49.811C64.4694 49.586 69.5459 49.603 70.1833 49.8374C70.2074 50.1058 70.2135 50.41 70.2632 50.7064C70.34 51.1549 70.4485 51.5971 70.5435 52.041C70.5646 52.1387 70.5841 52.2365 70.6052 52.3327C70.6135 52.484 70.6378 52.6338 70.6776 52.7796C71.0859 53.8271 71.5048 54.8715 71.9207 55.9159L71.9674 56.3675C71.9569 56.5475 71.9373 56.7259 71.9373 56.906C71.9584 61.637 71.979 66.3685 71.999 71.1006C71.999 71.9013 72.0382 72.7331 71.2306 73.1924V74.181C72.0608 74.9941 72.2251 76.0664 71.6977 77.0006H62.0661C61.6909 76.3659 61.8566 75.7188 61.8566 75.0795L62.4684 74.3036L62.4804 74.2911C62.7622 74.0428 62.6718 73.7511 62.5678 73.4593L62.5287 73.1645C62.2077 72.7284 61.7963 72.3886 61.8159 71.7213C61.9726 66.2914 61.5402 60.8585 62.0706 55.4395ZM64.9486 50.8818C64.4709 52.1915 64.0701 53.3507 63.6256 54.4929C63.2685 55.4053 62.928 56.3085 62.9295 57.3172C62.9295 61.8672 62.9159 66.4171 62.9189 70.9733C62.942 71.25 62.9925 71.5235 63.0696 71.7896C64.3745 72.0115 70.2511 71.9215 70.8945 71.6592C70.9351 71.3763 70.9617 71.0914 70.9744 70.8057C70.9744 66.5397 70.9578 62.2707 70.988 58.0093C70.997 56.5459 70.5736 55.216 70.007 53.9218C69.6559 53.121 69.2777 52.3358 69.2536 51.4296C69.2277 51.2443 69.1817 51.0627 69.1165 50.888L64.9486 50.8818Z" fill="white"/>
<path d="M66.7026 37.0146C67.2676 36.9292 67.5388 37.2396 67.7031 37.5795C68.2109 38.6363 68.7579 39.6884 69.1301 40.7964C69.9015 43.0543 70.1848 45.4131 70.2556 47.7983C70.2737 48.3492 70.2813 48.3492 69.9362 48.8551C67.8899 48.8287 65.7939 48.9202 63.6708 48.7961C63.4418 47.9457 63.5473 47.1744 63.6542 46.4202C63.8637 44.9398 64.0551 43.45 64.3896 41.996C64.7301 40.4093 65.3386 38.8966 66.1872 37.5267C66.3374 37.3343 66.5105 37.1623 66.7026 37.0146Z" fill="white"/>
<defs>
<linearGradient id="paint0_linear_466_6805" x1="54.9223" y1="0.556641" x2="54.9223" y2="151.383" gradientUnits="userSpaceOnUse">
<stop stop-color="#44464E"/>
<stop offset="1" stop-color="#000A18"/>
</linearGradient>
<linearGradient id="paint1_linear_466_6805" x1="54.9223" y1="0.556641" x2="54.9223" y2="151.383" gradientUnits="userSpaceOnUse">
<stop stop-color="#323232"/>
<stop offset="1" stop-color="#0050CD" stop-opacity="0"/>
</linearGradient>
</defs>
</svg>
