<svg width="74" height="22" viewBox="0 0 74 22" fill="none" xmlns="http://www.w3.org/2000/svg">
<path d="M5.85 8.97351L4.70004 9.79131C4.7864 10.695 4.86365 11.5264 4.95911 12.5611H0.686368C0.450004 9.58347 0.231818 6.68721 0 3.89032C2.98636 2.57096 5.95912 2.57996 10.0318 2.84203L10.7091 3.62822H19.7546C20.6137 1.59495 22.6955 1.44132 24.2727 0.352392L25.8818 1.25607H34.5864L35.65 0.420179H56.9091L58.2727 1.70344C58.9546 1.70344 59.7046 1.70344 60.4546 1.70344C61.1182 1.70344 61.7864 1.77121 62.5136 1.80735C62.7136 2.47156 62.8864 3.03185 63.1182 3.79546C65.1136 4.21115 67.2091 3.92192 69.2591 3.9671C70.3636 2.90076 70.3727 1.5001 70.6546 0L72.7046 0.515103V3.58757L74 4.34216V5.82873L71.8227 7.28816C69.0955 7.28816 66.2227 7.24298 63.3455 7.28816C57.6864 7.39208 52.0137 7.38754 46.3682 7.76708C44.0546 7.92522 41.7682 8.04722 39.4773 7.65412C38.5682 10.2883 39.4409 12.2809 40.8864 14.0883C41.7273 15.1366 42.7455 16.0493 43.8455 17.1924L40.6409 22C36.0227 19.1082 33.6046 14.9829 32.4955 9.74161L30.5182 10.826C28.9455 10.826 27.2091 11.1152 25.5182 10.4691C23.6591 11.6303 23.5682 13.5145 23.5636 15.3535C21.5364 15.9363 19.8591 15.3535 18.8409 13.6636C19.6182 12.0641 20.4318 10.3923 21.3546 8.50358C18.1 6.91763 14.7 7.90716 11.4182 7.44177L10.5409 6.41156H7.59094C6.35458 6.76852 6.23181 8.00206 5.85 8.97351ZM72.9 4.87983L72.9454 4.63587H58.5273V4.87983H72.9ZM22.6955 1.96096L22.7727 2.11005H33.7364V1.96096H22.6955ZM29.9682 7.65412L28.3364 8.05174C28.3364 8.92379 28.6864 9.3666 29.3773 9.47052C29.6206 9.44685 29.8585 9.38427 30.0818 9.28525C30.0364 8.83341 30.0091 8.41322 29.9682 7.66769V7.65412ZM12.2409 4.24277L12.2091 4.43703H17.9864V4.24277H12.2409ZM37.9909 8.01109V7.871H32.7682V8.01109H37.9909ZM9.30003 3.91741V3.76832H5.4V3.94002L9.30003 3.91741ZM24.7546 4.41447V4.22016H21.25V4.41447H24.7546ZM44.3 1.2516V1.08442H40.8773V1.2516H44.3ZM38.1727 4.20207V4.4009H41.0409V4.22016L38.1727 4.20207ZM36.9773 4.42799L37.0228 4.22468H34L40.8773 1.08442L36.9773 4.42799ZM58.4955 2.42185V2.6026H61.5909V2.42185H58.4955ZM2.65458 3.77736V4.08911L3.42274 3.96263V3.77736H2.65458Z" fill="white"/>
</svg>
