<svg width="18" height="18" viewBox="0 0 18 18" fill="none" xmlns="http://www.w3.org/2000/svg">
<path d="M5.24994 3.74463H17.2499V6.74463H16.4999V7.49463H11.9999C11.801 7.49463 11.6103 7.57365 11.4696 7.7143C11.329 7.85495 11.2499 8.04572 11.2499 8.24463V8.99463C11.2499 9.39245 11.0919 9.77398 10.8106 10.0553C10.5293 10.3366 10.1478 10.4946 9.74994 10.4946H7.21494C6.92994 10.4946 6.66744 10.6596 6.53994 10.9146L4.70244 14.5821C4.57494 14.8371 4.31994 14.9946 4.03494 14.9946H1.49994C1.49994 14.9946 -0.750059 14.9946 2.24994 10.4946C2.24994 10.4946 4.49994 7.49463 1.49994 7.49463V3.74463H2.24994L2.62494 2.99463H4.87494L5.24994 3.74463ZM10.4999 8.99463V8.24463C10.4999 8.04572 10.4209 7.85495 10.2803 7.7143C10.1396 7.57365 9.94885 7.49463 9.74994 7.49463H8.99994C8.99994 7.49463 8.24994 8.24463 8.99994 8.99463C8.60212 8.99463 8.22059 8.83659 7.93928 8.55529C7.65798 8.27398 7.49994 7.89245 7.49994 7.49463C7.30103 7.49463 7.11026 7.57365 6.96961 7.7143C6.82896 7.85495 6.74994 8.04572 6.74994 8.24463V8.99463C6.74994 9.19354 6.82896 9.38431 6.96961 9.52496C7.11026 9.66561 7.30103 9.74463 7.49994 9.74463H9.74994C9.94885 9.74463 10.1396 9.66561 10.2803 9.52496C10.4209 9.38431 10.4999 9.19354 10.4999 8.99463Z" fill="white"/>
</svg>
