<svg width="18" height="18" viewBox="0 0 18 18" fill="none" xmlns="http://www.w3.org/2000/svg">
<path d="M15.75 2.24463H2.25C1.425 2.24463 0.75 2.91963 0.75 3.74463V12.7446C0.75 13.5696 1.425 14.2446 2.25 14.2446H6V14.9946C6 15.4071 6.3375 15.7446 6.75 15.7446H11.25C11.6625 15.7446 12 15.4071 12 14.9946V14.2446H15.75C16.575 14.2446 17.25 13.5696 17.25 12.7446V3.74463C17.25 2.91963 16.575 2.24463 15.75 2.24463ZM15 12.7446H3C2.5875 12.7446 2.25 12.4071 2.25 11.9946V4.49463C2.25 4.08213 2.5875 3.74463 3 3.74463H15C15.4125 3.74463 15.75 4.08213 15.75 4.49463V11.9946C15.75 12.4071 15.4125 12.7446 15 12.7446ZM13.5 5.99463H6.75C6.3375 5.99463 6 6.33213 6 6.74463C6 7.15713 6.3375 7.49463 6.75 7.49463H13.5C13.9125 7.49463 14.25 7.15713 14.25 6.74463C14.25 6.33213 13.9125 5.99463 13.5 5.99463ZM13.5 8.99463H6.75C6.3375 8.99463 6 9.33213 6 9.74463C6 10.1571 6.3375 10.4946 6.75 10.4946H13.5C13.9125 10.4946 14.25 10.1571 14.25 9.74463C14.25 9.33213 13.9125 8.99463 13.5 8.99463ZM5.25 5.99463H3.75V7.49463H5.25V5.99463ZM5.25 8.99463H3.75V10.4946H5.25V8.99463Z" fill="white"/>
</svg>
