<svg width="46" height="46" viewBox="0 0 46 46" fill="none" xmlns="http://www.w3.org/2000/svg">
<path d="M20.5251 3.18198C21.892 1.81515 24.108 1.81515 25.4749 3.18198L42.818 20.5251C44.1849 21.892 44.1849 24.108 42.818 25.4749L25.4749 42.818C24.108 44.1849 21.892 44.1849 20.5251 42.818L3.18198 25.4749C1.81515 24.108 1.81515 21.892 3.18198 20.5251L20.5251 3.18198Z" fill="url(#paint0_linear_235_2702)" stroke="#1871BF"/>
<path d="M22.2926 32.7285L18.293 29.0251C18.1054 28.8514 18 28.6157 18 28.37C18 28.1244 18.1054 27.8887 18.293 27.715C18.4806 27.5413 18.7351 27.4437 19.0004 27.4437C19.2658 27.4437 19.5202 27.5413 19.7079 27.715L22.0001 29.8387L22.0001 16.1613L19.7079 18.285C19.5202 18.4587 19.2658 18.5563 19.0004 18.5563C18.7351 18.5563 18.4806 18.4587 18.293 18.285C18.1054 18.1113 18 17.8756 18 17.63C18 17.3843 18.1054 17.1486 18.293 16.9749L22.2926 13.2715C22.3854 13.1855 22.4957 13.1172 22.6171 13.0706C22.7385 13.024 22.8686 13 23 13C23.1314 13 23.2615 13.024 23.3829 13.0706C23.5043 13.1172 23.6146 13.1855 23.7074 13.2715L27.707 16.9749C27.8946 17.1486 28 17.3843 28 17.63C28 17.8756 27.8946 18.1113 27.707 18.285C27.5194 18.4587 27.2649 18.5563 26.9996 18.5563C26.7342 18.5563 26.4798 18.4587 26.2921 18.285L23.9999 16.1613L23.9999 29.8387L26.2921 27.715C26.4798 27.5413 26.7342 27.4437 26.9996 27.4437C27.2649 27.4437 27.5194 27.5413 27.707 27.715C27.8946 27.8887 28 28.1244 28 28.37C28 28.6157 27.8946 28.8514 27.707 29.0251L23.7074 32.7285C23.6146 32.8145 23.5043 32.8828 23.3829 32.9294C23.2615 32.976 23.1314 33 23 33C22.8686 33 22.7385 32.976 22.6171 32.9294C22.4957 32.8828 22.3854 32.8145 22.2926 32.7285Z" fill="white"/>
<defs>
<linearGradient id="paint0_linear_235_2702" x1="0" y1="0" x2="46" y2="46" gradientUnits="userSpaceOnUse">
<stop stop-color="#1E90F3"/>
<stop offset="1" stop-color="#1871BF"/>
</linearGradient>
</defs>
</svg>
