<svg width="18" height="18" viewBox="0 0 18 18" fill="none" xmlns="http://www.w3.org/2000/svg">
<path d="M15.1875 4.5H12.375C12.375 3.60489 12.0194 2.74645 11.3865 2.11351C10.7536 1.48058 9.89511 1.125 9 1.125C8.10489 1.125 7.24645 1.48058 6.61351 2.11351C5.98058 2.74645 5.625 3.60489 5.625 4.5H2.8125C2.51413 4.5 2.22798 4.61853 2.017 4.8295C1.80603 5.04048 1.6875 5.32663 1.6875 5.625V14.0625C1.6875 14.3609 1.80603 14.647 2.017 14.858C2.22798 15.069 2.51413 15.1875 2.8125 15.1875H15.1875C15.4859 15.1875 15.772 15.069 15.983 14.858C16.194 14.647 16.3125 14.3609 16.3125 14.0625V5.625C16.3125 5.32663 16.194 5.04048 15.983 4.8295C15.772 4.61853 15.4859 4.5 15.1875 4.5ZM9 2.25C9.59674 2.25 10.169 2.48705 10.591 2.90901C11.0129 3.33097 11.25 3.90326 11.25 4.5H6.75C6.75 3.90326 6.98705 3.33097 7.40901 2.90901C7.83097 2.48705 8.40326 2.25 9 2.25ZM15.1875 14.0625H2.8125V5.625H15.1875V14.0625Z" fill="white"/>
</svg>
