<svg width="19" height="19" viewBox="0 0 19 19" fill="none" xmlns="http://www.w3.org/2000/svg">
<path d="M8.30259 15.0632L11.1343 14.9681C11.1581 15.676 10.6743 16.401 9.76602 16.4315C8.85774 16.462 8.32637 15.7712 8.30259 15.0632ZM15.4528 11.8286L14.6259 10.5481C14.3127 10.0632 14.1372 9.50209 14.1179 8.92654L14.0554 7.06684C13.9703 4.53314 11.8382 2.54164 9.30305 2.62679C6.76794 2.71194 4.77423 4.84202 4.85933 7.37572L4.9218 9.23543C4.94113 9.81098 4.8037 10.3826 4.5237 10.8874L3.78462 12.2205C3.5587 12.6264 3.56916 13.1066 3.81214 13.5038C4.05511 13.901 4.47806 14.1286 4.94317 14.113L14.4252 13.7945C14.8911 13.7788 15.2978 13.5227 15.5136 13.1108C15.7272 12.6989 15.7055 12.2191 15.4528 11.8286Z" fill="white"/>
</svg>
