<svg width="15" height="15" viewBox="0 0 15 15" fill="none" xmlns="http://www.w3.org/2000/svg">
<path fill-rule="evenodd" clip-rule="evenodd" d="M15 7.5C15 8.48491 14.806 9.46018 14.4291 10.3701C14.0522 11.2801 13.4997 12.1069 12.8033 12.8033C12.1069 13.4997 11.2801 14.0522 10.3701 14.4291C9.46018 14.806 8.48491 15 7.5 15C6.51509 15 5.53982 14.806 4.62987 14.4291C3.71993 14.0522 2.89314 13.4997 2.1967 12.8033C1.50026 12.1069 0.947814 11.2801 0.570903 10.3701C0.193993 9.46018 -1.46764e-08 8.48491 0 7.5C2.96403e-08 5.51088 0.790176 3.60322 2.1967 2.1967C3.60322 0.790176 5.51088 0 7.5 0C9.48912 0 11.3968 0.790176 12.8033 2.1967C14.2098 3.60322 15 5.51088 15 7.5ZM7.91667 7.3275V3.30833C7.91667 3.19783 7.87277 3.09185 7.79463 3.01371C7.71649 2.93556 7.61051 2.89167 7.5 2.89167C7.38949 2.89167 7.28351 2.93556 7.20537 3.01371C7.12723 3.09185 7.08333 3.19783 7.08333 3.30833V7.4875C7.08155 7.54434 7.09143 7.60095 7.11235 7.65384C7.13328 7.70672 7.16481 7.75476 7.205 7.795L9.5625 10.1517C9.60094 10.1915 9.64691 10.2232 9.69775 10.245C9.74858 10.2669 9.80326 10.2784 9.85858 10.2789C9.91391 10.2793 9.96877 10.2688 10.02 10.2478C10.0712 10.2269 10.1177 10.196 10.1568 10.1568C10.196 10.1177 10.2269 10.0712 10.2478 10.02C10.2688 9.96877 10.2793 9.91391 10.2789 9.85858C10.2784 9.80326 10.2669 9.74858 10.245 9.69775C10.2232 9.64691 10.1915 9.60094 10.1517 9.5625L7.91667 7.3275Z" fill="#B80100"/>
</svg>
