<svg width="30" height="30" viewBox="0 0 30 30" fill="none" xmlns="http://www.w3.org/2000/svg">
<path d="M5.7875 12.8375L3.75 11.25L15 2.5L24.925 10.2125L15.625 19.5125L15 20L5.7875 12.8375ZM12.5 23.675V22.6375L13.2375 21.9125L13.2875 21.875L5.775 16.0125L3.75 17.5875L12.5 24.375V23.675ZM27.125 15.725L25.525 14.125C25.3965 13.999 25.2237 13.9285 25.0438 13.9285C24.8638 13.9285 24.691 13.999 24.5625 14.125L23.3125 15.375L25.875 17.9375L27.125 16.6875C27.251 16.559 27.3215 16.3862 27.3215 16.2063C27.3215 16.0263 27.251 15.8535 27.125 15.725ZM15 26.25H17.575L25.1375 18.6625L22.575 16.1L15 23.675V26.25Z" fill="white" fill-opacity="0.5"/>
</svg>
