<svg width="17" height="24" viewBox="0 0 17 24" fill="none" xmlns="http://www.w3.org/2000/svg">
<path fill-rule="evenodd" clip-rule="evenodd" d="M1.44449 9.6882L0 4.2264L3.31641 1.0842L4.36426 5.046V2.874L8.50829 1.59V3.9258L12.1112 2.178L12.0704 2.784L12.7867 0H17L15.3607 5.538L16.4068 5.2668L15.1358 10.0752C15.2187 9.9944 15.3015 9.9124 15.3844 9.8292C15.4969 9.71374 15.6422 9.6369 15.7999 9.6095C15.9577 9.5821 16.12 9.60551 16.2639 9.67644C16.4079 9.74736 16.5263 9.86224 16.6024 10.0049C16.6786 10.1476 16.7088 10.3109 16.6886 10.4718L15.1506 22.9488C15.1148 23.2391 14.9756 23.5061 14.7592 23.6997C14.5428 23.8933 14.2641 24.0001 13.9754 24H3.04113C2.75259 23.9999 2.47402 23.8931 2.25774 23.6995C2.04146 23.5059 1.90237 23.239 1.86659 22.9488L0.32797 10.4748C0.310755 10.334 0.331836 10.1911 0.388936 10.0616C0.446036 9.9321 0.536982 9.82087 0.651941 9.73994C0.7669 9.65901 0.901498 9.61147 1.04119 9.60246C1.18087 9.59344 1.32033 9.6233 1.44449 9.6888M13.0022 7.6608L14.6835 7.1496L13.5232 11.5368C12.8637 12.081 12.2344 12.5268 11.6246 12.873L13.0022 7.6608ZM10.1641 13.5222L10.7922 4.1484L9.25895 4.8918L8.66339 13.7778C9.17297 13.7642 9.67815 13.6782 10.1641 13.5222ZM5.54827 12.9264C6.15625 13.2588 6.74471 13.4946 7.32428 13.6326V3.21L5.54827 3.7608V12.9264ZM3.05356 11.1384C3.47475 11.5043 3.9121 11.8507 4.36426 12.1764V9.6792L2.68356 3.3264L1.32787 4.611L3.05356 11.1384ZM14.0222 5.8848L12.3871 6.3084L13.7013 1.2H15.4087L14.0222 5.8848Z" fill="white" fill-opacity="0.5"/>
</svg>
