<svg width="20" height="20" viewBox="0 0 20 20" fill="none" xmlns="http://www.w3.org/2000/svg">
<path d="M10.6499 16.262C10.7372 16.2211 10.829 16.1725 10.9259 16.1159C11.3008 15.8968 11.6905 15.5944 12.1287 15.2483L12.1312 15.2462C12.3644 15.0639 12.6037 14.8786 12.8489 14.6904C15.2356 12.8511 17.6833 10.9186 17.6833 7.61416C17.6833 5.83107 16.6758 4.33706 15.3026 3.70939C14.0176 3.122 12.3033 3.24909 10.6499 4.85246V16.262Z" stroke="white" stroke-width="1.3"/>
<path d="M7.46833 15.7584C5.01583 13.8267 1.66667 11.6667 1.66667 7.61508C1.66667 3.56341 6.25 0.687579 10 4.58425V17.0834C9.16667 17.0834 8.33333 16.4417 7.46833 15.7584Z" fill="white"/>
</svg>
