<svg width="23" height="23" viewBox="0 0 23 23" fill="none" xmlns="http://www.w3.org/2000/svg">
<path d="M9.38726 16.3638C9.51194 16.9765 9.78682 17.5184 10.1689 17.9038C10.5509 18.2908 11.019 18.5 11.5003 18.5C11.9815 18.5 12.4496 18.2908 12.8316 17.9046C13.2137 17.5176 13.4879 16.9765 13.6133 16.3638M7.45218 8.5933C7.56262 7.46792 8.03667 6.42808 8.78357 5.67284C9.53048 4.91759 10.4978 4.5 11.5003 4.5C12.5028 4.5 13.4701 4.91759 14.217 5.67284C14.9639 6.42808 15.4379 7.46792 15.5484 8.5933L15.7321 10.4593L15.7365 10.5063C15.8306 11.4319 16.0975 12.3245 16.5196 13.125L16.9621 13.9592C17.3449 14.679 17.536 15.0388 17.4944 15.3345C17.4669 15.5307 17.3776 15.7091 17.2429 15.8368C17.0394 16.0295 16.6676 16.0295 15.9246 16.0295H7.07595C6.33225 16.0295 5.96039 16.0295 5.7577 15.8376C5.62252 15.7098 5.5329 15.5311 5.50542 15.3345C5.46459 15.0388 5.65562 14.679 6.03768 13.9592L6.48172 13.1242C6.90341 12.3238 7.17006 11.4316 7.26407 10.5063L7.26844 10.4593L7.45218 8.5933Z" stroke="#fff" stroke-width="1.1" stroke-linecap="round"/>
</svg>
