<svg width="24" height="24" viewBox="0 0 24 24" fill="none"
  xmlns="http://www.w3.org/2000/svg">
  <path d="M20.6675 8.436C18.7667 4.0128 15.7091 0.648003 14.1623 1.2756C11.5355 2.3448 15.7271 7.4724 2.82595 12.7152C1.71115 13.17 1.42915 14.9808 1.89595 16.0656C2.36155 17.148 3.88555 18.2268 5.00035 17.7744C5.19355 17.6952 5.90155 17.4672 5.90155 17.4672C6.69715 18.5364 7.52995 17.9028 7.82635 18.5808L9.21595 21.7728C9.47875 22.3752 10.0739 22.9332 10.5059 22.7688L12.9659 21.834C13.5275 21.6204 13.6607 21.1188 13.4891 20.7252C13.3043 20.2992 12.5459 20.1744 12.3287 19.6776C12.1127 19.1832 11.4059 17.592 11.2031 17.0904C10.9271 16.4088 11.5139 15.8532 12.3671 15.7656C18.2399 15.1512 19.3379 18.78 21.3371 17.9664C22.8815 17.3364 22.5671 12.8556 20.6675 8.436ZM20.0063 15.6072C19.6619 15.7452 17.3507 13.9248 15.8747 10.4868C14.3975 7.0512 14.5835 3.9108 14.9267 3.7704C15.2699 3.6324 17.5247 5.8308 19.0007 9.2664C20.4779 12.702 20.3495 15.4668 20.0063 15.6072Z" fill="white"/>
</svg>
