<svg width="22" height="10" viewBox="0 0 22 10" fill="none" xmlns="http://www.w3.org/2000/svg">
<path fill-rule="evenodd" clip-rule="evenodd" d="M18.7444 4.41775L13.2739 4.41775L13.2739 7.92803L16.4118 7.92803L16.4118 8.51022L13.2738 8.51022L13.2738 9.98284L18.7611 9.98284L18.7611 6.43825L15.5054 6.43825L15.5054 5.94161L18.7442 5.94161L18.7444 4.41775ZM19.1472 5.51373L19.1472 3.92124L6.84666 3.92124L6.84666 10L4.06115 10L2.78575 7.38016L2.78575 10L1.30892e-07 10L2.1292e-08 1.62669L2.81926 1.62669L4.06115 4.19517L4.06115 1.62669L19.1472 1.62669L19.1472 -2.50622e-07L22 2.75687L19.1472 5.51373ZM10.4881 8.5101L10.4881 5.94161L9.51493 5.94161L9.51493 8.5101L10.4881 8.5101ZM12.7536 9.98284L12.7536 4.41775L7.2326 4.41775L7.2326 9.98284L12.7536 9.98284Z" fill="white"/>
</svg>
