<svg width="17" height="17" viewBox="0 0 17 17" fill="none" xmlns="http://www.w3.org/2000/svg">
<path d="M12.5 6.2325C12.23 5.925 11.9525 5.6175 11.66 5.325L11.4425 5.1225L11.5475 5.0325C11.9143 4.71766 12.1756 4.29789 12.2963 3.82983C12.417 3.36177 12.3913 2.86795 12.2225 2.415C11.9779 1.90423 11.5907 1.4752 11.1076 1.17974C10.6244 0.884278 10.0661 0.735023 9.5 0.750004V2.25C9.76685 2.24629 10.0299 2.31384 10.2619 2.44567C10.4939 2.57751 10.6866 2.76887 10.82 3C10.9475 3.3 10.82 3.63 10.4675 3.9825C10.415 4.0425 10.355 4.08 10.3025 4.1325C8.0525 2.325 5.585 1.305 4.3775 2.5125C4.25145 2.64216 4.14756 2.79165 4.07 2.955V3.03L3.935 3.4275L0.627502 13.2525C0.502394 13.6227 0.467299 14.0175 0.525123 14.404C0.582947 14.7905 0.732025 15.1577 0.960011 15.4751C1.188 15.7925 1.48833 16.051 1.83613 16.2293C2.18393 16.4075 2.56919 16.5003 2.96 16.5C3.21519 16.4977 3.46837 16.4546 3.71 16.3725L14 12.96C14.1265 12.9129 14.2379 12.8326 14.3225 12.7275L14.48 12.5925C15.5525 11.5125 14.8625 9.435 13.4225 7.4175C14.2775 6.91849 15.2621 6.68607 16.25 6.75V5.25C14.928 5.17727 13.6165 5.52089 12.5 6.2325ZM3.275 14.9475C3.10476 15.0039 2.9222 15.0118 2.74771 14.9704C2.57323 14.929 2.41368 14.8399 2.28687 14.7131C2.16007 14.5863 2.071 14.4268 2.02962 14.2523C1.98823 14.0778 1.99615 13.8952 2.0525 13.725L3.0725 10.65C3.80044 12.0382 4.91897 13.1828 6.29 13.9425L3.275 14.9475ZM8.525 13.2C7.39155 12.8998 6.35756 12.3054 5.5278 11.477C4.69804 10.6485 4.10198 9.61548 3.8 8.4825L4.55 6.2325L4.595 6.3C4.6775 6.465 4.7825 6.6375 4.8875 6.81C4.9925 6.9825 5.0075 7.0275 5.0825 7.14C5.1575 7.2525 5.33 7.5 5.465 7.6875C5.6 7.875 5.6075 7.8975 5.69 8.0025C5.7725 8.1075 6.0125 8.415 6.185 8.6175L6.4025 8.88C6.6575 9.1725 6.9275 9.4575 7.2125 9.75C7.4975 10.0425 7.7225 10.23 7.9625 10.5L8.21 10.71L8.795 11.1825L9.0725 11.3925C9.2825 11.5425 9.485 11.6925 9.695 11.8275L9.9275 11.9775C10.1975 12.1425 10.4675 12.3 10.73 12.435H10.7675L8.525 13.2ZM13.4075 11.5275H13.3625C12.845 11.8125 10.6925 11.1 8.27 8.67C8.015 8.415 7.775 8.1675 7.5575 7.92L7.34 7.6575L6.9425 7.1775L6.725 6.8775C6.6275 6.735 6.5225 6.6 6.4325 6.465L6.2375 6.15L6.02 5.7975C5.96 5.6925 5.915 5.595 5.8625 5.4975C5.81 5.4 5.75 5.3025 5.705 5.1975C5.66424 5.10985 5.62917 5.01967 5.6 4.9275C5.5625 4.83 5.5175 4.7325 5.4875 4.6425C5.4575 4.5525 5.45 4.5 5.4275 4.41C5.405 4.32 5.39 4.245 5.375 4.17C5.37077 4.10507 5.37077 4.03994 5.375 3.975C5.36778 3.91522 5.36778 3.85479 5.375 3.795L5.4575 3.5625C5.7275 3.2925 7.13 3.5625 9.005 4.9875C8.68731 5.13136 8.34746 5.22013 8 5.25V6.75C8.79667 6.70418 9.56963 6.46199 10.25 6.045L10.61 6.39C10.925 6.705 11.2175 7.0275 11.495 7.35C11.0657 8.12634 10.9073 9.02361 11.045 9.9L12.545 9.6075C12.5012 9.32922 12.5012 9.04579 12.545 8.7675C12.7746 9.11418 12.9777 9.47771 13.1525 9.855C13.5725 10.845 13.5425 11.4 13.4075 11.5275Z" fill="white"/>
</svg>
