<svg width="14" height="16" viewBox="0 0 14 16" fill="none" xmlns="http://www.w3.org/2000/svg">
<path d="M13.5952 11.3708C13.205 10.6986 12.6249 8.79664 12.6249 6.3125C12.6249 4.82066 12.0323 3.38992 10.9774 2.33502C9.9225 1.28013 8.49176 0.6875 6.99992 0.6875C5.50807 0.6875 4.07733 1.28013 3.02244 2.33502C1.96755 3.38992 1.37492 4.82066 1.37492 6.3125C1.37492 8.79734 0.794136 10.6986 0.403902 11.3708C0.304248 11.5417 0.251418 11.7358 0.250739 11.9336C0.25006 12.1315 0.301556 12.326 0.400034 12.4975C0.498512 12.6691 0.640489 12.8117 0.811648 12.9109C0.982806 13.0101 1.17709 13.0624 1.37492 13.0625H4.24437C4.37415 13.6975 4.71928 14.2683 5.22139 14.6781C5.72349 15.088 6.35176 15.3119 6.99992 15.3119C7.64808 15.3119 8.27634 15.088 8.77845 14.6781C9.28056 14.2683 9.62569 13.6975 9.75546 13.0625H12.6249C12.8227 13.0622 13.0169 13.0098 13.1879 12.9106C13.359 12.8114 13.5009 12.6688 13.5993 12.4972C13.6977 12.3257 13.7491 12.1312 13.7484 11.9335C13.7477 11.7357 13.6949 11.5416 13.5952 11.3708ZM6.99992 14.1875C6.65104 14.1874 6.31077 14.0792 6.02595 13.8777C5.74112 13.6762 5.52574 13.3914 5.40945 13.0625H8.59039C8.47409 13.3914 8.25871 13.6762 7.97389 13.8777C7.68906 14.0792 7.34879 14.1874 6.99992 14.1875ZM1.37492 11.9375C1.91632 11.0066 2.49992 8.84937 2.49992 6.3125C2.49992 5.11903 2.97402 3.97443 3.81794 3.13052C4.66185 2.28661 5.80644 1.8125 6.99992 1.8125C8.19339 1.8125 9.33798 2.28661 10.1819 3.13052C11.0258 3.97443 11.4999 5.11903 11.4999 6.3125C11.4999 8.84727 12.0821 11.0045 12.6249 11.9375H1.37492Z" fill="white"/>
</svg>
