<svg width="18" height="18" viewBox="0 0 18 18" fill="none" xmlns="http://www.w3.org/2000/svg">
<path d="M14.625 2.8125H3.375C3.07663 2.8125 2.79048 2.93103 2.5795 3.142C2.36853 3.35298 2.25 3.63913 2.25 3.9375V7.875C2.25 11.5819 4.04438 13.8284 5.54977 15.0602C7.17117 16.3863 8.78414 16.837 8.85445 16.8553C8.95113 16.8816 9.05309 16.8816 9.14977 16.8553C9.22008 16.837 10.8309 16.3863 12.4545 15.0602C13.9556 13.8284 15.75 11.5819 15.75 7.875V3.9375C15.75 3.63913 15.6315 3.35298 15.4205 3.142C15.2095 2.93103 14.9234 2.8125 14.625 2.8125ZM14.625 7.875C14.625 10.4815 13.6645 12.5972 11.7703 14.1623C10.9457 14.8414 10.008 15.3698 9 15.7233C8.00522 15.3759 7.07903 14.8569 6.26344 14.1898C4.34672 12.6218 3.375 10.4977 3.375 7.875V3.9375H14.625V7.875Z" fill="white"/>
</svg>
