<svg width="24" height="24" viewBox="0 0 24 24" fill="none" xmlns="http://www.w3.org/2000/svg">
<path d="M10.4172 3.34196C11.0988 2.08556 12.9024 2.08556 13.5828 3.34196L21.3828 17.7444C21.5308 18.0183 21.6052 18.326 21.5988 18.6373C21.5923 18.9486 21.5052 19.2529 21.346 19.5205C21.1867 19.7881 20.9608 20.0098 20.6902 20.1639C20.4197 20.3181 20.1138 20.3994 19.8024 20.4H4.1976C3.88568 20.4 3.57909 20.3191 3.30789 20.1649C3.03669 20.0108 2.81019 19.7889 2.6506 19.5209C2.491 19.2529 2.40379 18.948 2.39752 18.6362C2.39125 18.3243 2.46612 18.0162 2.6148 17.742L10.4172 3.34196ZM12.6 8.99996C12.6 8.84083 12.5368 8.68822 12.4243 8.57569C12.3117 8.46317 12.1591 8.39996 12 8.39996C11.8409 8.39996 11.6883 8.46317 11.5757 8.57569C11.4632 8.68822 11.4 8.84083 11.4 8.99996V13.8C11.4 13.9591 11.4632 14.1117 11.5757 14.2242C11.6883 14.3367 11.8409 14.4 12 14.4C12.1591 14.4 12.3117 14.3367 12.4243 14.2242C12.5368 14.1117 12.6 13.9591 12.6 13.8V8.99996ZM12.9 16.5C12.9 16.2613 12.8052 16.0323 12.6364 15.8636C12.4676 15.6948 12.2387 15.6 12 15.6C11.7613 15.6 11.5324 15.6948 11.3636 15.8636C11.1948 16.0323 11.1 16.2613 11.1 16.5C11.1 16.7387 11.1948 16.9676 11.3636 17.1364C11.5324 17.3051 11.7613 17.4 12 17.4C12.2387 17.4 12.4676 17.3051 12.6364 17.1364C12.8052 16.9676 12.9 16.7387 12.9 16.5Z" fill="white"/>
</svg>
