<svg width="421" height="381" viewBox="0 0 421 381" fill="none" xmlns="http://www.w3.org/2000/svg">
<path d="M411.696 159.02C422.956 178.522 422.956 202.551 411.696 222.054L338.188 349.373C326.928 368.876 306.119 380.89 283.599 380.89H136.583C114.063 380.89 93.2538 368.876 81.9939 349.373L8.48602 222.054C-2.77398 202.551 -2.77399 178.522 8.48601 159.02L81.9939 31.7003C93.2538 12.1974 114.063 0.183104 136.583 0.183105L283.599 0.183112C306.119 0.183113 326.928 12.1974 338.188 31.7003L411.696 159.02Z" fill="url(#paint0_radial_2028_3092)"/>
<path opacity="0.16" d="M372.047 159.224C383.234 178.601 383.234 202.473 372.047 221.849L318.186 315.139C307 334.515 286.325 346.451 263.952 346.451H156.23C133.856 346.451 113.182 334.515 101.995 315.139L48.1344 221.849C36.9476 202.473 36.9475 178.601 48.1344 159.224L101.995 65.9346C113.182 46.5584 133.856 34.6221 156.23 34.6221L263.952 34.6221C286.325 34.6221 307 46.5584 318.186 65.9346L372.047 159.224Z" stroke="rgb(166, 1, 58, 1)" stroke-width="0.818627"/>
<path opacity="0.16" d="M340.939 221.849L302.632 288.199C291.446 307.575 270.771 319.511 248.398 319.511L171.784 319.511C149.41 319.511 128.736 307.575 117.549 288.199L79.2422 221.849C68.0553 202.473 68.0553 178.6 79.2422 159.224L117.549 92.8748C128.736 73.4986 149.41 61.5623 171.784 61.5623L248.398 61.5623C270.771 61.5623 291.446 73.4986 302.632 92.8748L340.939 159.224C352.126 178.6 352.126 202.473 340.939 221.849Z" stroke="rgb(166, 1, 58, 1)" stroke-opacity="0.51" stroke-width="0.818627"/>
<path opacity="0.16" d="M304.92 221.849L284.623 257.005C273.436 276.381 252.762 288.317 230.388 288.317L189.794 288.317C167.42 288.317 146.746 276.381 135.559 257.005L115.262 221.849C104.075 202.473 104.075 178.6 115.262 159.224L135.559 124.069C146.746 104.692 167.42 92.7562 189.794 92.7562L230.388 92.7562C252.762 92.7562 273.436 104.692 284.623 124.069L304.92 159.224C316.107 178.601 316.107 202.473 304.92 221.849Z" stroke="rgb(166, 1, 58, 1)" stroke-opacity="0.14" stroke-width="0.818627"/>
<defs>
<radialGradient id="paint0_radial_2028_3092" cx="0" cy="0" r="1" gradientUnits="userSpaceOnUse" gradientTransform="translate(210.091 190.537) rotate(-180) scale(309.85 309.85)">
<stop stop-color="#101010"/>
<stop offset="1" stop-color="#101010" stop-opacity="0"/>
</radialGradient>
</defs>
</svg>
