<svg width="35" height="35" viewBox="0 0 35 35" fill="none" xmlns="http://www.w3.org/2000/svg">
<path fill-rule="evenodd" clip-rule="evenodd" d="M17.5 35C27.165 35 35 27.165 35 17.5C35 7.83496 27.165 0 17.5 0C7.83502 0 0 7.83496 0 17.5C0 27.165 7.83502 35 17.5 35ZM18.5 8.65002C18.5 7.82166 17.8284 7.15002 17 7.15002C16.1716 7.15002 15.5 7.82166 15.5 8.65002V19.4713L21.9393 25.9106C22.5251 26.4965 23.4749 26.4965 24.0607 25.9106C24.6464 25.325 24.6464 24.3751 24.0607 23.7893L18.5 18.2288V8.65002Z" fill="white"/>
</svg>
