<svg width="8" height="10" viewBox="0 0 8 10" fill="none" xmlns="http://www.w3.org/2000/svg">
<path d="M6.80768 1.26958C6.05019 0.450625 5.05346 0 4 0H3.99288C2.93326 0.002042 1.91767 0.45949 1.16906 1.27193C0.420459 2.08436 9.84867e-06 3.1854 1.15252e-05 4.33333V6.43063C-0.00118274 6.76415 0.0904627 7.09033 0.262987 7.36657C0.43551 7.64282 0.680899 7.8563 0.967124 7.97917L1.42308 8.17542C1.4707 8.19588 1.51281 8.22895 1.54557 8.2716C1.57832 8.31426 1.60068 8.36514 1.61058 8.41958L1.80289 9.46396C1.83107 9.61491 1.90649 9.7507 2.0164 9.84837C2.12632 9.94604 2.264 9.9996 2.40616 10H2.61539C2.65619 10 2.69532 9.98244 2.72417 9.95119C2.75303 9.91993 2.76923 9.87754 2.76923 9.83333V9.00938C2.76923 8.83 2.89654 8.67604 3.06212 8.66708C3.10372 8.66491 3.1453 8.67191 3.18433 8.68766C3.22336 8.70341 3.25903 8.72759 3.28919 8.75871C3.31934 8.78984 3.34335 8.82728 3.35975 8.86875C3.37615 8.91023 3.38461 8.95488 3.38462 9V9.83333C3.38462 9.87754 3.40083 9.91993 3.42968 9.95119C3.45853 9.98244 3.49766 10 3.53846 10C3.57927 10 3.6184 9.98244 3.64725 9.95119C3.6761 9.91993 3.69231 9.87754 3.69231 9.83333V9.00938C3.69231 8.83 3.81962 8.67604 3.98519 8.66708C4.02679 8.66491 4.06837 8.67191 4.1074 8.68766C4.14643 8.70341 4.18211 8.72759 4.21226 8.75871C4.24241 8.78984 4.26642 8.82728 4.28282 8.86875C4.29923 8.91023 4.30769 8.95488 4.30769 9V9.83333C4.30769 9.87754 4.3239 9.91993 4.35275 9.95119C4.3816 9.98244 4.42073 10 4.46154 10C4.50234 10 4.54147 9.98244 4.57032 9.95119C4.59917 9.91993 4.61538 9.87754 4.61538 9.83333V9.00938C4.61538 8.83 4.74269 8.67604 4.90827 8.66708C4.94987 8.66491 4.99145 8.67191 5.03048 8.68766C5.06951 8.70341 5.10518 8.72759 5.13534 8.75871C5.16549 8.78984 5.18949 8.82728 5.2059 8.86875C5.2223 8.91023 5.23076 8.95488 5.23077 9V9.83333C5.23077 9.87754 5.24697 9.91993 5.27583 9.95119C5.30468 9.98244 5.34381 10 5.38461 10H5.59384C5.73601 9.99966 5.87371 9.94615 5.98366 9.84852C6.09362 9.75088 6.16908 9.61512 6.1973 9.46417L6.38961 8.41958C6.39963 8.36522 6.422 8.31442 6.45471 8.27179C6.48741 8.22916 6.52942 8.19603 6.57692 8.17542L7.03288 7.97917C7.3191 7.8563 7.56449 7.64282 7.73701 7.36657C7.90954 7.09033 8.00118 6.76415 7.99999 6.43063V4.36812C7.99999 3.20146 7.57691 2.10125 6.80768 1.26958ZM2.37808 6.66417C2.15955 6.67967 1.94185 6.62264 1.75402 6.50066C1.56618 6.37868 1.41713 6.19757 1.32676 5.98146C1.23638 5.76536 1.20896 5.52455 1.24817 5.29113C1.28738 5.05772 1.39134 4.8428 1.54619 4.67504C1.70105 4.50728 1.89944 4.39465 2.11489 4.35218C2.33035 4.3097 2.55265 4.3394 2.75212 4.43731C2.9516 4.53522 3.11879 4.69669 3.23138 4.90018C3.34397 5.10367 3.39662 5.33951 3.38231 5.57625C3.36523 5.8587 3.25395 6.1248 3.06919 6.32495C2.88443 6.52511 2.63881 6.64567 2.37808 6.66417ZM4.48077 7.94271C4.42786 7.98094 4.36551 8.00091 4.30192 8H3.69808C3.63462 8.00083 3.57241 7.98086 3.51962 7.94271C3.46805 7.90484 3.4283 7.85091 3.40564 7.78804C3.38297 7.72517 3.37846 7.65633 3.39269 7.59063L3.69865 6.59896C3.75 6.45833 3.83173 6.35417 3.96154 6.33604C4.12038 6.31521 4.23077 6.39583 4.30019 6.59063L4.60788 7.59063C4.6221 7.65635 4.61755 7.72521 4.59486 7.78808C4.57216 7.85095 4.53237 7.90487 4.48077 7.94271ZM5.76307 6.66417C5.54454 6.67967 5.32684 6.62264 5.13901 6.50066C4.95117 6.37868 4.80212 6.19757 4.71175 5.98146C4.62137 5.76536 4.59395 5.52455 4.63316 5.29113C4.67237 5.05772 4.77633 4.8428 4.93119 4.67504C5.08604 4.50728 5.28443 4.39465 5.49989 4.35218C5.71534 4.3097 5.93764 4.3394 6.13712 4.43731C6.33659 4.53522 6.50378 4.69669 6.61637 4.90018C6.72896 5.10367 6.78161 5.33951 6.7673 5.57625C6.75021 5.85877 6.63887 6.12492 6.45404 6.32508C6.2692 6.52525 6.02348 6.64576 5.76269 6.66417H5.76307Z" fill="white"/>
</svg>
