<svg width="24" height="24" viewBox="0 0 24 24" fill="none" xmlns="http://www.w3.org/2000/svg">
<path d="M17.7359 9.03004C17.7359 9.03004 15.8089 11.3846 12 11.4232C8.18809 11.3846 6.26413 9.03004 6.26413 9.03004C5.87394 13.594 0 14.4065 0 14.4065V22.6566C0 23.0129 0.143251 23.3546 0.398241 23.6065C0.65323 23.8585 0.99907 24 1.35968 24H22.6403C23.0009 24 23.3468 23.8585 23.6018 23.6065C23.8567 23.3546 24 23.0129 24 22.6566V14.4065C24 14.4065 18.1261 13.594 17.7359 9.03004Z" fill="white"/>
<path d="M12 10.412C16.9014 10.412 20.8724 5.75015 20.8724 0H3.12455C3.12455 5.75015 7.09854 10.412 12 10.412Z" fill="white"/>
</svg>
