<svg width="26" height="26" viewBox="0 0 26 26" fill="none" xmlns="http://www.w3.org/2000/svg">
<path fill-rule="evenodd" clip-rule="evenodd" d="M11.3623 0.0480888C11.3638 0.144395 12.9974 3.10942 13.0435 3.09935C13.0935 3.08833 14.7144 0.130737 14.7157 0.0480888C14.7161 0.0216079 13.9616 0 13.039 0C12.1164 0 11.3619 0.0216079 11.3623 0.0480888ZM9.96617 0.336621C9.5282 2.01659 9.45294 2.18002 9.11739 2.18002C8.89394 2.18002 8.28083 2.41393 7.76361 2.69656C7.09529 3.06172 6.35216 3.66847 5.65036 4.42212L5.04851 5.0683L4.26468 5.02656C2.68333 4.94244 1.54863 5.31362 0.564643 6.23686C0.0123564 6.75506 -0.0559435 6.95312 0.0317893 7.78166C0.182505 9.20509 0.623131 10.8546 1.16599 12.0281C1.69555 13.1728 2.53806 14.2817 3.38089 14.9435C3.66327 15.1652 3.98192 15.4871 4.11978 15.6898C4.52009 16.2786 5.17384 16.6227 5.84171 16.5962C5.97692 16.5908 6.11643 16.6045 6.15175 16.6267C6.18708 16.6488 6.23138 16.8937 6.25012 17.171C6.30677 18.0079 6.66233 18.4914 7.37375 18.699C7.80925 18.826 7.88685 18.865 7.96996 18.9985C8.02174 19.0816 8.00484 19.1377 7.89457 19.2494L7.75253 19.3932L7.32577 19.2803C6.80051 19.1412 6.30488 18.8175 6.05586 18.4508C5.8645 18.1691 5.66467 17.5992 5.66467 17.3353C5.66467 17.2168 5.62029 17.182 5.42729 17.1492C5.02579 17.0809 4.75955 16.9839 4.44521 16.7914C4.2793 16.6898 4.13371 16.6067 4.12168 16.6067C4.09472 16.6067 4.11149 16.708 4.34513 17.9531C4.8457 20.6212 5.62935 22.8496 6.46452 23.9803L6.7724 24.397L6.80405 25.1985L6.8357 26H13.039H19.2424L19.274 25.1985L19.3057 24.397L19.5963 23.9803C20.5361 22.633 21.2277 20.6389 21.7731 17.7041C21.9944 16.5134 22.014 16.5767 21.5053 16.838C21.2703 16.9587 20.9414 17.0824 20.7745 17.1129C20.6075 17.1433 20.4578 17.1815 20.4419 17.1976C20.4259 17.2137 20.3819 17.397 20.344 17.6048C20.2572 18.08 20.1544 18.281 19.8043 18.6602C19.3492 19.153 18.4095 19.5048 18.1772 19.2694C17.9592 19.0486 18.0716 18.8729 18.5051 18.7571C18.9603 18.6355 19.3752 18.3741 19.5578 18.0939C19.7364 17.8198 19.8728 17.251 19.8218 16.9928C19.7634 16.6967 19.8916 16.5983 20.3693 16.5718C21.0611 16.5337 21.6224 16.1975 22.0005 15.5946C22.1007 15.4348 22.3277 15.2184 22.5432 15.0772C23.7247 14.3031 24.8087 12.2237 25.5732 9.2651C25.9421 7.83744 26.0538 7.18055 25.9772 6.88997C25.8759 6.50641 25.1953 5.86856 24.5248 5.52893C23.6744 5.09818 23.3937 5.04086 22.1158 5.03682L21.0014 5.03329L20.3824 4.3739C19.307 3.22823 18.1096 2.43977 17.0997 2.21215C16.5555 2.08949 16.5915 2.14053 16.3292 1.12207C16.0351 -0.0198126 16.0842 0.0640543 15.7085 0.0645031L15.3811 0.0649519L14.4094 1.86104C13.875 2.84891 13.3855 3.68546 13.3217 3.72008C13.1553 3.81023 12.8663 3.7976 12.7199 3.69373C12.6508 3.64468 12.1673 2.8089 11.6456 1.83648L10.697 0.0684785L10.3671 0.0662984L10.0372 0.0641184L9.96617 0.336621ZM13.3349 9.85698C13.4602 10.9849 13.9992 11.8569 14.9209 12.4227C15.5691 12.8207 16.0247 12.8878 18.0785 12.8878C19.3321 12.8878 19.9516 12.8645 20.0631 12.813C20.1522 12.7719 20.5259 12.3823 20.8934 11.9474C21.586 11.1278 21.7189 11.0411 21.8944 11.2948C22.0215 11.4787 21.987 11.5377 21.2179 12.4506C20.3277 13.5076 20.4574 13.4649 18.136 13.4649C16.0517 13.4649 15.6204 13.4096 14.8696 13.0462C14.2918 12.7666 13.6239 12.1437 13.2997 11.5822C13.0704 11.1851 12.9441 11.0593 12.9441 11.2282C12.9441 11.3797 12.3514 12.1929 12.0396 12.4692C11.6552 12.8098 11.0398 13.1494 10.5071 13.3148C10.171 13.4192 9.88679 13.4328 8.03839 13.4328C6.11669 13.4328 5.93021 13.4231 5.70847 13.3116C5.50097 13.2071 4.30196 11.8858 4.1258 11.5674C3.99122 11.3241 4.29639 11.0659 4.523 11.2313C4.5875 11.2784 4.91647 11.6434 5.25404 12.0424C5.59162 12.4414 5.93793 12.7948 6.02357 12.8278C6.28145 12.9271 9.67702 12.9007 10.1666 12.7956C11.5509 12.4983 12.5852 11.3329 12.7293 9.90802C12.7621 9.58384 12.8029 9.4622 12.9027 9.39142C13.1282 9.23144 13.2841 9.3993 13.3349 9.85698ZM12.2161 16.4665C12.4598 16.5345 12.7507 16.6286 12.8624 16.6756C13.0392 16.75 13.0958 16.7466 13.2969 16.6494C13.7104 16.4496 14.2873 16.3472 15.2258 16.307C16.2732 16.2621 16.4255 16.3003 16.4255 16.6077C16.4255 16.8449 16.4079 16.8488 15.1912 16.8837C14.4057 16.9063 14.1653 16.9373 13.7986 17.0634L13.3555 17.2158L13.3382 18.3666C13.3238 19.3237 13.3035 19.5368 13.2176 19.6329C13.0906 19.7751 12.9836 19.7794 12.8536 19.6477C12.7706 19.5636 12.7542 19.3566 12.7542 18.3941V17.2413L12.5168 17.1405C12.1175 16.971 11.3698 16.8677 10.5251 16.8654C9.78627 16.8633 9.71474 16.8526 9.65252 16.7349C9.57909 16.5959 9.64948 16.3917 9.79425 16.324C9.97845 16.2378 11.7757 16.3436 12.2161 16.4665ZM11.9721 21.0545C12.2209 21.1095 12.5629 21.2078 12.7322 21.2729C13.026 21.386 13.0516 21.3864 13.2927 21.2805C13.7795 21.0669 14.533 20.9544 15.7143 20.919C16.7668 20.8875 16.8817 20.8947 16.9961 20.9996C17.1477 21.1385 17.1551 21.2445 17.0224 21.3789C16.9407 21.4616 16.7509 21.4797 15.9621 21.4799C14.9585 21.4802 14.0195 21.5964 13.5795 21.7747L13.3267 21.8771L13.3094 23.0332C13.2933 24.1165 13.2841 24.1947 13.1627 24.2762C13.0523 24.3504 13.0126 24.3487 12.8937 24.2643C12.7587 24.1686 12.7542 24.1279 12.7542 23.0209V21.8764L12.4535 21.7714C11.9478 21.5947 10.9966 21.4804 10.0292 21.48C9.39768 21.4798 9.08428 21.4555 9.03219 21.4027C8.92047 21.2895 8.93977 21.0476 9.067 20.967C9.23038 20.8634 11.4038 20.9289 11.9721 21.0545Z" fill="white"/>
</svg>
