<svg width="18" height="28" viewBox="0 0 18 28" fill="none" xmlns="http://www.w3.org/2000/svg">
<path fill-rule="evenodd" clip-rule="evenodd" d="M8.25954 0.511254C6.23427 2.57966 5.28106 4.45862 5.13957 6.66096C5.06942 7.75189 5.27223 8.93127 6.44534 14.2542C7.32 18.2227 7.53899 19.437 7.67361 21.0633C7.77214 22.2537 7.44452 23.1662 6.62888 23.9728C6.02915 24.5659 5.39185 24.9012 4.37992 25.156C2.98444 25.5074 0.33 26.3966 0.122638 26.5821C0.055222 26.6425 0 26.7831 0 26.8947C0 27.6378 0.859585 27.9993 2.62795 28C4.14235 28.0006 6.24527 27.7342 8.07958 27.3097C9.03083 27.0895 9.0693 27.0907 9.69419 27.3634C10.3843 27.6644 11.0419 27.4688 11.3368 26.875L11.4961 26.5542L11.4175 24.0582C11.3197 20.9499 11.3452 20.6722 11.9027 18.7856C12.5493 16.5974 12.5797 16.4319 12.5755 15.1061C12.5714 13.7895 12.5132 13.4233 11.9678 11.2865C11.5623 9.69772 11.5215 9.21399 11.7546 8.76188C11.9103 8.45996 12.9778 7.39684 14.3161 6.21087C15.3085 5.33152 18.1268 2.29364 17.9956 2.24486C17.9458 2.22636 15.9026 1.72154 13.4551 1.12295C11.0076 0.52436 8.95696 0.0197515 8.8981 0.00152954C8.83124 -0.0192155 8.59157 0.172115 8.25954 0.511254Z" fill="white"/>
</svg>
