                        <svg width="56" height="56" viewBox="0 0 56 56" fill="none" xmlns="http://www.w3.org/2000/svg">
                                <rect x="9" y="8" width="39" height="39" rx="1" fill="#111111" fill-opacity="0.85"/>
                                <rect x="9" y="8" width="39" height="39" rx="1" fill="url(#paint0_radial_433_1375)"/>
                                <rect x="9" y="8" width="39" height="39" rx="1" stroke="#E51717" stroke-width="2"/>
                                <g filter="url(#filter0_d_433_1375)">
                                <path d="M19.6049 35.6002V27.4873C20.4008 27.7916 21.1828 28.0815 21.975 28.3347C22.0154 28.6997 21.9513 29.0536 22.0169 29.4036C22.133 30.0233 22.676 30.4475 23.2923 30.3945C23.9191 30.3406 24.3745 29.8446 24.3822 29.2067C24.3831 29.1123 24.3822 29.0175 24.3822 28.8995C25.594 29.0964 26.7884 29.2004 27.9915 29.2009C29.1961 29.2019 30.392 29.095 31.5758 28.9053C31.6274 28.9953 31.6057 29.0776 31.6067 29.1556C31.6168 29.8731 32.1087 30.3906 32.792 30.3993C33.4535 30.408 33.9864 29.8678 34.0033 29.1667C34.0095 28.8947 34.0042 28.6222 34.0042 28.3386C34.8065 28.08 35.5895 27.7935 36.3859 27.4854V35.5964C37.2392 33.2709 37.5765 30.8596 37.6035 28.3848C38.1499 28.379 38.5864 28.5904 38.9598 28.9419C39.6387 29.5808 39.9379 30.3993 39.9866 31.304C40.0531 32.5371 39.8661 33.7485 39.5583 34.9401C39.2436 36.1583 38.8008 37.3273 38.1412 38.4044C37.8189 38.9311 37.47 39.44 36.9448 39.7968C36.7386 39.9369 36.5189 39.9981 36.2683 39.9981C30.7601 39.9952 25.2514 39.9942 19.7431 40C19.3986 40 19.1197 39.8806 18.8701 39.6668C18.2365 39.1237 17.8125 38.4241 17.453 37.6894C16.4744 35.6893 15.9386 33.5785 16.0056 31.344C16.0355 30.3435 16.3867 29.4498 17.2015 28.7994C17.5412 28.5283 17.9291 28.3757 18.3878 28.3858C18.4133 30.861 18.753 33.2708 19.6053 35.6002H19.6049Z" fill="white" fill-opacity="0.75" shape-rendering="crispEdges"/>
                                <path d="M31.6072 27.6992C29.1884 28.1007 26.798 28.1022 24.3841 27.6982C24.3841 27.4122 24.3682 27.1325 24.3875 26.8547C24.4313 26.2124 23.9158 25.6057 23.1848 25.6014C22.5165 25.5975 22.0034 26.1344 21.9875 26.8445C21.9856 26.9317 21.9875 27.0188 21.9875 27.132C21.4204 26.9683 20.8788 26.7723 20.3396 26.5672C19.9956 26.4363 19.6448 26.3197 19.3533 26.0853C18.5154 25.4107 18.2779 24.5412 18.5005 23.5098C18.7077 22.5498 18.899 21.5868 19.0869 20.6229C19.1905 20.0913 19.6511 19.6402 20.2004 19.6257C21.099 19.6021 21.9981 19.6132 22.8972 19.6098C22.9844 19.6098 23.0711 19.6098 23.1925 19.6098C23.1925 19.2131 23.1916 18.8318 23.1925 18.4504C23.1954 17.6079 23.537 16.9333 24.2183 16.4398C24.6033 16.16 25.0418 16.0079 25.5183 16.0065C27.1719 16.0012 28.8256 15.9944 30.4792 16.0079C31.7435 16.018 32.7871 17.1013 32.7982 18.385C32.8016 18.7846 32.7987 19.1842 32.7987 19.5737C32.8927 19.6296 32.9746 19.6079 33.0526 19.6079C33.9035 19.6098 34.7544 19.606 35.6054 19.6098C36.3238 19.6127 36.7757 20.0152 36.9125 20.7249C37.0894 21.6422 37.2705 22.5589 37.4797 23.4694C37.6864 24.3683 37.5466 25.169 36.9039 25.8513C36.6307 26.1416 36.2862 26.3217 35.9142 26.4676C35.2912 26.7117 34.6595 26.9269 34.0071 27.1387C34.0067 26.8272 34.0057 26.5325 33.866 26.2596C33.6077 25.755 33.0647 25.5084 32.4894 25.6409C31.9936 25.755 31.6173 26.2316 31.6081 26.7656C31.6028 27.0694 31.6072 27.3732 31.6072 27.6987V27.6992ZM25.6118 18.4105V19.593H30.3795V18.4105H25.6118Z" fill="white" fill-opacity="0.75" shape-rendering="crispEdges"/>
                                </g>
                                <defs>
                                <filter id="filter0_d_433_1375" x="0.377435" y="0.377435" width="55.2451" height="55.2451" filterUnits="userSpaceOnUse" color-interpolation-filters="sRGB">
                                <feFlood flood-opacity="0" result="BackgroundImageFix"/>
                                <feColorMatrix in="SourceAlpha" type="matrix" values="0 0 0 0 0 0 0 0 0 0 0 0 0 0 0 0 0 0 127 0" result="hardAlpha"/>
                                <feOffset/>
                                <feGaussianBlur stdDeviation="7.81128"/>
                                <feComposite in2="hardAlpha" operator="out"/>
                                <feColorMatrix type="matrix" values="0 0 0 0 1 0 0 0 0 1 0 0 0 0 1 0 0 0 0.31 0"/>
                                <feBlend mode="normal" in2="BackgroundImageFix" result="effect1_dropShadow_433_1375"/>
                                <feBlend mode="normal" in="SourceGraphic" in2="effect1_dropShadow_433_1375" result="shape"/>
                                </filter>
                                <radialGradient id="paint0_radial_433_1375" cx="0" cy="0" r="1" gradientUnits="userSpaceOnUse" gradientTransform="translate(37.0727 7.00001) rotate(102.225) scale(137.295)">
                                <stop stop-color="#E51717"/>
                                <stop offset="1" stop-opacity="0"/>
                                </radialGradient>
                                </defs>
                                </svg>