<svg width="11" height="630" viewBox="0 0 11 630" fill="none" xmlns="http://www.w3.org/2000/svg">
<path d="M10.098 331.828C10.098 332.472 9.986 333.051 9.762 333.564C9.52867 334.068 9.21133 334.465 8.81 334.754C8.39933 335.043 7.928 335.193 7.396 335.202L7.396 333.844C7.85333 333.797 8.24067 333.611 8.558 333.284C8.866 332.948 9.02 332.463 9.02 331.828C9.02 331.221 8.87067 330.745 8.572 330.4C8.264 330.045 7.872 329.868 7.396 329.868C7.02267 329.868 6.71933 329.971 6.486 330.176C6.25267 330.381 6.07533 330.638 5.954 330.946C5.83267 331.254 5.702 331.669 5.562 332.192C5.394 332.836 5.226 333.354 5.058 333.746C4.89 334.129 4.62867 334.46 4.274 334.74C3.91 335.011 3.42467 335.146 2.818 335.146C2.286 335.146 1.81467 335.011 1.404 334.74C0.993333 334.469 0.675999 334.091 0.451999 333.606C0.227999 333.111 0.115999 332.547 0.115999 331.912C0.115999 330.997 0.344666 330.251 0.802 329.672C1.25933 329.084 1.866 328.753 2.622 328.678L2.622 330.078C2.24867 330.125 1.922 330.321 1.642 330.666C1.35267 331.011 1.208 331.469 1.208 332.038C1.208 332.57 1.348 333.004 1.628 333.34C1.89867 333.676 2.28133 333.844 2.776 333.844C3.13067 333.844 3.42 333.746 3.644 333.55C3.868 333.345 4.04067 333.097 4.162 332.808C4.274 332.509 4.40467 332.094 4.554 331.562C4.73133 330.918 4.90867 330.4 5.086 330.008C5.254 329.616 5.52 329.28 5.884 329C6.23867 328.72 6.724 328.58 7.34 328.58C7.816 328.58 8.264 328.706 8.684 328.958C9.104 329.21 9.44467 329.583 9.706 330.078C9.96733 330.573 10.098 331.156 10.098 331.828ZM8.964 325.431L8.964 322.015L10 322.015L10 326.705L0.241999 326.705L0.241999 325.431L8.964 325.431ZM10.098 316.238C10.098 317.144 9.888 317.97 9.468 318.716C9.03867 319.463 8.446 320.056 7.69 320.494C6.92467 320.924 6.066 321.138 5.114 321.138C4.162 321.138 3.308 320.924 2.552 320.494C1.78667 320.056 1.194 319.463 0.773999 318.716C0.344665 317.97 0.129999 317.144 0.129999 316.238C0.129998 315.324 0.344665 314.493 0.773998 313.746C1.194 313 1.782 312.412 2.538 311.982C3.294 311.553 4.15267 311.338 5.114 311.338C6.07533 311.338 6.934 311.553 7.69 311.982C8.446 312.412 9.03867 313 9.468 313.746C9.888 314.493 10.098 315.324 10.098 316.238ZM8.992 316.238C8.992 315.557 8.83333 314.946 8.516 314.404C8.19867 313.854 7.746 313.424 7.158 313.116C6.57 312.799 5.88867 312.64 5.114 312.64C4.33 312.64 3.64867 312.799 3.07 313.116C2.482 313.424 2.02933 313.849 1.712 314.39C1.39467 314.932 1.236 315.548 1.236 316.238C1.236 316.929 1.39467 317.545 1.712 318.086C2.02933 318.628 2.482 319.057 3.07 319.374C3.64867 319.682 4.33 319.836 5.114 319.836C5.88867 319.836 6.57 319.682 7.158 319.374C7.746 319.057 8.19867 318.628 8.516 318.086C8.83333 317.536 8.992 316.92 8.992 316.238ZM0.241998 303.65L1.278 303.65L1.278 306.31L10 306.31L10 307.584L1.278 307.584L1.278 310.258L0.241999 310.258L0.241998 303.65ZM10.098 298.988C10.098 299.632 9.986 300.211 9.762 300.724C9.52867 301.228 9.21133 301.625 8.81 301.914C8.39933 302.203 7.928 302.353 7.396 302.362L7.396 301.004C7.85333 300.957 8.24067 300.771 8.558 300.444C8.866 300.108 9.02 299.623 9.02 298.988C9.02 298.381 8.87066 297.905 8.572 297.56C8.264 297.205 7.872 297.028 7.396 297.028C7.02266 297.028 6.71933 297.131 6.486 297.336C6.25266 297.541 6.07533 297.798 5.954 298.106C5.83266 298.414 5.702 298.829 5.562 299.352C5.394 299.996 5.226 300.514 5.058 300.906C4.89 301.289 4.62866 301.62 4.274 301.9C3.91 302.171 3.42467 302.306 2.818 302.306C2.286 302.306 1.81466 302.171 1.404 301.9C0.993331 301.629 0.675998 301.251 0.451998 300.766C0.227998 300.271 0.115998 299.707 0.115998 299.072C0.115998 298.157 0.344665 297.411 0.801998 296.832C1.25933 296.244 1.866 295.913 2.622 295.838L2.622 297.238C2.24866 297.285 1.922 297.481 1.642 297.826C1.35266 298.171 1.208 298.629 1.208 299.198C1.208 299.73 1.348 300.164 1.628 300.5C1.89866 300.836 2.28133 301.004 2.776 301.004C3.13066 301.004 3.42 300.906 3.644 300.71C3.868 300.505 4.04066 300.257 4.162 299.968C4.274 299.669 4.40466 299.254 4.554 298.722C4.73133 298.078 4.90866 297.56 5.086 297.168C5.254 296.776 5.52 296.44 5.884 296.16C6.23866 295.88 6.724 295.74 7.34 295.74C7.816 295.74 8.264 295.866 8.684 296.118C9.104 296.37 9.44466 296.743 9.706 297.238C9.96733 297.733 10.098 298.316 10.098 298.988Z" fill="white" fill-opacity="0.35"/>
<rect x="5" width="1" height="282" rx="0.5" fill="white" fill-opacity="0.15"/>
<rect x="5" y="348" width="1" height="282" rx="0.5" fill="white" fill-opacity="0.15"/>
</svg>
