<svg width="50" height="50" viewBox="0 0 50 50" fill="none" xmlns="http://www.w3.org/2000/svg">
<path d="M3.75278 29.5C2.14508 26.7154 2.14508 23.2846 3.75278 20.5L10.4793 8.84937C12.087 6.06476 15.0581 4.34937 18.2735 4.34937L31.7265 4.34937C34.9419 4.34937 37.913 6.06476 39.5207 8.84937L46.2472 20.5C47.8549 23.2846 47.8549 26.7154 46.2472 29.5L39.5207 41.1506C37.913 43.9352 34.9419 45.6506 31.7265 45.6506L18.2735 45.6506C15.0581 45.6506 12.087 43.9352 10.4793 41.1506L3.75278 29.5Z" fill="url(#paint0_radial_78_4209)" fill-opacity="0.45" stroke="#2981FF" stroke-width="2"/>
<g filter="url(#filter0_dd_78_4209)">
<path d="M23.9809 17.0878C23.5909 17.1856 23.0742 17.6837 22.9085 18.1106C22.7915 18.4397 22.7525 18.4575 22.2553 18.5287C21.5437 18.6176 20.4616 19.1246 19.9352 19.6049L19.5062 20.014L19.633 20.5655C20.1496 22.8514 20.3251 23.1982 21.2122 23.6074L21.7289 23.8386H28.2995L28.8162 23.5896C29.6253 23.2071 29.8301 22.8691 30.1908 21.3215L30.5027 20.014L30.1128 19.6494C29.4986 19.0623 28.592 18.6443 27.6561 18.5198C27.2662 18.4664 27.2174 18.4308 27.1004 18.1017C26.9347 17.6748 26.301 17.1233 25.8721 17.0433C25.4432 16.9721 24.3318 16.9899 23.9809 17.0878ZM26.0281 17.737C26.3303 17.9149 26.6033 18.2885 26.5253 18.4041C26.4375 18.5375 23.5227 18.4842 23.4739 18.3597C23.4154 18.1907 23.9224 17.7104 24.2538 17.6125C24.6925 17.4969 25.7356 17.5681 26.0281 17.737ZM27.4611 21.5794C27.4806 21.873 27.4514 22.0953 27.3929 22.1131C27.3344 22.1398 26.2231 22.1398 24.9167 22.1309L22.5283 22.1042L22.5186 21.6595C22.5088 21.4105 22.5186 21.1881 22.5381 21.1436C22.5576 21.108 23.6689 21.0814 25.0045 21.0814H27.4221L27.4611 21.5794Z" fill="white"/>
<path d="M16.2794 17.4613C15.8895 17.6303 15.597 17.9327 15.363 18.4219C14.4369 20.3253 15.3143 23.7675 17.6345 27.3519L18.0342 27.9746L18.0927 26.507L17.5955 25.9288C16.2989 24.3723 15.5873 22.1576 15.831 20.3609C15.9772 19.2936 16.1332 18.8044 16.4354 18.4842C16.6694 18.2262 16.7181 18.2085 16.9423 18.2974C17.264 18.4308 17.5955 18.84 18.0634 19.6849L18.4436 20.3787L20.2666 18.5731L20.0229 18.4041C19.8962 18.3152 19.3795 18.0484 18.8823 17.826C18.1024 17.4702 17.8684 17.3991 17.2738 17.3724C16.8058 17.3546 16.4744 17.3813 16.2794 17.4613Z" fill="white"/>
<path d="M32.0918 17.4435C31.4873 17.5769 29.7423 18.4486 29.8008 18.5909C29.8203 18.6354 30.22 19.0534 30.6977 19.5248L31.5653 20.3787L31.9943 19.596C32.394 18.8666 32.9496 18.2351 33.1933 18.2351C33.4176 18.2351 33.7685 18.6799 33.9148 19.1335C34.295 20.2987 34.2949 21.8018 33.9245 23.136C33.7003 23.9276 33.0179 25.1906 32.4232 25.911L31.9163 26.5248L31.9748 27.9746L32.3745 27.3519C34.2852 24.399 35.2406 21.5083 34.9481 19.5426C34.6751 17.7193 33.7978 17.0789 32.0918 17.4435Z" fill="white"/>
<path d="M18.8531 21.0547L18.6191 21.5706V32.2706L18.8628 32.5107C19.3795 33.0177 19.1943 32.9999 25.024 32.9999C30.2298 32.9999 30.4247 32.991 30.7367 32.822C30.9122 32.7242 31.1364 32.5196 31.2436 32.3595C31.4386 32.0749 31.4386 31.9326 31.4191 26.8183L31.3898 21.5706L31.1559 21.0547C31.0291 20.7701 30.8927 20.5744 30.8537 20.61C30.8147 20.6455 30.6879 21.0992 30.5612 21.615C30.2103 23.0826 29.8203 23.6341 28.8357 24.0343C28.4555 24.1855 28.1435 24.2033 24.9947 24.1944C21.8946 24.1944 21.5242 24.1766 21.1635 24.0254C20.1984 23.6341 19.7987 23.0737 19.4477 21.615C19.321 21.0992 19.1943 20.6455 19.1455 20.61C19.1065 20.5655 18.9798 20.7612 18.8531 21.0547ZM29.0989 28.019H20.91V26.9517H29.0989V28.019ZM29.0989 31.7102H20.91V29.0864H29.0989V31.7102Z" fill="white"/>
</g>
<defs>
<filter id="filter0_dd_78_4209" x="1" y="3" width="48" height="44" filterUnits="userSpaceOnUse" color-interpolation-filters="sRGB">
<feFlood flood-opacity="0" result="BackgroundImageFix"/>
<feColorMatrix in="SourceAlpha" type="matrix" values="0 0 0 0 0 0 0 0 0 0 0 0 0 0 0 0 0 0 127 0" result="hardAlpha"/>
<feOffset/>
<feGaussianBlur stdDeviation="7"/>
<feColorMatrix type="matrix" values="0 0 0 0 1 0 0 0 0 1 0 0 0 0 1 0 0 0 0.45 0"/>
<feBlend mode="normal" in2="BackgroundImageFix" result="effect1_dropShadow_78_4209"/>
<feColorMatrix in="SourceAlpha" type="matrix" values="0 0 0 0 0 0 0 0 0 0 0 0 0 0 0 0 0 0 127 0" result="hardAlpha"/>
<feOffset/>
<feGaussianBlur stdDeviation="2"/>
<feComposite in2="hardAlpha" operator="out"/>
<feColorMatrix type="matrix" values="0 0 0 0 0 0 0 0 0 0 0 0 0 0 0 0 0 0 0.1 0"/>
<feBlend mode="normal" in2="effect1_dropShadow_78_4209" result="effect2_dropShadow_78_4209"/>
<feBlend mode="normal" in="SourceGraphic" in2="effect2_dropShadow_78_4209" result="shape"/>
</filter>
<radialGradient id="paint0_radial_78_4209" cx="0" cy="0" r="1" gradientUnits="userSpaceOnUse" gradientTransform="translate(25 -0.0714213) rotate(90) scale(55.5179 566.531)">
<stop/>
<stop offset="1" stop-opacity="0"/>
</radialGradient>
</defs>
</svg>
