<svg width="395" height="34" viewBox="0 0 395 34" fill="none" xmlns="http://www.w3.org/2000/svg">
<rect width="34" height="34" rx="2" fill="url(#paint0_linear_240_779)" fill-opacity="0.5"/>
<rect x="0.4" y="0.4" width="33.2" height="33.2" rx="1.6" stroke="white" stroke-opacity="0.15" stroke-width="0.8"/>
<path d="M18.6667 8.66666C19.7717 8.66666 20.8315 9.10564 21.613 9.88704C22.3944 10.6684 22.8333 11.7283 22.8333 12.8333V21.1667C22.8333 22.2717 22.3944 23.3315 21.613 24.1129C20.8315 24.8943 19.7717 25.3333 18.6667 25.3333H15.3333C14.2283 25.3333 13.1685 24.8943 12.3871 24.1129C11.6057 23.3315 11.1667 22.2717 11.1667 21.1667V12.8333C11.1667 11.7283 11.6057 10.6684 12.3871 9.88704C13.1685 9.10564 14.2283 8.66666 15.3333 8.66666H18.6667ZM17 12C16.779 12 16.567 12.0878 16.4107 12.2441C16.2545 12.4003 16.1667 12.6123 16.1667 12.8333V16.1667L16.1725 16.2642C16.1976 16.4751 16.3023 16.6684 16.4651 16.8048C16.628 16.9411 16.8368 17.0101 17.0488 16.9976C17.2609 16.9852 17.4602 16.8922 17.606 16.7378C17.7518 16.5834 17.8331 16.3791 17.8333 16.1667V12.8333L17.8275 12.7358C17.8036 12.5331 17.7062 12.3462 17.5536 12.2106C17.4011 12.075 17.2041 12 17 12Z" fill="white" fill-opacity="0.6"/>
<path d="M41.368 21.5V13.1H44.788C45.684 13.1 46.468 13.28 47.14 13.64C47.82 13.992 48.348 14.484 48.724 15.116C49.1 15.748 49.288 16.476 49.288 17.3C49.288 18.124 49.1 18.852 48.724 19.484C48.348 20.116 47.82 20.612 47.14 20.972C46.468 21.324 45.684 21.5 44.788 21.5H41.368ZM42.256 20.732H44.74C45.484 20.732 46.128 20.588 46.672 20.3C47.224 20.004 47.652 19.6 47.956 19.088C48.26 18.568 48.412 17.972 48.412 17.3C48.412 16.62 48.26 16.024 47.956 15.512C47.652 15 47.224 14.6 46.672 14.312C46.128 14.016 45.484 13.868 44.74 13.868H42.256V20.732ZM51.2821 21.5V13.1H52.1701V21.5H51.2821ZM54.9032 21.5V13.1H58.0472C58.7592 13.1 59.3712 13.216 59.8832 13.448C60.3952 13.672 60.7872 14 61.0592 14.432C61.3392 14.856 61.4792 15.372 61.4792 15.98C61.4792 16.572 61.3392 17.084 61.0592 17.516C60.7872 17.94 60.3952 18.268 59.8832 18.5C59.3712 18.724 58.7592 18.836 58.0472 18.836H55.3952L55.7912 18.428V21.5H54.9032ZM60.6392 21.5L58.4792 18.452H59.4392L61.6112 21.5H60.6392ZM55.7912 18.5L55.3952 18.08H58.0232C58.8632 18.08 59.4992 17.896 59.9312 17.528C60.3712 17.16 60.5912 16.644 60.5912 15.98C60.5912 15.308 60.3712 14.788 59.9312 14.42C59.4992 14.052 58.8632 13.868 58.0232 13.868H55.3952L55.7912 13.448V18.5ZM64.367 16.856H68.807V17.612H64.367V16.856ZM64.463 20.732H69.515V21.5H63.575V13.1H69.335V13.868H64.463V20.732ZM71.6024 21.5V13.1H72.4904V21.5H71.6024ZM76.8555 21.5V13.868H73.9035V13.1H80.6955V13.868H77.7435V21.5H76.8555ZM85.6689 21.572C85.0369 21.572 84.4489 21.468 83.9049 21.26C83.3689 21.044 82.9009 20.744 82.5009 20.36C82.1089 19.968 81.8009 19.516 81.5769 19.004C81.3609 18.484 81.2529 17.916 81.2529 17.3C81.2529 16.684 81.3609 16.12 81.5769 15.608C81.8009 15.088 82.1089 14.636 82.5009 14.252C82.9009 13.86 83.3689 13.56 83.9049 13.352C84.4409 13.136 85.0289 13.028 85.6689 13.028C86.3009 13.028 86.8849 13.136 87.4209 13.352C87.9569 13.56 88.4209 13.856 88.8129 14.24C89.2129 14.624 89.5209 15.076 89.7369 15.596C89.9609 16.116 90.0729 16.684 90.0729 17.3C90.0729 17.916 89.9609 18.484 89.7369 19.004C89.5209 19.524 89.2129 19.976 88.8129 20.36C88.4209 20.744 87.9569 21.044 87.4209 21.26C86.8849 21.468 86.3009 21.572 85.6689 21.572ZM85.6689 20.78C86.1729 20.78 86.6369 20.696 87.0609 20.528C87.4929 20.352 87.8649 20.108 88.1769 19.796C88.4969 19.476 88.7449 19.108 88.9209 18.692C89.0969 18.268 89.1849 17.804 89.1849 17.3C89.1849 16.796 89.0969 16.336 88.9209 15.92C88.7449 15.496 88.4969 15.128 88.1769 14.816C87.8649 14.496 87.4929 14.252 87.0609 14.084C86.6369 13.908 86.1729 13.82 85.6689 13.82C85.1649 13.82 84.6969 13.908 84.2649 14.084C83.8329 14.252 83.4569 14.496 83.1369 14.816C82.8249 15.128 82.5769 15.496 82.3929 15.92C82.2169 16.336 82.1289 16.796 82.1289 17.3C82.1289 17.796 82.2169 18.256 82.3929 18.68C82.5769 19.104 82.8249 19.476 83.1369 19.796C83.4569 20.108 83.8329 20.352 84.2649 20.528C84.6969 20.696 85.1649 20.78 85.6689 20.78ZM95.2039 21.5V13.1H98.3479C99.0599 13.1 99.6719 13.216 100.184 13.448C100.696 13.672 101.088 14 101.36 14.432C101.64 14.856 101.78 15.372 101.78 15.98C101.78 16.572 101.64 17.084 101.36 17.516C101.088 17.94 100.696 18.268 100.184 18.5C99.6719 18.732 99.0599 18.848 98.3479 18.848H95.6959L96.0919 18.428V21.5H95.2039ZM96.0919 18.5L95.6959 18.068H98.3239C99.1639 18.068 99.7999 17.888 100.232 17.528C100.672 17.16 100.892 16.644 100.892 15.98C100.892 15.308 100.672 14.788 100.232 14.42C99.7999 14.052 99.1639 13.868 98.3239 13.868H95.6959L96.0919 13.448V18.5ZM101.934 21.5L105.774 13.1H106.65L110.49 21.5H109.554L106.026 13.616H106.386L102.858 21.5H101.934ZM103.446 19.256L103.71 18.536H108.594L108.858 19.256H103.446ZM111.88 21.5V13.1H115.024C115.736 13.1 116.348 13.216 116.86 13.448C117.372 13.672 117.764 14 118.036 14.432C118.316 14.856 118.456 15.372 118.456 15.98C118.456 16.572 118.316 17.084 118.036 17.516C117.764 17.94 117.372 18.268 116.86 18.5C116.348 18.724 115.736 18.836 115.024 18.836H112.372L112.768 18.428V21.5H111.88ZM117.616 21.5L115.456 18.452H116.416L118.588 21.5H117.616ZM112.768 18.5L112.372 18.08H115C115.84 18.08 116.476 17.896 116.908 17.528C117.348 17.16 117.568 16.644 117.568 15.98C117.568 15.308 117.348 14.788 116.908 14.42C116.476 14.052 115.84 13.868 115 13.868H112.372L112.768 13.448V18.5ZM119.208 21.5L123.048 13.1H123.924L127.764 21.5H126.828L123.3 13.616H123.66L120.132 21.5H119.208ZM120.72 19.256L120.984 18.536H125.868L126.132 19.256H120.72Z" fill="white" fill-opacity="0.6"/>
<path d="M135.666 21.62C134.514 21.62 133.61 21.296 132.954 20.648C132.306 20 131.982 19.064 131.982 17.84V13.1H133.542V17.78C133.542 18.644 133.726 19.272 134.094 19.664C134.47 20.056 134.998 20.252 135.678 20.252C136.358 20.252 136.882 20.056 137.25 19.664C137.618 19.272 137.802 18.644 137.802 17.78V13.1H139.338V17.84C139.338 19.064 139.01 20 138.354 20.648C137.706 21.296 136.81 21.62 135.666 21.62ZM144.127 21.62C143.471 21.62 142.843 21.528 142.243 21.344C141.643 21.152 141.167 20.908 140.815 20.612L141.355 19.4C141.691 19.664 142.107 19.884 142.603 20.06C143.099 20.236 143.607 20.324 144.127 20.324C144.567 20.324 144.923 20.276 145.195 20.18C145.467 20.084 145.667 19.956 145.795 19.796C145.923 19.628 145.987 19.44 145.987 19.232C145.987 18.976 145.895 18.772 145.711 18.62C145.527 18.46 145.287 18.336 144.991 18.248C144.703 18.152 144.379 18.064 144.019 17.984C143.667 17.904 143.311 17.812 142.951 17.708C142.599 17.596 142.275 17.456 141.979 17.288C141.691 17.112 141.455 16.88 141.271 16.592C141.087 16.304 140.995 15.936 140.995 15.488C140.995 15.032 141.115 14.616 141.355 14.24C141.603 13.856 141.975 13.552 142.471 13.328C142.975 13.096 143.611 12.98 144.379 12.98C144.883 12.98 145.383 13.044 145.879 13.172C146.375 13.3 146.807 13.484 147.175 13.724L146.683 14.936C146.307 14.712 145.919 14.548 145.519 14.444C145.119 14.332 144.735 14.276 144.367 14.276C143.935 14.276 143.583 14.328 143.311 14.432C143.047 14.536 142.851 14.672 142.723 14.84C142.603 15.008 142.543 15.2 142.543 15.416C142.543 15.672 142.631 15.88 142.807 16.04C142.991 16.192 143.227 16.312 143.515 16.4C143.811 16.488 144.139 16.576 144.499 16.664C144.859 16.744 145.215 16.836 145.567 16.94C145.927 17.044 146.251 17.18 146.539 17.348C146.835 17.516 147.071 17.744 147.247 18.032C147.431 18.32 147.523 18.684 147.523 19.124C147.523 19.572 147.399 19.988 147.151 20.372C146.911 20.748 146.539 21.052 146.035 21.284C145.531 21.508 144.895 21.62 144.127 21.62ZM147.881 21.5L151.661 13.1H153.197L156.989 21.5H155.357L152.105 13.928H152.729L149.489 21.5H147.881ZM149.621 19.556L150.041 18.332H154.577L154.997 19.556H149.621ZM158.058 21.5V13.1H161.514C162.258 13.1 162.894 13.22 163.422 13.46C163.958 13.7 164.37 14.044 164.658 14.492C164.946 14.94 165.09 15.472 165.09 16.088C165.09 16.704 164.946 17.236 164.658 17.684C164.37 18.124 163.958 18.464 163.422 18.704C162.894 18.936 162.258 19.052 161.514 19.052H158.922L159.618 18.344V21.5H158.058ZM163.554 21.5L161.43 18.452H163.098L165.234 21.5H163.554ZM159.618 18.512L158.922 17.768H161.442C162.13 17.768 162.646 17.62 162.99 17.324C163.342 17.028 163.518 16.616 163.518 16.088C163.518 15.552 163.342 15.14 162.99 14.852C162.646 14.564 162.13 14.42 161.442 14.42H158.922L159.618 13.652V18.512Z" fill="white" fill-opacity="0.9"/>
<rect x="196" width="34" height="34" rx="2" fill="url(#paint1_linear_240_779)" fill-opacity="0.5"/>
<rect x="196.4" y="0.4" width="33.2" height="33.2" rx="1.6" stroke="white" stroke-opacity="0.15" stroke-width="0.8"/>
<path d="M214.667 8.66666C215.772 8.66666 216.832 9.10564 217.613 9.88704C218.394 10.6684 218.833 11.7283 218.833 12.8333V21.1667C218.833 22.2717 218.394 23.3315 217.613 24.1129C216.832 24.8943 215.772 25.3333 214.667 25.3333H211.333C210.228 25.3333 209.168 24.8943 208.387 24.1129C207.606 23.3315 207.167 22.2717 207.167 21.1667V12.8333C207.167 11.7283 207.606 10.6684 208.387 9.88704C209.168 9.10564 210.228 8.66666 211.333 8.66666H214.667ZM213 12C212.779 12 212.567 12.0878 212.411 12.2441C212.254 12.4003 212.167 12.6123 212.167 12.8333V16.1667L212.172 16.2642C212.198 16.4751 212.302 16.6684 212.465 16.8048C212.628 16.9411 212.837 17.0101 213.049 16.9976C213.261 16.9852 213.46 16.8922 213.606 16.7378C213.752 16.5834 213.833 16.3791 213.833 16.1667V12.8333L213.827 12.7358C213.804 12.5331 213.706 12.3462 213.554 12.2106C213.401 12.075 213.204 12 213 12Z" fill="white" fill-opacity="0.6"/>
<path d="M238.16 16.856H242.6V17.612H238.16V16.856ZM238.256 20.732H243.308V21.5H237.368V13.1H243.128V13.868H238.256V20.732ZM247.711 21.572C247.087 21.572 246.487 21.472 245.911 21.272C245.343 21.064 244.903 20.8 244.591 20.48L244.939 19.796C245.235 20.084 245.631 20.328 246.127 20.528C246.631 20.72 247.159 20.816 247.711 20.816C248.239 20.816 248.667 20.752 248.995 20.624C249.331 20.488 249.575 20.308 249.727 20.084C249.887 19.86 249.967 19.612 249.967 19.34C249.967 19.012 249.871 18.748 249.679 18.548C249.495 18.348 249.251 18.192 248.947 18.08C248.643 17.96 248.307 17.856 247.939 17.768C247.571 17.68 247.203 17.588 246.835 17.492C246.467 17.388 246.127 17.252 245.815 17.084C245.511 16.916 245.263 16.696 245.071 16.424C244.887 16.144 244.795 15.78 244.795 15.332C244.795 14.916 244.903 14.536 245.119 14.192C245.343 13.84 245.683 13.56 246.139 13.352C246.595 13.136 247.179 13.028 247.891 13.028C248.363 13.028 248.831 13.096 249.295 13.232C249.759 13.36 250.159 13.54 250.495 13.772L250.195 14.48C249.835 14.24 249.451 14.064 249.043 13.952C248.643 13.84 248.255 13.784 247.879 13.784C247.375 13.784 246.959 13.852 246.631 13.988C246.303 14.124 246.059 14.308 245.899 14.54C245.747 14.764 245.671 15.02 245.671 15.308C245.671 15.636 245.763 15.9 245.947 16.1C246.139 16.3 246.387 16.456 246.691 16.568C247.003 16.68 247.343 16.78 247.711 16.868C248.079 16.956 248.443 17.052 248.803 17.156C249.171 17.26 249.507 17.396 249.811 17.564C250.123 17.724 250.371 17.94 250.555 18.212C250.747 18.484 250.843 18.84 250.843 19.28C250.843 19.688 250.731 20.068 250.507 20.42C250.283 20.764 249.939 21.044 249.475 21.26C249.019 21.468 248.431 21.572 247.711 21.572ZM256.45 21.572C255.818 21.572 255.23 21.468 254.686 21.26C254.15 21.044 253.682 20.744 253.282 20.36C252.89 19.968 252.582 19.516 252.358 19.004C252.142 18.484 252.034 17.916 252.034 17.3C252.034 16.684 252.142 16.12 252.358 15.608C252.582 15.088 252.89 14.636 253.282 14.252C253.682 13.86 254.15 13.56 254.686 13.352C255.222 13.136 255.81 13.028 256.45 13.028C257.082 13.028 257.666 13.136 258.202 13.352C258.738 13.56 259.202 13.856 259.594 14.24C259.994 14.624 260.302 15.076 260.518 15.596C260.742 16.116 260.854 16.684 260.854 17.3C260.854 17.916 260.742 18.484 260.518 19.004C260.302 19.524 259.994 19.976 259.594 20.36C259.202 20.744 258.738 21.044 258.202 21.26C257.666 21.468 257.082 21.572 256.45 21.572ZM259.198 23.168C258.942 23.168 258.694 23.136 258.454 23.072C258.214 23.008 257.97 22.904 257.722 22.76C257.482 22.624 257.234 22.444 256.978 22.22C256.722 21.996 256.442 21.724 256.138 21.404L257.11 21.164C257.358 21.46 257.598 21.704 257.83 21.896C258.07 22.088 258.302 22.228 258.526 22.316C258.758 22.412 258.986 22.46 259.21 22.46C259.834 22.46 260.366 22.204 260.806 21.692L261.238 22.208C260.71 22.848 260.03 23.168 259.198 23.168ZM256.45 20.78C256.954 20.78 257.418 20.696 257.842 20.528C258.274 20.352 258.646 20.104 258.958 19.784C259.278 19.464 259.526 19.096 259.702 18.68C259.878 18.256 259.966 17.796 259.966 17.3C259.966 16.796 259.878 16.336 259.702 15.92C259.526 15.496 259.278 15.128 258.958 14.816C258.646 14.496 258.274 14.252 257.842 14.084C257.418 13.908 256.954 13.82 256.45 13.82C255.946 13.82 255.478 13.908 255.046 14.084C254.614 14.252 254.238 14.496 253.918 14.816C253.606 15.128 253.358 15.496 253.174 15.92C252.998 16.336 252.91 16.796 252.91 17.3C252.91 17.796 252.998 18.256 253.174 18.68C253.358 19.096 253.606 19.464 253.918 19.784C254.238 20.104 254.614 20.352 255.046 20.528C255.478 20.696 255.946 20.78 256.45 20.78ZM266.229 21.572C265.157 21.572 264.313 21.264 263.697 20.648C263.081 20.032 262.773 19.12 262.773 17.912V13.1H263.661V17.876C263.661 18.868 263.885 19.6 264.333 20.072C264.781 20.544 265.413 20.78 266.229 20.78C267.053 20.78 267.689 20.544 268.137 20.072C268.585 19.6 268.809 18.868 268.809 17.876V13.1H269.673V17.912C269.673 19.12 269.365 20.032 268.749 20.648C268.141 21.264 267.301 21.572 266.229 21.572ZM273.14 16.856H277.58V17.612H273.14V16.856ZM273.236 20.732H278.288V21.5H272.348V13.1H278.108V13.868H273.236V20.732ZM280.376 21.5V13.1H283.52C284.232 13.1 284.844 13.216 285.356 13.448C285.868 13.672 286.26 14 286.532 14.432C286.812 14.856 286.952 15.372 286.952 15.98C286.952 16.572 286.812 17.084 286.532 17.516C286.26 17.94 285.868 18.268 285.356 18.5C284.844 18.724 284.232 18.836 283.52 18.836H280.868L281.264 18.428V21.5H280.376ZM286.112 21.5L283.952 18.452H284.912L287.084 21.5H286.112ZM281.264 18.5L280.868 18.08H283.496C284.336 18.08 284.972 17.896 285.404 17.528C285.844 17.16 286.064 16.644 286.064 15.98C286.064 15.308 285.844 14.788 285.404 14.42C284.972 14.052 284.336 13.868 283.496 13.868H280.868L281.264 13.448V18.5ZM289.048 21.5V13.1H292.468C293.364 13.1 294.148 13.28 294.82 13.64C295.5 13.992 296.028 14.484 296.404 15.116C296.78 15.748 296.968 16.476 296.968 17.3C296.968 18.124 296.78 18.852 296.404 19.484C296.028 20.116 295.5 20.612 294.82 20.972C294.148 21.324 293.364 21.5 292.468 21.5H289.048ZM289.936 20.732H292.42C293.164 20.732 293.808 20.588 294.352 20.3C294.904 20.004 295.332 19.6 295.636 19.088C295.94 18.568 296.092 17.972 296.092 17.3C296.092 16.62 295.94 16.024 295.636 15.512C295.332 15 294.904 14.6 294.352 14.312C293.808 14.016 293.164 13.868 292.42 13.868H289.936V20.732ZM302.634 21.572C302.002 21.572 301.414 21.468 300.87 21.26C300.334 21.044 299.866 20.744 299.466 20.36C299.074 19.968 298.766 19.516 298.542 19.004C298.326 18.484 298.218 17.916 298.218 17.3C298.218 16.684 298.326 16.12 298.542 15.608C298.766 15.088 299.074 14.636 299.466 14.252C299.866 13.86 300.334 13.56 300.87 13.352C301.406 13.136 301.994 13.028 302.634 13.028C303.266 13.028 303.85 13.136 304.386 13.352C304.922 13.56 305.386 13.856 305.778 14.24C306.178 14.624 306.486 15.076 306.702 15.596C306.926 16.116 307.038 16.684 307.038 17.3C307.038 17.916 306.926 18.484 306.702 19.004C306.486 19.524 306.178 19.976 305.778 20.36C305.386 20.744 304.922 21.044 304.386 21.26C303.85 21.468 303.266 21.572 302.634 21.572ZM302.634 20.78C303.138 20.78 303.602 20.696 304.026 20.528C304.458 20.352 304.83 20.108 305.142 19.796C305.462 19.476 305.71 19.108 305.886 18.692C306.062 18.268 306.15 17.804 306.15 17.3C306.15 16.796 306.062 16.336 305.886 15.92C305.71 15.496 305.462 15.128 305.142 14.816C304.83 14.496 304.458 14.252 304.026 14.084C303.602 13.908 303.138 13.82 302.634 13.82C302.13 13.82 301.662 13.908 301.23 14.084C300.798 14.252 300.422 14.496 300.102 14.816C299.79 15.128 299.542 15.496 299.358 15.92C299.182 16.336 299.094 16.796 299.094 17.3C299.094 17.796 299.182 18.256 299.358 18.68C299.542 19.104 299.79 19.476 300.102 19.796C300.422 20.108 300.798 20.352 301.23 20.528C301.662 20.696 302.13 20.78 302.634 20.78ZM312.169 21.5V13.1H315.313C316.025 13.1 316.637 13.216 317.149 13.448C317.661 13.672 318.053 14 318.325 14.432C318.605 14.856 318.745 15.372 318.745 15.98C318.745 16.572 318.605 17.084 318.325 17.516C318.053 17.94 317.661 18.268 317.149 18.5C316.637 18.732 316.025 18.848 315.313 18.848H312.661L313.057 18.428V21.5H312.169ZM313.057 18.5L312.661 18.068H315.289C316.129 18.068 316.765 17.888 317.197 17.528C317.637 17.16 317.857 16.644 317.857 15.98C317.857 15.308 317.637 14.788 317.197 14.42C316.765 14.052 316.129 13.868 315.289 13.868H312.661L313.057 13.448V18.5ZM318.899 21.5L322.739 13.1H323.615L327.455 21.5H326.519L322.991 13.616H323.351L319.823 21.5H318.899ZM320.411 19.256L320.675 18.536H325.559L325.823 19.256H320.411ZM328.845 21.5V13.1H331.989C332.701 13.1 333.313 13.216 333.825 13.448C334.337 13.672 334.729 14 335.001 14.432C335.281 14.856 335.421 15.372 335.421 15.98C335.421 16.572 335.281 17.084 335.001 17.516C334.729 17.94 334.337 18.268 333.825 18.5C333.313 18.724 332.701 18.836 331.989 18.836H329.337L329.733 18.428V21.5H328.845ZM334.581 21.5L332.421 18.452H333.381L335.553 21.5H334.581ZM329.733 18.5L329.337 18.08H331.965C332.805 18.08 333.441 17.896 333.873 17.528C334.313 17.16 334.533 16.644 334.533 15.98C334.533 15.308 334.313 14.788 333.873 14.42C333.441 14.052 332.805 13.868 331.965 13.868H329.337L329.733 13.448V18.5ZM336.172 21.5L340.012 13.1H340.888L344.728 21.5H343.792L340.264 13.616H340.624L337.096 21.5H336.172ZM337.684 19.256L337.948 18.536H342.832L343.096 19.256H337.684Z" fill="white" fill-opacity="0.6"/>
<path d="M349.019 21.5V13.1H350.303L353.975 19.232H353.303L356.915 13.1H358.199L358.211 21.5H356.735L356.723 15.416H357.035L353.963 20.54H353.267L350.147 15.416H350.507V21.5H349.019ZM364.416 21.62C363.76 21.62 363.156 21.512 362.604 21.296C362.052 21.08 361.572 20.78 361.164 20.396C360.756 20.004 360.44 19.548 360.216 19.028C359.992 18.5 359.88 17.924 359.88 17.3C359.88 16.676 359.992 16.104 360.216 15.584C360.44 15.056 360.756 14.6 361.164 14.216C361.572 13.824 362.052 13.52 362.604 13.304C363.156 13.088 363.756 12.98 364.404 12.98C365.06 12.98 365.66 13.088 366.204 13.304C366.756 13.52 367.236 13.824 367.644 14.216C368.052 14.6 368.368 15.056 368.592 15.584C368.816 16.104 368.928 16.676 368.928 17.3C368.928 17.924 368.816 18.5 368.592 19.028C368.368 19.556 368.052 20.012 367.644 20.396C367.236 20.78 366.756 21.08 366.204 21.296C365.66 21.512 365.064 21.62 364.416 21.62ZM364.404 20.252C364.828 20.252 365.22 20.18 365.58 20.036C365.94 19.892 366.252 19.688 366.516 19.424C366.78 19.152 366.984 18.84 367.128 18.488C367.28 18.128 367.356 17.732 367.356 17.3C367.356 16.868 367.28 16.476 367.128 16.124C366.984 15.764 366.78 15.452 366.516 15.188C366.252 14.916 365.94 14.708 365.58 14.564C365.22 14.42 364.828 14.348 364.404 14.348C363.98 14.348 363.588 14.42 363.228 14.564C362.876 14.708 362.564 14.916 362.292 15.188C362.028 15.452 361.82 15.764 361.668 16.124C361.524 16.476 361.452 16.868 361.452 17.3C361.452 17.724 361.524 18.116 361.668 18.476C361.82 18.836 362.028 19.152 362.292 19.424C362.556 19.688 362.868 19.892 363.228 20.036C363.588 20.18 363.98 20.252 364.404 20.252ZM372.807 21.5L369.135 13.1H370.827L374.103 20.696H373.131L376.443 13.1H378.003L374.343 21.5H372.807ZM380.33 16.592H384.506V17.876H380.33V16.592ZM380.45 20.192H385.19V21.5H378.89V13.1H385.022V14.408H380.45V20.192ZM386.929 21.5V13.1H390.385C391.129 13.1 391.765 13.22 392.293 13.46C392.829 13.7 393.241 14.044 393.529 14.492C393.817 14.94 393.961 15.472 393.961 16.088C393.961 16.704 393.817 17.236 393.529 17.684C393.241 18.124 392.829 18.464 392.293 18.704C391.765 18.936 391.129 19.052 390.385 19.052H387.793L388.489 18.344V21.5H386.929ZM392.425 21.5L390.301 18.452H391.969L394.105 21.5H392.425ZM388.489 18.512L387.793 17.768H390.313C391.001 17.768 391.517 17.62 391.861 17.324C392.213 17.028 392.389 16.616 392.389 16.088C392.389 15.552 392.213 15.14 391.861 14.852C391.517 14.564 391.001 14.42 390.313 14.42H387.793L388.489 13.652V18.512Z" fill="white" fill-opacity="0.9"/>
<defs>
<linearGradient id="paint0_linear_240_779" x1="0" y1="17" x2="34" y2="17" gradientUnits="userSpaceOnUse">
<stop/>
<stop offset="1" stop-opacity="0.85"/>
</linearGradient>
<linearGradient id="paint1_linear_240_779" x1="196" y1="17" x2="230" y2="17" gradientUnits="userSpaceOnUse">
<stop/>
<stop offset="1" stop-opacity="0.85"/>
</linearGradient>
</defs>
</svg>
