<svg width="38" height="42" viewBox="0 0 38 42" fill="none" xmlns="http://www.w3.org/2000/svg">
<path d="M20.6929 40.4932C19.6394 41.0754 18.3606 41.0754 17.3071 40.4932L2.30709 32.2037C1.19214 31.5875 0.499999 30.4142 0.499999 29.1403L0.499999 12.8591C0.499999 11.5852 1.19217 10.4118 2.30717 9.7957L17.3072 1.50671C18.3606 0.924564 19.6393 0.924564 20.6928 1.50671L35.6928 9.79569C36.8078 10.4118 37.5 11.5852 37.5 12.8591L37.5 29.1403C37.5 30.4142 36.8079 31.5875 35.6929 32.2036L20.6929 40.4932Z" fill="url(#paint0_linear_229_6244)" stroke="#D3132F"/>
<path d="M14.8333 15.1666H28.1667V18.5H27.3333V19.3333H22.3333C22.1123 19.3333 21.9004 19.4211 21.7441 19.5774C21.5878 19.7337 21.5 19.9456 21.5 20.1666V21C21.5 21.442 21.3244 21.8659 21.0118 22.1785C20.6993 22.4911 20.2754 22.6666 19.8333 22.6666H17.0167C16.7 22.6666 16.4083 22.85 16.2667 23.1333L14.225 27.2083C14.0833 27.4916 13.8 27.6666 13.4833 27.6666H10.6667C10.6667 27.6666 8.16666 27.6666 11.5 22.6666C11.5 22.6666 14 19.3333 10.6667 19.3333V15.1666H11.5L11.9167 14.3333H14.4167L14.8333 15.1666ZM20.6667 21V20.1666C20.6667 19.9456 20.5789 19.7337 20.4226 19.5774C20.2663 19.4211 20.0543 19.3333 19.8333 19.3333H19C19 19.3333 18.1667 20.1666 19 21C18.558 21 18.134 20.8244 17.8215 20.5118C17.5089 20.1993 17.3333 19.7753 17.3333 19.3333C17.1123 19.3333 16.9004 19.4211 16.7441 19.5774C16.5878 19.7337 16.5 19.9456 16.5 20.1666V21C16.5 21.221 16.5878 21.433 16.7441 21.5892C16.9004 21.7455 17.1123 21.8333 17.3333 21.8333H19.8333C20.0543 21.8333 20.2663 21.7455 20.4226 21.5892C20.5789 21.433 20.6667 21.221 20.6667 21Z" fill="white"/>
<defs>
<linearGradient id="paint0_linear_229_6244" x1="19" y1="-8.30516e-07" x2="19" y2="42" gradientUnits="userSpaceOnUse">
<stop stop-color="#D3132F"/>
<stop offset="1" stop-color="#B10D25"/>
</linearGradient>
</defs>
</svg>
