<svg width="13" height="17" viewBox="0 0 13 17" fill="none" xmlns="http://www.w3.org/2000/svg">
<path fill-rule="evenodd" clip-rule="evenodd" d="M8.37672 0.819265C8.1454 0.562453 7.85778 0.35618 7.53373 0.214722C7.20969 0.0732642 6.85698 0 6.5 0C6.14302 0 5.79031 0.0732642 5.46627 0.214722C5.14222 0.35618 4.8546 0.562453 4.62328 0.819265L4.58879 0.858053C4.50439 0.951567 4.39769 1.02481 4.27745 1.07174C4.15722 1.11868 4.02691 1.13796 3.89724 1.12801L3.84385 1.12414C3.48816 1.09721 3.13053 1.14358 2.79567 1.26003C2.46082 1.37648 2.15674 1.56023 1.90446 1.79859C1.65218 2.03694 1.45773 2.32421 1.33454 2.64052C1.21135 2.95683 1.16237 3.29464 1.19099 3.63059L1.19428 3.68101C1.20481 3.80349 1.18439 3.92657 1.1347 4.04013C1.08501 4.15369 1.00746 4.25448 0.908456 4.33419L0.86739 4.36678C0.595492 4.58525 0.377102 4.85692 0.227335 5.16299C0.077568 5.46905 0 5.8022 0 6.13937C0 6.47654 0.077568 6.80968 0.227335 7.11575C0.377102 7.42181 0.595492 7.69348 0.86739 7.91196L0.908456 7.94454C1.00746 8.02425 1.08501 8.12504 1.1347 8.2386C1.18439 8.35216 1.20481 8.47525 1.19428 8.59772L1.19017 8.64815C1.14125 9.22502 1.32149 9.79843 1.69576 10.2566C2.07004 10.7148 2.61154 11.025 3.21472 11.1267V16.2241C3.2147 16.3646 3.25504 16.5024 3.33145 16.6229C3.40786 16.7434 3.51746 16.842 3.64857 16.9082C3.77968 16.9745 3.92737 17.0059 4.07589 16.9991C4.22441 16.9923 4.36818 16.9475 4.49187 16.8696L6.5 15.6051L8.50813 16.8696C8.63182 16.9475 8.77559 16.9923 8.92411 16.9991C9.07263 17.0059 9.22032 16.9745 9.35143 16.9082C9.48254 16.842 9.59214 16.7434 9.66855 16.6229C9.74496 16.5024 9.7853 16.3646 9.78528 16.2241V11.1274C10.3886 11.0258 10.9302 10.7155 11.3045 10.2571C11.6788 9.79875 11.859 9.22515 11.8098 8.64815L11.8057 8.59772C11.7952 8.47525 11.8156 8.35216 11.8653 8.2386C11.915 8.12504 11.9925 8.02425 12.0915 7.94454L12.1326 7.91196C12.4045 7.69348 12.6229 7.42181 12.7727 7.11575C12.9224 6.80968 13 6.47654 13 6.13937C13 5.8022 12.9224 5.46905 12.7727 5.16299C12.6229 4.85692 12.4045 4.58525 12.1326 4.36678L12.0915 4.33419C11.9925 4.25448 11.915 4.15369 11.8653 4.04013C11.8156 3.92657 11.7952 3.80349 11.8057 3.68101L11.8098 3.63059C11.8383 3.29463 11.7892 2.95684 11.666 2.64056C11.5427 2.32429 11.3481 2.03708 11.0958 1.7988C10.8434 1.56052 10.5393 1.37685 10.2044 1.2605C9.86948 1.14414 9.51183 1.09788 9.15615 1.12491L9.10276 1.12801C8.97309 1.13796 8.84278 1.11868 8.72255 1.07174C8.60231 1.02481 8.49561 0.951567 8.41121 0.858053L8.37672 0.819265ZM4.85736 14.775V11.686C5.30927 12.0673 5.89402 12.2781 6.5 12.2781C7.10598 12.2781 7.69073 12.0673 8.14264 11.686V14.7735L6.95583 14.0264C6.82087 13.9414 6.66225 13.896 6.5 13.896C6.33775 13.896 6.17913 13.9414 6.04417 14.0264L4.85736 14.775ZM8.72331 5.91207C8.87292 5.76576 8.95571 5.56981 8.95384 5.36641C8.95196 5.16301 8.86559 4.96844 8.71331 4.82461C8.56103 4.68078 8.35503 4.59919 8.13968 4.59743C7.92434 4.59566 7.71687 4.67385 7.56197 4.81516L5.67868 6.59396L5.43803 6.36666C5.28313 6.22535 5.07566 6.14716 4.86032 6.14893C4.64497 6.1507 4.43897 6.23228 4.28669 6.37611C4.13441 6.51994 4.04804 6.71451 4.04616 6.91791C4.04429 7.12131 4.12708 7.31727 4.27669 7.46357L5.09801 8.23933C5.25203 8.38476 5.4609 8.46646 5.67868 8.46646C5.89646 8.46646 6.10533 8.38476 6.25935 8.23933L8.72331 5.91207Z" fill="#FFA800"/>
</svg>
