<svg width="66" height="66" viewBox="0 0 66 66" fill="none" xmlns="http://www.w3.org/2000/svg">
<path d="M4.33013 38.5C2.36517 35.0966 2.36516 30.9034 4.33013 27.5L13.9019 10.9212C15.8669 7.51775 19.4983 5.42116 23.4282 5.42116L42.5718 5.42116C46.5017 5.42116 50.1331 7.51775 52.0981 10.9212L61.6699 27.5C63.6348 30.9034 63.6348 35.0966 61.6699 38.5L52.0981 55.0788C50.1331 58.4822 46.5017 60.5788 42.5718 60.5788L23.4282 60.5788C19.4983 60.5788 15.8669 58.4822 13.9019 55.0788L4.33013 38.5Z" fill="url(#paint0_radial_279_4015)" fill-opacity="0.45" stroke="#2981FF" stroke-width="2"/>
<path d="M7.88675 38C6.10042 34.906 6.10042 31.094 7.88675 28L16.1132 13.7513C17.8996 10.6573 21.2008 8.75129 24.7735 8.75129L41.2265 8.75129C44.7992 8.75129 48.1004 10.6573 49.8868 13.7513L58.1132 28C59.8996 31.094 59.8996 34.906 58.1132 38L49.8868 52.2487C48.1004 55.3427 44.7992 57.2487 41.2265 57.2487L24.7735 57.2487C21.2008 57.2487 17.8996 55.3427 16.1132 52.2487L7.88675 38Z" fill="#2981FF"/>
<g clip-path="url(#clip0_279_4015)">
<path d="M27.15 20.0704C26.4152 20.2198 25.5504 20.6908 24.6856 21.4155C24.451 21.6101 23.9282 22.1684 23.9282 22.222C23.9282 22.2474 24.0921 22.6422 24.5782 23.7927C24.7224 24.1339 24.906 24.571 24.988 24.7656C25.07 24.9602 25.2537 25.3973 25.3978 25.7385C25.5419 26.0797 25.7454 26.5619 25.85 26.8101C25.9545 27.0582 26.158 27.5404 26.3021 27.8816C26.4463 28.2229 26.63 28.66 26.7119 28.8545C26.9126 29.3283 27.2574 30.1461 27.5739 30.899C27.718 31.2402 27.9215 31.7224 28.026 31.9706C28.5206 33.1465 28.7552 33.6992 28.936 34.1278C29.0434 34.3845 29.1989 34.7539 29.278 34.9513C29.36 35.1487 29.4306 35.3122 29.4391 35.3122C29.4476 35.3122 29.4843 35.2276 29.5182 35.1205C29.6595 34.72 30.0269 34.1983 30.5554 33.6541C30.7419 33.4623 30.9708 33.248 31.0669 33.1803C31.5615 32.8278 32.268 32.6333 33.0621 32.6333C33.8252 32.6333 34.3367 32.7573 35.1111 33.1268C36.2443 33.671 37.2815 34.4211 38.6097 35.6675C39.1778 36.2005 39.4095 36.3923 39.7571 36.6179C40.2574 36.9422 40.7661 37.1537 41.368 37.2834C41.6563 37.3454 42.1593 37.4018 42.2893 37.3849C42.3317 37.3793 42.4589 37.368 42.5663 37.3595C42.8517 37.337 43.383 37.1706 43.7447 36.9873C44.4456 36.6376 45.3726 35.9411 45.7739 35.4617C45.9604 35.2389 45.9915 35.1853 45.9717 35.1346C45.9293 35.019 45.74 34.5649 45.5478 34.1137C45.4432 33.8656 45.2397 33.3834 45.0956 33.0422C44.9515 32.701 44.748 32.2187 44.6434 31.9706C44.3806 31.353 43.8917 30.1912 43.6232 29.5511C43.4989 29.2606 43.2982 28.7812 43.1739 28.4879C43.0495 28.1918 42.8489 27.7153 42.7245 27.422C42.4476 26.7593 42.0406 25.7949 41.7834 25.1886C41.6761 24.932 41.5065 24.5315 41.4076 24.3003C41.3115 24.0662 41.125 23.6292 40.9978 23.3274C40.8706 23.0257 40.7011 22.6224 40.6219 22.4307C40.5428 22.2417 40.4693 22.0895 40.458 22.0923C40.4467 22.0979 40.3365 22.2248 40.2121 22.3771C39.9521 22.6901 39.8052 22.8311 39.4971 23.0511C38.6578 23.6517 37.3097 24.1621 36.4082 24.2213C35.6254 24.2721 34.4356 23.945 33.503 23.4233C32.7795 23.02 32.1437 22.5322 31.3608 21.7905C31.0895 21.5311 30.7758 21.2463 30.6628 21.156C29.8941 20.5357 29.196 20.217 28.2804 20.0704C27.9582 20.0196 27.4043 20.0196 27.15 20.0704Z" fill="#1E1E1E"/>
<path d="M22.4445 22.6789C22.3823 22.7071 22.0149 22.8594 21.6249 23.0173C20.7177 23.3867 20.1101 23.6377 20.0508 23.6687C20.0112 23.6913 20.0197 23.7251 20.1271 23.9818C20.404 24.6445 20.6273 25.1774 20.8336 25.6681C20.9523 25.9557 21.1642 26.4549 21.2999 26.782C21.4355 27.1063 21.6475 27.6082 21.7662 27.8959C22.0573 28.5868 22.3879 29.3763 22.6423 29.9826C22.7553 30.2533 22.9475 30.7102 23.0662 30.9978C23.1849 31.2854 23.3771 31.7423 23.4901 32.013C23.7586 32.6475 24.0921 33.4427 24.3662 34.0998C24.4849 34.3874 24.6629 34.8104 24.7618 35.0445C24.9795 35.5605 25.3723 36.4995 25.6662 37.2017C25.7849 37.4894 25.9629 37.9123 26.0618 38.1464C26.5395 39.2857 26.7655 39.8271 26.9662 40.3037C27.0849 40.5913 27.2629 41.0143 27.3618 41.2484C27.4579 41.4796 27.6558 41.9505 27.7999 42.2917C28.351 43.6087 28.4782 43.9132 28.6618 44.3503C28.9868 45.1286 29.3373 45.9577 29.3429 45.969C29.3514 45.9774 29.5888 45.8844 30.3999 45.5488C31.5642 45.0666 31.9118 44.9228 31.9203 44.9143C31.926 44.9087 31.8299 44.6661 31.7055 44.3729C31.4851 43.8512 31.259 43.3154 30.8351 42.2974C30.7164 42.0154 30.5384 41.5868 30.4366 41.3471C30.1399 40.6477 29.4729 39.0488 29.326 38.6963C29.1479 38.2677 28.7918 37.416 28.6053 36.9761C28.5234 36.7815 28.3566 36.3896 28.2379 36.1019C28.0175 35.569 27.7829 35.0134 27.3816 34.0575C27.2573 33.7614 27.0566 33.2876 26.9379 33C26.7288 32.4952 26.4038 31.7225 26.0336 30.8427C25.9347 30.6087 25.7595 30.1913 25.6436 29.9121C25.0727 28.5473 24.841 27.9946 24.7053 27.6703C24.5668 27.3403 24.4482 27.0583 23.9084 25.7668C23.7897 25.4876 23.5777 24.98 23.4336 24.6388C23.2923 24.2976 23.0436 23.7054 22.8825 23.3191C22.7214 22.9356 22.5829 22.6225 22.5745 22.6254C22.566 22.6254 22.5066 22.6507 22.4445 22.6789Z" fill="#1E1E1E"/>
</g>
<defs>
<radialGradient id="paint0_radial_279_4015" cx="0" cy="0" r="1" gradientUnits="userSpaceOnUse" gradientTransform="translate(32.9999 -0.0942811) rotate(90) scale(73.2836 747.82)">
<stop/>
<stop offset="1" stop-opacity="0"/>
</radialGradient>
<clipPath id="clip0_279_4015">
<rect width="26" height="26" fill="white" transform="translate(20 20)"/>
</clipPath>
</defs>
</svg>
