<svg width="55" height="56" viewBox="0 0 55 56" fill="none" xmlns="http://www.w3.org/2000/svg">
<path d="M32.0833 41.75C32.0833 41.75 38.9583 23.4167 38.9583 14.25C38.9583 5.08333 34.3749 5.08333 34.3749 5.08333H32.0833C32.0833 5.08333 29.7916 5.08333 29.7916 7.375C29.7916 9.66667 32.0833 9.66667 32.0833 14.25C32.0833 18.8333 25.2083 23.4167 25.2083 30.2917C25.2083 37.1667 32.0833 41.75 32.0833 41.75ZM9.16658 39.4583C6.64575 39.4583 4.58325 41.5208 4.58325 44.0417V46.3333C4.58325 48.8542 6.64575 50.9167 9.16658 50.9167H22.9166C27.4999 50.9167 29.7916 46.7917 29.7916 46.7917C30.2499 46.3333 30.4791 45.4167 29.7916 44.9583C29.7916 44.9583 22.9166 39.2292 20.6249 39.2292H9.16658V39.4583Z" fill="#2981FF"/>
</svg>
