<svg width="55" height="55" viewBox="0 0 55 55" fill="none" xmlns="http://www.w3.org/2000/svg">
<path d="M17.8106 7.18651C16.6074 7.57323 15.3184 8.57225 14.7383 9.54979C14.5879 9.8076 13.8897 11.4082 13.2022 13.0947C12.1817 15.5654 11.9024 16.167 11.7412 16.1562C11.6338 16.1455 10.9463 15.9844 10.2051 15.791C8.99122 15.4795 8.81935 15.458 8.37892 15.5762C7.75587 15.748 7.15431 16.3496 6.98243 16.9726C6.89649 17.2734 6.86427 17.9072 6.89649 18.6377L6.93946 19.8301L6.14454 20.4101C5.08107 21.1943 3.39454 22.9668 2.66407 24.0732C1.47169 25.8779 0.676769 27.79 0.257823 29.917C-0.0322156 31.3672 -0.0107313 34.1601 0.311534 35.6641C0.97755 38.8008 2.2881 41.2607 4.50099 43.4844C7.37989 46.3955 11.2363 48.0068 15.2969 48.0176C20.5391 48.0283 25.3408 45.4502 28.209 41.0781C28.7568 40.2402 29.5088 38.8115 29.7344 38.1348L29.8525 37.8125H37.5869H45.3106L45.3535 39.7676C45.3857 41.6797 45.3965 41.7441 45.665 42.1631C46.0303 42.7217 46.2559 42.9043 46.8359 43.1728C47.2764 43.3769 47.5342 43.3984 49.5215 43.3984C51.6055 43.3984 51.7559 43.3877 52.2607 43.1406C52.8945 42.8506 53.292 42.4209 53.5391 41.7656C53.7002 41.3467 53.7217 40.5732 53.6787 33.999L53.6465 26.6943L53.3565 25.3945C53.2061 24.6855 52.8945 23.6221 52.6904 23.0312C52.1318 21.4951 52.1533 21.5918 52.3897 21.5918C52.8408 21.5918 53.7324 21.2373 54.1084 20.915C54.3232 20.7324 54.6133 20.3349 54.7422 20.0342C54.957 19.5723 55 19.3252 55 18.3047C55 17.2627 54.9678 17.0586 54.7315 16.5859C54.3877 15.8877 53.7861 15.5224 53.0127 15.5439C52.7227 15.5439 51.9277 15.7051 51.251 15.8984C50.585 16.081 49.9941 16.1992 49.9512 16.1455C49.8975 16.1025 49.3174 14.7275 48.6621 13.1055C47.2119 9.56053 47.2012 9.53905 46.5459 8.80858C45.8906 8.07811 44.9561 7.46581 44.0645 7.19725C43.3984 6.99315 43.0547 6.98241 30.8945 6.99315C19.1318 6.99315 18.3906 7.00389 17.8106 7.18651ZM42.6035 9.28123C43.334 9.61424 43.8926 10.1299 44.1934 10.7314C44.8701 12.0635 48.1572 20.292 48.2109 20.7539C48.2539 21.2266 48.2324 21.291 47.8779 21.6455L47.502 22.0215H36.9639H26.4258L25.5986 21.2588C24.0733 19.873 22.1611 18.7558 20.1416 18.1006C18.8096 17.6601 18.0684 17.5205 16.3067 17.3594L14.9424 17.2412L16.3281 13.8682C17.7891 10.3232 18.0039 9.93651 18.8525 9.47459C19.6475 9.03416 19.4434 9.04491 30.9375 9.03416L42.0557 9.02342L42.6035 9.28123ZM18.3154 22.1719C20.7217 22.8916 22.6445 24.2129 24.084 26.1465C26.8662 29.8955 26.9951 34.8369 24.3955 38.7793C23.794 39.6924 22.419 41.0674 21.4522 41.7119C18.7344 43.5273 15.4258 44.0322 12.2676 43.1191C8.96974 42.1631 6.18751 39.499 5.07032 36.2549C4.49024 34.5576 4.32911 32.2373 4.67286 30.5615C5.51075 26.5117 8.44337 23.332 12.3858 22.1826C13.4815 21.8711 13.9756 21.8174 15.6836 21.8496C17.1016 21.8818 17.4883 21.9355 18.3154 22.1719ZM48.1787 27.543C48.3721 27.6289 48.5869 27.79 48.6514 27.9082C48.7266 28.0478 48.7695 28.9287 48.7695 30.2392C48.7695 32.3125 48.7695 32.3447 48.5117 32.6025C48.3721 32.7422 48.0928 32.8818 47.8994 32.9248C47.6953 32.957 45.8799 32.9785 43.8496 32.957L40.1543 32.9248L39.8428 32.5703L39.5205 32.2051L39.5527 30.1318C39.585 28.1123 39.5957 28.0478 39.8428 27.7793C39.9824 27.6289 40.1973 27.4892 40.3262 27.4678C40.4443 27.4463 42.1846 27.4141 44.1826 27.4033C47.0938 27.3926 47.8779 27.4248 48.1787 27.543Z" fill="#1E90F3"/>
<path d="M13.6855 23.3105C11.8701 23.6436 10.1084 24.5889 8.70117 25.9961C6.81055 27.8867 5.9082 30.0352 5.9082 32.6563C5.9082 35.5244 7.06836 38.0488 9.23828 39.9072C10.9785 41.3896 13.041 42.1309 15.415 42.1309C18.4014 42.1309 21.1084 40.7881 22.8916 38.4248C24.2559 36.6201 24.8252 34.9014 24.8252 32.6563C24.8252 31.4746 24.7715 31.0879 24.4814 30.0566C24.0303 28.499 23.3535 27.3281 22.2471 26.168C21.0332 24.9111 19.3897 23.9121 17.7783 23.4717C17.0156 23.2676 14.502 23.1709 13.6855 23.3105ZM14.8027 26.7051L14.8242 28.9717L14.373 29.1006C14.1152 29.1758 13.75 29.3369 13.5566 29.4551L13.1914 29.6807L11.5908 28.0801C10.71 27.1992 9.99023 26.4473 9.99023 26.415C9.99023 26.2861 11.0107 25.5986 11.6768 25.2656C12.6436 24.7822 14.0078 24.374 14.5557 24.417C14.7598 24.4385 14.7705 24.5244 14.8027 26.7051ZM17.0586 24.5566C17.9824 24.7393 19.7979 25.5772 20.4102 26.0928L20.7861 26.415L19.1641 28.0371L17.5527 29.6592L17.1768 29.4551C16.9727 29.3369 16.6289 29.1865 16.4141 29.1113L16.0059 28.9824V26.6836C16.0059 25.1582 16.0488 24.3848 16.1133 24.3848C16.1777 24.3848 16.6074 24.46 17.0586 24.5566ZM10.7852 28.8857L12.3857 30.4863L12.1602 30.8516C12.042 31.0449 11.8809 31.4102 11.8057 31.6572L11.6768 32.1191H9.37793C7.39063 32.1191 7.08984 32.0977 7.08984 31.958C7.08984 31.4424 7.4873 30.0137 7.83106 29.2725C8.21777 28.4453 8.96973 27.2852 9.12012 27.2852C9.15234 27.2852 9.9043 28.0049 10.7852 28.8857ZM22.7197 28.918C23.2031 29.8418 23.6328 31.2061 23.6328 31.8184V32.1191H21.377H19.1211L19.0029 31.8184C18.9385 31.6572 18.7773 31.292 18.6592 31.0127L18.4336 30.4971L20.0449 28.8857L21.6455 27.2852L21.9355 27.6289C22.0967 27.8223 22.4512 28.4023 22.7197 28.918ZM16.2314 30.1318C17.3057 30.4971 18.0469 31.5391 18.0469 32.6455C18.0361 34.6436 15.9629 35.9434 14.2012 35.0625C12.5254 34.2246 12.1709 32.0977 13.4922 30.7871C14.2441 30.0244 15.2324 29.7988 16.2314 30.1318ZM11.8164 33.6982C11.8916 33.9238 12.042 34.2676 12.1602 34.4717L12.3643 34.8369L10.7744 36.4375C9.9043 37.3076 9.15234 38.0273 9.10938 38.0273C8.96973 38.0273 8.31445 37.0605 7.91699 36.2549C7.5625 35.5566 7.08984 33.9775 7.08984 33.4834C7.08984 33.3115 7.27246 33.3008 9.38867 33.3008H11.6875L11.8164 33.6982ZM23.6328 33.5479C23.6328 34.5146 22.6982 36.8135 21.9785 37.6514L21.6025 38.0811L19.9912 36.4805L18.3799 34.8799L18.627 34.3857C18.7666 34.1172 18.9063 33.7627 18.9492 33.5908L19.0137 33.3008H21.3232H23.6328V33.5479ZM20.3564 39.2627C19.4863 40.0146 17.832 40.7236 16.6074 40.874L16.0059 40.9492V38.6396V36.3193L16.4141 36.2012C16.6289 36.1367 16.9834 35.9971 17.1875 35.8789L17.5635 35.6748L19.1748 37.2861L20.7861 38.8975L20.3564 39.2627ZM13.7715 35.9756C14.0293 36.083 14.3623 36.2334 14.5342 36.2979L14.8242 36.416V38.6719V40.9277H14.5234C13.5459 40.9277 11.4941 40.1328 10.4844 39.3594L9.96875 38.9619L11.5586 37.3721C12.4395 36.4912 13.1914 35.7715 13.2344 35.7715C13.2773 35.7715 13.5244 35.8682 13.7715 35.9756Z" fill="#1E90F3"/>
</svg>
