<svg width="198" height="42" viewBox="0 0 198 42" fill="none" xmlns="http://www.w3.org/2000/svg">
<path d="M156 0H195C196.657 0 198 1.34315 198 3V39C198 40.6569 196.657 42 195 42H156V0Z" fill="url(#paint0_linear_116_2473)"/>
<path d="M184.865 25.8959C184.485 24.6058 184.106 23.3158 183.728 22.0258C183.498 21.2426 183.269 20.4593 183.041 19.6761C182.258 19.5946 181.506 19.5089 180.754 19.4398C179.826 19.3548 179.025 18.7487 178.898 17.9194C178.754 16.9691 179.026 16.1612 179.899 15.7224C180.32 15.5165 180.795 15.4441 181.259 15.5151C181.435 15.5372 181.613 15.5379 181.823 15.5496C181.724 15.1751 181.641 14.8585 181.568 14.5773C181.8 14.3147 182.011 14.099 182.197 13.8634C182.384 13.6277 182.321 13.4183 182.132 13.2103C181.942 13.0023 181.731 12.9339 181.48 13.0721C181.279 13.184 181.089 13.3146 180.903 13.4307C179.866 12.8184 178.749 13.2124 177.626 13.0659L178.227 14.6554C178.005 14.7777 177.813 14.9615 177.609 14.976C177.354 14.9947 177.259 14.75 177.178 14.5116C177.018 14.0334 176.812 13.5704 176.629 13.1094H175.907L176.467 14.5966L176.143 14.9822C175.571 14.9435 175.562 14.9083 175.414 14.4432C175.266 13.9781 175.064 13.5448 174.892 13.1073H174.184C174.364 13.6263 174.534 14.1225 174.709 14.6194H174.705C174.56 14.8482 174.373 15.0209 174.078 14.9553C173.798 14.8931 173.745 14.6567 173.665 14.4176C173.518 13.9719 173.326 13.5399 173.157 13.1115H172.447C172.643 13.654 172.831 14.1716 173.006 14.6505C172.497 15.126 172.107 15.0057 171.935 14.4432C171.795 13.985 171.594 13.5448 171.419 13.0921C169.118 13.0921 166.856 13.0824 164.595 13.1094C164.404 13.1094 164.079 13.3354 164.051 13.4964C163.976 13.9125 163.984 14.3392 164.076 14.7521C164.122 14.9456 164.446 15.0749 164.7 15.278V15.7811C164.7 17.2621 164.7 17.2621 166.217 17.2621H171.617C171.613 18.0223 171.819 18.6727 172.352 19.1481C172.734 19.5 173.171 19.7879 173.647 20.0002C174.581 20.3934 175.553 20.5607 176.569 20.2117C177.231 19.9908 177.907 19.8121 178.593 19.6768C179.469 19.4964 180.264 20.0044 180.482 20.8579C180.556 21.1426 180.564 21.4446 180.612 21.8164C180.883 22.2075 181.142 22.6878 181.064 23.2794C181.054 23.3598 181.073 23.441 181.118 23.5089C181.474 23.965 181.538 24.4861 181.473 25.0127C181.954 25.6885 182.138 26.3762 181.715 27.1205C181.761 27.1447 181.78 27.1633 181.799 27.164C182.498 27.1675 183.198 27.1716 183.898 27.1709C184.76 27.1689 185.105 26.71 184.865 25.8959ZM175.459 19.7183C174.495 19.672 173.594 19.4328 172.882 18.7383C172.486 18.3513 172.267 17.8869 172.322 17.2919H174.592C174.437 17.6954 174.301 18.059 174.159 18.4204C174.064 18.6637 174.059 18.8924 174.339 18.9981C174.618 19.1039 174.774 18.9422 174.87 18.6955C175.048 18.2345 175.231 17.7756 175.42 17.2967L175.763 17.2621L176.561 19.6754C176.161 19.6892 175.809 19.7321 175.459 19.7148V19.7183Z" fill="white"/>
<path d="M179.669 17.3368C179.599 18.0583 180.01 18.5566 180.773 18.6554C181.027 18.6886 181.283 18.7038 181.538 18.7307C182.252 18.806 182.966 18.8834 183.674 18.9595C184.033 20.1896 184.38 21.3824 184.733 22.5731C184.774 22.6738 184.824 22.7703 184.884 22.8613C184.879 22.8639 184.875 22.8666 184.872 22.8696C185.091 23.7045 185.309 24.54 185.542 25.4308C185.587 25.38 185.629 25.3267 185.668 25.2712C186.194 24.3359 186.718 23.4002 187.242 22.464C187.416 22.1523 187.414 21.842 187.3 21.5013C186.863 20.2034 186.433 18.9035 186.02 17.5973C185.845 17.0445 185.461 16.7501 184.913 16.6844C183.618 16.5296 182.324 16.3941 181.024 16.2698C180.26 16.1972 179.742 16.6222 179.669 17.3368Z" fill="white"/>
<path d="M180.45 25.3071C180.925 24.5413 180.8 24.1281 179.988 23.6878C180.432 22.8655 180.296 22.3437 179.495 22.0127C179.915 21.6256 179.895 21.1937 179.644 20.7729C179.425 20.4066 179.034 20.334 178.657 20.4225C177.887 20.6028 177.122 20.8039 176.372 21.052C175.834 21.2296 175.625 21.6996 175.851 22.2138C175.967 22.4798 176.234 22.6816 176.451 22.9325C176.328 23.0374 176.245 23.1804 176.216 23.338C176.186 23.4955 176.211 23.6584 176.288 23.7998C176.437 24.0762 176.682 24.3084 176.904 24.5828C176.7 24.7825 176.624 25.0721 176.72 25.4377C176.822 25.8164 177.088 25.9905 177.426 26.1122C177.087 26.6132 177.047 26.9539 177.291 27.3458C177.509 27.6961 177.87 27.7991 178.236 27.7148C179.028 27.5331 179.818 27.3264 180.59 27.0762C181.103 26.9097 181.26 26.4771 181.135 25.9657C181.044 25.5918 180.783 25.419 180.45 25.3071Z" fill="white"/>
<path d="M189.814 22.6595C189.524 22.229 189.109 22.0057 188.667 21.9926C188.206 21.9926 187.893 22.108 187.702 22.448C186.789 24.0762 185.876 25.7051 184.965 27.3347C184.884 27.4696 184.843 27.6233 184.844 27.7796C184.845 27.9359 184.889 28.089 184.971 28.2228C185.251 28.7335 185.709 28.9829 186.282 28.9995C186.645 29.0092 186.961 28.8696 187.153 28.5268C188.057 26.906 188.964 25.2868 189.873 23.6692C190.07 23.3167 190.028 22.9781 189.814 22.6595Z" fill="white"/>
<path d="M0 3C0 1.34315 1.34315 0 3 0H156V42H3C1.34315 42 0 40.6569 0 39V3Z" fill="url(#paint1_linear_116_2473)" fill-opacity="0.6"/>
<path d="M47.901 20.5L51.333 12.8H53.093L56.536 20.5H54.666L51.85 13.702H52.554L49.727 20.5H47.901ZM49.617 18.85L50.09 17.497H54.05L54.534 18.85H49.617ZM58.5432 20.5V14.252H56.0792V12.8H62.7892V14.252H60.3252V20.5H58.5432ZM65.387 15.902H69.094V17.288H65.387V15.902ZM65.519 19.07H69.71V20.5H63.748V12.8H69.567V14.23H65.519V19.07ZM71.1278 20.5V12.8H72.6018L77.1448 18.344H76.4298V12.8H78.1898V20.5H76.7268L72.1728 14.956H72.8878V20.5H71.1278ZM83.6966 20.632C83.1026 20.632 82.549 20.5367 82.0356 20.346C81.5296 20.148 81.0896 19.8693 80.7156 19.51C80.3416 19.1507 80.0483 18.729 79.8356 18.245C79.6303 17.761 79.5276 17.2293 79.5276 16.65C79.5276 16.0707 79.6303 15.539 79.8356 15.055C80.0483 14.571 80.3416 14.1493 80.7156 13.79C81.097 13.4307 81.5406 13.1557 82.0466 12.965C82.5526 12.767 83.1063 12.668 83.7076 12.668C84.375 12.668 84.9763 12.7853 85.5116 13.02C86.0543 13.2473 86.509 13.5847 86.8756 14.032L85.7316 15.088C85.4676 14.7873 85.1743 14.5637 84.8516 14.417C84.529 14.263 84.177 14.186 83.7956 14.186C83.4363 14.186 83.1063 14.2447 82.8056 14.362C82.505 14.4793 82.2446 14.648 82.0246 14.868C81.8046 15.088 81.6323 15.3483 81.5076 15.649C81.3903 15.9497 81.3316 16.2833 81.3316 16.65C81.3316 17.0167 81.3903 17.3503 81.5076 17.651C81.6323 17.9517 81.8046 18.212 82.0246 18.432C82.2446 18.652 82.505 18.8207 82.8056 18.938C83.1063 19.0553 83.4363 19.114 83.7956 19.114C84.177 19.114 84.529 19.0407 84.8516 18.894C85.1743 18.74 85.4676 18.509 85.7316 18.201L86.8756 19.257C86.509 19.7043 86.0543 20.0453 85.5116 20.28C84.9763 20.5147 84.3713 20.632 83.6966 20.632ZM83.1026 23.052C82.912 23.052 82.725 23.03 82.5416 22.986C82.3656 22.942 82.2116 22.887 82.0796 22.821L82.3436 22.084C82.4536 22.1353 82.5673 22.1757 82.6846 22.205C82.802 22.2343 82.9266 22.249 83.0586 22.249C83.264 22.249 83.4106 22.216 83.4986 22.15C83.5866 22.084 83.6306 21.9997 83.6306 21.897C83.6306 21.8017 83.5866 21.7247 83.4986 21.666C83.418 21.6073 83.2823 21.578 83.0916 21.578H82.7176L83.0036 20.412H83.9166L83.7626 21.05C84.0926 21.0867 84.3346 21.1893 84.4886 21.358C84.6426 21.534 84.7196 21.7357 84.7196 21.963C84.7196 22.293 84.573 22.557 84.2796 22.755C83.9863 22.953 83.594 23.052 83.1026 23.052ZM86.9274 20.5L90.3594 12.8H92.1194L95.5624 20.5H93.6924L90.8764 13.702H91.5804L88.7534 20.5H86.9274ZM88.6434 18.85L89.1164 17.497H93.0764L93.5604 18.85H88.6434ZM92.0644 12.206C91.8737 12.206 91.705 12.173 91.5584 12.107C91.4117 12.0337 91.2797 11.953 91.1624 11.865C91.045 11.7697 90.935 11.689 90.8324 11.623C90.7297 11.5497 90.627 11.513 90.5244 11.513C90.3777 11.513 90.2567 11.568 90.1614 11.678C90.066 11.7807 90.011 11.931 89.9964 12.129H89.1274C89.142 11.6377 89.263 11.249 89.4904 10.963C89.7177 10.6697 90.0257 10.523 90.4144 10.523C90.605 10.523 90.7737 10.5597 90.9204 10.633C91.067 10.699 91.199 10.7797 91.3164 10.875C91.441 10.9703 91.5547 11.0547 91.6574 11.128C91.76 11.194 91.859 11.227 91.9544 11.227C92.1084 11.227 92.233 11.1757 92.3284 11.073C92.4237 10.963 92.475 10.8163 92.4824 10.633H93.3514C93.344 11.1023 93.223 11.4837 92.9884 11.777C92.761 12.063 92.453 12.206 92.0644 12.206ZM99.9938 20.632C99.3852 20.632 98.8205 20.533 98.2998 20.335C97.7865 20.137 97.3392 19.8583 96.9578 19.499C96.5838 19.1397 96.2905 18.718 96.0778 18.234C95.8725 17.75 95.7698 17.222 95.7698 16.65C95.7698 16.078 95.8725 15.55 96.0778 15.066C96.2905 14.582 96.5875 14.1603 96.9688 13.801C97.3502 13.4417 97.7975 13.163 98.3108 12.965C98.8242 12.767 99.3815 12.668 99.9828 12.668C100.591 12.668 101.149 12.767 101.655 12.965C102.168 13.163 102.612 13.4417 102.986 13.801C103.367 14.1603 103.664 14.582 103.877 15.066C104.089 15.5427 104.196 16.0707 104.196 16.65C104.196 17.222 104.089 17.7537 103.877 18.245C103.664 18.729 103.367 19.1507 102.986 19.51C102.612 19.862 102.168 20.137 101.655 20.335C101.149 20.533 100.595 20.632 99.9938 20.632ZM99.9828 19.114C100.327 19.114 100.643 19.0553 100.929 18.938C101.222 18.8207 101.479 18.652 101.699 18.432C101.919 18.212 102.087 17.9517 102.205 17.651C102.329 17.3503 102.392 17.0167 102.392 16.65C102.392 16.2833 102.329 15.9497 102.205 15.649C102.087 15.3483 101.919 15.088 101.699 14.868C101.486 14.648 101.233 14.4793 100.94 14.362C100.646 14.2447 100.327 14.186 99.9828 14.186C99.6382 14.186 99.3192 14.2447 99.0258 14.362C98.7398 14.4793 98.4868 14.648 98.2668 14.868C98.0468 15.088 97.8745 15.3483 97.7498 15.649C97.6325 15.9497 97.5738 16.2833 97.5738 16.65C97.5738 17.0093 97.6325 17.343 97.7498 17.651C97.8745 17.9517 98.0432 18.212 98.2558 18.432C98.4758 18.652 98.7325 18.8207 99.0258 18.938C99.3192 19.0553 99.6382 19.114 99.9828 19.114ZM105.535 17.827L105.194 12.8H107.24L106.899 17.827H105.535ZM106.217 20.588C105.909 20.588 105.656 20.489 105.458 20.291C105.26 20.093 105.161 19.8583 105.161 19.587C105.161 19.3083 105.26 19.0773 105.458 18.894C105.656 18.7033 105.909 18.608 106.217 18.608C106.532 18.608 106.785 18.7033 106.976 18.894C107.174 19.0773 107.273 19.3083 107.273 19.587C107.273 19.8583 107.174 20.093 106.976 20.291C106.785 20.489 106.532 20.588 106.217 20.588Z" fill="white"/>
<path d="M31.769 25.2H32.228V31.5H31.769V25.2ZM27.557 31.5H27.098V25.2H27.557V31.5ZM31.823 28.503H27.503V28.098H31.823V28.503ZM37.1011 31.545C36.6331 31.545 36.1981 31.467 35.7961 31.311C35.4001 31.149 35.0521 30.924 34.7521 30.636C34.4581 30.342 34.2301 30.003 34.0681 29.619C33.9061 29.229 33.8251 28.806 33.8251 28.35C33.8251 27.894 33.9061 27.474 34.0681 27.09C34.2301 26.7 34.4581 26.361 34.7521 26.073C35.0521 25.779 35.4001 25.554 35.7961 25.398C36.1981 25.236 36.6331 25.155 37.1011 25.155C37.5691 25.155 38.0011 25.236 38.3971 25.398C38.7991 25.554 39.1471 25.776 39.4411 26.064C39.7351 26.352 39.9631 26.691 40.1251 27.081C40.2931 27.465 40.3771 27.888 40.3771 28.35C40.3771 28.812 40.2931 29.238 40.1251 29.628C39.9631 30.012 39.7351 30.348 39.4411 30.636C39.1471 30.924 38.7991 31.149 38.3971 31.311C38.0011 31.467 37.5691 31.545 37.1011 31.545ZM37.1011 31.122C37.5031 31.122 37.8751 31.053 38.2171 30.915C38.5591 30.777 38.8561 30.582 39.1081 30.33C39.3601 30.078 39.5551 29.784 39.6931 29.448C39.8371 29.112 39.9091 28.746 39.9091 28.35C39.9091 27.948 39.8371 27.582 39.6931 27.252C39.5551 26.916 39.3601 26.622 39.1081 26.37C38.8561 26.118 38.5591 25.923 38.2171 25.785C37.8751 25.647 37.5031 25.578 37.1011 25.578C36.6991 25.578 36.3271 25.647 35.9851 25.785C35.6431 25.923 35.3431 26.118 35.0851 26.37C34.8331 26.622 34.6351 26.916 34.4911 27.252C34.3531 27.582 34.2841 27.948 34.2841 28.35C34.2841 28.746 34.3531 29.112 34.4911 29.448C34.6351 29.784 34.8331 30.078 35.0851 30.33C35.3431 30.582 35.6431 30.777 35.9851 30.915C36.3271 31.053 36.6991 31.122 37.1011 31.122ZM41.9691 31.5V25.2H44.2281C44.7561 25.2 45.2091 25.284 45.5871 25.452C45.9651 25.62 46.2561 25.863 46.4601 26.181C46.6641 26.493 46.7661 26.874 46.7661 27.324C46.7661 27.762 46.6641 28.14 46.4601 28.458C46.2561 28.77 45.9651 29.013 45.5871 29.187C45.2091 29.355 44.7561 29.439 44.2281 29.439H42.2211L42.4281 29.223V31.5H41.9691ZM46.3431 31.5L44.7051 29.214H45.2271L46.8651 31.5H46.3431ZM42.4281 29.25L42.2211 29.034H44.2281C44.9061 29.034 45.4191 28.884 45.7671 28.584C46.1211 28.284 46.2981 27.864 46.2981 27.324C46.2981 26.778 46.1211 26.358 45.7671 26.064C45.4191 25.764 44.9061 25.614 44.2281 25.614H42.2211L42.4281 25.389V29.25ZM47.3936 31.5L50.2916 25.2H50.7506L53.6486 31.5H53.1536L50.4176 25.488H50.6156L47.8886 31.5H47.3936ZM48.4556 29.727L48.6086 29.34H52.3796L52.5326 29.727H48.4556ZM50.0126 24.687L51.2636 23.625H51.9116L50.4986 24.687H50.0126ZM54.7923 31.5V25.2H57.0513C57.5793 25.2 58.0323 25.284 58.4103 25.452C58.7883 25.62 59.0793 25.863 59.2833 26.181C59.4873 26.493 59.5893 26.874 59.5893 27.324C59.5893 27.762 59.4873 28.14 59.2833 28.458C59.0793 28.77 58.7883 29.013 58.4103 29.187C58.0323 29.355 57.5793 29.439 57.0513 29.439H55.0443L55.2513 29.223V31.5H54.7923ZM59.1663 31.5L57.5283 29.214H58.0503L59.6883 31.5H59.1663ZM55.2513 29.25L55.0443 29.034H57.0513C57.7293 29.034 58.2423 28.884 58.5903 28.584C58.9443 28.284 59.1213 27.864 59.1213 27.324C59.1213 26.778 58.9443 26.358 58.5903 26.064C58.2423 25.764 57.7293 25.614 57.0513 25.614H55.0443L55.2513 25.389V29.25ZM61.2699 31.5V25.2H61.7289V31.5H61.2699ZM66.5972 31.545C66.1292 31.545 65.6942 31.467 65.2922 31.311C64.8962 31.149 64.5482 30.924 64.2482 30.636C63.9542 30.342 63.7262 30.003 63.5642 29.619C63.4022 29.229 63.3212 28.806 63.3212 28.35C63.3212 27.894 63.4022 27.474 63.5642 27.09C63.7262 26.7 63.9542 26.361 64.2482 26.073C64.5482 25.779 64.8962 25.554 65.2922 25.398C65.6942 25.236 66.1292 25.155 66.5972 25.155C67.0652 25.155 67.4972 25.236 67.8932 25.398C68.2952 25.554 68.6432 25.776 68.9372 26.064C69.2312 26.352 69.4592 26.691 69.6212 27.081C69.7892 27.465 69.8732 27.888 69.8732 28.35C69.8732 28.812 69.7892 29.238 69.6212 29.628C69.4592 30.012 69.2312 30.348 68.9372 30.636C68.6432 30.924 68.2952 31.149 67.8932 31.311C67.4972 31.467 67.0652 31.545 66.5972 31.545ZM66.5972 31.122C66.9992 31.122 67.3712 31.053 67.7132 30.915C68.0552 30.777 68.3522 30.582 68.6042 30.33C68.8562 30.078 69.0512 29.784 69.1892 29.448C69.3332 29.112 69.4052 28.746 69.4052 28.35C69.4052 27.948 69.3332 27.582 69.1892 27.252C69.0512 26.916 68.8562 26.622 68.6042 26.37C68.3522 26.118 68.0552 25.923 67.7132 25.785C67.3712 25.647 66.9992 25.578 66.5972 25.578C66.1952 25.578 65.8232 25.647 65.4812 25.785C65.1392 25.923 64.8392 26.118 64.5812 26.37C64.3292 26.622 64.1312 26.916 63.9872 27.252C63.8492 27.582 63.7802 27.948 63.7802 28.35C63.7802 28.746 63.8492 29.112 63.9872 29.448C64.1312 29.784 64.3292 30.078 64.5812 30.33C64.8392 30.582 65.1392 30.777 65.4812 30.915C65.8232 31.053 66.1952 31.122 66.5972 31.122ZM73.7767 31.5V25.2H76.2697C76.9357 25.2 77.5207 25.335 78.0247 25.605C78.5287 25.875 78.9187 26.247 79.1947 26.721C79.4767 27.195 79.6177 27.738 79.6177 28.35C79.6177 28.962 79.4767 29.505 79.1947 29.979C78.9187 30.453 78.5287 30.825 78.0247 31.095C77.5207 31.365 76.9357 31.5 76.2697 31.5H73.7767ZM74.2357 31.086H76.2337C76.8277 31.086 77.3437 30.969 77.7817 30.735C78.2197 30.501 78.5587 30.18 78.7987 29.772C79.0387 29.358 79.1587 28.884 79.1587 28.35C79.1587 27.816 79.0387 27.345 78.7987 26.937C78.5587 26.523 78.2197 26.199 77.7817 25.965C77.3437 25.731 76.8277 25.614 76.2337 25.614H74.2357V31.086ZM81.6173 28.098H85.0283V28.503H81.6173V28.098ZM81.6713 31.086H85.5593V31.5H81.2123V25.2H85.4243V25.614H81.6713V31.086ZM88.4913 31.5L91.3893 25.2H91.8483L94.7463 31.5H94.2513L91.5153 25.488H91.7133L88.9863 31.5H88.4913ZM89.5533 29.727L89.7063 29.34H93.4773L93.6303 29.727H89.5533ZM97.546 31.545C97.078 31.545 96.634 31.467 96.214 31.311C95.8 31.149 95.479 30.942 95.251 30.69L95.458 30.348C95.674 30.57 95.968 30.759 96.34 30.915C96.718 31.065 97.117 31.14 97.537 31.14C97.957 31.14 98.299 31.086 98.563 30.978C98.833 30.864 99.031 30.714 99.157 30.528C99.289 30.342 99.355 30.135 99.355 29.907C99.355 29.637 99.283 29.421 99.139 29.259C98.995 29.097 98.806 28.968 98.572 28.872C98.338 28.776 98.083 28.695 97.807 28.629C97.531 28.563 97.252 28.494 96.97 28.422C96.688 28.344 96.43 28.245 96.196 28.125C95.962 28.005 95.773 27.843 95.629 27.639C95.491 27.429 95.422 27.159 95.422 26.829C95.422 26.529 95.5 26.253 95.656 26.001C95.812 25.749 96.055 25.545 96.385 25.389C96.715 25.233 97.138 25.155 97.654 25.155C98.002 25.155 98.344 25.206 98.68 25.308C99.022 25.41 99.313 25.548 99.553 25.722L99.382 26.091C99.118 25.911 98.833 25.779 98.527 25.695C98.227 25.605 97.936 25.56 97.654 25.56C97.252 25.56 96.919 25.617 96.655 25.731C96.391 25.845 96.196 25.998 96.07 26.19C95.944 26.376 95.881 26.586 95.881 26.82C95.881 27.09 95.95 27.306 96.088 27.468C96.232 27.63 96.421 27.759 96.655 27.855C96.889 27.951 97.147 28.032 97.429 28.098C97.711 28.164 97.99 28.236 98.266 28.314C98.542 28.386 98.797 28.482 99.031 28.602C99.265 28.722 99.454 28.884 99.598 29.088C99.742 29.292 99.814 29.556 99.814 29.88C99.814 30.174 99.733 30.45 99.571 30.708C99.409 30.96 99.16 31.164 98.824 31.32C98.494 31.47 98.068 31.545 97.546 31.545ZM103.03 31.545C102.562 31.545 102.118 31.467 101.698 31.311C101.284 31.149 100.963 30.942 100.735 30.69L100.942 30.348C101.158 30.57 101.452 30.759 101.824 30.915C102.202 31.065 102.601 31.14 103.021 31.14C103.441 31.14 103.783 31.086 104.047 30.978C104.317 30.864 104.515 30.714 104.641 30.528C104.773 30.342 104.839 30.135 104.839 29.907C104.839 29.637 104.767 29.421 104.623 29.259C104.479 29.097 104.29 28.968 104.056 28.872C103.822 28.776 103.567 28.695 103.291 28.629C103.015 28.563 102.736 28.494 102.454 28.422C102.172 28.344 101.914 28.245 101.68 28.125C101.446 28.005 101.257 27.843 101.113 27.639C100.975 27.429 100.906 27.159 100.906 26.829C100.906 26.529 100.984 26.253 101.14 26.001C101.296 25.749 101.539 25.545 101.869 25.389C102.199 25.233 102.622 25.155 103.138 25.155C103.486 25.155 103.828 25.206 104.164 25.308C104.506 25.41 104.797 25.548 105.037 25.722L104.866 26.091C104.602 25.911 104.317 25.779 104.011 25.695C103.711 25.605 103.42 25.56 103.138 25.56C102.736 25.56 102.403 25.617 102.139 25.731C101.875 25.845 101.68 25.998 101.554 26.19C101.428 26.376 101.365 26.586 101.365 26.82C101.365 27.09 101.434 27.306 101.572 27.468C101.716 27.63 101.905 27.759 102.139 27.855C102.373 27.951 102.631 28.032 102.913 28.098C103.195 28.164 103.474 28.236 103.75 28.314C104.026 28.386 104.281 28.482 104.515 28.602C104.749 28.722 104.938 28.884 105.082 29.088C105.226 29.292 105.298 29.556 105.298 29.88C105.298 30.174 105.217 30.45 105.055 30.708C104.893 30.96 104.644 31.164 104.308 31.32C103.978 31.47 103.552 31.545 103.03 31.545ZM105.806 31.5L108.704 25.2H109.163L112.061 31.5H111.566L108.83 25.488H109.028L106.301 31.5H105.806ZM106.868 29.727L107.021 29.34H110.792L110.945 29.727H106.868ZM113.204 31.5V25.2H113.663V31.086H117.29V31.5H113.204ZM119.086 31.5V25.614H116.818V25.2H121.813V25.614H119.545V31.5H119.086ZM125.537 31.545C125.069 31.545 124.634 31.467 124.232 31.311C123.836 31.149 123.488 30.924 123.188 30.636C122.894 30.342 122.666 30.003 122.504 29.619C122.342 29.229 122.261 28.806 122.261 28.35C122.261 27.894 122.342 27.474 122.504 27.09C122.666 26.7 122.894 26.361 123.188 26.073C123.488 25.779 123.836 25.554 124.232 25.398C124.634 25.236 125.069 25.155 125.537 25.155C126.005 25.155 126.437 25.236 126.833 25.398C127.235 25.554 127.583 25.776 127.877 26.064C128.171 26.352 128.399 26.691 128.561 27.081C128.729 27.465 128.813 27.888 128.813 28.35C128.813 28.812 128.729 29.238 128.561 29.628C128.399 30.012 128.171 30.348 127.877 30.636C127.583 30.924 127.235 31.149 126.833 31.311C126.437 31.467 126.005 31.545 125.537 31.545ZM125.537 31.122C125.939 31.122 126.311 31.053 126.653 30.915C126.995 30.777 127.292 30.582 127.544 30.33C127.796 30.078 127.991 29.784 128.129 29.448C128.273 29.112 128.345 28.746 128.345 28.35C128.345 27.948 128.273 27.582 128.129 27.252C127.991 26.916 127.796 26.622 127.544 26.37C127.292 26.118 126.995 25.923 126.653 25.785C126.311 25.647 125.939 25.578 125.537 25.578C125.135 25.578 124.763 25.647 124.421 25.785C124.079 25.923 123.779 26.118 123.521 26.37C123.269 26.622 123.071 26.916 122.927 27.252C122.789 27.582 122.72 27.948 122.72 28.35C122.72 28.746 122.789 29.112 122.927 29.448C123.071 29.784 123.269 30.078 123.521 30.33C123.779 30.582 124.079 30.777 124.421 30.915C124.763 31.053 125.135 31.122 125.537 31.122Z" fill="white" fill-opacity="0.75"/>
<defs>
<linearGradient id="paint0_linear_116_2473" x1="156" y1="0" x2="198" y2="42" gradientUnits="userSpaceOnUse">
<stop stop-color="#B80100"/>
<stop offset="1" stop-color="#850100"/>
</linearGradient>
<linearGradient id="paint1_linear_116_2473" x1="0" y1="21" x2="156" y2="21" gradientUnits="userSpaceOnUse">
<stop/>
<stop offset="1" stop-opacity="0.85"/>
</linearGradient>
</defs>
</svg>
