<svg width="25" height="22" viewBox="0 0 25 22" fill="none" xmlns="http://www.w3.org/2000/svg">
<path d="M13.2324 0.732422C13.2324 0.327873 12.9045 0 12.5 0C12.0955 0 11.7676 0.327873 11.7676 0.732422V3.87039C11.7676 4.27494 12.0955 4.60281 12.5 4.60281C12.9045 4.60281 13.2324 4.27494 13.2324 3.87039V0.732422Z" fill="white"/>
<path d="M8.84418 5.17292C8.98705 5.31578 9.17454 5.3875 9.36203 5.3875C9.54933 5.3875 9.73682 5.31597 9.87988 5.17292C10.1658 4.88682 10.1658 4.42314 9.87988 4.13704L8.3107 2.56805C8.02479 2.28195 7.56111 2.28195 7.27501 2.56805C6.98891 2.85416 6.98891 3.31783 7.27501 3.60394L8.84418 5.17292Z" fill="white"/>
<path d="M15.638 5.38731C15.8255 5.38731 16.013 5.31578 16.1558 5.17273L17.725 3.60374C18.0109 3.31783 18.0109 2.85397 17.725 2.56805C17.4389 2.28195 16.9752 2.28195 16.6891 2.56805L15.1201 4.13704C14.834 4.42314 14.834 4.88682 15.1201 5.17273C15.2632 5.31578 15.4507 5.38731 15.638 5.38731Z" fill="white"/>
<path d="M10.3811 7.07589C10.3735 7.08219 10.3662 7.08829 10.3594 7.09401L7.1928 9.80855C6.89945 10.0599 6.52447 10.1986 6.13766 10.1986H3.86963C1.73244 10.1986 0 11.928 0 14.0682V21.1298C0 21.5342 0.327873 21.8622 0.732422 21.8622H7.00836C7.4131 21.8622 7.74078 21.534 7.74078 21.1298V14.406L11.4677 11.2114C11.6581 11.0483 11.7676 10.8101 11.7676 10.5595V7.74747C11.7676 7.03221 10.9367 6.62538 10.3811 7.07589Z" fill="white"/>
<path d="M21.1304 10.1986H18.8623C18.4755 10.1986 18.1005 10.0599 17.8072 9.80836L14.6406 7.09401C14.6338 7.08829 14.6265 7.08219 14.6189 7.07589C14.0633 6.62538 13.2324 7.03221 13.2324 7.74747V10.5595C13.2324 10.8101 13.3419 11.0483 13.5323 11.2114L17.2592 14.406V21.1296C17.2592 21.534 17.5869 21.862 17.9916 21.862H24.2676C24.6721 21.862 25 21.5342 25 21.1296V14.0682C25 11.928 23.2676 10.1986 21.1304 10.1986Z" fill="white"/>
<path d="M6.95629 7.1125C6.95629 5.41096 5.57194 4.0266 3.87039 4.0266C2.16885 4.0266 0.784492 5.41096 0.784492 7.1125C0.784492 8.81424 2.16885 10.1986 3.87039 10.1986C5.57194 10.1986 6.95629 8.81424 6.95629 7.1125Z" fill="white"/>
<path d="M24.2155 7.1125C24.2155 5.41096 22.8312 4.0266 21.1296 4.0266C19.4281 4.0266 18.0437 5.41096 18.0437 7.1125C18.0437 8.81424 19.4281 10.1986 21.1296 10.1986C22.8312 10.1986 24.2155 8.81424 24.2155 7.1125Z" fill="white"/>
</svg>
