<svg width="25" height="30" viewBox="0 0 25 30" fill="none" xmlns="http://www.w3.org/2000/svg">
<path d="M20.2984 17.3688C16.8412 16.2396 15.404 14.8353 15.404 14.8353L15.2883 14.9456C14.2616 15.912 13.1261 16.4801 12.0916 16.4801H11.994C10.9596 16.4801 9.8241 15.912 8.79739 14.9456L8.68162 14.8353C8.68162 14.8353 7.24461 16.2395 3.78728 17.3688C-1.31633 19.2753 0.216093 27.0342 0.214617 27.0943C0.375358 27.9584 0.469047 28.2554 0.550679 28.2887C5.67582 30.5704 18.4099 30.5704 23.5352 28.2887C23.6168 28.2554 23.7105 27.9584 23.8712 27.0943C23.8697 27.0342 25.4226 19.3062 20.2984 17.3688Z" fill="white"/>
<path d="M17.4027 7.47055L17.3599 7.42411C17.0728 7.16119 17.0952 7.17626 17.0952 7.17626C17.0952 7.17626 17.5961 4.64899 17.1944 3.45386C16.5639 1.5452 12.7976 0.265979 12.0422 0.117295C12.0423 0.11588 11.5827 0.0239134 11.5534 0.0237288C11.5534 0.0237288 10.9592 -0.096412 10.2705 0.203971C9.82199 0.376523 7.47718 1.43983 6.81164 3.45386C6.41006 4.64899 6.91093 7.17626 6.91093 7.17626C6.91093 7.17626 6.93338 7.16119 6.64616 7.42411L6.60341 7.47055C6.40914 7.69115 6.45713 8.38136 6.66948 9.09943C6.8619 9.81886 7.1127 10.0122 7.1728 10.1807C7.782 13.041 9.9003 15.4832 12.059 15.4832C14.2176 15.4832 16.224 13.041 16.8332 10.1807C16.8934 10.0123 17.1442 9.81886 17.3366 9.09943C17.549 8.3813 17.6025 7.64372 17.4027 7.47055Z" fill="white"/>
</svg>
