<svg width="15" height="15" viewBox="0 0 15 15" fill="none" xmlns="http://www.w3.org/2000/svg">
<path fill-rule="evenodd" clip-rule="evenodd" d="M7.5 11.1858C5.46429 11.1858 3.81405 9.53571 3.81405 7.5C3.81405 5.46429 5.46429 3.81424 7.5 3.81424C9.53552 3.81424 11.1858 5.46429 11.1858 7.5C11.1858 9.53571 9.53552 11.1858 7.5 11.1858ZM7.5 9.89258C8.82141 9.89258 9.89258 8.82141 9.89258 7.5C9.89258 6.17859 8.82141 5.10742 7.5 5.10742C6.17859 5.10742 5.10742 6.17859 5.10742 7.5C5.10742 8.82141 6.17859 9.89258 7.5 9.89258Z" fill="white"/>
<path fill-rule="evenodd" clip-rule="evenodd" d="M14.6344 10.4593C14.5997 11.2233 14.4782 11.745 14.3008 12.2016C13.928 13.1658 13.1658 13.928 12.2016 14.3008C11.7452 14.4782 11.2233 14.5995 10.4594 14.6344C9.69402 14.6693 9.4495 14.6777 7.50019 14.6777C5.55069 14.6777 5.30636 14.6693 4.54075 14.6344C3.77686 14.5995 3.255 14.4782 2.79858 14.3008C2.31945 14.1206 1.88572 13.8381 1.52714 13.4729C1.16207 13.1145 0.879593 12.6805 0.699348 12.2016C0.521965 11.7452 0.400467 11.2233 0.365753 10.4594C0.330467 9.69383 0.322266 9.44931 0.322266 7.5C0.322266 5.55069 0.330467 5.30617 0.365562 4.54075C0.400276 3.77666 0.521584 3.255 0.698967 2.79839C0.879211 2.31945 1.16188 1.88553 1.52714 1.52714C1.88553 1.16188 2.31945 0.879402 2.79839 0.699158C3.255 0.521774 3.77666 0.400467 4.54075 0.365562C5.30617 0.330658 5.55069 0.322266 7.5 0.322266C9.44931 0.322266 9.69383 0.330658 10.4593 0.365753C11.2233 0.400467 11.745 0.521774 12.2016 0.698967C12.6805 0.879211 13.1145 1.16188 13.4731 1.52714C13.8381 1.88572 14.1208 2.31945 14.3008 2.79839C14.4784 3.255 14.5997 3.77666 14.6346 4.54075C14.6695 5.30617 14.6777 5.55069 14.6777 7.5C14.6777 9.44931 14.6695 9.69383 14.6344 10.4593ZM12.5585 2.44152C12.7969 2.67307 12.9804 2.95517 13.0954 3.26683C13.1938 3.51974 13.3107 3.89988 13.3426 4.59969C13.3771 5.35652 13.3844 5.5835 13.3844 7.50019C13.3844 9.41669 13.3771 9.64367 13.3426 10.4007C13.3105 11.1005 13.1936 11.4804 13.0954 11.7334C12.8539 12.3594 12.3592 12.8541 11.7332 13.0956C11.4803 13.194 11.1001 13.3109 10.4003 13.3428C9.64367 13.3773 9.41669 13.3846 7.49981 13.3846C5.58311 13.3846 5.35633 13.3773 4.59949 13.3428C3.89969 13.3109 3.51955 13.194 3.26664 13.0956C2.95479 12.9806 2.67288 12.7971 2.44133 12.5587C2.20291 12.3271 2.01962 12.0452 1.90441 11.7334C1.80618 11.4804 1.68926 11.1005 1.65741 10.4007C1.62289 9.64367 1.61545 9.41669 1.61545 7.50019C1.61545 5.5835 1.62289 5.35652 1.65741 4.59969C1.68926 3.89988 1.80618 3.51974 1.90441 3.26683C2.01962 2.95498 2.2031 2.67307 2.44152 2.44152C2.67288 2.2031 2.95498 2.01962 3.26683 1.9046C3.51955 1.80637 3.89969 1.68945 4.59949 1.65741C5.35633 1.62289 5.58331 1.61564 7.5 1.61564C9.4165 1.61564 9.64348 1.62308 10.4005 1.6576C11.1003 1.68945 11.4803 1.80637 11.7332 1.9046C12.045 2.01962 12.3269 2.2031 12.5585 2.44152Z" fill="white"/>
<path d="M11.3315 4.52988C10.8558 4.52988 10.4701 4.14421 10.4701 3.66852C10.4701 3.19283 10.8558 2.80716 11.3315 2.80716C11.8072 2.80716 12.1928 3.19283 12.1928 3.66852C12.1926 4.14421 11.8072 4.52988 11.3315 4.52988Z" fill="white"/>
</svg>
