<svg width="23" height="30" viewBox="0 0 23 30" fill="none" xmlns="http://www.w3.org/2000/svg">
<path d="M5.8259 17.5447C7.01452 17.7232 8.46542 17.4498 10.0502 17.3549C10.346 17.4219 10.6418 17.4666 10.9487 17.4666C11.2612 17.4666 11.5681 17.4219 11.875 17.3494C15.9989 17.5503 19.2132 18.7166 19.2132 10.3237C19.2132 4.62612 15.5134 0 10.9487 0C6.38394 0 2.68416 4.62612 2.68416 10.3237C2.68416 14.9052 3.56027 16.6853 4.98327 17.3047C5.24555 17.4275 5.53014 17.5 5.8259 17.5447ZM4.50894 7.10381C5.37389 8.30359 7.6172 8.04689 9.55359 6.52903C10.0447 6.14398 10.4744 5.70314 10.8203 5.25671C10.865 5.26229 10.9096 5.26787 10.9543 5.27903C11.144 5.31251 11.317 5.37947 11.5123 5.44086C11.6853 5.52456 11.875 5.59153 12.0424 5.69756C12.2155 5.78684 12.3717 5.90961 12.5279 6.01564C12.6674 6.1384 12.8237 6.25559 12.9409 6.38952C13.0636 6.51229 13.1808 6.64622 13.2701 6.77457C13.3705 6.89733 13.4431 7.02568 13.5156 7.13729C13.5881 7.2489 13.6495 7.34934 13.683 7.43863C13.7667 7.61162 13.8169 7.71207 13.8169 7.71207C13.8169 7.71207 13.8001 7.60604 13.7667 7.41073C13.7556 7.31028 13.7276 7.19867 13.6942 7.06475C13.6606 6.93082 13.6216 6.77457 13.5547 6.61832C13.4989 6.45649 13.4207 6.28907 13.3314 6.1105C13.2477 5.93193 13.125 5.75894 13.0077 5.56921C12.8682 5.39622 12.7399 5.20648 12.5725 5.03907C12.4162 4.8605 12.2265 4.70983 12.0423 4.548C11.8693 4.42523 11.6852 4.2913 11.4899 4.18528C11.5736 4.01228 11.6405 3.83371 11.6963 3.6663C12.3883 3.9788 13.0971 4.37501 13.6606 4.93863C15.731 7.00894 14.9162 9.41408 16.5123 7.82368C16.7634 7.57256 16.9698 7.31028 17.1317 7.048C17.1875 7.048 17.2433 7.04242 17.2879 7.05358C17.5056 7.10939 17.6451 7.2768 17.7232 7.41073C17.9408 7.77345 17.9911 8.29801 17.8571 8.82256C17.6562 9.60381 17.1428 10.067 16.7299 10.1172L16.3951 10.1618L16.3058 10.4911C15.5134 13.365 13.3761 16.423 10.9598 16.423C8.54354 16.423 6.41184 13.365 5.61385 10.4911L5.52456 10.1618L5.18974 10.1172C4.78237 10.0614 4.2634 9.59823 4.06251 8.82256C3.92858 8.29801 3.9788 7.77345 4.19644 7.41073C4.24666 7.31028 4.35827 7.18193 4.50894 7.10381Z" fill="white"/>
<path d="M17.1596 18.298C16.5123 19.4029 15.759 20.3349 14.7657 20.8482C12.7121 21.8973 11.1831 22.7567 11.1831 22.7567L11.1775 22.7511V22.7343L11.1607 22.7455L11.144 22.7343V22.7511L11.1384 22.7567C11.1384 22.7567 9.61497 21.9085 7.55582 20.8482C6.56251 20.3349 5.81474 19.4029 5.16184 18.298C2.12054 19.5368 0 22.3716 0 24.8549C0 27.4666 0 30 0 30H22.3215C22.3215 30 22.3215 27.4666 22.3215 24.8549C22.3215 22.3773 20.1954 19.5369 17.1596 18.298Z" fill="white"/>
</svg>
