<svg width="13" height="15" viewBox="0 0 13 15" fill="none" xmlns="http://www.w3.org/2000/svg">
<path d="M12.7706 6.25664V4.56411L12.7705 3.93613L12.7639 3.93667C11.9479 3.93667 11.1951 3.66636 10.5905 3.21035C9.89711 2.6876 9.39892 1.9208 9.22299 1.03696C9.17944 0.818604 9.156 0.593262 9.15375 0.362305H6.82289V6.73145L6.82011 10.2201C6.82011 11.1528 6.21274 11.9436 5.37079 12.2217C5.12646 12.3024 4.86259 12.3407 4.58778 12.3256C4.23705 12.3063 3.90839 12.2005 3.6227 12.0296C3.01479 11.666 2.60263 11.0064 2.59145 10.2519C2.57382 9.07261 3.52719 8.11118 4.70561 8.11118C4.93822 8.11118 5.16161 8.14912 5.37079 8.21812V6.47729V5.85151C5.15019 5.81885 4.92568 5.80181 4.69863 5.80181C3.40878 5.80181 2.20243 6.33794 1.34013 7.30386C0.688371 8.03379 0.297404 8.96509 0.237102 9.9416C0.158049 11.2245 0.627482 12.4439 1.53783 13.3437C1.67157 13.4757 1.81205 13.5983 1.95893 13.7114C2.73945 14.3121 3.6936 14.6377 4.69863 14.6377C4.92568 14.6377 5.15019 14.6209 5.37079 14.5883C6.30966 14.4492 7.17587 14.0194 7.85946 13.3437C8.69945 12.5134 9.16357 11.4112 9.1686 10.2381L9.15658 5.02852C9.55732 5.33765 9.99545 5.59346 10.4657 5.79199C11.1971 6.10054 11.9725 6.25693 12.7706 6.25664Z" fill="white"/>
</svg>
