<svg width="16" height="16" viewBox="0 0 16 16" fill="none" xmlns="http://www.w3.org/2000/svg">
<path fill-rule="evenodd" clip-rule="evenodd" d="M7.76503 15.778H7.76198C6.5098 15.7774 5.27937 15.4635 4.18665 14.8676L0.220703 15.9077L1.28214 12.032C0.62735 10.8978 0.282883 9.61115 0.283455 8.29298C0.285171 4.16929 3.64134 0.814453 7.76503 0.814453C9.76622 0.815216 11.6448 1.59418 13.0572 3.00771C14.4697 4.42144 15.2472 6.30056 15.2464 8.29889C15.2447 12.4228 11.8881 15.778 7.76503 15.778ZM1.5465 8.29355C1.54803 4.86604 4.33752 2.07769 7.76751 2.07769C9.42824 2.07826 10.9896 2.72581 12.1636 3.90073C13.3375 5.07566 13.9837 6.6374 13.9832 8.29851C13.9817 11.7262 11.1922 14.5147 7.76484 14.5147H7.76236C6.64656 14.5144 5.55212 14.2147 4.5975 13.6482L4.37033 13.5136L2.01685 14.1308L2.64513 11.8368L2.49731 11.6017C1.87495 10.6119 1.54612 9.46809 1.5465 8.29355Z" fill="white"/>
<path d="M11.425 10.9661C11.2692 11.4025 10.5225 11.801 10.1633 11.8548C9.84118 11.9028 9.43377 11.9229 8.98592 11.7808C8.71432 11.6945 8.36623 11.5795 7.9201 11.3871C6.04498 10.5776 4.82027 8.69009 4.72681 8.56535L4.72518 8.56316C4.62583 8.43059 3.96349 7.54679 3.96349 6.63206C3.96349 5.71233 4.44643 5.2601 4.61771 5.07318C4.78918 4.88607 4.99174 4.83934 5.11629 4.83934C5.24084 4.83934 5.36559 4.84048 5.47449 4.84583C5.58932 4.85155 5.74343 4.80215 5.89507 5.16664C6.0509 5.54086 6.42474 6.46059 6.47147 6.55405C6.5182 6.6477 6.54929 6.7568 6.48711 6.88154C6.42474 7.00628 6.2176 7.27541 6.01981 7.52069C5.93684 7.6235 5.82869 7.71505 5.93779 7.90216C6.0467 8.08908 6.42207 8.70115 6.97768 9.19668C7.69179 9.83335 8.29413 10.0306 8.48105 10.1242C8.66778 10.2177 8.77688 10.202 8.88598 10.0775C8.99489 9.95275 9.35328 9.5318 9.47783 9.34469C9.60238 9.15758 9.72712 9.18886 9.8984 9.25123C10.0699 9.31341 10.9888 9.76564 11.1758 9.8591C11.3627 9.95275 11.4872 9.99948 11.534 10.0775C11.5809 10.1555 11.5809 10.5295 11.425 10.9661Z" fill="white"/>
</svg>
