<svg width="17" height="11" viewBox="0 0 17 11" fill="none" xmlns="http://www.w3.org/2000/svg">
<path fill-rule="evenodd" clip-rule="evenodd" d="M16.3108 5.51278C16.3108 5.51278 16.3108 8.04784 15.9893 9.27026C15.809 9.93935 15.2814 10.4669 14.6123 10.647C13.3899 10.9688 8.50024 10.9688 8.50024 10.9688C8.50024 10.9688 3.62334 10.9687 2.38814 10.6342C1.71904 10.4541 1.19147 9.92638 1.01122 9.25729C0.689453 8.04784 0.689453 5.5 0.689453 5.5C0.689453 5.5 0.689453 2.96513 1.01122 1.74271C1.19128 1.07362 1.73182 0.533073 2.38814 0.35302C3.61056 0.03125 8.50024 0.03125 8.50024 0.03125C8.50024 0.03125 13.3899 0.03125 14.6123 0.365799C15.2814 0.545853 15.809 1.07362 15.9893 1.74271C16.3238 2.96513 16.3108 5.51278 16.3108 5.51278ZM11.0094 5.5L6.94327 7.84184V3.15816L11.0094 5.5Z" fill="white"/>
</svg>
